<?xml version="1.0" encoding="UTF-8"?><svg id="Layer_2" xmlns="http://www.w3.org/2000/svg" viewBox="0 0 396.22 98.41"><defs><style>.cls-1{fill:#fff;}</style></defs><g id="Layer_1-2"><g><g><polygon points="32.8 0 0 31.67 32.8 63.33 121.52 63.33 121.52 0 32.8 0"/><g><path class="cls-1" d="M52.2,48.2l-1.77,4.66h-7.09V8.21h9.19v15.36c2.36-2.76,5.58-4.33,9.46-4.33,8.27,0,14.31,7.16,14.31,16.94s-5.84,17.47-13.79,17.47c-4.2,0-7.81-2.04-10.31-5.45Zm7.55-3.48c4.2,0,7.22-3.48,7.22-8.34s-3.02-8.34-7.22-8.34-7.22,3.48-7.22,8.34,3.02,8.34,7.22,8.34Z"/><path class="cls-1" d="M84.57,5.58c3.28,0,5.65,2.43,5.65,5.78s-2.36,5.78-5.65,5.78-5.65-2.43-5.65-5.78,2.36-5.78,5.65-5.78Zm4.6,14.45V52.86h-9.19V20.03h9.19Z"/><path class="cls-1" d="M91.79,20.03h2.1c1.84,0,3.15-1.44,3.15-3.41v-5.78h8.67v9.19h7.35v8.14h-7.35v12.21c0,3.15,1.84,4.46,4.46,4.46,.66,0,1.31-.07,2.36-.39l1.58,8.4c-1.31,.39-3.28,.79-6.43,.79-6.43,0-11.16-4.46-11.16-10.77v-14.71h-4.73v-8.14Z"/></g><g><path d="M145.02,53.77c-9.65,0-16.68-7.22-16.68-17.2s6.89-17.2,16.41-17.2c7.49,0,13.33,4.46,15.04,11.56l-9,2.76c-.79-3.55-3.02-5.65-6.04-5.65-3.94,0-6.83,3.55-6.83,8.47s2.89,8.47,6.83,8.47c3.22,0,5.91-2.43,6.3-6.11l9.19,2.76c-1.58,7.55-7.49,12.15-15.23,12.15Z"/><path d="M169.44,35.12l10.77-2.23c.79-.13,1.18-.66,1.18-1.18,0-2.3-1.9-3.94-4.6-3.94s-4.73,1.77-4.99,4.2l-8.93-3.15c1.51-5.52,7.16-9.46,13.53-9.46,8.21,0,14.18,5.19,14.18,12.34v14.71l.13,6.57h-7.22l-1.44-3.81c-2.1,2.82-5.58,4.6-9.72,4.6-6.24,0-10.77-4.07-10.77-9.72,0-4.2,3.28-7.94,7.88-8.93Zm9.72,2.89l-4.99,1.05c-1.84,.39-2.89,1.58-2.89,3.15,0,1.77,1.31,3.02,3.68,3.02,3.41,0,6.43-2.76,6.43-7.22v-.53c0,.13-.98,.26-2.23,.53Z"/><path d="M208.97,46.02c2.3,0,3.94-1.25,3.94-3.02,0-5.78-18.38-3.68-18.38-14.44,0-5.65,5.19-9.32,13-9.32,8.34,0,14.31,4,14.58,9.59l-10.24,2.1c0-2.63-1.71-4.07-4.6-4.07-2.3,0-3.55,1.05-3.55,2.5,0,5.78,18.91,3.41,18.91,14.18,0,6.04-6.04,10.37-14.45,10.37s-14.97-4.07-15.5-10.64l10.77-2.23c.13,2.89,2.5,4.99,5.52,4.99Z"/><path d="M242.32,28.29c-3.74,0-6.57,3.35-6.57,7.88v16.81h-9.19V8.33h9.19V24.95c1.71-3.28,5.78-5.58,9.98-5.58,6.76,0,11.42,5.97,11.42,14.18v19.43h-9.19v-17.86c0-4-2.3-6.83-5.65-6.83Z"/><path d="M271.01,48.32l-1.77,4.66h-7.09V8.33h9.19v15.36c2.36-2.76,5.58-4.33,9.46-4.33,8.27,0,14.31,7.16,14.31,16.94s-5.84,17.47-13.79,17.47c-4.2,0-7.81-2.04-10.31-5.45Zm7.55-3.48c4.2,0,7.22-3.48,7.22-8.34s-3.02-8.34-7.22-8.34-7.22,3.48-7.22,8.34,3.02,8.34,7.22,8.34Z"/><path d="M304.56,35.12l10.77-2.23c.79-.13,1.18-.66,1.18-1.18,0-2.3-1.9-3.94-4.6-3.94s-4.73,1.77-4.99,4.2l-8.93-3.15c1.51-5.52,7.16-9.46,13.53-9.46,8.21,0,14.18,5.19,14.18,12.34v14.71l.13,6.57h-7.22l-1.44-3.81c-2.1,2.82-5.58,4.6-9.72,4.6-6.24,0-10.77-4.07-10.77-9.72,0-4.2,3.28-7.94,7.88-8.93Zm9.72,2.89l-4.99,1.05c-1.84,.39-2.89,1.58-2.89,3.15,0,1.77,1.31,3.02,3.68,3.02,3.42,0,6.43-2.76,6.43-7.22v-.53c0,.13-.98,.26-2.23,.53Z"/><path d="M345.53,53.77c-9.65,0-16.68-7.22-16.68-17.2s6.89-17.2,16.41-17.2c7.49,0,13.33,4.46,15.04,11.56l-9,2.76c-.79-3.55-3.02-5.65-6.04-5.65-3.94,0-6.83,3.55-6.83,8.47s2.89,8.47,6.83,8.47c3.22,0,5.91-2.43,6.3-6.11l9.19,2.76c-1.58,7.55-7.49,12.15-15.23,12.15Z"/><path d="M373.37,8.33V31.97l9.72-11.82h11.82l-11.88,13,13.2,19.83h-11.29l-8.01-13.2-3.55,3.87v9.32h-9.19V8.33h9.19Z"/></g><circle class="cls-1" cx="16.4" cy="31.67" r="5.47"/></g><g><path d="M45.78,80.02v-1.81c0-2.23,1.59-3.83,3.56-3.83,.8,0,1.54,.16,2.29,.64l-.64,2.07c-.35-.34-.96-.53-1.49-.53-.93,0-1.59,.82-1.59,1.97v1.49h3.19v2.07h-3.19v10.68h-2.12v-10.68h-2.02v-2.07h2.02Z"/><path d="M55.67,85.55l4.09-.74c.5-.08,.85-.37,.85-.74v-.11c0-1.67-1.22-2.87-2.92-2.87s-2.92,1.33-2.97,3.19l-2.34-.37c.27-2.74,2.42-4.73,5.26-4.73s5.1,1.89,5.1,4.78v6.16l.05,2.66h-1.75l-.35-2.18c-.77,1.54-2.36,2.5-4.49,2.5-2.55,0-4.25-1.59-4.25-3.83,0-1.91,1.28-3.27,3.72-3.72Zm4.04,1.06l-3.51,.64c-1.28,.24-1.91,1.04-1.91,2.02,0,1.04,.85,1.75,2.34,1.75,2.21,0,3.99-1.65,3.99-3.77v-.85c-.19,.08-.53,.13-.9,.21Z"/><path d="M67.04,74.39c.96,0,1.65,.72,1.65,1.7s-.69,1.7-1.65,1.7-1.65-.72-1.65-1.7,.69-1.7,1.65-1.7Zm1.06,5.1v13.28h-2.12v-13.28h2.12Z"/><path d="M82.35,91.08c1.49,0,2.6-.8,2.6-1.91,0-3.03-7.86-1.73-7.86-6.38,0-2.34,2.1-3.61,4.73-3.61s4.75,1.51,5.05,3.61l-2.23,.58c-.05-1.3-1.28-2.23-2.82-2.23-1.33,0-2.44,.69-2.44,1.75,0,2.87,7.92,1.62,7.92,6.27,0,2.34-2.07,3.93-5.1,3.93s-5.55-1.78-5.74-4.25l2.34-.64c.11,1.67,1.73,2.87,3.56,2.87Z"/><path d="M95.9,81.3c-2.21,0-4.04,1.83-4.04,4.36v7.12h-2.12v-18.06h2.12v6.99c.64-1.57,2.34-2.52,4.36-2.52,3,0,5.15,2.31,5.15,5.53v8.08h-2.12v-7.92c0-2.07-1.36-3.56-3.35-3.56Z"/><path d="M103.61,86.13c0-4.04,2.79-6.96,6.64-6.96s6.64,2.92,6.64,6.96-2.79,6.96-6.64,6.96-6.64-2.92-6.64-6.96Zm6.64,4.83c2.55,0,4.41-2.02,4.41-4.83s-1.86-4.89-4.41-4.89-4.41,2.04-4.41,4.89,1.86,4.83,4.41,4.83Z"/><path d="M121.46,90.54v7.54h-2.13v-18.6h1.81l.27,2.23c1.01-1.59,2.66-2.55,4.73-2.55,3.56,0,6.32,2.87,6.32,6.91s-2.9,7.01-6.32,7.01c-1.99,0-3.64-.96-4.67-2.55Zm4.36,.42c2.55,0,4.41-2.02,4.41-4.83s-1.86-4.89-4.41-4.89-4.41,2.04-4.41,4.89,1.86,4.83,4.41,4.83Z"/><path d="M137.03,90.54v7.54h-2.12v-18.6h1.81l.27,2.23c1.01-1.59,2.66-2.55,4.73-2.55,3.56,0,6.32,2.87,6.32,6.91s-2.9,7.01-6.32,7.01c-1.99,0-3.64-.96-4.68-2.55Zm4.36,.42c2.55,0,4.41-2.02,4.41-4.83s-1.86-4.89-4.41-4.89-4.41,2.04-4.41,4.89,1.86,4.83,4.41,4.83Z"/><path d="M151.81,74.39c.96,0,1.65,.72,1.65,1.7s-.69,1.7-1.65,1.7-1.65-.72-1.65-1.7,.69-1.7,1.65-1.7Zm1.06,5.1v13.28h-2.12v-13.28h2.12Z"/><path d="M162.49,81.3c-2.21,0-4.04,1.83-4.04,4.36v7.12h-2.12v-13.28h1.81l.29,2.44c.69-1.65,2.26-2.76,4.38-2.76,3,0,5.15,2.31,5.15,5.53v8.08h-2.12v-7.92c0-2.07-1.36-3.56-3.35-3.56Z"/><path d="M170.73,93.73l2.34-.64c.27,1.86,1.91,3.13,4.04,3.13,2.42,0,4.14-1.67,4.14-3.98v-1.91c-1.06,1.51-2.71,2.44-4.73,2.44-3.45,0-6.32-2.74-6.32-6.77s2.84-6.83,6.43-6.83c2.05,0,3.69,.96,4.7,2.5l.19-2.18h1.86v12.54c0,3.72-2.66,6.38-6.38,6.38-3.21,0-5.87-1.97-6.27-4.68Zm6.11-2.97c2.55,0,4.41-1.99,4.41-4.76s-1.86-4.75-4.41-4.75-4.41,1.99-4.41,4.75,1.86,4.76,4.41,4.76Z"/><path d="M185.87,95.22l.05-1.17c.11,.03,.27,.05,.42,.05,.85,0,1.49-.48,1.49-1.22-1.2,.11-2.02-.58-2.02-1.65s.66-1.75,1.59-1.75c1.06,0,1.91,.96,1.91,2.44,0,1.83-1.22,3.35-2.92,3.35-.19,0-.4-.03-.53-.05Z"/><path d="M197.62,93.73l2.34-.64c.27,1.86,1.91,3.13,4.04,3.13,2.42,0,4.14-1.67,4.14-3.98v-1.91c-1.06,1.51-2.71,2.44-4.73,2.44-3.45,0-6.32-2.74-6.32-6.77s2.84-6.83,6.43-6.83c2.05,0,3.69,.96,4.7,2.5l.19-2.18h1.86v12.54c0,3.72-2.66,6.38-6.38,6.38-3.21,0-5.87-1.97-6.27-4.68Zm6.11-2.97c2.55,0,4.41-1.99,4.41-4.76s-1.86-4.75-4.41-4.75-4.41,1.99-4.41,4.75,1.86,4.76,4.41,4.76Z"/><path d="M222.91,92.78l-.27-2.26c-.58,1.54-2.28,2.58-4.3,2.58-2.95,0-5.1-2.31-5.1-5.47v-8.13h2.12v7.92c0,2.02,1.3,3.51,3.29,3.51,2.1,0,3.93-1.62,3.93-4.14v-7.28h2.12v10.63l.05,2.66h-1.86Z"/><path d="M230.78,85.55l4.09-.74c.5-.08,.85-.37,.85-.74v-.11c0-1.67-1.22-2.87-2.92-2.87s-2.92,1.33-2.98,3.19l-2.34-.37c.27-2.74,2.42-4.73,5.26-4.73s5.1,1.89,5.1,4.78v6.16l.05,2.66h-1.75l-.34-2.18c-.77,1.54-2.37,2.5-4.49,2.5-2.55,0-4.25-1.59-4.25-3.83,0-1.91,1.27-3.27,3.72-3.72Zm4.04,1.06l-3.51,.64c-1.28,.24-1.91,1.04-1.91,2.02,0,1.04,.85,1.75,2.34,1.75,2.21,0,3.99-1.65,3.99-3.77v-.85c-.19,.08-.53,.13-.9,.21Z"/><path d="M240.08,86.08c0-3.91,2.76-6.91,6.4-6.91,1.97,0,3.59,.88,4.65,2.36v-6.83h2.12v15.41l.05,2.66h-1.81l-.27-2.15c-1.01,1.57-2.66,2.47-4.65,2.47-3.67,0-6.51-3.08-6.51-7.01Zm6.72,4.89c2.58,0,4.38-1.99,4.38-4.83s-1.89-4.89-4.49-4.89-4.38,2.04-4.38,4.89,1.89,4.83,4.49,4.83Z"/><path d="M259.53,85.55l4.09-.74c.5-.08,.85-.37,.85-.74v-.11c0-1.67-1.22-2.87-2.92-2.87s-2.92,1.33-2.98,3.19l-2.34-.37c.27-2.74,2.42-4.73,5.26-4.73s5.1,1.89,5.1,4.78v6.16l.05,2.66h-1.75l-.34-2.18c-.77,1.54-2.37,2.5-4.49,2.5-2.55,0-4.25-1.59-4.25-3.83,0-1.91,1.27-3.27,3.72-3.72Zm4.04,1.06l-3.51,.64c-1.28,.24-1.91,1.04-1.91,2.02,0,1.04,.85,1.75,2.34,1.75,2.21,0,3.99-1.65,3.99-3.77v-.85c-.19,.08-.53,.13-.9,.21Z"/><path d="M269.36,93.73l2.34-.64c.27,1.86,1.91,3.13,4.04,3.13,2.42,0,4.14-1.67,4.14-3.98v-1.91c-1.06,1.51-2.71,2.44-4.73,2.44-3.45,0-6.32-2.74-6.32-6.77s2.84-6.83,6.43-6.83c2.04,0,3.69,.96,4.7,2.5l.19-2.18h1.86v12.54c0,3.72-2.66,6.38-6.38,6.38-3.21,0-5.87-1.97-6.27-4.68Zm6.11-2.97c2.55,0,4.41-1.99,4.41-4.76s-1.86-4.75-4.41-4.75-4.41,1.99-4.41,4.75,1.86,4.76,4.41,4.76Z"/><path d="M291.36,81.3c-2.21,0-4.04,1.83-4.04,4.36v7.12h-2.12v-13.28h1.81l.29,2.44c.69-1.65,2.26-2.76,4.38-2.76,3,0,5.15,2.31,5.15,5.53v8.08h-2.12v-7.92c0-2.07-1.35-3.56-3.35-3.56Z"/><path d="M302.68,85.55l4.09-.74c.5-.08,.85-.37,.85-.74v-.11c0-1.67-1.22-2.87-2.92-2.87s-2.92,1.33-2.98,3.19l-2.34-.37c.27-2.74,2.42-4.73,5.26-4.73s5.1,1.89,5.1,4.78v6.16l.05,2.66h-1.75l-.34-2.18c-.77,1.54-2.37,2.5-4.49,2.5-2.55,0-4.25-1.59-4.25-3.83,0-1.91,1.27-3.27,3.72-3.72Zm4.04,1.06l-3.51,.64c-1.28,.24-1.91,1.04-1.91,2.02,0,1.04,.85,1.75,2.34,1.75,2.21,0,3.99-1.65,3.99-3.77v-.85c-.19,.08-.53,.13-.9,.21Z"/><path d="M320.86,90.52l-.27,2.26h-1.81v-18.06h2.12v6.93c1.04-1.54,2.68-2.47,4.68-2.47,3.61,0,6.32,2.95,6.32,6.91s-2.74,7.01-6.32,7.01c-2.02,0-3.69-.96-4.73-2.58Zm4.41,.45c2.55,0,4.41-2.02,4.41-4.83s-1.86-4.89-4.41-4.89-4.41,2.04-4.41,4.89,1.86,4.83,4.41,4.83Z"/><path d="M335.69,74.39c.96,0,1.65,.72,1.65,1.7s-.69,1.7-1.65,1.7-1.65-.72-1.65-1.7,.69-1.7,1.65-1.7Zm1.06,5.1v13.28h-2.12v-13.28h2.12Z"/><path d="M338.82,79.49h.85c.82,0,1.43-.69,1.43-1.65v-1.75h2.02v3.4h2.92v2.07h-2.92v7.7c0,.98,.72,1.65,1.81,1.65,.37,0,.8-.05,1.12-.16l.05,2.12c-.42,.13-.98,.21-1.49,.21-2.15,0-3.61-1.35-3.61-3.4v-8.13h-2.18v-2.07Z"/><path d="M354.02,93.09c-3.64,0-6.54-2.79-6.54-6.96s2.82-6.96,6.43-6.96c3,0,5.47,1.97,6,4.68l-2.34,.74c-.21-1.91-1.73-3.35-3.67-3.35-2.34,0-4.14,2.02-4.14,4.89s1.81,4.83,4.14,4.83c2.02,0,3.61-1.38,3.77-3.51l2.44,.74c-.48,2.87-3.03,4.89-6.11,4.89Z"/><path d="M361.62,86.13c0-4.04,2.79-6.96,6.64-6.96s6.64,2.92,6.64,6.96-2.79,6.96-6.64,6.96-6.64-2.92-6.64-6.96Zm6.64,4.83c2.55,0,4.41-2.02,4.41-4.83s-1.86-4.89-4.41-4.89-4.41,2.04-4.41,4.89,1.86,4.83,4.41,4.83Z"/><path d="M378.68,74.39c.96,0,1.65,.72,1.65,1.7s-.69,1.7-1.65,1.7-1.65-.72-1.65-1.7,.69-1.7,1.65-1.7Zm1.06,5.1v13.28h-2.12v-13.28h2.12Z"/><path d="M389.36,81.3c-2.21,0-4.04,1.83-4.04,4.36v7.12h-2.12v-13.28h1.81l.29,2.44c.69-1.65,2.26-2.76,4.38-2.76,3,0,5.15,2.31,5.15,5.53v8.08h-2.12v-7.92c0-2.07-1.35-3.56-3.35-3.56Z"/></g></g></g></svg>