<?xml version="1.0" encoding="UTF-8"?>
<svg id="Layer_1" data-name="Layer 1" xmlns="http://www.w3.org/2000/svg" version="1.1" viewBox="0 0 800 800">
  <defs>
    <style>
      .cls-1 {
        fill: #ea6113;
      }

      .cls-1, .cls-2 {
        stroke-width: 0px;
      }

      .cls-2 {
        fill: #002946;
      }
    </style>
  </defs>
  <path class="cls-2" d="M344.33,389.46c3.74,0,6.64,2.2,8.09,5.14h6.68c-2.01-6.64-7.43-10.79-14.77-10.79-8.83,0-15.71,7.43-15.71,16.92s6.87,16.92,15.71,16.92c7.2,0,12.67-4.25,14.73-10.85h-6.64c-1.45,2.95-4.39,5.24-8.09,5.24-5.33,0-9.54-5.14-9.54-11.31s4.21-11.27,9.54-11.27ZM374.73,392.4c-2.1,0-3.97.7-5.52,1.87v-11.97h-6.22v34.78h6.22v-14.07c0-2.71,1.92-4.58,4.68-4.58,4.02,0,4.49,3.18,4.49,4.58v14.07h6.17v-14.07c0-6.35-3.92-10.61-9.82-10.61ZM407.42,395.58c-1.87-1.96-4.44-3.09-7.39-3.09-6.26,0-11.45,5.43-11.45,12.57s5.19,12.53,11.45,12.53c2.94,0,5.52-1.12,7.39-3.08v2.57h5.89v-24.07h-5.89v2.58ZM400.97,411.9c-3.41,0-6.17-2.95-6.17-6.78s2.76-6.92,6.17-6.92,6.17,3.09,6.17,6.92-2.76,6.78-6.17,6.78ZM419.17,390.39h6.17v-5.75h-6.17v5.75ZM419.17,417.08h6.17v-24.07h-6.17v24.07ZM443.2,392.4c-2.57,0-4.67,1.12-6.21,2.94v-2.34h-5.89v24.07h6.17v-14.07c0-2.71,1.92-4.76,4.68-4.76,4.07,0,4.49,3.36,4.49,4.76v14.07h6.17v-14.07c0-6.35-3.74-10.61-9.4-10.61ZM463.04,384.64h-3.97v32.44h20.66v-3.83h-16.69v-28.61ZM501.99,396.84c-1.68-2.43-4.77-4.44-8.32-4.44-6.92,0-12.06,5.7-12.06,12.67s5.14,12.62,12.06,12.62c3.55,0,6.64-2.01,8.32-4.49v3.88h3.83v-24.07h-3.83v3.83ZM493.67,413.91c-4.53,0-8.09-3.97-8.09-8.79s3.55-8.93,8.09-8.93,8.18,4.02,8.18,8.93-3.74,8.79-8.18,8.79ZM524.58,392.4c-3.45,0-6.45,1.92-8.18,4.25v-14.35h-3.97v34.78h3.83v-3.88c1.68,2.48,4.77,4.49,8.32,4.49,6.93,0,12.02-5.65,12.02-12.57s-5.09-12.71-12.02-12.71ZM524.58,413.91c-4.44,0-8.18-3.97-8.18-8.79s3.74-8.93,8.18-8.93,8.04,4.02,8.04,8.93-3.55,8.79-8.04,8.79ZM552.04,392.4c-6.83,0-12.11,5.7-12.11,12.71s5.28,12.53,12.11,12.53,12.11-5.61,12.11-12.53-5.23-12.71-12.11-12.71ZM552.04,414c-4.44,0-8.09-3.97-8.09-8.88s3.64-9.07,8.09-9.07,8.13,4.07,8.13,9.07-3.65,8.88-8.13,8.88Z"/>
  <path class="cls-1" d="M256.86,394.93c1.78.5,3.58-.3,4.46-1.81.16-.28.29-.59.38-.92.58-2.08-.64-4.24-2.73-4.83-1.73-.48-3.5.27-4.39,1.73-.06.12-.12.22-.18.34-.11.2-.2.43-.26.67-.58,2.08.64,4.25,2.72,4.83ZM260.02,428.16c-.16-.08-.32-.18-.47-.27-12.21-6.95-18.63-21.54-14.68-35.69.02-.07.03-.12.05-.19h0c.58-2.08-.64-4.26-2.72-4.84-2.02-.56-4.11.57-4.77,2.52v.02c-.03.08-.05.18-.09.26l-.03.11c-4.95,17.79,3.16,36.12,18.58,44.76h0c.28.15.59.28.91.37,2.09.57,4.25-.63,4.84-2.73.47-1.67-.24-3.41-1.62-4.33ZM287.99,433.08c-.46-1.03-1.35-1.85-2.52-2.16-.64-.18-1.29-.18-1.9-.06,0,0-.02,0-.02,0-.11.03-.21.05-.32.08-.02,0-.03.01-.05.01-1.19.4-2.18,1.36-2.54,2.67-.58,2.08.64,4.25,2.73,4.83.71.2,1.44.18,2.11,0,1.27-.36,2.34-1.36,2.72-2.73.23-.8.18-1.61-.08-2.32-.05-.12-.09-.23-.13-.34ZM285.64,362.84c-5.79-1.61-11.65-1.84-17.2-.88h0c-1.44.27-2.67,1.32-3.1,2.82-.59,2.08.64,4.25,2.72,4.83.51.14,1.03.19,1.52.11h.03c.09-.02.19-.04.29-.05,4.4-.74,9.04-.56,13.62.73,10.29,2.87,17.95,10.56,21.22,19.92,0,.02,0,.03,0,.03.04.08.07.18.09.26.21.69.24,1.45.02,2.21-.39,1.43-1.53,2.45-2.87,2.77h-.03c-.11.03-.22.05-.33.06-.52.08-1.06.05-1.61-.1-1.31-.37-2.26-1.34-2.66-2.54h-.02c-2.41-7.09-8.18-12.89-15.94-15.06h0c-2.09-.57-4.25.65-4.83,2.73-.58,2.09.64,4.26,2.72,4.84,8.35,2.32,13.23,10.98,10.9,19.33-2.33,8.35-10.98,13.22-19.33,10.9-5.34-1.49-9.27-5.58-10.79-10.52-.02-.02-.02-.04-.02-.06-.41-1.19-1.37-2.18-2.68-2.54-2.08-.58-4.25.64-4.83,2.72-.2.72-.18,1.45,0,2.12h0c2.26,7.44,8.15,13.6,16.21,15.84,12.52,3.5,25.5-3.83,29-16.35.05-.18.09-.37.14-.55l.02-.07s.03-.09.04-.13c.5-1.78,2.13-2.93,3.9-2.87.18,0,.36.02.54.05h.02c.12.03.26.05.38.09,2,.56,3.21,2.58,2.78,4.6-.02.08-.04.15-.06.23-.06.25-.13.5-.2.75-1.71,6.14-5.14,11.35-9.62,15.25-.09.07-.17.14-.25.22-.01,0-.01.02-.01.02-.49.46-.87,1.06-1.06,1.77-.31,1.08-.12,2.19.42,3.09v.02c.08.11.16.21.22.33.5.66,1.21,1.16,2.08,1.4,1.3.37,2.64.03,3.59-.79h0c5.68-4.88,10.02-11.43,12.18-19.18,5.82-20.87-6.38-42.51-27.25-48.34Z"/>
</svg>