<?xml version="1.0" encoding="UTF-8" standalone="no"?>
<svg
   width="990.28516pt"
   height="266.78906pt"
   viewBox="0 0 990.28517 266.78906"
   version="1.1"
   id="svg16"
   sodipodi:docname="Logo_Verse_6.svg"
   xmlns:inkscape="http://www.inkscape.org/namespaces/inkscape"
   xmlns:sodipodi="http://sodipodi.sourceforge.net/DTD/sodipodi-0.dtd"
   xmlns="http://www.w3.org/2000/svg"
   xmlns:svg="http://www.w3.org/2000/svg">
  <sodipodi:namedview
     id="namedview16"
     pagecolor="#ffffff"
     bordercolor="#000000"
     borderopacity="0.25"
     inkscape:showpageshadow="2"
     inkscape:pageopacity="0.0"
     inkscape:pagecheckerboard="0"
     inkscape:deskcolor="#d1d1d1"
     inkscape:document-units="pt" />
  <defs
     id="defs1" />
  <g
     id="surface1"
     transform="translate(-103.84375,-466.60547)">
    <path
       style="fill:#000000;fill-opacity:1;fill-rule:nonzero;stroke:none"
       d="m 612.13281,684.23828 c 0,3.80078 -2.62109,5.49609 -8.49609,5.49609 h -12.1875 v -10.99609 h 12.1875 c 5.875,0 8.49609,1.69531 8.49609,5.5 M 591.44922,670.35937 V 659.9375 h 10.55859 c 5.29688,0 7.8711,1.71094 7.8711,5.24219 0,4.28125 -4.28125,5.17968 -7.8711,5.17968 z m 24.01562,3.375 C 618.39453,671.47266 620,668.07812 620,664.09375 c 0,-7.89063 -6.39844,-12.59766 -17.11328,-12.59766 h -21.4961 v 46.67969 h 22.7461 c 11.68359,0 18.11719,-4.65625 18.11719,-13.10937 0,-5.15235 -2.46485,-9.24219 -6.78907,-11.33204"
       id="path2" />
    <path
       style="fill:#000000;fill-opacity:1;fill-rule:nonzero;stroke:none"
       d="m 669.19922,672.375 -12.28906,-20.87891 h -10.9336 l 17.94141,30.31641 v 16.36328 h 10.05859 v -16.49219 l 17.87891,-30.1875 h -10.24219"
       id="path3" />
    <path
       style="fill:#000000;fill-opacity:1;fill-rule:nonzero;stroke:none"
       d="m 776.83594,660.0625 c 4.32812,0 8.02734,1.66016 11,4.92969 l 0.66015,0.73047 6.61719,-6.35547 -0.57422,-0.6875 c -4.22656,-5.04297 -10.64453,-7.82422 -18.07812,-7.82422 -14.16016,0 -24.44141,10.08594 -24.44141,23.98047 0,13.89453 10.25391,23.98047 24.37891,23.98047 7.47265,0 13.91406,-2.78125 18.14062,-7.82422 l 0.57031,-0.6836 -6.61328,-6.4375 -0.66797,0.7461 c -2.94921,3.3125 -6.64843,4.98828 -10.99218,4.98828 -8.51563,0 -14.69532,-6.21094 -14.69532,-14.76953 0,-8.5586 6.17969,-14.77344 14.69532,-14.77344"
       id="path4" />
    <path
       style="fill:#000000;fill-opacity:1;fill-rule:nonzero;stroke:none"
       d="m 846.71875,660.0625 c 4.48828,0 8.21875,1.57812 11.39844,4.82812 l 0.67578,0.69141 6.44922,-6.42578 -0.58203,-0.67578 c -4.29297,-4.98828 -10.62891,-7.625 -18.32032,-7.625 -14.30468,0 -24.6875,10.08594 -24.6875,23.98047 0,13.89453 10.32813,23.98047 24.5625,23.98047 6.73828,0 13.21485,-2.15625 17.76953,-5.91407 l 0.34375,-0.28515 v -19.25391 h -9.61718 v 14.34375 c -2.35547,1.27734 -4.99219,1.89844 -8.05469,1.89844 -8.625,0 -14.88281,-6.21094 -14.88281,-14.76953 0,-8.69922 6.14453,-14.77344 14.94531,-14.77344"
       id="path5" />
    <path
       style="fill:#000000;fill-opacity:1;fill-rule:nonzero;stroke:none"
       d="m 947.98437,651.49609 h -8.21093 l -16.54688,28.71875 -16.73047,-28.51953 -0.11718,-0.19922 h -8.21094 v 46.67969 h 9.68359 v -26.76172 l 12.77735,21.44922 0.11718,0.19922 h 4.73047 l 12.89844,-22 0.0586,27.11328 h 9.61719"
       id="path6" />
    <path
       style="fill:#000000;fill-opacity:1;fill-rule:nonzero;stroke:none"
       d="m 488.57812,579.71094 -30.375,-78.52735 H 435.30859 L 477.10937,609.25 h 22.89454 l 37.48437,-108.06641 h -22.89453"
       id="path7" />
    <path
       style="fill:#000000;fill-opacity:1;fill-rule:nonzero;stroke:none"
       d="m 596.54687,567.02344 h 64.35157 V 544.68359 H 575.60156 V 609.25 h 98.73047 v -22.33984 h -77.78516"
       id="path8" />
    <path
       style="fill:#000000;fill-opacity:1;fill-rule:nonzero;stroke:none"
       d="m 575.60156,523.52344 h 98.85938 v -22.33985 h -98.85938 z m 0,0"
       id="path9" />
    <path
       style="fill:#000000;fill-opacity:1;fill-rule:nonzero;stroke:none"
       d="m 787.64844,567.02344 c 14.69922,0 26.66015,-13.02735 26.66015,-29.03516 v -7.76562 c 0,-16.01172 -11.96093,-29.03907 -26.66015,-29.03907 h -72.07032 v 22.33985 h 72.07032 c 3.62109,0 5.71484,1.51172 5.71484,9.24218 0,11.91797 -3.85937,11.91797 -5.71484,11.91797 H 715.57812 V 609.25 h 20.94141 v -42.22656 h 21.78516 l 32.75,42.22656 h 27.16406 l -32.75391,-42.22656"
       id="path10" />
    <path
       style="fill:#000000;fill-opacity:1;fill-rule:nonzero;stroke:none"
       d="m 855.42578,530.11719 0.008,9.42968 c 1.19532,15.66407 12.65235,27.47657 26.64453,27.47657 h 45.41797 c 2.63672,0 5.71485,1.42187 5.71485,5.42187 v 7.76953 c 0,3.56641 -2.67188,6.69532 -5.71485,6.69532 H 855.42187 V 609.25 h 72.07422 c 0.11719,0 0.23047,0 0.34766,0 14.57031,-0.0391 26.30859,-11.98828 26.30859,-26.55859 v -10.2461 c 0,-15.5664 -11.70703,-27.76172 -26.65625,-27.76172 h -45.41797 c -2.73046,0 -5.19531,-2.58984 -5.61328,-5.89453 l -0.0976,-8.48047 c 0.0859,-3.74218 2.64843,-6.78515 5.71093,-6.78515 h 72.07422 v -22.33985 h -72.07422 c -14.5,0 -26.20703,12.71094 -26.65234,28.9336"
       id="path11" />
    <path
       style="fill:#000000;fill-opacity:1;fill-rule:nonzero;stroke:none"
       d="m 995.26953,523.52344 h 98.85937 v -22.33985 h -98.85937 z m 0,0"
       id="path12" />
    <path
       style="fill:#000000;fill-opacity:1;fill-rule:nonzero;stroke:none"
       d="m 1016.2187,567.02344 h 64.3516 V 544.68359 H 995.26953 V 609.25 H 1094 v -22.33984 h -77.7813"
       id="path13" />
    <path
       style="fill:#000000;fill-opacity:1;fill-rule:nonzero;stroke:none"
       d="m 378.23047,466.60547 -96.47266,166.41406 -53.51953,-95.05859 h 40.35938 l 15.67187,-28.78907 H 179.67578 L 281.44922,689.69141 410.78906,466.60547"
       id="path14" />
    <path
       style="fill:#000000;fill-opacity:1;fill-rule:nonzero;stroke:none"
       d="M 103.84375,466.60547 255.80859,733.39453 272.1875,705.21484 136.26172,466.60547 Z m 0,0"
       id="path15" />
    <path
       style="fill:#000000;fill-opacity:1;fill-rule:nonzero;stroke:none"
       d="m 310.56641,494.76953 -44.85157,76.94141 16.56641,27.58203 77.19531,-132.6875 H 156.40234 l 16.63672,28.16406"
       id="path16" />
  </g>
</svg>
