<?xml version="1.0" encoding="UTF-8"?>
<svg id="Layer_1" data-name="Layer 1" xmlns="http://www.w3.org/2000/svg" viewBox="0 0 763.29 651.5">
  <defs>
    <style>
      .cls-1 {
        fill: #231f20;
      }
    </style>
  </defs>
  <g>
    <path class="cls-1" d="m106.5,197.49L29,24.49h68l51,117.5,54-117.5h65l-75.5,170,85,192.5h-68.5l-58.5-136.5-58,136.5H24l82.5-189.5Z"/>
    <path class="cls-1" d="m296.37,368.87c-18.92-15.75-32.96-37.66-42.12-65.75-9.17-28.08-13.75-60.79-13.75-98.12s4.75-70.66,14.25-98.5c9.5-27.83,24.12-49.46,43.88-64.88,19.75-15.41,44.62-23.12,74.62-23.12,25.33,0,47.71,5.5,67.13,16.5,19.41,11,34.12,26.5,44.12,46.5l-43,32.5c-8.84-14.83-18.59-24.96-29.25-30.38-10.67-5.41-21.92-8.12-33.75-8.12-28.67,0-48.25,11.54-58.75,34.62-10.5,23.09-15.75,54.29-15.75,93.62s5.12,73.09,15.38,97.75c10.25,24.67,28.62,37,55.12,37,21.83,0,38.13-8.58,48.88-25.75,10.75-17.16,16.12-40.41,16.12-69.75h-72.5v-49.5h125.5v193.5h-50.5v-30h-2.5c-5.34,11-14.12,19.67-26.38,26s-27.46,9.5-45.63,9.5c-28.5,0-52.21-7.88-71.12-23.62Z"/>
    <path class="cls-1" d="m587.49,24.49h88l85.5,362.5h-64l-21-85.5h-95.5l-20,85.5h-59L587.49,24.49Zm80,225l-33.5-163.5h-6l-33,163.5h72.5Z"/>
  </g>
  <g>
    <path class="cls-1" d="m29.54,440.64c-1.56-.86-2.83-2.14-3.81-3.84-.98-1.7-1.47-3.75-1.47-6.15,0-2.25.41-4.25,1.22-5.99.81-1.74,1.97-3.09,3.47-4.05s3.26-1.44,5.27-1.44c3.21,0,5.53,1.1,6.95,3.3,1.42,2.2,2.13,5.33,2.13,9.38h-14.24c.08,1.97.62,3.47,1.63,4.48,1.01,1.01,2.37,1.52,4.09,1.52,1.25,0,2.46-.18,3.63-.54,1.17-.36,2-.77,2.49-1.22l1.84,3.36c-.52.41-1.23.81-2.13,1.2s-1.89.7-2.98.93c-1.09.23-2.14.35-3.17.35-1.72,0-3.36-.43-4.92-1.29Zm8.72-15.16c-.4-.79-.95-1.42-1.66-1.87s-1.5-.68-2.38-.68-1.72.22-2.48.66c-.76.44-1.36,1.06-1.81,1.85s-.67,1.7-.67,2.73h9.6c0-1-.2-1.9-.6-2.69Z"/>
    <path class="cls-1" d="m54.22,426.37l-6.2-13.84h5.44l4.08,9.4,4.32-9.4h5.2l-6.04,13.6,6.8,15.4h-5.48l-4.68-10.92-4.64,10.92h-5.4l6.6-15.16Z"/>
    <path class="cls-1" d="m79.98,440.4c-1.01-.91-1.52-2.28-1.52-4.11v-12.88h-6.2v-3.88h6.2v-7.28h4.84v7.28h6.2v3.88h-6.2v10.76c0,.96.1,1.7.29,2.22.19.52.52.89.98,1.1.46.21,1.12.32,1.97.32.45,0,1.1-.05,1.93-.16.83-.11,1.5-.21,1.99-.32v3.84c-.56.15-1.4.28-2.53.41-1.13.13-2.11.19-2.95.19-2.32,0-3.99-.46-5-1.37Z"/>
    <path class="cls-1" d="m101.3,440.64c-1.56-.86-2.83-2.14-3.81-3.84-.98-1.7-1.47-3.75-1.47-6.15,0-2.25.41-4.25,1.22-5.99.81-1.74,1.97-3.09,3.47-4.05s3.26-1.44,5.27-1.44c3.21,0,5.53,1.1,6.95,3.3,1.42,2.2,2.13,5.33,2.13,9.38h-14.24c.08,1.97.62,3.47,1.63,4.48,1.01,1.01,2.37,1.52,4.09,1.52,1.25,0,2.46-.18,3.63-.54,1.17-.36,2-.77,2.49-1.22l1.84,3.36c-.52.41-1.23.81-2.13,1.2s-1.89.7-2.98.93c-1.09.23-2.14.35-3.17.35-1.72,0-3.36-.43-4.92-1.29Zm8.72-15.16c-.4-.79-.95-1.42-1.66-1.87s-1.5-.68-2.38-.68-1.72.22-2.48.66c-.76.44-1.36,1.06-1.81,1.85s-.67,1.7-.67,2.73h9.6c0-1-.2-1.9-.6-2.69Z"/>
    <path class="cls-1" d="m120.34,420.51l-.08-.98h4.72l.34,3.2c.75-1.2,1.66-2.09,2.73-2.68,1.07-.59,2.35-.88,3.83-.88,2.15,0,3.8.75,4.97,2.24,1.17,1.49,1.75,3.59,1.75,6.28v13.84h-4.96v-12.24c0-1.76-.28-3.25-.85-4.48-.57-1.23-1.59-1.84-3.07-1.84-1.56,0-2.68.74-3.35,2.22-.67,1.48-1.01,3.27-1.01,5.38v10.96h-4.8v-16.88c0-1.12-.07-2.5-.22-4.14Z"/>
    <path class="cls-1" d="m148.37,440.84c-1.43-.65-2.73-1.66-3.89-3.03l2.68-2.96c.69.65,1.34,1.19,1.95,1.61.61.42,1.29.76,2.05,1.01.76.25,1.61.38,2.56.38.67,0,1.31-.1,1.94-.29.63-.19,1.14-.48,1.54-.87.4-.39.6-.87.6-1.44,0-.51-.17-.92-.51-1.25-.34-.33-.78-.59-1.33-.79-.55-.2-1.37-.45-2.46-.74l-1.26-.34c-1.52-.4-2.79-.85-3.8-1.34-1.01-.49-1.81-1.14-2.38-1.95-.57-.81-.86-1.82-.86-3.03,0-1.32.35-2.48,1.04-3.49s1.67-1.79,2.93-2.35c1.26-.56,2.71-.84,4.35-.84,1.73,0,3.26.24,4.57.73,1.31.49,2.44,1.22,3.39,2.19l-2.72,2.92c-.69-.57-1.46-1.01-2.31-1.31s-1.74-.45-2.69-.45c-.79,0-1.49.1-2.11.31s-1.1.49-1.45.86c-.35.37-.52.79-.52,1.27,0,.59.25,1.08.76,1.48.51.4,1.11.72,1.82.96.71.24,1.63.51,2.78.8.33.08.88.23,1.64.44,1.56.48,2.87,1.18,3.93,2.09,1.06.91,1.59,2.23,1.59,3.95,0,2.15-.79,3.76-2.37,4.83-1.58,1.07-3.67,1.61-6.27,1.61-2.03,0-3.76-.32-5.19-.97Z"/>
    <path class="cls-1" d="m169.16,419.53h10.84v18.4h5.74v3.6h-16.74v-3.6h6.12v-14.92h-5.96v-3.48Zm5.45-4.25c-.49-.49-.73-1.3-.73-2.43s.24-1.98.72-2.45,1.29-.71,2.44-.71,1.98.24,2.45.71.71,1.29.71,2.45-.24,1.96-.71,2.44c-.47.48-1.29.72-2.45.72s-1.94-.24-2.43-.73Z"/>
    <path class="cls-1" d="m199.53,441.36c-.93-.41-1.78-1.18-2.55-2.31l-.12,2.48h-4.68l.04-.58c.08-1.73.12-3.17.12-4.3v-26.72h4.92v12.8c.69-1.15,1.54-2,2.54-2.56,1-.56,2.01-.84,3.02-.84,1.85,0,3.36.52,4.53,1.57,1.17,1.05,2.01,2.43,2.53,4.16s.78,3.66.78,5.79c0,1.92-.29,3.73-.87,5.42-.58,1.69-1.46,3.07-2.65,4.12-1.19,1.05-2.64,1.58-4.36,1.58-1.24,0-2.32-.2-3.25-.61Zm4.46-4.14c.66-.77,1.12-1.71,1.39-2.83.27-1.12.4-2.26.4-3.42,0-2.21-.32-4.03-.96-5.46s-1.72-2.14-3.24-2.14c-1.05,0-1.93.36-2.62,1.07-.69.71-1.2,1.65-1.53,2.81s-.49,2.43-.49,3.8c0,1.12.15,2.24.44,3.36.29,1.12.77,2.06,1.43,2.82.66.76,1.5,1.14,2.53,1.14,1.11,0,1.99-.38,2.65-1.15Z"/>
    <path class="cls-1" d="m223.63,440.02c-1.4-1.33-2.1-3.22-2.1-5.69v-20.56h-6.72v-3.84h11.56v22.8c0,1.56.3,2.73.9,3.52.6.79,1.45,1.18,2.54,1.18.81,0,1.49-.17,2.03-.52s1.08-.83,1.61-1.44l2.9,3.34c-.79.88-1.76,1.63-2.91,2.26-1.15.63-2.48.94-3.99.94-2.48,0-4.42-.66-5.82-1.99Z"/>
    <path class="cls-1" d="m244.81,440.64c-1.56-.86-2.83-2.14-3.81-3.84-.98-1.7-1.47-3.75-1.47-6.15,0-2.25.41-4.25,1.22-5.99.81-1.74,1.97-3.09,3.47-4.05s3.26-1.44,5.27-1.44c3.21,0,5.53,1.1,6.95,3.3,1.42,2.2,2.13,5.33,2.13,9.38h-14.24c.08,1.97.62,3.47,1.63,4.48,1.01,1.01,2.37,1.52,4.09,1.52,1.25,0,2.46-.18,3.63-.54,1.17-.36,2-.77,2.49-1.22l1.84,3.36c-.52.41-1.23.81-2.13,1.2s-1.89.7-2.98.93c-1.09.23-2.14.35-3.17.35-1.72,0-3.36-.43-4.92-1.29Zm8.72-15.16c-.4-.79-.95-1.42-1.66-1.87s-1.5-.68-2.38-.68-1.72.22-2.48.66c-.76.44-1.36,1.06-1.81,1.85s-.67,1.7-.67,2.73h9.6c0-1-.2-1.9-.6-2.69Z"/>
    <path class="cls-1" d="m291.48,440.08c-1.51-1.26-2.64-3.01-3.37-5.26-.73-2.25-1.1-4.86-1.1-7.85s.38-5.65,1.14-7.88c.76-2.23,1.93-3.96,3.51-5.19s3.57-1.85,5.97-1.85c2.03,0,3.82.44,5.37,1.32,1.55.88,2.73,2.12,3.53,3.72l-3.44,2.6c-.71-1.19-1.49-2-2.34-2.43-.85-.43-1.75-.65-2.7-.65-2.29,0-3.86.92-4.7,2.77-.84,1.85-1.26,4.34-1.26,7.49s.41,5.85,1.23,7.82c.82,1.97,2.29,2.96,4.41,2.96,1.75,0,3.05-.69,3.91-2.06.86-1.37,1.29-3.23,1.29-5.58h-5.8v-3.96h10.04v15.48h-4.04v-2.4h-.2c-.43.88-1.13,1.57-2.11,2.08-.98.51-2.2.76-3.65.76-2.28,0-4.18-.63-5.69-1.89Z"/>
    <path class="cls-1" d="m316.57,440.64c-1.56-.86-2.83-2.14-3.81-3.84-.98-1.7-1.47-3.75-1.47-6.15,0-2.25.41-4.25,1.22-5.99.81-1.74,1.97-3.09,3.47-4.05s3.26-1.44,5.27-1.44c3.21,0,5.53,1.1,6.95,3.3,1.42,2.2,2.13,5.33,2.13,9.38h-14.24c.08,1.97.62,3.47,1.63,4.48,1.01,1.01,2.37,1.52,4.09,1.52,1.25,0,2.46-.18,3.63-.54,1.17-.36,2-.77,2.49-1.22l1.84,3.36c-.52.41-1.23.81-2.13,1.2s-1.89.7-2.98.93-2.14.35-3.17.35c-1.72,0-3.36-.43-4.92-1.29Zm8.72-15.16c-.4-.79-.95-1.42-1.66-1.87-.71-.45-1.5-.68-2.38-.68s-1.72.22-2.48.66c-.76.44-1.36,1.06-1.81,1.85-.45.79-.67,1.7-.67,2.73h9.6c0-1-.2-1.9-.6-2.69Z"/>
    <path class="cls-1" d="m335.61,420.51l-.08-.98h4.72l.34,3.2c.75-1.2,1.66-2.09,2.73-2.68,1.07-.59,2.35-.88,3.83-.88,2.15,0,3.8.75,4.97,2.24s1.75,3.59,1.75,6.28v13.84h-4.96v-12.24c0-1.76-.28-3.25-.85-4.48-.57-1.23-1.59-1.84-3.07-1.84-1.56,0-2.68.74-3.35,2.22-.67,1.48-1.01,3.27-1.01,5.38v10.96h-4.8v-16.88c0-1.12-.07-2.5-.22-4.14Z"/>
    <path class="cls-1" d="m364.41,440.64c-1.56-.86-2.83-2.14-3.81-3.84-.98-1.7-1.47-3.75-1.47-6.15,0-2.25.41-4.25,1.22-5.99.81-1.74,1.97-3.09,3.47-4.05s3.26-1.44,5.27-1.44c3.21,0,5.53,1.1,6.95,3.3,1.42,2.2,2.13,5.33,2.13,9.38h-14.24c.08,1.97.62,3.47,1.63,4.48,1.01,1.01,2.37,1.52,4.09,1.52,1.25,0,2.46-.18,3.63-.54,1.17-.36,2-.77,2.49-1.22l1.84,3.36c-.52.41-1.23.81-2.13,1.2s-1.89.7-2.98.93-2.14.35-3.17.35c-1.72,0-3.36-.43-4.92-1.29Zm8.72-15.16c-.4-.79-.95-1.42-1.66-1.87-.71-.45-1.5-.68-2.38-.68s-1.72.22-2.48.66c-.76.44-1.36,1.06-1.81,1.85-.45.79-.67,1.7-.67,2.73h9.6c0-1-.2-1.9-.6-2.69Z"/>
    <path class="cls-1" d="m386.83,428.85c0-1.41-.04-2.46-.12-3.15s-.21-1.54-.4-2.57h-3.68v-3.6h7.66l.74,3.72c.63-1.59,1.51-2.68,2.66-3.29,1.15-.61,2.34-.91,3.58-.91.85,0,1.83.25,2.93.76,1.1.51,1.99,1.09,2.67,1.76l-2.76,3.28c-.44-.41-.96-.74-1.57-.99s-1.36-.37-2.27-.37c-.84,0-1.61.29-2.31.88-.7.59-1.26,1.45-1.67,2.59-.41,1.14-.62,2.52-.62,4.13v10.44h-4.88l.04-12.68Z"/>
    <path class="cls-1" d="m409.86,441.07c-1.06-.57-1.86-1.36-2.39-2.37-.53-1.01-.8-2.17-.8-3.49,0-2.75,1.01-4.63,3.03-5.64,2.02-1.01,4.65-1.52,7.89-1.52h2.44v-.88c0-.6-.13-1.2-.38-1.81-.25-.61-.69-1.12-1.3-1.55-.61-.43-1.43-.64-2.46-.64s-1.96.2-2.87.61c-.91.41-1.82.95-2.71,1.63l-2.4-3.04c1.23-1.03,2.5-1.8,3.81-2.33,1.31-.53,2.88-.79,4.69-.79,3.04,0,5.21.73,6.51,2.18,1.3,1.45,1.95,3.46,1.95,6.02v7.76c0,1.68.13,3.79.4,6.32h-4.96c-.09-.81-.16-1.76-.2-2.84-1.24,2.16-3.37,3.24-6.38,3.24-1.52,0-2.81-.29-3.87-.86Zm8.9-4.52c.82-1.19,1.23-2.86,1.23-5.02h-1.24c-1.73,0-3.14.12-4.22.35-1.08.23-1.89.61-2.42,1.14s-.8,1.24-.8,2.13c0,1.09.34,1.9,1.03,2.41.69.51,1.57.77,2.65.77,1.69,0,2.95-.59,3.77-1.78Z"/>
    <path class="cls-1" d="m438.91,440.02c-1.4-1.33-2.1-3.22-2.1-5.69v-20.56h-6.72v-3.84h11.56v22.8c0,1.56.3,2.73.9,3.52.6.79,1.45,1.18,2.54,1.18.81,0,1.49-.17,2.03-.52s1.08-.83,1.61-1.44l2.9,3.34c-.79.88-1.76,1.63-2.91,2.26s-2.48.94-3.99.94c-2.48,0-4.42-.66-5.82-1.99Z"/>
    <path class="cls-1" d="m456.19,419.53h10.84v18.4h5.74v3.6h-16.74v-3.6h6.12v-14.92h-5.96v-3.48Zm5.45-4.25c-.49-.49-.73-1.3-.73-2.43s.24-1.98.72-2.45c.48-.47,1.29-.71,2.44-.71s1.98.24,2.45.71c.47.47.71,1.29.71,2.45s-.24,1.96-.71,2.44c-.47.48-1.29.72-2.45.72s-1.94-.24-2.43-.73Z"/>
    <path class="cls-1" d="m479.47,437.41l11.08-13.8h-11.08v-4.08h17.16v3.72l-11.44,14.2h11.84v4.08h-17.56v-4.12Z"/>
    <path class="cls-1" d="m507.93,440.64c-1.56-.86-2.83-2.14-3.81-3.84-.98-1.7-1.47-3.75-1.47-6.15,0-2.25.41-4.25,1.22-5.99.81-1.74,1.97-3.09,3.47-4.05s3.26-1.44,5.27-1.44c3.21,0,5.53,1.1,6.95,3.3,1.42,2.2,2.13,5.33,2.13,9.38h-14.24c.08,1.97.62,3.47,1.63,4.48,1.01,1.01,2.37,1.52,4.09,1.52,1.25,0,2.46-.18,3.63-.54,1.17-.36,2-.77,2.49-1.22l1.84,3.36c-.52.41-1.23.81-2.13,1.2s-1.89.7-2.98.93-2.14.35-3.17.35c-1.72,0-3.36-.43-4.92-1.29Zm8.72-15.16c-.4-.79-.95-1.42-1.66-1.87-.71-.45-1.5-.68-2.38-.68s-1.72.22-2.48.66c-.76.44-1.36,1.06-1.81,1.85-.45.79-.67,1.7-.67,2.73h9.6c0-1-.2-1.9-.6-2.69Z"/>
    <path class="cls-1" d="m530.22,440.23c-1.25-1.08-2.18-2.5-2.79-4.27-.61-1.77-.92-3.68-.92-5.75s.34-3.8,1.01-5.48c.67-1.68,1.64-3.02,2.91-4.02s2.76-1.5,4.48-1.5c1.43,0,2.62.2,3.59.59.97.39,1.72,1.12,2.25,2.17v-12.04h4.72v26.8c0,.52,0,1.03.02,1.54.01.51.03,1.01.04,1.52l.06,1.74h-4.56l-.32-2.56c-.67,1.03-1.45,1.76-2.36,2.21-.91.45-2.08.67-3.52.67-1.83,0-3.36-.54-4.61-1.62Zm8.59-3.14c.69-.83,1.2-1.85,1.51-3.06.31-1.21.47-2.42.47-3.62s-.18-2.43-.53-3.61c-.35-1.18-.9-2.15-1.63-2.92-.73-.77-1.64-1.15-2.72-1.15-1,0-1.85.39-2.54,1.17-.69.78-1.21,1.76-1.55,2.93-.34,1.17-.51,2.34-.51,3.5,0,1.24.19,2.48.56,3.71.37,1.23.93,2.26,1.67,3.07s1.62,1.22,2.65,1.22,1.93-.41,2.62-1.24Z"/>
    <path class="cls-1" d="m580.45,412.53h7.04l6.84,29h-5.12l-1.68-6.84h-7.64l-1.6,6.84h-4.72l6.88-29Zm6.4,18l-2.68-13.08h-.48l-2.64,13.08h5.8Z"/>
    <path class="cls-1" d="m602.03,440.88c-1-.65-1.77-1.58-2.31-2.8s-.81-2.68-.81-4.39v-14.16h4.88v13.56c0,1.07.09,1.96.27,2.68.18.72.53,1.29,1.05,1.7.52.41,1.27.62,2.24.62,1.48,0,2.58-.53,3.31-1.58.73-1.05,1.09-2.41,1.09-4.06v-12.92h4.88v17.24c0,.84.03,1.85.08,3.02.03.4.05.98.08,1.74h-4.84l-.16-2.36c-.76,1.03-1.6,1.73-2.52,2.11s-2.15.57-3.68.57c-1.37,0-2.56-.32-3.56-.97Z"/>
    <path class="cls-1" d="m627.17,440.54c-1.61-.9-2.88-2.2-3.8-3.91-.92-1.71-1.38-3.74-1.38-6.1s.45-4.25,1.35-5.96c.9-1.71,2.18-3.03,3.83-3.96,1.65-.93,3.58-1.4,5.78-1.4,1.92,0,3.52.36,4.8,1.08,1.28.72,2.35,1.67,3.2,2.84l-3.08,2.88c-.75-.84-1.48-1.48-2.2-1.91-.72-.43-1.6-.65-2.64-.65-1.19,0-2.24.29-3.17.86s-1.65,1.39-2.17,2.44c-.52,1.05-.78,2.27-.78,3.66,0,1.48.28,2.76.85,3.84.57,1.08,1.31,1.9,2.22,2.47.91.57,1.88.85,2.89.85.95,0,1.88-.27,2.81-.8s1.72-1.2,2.39-2l3.08,2.84c-1.03,1.27-2.21,2.3-3.56,3.09-1.35.79-2.99,1.19-4.92,1.19-2.05,0-3.89-.45-5.5-1.35Z"/>
    <path class="cls-1" d="m654.05,440.4c-1.01-.91-1.52-2.28-1.52-4.11v-12.88h-6.2v-3.88h6.2v-7.28h4.84v7.28h6.2v3.88h-6.2v10.76c0,.96.1,1.7.29,2.22.19.52.52.89.98,1.1.46.21,1.12.32,1.97.32.45,0,1.1-.05,1.93-.16.83-.11,1.5-.21,1.99-.32v3.84c-.56.15-1.4.28-2.53.41-1.13.13-2.11.19-2.95.19-2.32,0-3.99-.46-5-1.37Z"/>
    <path class="cls-1" d="m671.47,419.53h10.84v18.4h5.74v3.6h-16.74v-3.6h6.12v-14.92h-5.96v-3.48Zm5.45-4.25c-.49-.49-.73-1.3-.73-2.43s.24-1.98.72-2.45c.48-.47,1.29-.71,2.44-.71s1.98.24,2.45.71c.47.47.71,1.29.71,2.45s-.24,1.96-.71,2.44c-.47.48-1.29.72-2.45.72s-1.94-.24-2.43-.73Z"/>
    <path class="cls-1" d="m698.32,440.55c-1.43-.92-2.52-2.23-3.25-3.92-.73-1.69-1.1-3.7-1.1-6.02s.39-4.42,1.17-6.15c.78-1.73,1.89-3.05,3.32-3.96,1.43-.91,3.12-1.37,5.07-1.37s3.64.46,5.07,1.37c1.43.91,2.54,2.23,3.32,3.96.78,1.73,1.17,3.78,1.17,6.15s-.37,4.31-1.1,6.01-1.82,3.01-3.25,3.93c-1.43.92-3.17,1.38-5.21,1.38s-3.78-.46-5.21-1.38Zm7.7-3.72c.7-.57,1.24-1.39,1.61-2.45.37-1.06.56-2.32.56-3.77s-.19-2.76-.56-3.85c-.37-1.09-.91-1.92-1.62-2.51-.71-.59-1.54-.88-2.5-.88s-1.79.29-2.49.87-1.23,1.41-1.6,2.5c-.37,1.09-.55,2.38-.55,3.87,0,2.21.4,3.95,1.21,5.2s1.94,1.88,3.41,1.88c.99,0,1.83-.29,2.53-.86Z"/>
    <path class="cls-1" d="m718.33,420.51l-.08-.98h4.72l.34,3.2c.75-1.2,1.66-2.09,2.73-2.68,1.07-.59,2.35-.88,3.83-.88,2.15,0,3.8.75,4.97,2.24s1.75,3.59,1.75,6.28v13.84h-4.96v-12.24c0-1.76-.28-3.25-.85-4.48-.57-1.23-1.59-1.84-3.07-1.84-1.56,0-2.68.74-3.35,2.22-.67,1.48-1.01,3.27-1.01,5.38v10.96h-4.8v-16.88c0-1.12-.07-2.5-.22-4.14Z"/>
    <path class="cls-1" d="m746.36,440.84c-1.43-.65-2.73-1.66-3.89-3.03l2.68-2.96c.69.65,1.34,1.19,1.95,1.61.61.42,1.29.76,2.05,1.01.76.25,1.61.38,2.56.38.67,0,1.31-.1,1.94-.29.63-.19,1.14-.48,1.54-.87.4-.39.6-.87.6-1.44,0-.51-.17-.92-.51-1.25-.34-.33-.78-.59-1.33-.79-.55-.2-1.37-.45-2.46-.74l-1.26-.34c-1.52-.4-2.79-.85-3.8-1.34-1.01-.49-1.81-1.14-2.38-1.95-.57-.81-.86-1.82-.86-3.03,0-1.32.35-2.48,1.04-3.49.69-1.01,1.67-1.79,2.93-2.35,1.26-.56,2.71-.84,4.35-.84,1.73,0,3.26.24,4.57.73s2.44,1.22,3.39,2.19l-2.72,2.92c-.69-.57-1.46-1.01-2.31-1.31-.85-.3-1.74-.45-2.69-.45-.79,0-1.49.1-2.11.31-.62.21-1.1.49-1.45.86-.35.37-.52.79-.52,1.27,0,.59.25,1.08.76,1.48.51.4,1.11.72,1.82.96.71.24,1.63.51,2.78.8.33.08.88.23,1.64.44,1.56.48,2.87,1.18,3.93,2.09,1.06.91,1.59,2.23,1.59,3.95,0,2.15-.79,3.76-2.37,4.83s-3.67,1.61-6.27,1.61c-2.03,0-3.76-.32-5.19-.97Z"/>
  </g>
</svg>