<svg width="302" height="59" viewBox="0 0 302 59" fill="none" xmlns="http://www.w3.org/2000/svg">
<path d="M33.2 46H1.712V38.192L16.048 25.968C18.4373 23.92 20.208 22.064 21.36 20.4C22.512 18.6933 23.088 16.88 23.088 14.96V14.32C23.088 12.1867 22.4907 10.5653 21.296 9.456C20.1013 8.34667 18.4373 7.792 16.304 7.792C13.9573 7.792 12.1653 8.432 10.928 9.712C9.69067 10.992 8.79467 12.5707 8.24 14.448L0.944 11.696C1.41333 10.2453 2.07467 8.85866 2.928 7.536C3.824 6.17067 4.912 4.976 6.192 3.952C7.51467 2.928 9.072 2.11733 10.864 1.52C12.656 0.879997 14.704 0.559998 17.008 0.559998C19.3973 0.559998 21.5093 0.901332 23.344 1.584C25.2213 2.224 26.8 3.14133 28.08 4.336C29.36 5.488 30.32 6.87467 30.96 8.496C31.6427 10.1173 31.984 11.888 31.984 13.808C31.984 15.6427 31.6853 17.328 31.088 18.864C30.5333 20.4 29.744 21.872 28.72 23.28C27.696 24.6453 26.48 25.968 25.072 27.248C23.7067 28.528 22.2133 29.808 20.592 31.088L10.864 38.96H33.2V46ZM55.575 46.768C52.6737 46.768 50.1563 46.256 48.023 45.232C45.8897 44.1653 44.119 42.6507 42.711 40.688C41.3457 38.7253 40.3217 36.3147 39.639 33.456C38.999 30.5973 38.679 27.3333 38.679 23.664C38.679 20.0373 38.999 16.7947 39.639 13.936C40.3217 11.0347 41.3457 8.60267 42.711 6.64C44.119 4.67733 45.8897 3.184 48.023 2.16C50.1563 1.09333 52.6737 0.559998 55.575 0.559998C61.3777 0.559998 65.6443 2.58666 68.375 6.64C71.1057 10.6933 72.471 16.368 72.471 23.664C72.471 30.96 71.1057 36.6347 68.375 40.688C65.6443 44.7413 61.3777 46.768 55.575 46.768ZM55.575 40.048C58.647 40.048 60.8017 38.96 62.039 36.784C63.319 34.5653 63.959 31.5147 63.959 27.632V19.696C63.959 15.8133 63.319 12.784 62.039 10.608C60.8017 8.38933 58.647 7.28 55.575 7.28C52.503 7.28 50.327 8.38933 49.047 10.608C47.8097 12.784 47.191 15.8133 47.191 19.696V27.632C47.191 31.5147 47.8097 34.5653 49.047 36.784C50.327 38.96 52.503 40.048 55.575 40.048ZM55.575 27.44C54.0817 27.44 53.0363 27.1413 52.439 26.544C51.8843 25.9467 51.607 25.2213 51.607 24.368V22.96C51.607 22.1067 51.8843 21.3813 52.439 20.784C53.0363 20.1867 54.0817 19.888 55.575 19.888C57.0683 19.888 58.0923 20.1867 58.647 20.784C59.2443 21.3813 59.543 22.1067 59.543 22.96V24.368C59.543 25.2213 59.2443 25.9467 58.647 26.544C58.0923 27.1413 57.0683 27.44 55.575 27.44ZM93.822 46.768C90.1953 46.768 87.0593 46.2133 84.414 45.104C81.7687 43.952 79.6993 42.416 78.206 40.496L83.006 36.144C84.3713 37.6373 85.9287 38.7893 87.678 39.6C89.47 40.4107 91.5393 40.816 93.886 40.816C95.934 40.816 97.5767 40.4747 98.814 39.792C100.051 39.1093 100.67 38.064 100.67 36.656C100.67 35.4613 100.243 34.6507 99.39 34.224C98.5793 33.7973 97.4913 33.4773 96.126 33.264L90.814 32.432C89.4487 32.2187 88.1047 31.92 86.782 31.536C85.502 31.1093 84.35 30.5333 83.326 29.808C82.3447 29.0827 81.5553 28.1653 80.958 27.056C80.3607 25.904 80.062 24.5173 80.062 22.896C80.062 19.44 81.342 16.7947 83.902 14.96C86.5047 13.1253 90.0673 12.208 94.59 12.208C97.79 12.208 100.499 12.656 102.718 13.552C104.979 14.448 106.835 15.7067 108.286 17.328L103.998 22.064C103.059 21.04 101.801 20.144 100.222 19.376C98.686 18.5653 96.7233 18.16 94.334 18.16C90.1527 18.16 88.062 19.4613 88.062 22.064C88.062 23.2587 88.4887 24.0907 89.342 24.56C90.1953 24.9867 91.3047 25.3067 92.67 25.52L97.918 26.352C99.326 26.5653 100.67 26.8853 101.95 27.312C103.273 27.696 104.425 28.2507 105.406 28.976C106.43 29.7013 107.241 30.6187 107.838 31.728C108.435 32.8373 108.734 34.2027 108.734 35.824C108.734 39.2373 107.411 41.9253 104.766 43.888C102.163 45.808 98.5153 46.768 93.822 46.768ZM138.917 40.176H138.469C137.573 42.1813 136.336 43.7813 134.757 44.976C133.221 46.1707 131.173 46.768 128.613 46.768C126.736 46.768 125.008 46.4267 123.429 45.744C121.893 45.0187 120.57 43.952 119.461 42.544C118.352 41.0933 117.498 39.28 116.901 37.104C116.304 34.928 116.005 32.3893 116.005 29.488C116.005 23.6853 117.157 19.3547 119.461 16.496C121.765 13.6373 124.816 12.208 128.613 12.208C131.173 12.208 133.221 12.8053 134.757 14C136.336 15.1947 137.573 16.7947 138.469 18.8H138.917V12.976H147.109V58.8H138.917V40.176ZM132.069 40.24C133.008 40.24 133.882 40.1333 134.693 39.92C135.546 39.664 136.272 39.3227 136.869 38.896C137.509 38.4267 138 37.8507 138.341 37.168C138.725 36.4427 138.917 35.6107 138.917 34.672V24.304C138.917 23.3653 138.725 22.5547 138.341 21.872C138 21.1467 137.509 20.5707 136.869 20.144C136.272 19.6747 135.546 19.3333 134.693 19.12C133.882 18.864 133.008 18.736 132.069 18.736C129.68 18.736 127.824 19.4613 126.501 20.912C125.221 22.3627 124.581 24.3467 124.581 26.864V32.112C124.581 34.6293 125.221 36.6133 126.501 38.064C127.824 39.5147 129.68 40.24 132.069 40.24ZM176.908 40.176H176.588C175.863 41.968 174.732 43.5253 173.196 44.848C171.703 46.128 169.612 46.768 166.924 46.768C163.681 46.768 161.036 45.7013 158.988 43.568C156.983 41.392 155.98 38.2987 155.98 34.288V12.976H164.172V33.136C164.172 37.9147 166.241 40.304 170.38 40.304C171.191 40.304 171.98 40.1973 172.748 39.984C173.559 39.7707 174.263 39.4507 174.86 39.024C175.5 38.5547 175.991 38 176.332 37.36C176.716 36.72 176.908 35.952 176.908 35.056V12.976H185.1V46H176.908V40.176ZM221.235 46C219.23 46 217.672 45.5093 216.563 44.528C215.496 43.504 214.856 42.096 214.643 40.304H214.323C213.726 42.352 212.552 43.952 210.803 45.104C209.054 46.2133 206.899 46.768 204.339 46.768C201.011 46.768 198.366 45.8933 196.403 44.144C194.44 42.3947 193.459 39.9627 193.459 36.848C193.459 30.192 198.344 26.864 208.115 26.864H213.939V24.688C213.939 22.5973 213.427 21.0187 212.403 19.952C211.379 18.8853 209.715 18.352 207.411 18.352C205.32 18.352 203.635 18.7573 202.355 19.568C201.075 20.3787 199.987 21.424 199.091 22.704L194.419 18.736C195.443 16.9013 197.086 15.3653 199.347 14.128C201.651 12.848 204.616 12.208 208.243 12.208C212.595 12.208 215.987 13.232 218.419 15.28C220.894 17.2853 222.131 20.2933 222.131 24.304V39.856H226.035V46H221.235ZM207.091 41.136C209.054 41.136 210.675 40.688 211.955 39.792C213.278 38.8533 213.939 37.5947 213.939 36.016V31.6H208.307C203.827 31.6 201.587 33.008 201.587 35.824V37.104C201.587 38.4267 202.078 39.4293 203.059 40.112C204.04 40.7947 205.384 41.136 207.091 41.136ZM233.05 39.536H241.242V19.44H233.05V12.976H249.434V22H249.946C250.245 20.848 250.65 19.7387 251.162 18.672C251.717 17.5627 252.399 16.6027 253.21 15.792C254.063 14.9387 255.087 14.256 256.282 13.744C257.477 13.232 258.906 12.976 260.57 12.976H264.154V20.656H257.37C254.895 20.656 252.954 21.3813 251.546 22.832C250.138 24.2827 249.434 26.1387 249.434 28.4V39.536H260.89V46H233.05V39.536ZM286.593 46.768C283.948 46.768 281.601 46.3627 279.553 45.552C277.505 44.7413 275.777 43.5893 274.369 42.096C273.004 40.6027 271.958 38.8107 271.233 36.72C270.508 34.5867 270.145 32.1973 270.145 29.552C270.145 26.864 270.508 24.4533 271.233 22.32C272.001 20.1867 273.068 18.3733 274.433 16.88C275.798 15.3867 277.441 14.2347 279.361 13.424C281.324 12.6133 283.521 12.208 285.953 12.208C288.342 12.208 290.497 12.6133 292.417 13.424C294.337 14.192 295.958 15.3013 297.281 16.752C298.646 18.2027 299.692 19.952 300.417 22C301.142 24.048 301.505 26.3093 301.505 28.784V31.472H278.337V32.304C278.337 34.6933 279.084 36.6347 280.577 38.128C282.07 39.5787 284.161 40.304 286.849 40.304C288.897 40.304 290.646 39.8987 292.097 39.088C293.59 38.2347 294.828 37.1253 295.809 35.76L300.481 40.432C299.286 42.1813 297.537 43.6747 295.233 44.912C292.972 46.1493 290.092 46.768 286.593 46.768ZM286.017 18.224C283.713 18.224 281.857 18.9493 280.449 20.4C279.041 21.8507 278.337 23.7707 278.337 26.16V26.608H293.313V26.032C293.313 23.6427 292.652 21.744 291.329 20.336C290.049 18.928 288.278 18.224 286.017 18.224Z" fill="black" style="fill:black;fill-opacity:1;"/>
</svg>
