<svg id="Layer_1" data-name="Layer 1" xmlns="http://www.w3.org/2000/svg" xmlns:xlink="http://www.w3.org/1999/xlink" viewBox="0 0 541.8 210.76"><defs><style>.cls-1{stroke-miterlimit:10;fill:url(#linear-gradient);stroke:url(#linear-gradient-2);}.cls-2{fill:#fff;}</style><linearGradient id="linear-gradient" x1="36.38" y1="-39.76" x2="507.11" y2="252.48" gradientUnits="userSpaceOnUse"><stop offset="0" stop-color="#242121"/><stop offset="0.11" stop-color="#282628"/><stop offset="0.31" stop-color="#2e2d31"/><stop offset="0.68" stop-color="#272628"/><stop offset="1" stop-color="#1d1c1c"/></linearGradient><linearGradient id="linear-gradient-2" x1="11.66" y1="105.19" x2="528.07" y2="105.19" gradientUnits="userSpaceOnUse"><stop offset="0" stop-color="#fff" stop-opacity="0.1"/><stop offset="0.5" stop-color="#fff" stop-opacity="0.05"/><stop offset="1" stop-color="#fff" stop-opacity="0.1"/></linearGradient></defs><rect class="cls-1" x="12.16" y="11.44" width="515.41" height="187.52" rx="12.18"/><path class="cls-2" d="M228,82.92q0,6.36-4.38,9.32t-12.16,3H195.49V52.81h15q8.15,0,11.67,2.37c2.34,1.58,3.52,4.09,3.52,7.52a10.08,10.08,0,0,1-1.92,6.4,9.66,9.66,0,0,1-6,3.28q5.33.74,7.76,3.37A10.15,10.15,0,0,1,228,82.92Zm-11-18.32a3.46,3.46,0,0,0-1.78-3.36,12.39,12.39,0,0,0-5.51-.93h-5.51v9.1h5.26a11.78,11.78,0,0,0,5.69-1.07A4,4,0,0,0,216.93,64.6Zm2.2,17.55a4.34,4.34,0,0,0-1.93-4c-1.28-.78-3.69-1.18-7.22-1.18h-5.85v10.6h4.38a32.52,32.52,0,0,0,7-.49,4.87,4.87,0,0,0,2.79-1.65A5.34,5.34,0,0,0,219.13,82.15Z"/><path class="cls-2" d="M231.48,95.2l14-42.39h11.24L270.81,95.2H262l-2.82-8.61H242.81l-2.76,8.61ZM245.26,79h11.43L251,61.51Z"/><path class="cls-2" d="M301,95.2,285.6,64.91V95.2h-8.45V52.81h11.21l14.36,28.57V52.81h8.49V95.2Z"/><path class="cls-2" d="M342.36,95.2,330.63,77.49l-2.57,3V95.2h-8.64V52.81h8.64V69.35l13.87-16.54H352L336.2,71.06,353.14,95.2Z"/><path class="cls-2" d="M358.63,95.2V52.81h8.63V87.3h17.83v7.9Z"/><path class="cls-2" d="M391.37,95.2V52.81H418.9v7.62H400v9h15.93v7.66H400V87.3h18.9v7.9Z"/><path class="cls-2" d="M457,82.92q0,6.36-4.18,9.77t-12.33,3.4a23.78,23.78,0,0,1-9.79-1.87,15.25,15.25,0,0,1-6.75-6l6.64-5.08a15.08,15.08,0,0,0,2.79,3.12,9.78,9.78,0,0,0,3.13,1.63,13.49,13.49,0,0,0,4.16.58,10.51,10.51,0,0,0,5.5-1.21,4,4,0,0,0,2-3.69,3.9,3.9,0,0,0-.69-2.36,5.6,5.6,0,0,0-2.07-1.64A28,28,0,0,0,440.65,78q-3.3-.89-6.23-1.79a18.93,18.93,0,0,1-5.06-2.34A10.63,10.63,0,0,1,426,70.2a11,11,0,0,1-1.23-5.48,11.58,11.58,0,0,1,4.08-9.42q4.06-3.37,11.67-3.38,11,0,15.56,7.53L449.5,64.6a11,11,0,0,0-3.92-3.86,10.75,10.75,0,0,0-5.17-1.16,9.76,9.76,0,0,0-4.89,1.08,3.67,3.67,0,0,0-1.88,3.42,3.42,3.42,0,0,0,2,3.14,28.74,28.74,0,0,0,6.83,2.19q2.69.7,5.33,1.51a17.2,17.2,0,0,1,4.7,2.26,10.69,10.69,0,0,1,3.32,3.76A12.51,12.51,0,0,1,457,82.92Z"/><path class="cls-2" d="M494.68,82.92q0,6.36-4.18,9.77t-12.33,3.4a23.73,23.73,0,0,1-9.78-1.87,15.33,15.33,0,0,1-6.76-6l6.65-5.08a14.8,14.8,0,0,0,2.79,3.12,9.73,9.73,0,0,0,3.12,1.63,13.55,13.55,0,0,0,4.17.58,10.47,10.47,0,0,0,5.49-1.21,4,4,0,0,0,2-3.69,3.9,3.9,0,0,0-.69-2.36,5.6,5.6,0,0,0-2.07-1.64A28.11,28.11,0,0,0,478.3,78q-3.32-.89-6.24-1.79A18.86,18.86,0,0,1,467,73.82a10.66,10.66,0,0,1-3.36-3.62,11.11,11.11,0,0,1-1.22-5.48,11.6,11.6,0,0,1,4.07-9.42q4.08-3.37,11.67-3.38,11,0,15.56,7.53l-6.58,5.15a11,11,0,0,0-3.92-3.86,10.79,10.79,0,0,0-5.18-1.16,9.78,9.78,0,0,0-4.89,1.08,3.68,3.68,0,0,0-1.88,3.42,3.42,3.42,0,0,0,2,3.14,29.07,29.07,0,0,0,6.83,2.19q2.7.7,5.33,1.51a16.93,16.93,0,0,1,4.7,2.26,10.72,10.72,0,0,1,3.33,3.76A12.63,12.63,0,0,1,494.68,82.92Z"/><path class="cls-2" d="M189.35,158.1l15.15-45.78h12.15l15.18,45.78h-9.56l-3-9.29H201.59l-3,9.29Zm14.89-17.46h12.34l-6.15-18.93Z"/><path class="cls-2" d="M273.28,150.53a18.23,18.23,0,0,1-7.22,6.47,24.27,24.27,0,0,1-10.54,2.06q-21.27,0-21.27-23.85,0-12.21,5.39-18t15.55-5.82a23.19,23.19,0,0,1,10.95,2.26,16.31,16.31,0,0,1,6.45,5.94l-7.25,5.63a15.35,15.35,0,0,0-2.91-3.45,9.12,9.12,0,0,0-3-1.58,13.3,13.3,0,0,0-4-.53q-5.62,0-8.57,3.59t-2.95,12q0,7.84,2.77,11.71t8.81,3.87a11.17,11.17,0,0,0,6.34-1.55,17,17,0,0,0,4.12-4.14Z"/><path class="cls-2" d="M277,158.1l15.16-45.78h12.14L319.5,158.1h-9.56l-3-9.29H289.27l-3,9.29Zm14.89-17.46h12.34l-6.15-18.93Z"/><path class="cls-2" d="M361.92,135.21q0,8.26-2.28,13.3a14.62,14.62,0,0,1-6.88,7.31q-4.61,2.28-12.94,2.28h-14V112.32h13.83q8.1,0,12.88,2.34a14.8,14.8,0,0,1,7.07,7.33Q361.92,127,361.92,135.21Zm-9.63-.07q0-6-1.17-8.88a7.46,7.46,0,0,0-4-4.15q-2.81-1.26-8.34-1.26h-3.57v28.72h3.57q5.54,0,8.32-1.28a7.49,7.49,0,0,0,4-4.25A25.33,25.33,0,0,0,352.29,135.14Z"/><path class="cls-2" d="M368.77,158.1V112.32h29.74v8.23H378.1v9.76h17.2v8.27H378.1v11h20.41v8.53Z"/><path class="cls-2" d="M442.05,158.1V127.34l-11,19.12h-5.39l-10.85-19.12V158.1h-9V112.32h10.75l11.94,21.73,12.05-21.73h10.52V158.1Z"/><path class="cls-2" d="M480.32,140.64V158.1h-9.39V140.83L456.6,112.32h10.19l8.94,19.15,9.13-19.15h9.82Z"/><path class="cls-2" d="M110.22,91.92a6.52,6.52,0,0,0,2.13-.88,4.58,4.58,0,0,0,1.52-1.63,4.75,4.75,0,0,0,.58-2.43,4.3,4.3,0,0,0-2.3-4,8.06,8.06,0,0,0-2.31-.78,14.44,14.44,0,0,0-2.5-.23h-7.18V92.19h7.65A10.86,10.86,0,0,0,110.22,91.92Z"/><path class="cls-2" d="M113.7,102.08a11.19,11.19,0,0,0-2.77-.75,21.64,21.64,0,0,0-2.78-.2h-8V112h9.48a11.67,11.67,0,0,0,2.47-.27,6.55,6.55,0,0,0,2.27-1,5.38,5.38,0,0,0,1.66-1.76,5.06,5.06,0,0,0,.64-2.64,4.25,4.25,0,0,0-.84-2.74A5.4,5.4,0,0,0,113.7,102.08Z"/><path class="cls-2" d="M107.58,56.63a48.32,48.32,0,1,0,49.15,47.47A48.31,48.31,0,0,0,107.58,56.63Zm13.47,40.61a11.51,11.51,0,0,1,3.32,2.5,10.82,10.82,0,0,1,2.13,3.56,12.35,12.35,0,0,1,.75,4.33,11.54,11.54,0,0,1-1.63,6.33,12.76,12.76,0,0,1-4.2,4.1,18.23,18.23,0,0,1-5.79,2.23,31,31,0,0,1-6.4.68H89.6V73h17.87a45.8,45.8,0,0,1,6.27.44,17,17,0,0,1,5.65,1.76,10.83,10.83,0,0,1,4.06,3.69,11.3,11.3,0,0,1,1.56,6.3A10,10,0,0,1,122.74,92a12.44,12.44,0,0,1-6,3.83v.14A13.42,13.42,0,0,1,121.05,97.24Zm10,32v7.57H85.81v-7.57Z"/><path class="cls-2" d="M108.94,182.15,41.87,143.9l-.41-77.2,66.65-39L175.18,66l.42,77.2ZM51.31,138.38l57.57,32.83,57.22-33.44-.36-66.27L108.17,38.67,51,72.11Z"/><rect class="cls-2" x="152.38" y="68.29" width="20.48" height="9.47" transform="translate(-14.47 93.5) rotate(-30.78)"/><rect class="cls-2" x="104.18" y="157.72" width="9.47" height="19.9"/><rect class="cls-2" x="49.36" y="63.33" width="9.47" height="20.35" transform="translate(-36.55 84.05) rotate(-60.28)"/></svg>