<svg width="747" height="182" viewBox="0 0 747 182" fill="none" xmlns="http://www.w3.org/2000/svg">
<path fill-rule="evenodd" clip-rule="evenodd" d="M313.389 44.0278C313.389 41.9014 315.118 40.165 317.251 40.165H332.092C334.225 40.165 335.954 41.8941 335.954 44.0278V56.131C335.954 58.2573 337.683 59.9937 339.817 59.9937H351.523C353.657 59.9937 355.386 61.7227 355.386 63.8564V79.815V82.5594V99.6363V102.381V118.339C355.386 120.48 353.657 122.202 351.523 122.202H339.817C337.683 122.202 335.954 123.931 335.954 126.072V138.168C335.954 140.294 334.225 142.031 332.092 142.031H317.251C315.118 142.031 313.389 140.302 313.389 138.168V123.313C313.389 121.187 315.118 119.45 317.251 119.45H328.957C331.091 119.45 332.82 117.721 332.82 115.588V102.366V99.6216V82.552V79.8077V66.6008C332.82 64.4598 331.091 62.7307 328.957 62.7307H317.251C315.118 62.7307 313.389 61.0091 313.389 58.868V44.0278Z" fill="#0C0C0C"/>
<path fill-rule="evenodd" clip-rule="evenodd" d="M205.688 44.0278C205.688 41.9014 203.959 40.165 201.826 40.165H186.985C184.852 40.165 183.123 41.8941 183.123 44.0278V56.131C183.123 58.2573 181.394 59.9937 179.26 59.9937H167.554C165.42 59.9937 163.691 61.7227 163.691 63.8564V79.815V82.5594V99.6363V102.381V118.339C163.691 120.48 165.42 122.202 167.554 122.202H179.26C181.394 122.202 183.123 123.931 183.123 126.072V138.168C183.123 140.294 184.852 142.031 186.985 142.031H201.826C203.959 142.031 205.688 140.302 205.688 138.168V123.313C205.688 121.187 203.959 119.45 201.826 119.45H190.12C187.986 119.45 186.257 117.721 186.257 115.588V102.366V99.6216V82.552V79.8077V66.6008C186.257 64.4598 187.986 62.7307 190.12 62.7307H201.826C203.959 62.7307 205.688 61.0091 205.688 58.868V44.0278Z" fill="#0C0C0C"/>
<path fill-rule="evenodd" clip-rule="evenodd" d="M245.78 66.8878C245.78 65.1146 247.222 63.6652 249.002 63.6652H266.065H281.626C282.906 63.6652 284.069 64.4303 284.584 65.6076L289.874 77.8211C290.382 79.0057 291.544 79.7709 292.832 79.7709H303.743C305.523 79.7709 306.965 81.2056 306.965 82.9935V119.046C306.965 120.819 305.523 122.268 303.743 122.268H289.889C288.108 122.268 286.666 120.826 286.666 119.046V85.5613C286.666 83.7881 285.224 82.3387 283.443 82.3387H269.287C267.507 82.3387 266.065 83.7808 266.065 85.5613V119.046C266.065 120.819 264.623 122.268 262.842 122.268H248.995C247.215 122.268 245.773 120.826 245.773 119.046V66.8878H245.78Z" fill="#0C0C0C"/>
<path d="M212.943 66.8878C212.943 65.1146 214.385 63.6652 216.166 63.6652H230.005C231.786 63.6652 233.228 65.1072 233.228 66.8878V119.038C233.228 120.811 231.786 122.261 230.005 122.261H216.166C214.385 122.261 212.943 120.819 212.943 119.038V66.8878Z" fill="#0C0C0C"/>
<path d="M77.7255 91.3296V91.6754C80.5213 92.6687 82.8243 94.3389 84.6342 96.6639C86.4442 98.9962 87.3492 101.888 87.3492 105.324C87.3492 110.224 85.5981 114.285 82.1032 117.486C78.6599 120.635 74.4366 122.209 69.4188 122.209H36.8688V63.5989H68.3593C73.3183 63.5989 77.4532 65.0337 80.7789 67.8884C84.1045 70.7431 85.7673 74.4808 85.7673 79.0866C85.7673 81.7648 85.0389 84.2075 83.5821 86.4369C82.1253 88.5853 80.1682 90.226 77.7255 91.3296ZM65.4751 76.46H51.3044V86.8709H65.4751C67.1085 86.8709 68.4181 86.3486 69.4114 85.2964C70.4635 84.1854 70.9859 82.9567 70.9859 81.625C70.9859 80.2786 70.493 79.0866 69.4997 78.0419C68.5064 76.9897 67.1673 76.46 65.4751 76.46ZM51.3044 109.429H66.6965C68.3887 109.429 69.7866 108.848 70.8976 107.686C72.0086 106.523 72.5604 105.206 72.5604 103.742C72.5604 102.41 72.0086 101.233 70.8976 100.247C69.7866 99.1949 68.3887 98.6725 66.6965 98.6725H51.3044V109.429Z" fill="#0C0C0C"/>
<path d="M139.853 122.209H94.1917V63.5989H139.853V77.593H108.627V85.988H135.482V99.114H108.627V108.215H139.853V122.209Z" fill="#0C0C0C"/>
<path d="M421.339 97.7307H436.113C435.355 105.191 432.265 111.342 426.842 116.184C421.42 121.017 414.548 123.438 406.212 123.438C397.118 123.438 389.775 120.524 384.183 114.697C378.591 108.863 375.788 101.638 375.788 93.0145C375.788 84.3399 378.584 77.0486 384.183 71.1625C389.775 65.2176 397.125 62.2451 406.212 62.2451C414.312 62.2451 421.074 64.6363 426.497 69.4114C431.919 74.135 435.061 80.1093 435.936 87.3344H420.986C420.11 84.0088 418.367 81.3601 415.74 79.3736C413.121 77.3355 409.883 76.3422 406.035 76.4011C401.194 76.46 397.383 78.0639 394.579 81.2129C391.842 84.362 390.474 88.2394 390.474 92.8453C390.474 97.4438 391.872 101.351 394.668 104.559C397.464 107.708 401.312 109.282 406.204 109.282C410.111 109.282 413.4 108.259 416.086 106.221C418.779 104.11 420.53 101.284 421.339 97.7307Z" fill="#0C0C0C"/>
<path d="M455.309 122.121H440.881V63.5547H471.128C477.418 63.5547 482.436 64.9748 486.167 67.8295C489.956 70.6327 491.847 74.65 491.847 79.8959C491.847 85.4362 489.926 89.5711 486.078 92.3155V92.6613C491.089 93.89 493.598 97.6424 493.598 103.933V122.114H479.177V106.464C479.177 104.316 478.066 103.234 475.851 103.234H455.309V122.121ZM455.309 77.5341V90.4688H469.906C472.239 90.4688 474.071 89.8875 475.417 88.7177C476.815 87.5552 477.514 85.9291 477.514 83.8249C477.514 81.8457 476.815 80.2932 475.417 79.1896C474.019 78.0786 472.209 77.5268 469.995 77.5268H455.309V77.5341Z" fill="#0C0C0C"/>
<path d="M534.167 63.5474H550.163L527.259 100.784V122.114H512.83V100.872L489.838 63.5474H506.187L520.181 87.1505L534.167 63.5474Z" fill="#0C0C0C"/>
<path d="M583.699 63.5474C589.526 63.5474 594.426 65.5266 598.384 69.485C602.35 73.3919 604.329 78.2846 604.329 84.1707C604.329 90.2334 602.321 95.2144 598.296 99.1287C594.33 103.036 589.467 104.978 583.699 104.978H567.872V122.114H553.444V63.5474H583.699ZM567.88 91.3443H582.389C584.427 91.3443 586.149 90.7042 587.547 89.424C588.945 88.1438 589.644 86.4295 589.644 84.2664C589.644 82.2872 588.915 80.6832 587.458 79.4545C586.06 78.1743 584.368 77.5342 582.389 77.5342H567.88V91.3443Z" fill="#0C0C0C"/>
<path d="M605.823 63.5474H658.187V77.5342H639.219V122.114H624.791V77.5342H605.823V63.5474Z" fill="#0C0C0C"/>
<path d="M710.867 114.697C705.157 120.524 697.667 123.438 688.397 123.438C679.126 123.438 671.644 120.524 665.927 114.697C660.217 108.811 657.363 101.586 657.363 93.0145C657.363 84.3914 660.217 77.1074 665.927 71.1625C671.636 65.2176 679.126 62.2451 688.397 62.2451C697.66 62.2451 705.15 65.2176 710.867 71.1625C716.576 77.1074 719.431 84.3914 719.431 93.0145C719.439 101.579 716.584 108.811 710.867 114.697ZM688.404 109.267C693.356 109.267 697.322 107.663 700.294 104.456C703.267 101.255 704.753 97.3775 704.753 92.8379C704.753 88.2321 703.267 84.3546 700.294 81.2056C697.381 77.9977 693.415 76.3937 688.404 76.3937C683.394 76.3937 679.399 77.9977 676.426 81.2056C673.513 84.3546 672.056 88.2321 672.056 92.8379C672.056 97.3849 673.513 101.255 676.426 104.456C679.399 107.671 683.386 109.267 688.404 109.267Z" fill="#0C0C0C"/>
</svg>
