<svg width="474" height="223" viewBox="0 0 474 223" fill="none" xmlns="http://www.w3.org/2000/svg">
<path fill-rule="evenodd" clip-rule="evenodd" d="M227.041 28.1281C207.81 24.9223 188.98 22.1172 169.75 18.9114L158.933 72.2083L88.8208 75.4141L80.0068 20.5143L12.2989 26.9259L18.7091 95.8512L0.279785 104.267L8.29255 137.928L18.7091 134.321V178.802H117.266H160.936V222.081H227.041H267.105L270.31 178.802H337.217L372.072 196.434L378.482 178.802H410.934L409.732 217.272L431.767 222.081L473.834 217.272L464.62 123.101L460.213 61.7893L386.495 62.1901L386.095 52.9733C380.085 48.966 360.854 35.742 354.845 31.7347C363.659 21.3157 372.873 10.4961 381.687 0.0771484C330.005 9.2939 278.723 18.9114 227.041 28.1281Z" fill="#1D1D1B"/>
<path d="M289.541 79.822C289.941 79.4213 289.941 79.4213 289.541 79.822Z" fill="white"/>
<path d="M260.695 137.126C261.095 137.527 261.897 138.329 262.297 139.13H262.698C259.493 135.123 256.688 131.116 253.884 127.108C253.884 127.108 253.884 127.108 253.483 127.509V127.108L253.884 127.509L254.685 128.711C255.887 130.314 257.089 132.318 258.291 134.321C258.692 134.722 259.493 135.924 260.695 137.126ZM279.124 157.163C277.522 155.961 275.919 154.358 274.316 152.755H273.115L273.515 153.156L273.115 153.556C274.316 155.159 275.919 156.762 277.121 158.365C279.124 160.769 281.528 163.174 283.531 165.578L283.131 165.979C281.127 163.575 279.124 161.571 277.121 159.167L274.316 155.961C275.919 158.365 276.72 160.369 276.32 160.769C275.919 161.17 273.916 160.369 269.909 157.163C268.708 155.961 267.506 154.759 266.304 153.556L250.278 154.358L239.862 156.361H229.044V156.762C228.644 157.163 228.644 157.163 228.644 157.564C228.644 157.964 228.243 157.964 228.243 158.365C228.243 158.766 228.644 159.567 228.644 159.167C228.644 159.167 227.842 158.766 227.842 159.167C227.842 159.567 227.442 159.567 227.442 159.968L227.041 160.369L226.641 160.769C226.24 160.769 226.24 160.769 225.839 160.769C225.439 160.769 225.038 160.369 224.637 160.369C223.836 160.769 224.237 160.769 222.634 160.769C222.234 161.17 222.234 161.972 221.833 162.372V163.174C221.833 163.174 221.432 163.575 221.432 163.975C221.432 163.975 221.432 164.376 221.032 164.376C220.631 164.777 220.631 165.578 220.631 165.578C220.631 165.178 220.23 165.578 220.23 165.979C220.23 166.38 220.23 166.38 220.23 165.979V166.38C220.631 166.38 223.836 166.38 223.435 167.181C219.028 165.979 219.83 166.38 220.23 165.578V165.177C220.23 164.777 220.631 164.777 220.631 164.777V164.376C221.032 163.975 221.032 164.376 221.032 163.975V163.575C221.032 163.575 221.032 163.575 221.032 163.174C221.032 162.773 221.432 162.773 221.432 162.372V160.769C221.432 160.769 221.432 160.769 221.432 161.17C221.432 161.17 221.432 161.17 221.432 160.769C221.432 160.369 221.432 160.369 221.032 159.968C220.631 159.167 220.631 158.365 220.23 157.964C220.23 157.964 220.23 157.964 220.631 157.564L211.016 158.766C210.214 158.766 209.814 158.766 209.413 158.365C209.012 157.964 208.612 157.163 208.612 156.762L209.413 141.935V91.8442C209.413 91.4434 209.814 90.642 210.214 90.2413C210.615 89.8405 211.416 89.4398 211.817 89.8405L217.025 90.2413C215.823 89.0391 214.621 87.4362 213.82 86.234C212.218 84.2303 211.817 83.0282 212.218 81.4253C212.618 80.2231 214.221 79.0209 216.625 77.418H217.025C221.032 77.8187 224.237 79.0208 226.641 80.6237C228.243 81.4252 229.044 81.8259 229.044 81.8259C229.044 82.2267 229.044 82.2267 228.644 82.2267C230.647 84.2303 232.249 87.0355 233.852 89.4398C234.253 90.2413 234.653 90.642 235.054 91.4435L272.313 95.05C272.313 94.6493 272.714 94.6493 272.714 94.2486C273.115 93.8478 273.515 93.4471 274.316 93.4471C274.316 93.0464 274.317 93.0464 274.717 93.0464C274.317 93.4471 273.916 93.4471 273.515 93.4471L273.916 93.0464C273.916 92.6456 273.515 93.0463 273.916 92.6456C274.317 92.2449 274.316 92.6456 274.316 93.0464C274.717 92.6456 275.118 92.6456 275.518 92.2449C275.518 91.8442 275.919 91.8442 275.919 91.4435C276.32 91.0427 276.72 90.642 276.72 90.2413C277.121 89.8405 277.121 89.4398 277.522 89.4398C277.522 89.0391 277.922 89.039 277.922 88.6383C277.922 88.2376 278.323 88.2376 278.323 87.8369C278.323 87.4361 277.922 86.6347 277.922 86.6347C277.922 86.6347 279.124 87.0354 279.124 86.6347C279.124 86.2339 279.525 86.234 279.525 85.8332C279.525 85.4325 279.925 85.4325 279.925 85.4325L280.326 85.0318C280.727 85.0318 281.127 85.0318 281.127 85.0318C281.528 85.4325 282.329 85.8333 282.73 85.4325C283.932 85.0318 283.531 85.0318 285.134 85.4325C285.534 84.6311 285.935 84.2304 286.336 83.4289V82.2267C286.736 82.2267 287.538 81.0245 287.938 80.6237C287.938 80.6237 287.938 80.6238 287.938 80.2231C287.938 79.8223 288.339 79.8223 288.339 79.8223C288.339 79.8223 288.339 79.4216 288.739 79.4216C288.739 79.4216 289.14 79.0209 289.14 79.4216C289.14 79.8223 288.739 79.8223 288.739 79.8223C288.739 79.8223 288.339 80.2231 288.739 80.2231C288.339 80.6238 288.339 80.223 288.339 80.6237C288.339 81.0245 287.938 81.0245 287.938 81.0245L287.538 81.4253C287.538 81.4253 287.538 81.4252 287.538 81.8259C287.538 82.2267 287.538 82.2267 287.137 82.2267L286.736 82.6274C286.736 82.6274 286.736 82.6274 286.336 82.6274C286.336 82.6274 286.336 84.2303 285.935 84.2303L285.534 83.8296V84.2303H285.935L285.534 84.631V85.0318V87.0354C285.534 87.0354 284.733 87.8369 284.733 88.2376C285.134 88.6384 284.332 89.4398 283.932 89.4398C283.531 89.8406 283.131 90.2412 283.131 90.642C283.131 91.0427 281.929 91.8442 281.929 92.2449C281.127 93.0464 280.727 93.8478 279.925 94.6492L289.941 95.8514C291.143 95.8514 291.945 97.0536 291.945 97.8551V148.347C291.945 149.549 291.143 150.351 289.941 150.351L281.929 150.751L283.131 151.953L282.73 152.354L284.733 154.759L284.332 155.159C283.531 154.358 283.131 153.556 282.329 152.755C281.929 152.354 281.127 151.553 280.727 150.751H280.326C281.528 151.953 282.73 153.556 283.932 154.759C286.736 157.964 289.941 161.17 292.746 164.376L292.345 164.777C290.342 162.372 288.339 159.968 285.935 157.964L285.534 158.365C283.932 156.762 282.329 154.759 280.727 153.156C281.528 154.759 282.329 155.961 281.929 156.361C281.528 158.365 280.727 157.964 279.124 157.163ZM246.272 107.072L248.676 110.678L250.679 113.884C251.48 114.686 251.881 115.487 252.682 116.289C253.083 115.086 253.884 114.285 254.285 113.484C254.685 113.083 254.685 113.083 255.086 112.682C255.086 112.682 255.086 112.682 255.086 113.083C255.086 113.083 255.086 112.682 255.486 112.682C255.486 112.682 255.486 112.682 255.086 112.682C255.086 112.682 254.685 112.682 254.685 113.083L255.086 112.682C255.086 112.682 255.086 112.682 255.486 112.281C255.887 111.881 255.887 111.48 256.288 111.079C256.288 111.079 256.288 110.678 256.688 110.678V111.079L257.089 110.678C257.089 110.278 257.89 109.476 258.291 109.476C258.692 109.076 259.894 108.675 259.894 108.675H260.294L246.272 107.072ZM267.506 136.325C267.906 136.726 268.307 137.527 269.108 138.329C268.708 137.527 268.307 137.127 267.506 136.325ZM235.455 114.686C234.253 112.682 232.65 110.678 231.448 108.675C230.647 107.873 230.246 106.671 229.445 105.87H227.442L225.439 107.072V141.134V141.535H225.839L231.448 141.134C231.849 140.733 231.849 140.733 232.249 140.332C232.65 139.932 233.051 139.932 233.051 139.531C233.451 139.13 233.451 138.729 233.852 138.329C233.852 138.329 234.653 137.527 235.054 137.126C235.455 136.726 235.855 136.325 235.855 136.325C236.256 135.524 237.057 135.123 237.858 134.321C237.858 134.321 238.259 133.52 238.66 133.52C239.862 131.917 241.063 130.314 242.265 129.112C242.666 128.711 243.868 127.509 243.868 127.509L244.269 127.108C241.464 122.7 238.259 118.693 235.455 114.686ZM269.108 109.075C267.906 110.278 267.105 111.48 266.304 112.281C265.903 112.682 265.102 113.484 265.102 113.484L264.701 113.884C264.301 114.285 263.499 115.086 263.099 115.487C263.099 115.487 262.297 116.289 262.297 116.689C262.297 117.09 262.297 117.09 261.897 117.491C261.095 118.693 260.695 118.693 259.493 119.895C259.092 120.296 258.692 120.697 258.291 121.097H257.89L257.089 121.899L257.49 122.7C261.496 127.91 265.903 132.718 270.31 137.928L276.72 137.126V110.278C276.72 109.877 276.32 109.877 276.32 109.877L269.108 109.075ZM254.685 140.332C252.682 137.928 250.679 135.524 248.676 132.718C248.275 132.718 247.474 133.52 247.474 133.52C246.272 134.722 245.07 135.924 243.868 137.126C243.067 138.329 242.265 139.531 241.464 140.332L251.881 139.531L253.083 140.332H254.685ZM223.435 165.177C223.836 165.177 223.836 165.177 223.435 165.177ZM223.836 164.376C223.836 164.777 223.836 164.777 223.836 164.376ZM219.83 164.376C219.83 163.975 219.83 163.975 219.83 164.376Z" fill="white"/>
<path d="M289.941 79.8223C289.54 80.223 289.54 79.8223 289.941 79.8223Z" fill="white"/>
<path d="M231.047 205.25C233.852 205.25 243.066 205.25 245.07 204.048C246.272 203.647 246.672 200.442 247.073 198.839C248.275 190.423 247.473 195.232 247.073 186.416C247.073 185.615 247.073 182.409 247.073 181.607C246.672 180.806 244.669 180.806 243.868 180.806C228.644 182.409 213.419 184.412 197.794 186.015L206.208 40.1502C206.208 38.948 207.009 38.1466 206.608 37.3451C205.807 36.143 203.403 36.1429 202.201 36.1429C191.384 35.7422 191.785 36.1429 180.967 36.1429C180.166 36.1429 179.365 36.5437 178.964 36.9444C178.564 37.7458 178.964 41.3524 178.964 42.5546C180.166 54.5764 177.762 182.81 177.762 195.232C177.762 199.64 176.561 203.647 181.769 203.647C197.794 204.048 214.621 205.25 231.047 205.25Z" fill="white"/>
<path d="M119.27 159.166H170.551C171.353 159.166 171.753 158.365 171.753 157.563C171.753 157.563 171.753 157.163 171.753 156.762C171.753 154.358 172.154 140.332 172.154 137.928C172.154 137.126 171.353 136.325 170.151 136.325C165.744 135.924 161.737 135.523 157.33 135.123C154.926 135.123 142.907 134.321 136.898 133.92C136.497 133.92 136.497 133.92 136.497 133.52C136.497 133.119 136.497 133.119 136.898 133.119C142.106 131.516 152.523 127.509 154.526 127.108C155.327 126.707 155.728 125.505 154.926 125.104C152.923 123.101 140.103 113.884 135.696 110.678C135.696 110.678 135.295 110.277 135.696 110.277C135.696 109.877 136.096 109.877 136.096 109.877C146.513 110.277 156.93 111.079 166.945 111.48C167.346 111.48 168.147 111.48 168.147 111.079C168.548 111.079 168.949 110.678 168.949 110.277C169.349 104.267 169.75 97.8548 169.75 91.8439C169.75 91.0424 168.949 90.6417 168.147 90.6417C163.34 89.8403 139.702 91.0425 134.894 91.0425C133.692 91.0425 126.882 91.4432 125.279 91.4432C124.077 91.4432 123.677 93.8475 123.677 94.649L119.27 159.166Z" fill="#A6F805"/>
<path d="M368.867 69.4033H348.434C348.034 69.4033 348.034 69.4033 348.034 69.804L342.024 125.505C342.024 125.906 341.624 126.307 340.822 126.307C340.422 126.307 340.021 125.906 339.62 125.505L328.803 82.2266C328.803 81.8259 328.403 81.8259 328.403 81.8259L305.566 82.6273C305.166 82.6273 305.166 83.0281 305.166 83.0281L297.954 158.766V159.166H298.355H317.986C318.387 159.166 318.387 158.766 318.387 158.766L323.595 121.498C323.595 121.097 323.996 121.097 323.996 121.097C324.396 121.097 324.396 121.097 324.396 121.498L358.851 168.784C359.252 169.585 360.454 169.986 361.255 169.585C362.056 169.185 362.858 168.383 362.858 167.582L368.867 70.2048C369.268 69.804 369.268 69.804 368.867 69.4033Z" fill="white"/>
<path d="M380.886 165.177L428.161 152.354L427.36 208.456L452.6 205.65L447.793 89.8398L374.876 90.2406C374.476 90.2406 373.675 90.6413 373.675 91.4428L373.274 160.368C373.675 163.173 378.883 166.379 380.886 165.177ZM390.101 112.681L427.36 111.88L427.761 132.317L390.902 140.732L390.101 112.681Z" fill="white"/>
<path d="M107.651 86.2338L60.3756 99.0571L61.1769 42.9551L35.9367 45.7602L38.3405 105.068C37.1386 105.469 36.3373 105.469 36.3373 105.469C36.3373 105.469 36.3373 105.469 36.7379 105.869H36.3373C35.9367 105.869 35.536 105.869 35.1354 105.869H34.7347C34.3341 105.869 32.7316 107.072 32.7316 107.072C32.3309 107.072 31.9303 107.072 31.9303 107.072C31.5296 107.072 30.7284 107.072 30.7284 107.072L20.7124 109.877L25.1194 128.711L39.1418 125.505L40.7443 161.571L113.661 161.17C114.061 161.17 114.862 160.769 114.862 159.968L115.263 91.0425C114.862 88.2374 109.654 85.4323 107.651 86.2338ZM98.4363 138.729L61.1769 139.531L60.7762 119.093L97.635 110.678L98.4363 138.729Z" fill="#A6F805"/>
<path d="M373.675 4.88574L226.641 31.3338V78.2191L380.886 53.7746L349.637 32.536L373.675 4.88574Z" fill="#A6F805"/>
<path d="M340.422 48.1641L339.22 48.5648L338.418 44.1568L333.611 38.9474L334.813 38.5466L339.22 42.9546H338.819L341.223 36.9437L342.425 36.543L339.62 42.9546L340.422 48.1641Z" fill="black"/>
<path d="M330.806 49.7673L329.604 50.168L327.601 40.5505L328.803 40.1498L330.806 49.7673ZM332.409 39.7491L324.396 41.352V40.1498L332.409 38.5469V39.7491Z" fill="black"/>
<path d="M323.996 50.9697L322.794 51.3705L320.791 40.9515L321.992 40.5508L323.996 50.9697Z" fill="black"/>
<path d="M312.778 53.3744L311.576 53.7751L309.573 43.3562L310.775 42.9554L318.787 50.97H318.387L316.784 41.7532L317.986 41.3525L319.989 51.7714L318.787 52.1722L310.775 44.1576H311.175L312.778 53.3744Z" fill="black"/>
<path d="M307.169 43.7568L308.37 50.1685C308.771 51.3707 308.37 52.5729 307.97 53.775C307.569 54.5765 306.367 55.378 305.165 55.378C303.963 55.7787 302.762 55.378 301.96 54.9772C301.159 54.1758 300.358 53.3743 300.358 52.1722L299.156 45.7605L300.358 45.3598L301.56 51.7714C301.96 52.9736 302.361 53.7751 302.762 54.1758C303.563 54.5765 304.364 54.9772 305.165 54.5765C305.967 54.5765 306.768 53.7751 307.169 53.3744C307.569 52.5729 307.569 51.7714 307.569 50.5692L306.367 44.1576L307.169 43.7568Z" fill="black"/>
<path d="M292.746 56.179H291.945L285.935 48.1645H286.336L288.339 57.7819L287.137 58.1827L285.134 47.7637L286.736 47.363L292.746 55.3776H291.945L294.348 45.7601L295.951 45.3594L297.954 55.7783L296.752 56.179L294.749 46.5615H295.15L292.746 56.179Z" fill="black"/>
<path d="M279.525 58.5833H278.723L272.714 50.5688H273.114L275.118 60.1863L273.916 60.587L271.913 50.1681L273.515 49.7673L279.525 57.7819H278.723L281.127 48.1644L282.73 47.7637L284.733 58.1826L283.531 58.5833L281.528 48.9659H281.929L279.525 58.5833Z" fill="black"/>
<path d="M265.903 62.1901C265.102 62.1901 264.301 62.1901 263.499 62.1901C262.698 62.1901 262.297 61.7894 261.496 61.3887C261.096 60.988 260.294 60.5872 259.894 59.7857C259.493 58.9843 259.092 58.5836 259.092 57.7821C259.092 56.9806 259.092 56.1792 259.092 55.3778C259.092 54.5763 259.493 54.1756 259.894 53.3741C260.294 52.9734 260.695 52.1719 261.496 51.7712C262.297 51.3704 262.698 50.9697 263.499 50.9697C264.301 50.9697 265.102 50.9697 265.903 50.9697C266.704 50.9697 267.105 51.3704 267.906 51.7712C268.307 52.1719 269.108 52.5727 269.509 53.3741C269.91 54.1756 270.31 54.5763 270.31 55.3778C270.31 56.1792 270.31 56.9806 270.31 57.7821C270.31 58.5836 269.91 58.9843 269.509 59.7857C269.108 60.1865 268.708 60.988 267.906 61.3887C267.506 61.7894 266.704 62.1901 265.903 62.1901ZM265.903 61.3887C266.704 61.3887 267.506 60.9879 267.906 60.5872C268.307 60.1865 268.708 59.385 269.108 58.5835C269.509 57.7821 269.509 56.9807 269.108 56.1792C269.108 55.3778 268.708 54.5763 268.307 54.1756C267.906 53.3741 267.105 52.9734 266.704 52.9734C265.903 52.5726 265.102 52.5726 264.301 52.9734C263.499 52.9734 262.698 53.3741 262.297 53.7748C261.897 54.1755 261.496 54.977 261.095 55.7785C260.695 56.5799 260.695 57.3814 261.095 58.1829C261.496 58.9843 261.496 59.7858 261.897 60.1865C262.297 60.988 263.099 61.3887 263.499 61.3887C264.301 61.3887 265.102 61.3887 265.903 61.3887Z" fill="black"/>
<path d="M257.49 60.9882L258.291 61.7896C257.89 62.5911 257.49 62.9919 256.689 63.3926C255.887 63.7933 255.086 64.194 254.285 64.194C253.483 64.194 252.682 64.194 252.281 64.194C251.48 64.194 251.08 63.7933 250.278 63.3926C249.878 62.9919 249.076 62.5911 248.676 61.7896C248.275 60.9882 247.875 60.5875 247.875 59.786C247.875 58.9845 247.875 58.1831 247.875 57.3817C247.875 56.5802 248.275 56.1795 248.676 55.378C249.076 54.9773 249.477 54.1758 250.278 53.7751C250.679 53.3743 251.48 52.9736 252.281 52.9736C253.083 52.9736 253.884 52.9736 254.685 52.9736C255.487 53.3744 256.288 53.3744 256.689 54.1758L255.887 54.9773C255.487 54.5765 255.086 54.1758 254.285 53.7751C253.483 53.3743 253.083 53.3743 252.281 53.7751C251.48 53.7751 250.679 54.1758 250.278 54.5765C249.878 54.9773 249.477 55.7787 249.076 56.5802C248.676 57.3816 248.676 58.1831 249.076 58.9846C249.076 59.786 249.477 60.5875 249.878 60.9882C250.278 61.3889 251.08 62.1904 251.48 62.1904C252.282 62.5911 253.083 62.5911 253.483 62.1904C254.285 62.1904 254.685 61.7897 255.487 61.389C257.089 62.1904 257.49 61.7897 257.49 60.9882Z" fill="black"/>
<path d="M337.217 32.1358L336.015 32.5365L334.012 22.1176L335.214 21.7168L343.226 29.7314H342.826L341.624 20.9154L342.826 20.5146L344.829 30.9336L343.627 31.3344L335.614 23.3198H336.015L337.217 32.1358Z" fill="black"/>
<path d="M333.21 32.9365L332.009 33.3373L330.005 22.9183L331.207 22.5176L333.21 32.9365Z" fill="black"/>
<path d="M327.601 31.3339L321.992 32.5361V31.7346L327.601 30.5324V31.3339ZM330.005 33.7383L328.803 34.139L323.194 25.323H323.595L321.592 35.7419L320.39 36.1426L322.393 24.9222L323.595 24.5215L330.005 33.7383Z" fill="black"/>
<path d="M317.185 36.1429L315.182 25.7239L316.384 25.3232L318.387 35.7421L317.185 36.1429ZM311.175 37.3451L309.973 37.7458L307.97 27.3269L309.172 26.9261L311.175 37.3451ZM309.973 32.5363V31.3342L316.384 30.132V31.3342L309.973 32.5363Z" fill="black"/>
<path d="M306.367 35.3417L307.169 36.1432C306.768 36.9446 306.367 37.3453 305.566 37.7461C304.765 38.1468 303.963 38.5475 303.162 38.5475C302.361 38.5475 301.56 38.5475 301.159 38.5475C300.358 38.5475 299.957 38.1468 299.156 37.7461C298.755 37.3453 297.954 36.9446 297.553 36.1432C297.153 35.3417 296.752 34.941 296.752 34.1395C296.752 33.3381 296.752 32.5366 296.752 31.7351C296.752 30.9337 297.153 30.5329 297.553 29.7315C297.954 29.3308 298.354 28.5293 299.156 28.1286C299.556 27.7279 300.358 27.3271 301.159 27.3271C301.96 27.3271 302.762 27.3271 303.563 27.3271C304.364 27.7279 305.165 27.7278 305.566 28.5293L304.765 29.3308C304.364 28.9301 303.963 28.5293 303.162 28.1286C302.361 27.7279 301.96 27.7279 301.159 28.1286C300.358 28.1286 299.556 28.5293 299.156 28.93C298.755 29.3308 298.355 30.1322 297.954 30.9337C297.553 31.7351 297.553 32.5366 297.954 33.3381C297.954 34.1395 298.355 34.941 298.755 35.3417C299.156 35.7424 299.957 36.5439 300.358 36.5439C301.159 36.9446 301.96 36.9446 302.361 36.5439C303.162 36.5439 303.563 36.1431 304.364 35.7424C305.967 36.5439 306.367 36.1432 306.367 35.3417Z" fill="black"/>
<path d="M290.342 41.3519L289.14 41.7526L287.137 31.3337L288.339 30.933L290.342 41.3519ZM297.954 39.749L296.351 40.1497L289.14 35.7417H289.541L293.948 29.7308L295.55 29.3301L290.743 35.7417V35.341L297.954 39.749Z" fill="black"/>
<path d="M285.534 39.3486L286.336 40.15C285.935 40.9515 285.534 41.3522 284.733 41.7529C283.932 42.1536 283.13 42.5543 282.329 42.5543C281.528 42.5543 280.727 42.5543 280.326 42.5543C279.525 42.5543 279.124 42.1536 278.323 41.7529C277.922 41.3522 277.121 40.9515 276.72 40.15C276.32 39.3485 275.919 38.9478 275.919 38.1464C275.919 37.3449 275.919 36.5434 275.919 35.742C275.919 34.9405 276.32 34.5398 276.72 33.7383C277.121 33.3376 277.521 32.5362 278.323 32.1354C278.723 31.7347 279.525 31.334 280.326 31.334C281.127 31.334 281.929 31.334 282.73 31.334C283.531 31.7347 284.332 31.7347 284.733 32.5361L283.932 33.3376C283.531 32.9369 283.13 32.5362 282.329 32.1354C281.528 31.7347 281.127 31.7347 280.326 32.1354C279.525 32.1354 278.723 32.5361 278.323 32.9369C277.922 33.3376 277.521 34.1391 277.121 34.9405C276.72 35.742 276.72 36.5435 277.121 37.3449C277.121 38.1464 277.521 38.9478 277.922 39.3486C278.323 39.7493 279.124 40.5507 279.525 40.5507C280.326 40.9514 281.127 40.9514 281.528 40.5507C282.329 40.5507 282.73 40.15 283.531 39.7492C284.332 39.3485 285.534 40.15 285.534 39.3486Z" fill="black"/>
<path d="M270.31 45.3591C269.509 45.3591 268.707 45.3591 267.906 45.3591C267.105 45.3591 266.704 44.9583 265.903 44.5576C265.502 44.1568 264.701 43.7561 264.3 42.9547C263.9 42.1532 263.499 41.7525 263.499 40.951C263.499 40.1496 263.499 39.3481 263.499 38.5466C263.499 37.7452 263.9 37.3445 264.3 36.543C264.701 36.1423 265.102 35.3408 265.903 34.9401C266.704 34.5394 267.105 34.1387 267.906 34.1387C268.707 34.1387 269.509 34.1387 270.31 34.1387C271.111 34.1387 271.512 34.5394 272.313 34.9401C272.714 35.3408 273.515 35.7415 273.916 36.543C274.316 37.3445 274.717 37.7452 274.717 38.5466C274.717 39.3481 274.717 40.1496 274.717 40.951C274.717 41.7525 274.316 42.1532 273.916 42.9547C273.515 43.3554 273.114 44.1568 272.313 44.5576C271.912 44.9583 271.111 44.9584 270.31 45.3591ZM269.909 44.1569C270.711 44.1569 271.512 43.7562 271.912 43.3554C272.313 42.9547 272.714 42.1533 273.114 41.3518C273.515 40.5503 273.515 39.7489 273.114 38.9474C272.714 38.1459 272.714 37.3445 272.313 36.9438C271.912 36.1423 271.111 35.7416 270.711 35.7416C269.909 35.3408 269.108 35.3408 268.307 35.7416C267.505 35.7416 266.704 36.1423 266.303 36.543C265.903 36.9437 265.502 37.7452 265.102 38.5466C264.701 39.3481 264.701 40.1496 265.102 40.951C265.102 41.7525 265.502 42.554 265.903 42.9547C266.304 43.7561 267.105 44.1569 267.505 44.1569C268.307 44.1569 269.108 44.5576 269.909 44.1569Z" fill="black"/>
<path d="M263.499 46.1605L257.089 47.3627L255.086 36.9437L256.288 36.543L257.89 45.7597L263.099 44.5575L263.499 46.1605Z" fill="black"/>
<path d="M247.073 49.3669L245.07 38.9479L249.076 38.1465C249.877 38.1465 250.278 38.1465 251.079 38.1465C251.48 38.1465 251.881 38.5472 252.281 38.9479C252.682 39.3487 252.682 39.7494 253.083 40.1501C253.083 40.5509 253.083 40.9516 253.083 41.753C253.083 42.1537 252.682 42.5545 252.281 42.9552C251.881 43.3559 251.079 43.3559 250.679 43.7567L247.874 44.1574V43.356L250.679 42.9552C251.48 42.9552 251.881 42.9552 252.682 42.9552C253.083 42.9552 253.884 43.3559 253.884 43.7567C254.285 44.1574 254.685 44.5582 254.685 45.3596C254.685 45.7603 254.685 46.5618 254.685 46.9625C254.685 47.3632 254.285 47.764 253.884 48.1647C253.483 48.5654 252.682 48.5654 252.281 48.9661L247.073 49.3669ZM247.874 48.1647L251.079 47.7639C251.881 47.7639 252.281 47.3632 252.682 46.9625C253.083 46.5618 253.083 46.1611 253.083 45.3596C253.083 44.5582 252.682 44.1574 252.281 44.1574C251.881 43.7567 251.079 43.7567 250.679 44.1574L247.474 44.9589V44.1574L250.278 43.7567C251.079 43.7567 251.48 43.3559 251.881 42.9552C252.281 42.5545 252.281 42.1538 252.281 41.3523C252.281 40.9516 251.881 40.5509 251.48 40.1501C251.079 39.7494 250.278 39.7494 249.878 40.1501L247.073 40.5508L247.874 48.1647Z" fill="black"/>
<path d="M340.422 48.1641L339.22 48.5648L338.418 44.1568L333.611 38.9474L334.813 38.5466L339.22 42.9546H338.819L341.223 36.9437L342.425 36.543L339.62 42.9546L340.422 48.1641Z" fill="black"/>
<path d="M330.806 49.7673L329.604 50.168L327.601 40.5505L328.803 40.1498L330.806 49.7673ZM332.409 39.7491L324.396 41.352V40.1498L332.409 38.5469V39.7491Z" fill="black"/>
<path d="M323.996 50.9697L322.794 51.3705L320.791 40.9515L321.992 40.5508L323.996 50.9697Z" fill="black"/>
<path d="M312.778 53.3744L311.576 53.7751L309.573 43.3562L310.775 42.9554L318.787 50.97H318.387L316.784 41.7532L317.986 41.3525L319.989 51.7714L318.787 52.1722L310.775 44.1576H311.175L312.778 53.3744Z" fill="black"/>
<path d="M307.169 43.7568L308.37 50.1685C308.771 51.3707 308.37 52.5729 307.97 53.775C307.569 54.5765 306.367 55.378 305.165 55.378C303.963 55.7787 302.762 55.378 301.96 54.9772C301.159 54.1758 300.358 53.3743 300.358 52.1722L299.156 45.7605L300.358 45.3598L301.56 51.7714C301.96 52.9736 302.361 53.7751 302.762 54.1758C303.563 54.5765 304.364 54.9772 305.165 54.5765C305.967 54.5765 306.768 53.7751 307.169 53.3744C307.569 52.5729 307.569 51.7714 307.569 50.5692L306.367 44.1576L307.169 43.7568Z" fill="black"/>
<path d="M292.746 56.179H291.945L285.935 48.1645H286.336L288.339 57.7819L287.137 58.1827L285.134 47.7637L286.736 47.363L292.746 55.3776H291.945L294.348 45.7601L295.951 45.3594L297.954 55.7783L296.752 56.179L294.749 46.5615H295.15L292.746 56.179Z" fill="black"/>
<path d="M279.525 58.5833H278.723L272.714 50.5688H273.114L275.118 60.1863L273.916 60.587L271.913 50.1681L273.515 49.7673L279.525 57.7819H278.723L281.127 48.1644L282.73 47.7637L284.733 58.1826L283.531 58.5833L281.528 48.9659H281.929L279.525 58.5833Z" fill="black"/>
<path d="M265.903 62.1901C265.102 62.1901 264.301 62.1901 263.499 62.1901C262.698 62.1901 262.297 61.7894 261.496 61.3887C261.096 60.988 260.294 60.5872 259.894 59.7857C259.493 58.9843 259.092 58.5836 259.092 57.7821C259.092 56.9806 259.092 56.1792 259.092 55.3778C259.092 54.5763 259.493 54.1756 259.894 53.3741C260.294 52.9734 260.695 52.1719 261.496 51.7712C262.297 51.3704 262.698 50.9697 263.499 50.9697C264.301 50.9697 265.102 50.9697 265.903 50.9697C266.704 50.9697 267.105 51.3704 267.906 51.7712C268.307 52.1719 269.108 52.5727 269.509 53.3741C269.91 54.1756 270.31 54.5763 270.31 55.3778C270.31 56.1792 270.31 56.9806 270.31 57.7821C270.31 58.5836 269.91 58.9843 269.509 59.7857C269.108 60.1865 268.708 60.988 267.906 61.3887C267.506 61.7894 266.704 62.1901 265.903 62.1901ZM265.903 61.3887C266.704 61.3887 267.506 60.9879 267.906 60.5872C268.307 60.1865 268.708 59.385 269.108 58.5835C269.509 57.7821 269.509 56.9807 269.108 56.1792C269.108 55.3778 268.708 54.5763 268.307 54.1756C267.906 53.3741 267.105 52.9734 266.704 52.9734C265.903 52.5726 265.102 52.5726 264.301 52.9734C263.499 52.9734 262.698 53.3741 262.297 53.7748C261.897 54.1755 261.496 54.977 261.095 55.7785C260.695 56.5799 260.695 57.3814 261.095 58.1829C261.496 58.9843 261.496 59.7858 261.897 60.1865C262.297 60.988 263.099 61.3887 263.499 61.3887C264.301 61.3887 265.102 61.3887 265.903 61.3887Z" fill="black"/>
<path d="M257.49 60.9882L258.291 61.7896C257.89 62.5911 257.49 62.9919 256.689 63.3926C255.887 63.7933 255.086 64.194 254.285 64.194C253.483 64.194 252.682 64.194 252.281 64.194C251.48 64.194 251.08 63.7933 250.278 63.3926C249.878 62.9919 249.076 62.5911 248.676 61.7896C248.275 60.9882 247.875 60.5875 247.875 59.786C247.875 58.9845 247.875 58.1831 247.875 57.3817C247.875 56.5802 248.275 56.1795 248.676 55.378C249.076 54.9773 249.477 54.1758 250.278 53.7751C250.679 53.3743 251.48 52.9736 252.281 52.9736C253.083 52.9736 253.884 52.9736 254.685 52.9736C255.487 53.3744 256.288 53.3744 256.689 54.1758L255.887 54.9773C255.487 54.5765 255.086 54.1758 254.285 53.7751C253.483 53.3743 253.083 53.3743 252.281 53.7751C251.48 53.7751 250.679 54.1758 250.278 54.5765C249.878 54.9773 249.477 55.7787 249.076 56.5802C248.676 57.3816 248.676 58.1831 249.076 58.9846C249.076 59.786 249.477 60.5875 249.878 60.9882C250.278 61.3889 251.08 62.1904 251.48 62.1904C252.282 62.5911 253.083 62.5911 253.483 62.1904C254.285 62.1904 254.685 61.7897 255.487 61.389C257.089 62.1904 257.49 61.7897 257.49 60.9882Z" fill="black"/>
<path d="M337.217 32.1358L336.015 32.5365L334.012 22.1176L335.214 21.7168L343.226 29.7314H342.826L341.624 20.9154L342.826 20.5146L344.829 30.9336L343.627 31.3344L335.614 23.3198H336.015L337.217 32.1358Z" fill="black"/>
<path d="M333.21 32.9365L332.009 33.3373L330.005 22.9183L331.207 22.5176L333.21 32.9365Z" fill="black"/>
<path d="M327.601 31.3339L321.992 32.5361V31.7346L327.601 30.5324V31.3339ZM330.005 33.7383L328.803 34.139L323.194 25.323H323.595L321.592 35.7419L320.39 36.1426L322.393 24.9222L323.595 24.5215L330.005 33.7383Z" fill="black"/>
<path d="M317.185 36.1429L315.182 25.7239L316.384 25.3232L318.387 35.7421L317.185 36.1429ZM311.175 37.3451L309.973 37.7458L307.97 27.3269L309.172 26.9261L311.175 37.3451ZM309.973 32.5363V31.3342L316.384 30.132V31.3342L309.973 32.5363Z" fill="black"/>
<path d="M306.367 35.3417L307.169 36.1432C306.768 36.9446 306.367 37.3453 305.566 37.7461C304.765 38.1468 303.963 38.5475 303.162 38.5475C302.361 38.5475 301.56 38.5475 301.159 38.5475C300.358 38.5475 299.957 38.1468 299.156 37.7461C298.755 37.3453 297.954 36.9446 297.553 36.1432C297.153 35.3417 296.752 34.941 296.752 34.1395C296.752 33.3381 296.752 32.5366 296.752 31.7351C296.752 30.9337 297.153 30.5329 297.553 29.7315C297.954 29.3308 298.354 28.5293 299.156 28.1286C299.556 27.7279 300.358 27.3271 301.159 27.3271C301.96 27.3271 302.762 27.3271 303.563 27.3271C304.364 27.7279 305.165 27.7278 305.566 28.5293L304.765 29.3308C304.364 28.9301 303.963 28.5293 303.162 28.1286C302.361 27.7279 301.96 27.7279 301.159 28.1286C300.358 28.1286 299.556 28.5293 299.156 28.93C298.755 29.3308 298.355 30.1322 297.954 30.9337C297.553 31.7351 297.553 32.5366 297.954 33.3381C297.954 34.1395 298.355 34.941 298.755 35.3417C299.156 35.7424 299.957 36.5439 300.358 36.5439C301.159 36.9446 301.96 36.9446 302.361 36.5439C303.162 36.5439 303.563 36.1431 304.364 35.7424C305.967 36.5439 306.367 36.1432 306.367 35.3417Z" fill="black"/>
<path d="M290.342 41.3519L289.14 41.7526L287.137 31.3337L288.339 30.933L290.342 41.3519ZM297.954 39.749L296.351 40.1497L289.14 35.7417H289.541L293.948 29.7308L295.55 29.3301L290.743 35.7417V35.341L297.954 39.749Z" fill="black"/>
<path d="M285.534 39.3486L286.336 40.15C285.935 40.9515 285.534 41.3522 284.733 41.7529C283.932 42.1536 283.13 42.5543 282.329 42.5543C281.528 42.5543 280.727 42.5543 280.326 42.5543C279.525 42.5543 279.124 42.1536 278.323 41.7529C277.922 41.3522 277.121 40.9515 276.72 40.15C276.32 39.3485 275.919 38.9478 275.919 38.1464C275.919 37.3449 275.919 36.5434 275.919 35.742C275.919 34.9405 276.32 34.5398 276.72 33.7383C277.121 33.3376 277.521 32.5362 278.323 32.1354C278.723 31.7347 279.525 31.334 280.326 31.334C281.127 31.334 281.929 31.334 282.73 31.334C283.531 31.7347 284.332 31.7347 284.733 32.5361L283.932 33.3376C283.531 32.9369 283.13 32.5362 282.329 32.1354C281.528 31.7347 281.127 31.7347 280.326 32.1354C279.525 32.1354 278.723 32.5361 278.323 32.9369C277.922 33.3376 277.521 34.1391 277.121 34.9405C276.72 35.742 276.72 36.5435 277.121 37.3449C277.121 38.1464 277.521 38.9478 277.922 39.3486C278.323 39.7493 279.124 40.5507 279.525 40.5507C280.326 40.9514 281.127 40.9514 281.528 40.5507C282.329 40.5507 282.73 40.15 283.531 39.7492C284.332 39.3485 285.534 40.15 285.534 39.3486Z" fill="black"/>
<path d="M270.31 45.3591C269.509 45.3591 268.707 45.3591 267.906 45.3591C267.105 45.3591 266.704 44.9583 265.903 44.5576C265.502 44.1568 264.701 43.7561 264.3 42.9547C263.9 42.1532 263.499 41.7525 263.499 40.951C263.499 40.1496 263.499 39.3481 263.499 38.5466C263.499 37.7452 263.9 37.3445 264.3 36.543C264.701 36.1423 265.102 35.3408 265.903 34.9401C266.704 34.5394 267.105 34.1387 267.906 34.1387C268.707 34.1387 269.509 34.1387 270.31 34.1387C271.111 34.1387 271.512 34.5394 272.313 34.9401C272.714 35.3408 273.515 35.7415 273.916 36.543C274.316 37.3445 274.717 37.7452 274.717 38.5466C274.717 39.3481 274.717 40.1496 274.717 40.951C274.717 41.7525 274.316 42.1532 273.916 42.9547C273.515 43.3554 273.114 44.1568 272.313 44.5576C271.912 44.9583 271.111 44.9584 270.31 45.3591ZM269.909 44.1569C270.711 44.1569 271.512 43.7562 271.912 43.3554C272.313 42.9547 272.714 42.1533 273.114 41.3518C273.515 40.5503 273.515 39.7489 273.114 38.9474C272.714 38.1459 272.714 37.3445 272.313 36.9438C271.912 36.1423 271.111 35.7416 270.711 35.7416C269.909 35.3408 269.108 35.3408 268.307 35.7416C267.505 35.7416 266.704 36.1423 266.303 36.543C265.903 36.9437 265.502 37.7452 265.102 38.5466C264.701 39.3481 264.701 40.1496 265.102 40.951C265.102 41.7525 265.502 42.554 265.903 42.9547C266.304 43.7561 267.105 44.1569 267.505 44.1569C268.307 44.1569 269.108 44.5576 269.909 44.1569Z" fill="black"/>
<path d="M263.499 46.1605L257.089 47.3627L255.086 36.9437L256.288 36.543L257.89 45.7597L263.099 44.5575L263.499 46.1605Z" fill="black"/>
<path d="M247.073 49.3669L245.07 38.9479L249.076 38.1465C249.877 38.1465 250.278 38.1465 251.079 38.1465C251.48 38.1465 251.881 38.5472 252.281 38.9479C252.682 39.3487 252.682 39.7494 253.083 40.1501C253.083 40.5509 253.083 40.9516 253.083 41.753C253.083 42.1537 252.682 42.5545 252.281 42.9552C251.881 43.3559 251.079 43.3559 250.679 43.7567L247.874 44.1574V43.356L250.679 42.9552C251.48 42.9552 251.881 42.9552 252.682 42.9552C253.083 42.9552 253.884 43.3559 253.884 43.7567C254.285 44.1574 254.685 44.5582 254.685 45.3596C254.685 45.7603 254.685 46.5618 254.685 46.9625C254.685 47.3632 254.285 47.764 253.884 48.1647C253.483 48.5654 252.682 48.5654 252.281 48.9661L247.073 49.3669ZM247.874 48.1647L251.079 47.7639C251.881 47.7639 252.281 47.3632 252.682 46.9625C253.083 46.5618 253.083 46.1611 253.083 45.3596C253.083 44.5582 252.682 44.1574 252.281 44.1574C251.881 43.7567 251.079 43.7567 250.679 44.1574L247.474 44.9589V44.1574L250.278 43.7567C251.079 43.7567 251.48 43.3559 251.881 42.9552C252.281 42.5545 252.281 42.1538 252.281 41.3523C252.281 40.9516 251.881 40.5509 251.48 40.1501C251.079 39.7494 250.278 39.7494 249.878 40.1501L247.073 40.5508L247.874 48.1647Z" fill="black"/>
</svg>
