<svg width="1200" height="2021" viewBox="0 0 1200 2021" fill="none" xmlns="http://www.w3.org/2000/svg">
<path d="M20.5785 1012.32L602.863 700.163L599.983 1408.83L20.5785 1012.32Z" fill="#9ECC51" style="fill:#9ECC51;fill:color(display-p3 0.6196 0.8000 0.3176);fill-opacity:1;"/>
<path d="M1179.34 1012.32L597.104 700.163L599.983 1408.83L1179.34 1012.32Z" fill="#CA75AA" style="fill:#CA75AA;fill:color(display-p3 0.7922 0.4588 0.6667);fill-opacity:1;"/>
<path d="M157.984 783.533V716.18H140.482V687.88H171.796V566.312H160.053V540.712H183.494V433.856C183.494 415.275 198.566 400.202 217.148 400.202V336.764L234.56 279.579L252.241 336.764V401.102H253.141C271.723 401.102 286.795 416.175 286.795 434.756V538.462H309.021V716.27" fill="#EEDA55" style="fill:#EEDA55;fill:color(display-p3 0.9333 0.8549 0.3333);fill-opacity:1;"/>
<path d="M598.229 700.568L599.039 0.359863L1179.34 1012.32L598.229 700.568Z" fill="#E38B84" style="fill:#E38B84;fill:color(display-p3 0.8902 0.5451 0.5176);fill-opacity:1;"/>
<path d="M21.7483 1011.96L602.863 700.163L602.053 0" fill="#EEDA55" style="fill:#EEDA55;fill:color(display-p3 0.9333 0.8549 0.3333);fill-opacity:1;"/>
<path d="M597.959 1534.67L598.769 2019.32L1199.36 1141.49L597.959 1534.67Z" fill="#548DCA" style="fill:#548DCA;fill:color(display-p3 0.3294 0.5529 0.7922);fill-opacity:1;"/>
<path d="M5.46118 1148.69L602.593 1534.99L602.053 2019.32" fill="#70C9F2" style="fill:#70C9F2;fill:color(display-p3 0.4392 0.7882 0.9490);fill-opacity:1;"/>
<path d="M318.964 1413.51H268.439C267.539 1413.51 266.684 1412.97 266.324 1412.16C265.919 1411.35 266.054 1410.36 266.639 1409.64L316.625 1349.35V1281.64C316.625 1280.33 317.66 1279.3 318.964 1279.3C320.269 1279.3 321.304 1280.33 321.304 1281.64V1350.21C321.304 1350.74 321.124 1351.28 320.764 1351.69L273.433 1408.78H318.964C320.269 1408.78 321.304 1409.82 321.304 1411.12C321.304 1412.47 320.269 1413.51 318.964 1413.51Z" fill="black" style="fill:black;fill-opacity:1;"/>
<path d="M298.583 1572.37C299.393 1573.54 300.158 1574.71 300.968 1575.88L320.269 1563.02C321.349 1562.3 321.664 1560.81 320.944 1559.73C320.224 1558.65 318.784 1558.34 317.66 1559.06L298.358 1571.92C298.403 1572.15 298.493 1572.28 298.583 1572.37Z" fill="black" style="fill:black;fill-opacity:1;"/>
<path d="M274.467 1537.82H318.964C320.269 1537.82 321.304 1536.79 321.304 1535.48C321.304 1534.18 320.269 1533.14 318.964 1533.14H271.273C272.308 1534.67 273.388 1536.25 274.467 1537.82Z" fill="black" style="fill:black;fill-opacity:1;"/>
<path d="M260.025 1516.54H318.964C320.269 1516.54 321.304 1515.51 321.304 1514.2C321.304 1512.9 320.269 1511.86 318.964 1511.86H256.876C257.91 1513.44 258.945 1515.01 260.025 1516.54Z" fill="black" style="fill:black;fill-opacity:1;"/>
<path d="M235.1 1479.24C249.587 1462.05 268.304 1449.5 288.325 1443.88C299.573 1440.68 309.831 1439.42 318.784 1440.01C320.089 1440.1 321.214 1439.11 321.304 1437.8C321.394 1436.5 320.404 1435.37 319.099 1435.28C309.651 1434.65 298.853 1436 287.065 1439.33C266.504 1445.09 247.337 1457.83 232.4 1475.19C233.3 1476.54 234.2 1477.89 235.1 1479.24Z" fill="black" style="fill:black;fill-opacity:1;"/>
<path d="M268.439 1450.9C267.134 1450.9 266.099 1449.86 266.099 1448.56V1411.17C266.099 1409.86 267.134 1408.83 268.439 1408.83C269.743 1408.83 270.778 1409.86 270.778 1411.17V1448.56C270.778 1449.86 269.743 1450.9 268.439 1450.9Z" fill="black" style="fill:black;fill-opacity:1;"/>
<path d="M245.853 1495.44H318.964C320.269 1495.44 321.304 1494.4 321.304 1493.1C321.304 1491.79 320.269 1490.76 318.964 1490.76H242.748C243.783 1492.29 244.818 1493.86 245.853 1495.44Z" fill="black" style="fill:black;fill-opacity:1;"/>
<path d="M369.445 1413.51H318.964C317.66 1413.51 316.625 1412.47 316.625 1411.17C316.625 1409.86 317.66 1408.83 318.964 1408.83H364.451L317.12 1351.73C316.76 1351.33 316.58 1350.79 316.58 1350.25V1281.68C316.58 1280.38 317.615 1279.34 318.919 1279.34C320.224 1279.34 321.259 1280.38 321.259 1281.68V1349.4L371.245 1409.68C371.83 1410.4 371.965 1411.35 371.56 1412.2C371.2 1413.01 370.39 1413.51 369.445 1413.51Z" fill="black" style="fill:black;fill-opacity:1;"/>
<path d="M454.615 1803.86H467.707V1820.01H466.673C467.797 1821.54 468.922 1823.11 470.002 1824.73H470.047C471.352 1824.73 472.387 1823.7 472.387 1822.39V1801.56C472.387 1800.26 471.352 1799.22 470.047 1799.22H451.285C452.41 1800.71 453.535 1802.28 454.615 1803.86Z" fill="black" style="fill:black;fill-opacity:1;"/>
<path d="M440.217 1782.71H443.637V1787.89C445.211 1790.23 446.741 1792.56 448.361 1794.9V1780.37C448.361 1779.07 447.326 1778.03 446.021 1778.03H437.113C438.148 1779.61 439.183 1781.18 440.217 1782.71Z" fill="black" style="fill:black;fill-opacity:1;"/>
<path d="M463.388 1654.58L320.269 1559.15C319.189 1558.43 317.75 1558.7 316.985 1559.82C316.265 1560.9 316.535 1562.39 317.66 1563.11L454.3 1654.22H353.293C354.598 1655.79 355.903 1657.36 357.207 1658.94H462.083C463.118 1658.94 464.018 1658.26 464.333 1657.27C464.603 1656.19 464.243 1655.12 463.388 1654.58Z" fill="black" style="fill:black;fill-opacity:1;"/>
<path d="M472.881 1593.93C471.577 1593.93 470.542 1592.89 470.542 1591.59V1537.82H318.964C317.66 1537.82 316.625 1536.79 316.625 1535.48C316.625 1534.18 317.66 1533.14 318.964 1533.14H472.881C474.186 1533.14 475.221 1534.18 475.221 1535.48V1591.59C475.221 1592.89 474.186 1593.93 472.881 1593.93Z" fill="black" style="fill:black;fill-opacity:1;"/>
<path d="M454.435 1537.82C453.13 1537.82 452.095 1536.79 452.095 1535.48V1516.58H318.964C317.66 1516.58 316.625 1515.55 316.625 1514.25C316.625 1512.94 317.66 1511.91 318.964 1511.91H454.48C455.785 1511.91 456.819 1512.94 456.819 1514.25V1535.48C456.819 1536.74 455.74 1537.82 454.435 1537.82Z" fill="black" style="fill:black;fill-opacity:1;"/>
<path d="M448.631 1516.9C440.577 1516.9 433.289 1514.97 427.395 1511.23C421.636 1507.59 418.261 1501.92 414.932 1496.43L413.357 1493.86C398.15 1469.25 374.889 1451.03 349.514 1443.88C338.266 1440.68 328.008 1439.38 319.054 1440.01C317.795 1440.1 316.625 1439.11 316.535 1437.8C316.445 1436.5 317.435 1435.37 318.739 1435.28C328.188 1434.65 338.986 1436 350.774 1439.33C377.274 1446.8 401.524 1465.74 417.362 1491.39L418.936 1494C421.951 1498.99 425.055 1504.21 429.869 1507.23C437.968 1512.36 447.551 1512.58 454.12 1511.86C455.425 1511.73 456.594 1512.63 456.729 1513.93C456.864 1515.24 455.965 1516.4 454.66 1516.54C452.635 1516.76 450.611 1516.9 448.631 1516.9Z" fill="black" style="fill:black;fill-opacity:1;"/>
<path d="M369.445 1450.9C368.14 1450.9 367.106 1449.86 367.106 1448.56V1411.17C367.106 1409.86 368.14 1408.83 369.445 1408.83C370.75 1408.83 371.785 1409.86 371.785 1411.17V1448.56C371.83 1449.86 370.75 1450.9 369.445 1450.9Z" fill="black" style="fill:black;fill-opacity:1;"/>
<path d="M446.021 1785.14C444.717 1785.14 443.682 1784.11 443.682 1782.8V1656.51C443.682 1655.2 444.717 1654.17 446.021 1654.17C447.326 1654.17 448.361 1655.2 448.361 1656.51V1782.8C448.361 1784.11 447.326 1785.14 446.021 1785.14Z" fill="black" style="fill:black;fill-opacity:1;"/>
<path d="M428.07 1764.58V1656.51C428.07 1655.2 427.035 1654.17 425.73 1654.17C424.425 1654.17 423.39 1655.2 423.39 1656.51V1757.83C424.965 1760.08 426.54 1762.29 428.07 1764.58Z" fill="black" style="fill:black;fill-opacity:1;"/>
<path d="M370.93 1684C371.2 1684.58 371.515 1685.17 371.785 1685.75V1656.51C371.785 1655.2 370.75 1654.17 369.445 1654.17C368.14 1654.17 367.106 1655.2 367.106 1656.51V1671.63C370.03 1675.9 371.155 1680.09 370.93 1684Z" fill="black" style="fill:black;fill-opacity:1;"/>
<path d="M571.099 1653.63C569.794 1653.63 568.759 1652.6 568.759 1651.29V1621.82L508.605 1564.37L448.406 1624.48V1642.74C448.406 1644.05 447.371 1645.08 446.066 1645.08C444.762 1645.08 443.727 1644.05 443.727 1642.74V1623.49C443.727 1622.86 443.997 1622.27 444.402 1621.82L506.94 1559.42C507.84 1558.52 509.325 1558.52 510.225 1559.37L572.763 1619.12C573.213 1619.57 573.483 1620.2 573.483 1620.83V1651.29C573.438 1652.6 572.403 1653.63 571.099 1653.63Z" fill="black" style="fill:black;fill-opacity:1;"/>
<path d="M446.021 1625.87C445.166 1625.87 444.357 1625.38 443.952 1624.61C443.547 1623.85 443.592 1622.86 444.087 1622.14C445.076 1620.74 468.202 1588.53 504.286 1585.96C527.502 1584.3 550.582 1595.5 572.808 1619.21C573.438 1619.89 573.618 1620.88 573.258 1621.73C572.898 1622.59 572.088 1623.17 571.144 1623.17L446.066 1625.83C446.066 1625.87 446.021 1625.87 446.021 1625.87ZM508.695 1590.55C507.345 1590.55 505.995 1590.6 504.601 1590.69C477.876 1592.58 458.214 1612.51 450.97 1621.06L565.61 1618.63C546.938 1599.95 527.816 1590.55 508.695 1590.55Z" fill="black" style="fill:black;fill-opacity:1;"/>
<path d="M602.998 1690.61H446.021C444.717 1690.61 443.682 1691.65 443.682 1692.95C443.682 1694.26 444.717 1695.29 446.021 1695.29H602.953V1690.61H602.998Z" fill="black" style="fill:black;fill-opacity:1;"/>
<path d="M602.998 1721.12H446.021C444.717 1721.12 443.682 1722.15 443.682 1723.46C443.682 1724.76 444.717 1725.8 446.021 1725.8H602.953V1721.12H602.998Z" fill="black" style="fill:black;fill-opacity:1;"/>
<path d="M597.149 1695.34C595.844 1695.34 594.809 1694.3 594.809 1693V1656.91H459.114C457.809 1656.91 456.774 1655.88 456.774 1654.58C456.774 1653.27 457.809 1652.24 459.114 1652.24H597.149C598.454 1652.24 599.489 1653.27 599.489 1654.58V1693.04C599.489 1694.3 598.454 1695.34 597.149 1695.34Z" fill="black" style="fill:black;fill-opacity:1;"/>
<path d="M508.56 1563.47C507.255 1563.47 506.22 1562.43 506.22 1561.13V1516.63C506.22 1515.33 507.255 1514.29 508.56 1514.29C509.865 1514.29 510.9 1515.33 510.9 1516.63V1561.13C510.9 1562.39 509.865 1563.47 508.56 1563.47Z" fill="black" style="fill:black;fill-opacity:1;"/>
<path d="M583.921 1824.69H566.285C564.98 1824.69 563.945 1823.65 563.945 1822.35V1723.46C563.945 1722.15 564.98 1721.12 566.285 1721.12H583.921C585.226 1721.12 586.261 1722.15 586.261 1723.46V1822.35C586.261 1823.65 585.226 1824.69 583.921 1824.69ZM568.624 1819.97H581.537V1725.8H568.624V1819.97Z" fill="black" style="fill:black;fill-opacity:1;"/>
<path d="M536.23 1824.69H518.593C517.288 1824.69 516.254 1823.65 516.254 1822.35V1723.46C516.254 1722.15 517.288 1721.12 518.593 1721.12H536.23C537.535 1721.12 538.57 1722.15 538.57 1723.46V1822.35C538.57 1823.65 537.535 1824.69 536.23 1824.69ZM520.933 1819.97H533.845V1725.8H520.933V1819.97Z" fill="black" style="fill:black;fill-opacity:1;"/>
<path d="M488.539 1721.12H470.902C469.597 1721.12 468.562 1722.15 468.562 1723.46V1822.35C468.562 1822.39 468.607 1822.48 468.607 1822.53C469.057 1823.16 469.462 1823.79 469.867 1824.42C470.182 1824.6 470.542 1824.69 470.902 1824.69H488.539C489.843 1824.69 490.878 1823.65 490.878 1822.35V1723.46C490.878 1722.15 489.798 1721.12 488.539 1721.12ZM486.154 1819.97H473.241V1725.8H486.154V1819.97Z" fill="black" style="fill:black;fill-opacity:1;"/>
<path d="M466.718 1819.97C467.842 1821.49 468.967 1823.07 470.047 1824.69H586.306C586.306 1823.11 586.441 1821.54 586.621 1819.97H466.718Z" fill="black" style="fill:black;fill-opacity:1;"/>
<path d="M600.433 1752.52C599.129 1752.52 598.094 1751.49 598.094 1750.18V1736.55C598.094 1735.25 599.129 1734.21 600.433 1734.21C601.738 1734.21 602.773 1735.25 602.773 1736.55V1750.18C602.773 1751.49 601.738 1752.52 600.433 1752.52Z" fill="black" style="fill:black;fill-opacity:1;"/>
<path d="M553.462 1752.52C552.157 1752.52 551.122 1751.49 551.122 1750.18V1736.55C551.122 1735.25 552.157 1734.21 553.462 1734.21C554.767 1734.21 555.801 1735.25 555.801 1736.55V1750.18C555.801 1751.49 554.767 1752.52 553.462 1752.52Z" fill="black" style="fill:black;fill-opacity:1;"/>
<path d="M506.49 1752.52C505.186 1752.52 504.151 1751.49 504.151 1750.18V1736.55C504.151 1735.25 505.186 1734.21 506.49 1734.21C507.795 1734.21 508.83 1735.25 508.83 1736.55V1750.18C508.83 1751.49 507.795 1752.52 506.49 1752.52Z" fill="black" style="fill:black;fill-opacity:1;"/>
<path d="M415.022 1495.44H318.964C317.66 1495.44 316.625 1494.4 316.625 1493.1C316.625 1491.79 317.66 1490.76 318.964 1490.76H415.022C416.327 1490.76 417.362 1491.79 417.362 1493.1C417.362 1494.4 416.327 1495.44 415.022 1495.44Z" fill="black" style="fill:black;fill-opacity:1;"/>
<path d="M544.643 534.503C566.779 553.4 587.656 571.216 620.23 545.346C629.723 537.788 638.586 529.959 647.18 522.355C704.185 472.054 749.221 432.327 891.666 549.935C904.713 560.733 917.941 570.407 931.213 579.18C930.314 577.065 929.684 574.861 929.369 572.566C917.671 564.603 906.018 555.919 894.545 546.426C749.131 426.343 702.835 467.195 644.21 518.936C635.662 526.495 626.844 534.278 617.395 541.747C587.746 565.323 570.019 550.16 547.523 530.994C518.053 505.843 481.34 474.484 404.494 532.433C362.831 563.838 326.928 587.054 297.368 604.15V609.325C327.558 592.003 364.361 568.292 407.193 535.988C481.25 480.333 514.949 509.128 544.643 534.503Z" fill="black" style="fill:black;fill-opacity:1;"/>
<path d="M296.288 611.349V603.566L296.873 603.251C330.932 583.589 366.926 559.474 403.909 531.624C481.475 473.179 518.548 504.808 548.333 530.229C570.424 549.08 587.836 563.973 616.765 540.982C626.124 533.513 634.942 525.775 643.491 518.216C702.565 466.071 749.176 424.948 895.355 545.661C906.423 554.794 918.121 563.568 930.134 571.711L930.539 571.981L930.629 572.476C930.944 574.681 931.573 576.795 932.428 578.775L933.913 582.239L930.764 580.125C916.816 570.857 903.453 561.003 891.081 550.79C749.356 433.766 704.679 473.224 648.035 523.165C639.441 530.769 630.578 538.597 621.04 546.156C587.746 572.611 566.51 554.479 544.059 535.268C514.634 510.163 481.295 481.683 408.048 536.888C369.985 565.547 333.002 590.248 298.088 610.269L296.288 611.349ZM298.538 604.87V607.48C332.867 587.683 369.22 563.343 406.564 535.223C481.25 478.938 515.309 508.003 545.363 533.648C567.139 552.23 587.701 569.777 619.51 544.491C629.003 536.933 637.867 529.104 646.415 521.545C703.825 470.885 749.176 430.842 892.385 549.125C903.858 558.619 916.186 567.797 929.054 576.435C928.784 575.401 928.514 574.366 928.334 573.331C916.411 565.188 904.803 556.504 893.825 547.416C749.131 427.917 703.15 468.5 644.93 519.881C636.337 527.439 627.518 535.268 618.115 542.737C587.746 566.852 569.704 551.465 546.848 531.939C517.648 507.013 481.34 476.014 405.214 533.423C368.365 561.183 332.462 585.209 298.538 604.87Z" fill="black" style="fill:black;fill-opacity:1;"/>
<path d="M965.137 651.932L297.413 649.547V654.046L968.827 656.431C967.567 654.991 966.307 653.461 965.137 651.932Z" fill="black" style="fill:black;fill-opacity:1;"/>
<path d="M971.256 657.556L296.288 655.171V648.422H297.413L965.677 650.807L966.037 651.257C967.207 652.787 968.467 654.271 969.681 655.711L971.256 657.556ZM298.538 652.922L966.397 655.306C965.812 654.586 965.182 653.821 964.597 653.057L298.583 650.717V652.922H298.538Z" fill="black" style="fill:black;fill-opacity:1;"/>
<path d="M600.928 0.359982C599.309 -0.0899359 597.644 0.629934 596.789 2.06967L288.505 540.712C290.934 540.127 293.409 539.812 295.929 539.812C296.423 539.812 296.918 539.857 297.413 539.902L596.294 17.7268V1403.93L28.677 1009.48L159.018 781.733C157.984 778.494 157.309 775.074 157.174 771.52C157.174 771.07 157.174 770.665 157.174 770.215L20.6234 1008.76C19.6786 1010.43 20.1735 1012.5 21.7032 1013.58L597.869 1413.91C598.499 1414.36 599.219 1414.59 599.984 1414.59C600.568 1414.59 601.153 1414.45 601.693 1414.18C602.908 1413.55 603.673 1412.29 603.673 1410.94V3.91434C603.628 2.24964 602.548 0.809901 600.928 0.359982Z" fill="black" style="fill:black;fill-opacity:1;"/>
<path d="M157.759 939.16C157.669 937.27 157.714 935.425 157.759 933.581L22.0632 1007.37C20.2635 1008.36 19.6337 1010.56 20.5785 1012.36C21.2534 1013.58 22.5131 1014.3 23.8179 1014.3C24.4028 1014.3 25.0327 1014.16 25.5726 1013.85L157.984 941.859C157.939 940.914 157.804 940.06 157.759 939.16Z" fill="black" style="fill:black;fill-opacity:1;"/>
<path d="M603.223 695.574C602.233 693.774 600.028 693.145 598.229 694.089L311.046 850.211C311.136 851.381 311.316 852.506 311.361 853.675C311.451 855.25 311.451 856.825 311.406 858.4L601.738 700.568C603.493 699.578 604.168 697.374 603.223 695.574Z" fill="black" style="fill:black;fill-opacity:1;"/>
<path d="M596.294 1725.12V2005.33L17.2491 1152.92L596.294 1539.67V1763.55C598.724 1762.56 601.153 1761.66 603.628 1760.89V1537.69C603.628 1536.47 602.998 1535.3 602.008 1534.63L5.68616 1136.4C4.24642 1135.41 2.26678 1135.64 1.052 1136.85C-0.162779 1138.11 -0.342746 1140.05 0.602083 1141.49L596.924 2019.32C597.599 2020.36 598.769 2020.94 599.938 2020.94C600.298 2020.94 600.658 2020.9 601.018 2020.76C602.548 2020.27 603.628 2018.87 603.628 2017.25V1727.69C601.153 1726.92 598.679 1726.07 596.294 1725.12Z" fill="black" style="fill:black;fill-opacity:1;"/>
<path d="M599.983 1414.59C599.399 1414.59 598.814 1414.45 598.274 1414.18C597.059 1413.55 596.294 1412.29 596.294 1410.94V3.91434C596.294 2.24964 597.419 0.809901 599.039 0.359982C600.658 -0.0899359 602.323 0.629934 603.178 2.06967L1179.34 1008.72C1180.29 1010.38 1179.79 1012.45 1178.26 1013.53L602.098 1413.87C601.423 1414.36 600.703 1414.59 599.983 1414.59ZM603.628 17.7268V1403.93L1171.24 1009.48L603.628 17.7268Z" fill="black" style="fill:black;fill-opacity:1;"/>
<path d="M1176.15 1014.25C1175.56 1014.25 1174.98 1014.12 1174.39 1013.8L598.229 700.568C596.429 699.578 595.799 697.374 596.744 695.574C597.734 693.774 599.938 693.145 601.738 694.089L1177.9 1007.32C1179.7 1008.31 1180.33 1010.52 1179.39 1012.32C1178.71 1013.58 1177.45 1014.25 1176.15 1014.25Z" fill="black" style="fill:black;fill-opacity:1;"/>
<path d="M1198.91 1136.85C1197.66 1135.59 1195.72 1135.41 1194.28 1136.4L597.959 1534.67C596.924 1535.35 596.339 1536.52 596.339 1537.73V1763.59C598.769 1762.74 601.198 1762.02 603.673 1761.39V1539.71L1182.72 1152.96L603.673 2005.33V1730.57C601.198 1729.98 598.724 1729.31 596.339 1728.5V2017.25C596.339 2018.87 597.374 2020.27 598.949 2020.76C599.309 2020.85 599.668 2020.94 600.028 2020.94C601.243 2020.94 602.368 2020.36 603.043 2019.32L1199.36 1141.49C1200.35 1140.05 1200.17 1138.11 1198.91 1136.85Z" fill="black" style="fill:black;fill-opacity:1;"/>
<path d="M377.139 1252.39H369.085C368.725 1252.39 368.365 1252.26 368.05 1252.08L219.487 1148.82C216.428 1147.34 213.638 1145.4 211.164 1143.06L90.9457 1059.51C90.4508 1059.15 90.1358 1058.61 90.1358 1058.03V1033.15C90.1358 1032.11 90.9457 1031.3 91.9805 1031.3H377.184C378.219 1031.3 379.028 1032.11 379.028 1033.15V1250.59C378.983 1251.58 378.174 1252.39 377.139 1252.39ZM369.67 1248.75H375.294V1034.95H93.8252V1057.04L213.413 1140.09C213.503 1140.14 213.548 1140.23 213.638 1140.27C215.888 1142.43 218.453 1144.23 221.242 1145.54C221.332 1145.58 221.422 1145.63 221.512 1145.67L369.67 1248.75Z" fill="black" style="fill:black;fill-opacity:1;"/>
<path d="M389.961 1034.95H79.2028C78.168 1034.95 77.3582 1034.14 77.3582 1033.1V1003.99C77.3582 1002.96 78.168 1002.15 79.2028 1002.15H389.961C390.996 1002.15 391.806 1002.96 391.806 1003.99V1033.1C391.806 1034.14 390.996 1034.95 389.961 1034.95ZM81.0475 1031.3H388.162V1005.88H81.0475V1031.3Z" fill="black" style="fill:black;fill-opacity:1;"/>
<path d="M311.451 1005.84H157.714C156.679 1005.84 155.869 1005.03 155.869 1003.99V716.045C155.869 715.01 156.679 714.201 157.714 714.201H311.451C312.486 714.201 313.295 715.01 313.295 716.045V1003.99C313.295 1005.03 312.486 1005.84 311.451 1005.84ZM159.513 1002.19H309.606V717.935H159.513V1002.19Z" fill="black" style="fill:black;fill-opacity:1;"/>
<path d="M328.998 717.935H140.122C139.087 717.935 138.277 717.125 138.277 716.09V688.105C138.277 687.07 139.087 686.26 140.122 686.26H328.998C330.032 686.26 330.842 687.07 330.842 688.105V716.09C330.842 717.08 330.032 717.935 328.998 717.935ZM141.966 714.245H327.153V689.95H141.966V714.245Z" fill="black" style="fill:black;fill-opacity:1;"/>
<path d="M297.413 689.95H171.751C170.716 689.95 169.906 689.14 169.906 688.105V566.222C169.906 565.188 170.716 564.378 171.751 564.378H297.413C298.448 564.378 299.258 565.188 299.258 566.222V688.105C299.258 689.14 298.403 689.95 297.413 689.95ZM173.596 686.261H295.569V568.022H173.596V686.261Z" fill="black" style="fill:black;fill-opacity:1;"/>
<path d="M271.453 689.95H197.711C196.677 689.95 195.867 689.14 195.867 688.105V566.222C195.867 565.188 196.677 564.378 197.711 564.378H271.453C272.488 564.378 273.298 565.188 273.298 566.222V688.105C273.298 689.14 272.443 689.95 271.453 689.95ZM199.556 686.261H269.608V568.022H199.556V686.261Z" fill="black" style="fill:black;fill-opacity:1;"/>
<path d="M309.066 568.067H160.098C159.063 568.067 158.253 567.257 158.253 566.222V540.262C158.253 539.227 159.063 538.417 160.098 538.417H309.066C310.101 538.417 310.911 539.227 310.911 540.262V566.222C310.911 567.212 310.101 568.067 309.066 568.067ZM161.898 564.378H307.221V542.107H161.898V564.378Z" fill="black" style="fill:black;fill-opacity:1;"/>
<path d="M284.996 542.107H184.169C183.134 542.107 182.324 541.297 182.324 540.262V439.435C182.324 438.401 183.134 437.591 184.169 437.591H284.996C286.03 437.591 286.84 438.401 286.84 439.435V540.262C286.84 541.252 285.985 542.107 284.996 542.107ZM186.013 538.417H283.196V441.235H186.013V538.417Z" fill="black" style="fill:black;fill-opacity:1;"/>
<path d="M252.241 542.107H216.878C215.843 542.107 215.033 541.297 215.033 540.262V439.435C215.033 438.401 215.843 437.591 216.878 437.591H252.241C253.276 437.591 254.086 438.401 254.086 439.435V540.262C254.086 541.252 253.276 542.107 252.241 542.107ZM218.723 538.417H250.442V441.235H218.723V538.417Z" fill="black" style="fill:black;fill-opacity:1;"/>
<path d="M284.996 441.235H184.169C183.134 441.235 182.324 440.425 182.324 439.39C182.324 419.819 196.002 403.262 215.078 399.528V338.609C215.078 337.574 215.888 336.764 216.923 336.764H252.286C253.321 336.764 254.131 337.574 254.131 338.609V399.528C273.208 403.307 286.885 419.819 286.885 439.39C286.84 440.425 285.985 441.235 284.996 441.235ZM186.058 437.591H283.151C282.296 420.134 269.473 405.691 252.016 402.902C251.117 402.767 250.487 402.002 250.487 401.102V340.408H218.768V401.057C218.768 401.957 218.093 402.722 217.238 402.857C199.736 405.646 186.868 420.089 186.058 437.591Z" fill="black" style="fill:black;fill-opacity:1;"/>
<path d="M278.337 1005.84H190.828C189.793 1005.84 188.983 1005.03 188.983 1003.99V716.045C188.983 715.01 189.793 714.201 190.828 714.201H278.382C279.417 714.201 280.226 715.01 280.226 716.045V1003.99C280.181 1005.03 279.372 1005.84 278.337 1005.84ZM192.627 1002.19H276.492V717.935H192.627V1002.19Z" fill="black" style="fill:black;fill-opacity:1;"/>
<path d="M296.918 1202.23C296.558 1202.23 296.198 1202.14 295.884 1201.91L219.487 1148.82C216.428 1147.34 213.638 1145.4 211.164 1143.06L171.211 1115.3C170.716 1114.94 170.401 1114.4 170.401 1113.82V1033.15C170.401 1032.11 171.211 1031.3 172.246 1031.3H296.918C297.953 1031.3 298.763 1032.11 298.763 1033.15V1200.43C298.763 1201.1 298.403 1201.73 297.773 1202.05C297.503 1202.18 297.188 1202.23 296.918 1202.23ZM174.091 1112.83L213.369 1140.14C213.458 1140.18 213.503 1140.27 213.593 1140.32C215.843 1142.48 218.408 1144.28 221.197 1145.58C221.287 1145.63 221.377 1145.67 221.467 1145.72L295.074 1196.87V1034.95H174.091V1112.83Z" fill="black" style="fill:black;fill-opacity:1;"/>
<path d="M252.241 340.408H216.878C216.293 340.408 215.753 340.138 215.393 339.643C215.033 339.193 214.943 338.564 215.123 338.024L232.805 280.839C233.03 280.074 233.75 279.534 234.56 279.534C235.37 279.534 236.089 280.074 236.314 280.839L253.996 338.024C254.176 338.564 254.086 339.193 253.726 339.643C253.411 340.138 252.826 340.408 252.241 340.408ZM219.397 336.764H249.767L234.56 287.633L219.397 336.764Z" fill="black" style="fill:black;fill-opacity:1;"/>
<path d="M234.56 283.224C233.525 283.224 232.715 282.414 232.715 281.379V215.196C232.715 214.161 233.525 213.351 234.56 213.351C235.594 213.351 236.404 214.161 236.404 215.196V281.424C236.404 282.414 235.594 283.224 234.56 283.224Z" fill="black" style="fill:black;fill-opacity:1;"/>
<path d="M234.56 1152.33C229.296 1152.33 224.257 1151.16 219.577 1148.87C216.428 1147.38 213.594 1145.36 211.029 1142.93C204.235 1136.54 200.366 1127.5 200.366 1118.14C200.366 1099.29 215.708 1083.94 234.56 1083.94C253.411 1083.94 268.754 1099.29 268.754 1118.14C268.754 1136.99 253.411 1152.33 234.56 1152.33ZM234.56 1087.63C217.733 1087.63 204.055 1101.31 204.055 1118.14C204.055 1126.51 207.52 1134.56 213.594 1140.27C215.843 1142.43 218.408 1144.23 221.197 1145.58C225.381 1147.65 229.881 1148.69 234.56 1148.69C251.387 1148.69 265.064 1135.01 265.064 1118.18C265.109 1101.31 251.387 1087.63 234.56 1087.63Z" fill="black" style="fill:black;fill-opacity:1;"/>
<path d="M234.56 889.354C218.408 889.354 205.27 876.216 205.27 860.064C205.27 843.912 218.408 830.774 234.56 830.774C250.712 830.774 263.849 843.912 263.849 860.064C263.894 876.216 250.712 889.354 234.56 889.354ZM234.56 834.419C220.432 834.419 208.914 845.937 208.914 860.064C208.914 874.192 220.432 885.709 234.56 885.709C248.687 885.709 260.205 874.192 260.205 860.064C260.205 845.937 248.732 834.419 234.56 834.419Z" fill="black" style="fill:black;fill-opacity:1;"/>
<path d="M234.56 889.354C218.408 889.354 205.27 876.216 205.27 860.064C205.27 843.912 218.408 830.774 234.56 830.774C250.712 830.774 263.849 843.912 263.849 860.064C263.894 876.216 250.712 889.354 234.56 889.354ZM234.56 834.419C220.432 834.419 208.914 845.937 208.914 860.064C208.914 874.192 220.432 885.709 234.56 885.709C248.687 885.709 260.205 874.192 260.205 860.064C260.205 845.937 248.732 834.419 234.56 834.419Z" fill="black" style="fill:black;fill-opacity:1;"/>
<path d="M157.714 1005.84H111.102C110.607 1005.84 110.112 1005.61 109.797 1005.25C109.437 1004.89 109.257 1004.4 109.302 1003.9C110.382 977.898 131.618 956.842 157.669 955.987C158.164 955.942 158.658 956.167 159.018 956.482C159.378 956.842 159.558 957.291 159.558 957.786V1003.95C159.513 1005.03 158.703 1005.84 157.714 1005.84ZM113.082 1002.19H155.869V959.811C133.238 961.476 114.971 979.607 113.082 1002.19Z" fill="black" style="fill:black;fill-opacity:1;"/>
<path d="M356.533 1005.84H309.966C308.931 1005.84 308.121 1005.03 308.121 1003.99V957.876C308.121 957.381 308.301 956.886 308.661 956.572C309.021 956.212 309.471 956.032 310.011 956.077C336.016 956.931 357.297 977.988 358.377 1003.99C358.377 1004.49 358.197 1004.98 357.882 1005.34C357.522 1005.66 357.027 1005.84 356.533 1005.84ZM311.766 1002.19H354.553C352.663 979.607 334.352 961.476 311.766 959.811V1002.19Z" fill="black" style="fill:black;fill-opacity:1;"/>
<path d="M234.56 651.212C221.287 651.212 210.534 640.414 210.534 627.186C210.534 613.959 221.332 603.161 234.56 603.161C247.832 603.161 258.585 613.959 258.585 627.186C258.585 640.414 247.832 651.212 234.56 651.212ZM234.56 606.805C223.312 606.805 214.178 615.938 214.178 627.186C214.178 638.434 223.312 647.568 234.56 647.568C245.808 647.568 254.941 638.434 254.941 627.186C254.941 615.938 245.808 606.805 234.56 606.805Z" fill="black" style="fill:black;fill-opacity:1;"/>
<path d="M454.3 1068.42C451.465 1068.42 448.676 1069.37 446.426 1071.03C442.692 1064.91 435.988 1061.09 428.789 1061.09C424.515 1061.09 420.331 1062.44 416.867 1064.91C411.378 1058.66 403.549 1055.1 395.181 1055.1C389.197 1055.1 383.618 1056.95 379.028 1060.05V1064.64C383.393 1060.95 389.062 1058.75 395.181 1058.75C403.009 1058.75 410.298 1062.35 415.112 1068.56C415.427 1068.96 415.877 1069.19 416.372 1069.28C416.867 1069.32 417.362 1069.19 417.766 1068.83C420.826 1066.22 424.74 1064.73 428.789 1064.73C435.403 1064.73 441.477 1068.65 444.267 1074.68C444.537 1075.22 445.032 1075.62 445.661 1075.71C446.246 1075.8 446.876 1075.62 447.281 1075.17C449.126 1073.19 451.645 1072.11 454.345 1072.11C459.699 1072.11 464.018 1076.47 464.018 1081.78C464.018 1087.14 459.654 1091.46 454.345 1091.46C451.645 1091.46 449.126 1090.38 447.281 1088.4C446.876 1087.95 446.246 1087.72 445.661 1087.86C445.076 1087.95 444.537 1088.35 444.267 1088.89C441.477 1094.92 435.448 1098.84 428.789 1098.84C425.505 1098.84 422.311 1097.89 419.521 1096.09C419.116 1095.82 418.576 1095.73 418.081 1095.87C417.587 1096 417.182 1096.27 416.912 1096.72C412.412 1104.46 404.044 1109.27 395.136 1109.27C388.972 1109.27 383.348 1107.07 378.983 1103.38V1107.97C383.618 1111.12 389.152 1112.92 395.136 1112.92C404.719 1112.92 413.762 1108.06 419.116 1100.14C422.086 1101.72 425.37 1102.53 428.744 1102.53C435.988 1102.53 442.647 1098.7 446.381 1092.58C448.676 1094.25 451.42 1095.19 454.255 1095.19C461.634 1095.19 467.617 1089.21 467.617 1081.83C467.662 1074.41 461.679 1068.42 454.3 1068.42Z" fill="black" style="fill:black;fill-opacity:1;"/>
<path d="M677.234 760.497C674.4 760.497 671.61 761.442 669.361 763.107C665.627 756.988 658.923 753.164 651.724 753.164C647.45 753.164 643.266 754.513 639.801 756.988C634.312 750.734 626.484 747.18 618.115 747.18C612.131 747.18 606.552 749.024 601.963 752.129V756.718C606.327 753.029 611.996 750.824 618.115 750.824C625.944 750.824 633.232 754.423 638.047 760.632C638.361 761.037 638.811 761.262 639.306 761.352C639.801 761.397 640.296 761.262 640.701 760.902C643.76 758.293 647.675 756.808 651.724 756.808C658.338 756.808 664.412 760.722 667.201 766.751C667.471 767.291 667.966 767.696 668.596 767.786C669.181 767.876 669.811 767.696 670.216 767.246C672.06 765.266 674.58 764.187 677.279 764.187C682.633 764.187 686.953 768.551 686.953 773.86C686.953 779.214 682.588 783.533 677.279 783.533C674.58 783.533 672.06 782.453 670.216 780.474C669.811 780.024 669.181 779.799 668.596 779.934C668.011 780.024 667.471 780.429 667.201 780.969C664.412 786.997 658.383 790.912 651.724 790.912C648.44 790.912 645.245 789.967 642.456 788.167C642.051 787.897 641.511 787.807 641.016 787.942C640.521 788.077 640.116 788.347 639.846 788.797C635.347 796.536 626.979 801.35 618.07 801.35C611.906 801.35 606.282 799.145 601.918 795.456V800.045C606.552 803.195 612.086 804.994 618.07 804.994C627.653 804.994 636.697 800.135 642.051 792.216C645.02 793.791 648.305 794.601 651.679 794.601C658.923 794.601 665.582 790.777 669.316 784.658C671.61 786.323 674.355 787.267 677.189 787.267C684.568 787.267 690.552 781.283 690.552 773.905C690.597 766.481 684.613 760.497 677.234 760.497Z" fill="black" style="fill:black;fill-opacity:1;"/>
<path d="M525.747 1283.75C528.581 1283.75 531.371 1282.81 533.62 1281.14C537.355 1287.26 544.059 1291.09 551.257 1291.09C555.531 1291.09 559.716 1289.74 563.18 1287.26C568.669 1293.52 576.498 1297.07 584.866 1297.07C590.85 1297.07 596.429 1295.23 601.018 1292.12V1287.53C596.654 1291.22 590.985 1293.43 584.866 1293.43C577.038 1293.43 569.749 1289.83 564.935 1283.62C564.62 1283.21 564.17 1282.99 563.675 1282.9C563.18 1282.85 562.685 1282.99 562.28 1283.35C559.221 1285.96 555.307 1287.44 551.257 1287.44C544.643 1287.44 538.57 1283.53 535.78 1277.5C535.51 1276.96 535.015 1276.55 534.385 1276.46C533.8 1276.37 533.171 1276.55 532.766 1277C530.921 1278.98 528.401 1280.06 525.702 1280.06C520.348 1280.06 516.029 1275.7 516.029 1270.39C516.029 1265.04 520.393 1260.72 525.702 1260.72C528.401 1260.72 530.921 1261.8 532.766 1263.78C533.171 1264.23 533.8 1264.45 534.385 1264.32C534.97 1264.23 535.51 1263.82 535.78 1263.28C538.57 1257.25 544.598 1253.34 551.257 1253.34C554.542 1253.34 557.736 1254.28 560.526 1256.08C560.931 1256.35 561.47 1256.44 561.965 1256.31C562.46 1256.17 562.865 1255.9 563.135 1255.45C567.634 1247.71 576.003 1242.9 584.911 1242.9C591.075 1242.9 596.699 1245.1 601.063 1248.79V1244.2C596.429 1241.06 590.895 1239.26 584.911 1239.26C575.328 1239.26 566.285 1244.11 560.931 1252.03C557.961 1250.46 554.677 1249.65 551.302 1249.65C544.059 1249.65 537.4 1253.47 533.665 1259.59C531.371 1257.93 528.626 1256.98 525.792 1256.98C518.413 1256.98 512.429 1262.97 512.429 1270.34C512.429 1277.77 518.413 1283.75 525.747 1283.75Z" fill="black" style="fill:black;fill-opacity:1;"/>
<path d="M491.373 1191.25C491.283 1191.25 491.193 1191.25 491.103 1191.2C490.293 1191.07 489.663 1190.44 489.573 1189.63C489.124 1185.99 487.729 1183.65 485.344 1182.39C478.955 1178.97 467.527 1184.59 467.437 1184.64C466.538 1185.09 465.413 1184.73 464.963 1183.83C464.513 1182.93 464.873 1181.8 465.773 1181.35C466.313 1181.08 478.955 1174.87 487.054 1179.15C489.393 1180.36 491.058 1182.34 492.138 1184.95C493.983 1182.7 496.952 1179.96 501.271 1178.65C507.3 1176.81 514.184 1178.25 521.698 1182.88C522.552 1183.42 522.822 1184.55 522.282 1185.4C521.743 1186.26 520.618 1186.53 519.763 1185.99C513.194 1181.94 507.345 1180.63 502.351 1182.12C495.917 1184.05 493.038 1190.08 493.038 1190.17C492.768 1190.84 492.093 1191.25 491.373 1191.25Z" fill="black" style="fill:black;fill-opacity:1;"/>
<path d="M523.857 1018.48C523.767 1018.48 523.677 1018.48 523.587 1018.48C522.777 1018.35 522.148 1017.72 522.058 1016.91C521.833 1015.11 521.158 1013.94 520.033 1013.35C517.288 1011.91 512.114 1013.85 510.495 1014.66C509.595 1015.11 508.47 1014.75 508.02 1013.85C507.57 1012.95 507.93 1011.82 508.83 1011.37C509.64 1010.97 516.838 1007.5 521.743 1010.11C522.642 1010.61 523.677 1011.37 524.487 1012.72C525.612 1011.55 527.187 1010.38 529.301 1009.75C532.991 1008.63 537.13 1009.48 541.629 1012.27C542.484 1012.81 542.754 1013.94 542.214 1014.79C541.674 1015.65 540.549 1015.92 539.694 1015.38C536.14 1013.17 532.991 1012.45 530.336 1013.26C527.052 1014.25 525.522 1017.4 525.522 1017.45C525.207 1018.08 524.577 1018.48 523.857 1018.48Z" fill="black" style="fill:black;fill-opacity:1;"/>
<path d="M863.141 895.248C863.051 895.248 862.961 895.248 862.871 895.248C862.061 895.113 861.431 894.483 861.341 893.673C861.116 891.873 860.441 890.704 859.316 890.119C856.572 888.679 851.398 890.614 849.778 891.423C848.878 891.873 847.753 891.513 847.304 890.614C846.854 889.714 847.213 888.589 848.113 888.139C848.923 887.734 856.122 884.27 861.026 886.879C861.926 887.374 862.961 888.139 863.771 889.489C864.895 888.319 866.47 887.149 868.585 886.519C872.274 885.394 876.413 886.249 880.912 889.039C881.767 889.579 882.037 890.704 881.497 891.558C880.957 892.413 879.833 892.683 878.978 892.143C875.423 889.939 872.274 889.219 869.619 890.029C866.335 891.018 864.805 894.168 864.805 894.213C864.49 894.798 863.861 895.248 863.141 895.248Z" fill="black" style="fill:black;fill-opacity:1;"/>
<path d="M648.935 1252.66H617.485C616.181 1252.66 615.146 1253.7 615.146 1255V1272.14H599.983V1276.87H617.485C618.79 1276.87 619.825 1275.83 619.825 1274.53V1257.39H646.55V1318.13H599.983V1322.85H648.935C650.239 1322.85 651.274 1321.82 651.274 1320.51V1255.09C651.274 1253.7 650.194 1252.66 648.935 1252.66Z" fill="black" style="fill:black;fill-opacity:1;"/>
<path d="M652.669 918.374H619.015C617.71 918.374 616.675 919.408 616.675 920.713V938.17H599.983V942.894H619.015C620.32 942.894 621.355 941.859 621.355 940.555V923.098H650.329V963.77L628.778 1026.62C628.688 1026.85 628.643 1027.12 628.643 1027.39V1252.71H619.015C617.71 1252.71 616.675 1253.74 616.675 1255.05V1272.19H599.983V1276.91H619.015C620.32 1276.91 621.355 1275.88 621.355 1274.57V1257.43H630.983C632.288 1257.43 633.322 1256.4 633.322 1255.09V1027.79L654.873 964.94C654.963 964.715 655.008 964.445 655.008 964.175V920.758C655.053 919.408 653.974 918.374 652.669 918.374Z" fill="black" style="fill:black;fill-opacity:1;"/>
<path d="M630.983 1021.18C620.86 1021.31 610.467 1021.4 599.983 1021.45V1026.17C610.467 1026.13 620.905 1026.04 631.028 1025.9C632.333 1025.9 633.367 1024.82 633.367 1023.52C633.322 1022.21 632.288 1021.18 630.983 1021.18Z" fill="black" style="fill:black;fill-opacity:1;"/>
<path d="M652.669 964.58C635.437 964.805 617.755 964.94 599.983 964.94V969.664C617.755 969.619 635.482 969.529 652.714 969.304C654.019 969.304 655.053 968.224 655.053 966.92C655.008 965.615 653.974 964.625 652.669 964.58Z" fill="black" style="fill:black;fill-opacity:1;"/>
<path d="M634.447 923.053C633.142 923.053 632.108 922.018 632.108 920.713V903.436C632.108 902.491 632.693 901.637 633.547 901.277L730.235 861.009V803.464C730.235 802.16 731.27 801.125 732.574 801.125C733.879 801.125 734.914 802.16 734.914 803.464V862.584C734.914 863.528 734.329 864.383 733.474 864.743L636.787 905.011V920.758C636.787 922.018 635.752 923.053 634.447 923.053Z" fill="black" style="fill:black;fill-opacity:1;"/>
<path d="M955.689 940.51V923.053H979.94V966.56L961.178 1022.8C961.088 1023.02 961.043 1023.29 961.043 1023.56V1157.01C962.573 1156.16 964.147 1155.48 965.767 1154.81V1023.97L984.529 967.73C984.619 967.505 984.664 967.235 984.664 966.965V920.713C984.664 919.408 983.629 918.374 982.324 918.374H953.394C952.09 918.374 951.055 919.408 951.055 920.713V938.17H916.141V920.713C916.141 919.408 915.106 918.374 913.802 918.374H885.817C884.512 918.374 883.477 919.408 883.477 920.713V938.17H848.563V920.713C848.563 919.408 847.529 918.374 846.224 918.374H812.57C811.265 918.374 810.23 919.408 810.23 920.713V964.13C810.23 964.4 810.275 964.625 810.365 964.895L831.916 1027.75V1248.7C833.446 1248.66 835.021 1248.66 836.641 1248.66V1027.34C836.641 1027.07 836.596 1026.85 836.506 1026.58L814.954 963.725V923.053H843.929V940.51C843.929 941.814 844.964 942.849 846.269 942.849H885.862C887.166 942.849 888.201 941.814 888.201 940.51V923.053H911.462V940.51C911.462 941.814 912.497 942.849 913.802 942.849H953.439C954.654 942.894 955.689 941.814 955.689 940.51Z" fill="black" style="fill:black;fill-opacity:1;"/>
<path d="M963.428 1025.9H834.166C832.861 1025.9 831.826 1024.87 831.826 1023.56C831.826 1022.26 832.861 1021.22 834.166 1021.22H963.428C964.732 1021.22 965.767 1022.26 965.767 1023.56C965.767 1024.87 964.732 1025.9 963.428 1025.9Z" fill="black" style="fill:black;fill-opacity:1;"/>
<path d="M982.279 969.304H812.435C811.13 969.304 810.095 968.269 810.095 966.965C810.095 965.66 811.13 964.625 812.435 964.625H982.279C983.584 964.625 984.619 965.66 984.619 966.965C984.619 968.269 983.584 969.304 982.279 969.304Z" fill="black" style="fill:black;fill-opacity:1;"/>
<path d="M830.702 923.053C829.397 923.053 828.362 922.018 828.362 920.713V904.966L731.675 864.698C730.82 864.338 730.235 863.484 730.235 862.539V803.419C730.235 802.115 731.27 801.08 732.574 801.08C733.879 801.08 734.914 802.115 734.914 803.419V860.964L831.601 901.232C832.456 901.592 833.041 902.446 833.041 903.391V920.668C833.041 922.018 832.006 923.053 830.702 923.053Z" fill="black" style="fill:black;fill-opacity:1;"/>
<path d="M901.159 1087.23C899.854 1087.23 898.819 1086.19 898.819 1084.89V1063.83C898.819 1062.53 899.854 1061.49 901.159 1061.49C902.464 1061.49 903.498 1062.53 903.498 1063.83V1084.89C903.498 1086.19 902.464 1087.23 901.159 1087.23Z" fill="black" style="fill:black;fill-opacity:1;"/>
<path d="M901.159 1158C899.854 1158 898.819 1156.97 898.819 1155.66V1134.6C898.819 1133.3 899.854 1132.26 901.159 1132.26C902.464 1132.26 903.498 1133.3 903.498 1134.6V1155.66C903.498 1156.97 902.464 1158 901.159 1158Z" fill="black" style="fill:black;fill-opacity:1;"/>
<path d="M820.623 969.304H652.669C651.364 969.304 650.329 968.269 650.329 966.965C650.329 965.66 651.364 964.625 652.669 964.625H820.623C821.928 964.625 822.963 965.66 822.963 966.965C822.963 968.269 821.928 969.304 820.623 969.304Z" fill="black" style="fill:black;fill-opacity:1;"/>
<path d="M836.686 1025.9H623.469C622.164 1025.9 621.13 1024.87 621.13 1023.56C621.13 1022.26 622.164 1021.22 623.469 1021.22H836.686C837.99 1021.22 839.025 1022.26 839.025 1023.56C839.025 1024.87 837.99 1025.9 836.686 1025.9Z" fill="black" style="fill:black;fill-opacity:1;"/>
<path d="M766.858 1162.72H701.755C700.45 1162.72 699.415 1161.69 699.415 1160.38V1098.61C699.415 1086.1 709.584 1075.98 722.046 1075.98H746.567C759.075 1075.98 769.198 1086.15 769.198 1098.61V1160.38C769.198 1161.64 768.163 1162.72 766.858 1162.72ZM704.095 1158H764.474V1098.57C764.474 1088.67 756.42 1080.61 746.522 1080.61H722.001C712.103 1080.61 704.05 1088.67 704.05 1098.57V1158H704.095Z" fill="black" style="fill:black;fill-opacity:1;"/>
<path d="M737.029 1318.13H706.884V1258.69C706.884 1248.79 714.938 1240.74 724.836 1240.74H749.356C759.255 1240.74 767.308 1248.79 767.308 1258.69V1295.14C768.838 1294.15 770.413 1293.2 772.032 1292.26V1258.69C772.032 1246.18 761.864 1236.06 749.401 1236.06H724.881C712.373 1236.06 702.25 1246.23 702.25 1258.69V1320.47C702.25 1321.77 703.285 1322.81 704.589 1322.81H731.765C733.429 1321.23 735.229 1319.7 737.029 1318.13Z" fill="black" style="fill:black;fill-opacity:1;"/>
<path d="M1085.13 1071.21C1086.66 1070.31 1088.23 1069.64 1089.85 1069.19V996.749C1089.85 996.119 1089.58 995.49 1089.13 995.04C1088.68 994.59 1088.05 994.32 1087.43 994.41L1044.01 996.299C1042.75 996.344 1041.76 997.379 1041.76 998.639V1021.18H1009.68V998.639C1009.68 997.334 1008.64 996.299 1007.34 996.299H971.796C970.491 996.299 969.456 997.334 969.456 998.639C969.456 999.944 970.491 1000.98 971.796 1000.98H1005V1023.52C1005 1024.82 1006.03 1025.86 1007.34 1025.86H1044.14C1045.45 1025.86 1046.48 1024.82 1046.48 1023.52V1000.89L1085.18 999.224V1071.21H1085.13Z" fill="black" style="fill:black;fill-opacity:1;"/>
<path d="M1087.47 1060.95H963.428C962.123 1060.95 961.088 1059.92 961.088 1058.61C961.088 1057.31 962.123 1056.27 963.428 1056.27H1087.47C1088.77 1056.27 1089.81 1057.31 1089.81 1058.61C1089.81 1059.92 1088.77 1060.95 1087.47 1060.95Z" fill="black" style="fill:black;fill-opacity:1;"/>
<path d="M1006.26 1113.82C1004.96 1113.82 1003.92 1112.78 1003.92 1111.48V1090.42C1003.92 1089.12 1004.96 1088.08 1006.26 1088.08C1007.56 1088.08 1008.6 1089.12 1008.6 1090.42V1111.48C1008.6 1112.74 1007.56 1113.82 1006.26 1113.82Z" fill="black" style="fill:black;fill-opacity:1;"/>
<path d="M737.074 1318.13H623.469C622.164 1318.13 621.13 1319.16 621.13 1320.47C621.13 1321.77 622.164 1322.81 623.469 1322.81H731.765C733.474 1321.19 735.274 1319.66 737.074 1318.13Z" fill="black" style="fill:black;fill-opacity:1;"/>
<path d="M599.219 935.425H313.295C312.261 935.425 311.451 934.616 311.451 933.581C311.451 932.546 312.261 931.736 313.295 931.736H599.264C600.298 931.736 601.108 932.546 601.108 933.581C601.063 934.616 600.253 935.425 599.219 935.425Z" fill="black" style="fill:black;fill-opacity:1;"/>
<path d="M599.219 907.261H313.295C312.261 907.261 311.451 906.451 311.451 905.416C311.451 904.381 312.261 903.571 313.295 903.571H599.264C600.298 903.571 601.108 904.381 601.108 905.416C601.108 906.451 600.253 907.261 599.219 907.261Z" fill="black" style="fill:black;fill-opacity:1;"/>
<path d="M599.219 879.096H313.295C312.261 879.096 311.451 878.286 311.451 877.251C311.451 876.216 312.261 875.406 313.295 875.406H599.264C600.298 875.406 601.108 876.216 601.108 877.251C601.063 878.286 600.253 879.096 599.219 879.096Z" fill="black" style="fill:black;fill-opacity:1;"/>
<path d="M616.675 1398.89H603.268C602.233 1398.89 601.423 1399.7 601.423 1400.73C601.423 1401.77 602.233 1402.58 603.268 1402.58H614.201C614.966 1401.23 615.776 1400.01 616.675 1398.89Z" fill="black" style="fill:black;fill-opacity:1;"/>
<path d="M599.219 847.241H322.429C320.719 848.636 318.964 849.851 317.12 850.931H599.264C600.298 850.931 601.108 850.121 601.108 849.086C601.063 848.096 600.253 847.241 599.219 847.241Z" fill="black" style="fill:black;fill-opacity:1;"/>
<path d="M599.219 819.077H383.573C379.793 820.336 375.969 821.551 372.145 822.766H599.219C600.253 822.766 601.063 821.956 601.063 820.921C601.063 819.932 600.253 819.077 599.219 819.077Z" fill="black" style="fill:black;fill-opacity:1;"/>
<path d="M599.219 790.912H430.409C429.104 792.171 427.755 793.386 426.45 794.601H599.264C600.298 794.601 601.108 793.791 601.108 792.756C601.063 791.766 600.253 790.912 599.219 790.912Z" fill="black" style="fill:black;fill-opacity:1;"/>
<path d="M599.219 762.747H475.851C474.366 763.557 472.927 764.367 471.487 765.221C470.812 765.626 470.137 766.031 469.462 766.391H599.264C600.298 766.391 601.108 765.581 601.108 764.546C601.063 763.602 600.253 762.747 599.219 762.747Z" fill="black" style="fill:black;fill-opacity:1;"/>
<path d="M599.219 734.582H535.24C533.8 735.887 532.316 737.102 530.831 738.271H599.219C600.253 738.271 601.063 737.461 601.063 736.427C601.063 735.392 600.253 734.582 599.219 734.582Z" fill="black" style="fill:black;fill-opacity:1;"/>
<path d="M677.234 365.289C674.4 365.289 671.61 366.234 669.361 367.898C665.627 361.779 658.923 357.955 651.724 357.955C647.45 357.955 643.266 359.305 639.801 361.779C634.312 355.526 626.484 351.971 618.115 351.971C612.131 351.971 606.552 353.816 601.963 356.92V361.509C606.327 357.82 611.996 355.616 618.115 355.616C625.944 355.616 633.232 359.215 638.047 365.424C638.361 365.829 638.811 366.054 639.306 366.144C639.801 366.189 640.296 366.054 640.701 365.694C643.76 363.084 647.675 361.599 651.724 361.599C658.338 361.599 664.412 365.514 667.201 371.543C667.471 372.083 667.966 372.487 668.596 372.577C669.181 372.667 669.811 372.487 670.216 372.038C672.06 370.058 674.58 368.978 677.279 368.978C682.633 368.978 686.953 373.342 686.953 378.651C686.953 384.005 682.588 388.325 677.279 388.325C674.58 388.325 672.06 387.245 670.216 385.265C669.811 384.815 669.181 384.59 668.596 384.725C668.011 384.815 667.471 385.22 667.201 385.76C664.412 391.789 658.383 395.703 651.724 395.703C648.44 395.703 645.245 394.758 642.456 392.959C642.051 392.689 641.511 392.599 641.016 392.734C640.521 392.869 640.116 393.139 639.846 393.589C635.347 401.327 626.979 406.141 618.07 406.141C611.906 406.141 606.282 403.937 601.918 400.247V404.837C606.552 407.986 612.086 409.786 618.07 409.786C627.653 409.786 636.697 404.927 642.051 397.008C645.02 398.583 648.305 399.393 651.679 399.393C658.923 399.393 665.582 395.568 669.316 389.449C671.61 391.114 674.355 392.059 677.189 392.059C684.568 392.059 690.552 386.075 690.552 378.696C690.597 371.273 684.613 365.289 677.234 365.289Z" fill="black" style="fill:black;fill-opacity:1;"/>
<path d="M524.667 228.874C527.502 228.874 530.291 227.929 532.541 226.264C536.275 232.383 542.979 236.207 550.177 236.207C554.452 236.207 558.636 234.857 562.1 232.383C567.589 238.637 575.418 242.191 583.786 242.191C589.77 242.191 595.349 240.346 599.938 237.242V232.653C595.574 236.342 589.905 238.547 583.786 238.547C575.958 238.547 568.669 234.947 563.855 228.739C563.54 228.334 563.09 228.109 562.595 228.019C562.1 227.974 561.605 228.109 561.2 228.469C558.141 231.078 554.227 232.563 550.177 232.563C543.564 232.563 537.49 228.649 534.7 222.62C534.43 222.08 533.935 221.675 533.306 221.585C532.721 221.495 532.091 221.675 531.686 222.125C529.841 224.104 527.322 225.184 524.622 225.184C519.268 225.184 514.949 220.82 514.949 215.511C514.949 210.157 519.313 205.838 524.622 205.838C527.322 205.838 529.841 206.917 531.686 208.897C532.091 209.347 532.721 209.572 533.306 209.437C533.89 209.347 534.43 208.942 534.7 208.402C537.49 202.373 543.519 198.459 550.177 198.459C553.462 198.459 556.656 199.404 559.446 201.204C559.851 201.473 560.391 201.563 560.886 201.428C561.38 201.294 561.785 201.024 562.055 200.574C566.555 192.835 574.923 188.021 583.831 188.021C589.995 188.021 595.619 190.226 599.983 193.915V189.416C595.349 186.266 589.815 184.467 583.831 184.467C574.248 184.467 565.205 189.326 559.851 197.244C556.881 195.67 553.597 194.86 550.222 194.86C542.979 194.86 536.32 198.684 532.586 204.803C530.291 203.138 527.547 202.193 524.712 202.193C517.333 202.193 511.35 208.177 511.35 215.556C511.305 222.89 517.333 228.874 524.667 228.874Z" fill="black" style="fill:black;fill-opacity:1;"/>
<path d="M459.879 437.591C459.789 437.591 459.699 437.591 459.609 437.546C458.799 437.411 458.169 436.781 458.079 435.971C457.629 432.327 456.234 429.987 453.85 428.727C447.461 425.308 436.033 430.932 435.943 430.977C435.043 431.427 433.918 431.067 433.469 430.167C433.019 429.267 433.379 428.143 434.278 427.693C434.818 427.423 447.461 421.214 455.56 425.488C457.899 426.703 459.564 428.682 460.644 431.292C462.488 429.042 465.458 426.298 469.777 424.993C475.806 423.148 482.69 424.588 490.203 429.222C491.058 429.762 491.328 430.887 490.788 431.742C490.248 432.597 489.123 432.867 488.269 432.327C481.7 428.278 475.851 426.973 470.857 428.458C464.423 430.392 461.543 436.421 461.543 436.466C461.274 437.186 460.599 437.591 459.879 437.591Z" fill="black" style="fill:black;fill-opacity:1;"/>
<path d="M680.609 267.297C680.564 267.297 680.474 267.297 680.429 267.297C679.889 267.207 679.484 266.802 679.439 266.262C679.124 263.922 678.224 262.347 676.695 261.538C672.555 259.333 665.132 262.977 665.042 262.977C664.457 263.292 663.737 263.022 663.422 262.437C663.107 261.853 663.377 261.133 663.962 260.818C664.322 260.638 672.555 256.588 677.774 259.378C679.304 260.188 680.384 261.448 681.059 263.157C682.274 261.673 684.208 259.918 686.998 259.063C690.912 257.893 695.366 258.793 700.27 261.808C700.81 262.167 700.99 262.887 700.675 263.427C700.315 263.967 699.595 264.147 699.056 263.832C694.781 261.223 691.002 260.368 687.763 261.313C683.578 262.572 681.734 266.487 681.689 266.532C681.464 267.027 681.059 267.297 680.609 267.297Z" fill="black" style="fill:black;fill-opacity:1;"/>
<path d="M515.264 326.956C515.219 326.956 515.129 326.956 515.084 326.956C514.544 326.866 514.139 326.461 514.094 325.921C513.779 323.581 512.879 322.007 511.35 321.197C507.21 318.992 499.787 322.637 499.697 322.637C499.112 322.952 498.392 322.682 498.077 322.097C497.762 321.512 498.032 320.792 498.617 320.477C498.977 320.297 507.21 316.248 512.429 319.037C513.959 319.847 515.039 321.107 515.714 322.817C516.928 321.332 518.863 319.577 521.653 318.722C525.567 317.552 530.021 318.452 534.925 321.467C535.465 321.827 535.645 322.547 535.33 323.086C534.97 323.626 534.25 323.806 533.71 323.491C529.436 320.882 525.657 320.027 522.418 320.972C518.233 322.232 516.389 326.146 516.344 326.191C516.164 326.686 515.759 326.956 515.264 326.956Z" fill="black" style="fill:black;fill-opacity:1;"/>
<path d="M972.696 652.652H605.607V656.341H974.631C973.866 655.126 973.236 653.867 972.696 652.652Z" fill="black" style="fill:black;fill-opacity:1;"/>
<path d="M667.201 1924.8H600.748V1928.49H664.457C665.357 1927.27 666.256 1926.06 667.201 1924.8Z" fill="black" style="fill:black;fill-opacity:1;"/>
<path d="M683.398 1896.63H600.703V1900.32H680.294C681.329 1899.06 682.363 1897.85 683.398 1896.63Z" fill="black" style="fill:black;fill-opacity:1;"/>
<path d="M704.589 1868.47H600.703V1872.16H702.52C703.24 1870.94 703.96 1869.73 704.589 1868.47Z" fill="black" style="fill:black;fill-opacity:1;"/>
<path d="M718.897 1840.3H600.703V1843.99H716.647C717.367 1842.73 718.177 1841.52 718.897 1840.3Z" fill="black" style="fill:black;fill-opacity:1;"/>
<path d="M667.201 1924.8H600.748V1928.49H664.457C665.357 1927.27 666.256 1926.06 667.201 1924.8Z" fill="black" style="fill:black;fill-opacity:1;"/>
<path d="M622.524 1981.17H600.748V1984.86H620.005C620.815 1983.6 621.669 1982.39 622.524 1981.17Z" fill="black" style="fill:black;fill-opacity:1;"/>
<path d="M644.75 1952.96H600.703V1956.65H641.646C642.726 1955.44 643.76 1954.22 644.75 1952.96Z" fill="black" style="fill:black;fill-opacity:1;"/>
<path d="M667.201 1924.8H600.748V1928.49H664.457C665.357 1927.27 666.256 1926.06 667.201 1924.8Z" fill="black" style="fill:black;fill-opacity:1;"/>
<path d="M494.208 1860.68V1822.35H488.359V1853.08C490.653 1855.19 492.633 1857.76 494.208 1860.68Z" fill="black" style="fill:black;fill-opacity:1;"/>
<path d="M539.199 1923.22V1822.3H533.351V1918.14C535.555 1919.35 537.58 1921.02 539.199 1923.22Z" fill="black" style="fill:black;fill-opacity:1;"/>
<path d="M578.747 1987.33C580.592 1989.36 582.437 1991.47 584.191 1993.68V1822.35H578.342V1986.93C578.477 1987.06 578.657 1987.15 578.747 1987.33Z" fill="black" style="fill:black;fill-opacity:1;"/>
<path d="M586.036 1995.88V1822.35H582.347V1991.38C583.606 1992.82 584.821 1994.31 586.036 1995.88Z" fill="black" style="fill:black;fill-opacity:1;"/>
<path d="M1041.76 1257.3C1038.92 1257.3 1036.13 1258.24 1033.88 1259.91C1032 1256.85 1029.39 1254.37 1026.33 1252.66C1025.43 1253.61 1024.48 1254.51 1023.45 1255.32C1027 1256.98 1029.97 1259.91 1031.68 1263.6C1031.95 1264.14 1032.44 1264.54 1033.07 1264.63C1033.66 1264.72 1034.29 1264.54 1034.69 1264.09C1036.54 1262.11 1039.06 1261.03 1041.76 1261.03C1047.11 1261.03 1051.43 1265.4 1051.43 1270.7C1051.43 1276.06 1047.07 1280.38 1041.76 1280.38C1039.06 1280.38 1036.54 1279.3 1034.69 1277.32C1034.29 1276.87 1033.66 1276.64 1033.07 1276.78C1032.49 1276.87 1031.95 1277.27 1031.68 1277.81C1028.89 1283.84 1022.86 1287.76 1016.2 1287.76C1012.15 1287.76 1008.24 1286.32 1005.18 1283.66C1004.82 1283.35 1004.33 1283.21 1003.79 1283.21C1003.29 1283.26 1002.84 1283.53 1002.53 1283.93C997.711 1290.19 990.423 1293.74 982.594 1293.74C976.43 1293.74 970.806 1291.54 966.442 1287.85V1292.44C971.076 1295.59 976.61 1297.38 982.594 1297.38C990.962 1297.38 998.746 1293.83 1004.28 1287.58C1007.74 1290.05 1011.93 1291.4 1016.2 1291.4C1023.45 1291.4 1030.11 1287.58 1033.84 1281.46C1036.13 1283.12 1038.88 1284.07 1041.71 1284.07C1049.09 1284.07 1055.08 1278.08 1055.08 1270.7C1055.12 1263.28 1049.14 1257.3 1041.76 1257.3Z" fill="black" style="fill:black;fill-opacity:1;"/>
<path d="M942.281 1517.17C938.007 1515.01 934.318 1511.68 931.843 1507.41C931.573 1506.96 931.168 1506.64 930.674 1506.55C930.179 1506.42 929.684 1506.51 929.234 1506.78C926.489 1508.58 923.25 1509.52 919.965 1509.52C913.352 1509.52 907.278 1505.61 904.488 1499.58C904.218 1499.04 903.723 1498.63 903.093 1498.54C902.509 1498.45 901.879 1498.63 901.474 1499.08C899.629 1501.06 897.11 1502.14 894.41 1502.14C889.056 1502.14 884.737 1497.78 884.737 1492.47C884.737 1487.12 889.101 1482.8 894.41 1482.8C897.11 1482.8 899.629 1483.88 901.474 1485.86C901.879 1486.31 902.509 1486.53 903.093 1486.4C903.678 1486.31 904.218 1485.9 904.488 1485.36C907.278 1479.33 913.307 1475.42 919.965 1475.42C924.015 1475.42 927.929 1476.86 930.988 1479.51C931.348 1479.83 931.843 1479.96 932.383 1479.96C932.878 1479.92 933.328 1479.65 933.643 1479.24C938.457 1472.99 945.746 1469.43 953.574 1469.43C959.738 1469.43 965.362 1471.64 969.726 1475.33V1470.74C965.092 1467.59 959.558 1465.79 953.574 1465.79C945.206 1465.79 937.422 1469.34 931.888 1475.6C928.424 1473.12 924.24 1471.77 919.965 1471.77C912.722 1471.77 906.063 1475.6 902.329 1481.72C900.034 1480.05 897.29 1479.11 894.455 1479.11C887.076 1479.11 881.092 1485.09 881.092 1492.47C881.092 1499.85 887.076 1505.83 894.455 1505.83C897.29 1505.83 900.079 1504.89 902.329 1503.22C906.063 1509.34 912.767 1513.17 919.965 1513.17C923.34 1513.17 926.624 1512.36 929.594 1510.78C932.338 1514.83 936.028 1518.07 940.302 1520.27C940.887 1519.24 941.517 1518.2 942.281 1517.17Z" fill="black" style="fill:black;fill-opacity:1;"/>
<path d="M152.899 1259.64C150.065 1259.64 147.276 1260.58 145.026 1262.25C141.292 1256.13 134.588 1252.3 127.389 1252.3C124.015 1252.3 120.73 1253.11 117.761 1254.69C112.407 1246.77 103.408 1241.91 93.7802 1241.91C87.7963 1241.91 82.2173 1243.75 77.6281 1246.86V1251.45C81.9924 1247.76 87.6613 1245.55 93.7802 1245.55C102.689 1245.55 111.012 1250.37 115.556 1258.11C115.826 1258.56 116.231 1258.87 116.726 1258.96C117.221 1259.1 117.716 1259.01 118.166 1258.74C120.91 1256.94 124.15 1255.99 127.434 1255.99C134.048 1255.99 140.122 1259.91 142.911 1265.94C143.181 1266.48 143.676 1266.88 144.306 1266.97C144.891 1267.06 145.521 1266.88 145.926 1266.43C147.77 1264.45 150.29 1263.37 152.989 1263.37C158.343 1263.37 162.663 1267.74 162.663 1273.04C162.663 1278.4 158.299 1282.72 152.989 1282.72C150.29 1282.72 147.77 1281.64 145.926 1279.66C145.521 1279.21 144.891 1278.98 144.306 1279.12C143.721 1279.21 143.181 1279.61 142.911 1280.15C140.122 1286.18 134.093 1290.1 127.434 1290.1C123.385 1290.1 119.471 1288.66 116.411 1286C116.051 1285.69 115.556 1285.55 115.016 1285.55C114.521 1285.6 114.072 1285.87 113.757 1286.27C112.092 1288.43 110.112 1290.23 107.908 1291.72C108.718 1292.62 109.437 1293.56 110.157 1294.64C112.092 1293.29 113.892 1291.76 115.466 1289.92C118.931 1292.39 123.115 1293.74 127.389 1293.74C134.633 1293.74 141.292 1289.92 145.026 1283.8C147.321 1285.46 150.065 1286.41 152.899 1286.41C160.278 1286.41 166.262 1280.42 166.262 1273.04C166.262 1265.62 160.278 1259.64 152.899 1259.64Z" fill="black" style="fill:black;fill-opacity:1;"/>
<path d="M516.883 1483.07C512.969 1485.59 508.38 1487.07 503.386 1487.07C494.478 1487.07 486.154 1482.26 481.61 1474.52C481.34 1474.07 480.935 1473.75 480.44 1473.66C479.945 1473.53 479.45 1473.62 479 1473.89C476.256 1475.69 473.016 1476.63 469.732 1476.63C463.118 1476.63 457.044 1472.72 454.255 1466.69C453.985 1466.15 453.49 1465.74 452.86 1465.65C452.275 1465.56 451.645 1465.74 451.24 1466.19C449.396 1468.17 446.876 1469.25 444.177 1469.25C438.823 1469.25 434.503 1464.89 434.503 1459.58C434.503 1454.23 438.868 1449.91 444.177 1449.91C446.876 1449.91 449.396 1450.99 451.24 1452.97C451.645 1453.42 452.275 1453.64 452.86 1453.51C453.445 1453.42 453.985 1453.01 454.255 1452.47C455.65 1449.41 457.944 1446.89 460.689 1445.14C459.564 1444.46 458.484 1443.7 457.539 1442.84C455.38 1444.42 453.49 1446.44 452.05 1448.78C449.756 1447.12 447.011 1446.17 444.177 1446.17C436.798 1446.17 430.814 1452.16 430.814 1459.54C430.814 1466.91 436.798 1472.9 444.177 1472.9C447.011 1472.9 449.801 1471.95 452.05 1470.29C455.785 1476.41 462.443 1480.23 469.687 1480.23C473.061 1480.23 476.346 1479.42 479.315 1477.85C484.669 1485.77 493.668 1490.62 503.296 1490.62C509.28 1490.62 514.859 1488.78 519.448 1485.68C518.593 1484.96 517.693 1484.01 516.883 1483.07Z" fill="black" style="fill:black;fill-opacity:1;"/>
<path d="M803.931 1467.27C803.841 1467.27 803.752 1467.27 803.662 1467.23C802.852 1467.09 802.222 1466.46 802.132 1465.65C801.682 1462.01 800.287 1459.67 797.903 1458.41C791.514 1454.99 780.086 1460.62 779.996 1460.66C779.096 1461.11 777.971 1460.75 777.521 1459.85C777.071 1458.95 777.431 1457.83 778.331 1457.38C778.871 1457.11 791.514 1450.9 799.612 1455.17C801.952 1456.39 803.617 1458.37 804.696 1460.98C806.541 1458.73 809.51 1455.98 813.83 1454.68C819.859 1452.83 826.742 1454.27 834.256 1458.91C835.111 1459.45 835.381 1460.57 834.841 1461.43C834.301 1462.28 833.176 1462.55 832.321 1462.01C825.753 1457.96 819.904 1456.66 814.909 1458.14C808.476 1460.08 805.596 1466.1 805.596 1466.19C805.281 1466.87 804.606 1467.27 803.931 1467.27Z" fill="black" style="fill:black;fill-opacity:1;"/>
<path d="M949.435 1388.09C949.345 1388.09 949.255 1388.09 949.165 1388.04C948.355 1387.91 947.725 1387.28 947.635 1386.47C947.186 1382.82 945.791 1380.48 943.406 1379.22C937.017 1375.81 925.589 1381.43 925.5 1381.47C924.6 1381.92 923.475 1381.56 923.025 1380.66C922.575 1379.76 922.935 1378.64 923.835 1378.19C924.375 1377.92 937.017 1371.71 945.116 1375.99C947.456 1377.2 949.12 1379.18 950.2 1381.79C952.045 1379.54 955.014 1376.8 959.333 1375.49C965.362 1373.65 972.246 1375.09 979.76 1379.72C980.615 1380.26 980.884 1381.38 980.345 1382.24C979.805 1383.09 978.68 1383.36 977.825 1382.82C971.256 1378.77 965.407 1377.47 960.413 1378.95C953.979 1380.89 951.1 1386.92 951.1 1387.01C950.785 1387.68 950.155 1388.09 949.435 1388.09Z" fill="black" style="fill:black;fill-opacity:1;"/>
<path d="M213.414 1363.66C213.324 1363.66 213.234 1363.66 213.144 1363.61C212.334 1363.48 211.704 1362.85 211.614 1362.04C211.164 1358.39 209.769 1356.05 207.385 1354.79C200.996 1351.38 189.568 1357 189.478 1357.04C188.578 1357.49 187.453 1357.13 187.003 1356.23C186.553 1355.33 186.913 1354.21 187.813 1353.76C188.353 1353.49 200.996 1347.28 209.094 1351.56C211.434 1352.77 213.099 1354.75 214.178 1357.36C216.023 1355.11 218.992 1352.37 223.312 1351.06C229.341 1349.22 236.224 1350.66 243.738 1355.29C244.593 1355.83 244.863 1356.95 244.323 1357.81C243.783 1358.66 242.658 1358.93 241.803 1358.39C235.235 1354.34 229.386 1353.04 224.392 1354.52C217.958 1356.46 215.078 1362.49 215.078 1362.53C214.763 1363.21 214.088 1363.66 213.414 1363.66Z" fill="black" style="fill:black;fill-opacity:1;"/>
<path d="M710.573 1685.89C710.169 1685.89 709.899 1685.89 709.809 1685.89C708.549 1685.89 707.559 1684.85 707.604 1683.59C707.649 1682.34 708.549 1681.39 709.899 1681.39C710.348 1681.39 753.316 1681.8 777.701 1664.52C788.454 1656.91 795.023 1630.1 793.673 1599.37C792.369 1569.72 783.145 1533.5 761.189 1520.72C721.821 1497.78 696.266 1523.78 696.041 1524.05C695.861 1524.23 695.681 1524.37 695.456 1524.5C674.94 1535.44 672.195 1563.2 670.351 1581.6C669.721 1587.72 669.271 1592.58 668.236 1595.77C664.412 1607.65 664.187 1626.82 667.606 1647.02C671.116 1667.62 660.812 1670.82 654.019 1672.89C653.254 1673.11 652.489 1673.34 651.769 1673.61C650.644 1674.01 649.969 1674.6 649.565 1675.5C648.53 1677.84 649.654 1681.53 650.194 1682.78C650.689 1683.91 650.149 1685.26 649.025 1685.75C647.9 1686.25 646.55 1685.71 646.055 1684.58C645.785 1683.95 643.446 1678.24 645.47 1673.74C646.37 1671.67 648.08 1670.19 650.329 1669.38C651.094 1669.11 651.904 1668.88 652.714 1668.61C659.553 1666.5 666.032 1664.52 663.197 1647.78C659.598 1626.59 659.868 1607.11 663.962 1594.38C664.817 1591.68 665.312 1586.77 665.896 1581.15C667.831 1561.89 670.756 1532.83 693.072 1520.68C696.086 1517.75 723.306 1493.5 763.484 1516.86C786.97 1530.53 796.823 1568.37 798.173 1599.19C799.387 1626.41 794.303 1658.31 780.311 1668.21C756.195 1685.17 716.782 1685.89 710.573 1685.89Z" fill="black" style="fill:black;fill-opacity:1;"/>
<path d="M694.736 1633.07C691.722 1633.07 688.392 1632.44 685.333 1630.59C679.529 1627 676.29 1619.84 675.75 1609.31C675.705 1608.05 676.65 1607.02 677.864 1606.97C679.214 1606.88 680.159 1607.87 680.204 1609.09C680.654 1618.04 683.173 1623.98 687.628 1626.73C692.217 1629.56 698.066 1628.48 701.035 1627.58C698.426 1620.47 693.701 1611.56 689.877 1610.8C686.368 1610.08 683.488 1607.29 682.004 1603.1C679.079 1595.19 681.554 1585.06 688.572 1576.02C699.505 1561.94 694.106 1539.58 694.016 1539.35C693.701 1538.14 694.466 1536.92 695.636 1536.61C696.806 1536.29 698.066 1537.06 698.381 1538.23C698.651 1539.22 704.365 1562.93 692.127 1578.72C684.973 1587.94 684.388 1596.54 686.233 1601.48C687.223 1604.14 688.887 1605.89 690.822 1606.3C699.101 1608.01 704.994 1624.84 706.074 1628.16C706.434 1629.24 705.894 1630.46 704.859 1630.91C704.544 1631.18 700.135 1633.07 694.736 1633.07Z" fill="black" style="fill:black;fill-opacity:1;"/>
<path d="M723.261 1632.98C714.623 1632.98 707.244 1630.01 706.794 1629.83C706.119 1629.56 705.624 1628.97 705.444 1628.3C701.17 1611.25 709.134 1605.71 715.522 1601.26C721.146 1597.39 724.836 1594.78 721.596 1585.56C713.273 1561.89 731.27 1535.26 732.034 1534.13C732.754 1533.1 734.149 1532.83 735.139 1533.55C736.174 1534.27 736.444 1535.66 735.724 1536.65C735.544 1536.92 718.267 1562.57 725.781 1584.03C730.145 1596.49 723.711 1600.94 718.042 1604.9C712.148 1609 706.569 1612.87 709.494 1626.01C712.913 1627.18 724.116 1630.46 732.979 1626.59C737.658 1624.57 741.078 1620.83 743.147 1615.48C743.597 1614.31 744.902 1613.77 746.072 1614.17C747.242 1614.62 747.827 1615.93 747.377 1617.1C744.857 1623.62 740.628 1628.26 734.779 1630.73C731.045 1632.39 727.04 1632.98 723.261 1632.98Z" fill="black" style="fill:black;fill-opacity:1;"/>
<path d="M716.827 1661.23C715.882 1661.23 714.938 1661.23 713.903 1661.19C701.755 1660.87 692.622 1657.32 686.863 1650.66C679.214 1641.84 680.339 1630.91 680.384 1630.46C680.474 1629.65 680.969 1628.97 681.734 1628.66C682.453 1628.34 683.308 1628.43 683.983 1628.93C685.018 1629.69 710.033 1647.74 743.957 1622.54C744.947 1621.82 746.387 1622 747.107 1622.99C747.872 1623.98 747.647 1625.42 746.657 1626.14C717.547 1647.69 693.746 1639.23 684.928 1634.69C685.243 1638.11 686.413 1643.33 690.282 1647.74C695.186 1653.36 703.195 1656.37 714.038 1656.64C734.374 1657.23 737.568 1652.19 741.978 1645.26C744.857 1640.76 748.097 1635.68 755.88 1631.04C775.362 1619.48 780.671 1606.43 779.456 1572.87C779.411 1571.61 780.401 1570.58 781.615 1570.53C782.785 1570.4 783.91 1571.47 783.955 1572.69C785.215 1607.87 779.186 1622.45 758.175 1634.91C751.291 1639.01 748.456 1643.42 745.757 1647.69C741.168 1654.93 737.164 1661.23 716.827 1661.23Z" fill="black" style="fill:black;fill-opacity:1;"/>
<path d="M687.133 1563.65C684.388 1563.65 681.059 1563.06 677.144 1561.44C676.56 1561.22 676.155 1560.77 675.93 1560.18C675.705 1559.6 675.705 1558.97 675.975 1558.43C676.335 1557.57 679.934 1550.1 686.188 1549.61C690.147 1549.25 693.971 1551.86 697.571 1557.21C698.156 1558.07 698.066 1559.19 697.346 1559.96C697.166 1560.18 693.881 1563.65 687.133 1563.65ZM681.284 1558.16C687.043 1560 690.687 1558.92 692.577 1557.93C690.912 1555.82 688.887 1553.84 686.593 1554.06C684.433 1554.24 682.498 1556.36 681.284 1558.16Z" fill="black" style="fill:black;fill-opacity:1;"/>
<path d="M741.123 1563.65C734.419 1563.65 731.135 1560.14 730.91 1559.96C730.235 1559.19 730.145 1558.07 730.685 1557.21C734.239 1551.86 738.108 1549.25 742.068 1549.61C748.367 1550.1 751.921 1557.62 752.281 1558.43C752.551 1558.97 752.551 1559.6 752.326 1560.18C752.101 1560.77 751.651 1561.22 751.111 1561.44C747.197 1563.06 743.867 1563.65 741.123 1563.65ZM735.724 1557.93C737.569 1558.92 741.213 1560 747.017 1558.16C745.802 1556.31 743.867 1554.24 741.753 1554.06C739.458 1553.88 737.389 1555.82 735.724 1557.93Z" fill="black" style="fill:black;fill-opacity:1;"/>
<path d="M599.219 1701.01C600.883 1699.3 602.683 1697.63 604.573 1695.97C628.418 1675.72 691.992 1690.57 743.058 1702.49C755.61 1705.42 767.488 1708.21 778.151 1710.32C779.321 1710.55 780.536 1709.78 780.806 1708.57C781.031 1707.35 780.266 1706.18 779.051 1705.91C768.433 1703.8 756.6 1701.01 744.092 1698.08C689.337 1685.3 627.248 1670.82 601.648 1692.5C600.793 1693.22 599.983 1693.99 599.174 1694.71V1701.01H599.219Z" fill="black" style="fill:black;fill-opacity:1;"/>
<path d="M772.077 1763.1C748.187 1763.01 720.562 1755.31 699.55 1744.6C695.141 1742.35 691.092 1740.24 687.313 1738.31C649.34 1718.73 639.126 1713.42 600.928 1720.31C600.118 1720.44 599.534 1721.03 599.264 1721.7V1724.09C599.489 1725.89 599.713 1729.58 599.264 1733.63V1747.03C604.573 1739.65 604.258 1728.95 603.808 1724.31C638.766 1718.28 648.125 1723.1 685.243 1742.26C689.022 1744.2 693.117 1746.31 697.526 1748.56C718.762 1759.41 746.657 1767.19 771.177 1767.46C771.357 1765.98 771.672 1764.54 772.077 1763.1Z" fill="black" style="fill:black;fill-opacity:1;"/>
<path d="M840.06 1663.62C849.193 1635.27 859.676 1612.73 859.856 1612.33C860.396 1611.2 859.901 1609.85 858.777 1609.31C857.652 1608.77 856.302 1609.27 855.762 1610.39C855.537 1610.84 842.535 1638.78 832.771 1671.85C834.751 1668.12 837.225 1665.37 840.06 1663.62Z" fill="black" style="fill:black;fill-opacity:1;"/>
<path d="M785.125 1711.36C784.135 1711.36 783.235 1710.68 782.965 1709.69C782.65 1708.48 783.37 1707.26 784.54 1706.95C784.63 1706.9 794.933 1704.02 798.802 1695.79C801.142 1690.84 800.782 1684.81 797.633 1677.84C790.434 1661.86 801.862 1653.18 810.995 1646.25C817.519 1641.3 823.188 1636.98 821.793 1631.27C817.519 1613.27 826.652 1604.86 843.164 1591.59C845.414 1589.79 846.404 1587.76 846.224 1585.42C845.504 1575.79 826.562 1562.79 819.364 1558.61C818.284 1557.98 817.924 1556.63 818.554 1555.55C819.184 1554.47 820.578 1554.11 821.613 1554.74C824.493 1556.4 849.688 1571.39 850.723 1585.11C851.038 1589.02 849.418 1592.4 845.999 1595.14C828.812 1608.91 822.648 1615.52 826.157 1630.28C828.182 1638.87 820.803 1644.45 813.695 1649.9C804.606 1656.82 796.013 1663.35 801.727 1676.08C805.416 1684.27 805.776 1691.6 802.852 1697.81C798.038 1707.94 786.205 1711.22 785.665 1711.36C785.53 1711.31 785.305 1711.36 785.125 1711.36Z" fill="black" style="fill:black;fill-opacity:1;"/>
<path d="M794.438 1585.33C793.313 1585.33 792.369 1584.52 792.234 1583.4C792.054 1582.18 792.908 1581.01 794.123 1580.88C803.167 1579.62 813.92 1568.37 818.644 1555.32C821.028 1548.66 823.818 1536.16 815.314 1526.8C799.432 1509.3 769.153 1524.55 768.838 1524.73C767.758 1525.31 766.363 1524.86 765.823 1523.74C765.238 1522.61 765.688 1521.26 766.813 1520.72C768.163 1520 800.467 1503.76 818.689 1523.78C826.022 1531.88 827.597 1543.94 822.918 1556.85C817.609 1571.57 805.506 1583.85 794.798 1585.33C794.618 1585.33 794.528 1585.33 794.438 1585.33Z" fill="black" style="fill:black;fill-opacity:1;"/>
<path d="M668.416 1580.2C667.696 1580.2 666.976 1579.84 666.526 1579.21C665.761 1578.09 648.26 1551.23 662.117 1531.7C675.975 1512.13 697.526 1517.8 697.751 1517.89C698.965 1518.2 699.64 1519.46 699.325 1520.63C699.01 1521.85 697.796 1522.52 696.581 1522.21C695.816 1521.98 677.819 1517.35 665.807 1534.31C653.749 1551.36 670.126 1576.51 670.306 1576.74C670.981 1577.77 670.711 1579.17 669.676 1579.84C669.271 1580.07 668.866 1580.2 668.416 1580.2Z" fill="black" style="fill:black;fill-opacity:1;"/>
<path d="M790.884 1566.98C790.119 1566.98 789.354 1566.57 788.949 1565.85C788.319 1564.77 788.679 1563.42 789.759 1562.79C794.528 1560 806.586 1551.14 804.876 1543.36C804.561 1542.01 803.841 1541.06 802.627 1540.34C797.408 1537.28 785.62 1539.8 781.481 1541.02C780.311 1541.38 779.051 1540.7 778.691 1539.49C778.331 1538.32 779.006 1537.06 780.221 1536.7C781.93 1536.2 797.093 1531.84 804.921 1536.43C807.261 1537.78 808.701 1539.8 809.286 1542.37C812.075 1554.96 792.864 1566.21 792.054 1566.66C791.649 1566.89 791.244 1566.98 790.884 1566.98Z" fill="black" style="fill:black;fill-opacity:1;"/>
<path d="M886.851 1595.46C856.887 1578.72 829.667 1559.87 829.217 1559.55C828.182 1558.83 826.787 1559.1 826.067 1560.14C825.348 1561.17 825.618 1562.57 826.652 1563.29C828.452 1564.55 854.862 1582.81 884.242 1599.24C885.007 1597.89 885.907 1596.63 886.851 1595.46Z" fill="black" style="fill:black;fill-opacity:1;"/>
<path d="M664.817 1727.19C663.692 1727.15 662.477 1728 662.387 1729.26C661.352 1742.49 658.023 1750.86 652.759 1753.42C647.495 1755.99 641.511 1752.03 641.466 1751.98C640.656 1751.44 639.531 1751.49 638.811 1752.12C628.508 1760.49 622.749 1755 622.569 1754.77C621.894 1754.05 620.86 1753.87 619.96 1754.28C614.516 1756.84 610.287 1757.2 607.407 1755.36C601.918 1751.8 602.098 1741.27 602.098 1741.14C602.143 1739.88 601.153 1738.84 599.893 1738.84C599.668 1738.84 599.444 1738.89 599.264 1738.98V1751.35C600.343 1754.32 602.098 1757.25 604.933 1759.14C608.982 1761.75 614.246 1761.7 620.635 1758.96C622.074 1759.95 624.684 1761.25 628.238 1761.25C631.523 1761.25 635.662 1760.13 640.431 1756.62C643.086 1758.01 648.935 1760.31 654.739 1757.56C661.667 1754.23 665.762 1744.87 666.931 1729.71C666.976 1728.36 666.076 1727.28 664.817 1727.19Z" fill="black" style="fill:black;fill-opacity:1;"/>
<path d="M773.427 1759.14L599.219 1757.52V1762.02L771.897 1763.64C772.302 1762.06 772.842 1760.58 773.427 1759.14Z" fill="black" style="fill:black;fill-opacity:1;"/>
<path d="M982.054 677.667C980.165 678.882 978.41 680.142 976.7 681.446C971.211 685.541 966.082 689.41 955.599 689.41C945.116 689.41 939.942 685.541 934.453 681.446C928.649 677.082 922.62 672.583 910.652 672.583C898.639 672.583 892.655 677.082 886.806 681.446C881.317 685.541 876.188 689.41 865.66 689.41C855.132 689.41 850.003 685.541 844.514 681.446C838.71 677.082 832.681 672.583 820.713 672.583C808.701 672.583 802.717 677.082 796.868 681.446C791.379 685.541 786.205 689.41 775.722 689.41C765.238 689.41 760.064 685.541 754.575 681.446C748.771 677.082 742.743 672.583 730.775 672.583C718.807 672.583 712.778 677.082 706.974 681.446C701.485 685.541 696.356 689.41 685.828 689.41C675.3 689.41 670.171 685.541 664.682 681.446C658.878 677.082 652.849 672.583 640.881 672.583C628.913 672.583 622.884 677.082 617.08 681.446C611.591 685.541 606.417 689.41 595.934 689.41C585.451 689.41 580.277 685.541 574.833 681.446C569.029 677.082 563 672.583 550.987 672.583C539.019 672.583 532.991 677.082 527.187 681.446C521.698 685.541 516.569 689.41 506.085 689.41C495.602 689.41 490.428 685.541 484.984 681.446C479.18 677.082 473.151 672.583 461.184 672.583C449.216 672.583 443.187 677.082 437.383 681.446C431.894 685.541 426.765 689.41 416.282 689.41C405.799 689.41 400.625 685.541 395.181 681.446C389.377 677.082 383.348 672.583 371.38 672.583C359.412 672.583 353.383 677.082 347.579 681.446C342.675 685.136 338.041 688.6 329.627 689.275V693.774C339.526 693.054 345.015 689.005 350.279 685.046C355.768 680.951 360.897 677.082 371.38 677.082C381.863 677.082 387.037 680.951 392.481 685.046C398.285 689.41 404.314 693.909 416.282 693.909C428.25 693.909 434.278 689.41 440.082 685.046C445.571 680.951 450.7 677.082 461.184 677.082C471.667 677.082 476.841 680.951 482.285 685.046C488.089 689.41 494.118 693.909 506.085 693.909C518.053 693.909 524.082 689.41 529.886 685.046C535.375 680.951 540.504 677.082 550.987 677.082C561.47 677.082 566.644 680.951 572.089 685.046C577.892 689.41 583.921 693.909 595.889 693.909C607.902 693.909 613.886 689.41 619.735 685.046C625.224 680.951 630.353 677.082 640.881 677.082C651.409 677.082 656.538 680.951 662.027 685.046C667.831 689.41 673.86 693.909 685.828 693.909C697.796 693.909 703.825 689.41 709.629 685.046C715.118 680.951 720.247 677.082 730.775 677.082C741.303 677.082 746.432 680.951 751.921 685.046C757.725 689.41 763.754 693.909 775.767 693.909C787.779 693.909 793.763 689.41 799.612 685.046C805.101 680.951 810.275 677.082 820.758 677.082C831.241 677.082 836.416 680.951 841.905 685.046C847.709 689.41 853.737 693.909 865.75 693.909C877.718 693.909 883.747 689.41 889.551 685.046C895.04 680.951 900.214 677.082 910.697 677.082C921.18 677.082 926.354 680.951 931.843 685.046C937.647 689.41 943.676 693.909 955.644 693.909C967.612 693.909 973.641 689.41 979.445 685.046C981.154 683.786 982.819 682.526 984.619 681.446C983.719 680.187 982.909 678.927 982.054 677.667Z" fill="black" style="fill:black;fill-opacity:1;"/>
<path d="M550.987 717.845C539.019 717.845 532.991 722.344 527.187 726.708C521.698 730.802 516.569 734.672 506.085 734.672C495.602 734.672 490.428 730.802 484.984 726.708C479.18 722.344 473.151 717.845 461.184 717.845C449.216 717.845 443.187 722.344 437.383 726.708C431.894 730.802 426.765 734.672 416.282 734.672C405.799 734.672 400.625 730.802 395.181 726.708C389.377 722.344 383.348 717.845 371.38 717.845C359.412 717.845 353.383 722.344 347.579 726.708C342.09 730.802 336.961 734.672 326.478 734.672C320.539 734.672 316.31 733.412 312.755 731.567V736.561C316.4 738.136 320.764 739.171 326.478 739.171C338.446 739.171 344.475 734.672 350.279 730.307C355.768 726.213 360.897 722.344 371.38 722.344C381.863 722.344 387.037 726.213 392.481 730.307C398.285 734.672 404.314 739.171 416.282 739.171C428.25 739.171 434.278 734.672 440.082 730.307C445.571 726.213 450.7 722.344 461.184 722.344C471.667 722.344 476.841 726.213 482.285 730.307C488.089 734.672 494.118 739.171 506.085 739.171C518.053 739.171 524.082 734.672 529.886 730.307C535.375 726.213 540.504 722.344 550.987 722.344C551.617 722.344 552.202 722.389 552.787 722.434C554.092 720.949 555.442 719.554 556.971 718.34C555.127 718.025 553.192 717.845 550.987 717.845Z" fill="black" style="fill:black;fill-opacity:1;"/>
<path d="M1008.96 718.745C1006.48 718.205 1003.74 717.845 1000.5 717.845C988.533 717.845 982.504 722.344 976.7 726.708C971.211 730.802 966.082 734.672 955.599 734.672C945.116 734.672 939.942 730.802 934.453 726.708C928.649 722.344 922.62 717.845 910.652 717.845C898.639 717.845 892.655 722.344 886.806 726.708C881.317 730.802 876.188 734.672 865.66 734.672C855.132 734.672 850.003 730.802 844.514 726.708C838.71 722.344 832.681 717.845 820.713 717.845C808.701 717.845 802.717 722.344 796.868 726.708C791.379 730.802 786.205 734.672 775.722 734.672C765.238 734.672 760.064 730.802 754.575 726.708C748.771 722.344 742.742 717.845 730.775 717.845C718.807 717.845 712.778 722.344 706.974 726.708C701.485 730.802 696.356 734.672 685.828 734.672C675.3 734.672 670.171 730.802 664.682 726.708C659.103 722.524 653.299 718.25 642.321 717.89C644.795 719.689 647.225 721.579 649.654 723.469C654.738 724.908 658.293 727.518 661.982 730.307C667.786 734.672 673.815 739.171 685.783 739.171C697.751 739.171 703.78 734.672 709.584 730.307C715.073 726.213 720.202 722.344 730.73 722.344C741.258 722.344 746.387 726.213 751.876 730.307C757.68 734.672 763.709 739.171 775.722 739.171C787.734 739.171 793.718 734.672 799.567 730.307C805.056 726.213 810.23 722.344 820.713 722.344C831.196 722.344 836.371 726.213 841.86 730.307C847.663 734.672 853.692 739.171 865.705 739.171C877.673 739.171 883.702 734.672 889.506 730.307C894.995 726.213 900.169 722.344 910.652 722.344C921.135 722.344 926.309 726.213 931.798 730.307C937.602 734.672 943.631 739.171 955.599 739.171C967.567 739.171 973.596 734.672 979.4 730.307C984.889 726.213 990.018 722.344 1000.55 722.344C1005.67 722.344 1009.5 723.289 1012.78 724.728C1011.48 722.704 1010.22 720.724 1008.96 718.745Z" fill="black" style="fill:black;fill-opacity:1;"/>
<path d="M1046.48 779.934C1046.12 779.934 1045.81 779.979 1045.45 779.979C1034.96 779.979 1029.79 776.109 1024.3 772.015C1018.5 767.651 1012.47 763.152 1000.46 763.152C988.488 763.152 982.459 767.651 976.655 772.015C971.166 776.109 966.037 779.979 955.554 779.979C945.071 779.979 939.897 776.109 934.408 772.015C928.604 767.651 922.575 763.152 910.607 763.152C898.594 763.152 892.61 767.651 886.761 772.015C881.272 776.109 876.143 779.979 865.615 779.979C855.087 779.979 849.958 776.109 844.469 772.015C838.665 767.651 832.636 763.152 820.668 763.152C808.656 763.152 802.672 767.651 796.823 772.015C791.334 776.109 786.16 779.979 775.677 779.979C765.193 779.979 760.019 776.109 754.53 772.015C748.726 767.651 742.698 763.152 730.73 763.152C726.096 763.152 722.361 763.826 719.167 764.906C721.641 765.896 724.161 766.886 726.635 767.876C727.895 767.741 729.245 767.651 730.73 767.651C741.213 767.651 746.387 771.52 751.876 775.614C757.68 779.979 763.709 784.478 775.722 784.478C787.734 784.478 793.718 779.979 799.567 775.614C805.056 771.52 810.23 767.651 820.713 767.651C831.197 767.651 836.371 771.52 841.86 775.614C847.663 779.979 853.692 784.478 865.705 784.478C877.673 784.478 883.702 779.979 889.506 775.614C894.995 771.52 900.169 767.651 910.652 767.651C921.135 767.651 926.309 771.52 931.798 775.614C937.602 779.979 943.631 784.478 955.599 784.478C967.567 784.478 973.596 779.979 979.4 775.614C984.889 771.52 990.018 767.651 1000.55 767.651C1011.07 767.651 1016.2 771.52 1021.69 775.614C1027.5 779.979 1033.52 784.478 1045.54 784.478C1046.8 784.478 1047.97 784.388 1049.14 784.298C1048.19 782.858 1047.34 781.418 1046.48 779.934Z" fill="black" style="fill:black;fill-opacity:1;"/>
<path d="M461.139 763.107C449.171 763.107 443.142 767.606 437.338 771.97C431.849 776.064 426.72 779.934 416.237 779.934C405.754 779.934 400.58 776.064 395.136 771.97C389.332 767.606 383.303 763.107 371.335 763.107C359.367 763.107 353.338 767.606 347.534 771.97C342.045 776.064 336.916 779.934 326.433 779.934C320.179 779.934 315.815 778.539 312.126 776.559V781.598C315.86 783.308 320.404 784.433 326.433 784.433C338.401 784.433 344.43 779.934 350.234 775.569C355.723 771.475 360.852 767.606 371.335 767.606C381.818 767.606 386.992 771.475 392.436 775.569C398.24 779.934 404.269 784.433 416.237 784.433C428.205 784.433 434.233 779.934 440.037 775.569C445.526 771.475 450.655 767.606 461.139 767.606C463.433 767.606 465.458 767.831 467.347 768.146C469.012 766.976 470.677 765.806 472.387 764.726C469.237 763.782 465.593 763.107 461.139 763.107Z" fill="black" style="fill:black;fill-opacity:1;"/>
<path d="M1067.76 816.422C1067.36 816.737 1066.95 817.007 1066.59 817.322C1061.1 821.416 1055.93 825.285 1045.45 825.285C1034.96 825.285 1029.79 821.416 1024.3 817.322C1018.5 812.957 1012.47 808.458 1000.46 808.458C988.488 808.458 982.459 812.957 976.655 817.322C971.166 821.416 966.037 825.285 955.554 825.285C945.071 825.285 939.897 821.416 934.408 817.322C928.604 812.957 922.575 808.458 910.607 808.458C898.594 808.458 892.61 812.957 886.761 817.322C881.272 821.416 876.143 825.285 865.615 825.285C855.087 825.285 849.958 821.416 844.469 817.322C838.665 812.957 832.636 808.458 820.668 808.458C816.934 808.458 813.875 808.908 811.13 809.673C813.155 810.753 815.089 811.923 816.934 813.137C818.104 813.002 819.364 812.957 820.668 812.957C831.151 812.957 836.326 816.827 841.815 820.921C847.618 825.285 853.647 829.784 865.66 829.784C877.628 829.784 883.657 825.285 889.461 820.921C894.95 816.827 900.124 812.957 910.607 812.957C921.09 812.957 926.264 816.827 931.753 820.921C937.557 825.285 943.586 829.784 955.554 829.784C967.522 829.784 973.551 825.285 979.355 820.921C984.844 816.827 989.973 812.957 1000.5 812.957C1011.03 812.957 1016.16 816.827 1021.65 820.921C1027.45 825.285 1033.48 829.784 1045.49 829.784C1057.51 829.784 1063.49 825.285 1069.34 820.921C1069.56 820.741 1069.83 820.561 1070.06 820.381C1069.29 819.031 1068.53 817.727 1067.76 816.422Z" fill="black" style="fill:black;fill-opacity:1;"/>
<path d="M157.939 823.216C154.879 824.43 151.235 825.24 146.556 825.24C139.357 825.24 134.678 823.396 130.674 820.921C130.269 822.496 129.774 823.936 129.279 825.33C133.598 827.85 138.817 829.74 146.556 829.74C151.1 829.74 154.789 829.065 157.939 828.03V823.216Z" fill="black" style="fill:black;fill-opacity:1;"/>
<path d="M371.245 808.413C359.277 808.413 353.248 812.913 347.444 817.277C341.955 821.371 336.826 825.24 326.343 825.24C320.089 825.24 315.725 823.846 312.036 821.866V826.905C315.77 828.615 320.314 829.739 326.343 829.739C338.311 829.739 344.34 825.24 350.144 820.876C355.633 816.782 360.762 812.913 371.245 812.913C376.689 812.913 380.648 813.947 384.023 815.522C385.147 814.397 386.272 813.273 387.442 812.193C383.348 810.033 378.354 808.413 371.245 808.413Z" fill="black" style="fill:black;fill-opacity:1;"/>
<path d="M157.939 868.522C154.879 869.737 151.235 870.547 146.556 870.547C136.073 870.547 130.898 866.678 125.454 862.584C121.36 859.524 117.086 856.42 110.742 854.845C110.022 856.24 109.257 857.634 108.493 859.029C114.566 860.334 118.616 863.168 122.71 866.228C128.514 870.592 134.543 875.091 146.511 875.091C151.055 875.091 154.744 874.416 157.894 873.382V868.522H157.939Z" fill="black" style="fill:black;fill-opacity:1;"/>
<path d="M1085.36 854.035C1076.63 855.115 1071.5 858.849 1066.55 862.584C1061.06 866.678 1055.89 870.547 1045.4 870.547C1034.92 870.547 1029.75 866.678 1024.26 862.584C1018.45 858.219 1012.42 853.72 1000.41 853.72C988.443 853.72 982.414 858.219 976.61 862.584C971.121 866.678 965.992 870.547 955.509 870.547C945.026 870.547 939.852 866.678 934.363 862.584C928.559 858.219 922.53 853.72 910.562 853.72C904.893 853.72 900.619 854.755 896.975 856.285C898.459 857.32 899.854 858.399 901.249 859.569C903.858 858.759 906.873 858.264 910.562 858.264C921.045 858.264 926.219 862.134 931.708 866.228C937.512 870.592 943.541 875.091 955.509 875.091C967.477 875.091 973.506 870.592 979.31 866.228C984.799 862.134 989.928 858.264 1000.46 858.264C1010.98 858.264 1016.11 862.134 1021.6 866.228C1027.41 870.592 1033.43 875.091 1045.45 875.091C1057.46 875.091 1063.44 870.592 1069.29 866.228C1074.29 862.494 1079.06 858.984 1087.74 858.354C1086.84 856.915 1086.08 855.52 1085.36 854.035Z" fill="black" style="fill:black;fill-opacity:1;"/>
<path d="M157.939 913.784C154.879 914.999 151.235 915.809 146.556 915.809C136.073 915.809 130.898 911.94 125.454 907.845C119.65 903.481 113.622 898.982 101.654 898.982C93.1503 898.982 87.6613 901.277 83.1171 904.156C82.1723 906.001 81.2275 907.845 80.3276 909.69C79.8327 910.68 79.3828 911.715 78.8879 912.704C79.4278 912.3 80.0127 911.895 80.5526 911.49C86.0416 907.395 91.1706 903.526 101.654 903.526C112.137 903.526 117.311 907.395 122.755 911.49C128.559 915.854 134.588 920.353 146.556 920.353C151.1 920.353 154.789 919.678 157.939 918.643V913.784Z" fill="black" style="fill:black;fill-opacity:1;"/>
<path d="M1122.02 912.929C1119.14 911.49 1116.71 909.735 1114.29 907.845C1108.48 903.481 1102.45 898.982 1090.44 898.982C1078.43 898.982 1072.44 903.481 1066.59 907.845C1061.1 911.94 1055.93 915.809 1045.45 915.809C1034.96 915.809 1029.79 911.94 1024.3 907.845C1018.5 903.481 1012.47 898.982 1000.46 898.982C990.692 898.982 984.889 901.996 979.939 905.461C981.289 906.406 982.639 907.305 983.989 908.16C988.128 905.506 992.897 903.481 1000.46 903.481C1010.94 903.481 1016.11 907.35 1021.6 911.445C1027.41 915.809 1033.43 920.308 1045.45 920.308C1057.46 920.308 1063.44 915.809 1069.29 911.445C1074.78 907.35 1079.96 903.481 1090.44 903.481C1100.92 903.481 1106.1 907.35 1111.59 911.445C1115.14 914.099 1118.78 916.799 1123.78 918.508C1123.06 916.709 1122.47 914.864 1122.02 912.929Z" fill="black" style="fill:black;fill-opacity:1;"/>
<path d="M101.609 944.244C89.6409 944.244 83.612 948.743 77.8081 953.107C72.3191 957.201 67.19 961.071 56.7069 961.071C55.0422 961.071 53.5575 960.936 52.1627 960.756C50.723 962.06 49.1933 963.32 47.5735 964.49C50.2281 965.165 53.1975 965.57 56.7069 965.57C68.6747 965.57 74.7036 961.071 80.5526 956.706C86.0416 952.612 91.1707 948.743 101.654 948.743C112.137 948.743 117.311 952.612 122.755 956.706C122.98 956.841 123.16 957.021 123.385 957.156C124.375 956.077 125.499 955.042 126.804 954.097C126.354 953.782 125.904 953.422 125.454 953.107C119.605 948.788 113.577 944.244 101.609 944.244Z" fill="black" style="fill:black;fill-opacity:1;"/>
<path d="M1146.95 959.046C1143.84 960.306 1140.2 961.161 1135.39 961.161C1124.9 961.161 1119.73 957.291 1114.24 953.197C1108.44 948.833 1102.41 944.334 1090.39 944.334C1081.26 944.334 1075.59 946.943 1070.87 950.138C1072.22 951.037 1073.57 951.982 1074.83 952.972C1078.79 950.588 1083.38 948.833 1090.39 948.833C1100.88 948.833 1106.05 952.702 1111.54 956.797C1117.34 961.161 1123.37 965.66 1135.39 965.66C1141.24 965.66 1145.69 964.58 1149.33 962.96C1148.61 961.611 1147.85 960.306 1146.95 959.046Z" fill="black" style="fill:black;fill-opacity:1;"/>
</svg>
