<svg width="500" height="360" viewBox="0 0 500 360" fill="none" xmlns="http://www.w3.org/2000/svg">
<path d="M247.312 249.287C245.707 249.287 244.407 247.985 244.407 246.381V2.90552C244.407 1.30183 245.707 -1.52588e-05 247.312 -1.52588e-05C248.917 -1.52588e-05 250.219 1.30183 250.219 2.90552V246.381C250.219 247.985 248.917 249.287 247.312 249.287Z" fill="#2D2C5F" style="fill:#2D2C5F;fill:color(display-p3 0.1765 0.1725 0.3725);fill-opacity:1;"/>
<path d="M247.312 2.90524L349.422 235.278H247.312C247.312 235.278 277.258 121.939 247.312 2.90524Z" fill="#FFFFFA" style="fill:#FFFFFA;fill:color(display-p3 1.0000 1.0000 0.9804);fill-opacity:1;"/>
<path d="M251.005 232.371H344.971L256.14 30.2159C273.321 126.254 255.326 213.717 251.005 232.371ZM349.422 238.184H247.312C246.412 238.184 245.561 237.766 245.01 237.051C244.461 236.336 244.274 235.407 244.503 234.535C244.8 233.409 273.901 120.508 244.495 3.61507C244.126 2.14903 244.941 0.646515 246.37 0.155624C247.801 -0.328629 249.367 0.352982 249.972 1.73608L352.082 234.109C352.478 235.007 352.392 236.044 351.855 236.867C351.319 237.688 350.404 238.184 349.422 238.184Z" fill="#2D2C5F" style="fill:#2D2C5F;fill:color(display-p3 0.1765 0.1725 0.3725);fill-opacity:1;"/>
<path d="M247.312 2.90488L111.173 209.241H244.879L247.312 2.90488Z" fill="#FFFFFA" style="fill:#FFFFFA;fill:color(display-p3 1.0000 1.0000 0.9804);fill-opacity:1;"/>
<path d="M116.572 206.335H242.007L244.291 12.7631L116.572 206.335ZM244.879 212.147H111.174C110.104 212.147 109.12 211.561 108.615 210.619C108.107 209.675 108.159 208.533 108.747 207.641L244.888 1.3051C245.597 0.228806 246.934 -0.243851 248.165 0.125977C249.399 0.504105 250.234 1.65173 250.219 2.94031L247.785 209.276C247.767 210.866 246.47 212.147 244.879 212.147Z" fill="#2D2C5F" style="fill:#2D2C5F;fill:color(display-p3 0.1765 0.1725 0.3725);fill-opacity:1;"/>
<path d="M144.003 219.773H181.419L192.424 243.25H265.787L277.525 276.264H144.003V219.773Z" fill="#F6836C" style="fill:#F6836C;fill:color(display-p3 0.9647 0.5137 0.4235);fill-opacity:1;"/>
<path d="M146.911 273.357H273.407L263.737 246.156H192.424C191.296 246.156 190.27 245.504 189.792 244.484L179.571 222.679H146.911V273.357ZM277.525 279.169H144.003C142.398 279.169 141.098 277.868 141.098 276.264V219.774C141.098 218.168 142.398 216.868 144.003 216.868H181.419C182.546 216.868 183.571 217.52 184.051 218.54L194.271 240.344H265.787C267.017 240.344 268.114 241.117 268.525 242.275L280.263 275.289C280.58 276.181 280.444 277.168 279.9 277.939C279.354 278.71 278.47 279.169 277.525 279.169Z" fill="#2D2C5F" style="fill:#2D2C5F;fill:color(display-p3 0.1765 0.1725 0.3725);fill-opacity:1;"/>
<path d="M155.713 239.073H177.533L173.976 231.482H155.713V239.073ZM182.105 244.885H152.806C151.203 244.885 149.901 243.583 149.901 241.978V228.577C149.901 226.973 151.203 225.671 152.806 225.671H175.823C176.951 225.671 177.976 226.323 178.455 227.343L184.737 240.746C185.159 241.646 185.091 242.7 184.558 243.537C184.024 244.376 183.099 244.885 182.105 244.885Z" fill="#2D2C5F" style="fill:#2D2C5F;fill:color(display-p3 0.1765 0.1725 0.3725);fill-opacity:1;"/>
<path d="M218.444 264.554H227.571V254.96H218.444V264.554ZM230.476 270.367H215.537C213.932 270.367 212.632 269.065 212.632 267.461V252.055C212.632 250.451 213.932 249.149 215.537 249.149H230.476C232.081 249.149 233.383 250.451 233.383 252.055V267.461C233.383 269.065 232.081 270.367 230.476 270.367Z" fill="#2D2C5F" style="fill:#2D2C5F;fill:color(display-p3 0.1765 0.1725 0.3725);fill-opacity:1;"/>
<path d="M194.137 264.554H203.265V254.96H194.137V264.554ZM206.172 270.367H191.232C189.626 270.367 188.326 269.065 188.326 267.461V252.055C188.326 250.451 189.626 249.149 191.232 249.149H206.172C207.777 249.149 209.078 250.451 209.078 252.055V267.461C209.078 269.065 207.777 270.367 206.172 270.367Z" fill="#2D2C5F" style="fill:#2D2C5F;fill:color(display-p3 0.1765 0.1725 0.3725);fill-opacity:1;"/>
<path d="M242.748 264.554H251.878V254.96H242.748V264.554ZM254.783 270.367H239.843C238.237 270.367 236.937 269.065 236.937 267.461V252.055C236.937 250.451 238.237 249.149 239.843 249.149H254.783C256.389 249.149 257.689 250.451 257.689 252.055V267.461C257.689 269.065 256.389 270.367 254.783 270.367Z" fill="#2D2C5F" style="fill:#2D2C5F;fill:color(display-p3 0.1765 0.1725 0.3725);fill-opacity:1;"/>
<path d="M152.073 254.084V278.018H180.502V254.084H152.073Z" fill="#A88B88" style="fill:#A88B88;fill:color(display-p3 0.6588 0.5451 0.5333);fill-opacity:1;"/>
<path d="M154.98 275.113H177.596V256.991H154.98V275.113ZM180.503 280.926H152.073C150.468 280.926 149.168 279.624 149.168 278.018V254.084C149.168 252.481 150.468 251.179 152.073 251.179H180.503C182.107 251.179 183.409 252.481 183.409 254.084V278.018C183.409 279.624 182.107 280.926 180.503 280.926Z" fill="#2D2C5F" style="fill:#2D2C5F;fill:color(display-p3 0.1765 0.1725 0.3725);fill-opacity:1;"/>
<path d="M335.004 299.571L364.096 266.726L69.9058 274.063L81.5843 299.571H335.004Z" fill="#FFFFFA" style="fill:#FFFFFA;fill:color(display-p3 1.0000 1.0000 0.9804);fill-opacity:1;"/>
<path d="M83.4498 296.666H333.695L357.492 269.799L74.3816 276.857L83.4498 296.666ZM335.004 302.478H81.5841C80.4481 302.478 79.4149 301.814 78.9422 300.78L67.2637 275.272C66.8574 274.385 66.9237 273.351 67.4412 272.522C67.9586 271.696 68.8575 271.182 69.8326 271.157L364.022 263.821C365.212 263.789 366.241 264.45 366.729 265.501C367.217 266.549 367.036 267.787 366.27 268.652L337.18 301.498C336.629 302.122 335.836 302.478 335.004 302.478Z" fill="#2D2C5F" style="fill:#2D2C5F;fill:color(display-p3 0.1765 0.1725 0.3725);fill-opacity:1;"/>
<path d="M74.3816 276.858L78.1793 285.153L349.893 278.377L357.492 269.8L74.3816 276.858ZM76.3352 291.013C75.2009 291.013 74.1677 290.352 73.6933 289.316L67.2637 275.272C66.8574 274.385 66.9237 273.352 67.4412 272.522C67.9586 271.697 68.8575 271.183 69.8326 271.158L364.022 263.821C365.212 263.789 366.241 264.451 366.729 265.501C367.217 266.549 367.036 267.788 366.27 268.652L353.405 283.176C352.87 283.782 352.109 284.137 351.303 284.156L76.4082 291.013C76.3833 291.013 76.3584 291.013 76.3352 291.013Z" fill="#2D2C5F" style="fill:#2D2C5F;fill:color(display-p3 0.1765 0.1725 0.3725);fill-opacity:1;"/>
<path fill-rule="evenodd" clip-rule="evenodd" d="M0 249.584C49.0926 221.893 93.0814 236.079 133.933 271.597C147.748 283.606 161.264 298.881 179.649 303.73C224.544 315.567 258.238 254.645 311.099 262.032C359.933 268.863 395.565 304.435 435.67 329.009C452.595 339.373 500 359.302 500 359.302H0.241432L0 249.584Z" fill="#FFF8EE" style="fill:#FFF8EE;fill:color(display-p3 1.0000 0.9719 0.9333);fill-opacity:1;"/>
</svg>
