<?xml version="1.0" encoding="utf-8"?>
<!-- Generator: Adobe Illustrator 26.3.1, SVG Export Plug-In . SVG Version: 6.00 Build 0)  -->
<svg version="1.1" id="Layer_1" xmlns="http://www.w3.org/2000/svg" xmlns:xlink="http://www.w3.org/1999/xlink" x="0px" y="0px"
	 viewBox="0 0 595.28 389.89" style="enable-background:new 0 0 595.28 389.89;" xml:space="preserve">
<style type="text/css">
	.st0{fill:#070A0C;}
</style>
<g>
	<g>
		<path class="st0" d="M234.43,153.95h21.14v5.95h-8.29c-1.74,0-3.34-0.04-4.95-0.61l-0.82,0.78c0.91,1.22,1.35,2.3,1.35,3.69v1.39
			c0,1.22-0.48,2.3-1.35,3.52l0.82,0.82c1.56-0.48,3.21-0.65,4.95-0.65h7.77v6.25h-7.77c-1.78,0-3.43-0.09-4.95-0.65l-0.82,0.83
			c1,1.3,1.35,2.43,1.35,3.95v1.56c0,1.35-0.43,2.43-1.35,3.65l0.82,0.78c1.61-0.52,3.21-0.61,4.95-0.61h8.9v6.12h-21.75V153.95z"/>
		<path class="st0" d="M276.67,190.72h-8.33v-26.35c0-1.39,0.39-2.47,1.3-3.69l-0.78-0.78c-1.56,0.52-3.17,0.61-4.95,0.61h-4.08
			v-6.55h25.39v6.55h-4.12c-1.74,0-3.34-0.04-4.95-0.61l-0.78,0.78c0.91,1.22,1.3,2.3,1.3,3.69V190.72z"/>
		<path class="st0" d="M298.54,164.54c0,1.65-0.04,3-1.3,4.56l0.78,0.82c1.61-0.48,3.21-0.65,4.95-0.65c1.74,0,3.43,0.09,5.12,0.65
			l0.82-0.82c-1.35-1.69-1.35-3.13-1.35-4.86v-10.29h8.46v36.77h-8.46v-10.24c0-1.78,0-3.17,1.35-4.86l-0.82-0.83
			c-1.56,0.52-3.21,0.65-5.04,0.65c-1.69,0-3.34-0.04-5.04-0.65l-0.78,0.83c1.3,1.69,1.3,3.08,1.3,4.86v10.24h-8.47v-36.77h8.47
			V164.54z"/>
		<path class="st0" d="M245.07,195.31c3.6,0,6.47,0.09,8.73,1.17c2.56,1.26,4.34,4.17,4.34,7.38c0,4.3-2.73,7.42-7.38,7.99v1
			c5.6,0.26,8.38,3.13,8.38,8.64c0,4.38-2.17,7.81-5.25,9.29c-2.3,1.08-5.25,1.3-10.07,1.3h-9.38v-36.77H245.07z M241.51,201.73
			c0.87,1.22,1.35,2.26,1.35,3.56v1.3c0,1.17-0.48,2.3-1.35,3.52l0.82,0.82c1.95-0.69,3.52-0.52,4.6-0.78
			c1.65-0.39,3.17-1.69,3.17-4.51c0-2.56-1.56-3.56-2.74-3.91c-1.22-0.3-1.95-0.13-3.34-0.39c-0.74-0.13-1.39-0.26-1.69-0.43
			L241.51,201.73z M242.85,221.4c0,1.56-0.26,2.78-1.35,4.17l0.82,0.82c4.95-0.43,8.51-0.43,8.51-5.3c0-3.82-2.95-4.73-3.91-4.9
			c-1.48-0.26-2.65-0.3-4.6-0.83l-0.82,0.83c1.08,1.3,1.35,2.82,1.35,3.91V221.4z"/>
		<path class="st0" d="M290.34,219.92c0,9.07-3.65,12.76-12.94,12.76c-6.16,0-9.98-1.65-11.81-5.64c-1.04-2.3-1.17-4.99-1.17-8.25
			v-23.48h8.46v24.05c0,4.82,1.17,7.16,4.43,7.16c3.52,0,4.6-2.6,4.6-7.42v-23.79h8.42V219.92z"/>
		<path class="st0" d="M321.2,206.25h-2.74c-1.65-3.17-3.65-4.73-6.03-4.73c-4.25,0-6.77,4.17-6.77,12.28
			c0,7.9,2.56,12.02,6.73,12.02c2.43,0,4.43-1.56,6.08-4.73h2.74v8.38c-3.39,2.21-6.47,3.21-10.2,3.21
			c-8.81,0-14.41-6.64-14.41-19.01c0-12.42,5.47-18.97,14.8-18.97c3.43,0,6.51,1.04,9.81,3.17V206.25z"/>
		<path class="st0" d="M335.79,205.9c0,1.65-0.04,3-1.3,4.56l0.78,0.82c1.61-0.48,3.21-0.65,4.95-0.65c1.74,0,3.43,0.09,5.12,0.65
			l0.83-0.82c-1.35-1.69-1.35-3.13-1.35-4.86v-10.29h8.47v36.77h-8.47v-10.24c0-1.78,0-3.17,1.35-4.86l-0.83-0.83
			c-1.56,0.52-3.21,0.65-5.04,0.65c-1.69,0-3.34-0.04-5.04-0.65l-0.78,0.83c1.3,1.69,1.3,3.08,1.3,4.86v10.24h-8.47v-36.77h8.47
			V205.9z"/>
		<path class="st0" d="M367.34,195.31h11.5l7.94,36.77h-8.29l-0.91-4.04c-0.26-1.17-0.09-2.52,0.13-3.3l-0.52-0.48
			c-1.39,0.43-2.65,0.65-4.86,0.65c-2.43,0-3.52-0.04-5.12-0.65l-0.48,0.39c0.09,0.65,0.35,2.47,0,3.86l-0.91,3.56h-7.94
			L367.34,195.31z M371.68,199.39c-0.83,9.29-1.95,15.84-3.73,19.66l0.52,0.74c1.39-0.39,2.74-0.48,4.04-0.48
			c1.22,0,2.43,0.09,3.69,0.48l0.52-0.74c-1.35-2.87-2.78-9.51-3.39-19.66H371.68z"/>
		<path class="st0" d="M402.29,195.31c3.95,0,7.03,0.17,9.55,1.65c3.08,1.82,4.73,4.91,4.73,8.81c0,4.9-2.43,7.68-5.99,8.33l-0.17,1
			l9.16,16.97h-9.81l-6.73-15.02c-1.26,0-2.43-0.26-3.6-0.74l-0.69,0.83c1.17,1.48,1.17,3.52,1.17,6.47v8.47h-8.46v-36.77H402.29z
			 M398.03,201.73c0.65,0.65,1.13,2.3,1.13,3.73v1.78c0,1.82-0.09,3.21-1.22,4.47l0.69,0.78c2.3-0.43,4.51-0.26,6.42-0.74
			c2.04-0.52,3.52-2.47,3.52-4.86c0-2.39-1.22-4.17-3.39-4.95c-1.74-0.61-3.95-0.22-6.38-0.96L398.03,201.73z"/>
		<path class="st0" d="M424.08,195.31h21.14v5.95h-8.29c-1.74,0-3.34-0.04-4.95-0.61l-0.82,0.78c0.91,1.22,1.35,2.3,1.35,3.69v1.39
			c0,1.22-0.48,2.3-1.35,3.52l0.82,0.82c1.56-0.48,3.21-0.65,4.95-0.65h7.77v6.25h-7.77c-1.78,0-3.43-0.09-4.95-0.65l-0.82,0.83
			c1,1.3,1.35,2.43,1.35,3.95v1.56c0,1.35-0.43,2.43-1.35,3.65l0.82,0.78c1.61-0.52,3.21-0.61,4.95-0.61h8.9v6.12h-21.75V195.31z"/>
		<path class="st0" d="M473.04,205.51h-2.73c-1.65-3.26-4.21-4.91-6.51-4.91c-2.73,0-4.51,1.65-4.51,3.69
			c0,3.56,4.47,4.99,10.11,7.81c2.34,1.17,5.6,4.38,5.6,9.16c0,6.34-5.17,11.42-13.46,11.42c-3.47,0-6.9-0.91-10.68-2.52l0.3-9.16
			h2.52c1.61,3.47,4.69,5.47,7.81,5.47c2.95,0,4.9-1.82,4.9-4.08c0-3.73-3.95-4.69-7.55-6.42c-5.25-2.56-7.86-6.08-7.86-10.64
			c0-6.34,4.51-10.64,12.59-10.64c3.17,0,6.21,0.74,9.46,2.04V205.51z"/>
		<path class="st0" d="M495.96,232.08h-8.33v-26.35c0-1.39,0.39-2.47,1.3-3.69l-0.78-0.78c-1.56,0.52-3.17,0.61-4.95,0.61h-4.08
			v-6.56h25.39v6.56h-4.12c-1.74,0-3.34-0.04-4.95-0.61l-0.78,0.78c0.91,1.22,1.3,2.3,1.3,3.69V232.08z"/>
	</g>
	<g>
		<g>
			<path class="st0" d="M207.37,263.6h-26.4l-17.86-29.14l-17.24,29.14h-27.07l21.46-35.63l-21.08-35l20.99-34.85l-21.13-35.08
				h26.13l17.94,29.33l18.8-29.33h25.21l-21.13,35.08l20.99,34.85l-0.64,1.06l-20.44,33.94L207.37,263.6z M182.65,260.59h19.4
				l-19.65-32.63l21.08-35l-20.99-34.86l19.32-32.08h-18.26l-20.5,31.99l-19.57-31.99h-19.13l19.32,32.08l-20.99,34.86l21.08,35
				l-19.65,32.63h20.04l18.91-31.96L182.65,260.59z"/>
		</g>
		<g>
			<polygon class="st0" points="163.03,222.29 146.33,198.78 163.03,208.63 179.73,198.75 			"/>
			<polygon class="st0" points="163.03,202.04 146.33,192.18 163.03,164.45 179.73,192.18 			"/>
			<polygon class="st0" points="163.03,202.04 163.03,164.45 179.73,192.18 			"/>
			<polygon class="st0" points="163.04,208.62 163.04,222.28 179.73,198.75 			"/>
		</g>
	</g>
</g>
</svg>
