<svg width="309" height="465" viewBox="0 0 309 465" fill="none" xmlns="http://www.w3.org/2000/svg">
<path d="M249.176 457.705C254.35 451.274 327.02 417.409 336.236 416.583L339.087 416.467C338.49 421.493 338.171 426.766 334.772 430.796C328.54 438.179 273.821 464.187 263.723 464.822C257.767 465.199 253.454 461.231 249.176 457.705Z" fill="#273A7B"/>
<path d="M220.371 441.916C223.795 442.432 231.266 444.478 234.472 444.044C237.542 443.629 243.517 439.899 246.57 438.502L284.41 421.3C286.621 420.314 287.938 421.885 289.984 421.587C293.362 421.1 298.987 417.389 302.399 415.78C315.476 409.638 332.375 403.557 343.655 394.872C345.401 393.528 346.681 391.798 347.707 389.872L351.704 383.945C354.674 388 356.06 390.742 356.704 395.747L355.464 399.625C353.228 407.383 349.163 411.275 342.299 415.104C340.274 416.237 341.112 415.874 339.087 416.467L336.236 416.583C327.02 417.409 254.35 451.274 249.176 457.705C243.054 460.811 235.717 462.605 228.955 460.75C226.861 460.27 224.977 459.044 223.083 458.048C219.472 452.135 219.611 448.654 220.371 441.916Z" fill="#273A7B"/>
<path d="M228.955 460.75C232.727 456.114 243.055 452.368 248.659 449.405C283.497 430.95 319.593 415.864 355.464 399.625C353.228 407.383 349.163 411.275 342.299 415.104C340.274 416.237 341.112 415.874 339.087 416.467L336.236 416.583C327.02 417.409 254.35 451.274 249.176 457.705C243.054 460.811 235.717 462.605 228.955 460.75Z" fill="#324C9E"/>
<path d="M206.793 425.482L250.72 405.675L253.491 404.581L260.203 400.966L314.162 375.735C323.408 371.406 333.369 365.62 343.096 362.667C345.641 365.868 347.158 367.291 346.484 371.669L346.158 372.667L345.512 374.712C347.066 379.337 347.47 381.226 351.704 383.945L347.707 389.872C346.681 391.798 345.401 393.528 343.655 394.872C332.375 403.557 315.476 409.638 302.399 415.78C298.987 417.389 293.362 421.1 289.984 421.587C287.938 421.885 286.621 420.314 284.41 421.3L246.57 438.502C243.517 439.899 237.542 443.629 234.472 444.044C231.266 444.478 223.795 442.432 220.371 441.916L211.108 435.662C208.975 432.341 207.922 429.253 206.793 425.482Z" fill="#324C9E"/>
<path d="M206.793 425.482L250.72 405.675L253.491 404.581L263.847 401.299C266.518 403.326 268.802 405.408 271.078 407.88C265.299 411.896 257.34 414.591 250.869 417.545L211.108 435.662C208.975 432.341 207.922 429.253 206.793 425.482Z" fill="#273A7B"/>
<path d="M196.198 387.95L233.378 370.641L242.119 366.808L272.847 352.572L282.3 348.164C294.907 342.268 308.426 334.337 321.606 330.17L330.916 337.122C335.255 341.608 334.662 342.612 334.678 348.566C334.462 352.074 333.57 353.748 336.121 356.461C337.513 357.943 339.19 359.013 340.793 360.234C342.293 361.369 341.744 360.924 343.096 362.667C333.369 365.62 323.408 371.406 314.162 375.735L260.203 400.966L253.491 404.581L250.72 405.675L206.793 425.482C207.479 420.244 206.121 415.923 204.347 411.077C199.975 409.511 198.326 407.285 196.256 403.27C195.588 398.25 196.056 393.006 196.198 387.95Z" fill="#324C9E"/>
<path d="M247.205 389.305L266.682 380.287L260.203 400.966L253.491 404.581L250.72 405.675C248.24 401.995 246.554 397.782 244.699 393.765L247.205 389.305Z" fill="#4684CD"/>
<path d="M196.256 403.27C200.418 399.45 206.666 397.328 211.752 394.93L238.761 381.878C240.62 384.572 242.477 387.167 243.872 390.14C237.998 398.444 214.196 406.44 204.347 411.077C199.975 409.511 198.326 407.285 196.256 403.27Z" fill="#273A7B"/>
<path d="M233.378 370.641L242.119 366.808L272.847 352.572L282.3 348.164C294.907 342.268 308.426 334.337 321.606 330.17L330.916 337.122C320.047 344.239 307.646 349.266 295.892 354.773L239.367 381.191C237.039 377.952 235.283 374.149 233.378 370.641Z" fill="#5BAAE2"/>
<path d="M266.682 380.287L334.678 348.566C334.462 352.074 333.57 353.748 336.121 356.461C337.513 357.943 339.19 359.013 340.793 360.234C342.293 361.369 341.744 360.924 343.096 362.667C333.369 365.62 323.408 371.406 314.162 375.735L260.203 400.966L266.682 380.287Z" fill="#5BAAE2"/>
<path d="M272.228 157.236C298.014 157.566 322.554 151.887 347.934 150.708C349.513 176.405 347.342 201.638 337.986 225.807C332.223 240.712 325.694 254.959 323.597 270.978C322.439 279.87 322.066 289.098 322.827 298.039C323.573 306.772 327.063 317.768 324.324 326.202L321.934 328.827C308.754 332.994 295.235 340.924 282.628 346.821L230.956 219.068C230.821 218.7 230.419 218.321 230.567 217.964C230.884 217.196 237.284 213.124 238.327 212.296C256.379 198.062 268.033 179.844 272.228 157.236Z" fill="#F6A039"/>
<path d="M223.548 157.421C226.922 149.482 230.371 142.282 238.811 138.536C242.497 136.897 247.578 136.533 251.277 138.064C255.152 139.664 258.458 143.535 260.082 147.327C261.21 149.957 261.836 154.637 261.425 157.4C259.666 157.465 260.139 157.361 258.731 157.658C246.174 160.267 236.137 159.778 223.548 157.421Z" fill="#F4B52D"/>
<path d="M223.548 157.421C236.137 159.778 246.174 160.267 258.731 157.658C260.139 157.361 259.666 157.465 261.425 157.4C257.995 180.317 244.012 194.118 226.565 207.702C222.961 190.717 220.843 174.739 223.548 157.421Z" fill="#F6A039"/>
<path d="M112.403 203.003C115.129 201.867 118.199 200.354 121.204 200.32C129.763 200.222 138.447 206.603 144.529 212.128C150.598 217.642 162.772 229.291 163.131 237.503L152.564 239.849L140.539 240.592C129.897 240.735 117.947 239.15 110.129 231.233C106.195 227.25 104.211 222.493 104.483 216.828C104.763 210.97 108.073 206.595 112.403 203.003Z" fill="#F6A039"/>
<path d="M192.786 268.171L179.009 241.824L221.288 222.3L252.032 299.923C245.367 295.829 238.903 285.823 232.782 280.1C220.203 268.335 209.362 267.644 192.786 268.171Z" fill="#F6A039"/>
<path d="M192.786 268.171C209.362 267.644 220.203 268.335 232.782 280.1C238.903 285.823 245.367 295.829 252.032 299.923L273.175 351.228L242.447 365.465C237.724 352.752 229.746 339.785 223.419 327.739L192.786 268.171Z" fill="#ED7520"/>
<path d="M4.79447 139.941L5.54034 141.059C13.4638 153.116 17.6354 167.463 25.0349 179.881C48.3214 218.949 91.3321 259.807 136.948 269.539C151.637 272.679 168.574 274.159 183.144 269.677L234.547 369.26L197.367 386.569C195.496 386.973 193.454 387.548 191.556 387.084C186.809 385.908 176.624 370.697 172.23 366.479C167.069 361.523 161.336 356.94 155.409 352.925C141.547 343.519 126.033 338.435 110.642 332.134C76.7691 318.258 46.7561 295.732 26.4491 264.886C1.79554 227.417 -3.91176 183.398 4.79447 139.941Z" fill="#ED7520"/>
<path d="M34.9442 73.1537C61.8844 34.7894 101.816 14.5705 145.695 2.14071C197.666 -4.03792 242.67 3.66806 284.561 36.975C321.107 66.0308 341.657 105.035 348.775 150.671C323.395 151.85 298.855 157.529 273.069 157.199L271.774 149.351C269.994 141.388 264.239 133.345 257.128 129.297C252.074 126.421 245.812 125.583 240.208 127.081C227.788 130.408 222.191 138.979 216.169 149.51C183.255 146.929 151.99 145.107 119.983 136.007C84.2293 125.849 53.4133 106.421 34.9442 73.1537Z" fill="#F4B52D"/>
<path d="M117.626 42.8471L118.562 42.078C122.318 39.4905 127.861 38.2458 132.177 36.7818C152.518 29.887 176.232 29.0705 197.322 33.0379C229.35 39.08 265.137 58.3125 283.522 85.8652C285.518 88.8545 284.848 89.3647 284.172 92.7548L281.283 95.4499C272.312 93.3306 259.388 74.2901 251.169 67.8277C236.499 56.282 218.185 47.5858 199.798 43.9402C181.394 40.2759 161.012 40.1409 142.695 44.4736C135.283 46.2211 127.033 51.1829 119.48 50.218C117.024 47.2453 117.546 46.5706 117.626 42.8471Z" fill="#FFFFFD"/>
<path d="M34.9442 73.1537C53.4133 106.421 84.2293 125.849 119.983 136.007C151.99 145.107 183.255 146.929 216.169 149.51C222.191 138.979 227.788 130.408 240.208 127.081C245.812 125.583 252.074 126.421 257.128 129.297C264.239 133.345 269.994 141.388 271.774 149.351L273.069 157.199C268.874 179.806 257.22 198.025 239.168 212.259C238.124 213.087 231.724 217.159 231.408 217.926C231.26 218.283 231.661 218.662 231.797 219.031L283.469 346.783L274.015 351.191L243.288 365.427L234.547 369.26L183.144 269.677C168.574 274.159 151.637 272.679 136.948 269.539C91.3321 259.807 48.3214 218.949 25.0349 179.881C17.6354 167.463 13.4638 153.116 5.54034 141.059L4.79447 139.941C6.7611 125.359 13.5545 110.908 19.0509 97.3585L34.9442 73.1537Z" fill="#F6A039"/>
<path d="M216.169 149.51C222.191 138.979 227.788 130.408 240.208 127.081C245.812 125.583 252.074 126.421 257.128 129.297C264.239 133.345 269.994 141.388 271.774 149.351L273.069 157.199C268.874 179.806 257.22 198.025 239.168 212.259C238.124 213.087 231.724 217.159 231.408 217.926C231.26 218.283 231.661 218.662 231.797 219.031L283.469 346.783L274.015 351.191L243.288 365.427L234.547 369.26L183.144 269.677L170.171 245.499C159.379 249.137 147.99 251.165 136.598 250.489C124.242 249.75 110.927 246.203 102.577 236.431C97.2956 230.253 94.6517 221.227 95.6439 213.212C96.5763 205.783 101.202 198.87 107.278 194.643C113.09 190.603 120.736 188.683 127.666 190.163C148.836 194.687 163.949 215.781 174.703 232.965L217.705 212.736C219.009 207.146 214.472 195.776 213.51 189.49C211.381 175.514 212.363 163.08 216.169 149.51Z" fill="#FFFFFD"/>
<path d="M348.975 388.832L286.506 418.12C281.161 415.506 276.462 411.889 271.635 408.457L346.78 373.672C348.334 378.297 348.738 380.186 352.972 382.904L348.975 388.832Z" fill="#5BAAE2"/>
</svg>
