<svg width="618" height="488" viewBox="0 0 618 488" fill="none" xmlns="http://www.w3.org/2000/svg">
<path d="M381.414 196.326V96H401.001V196.326H381.414Z" fill="#FF9C2E"/>
<path d="M128 221.411V121.084H168.299C187.887 121.084 199.302 132.073 199.302 149.266C199.302 160.4 191.973 167.583 186.903 169.977C192.962 172.793 200.712 179.139 200.712 192.521C200.712 211.26 187.892 221.411 169.996 221.411H128ZM166.748 138.553H147.582V161.665H166.748C175.061 161.665 179.714 157.016 179.714 150.109C179.714 143.201 175.066 138.553 166.748 138.553ZM168.018 179.279H147.587V203.937H168.018C176.893 203.937 181.125 198.299 181.125 191.538C181.125 184.776 176.898 179.279 168.018 179.279Z" fill="#202020"/>
<path d="M253.161 180.263V221.411H233.714V180.263L203.56 121.079H224.839L243.578 161.519L262.036 121.079H283.315L253.161 180.263Z" fill="#202020"/>
<path d="M293.601 221.411V121.084H333.9C353.487 121.084 364.902 132.073 364.902 149.266C364.902 160.4 357.573 167.583 352.504 169.977C358.562 172.793 366.313 179.139 366.313 192.521C366.313 211.26 353.493 221.411 335.597 221.411H293.601ZM332.349 138.553H313.183V161.665H332.349C340.662 161.665 345.315 157.016 345.315 150.109C345.315 143.201 340.667 138.553 332.349 138.553ZM333.619 179.279H313.188V203.937H333.619C342.494 203.937 346.726 198.299 346.726 191.538C346.726 184.776 342.499 179.279 333.619 179.279Z" fill="#202020"/>
<path d="M464.016 138.558V221.416H444.429V138.558H418.22V121.084H490.225V138.558H464.016Z" fill="#202020"/>
<rect width="329.121" height="139" transform="translate(145 253)" fill="#9747FF"/>
<path d="M261.064 287.781L240.431 368.5H232.382L214.469 303.88L196.557 368.5H188.508L167.875 287.781H177.057L192.816 352.855L210.615 287.781H218.324L236.123 352.855L251.881 287.781H261.064ZM320.075 368.5H269.965V287.781H320.075V295.49H278.581V323.946H313.953V331.655H278.581V360.791H320.075V368.5ZM388.845 346.166C388.845 360.791 379.096 368.5 364.811 368.5H333.408V287.781H363.791C377.849 287.781 387.598 295.83 387.598 309.321C387.598 317.824 382.497 324.513 375.695 327.007C383.404 329.841 388.845 336.53 388.845 346.166ZM380.229 345.94C380.229 336.87 373.994 331.202 364.017 331.202H342.024V360.791H364.017C373.994 360.791 380.229 355.009 380.229 345.94ZM378.982 309.435C378.982 299.798 372.067 295.49 363.111 295.49H342.024V323.492H363.111C372.067 323.492 378.982 319.071 378.982 309.435ZM445.073 346.506C445.073 361.358 434.53 369.294 421.379 369.294C408.681 369.294 398.365 362.605 397.685 347.98H405.847C406.527 358.07 413.67 362.038 421.379 362.038C430.108 362.038 436.91 356.256 436.91 346.393C436.91 336.643 432.035 330.748 421.039 330.748H419.338V323.606H421.039C430.902 323.606 435.437 318.051 435.437 308.981C435.437 299.345 429.201 294.243 421.379 294.243C412.876 294.243 407.661 299.458 406.868 307.734H398.705C399.612 294.697 409.135 286.988 421.379 286.988C434.53 286.988 443.599 295.717 443.599 308.868C443.599 317.37 439.971 323.492 432.716 326.78C440.878 329.841 445.073 336.417 445.073 346.506Z" fill="white"/>
</svg>
