<svg preserveAspectRatio="xMidYMid meet" data-bbox="96.329 353.79 607.337 92.42" height="800" width="800" viewBox="96.329 353.79 607.337 92.42" xmlns="http://www.w3.org/2000/svg" data-type="color" role="presentation" aria-hidden="true" aria-label="">
    <g>
        <path d="M135.31 427.4c-3.09-.51-6-1.05-8.76-1.63 1.93 2.38 4.86 3.91 8.16 3.91h1.7c-.44-.72-.81-1.48-1.1-2.28z" fill="#fffaed" data-color="1"></path>
        <path d="M135.59 418.22c-10-11.84-21.01-26.98-23.74-38.97-2.9-.62-5.71.08-8.29 2.62-11.94 11.72 15.14 28.99 31.49 37.85.15-.51.33-1.01.54-1.5z" fill="#fffaed" data-color="1"></path>
        <path d="M134.56 423.36c-17.62-9.42-29.08-18.1-34.23-25.91-1.18.76-2.19 1.89-2.98 3.47-6.65 13.28 20.72 20.05 37.23 22.87 0-.14-.01-.29-.02-.43z" fill="#fffaed" data-color="1"></path>
        <path d="M139.07 413.6c-4.9-15.5-9.44-34.4-7.75-47.45-2.9-2.46-6.34-3.25-10.44-1.53-16.66 7.01 3.81 35.24 16.62 50.54.47-.56 1-1.09 1.57-1.56z" fill="#fffaed" data-color="1"></path>
        <path d="M189.13 381.87c-2.57-2.52-5.36-3.23-8.24-2.63 0 .01-.01.03-.01.04-.14.62-.3 1.26-.49 1.91-.1.36-.23.73-.35 1.1-.13.4-.26.8-.41 1.22-.14.38-.28.77-.43 1.16-.18.46-.37.92-.56 1.39-.17.4-.33.79-.51 1.2-.32.72-.66 1.45-1.03 2.19-.19.38-.39.76-.58 1.15-.27.52-.55 1.05-.84 1.59-.21.39-.42.78-.65 1.17-.37.65-.75 1.31-1.15 1.97-.17.28-.32.55-.49.84-.56.92-1.15 1.85-1.77 2.8-.23.36-.47.72-.71 1.08-.45.68-.92 1.37-1.4 2.07-.25.37-.5.73-.76 1.1-.64.91-1.29 1.82-1.98 2.76-.11.15-.2.29-.31.43-.79 1.07-1.62 2.17-2.48 3.28-.26.34-.53.68-.8 1.03-.65.84-1.32 1.68-2.01 2.54l-.84 1.05c-.79.97-1.61 1.96-2.44 2.95.32.59.58 1.22.81 1.86 16.42-9 42.11-25.78 30.43-37.25z" fill="#fffaed" data-color="1"></path>
        <path d="M158.7 427.17c-.3.88-.7 1.72-1.19 2.5h.61c3.32 0 6.26-1.55 8.19-3.94-2.41.51-4.95.99-7.61 1.44z" fill="#fffaed" data-color="1"></path>
        <path d="M195.33 400.92c-.79-1.58-1.8-2.71-2.98-3.47-5.04 7.61-16.09 16.07-33 25.25.01.16.02.31.02.47 0 .14-.02.27-.02.41 16.61-2.95 42.47-9.7 35.98-22.66z" fill="#fffaed" data-color="1"></path>
        <path d="M153.84 412.84c.7.47 1.35 1.01 1.95 1.61 12.83-15.45 32.44-42.93 16.03-49.83-4.11-1.73-7.56-.93-10.46 1.54 1.65 12.87-2.73 31.4-7.52 46.68z" fill="#fffaed" data-color="1"></path>
        <path fill="#fffaed" d="M155.42 423.16a8.46 8.46 0 1 1-16.92 0 8.46 8.46 0 0 1 16.92 0z" data-color="1"></path>
        <path d="M146.96 410.76c1.31 0 2.57.21 3.75.58 6.32-20.32 15.22-57.55-4.38-57.55-19.74 0-10.57 37.75-4.25 57.97 1.5-.65 3.15-1 4.88-1z" fill="#fffaed" data-color="1"></path>
        <path d="M278.3 386.39c4.36 0 4.9-.53 4.9 4.38v2.19c0 .72.96.99 1.33.37 1.83-3.08 3.62-6.22 4.94-8.56v-3c0-.64-.64-.73-1.09-.45-3.09 1.45-6.72 2.54-9.99 3.45-1.45.35-1 1.62-.09 1.62z" fill="#fffaed" data-color="1"></path>
        <path d="M310.98 383.75a13.86 13.86 0 0 0-8.17-2.63c-5.27 0-10.53 2.9-13.34 7.9V389c-1.81 3.17-4.13 7.02-6.26 10.47v17.87c0 4.81-2.63 3.99-5.72 4.54-.82.18-.82 1.54.09 1.54h17.52c.91 0 .91-1.36.09-1.54-3.09-.54-5.72.27-5.72-4.54v-21.33c0-6.9 6.26-11.89 11.53-11.89 2.54 0 4.81 1.18 5.99 4.09.73 1.82 1.91 2.54 3.09 2.54 2.72-.01 5.26-3.82.9-7z" fill="#fffaed" data-color="1"></path>
        <path d="M367.44 383.21c-3 .54-6.08 0-7.99 4.54v-.18c-1.45 3.54-2.9 6.99-4.36 10.53l-8.81 20.88c-1.45 3.54-2.9 6.99-4.36 10.53-2.72 6.44-6.9 11.17-13.98 11.17-4.9 0-8.35-2.54-9.9-5.36-1.72-3.27.27-5.36 2.36-5.36 1.36 0 2.72.91 3.09 2.9.54 3.18 1.91 5.08 5.27 5.08 6.17 0 8.99-5.54 11.07-10.44 1.09-2.81 0-5.27-.73-6.9l-13.89-33.13c-1.91-4.45-4.9-3.72-7.9-4.27-.91-.09-.91-1.45.09-1.45h18.79c.91 0 .91 1.36.09 1.45-2.9.54-5.54.18-4.36 3.63 4.63 10.98 5.72 14.25 11.44 27.69.54 1.36 1.18 1.36 1.72 0l11.62-27.6c1.27-3.63-2.81-3.18-5.81-3.72-.82-.09-.82-1.45.09-1.45h16.34c1.03.01 1.03 1.37.12 1.46z" fill="#fffaed" data-color="1"></path>
        <path d="M414.91 402.36c0 12.53-7.99 21.97-20.79 21.97-5.54 0-9.71-2.09-12.26-5.17v20.88c0 4.81 2.72 4.09 5.72 4.63.91.09.91 1.54-.09 1.54h-17.43c-.91 0-1-1.45-.09-1.54 3.09-.54 5.72.18 5.72-4.63v-48.29c0-4.9-.64-4.81-4.9-4.81-.91 0-1.36-1.27.09-1.63 3.27-.91 6.9-1.91 9.99-3.45.45-.27 1-.18 1 .45v4.27c3.36-3.72 8.08-5.45 14.07-5.45 11.89-.01 18.97 9.34 18.97 21.23zm-6.81.46c.27-9.71-4.45-19.15-14.98-19.15-5.72 0-11.26 4.09-11.26 7.72V410c0 9.17 5.99 12.25 11.53 12.16 8.81-.01 14.44-9.72 14.71-19.34z" fill="#fffaed" data-color="1"></path>
        <path d="M442.05 421.97c-3.09 1.54-6.54 2.54-9.53 2.54-4.9 0-8.9-2.72-8.81-10.26v-30.14h-5.81c-1.54 0-1.54-2 0-2 6.9-.09 9.35-2 9.8-12.25 0-.73.54-1.09 1.09-1.09.54 0 1.09.36 1.09 1.09v12.25h6.81c1.63 0 1.63 2 0 2h-6.81v29.96c0 5.45 1.82 7.54 5.18 7.54 1.72 0 3.81-.55 6.26-1.54 1.46-.64 2.27 1.18.73 1.9z" fill="#fffaed" data-color="1"></path>
        <path d="M465.74 424.33c-27.96 0-27.96-43.21 0-43.21 28.05 0 28.05 43.21 0 43.21zm0-41.39c-18.97 0-18.88 39.58 0 39.58s18.97-39.58 0-39.58z" fill="#fffaed" data-color="1"></path>
        <path d="M638.19 423.42h-17.52c-.91 0-.91-1.36-.09-1.54 3.09-.54 5.72.27 5.72-4.54v-24.15c0-5.9-4.81-8.62-10.17-8.62-6.26 0-13.25 3.9-13.25 11.17v21.61c0 4.81 2.63 3.99 5.72 4.54.91.18.82 1.54-.09 1.54h-17.43c-1 0-1-1.36-.09-1.54 3-.54 5.63.27 5.63-4.54V391.2c0-4.9-.55-4.81-4.9-4.81-.91 0-1.36-1.27.09-1.63 3.36-.91 6.99-2 9.99-3.45.45-.27 1.09-.18 1.09.45v6.9c3.18-5.08 9.26-7.53 15.07-7.53 7.53 0 14.62 4.09 14.62 12.07v24.15c0 4.81 2.63 3.99 5.72 4.54.8.17.8 1.53-.11 1.53z" fill="#fffaed" data-color="1"></path>
        <path d="M680.31 423.42c-1 .27-2.09.45-3.18.45-3 0-5.9-1.18-5.9-5.17v-4.54c-2.09 5.45-7.08 10.08-16.16 10.08-8.08 0-12.53-4.99-12.53-10.26.09-10.89 12.53-13.07 21.24-13.53 4.27-.27 7.44-.09 7.44-.73v-7.17c0-6.36-5.36-9.08-10.89-9.08-2.36 0-4.63.45-6.63 1.36-3.63 1.82-3.36 5.36-2.27 7.81 1.27 3-.73 4.99-2.72 4.99-1.72 0-3.45-1.36-3.54-4.63 0-.73.18-1.45.45-2.27v-.18c.09-.18.18-.36.27-.55.27-.82.64-1.72 1.18-2.36.36-.54.73-1 1.09-1.45.09-.09.09-.09.18-.09.27-.45.64-.73 1-1 3.27-2.72 7.9-4.09 12.44-4.09 7.9 0 15.61 3.99 15.61 11.53v25.05c0 3.72 1.09 4.36 2.81 4.36.92.02 1.11 1.2.11 1.47zm-9.08-18.61V402c-7.81 0-21.61.73-21.61 12.07 0 3.99 2.81 7.26 7.35 7.26 5.54.01 13.99-3.35 14.26-16.52z" fill="#fffaed" data-color="1"></path>
        <path d="M702.91 423.42h-17.43c-.91 0-1-1.36-.09-1.54 3.09-.54 5.72.27 5.72-4.54v-48.39c0-4.81-.64-4.81-4.9-4.81-.91 0-1.36-1.18.09-1.63 3.27-.82 6.9-1.91 9.9-3.36.54-.27 1.09-.27 1.09.36v57.83c0 4.81 2.72 3.99 5.72 4.54.89.18.89 1.54-.1 1.54z" fill="#fffaed" data-color="1"></path>
        <path d="M288.83 390.23c-.44.78-.93 1.53-1.39 2.29-.47.78-.94 1.56-1.41 2.35-.95 1.58-1.91 3.16-2.89 4.72-.99 1.57-2 3.11-3.06 4.63a70.568 70.568 0 0 1-3.32 4.41 48.44 48.44 0 0 1-3.67 4.04 39.96 39.96 0 0 1-4.14 3.55 34.517 34.517 0 0 1-5.15 3.19c-.86.43-1.72.82-2.63 1.13-.73.25-1.48.46-2.23.63-1.76.41-3.55.64-5.35.74-.8.05-1.61.07-2.41.07-31.77 0-31.05-54.83 0-54.83 3 0 6.81.27 9.71 1.27 5.9 2.72 4.9 5.72 6.08 8.08 1 1.91 2.45 2.63 3.72 2.63 2.63 0 4.9-3.27 2-6.72-1.63-1.91-6.72-4.99-9.26-5.54-3.54-1.27-7.63-2.09-12.25-2.09-41.67 0-41.67 59.46 0 59.46 2.05 0 4.11-.15 6.13-.49 1.96-.33 3.89-.85 5.74-1.57 1.81-.71 3.54-1.6 5.19-2.62 1.45-.9 2.84-1.91 4.15-3a43.76 43.76 0 0 0 3.7-3.51c1.17-1.25 2.27-2.56 3.31-3.91 1.05-1.37 2.04-2.78 2.98-4.22a95.19 95.19 0 0 0 2.72-4.42c.87-1.49 1.71-3 2.52-4.52.81-1.5 1.6-3.01 2.39-4.52.08-.16.16-.31.25-.47.44-.93-.93-1.63-1.43-.76z" fill="#fffaed" data-color="1"></path>
        <path d="M585.81 421.97c-1.72 0-2.81-.64-2.81-4.36v-25.05c0-7.54-7.72-11.53-15.61-11.53-4.54 0-9.17 1.36-12.44 4.09-.36.27-.73.54-1 1-.09 0-.09 0-.18.09-.36.45-.73.91-1.09 1.45-.54.63-.91 1.54-1.18 2.36-.09.18-.18.36-.27.55v.18c-.27.82-.45 1.54-.45 2.27.09 3.27 1.82 4.63 3.54 4.63 2 0 3.99-2 2.72-4.99-1.09-2.45-1.36-5.99 2.27-7.81 2-.91 4.27-1.36 6.63-1.36 5.54 0 10.89 2.72 10.89 9.08v7.17c0 .29-.58.35-.77.38-.7.11-1.42.13-2.13.15-2.69.1-5.38.23-8.06.43-1.77.13-3.54.43-5.24.95-2.38.72-4.68 1.69-6.81 2.99-3.75 2.28-6.46 5.67-9.49 8.77-3.12 3.18-6.63 5.75-10.9 7.12-4.15 1.33-8.65 1.77-12.96 1.09-1.93-.31-3.83-.85-5.61-1.67-4.24-1.96-7.63-5.34-9.92-9.38-2.36-4.16-3.58-8.93-3.86-13.69-.28-4.83.4-9.75 2.13-14.28 1.66-4.33 4.34-8.32 8.05-11.15 3.83-2.91 8.53-4.3 13.31-4.3 3 0 6.81.27 9.71 1.27 5.9 2.72 4.9 5.72 6.08 8.08 1 1.91 2.45 2.63 3.72 2.63 2.63 0 4.9-3.27 2-6.72-1.63-1.91-6.72-4.99-9.26-5.54-3.54-1.27-7.63-2.09-12.25-2.09-41.67 0-41.67 59.46 0 59.46 2.95 0 5.92-.37 8.82-1.12 1.82-.48 3.6-1.1 5.31-1.89 2.62-1.22 5.06-2.83 7.27-4.69 2.18-1.83 3.97-4.03 6.08-5.93 1.61-1.45 3.32-2.78 5.15-3.94 2.58-1.64 5.39-2.91 8.36-3.63 1.1-.27 2.22-.47 3.34-.62.46-.06.91-.12 1.37-.16 1.21-.11 2.43-.09 3.64-.19.23-.02 2.92-.1 2.92-.07v2.81c-.27 13.16-8.71 16.52-14.25 16.52-3.93 0-6.56-2.46-7.2-5.71-.12-.59-.1-1.23-.08-1.84.01-.23.02-.46.05-.68.02-.17.07-.34.03-.51a.719.719 0 0 0-1.23-.31c-1.1 1.23-2.29 2.37-3.32 3.55-.66.74-1.29 1.46-1.84 2.13 1.69 3.51 5.76 6.27 11.68 6.27 9.08 0 14.07-4.63 16.16-10.08v4.54c0 3.99 2.91 5.17 5.9 5.17 1.09 0 2.18-.18 3.18-.45.99-.26.81-1.44-.1-1.44z" fill="#fffaed" data-color="1"></path>
    </g>
</svg>