<svg width="650" height="306" viewBox="0 0 650 306" fill="none" xmlns="http://www.w3.org/2000/svg">
<path d="M445.568 271.677H469.604V244.304H445.568V271.677Z" fill="#FEF3C9" style="fill:#FEF3C9;fill:color(display-p3 0.9961 0.9529 0.7882);fill-opacity:1;"/>
<path d="M447.904 269.341H467.268V246.641H447.904V269.341ZM469.604 274.014H445.566C444.277 274.014 443.23 272.968 443.23 271.677V244.305C443.23 243.015 444.277 241.968 445.566 241.968H469.604C470.894 241.968 471.94 243.015 471.94 244.305V271.677C471.94 272.968 470.894 274.014 469.604 274.014Z" fill="#665E97" style="fill:#665E97;fill:color(display-p3 0.4000 0.3686 0.5922);fill-opacity:1;"/>
<path d="M143.505 271.677H167.541V244.304H143.505V271.677Z" fill="#FEF3C9" style="fill:#FEF3C9;fill:color(display-p3 0.9961 0.9529 0.7882);fill-opacity:1;"/>
<path d="M145.841 269.341H165.205V246.641H145.841V269.341ZM167.541 274.014H143.505C142.214 274.014 141.168 272.968 141.168 271.677V244.305C141.168 243.015 142.214 241.968 143.505 241.968H167.541C168.832 241.968 169.878 243.015 169.878 244.305V271.677C169.878 272.968 168.832 274.014 167.541 274.014Z" fill="#665E97" style="fill:#665E97;fill:color(display-p3 0.4000 0.3686 0.5922);fill-opacity:1;"/>
<path d="M430.213 271.677H451.596V244.304H430.213V271.677Z" fill="#ECDEA3" style="fill:#ECDEA3;fill:color(display-p3 0.9255 0.8706 0.6392);fill-opacity:1;"/>
<path d="M432.551 269.341H449.259V246.641H432.551V269.341ZM451.595 274.014H430.213C428.923 274.014 427.877 272.968 427.877 271.677V244.305C427.877 243.015 428.923 241.968 430.213 241.968H451.595C452.885 241.968 453.932 243.015 453.932 244.305V271.677C453.932 272.968 452.885 274.014 451.595 274.014Z" fill="#665E97" style="fill:#665E97;fill:color(display-p3 0.4000 0.3686 0.5922);fill-opacity:1;"/>
<path d="M161.513 271.677H182.894V244.304H161.513V271.677Z" fill="#ECDEA3" style="fill:#ECDEA3;fill:color(display-p3 0.9255 0.8706 0.6392);fill-opacity:1;"/>
<path d="M163.849 269.341H180.558V246.641H163.849V269.341ZM182.894 274.014H161.513C160.222 274.014 159.177 272.968 159.177 271.677V244.305C159.177 243.015 160.222 241.968 161.513 241.968H182.894C184.185 241.968 185.23 243.015 185.23 244.305V271.677C185.23 272.968 184.185 274.014 182.894 274.014Z" fill="#665E97" style="fill:#665E97;fill:color(display-p3 0.4000 0.3686 0.5922);fill-opacity:1;"/>
<path d="M366.24 131.107V63.5734H246.868V131.107L153.109 130.909V244.304H193.242V173.973C193.242 161.407 203.43 151.22 215.996 151.22C228.562 151.22 238.75 161.407 238.75 173.973V244.304H275.225V125.367C275.225 108.064 289.252 94.0387 306.554 94.0387C323.857 94.0387 337.884 108.064 337.884 125.367V244.304H374.358V173.973C374.358 161.407 384.545 151.22 397.112 151.22C409.678 151.22 419.865 161.407 419.865 173.973V244.304H459.998V130.909L366.24 131.107Z" fill="#ECDEA3" style="fill:#ECDEA3;fill:color(display-p3 0.9255 0.8706 0.6392);fill-opacity:1;"/>
<path d="M422.202 241.968H457.662V133.249L366.245 133.443C366.244 133.443 366.242 133.443 366.24 133.443C365.621 133.443 365.028 133.197 364.59 132.76C364.15 132.321 363.904 131.727 363.904 131.107V65.9094H249.205V131.107C249.205 131.727 248.958 132.321 248.518 132.76C248.081 133.197 247.488 133.443 246.869 133.443C246.868 133.443 246.865 133.443 246.864 133.443L155.446 133.249V241.968H190.906V173.973C190.906 160.139 202.162 148.883 215.997 148.883C229.832 148.883 241.086 160.139 241.086 173.973V241.968H272.889V125.368C272.889 106.804 287.992 91.7014 306.554 91.7014C325.117 91.7014 340.22 106.804 340.22 125.368V241.968H372.022V173.973C372.022 160.139 383.277 148.883 397.112 148.883C410.946 148.883 422.202 160.139 422.202 173.973V241.968ZM459.998 246.641H419.866C418.576 246.641 417.529 245.595 417.529 244.305V173.973C417.529 162.716 408.369 153.556 397.112 153.556C385.853 153.556 376.694 162.716 376.694 173.973V244.305C376.694 245.595 375.649 246.641 374.358 246.641H337.884C336.593 246.641 335.546 245.595 335.546 244.305V125.368C335.546 109.381 322.541 96.3747 306.554 96.3747C290.566 96.3747 277.561 109.381 277.561 125.368V244.305C277.561 245.595 276.516 246.641 275.225 246.641H238.75C237.46 246.641 236.413 245.595 236.413 244.305V173.973C236.413 162.716 227.254 153.556 215.997 153.556C204.738 153.556 195.578 162.716 195.578 173.973V244.305C195.578 245.595 194.533 246.641 193.242 246.641H153.109C151.819 246.641 150.773 245.595 150.773 244.305V130.908C150.773 130.288 151.02 129.693 151.459 129.255C151.897 128.817 152.491 128.572 153.109 128.572C153.111 128.572 153.112 128.572 153.114 128.572L244.532 128.765V63.5734C244.532 62.2827 245.578 61.2374 246.869 61.2374H366.24C367.53 61.2374 368.577 62.2827 368.577 63.5734V128.765L459.994 128.572C459.996 128.572 459.997 128.572 459.998 128.572C460.618 128.572 461.21 128.817 461.649 129.255C462.088 129.693 462.336 130.288 462.336 130.908V244.305C462.336 245.595 461.289 246.641 459.998 246.641Z" fill="#665E97" style="fill:#665E97;fill:color(display-p3 0.4000 0.3686 0.5922);fill-opacity:1;"/>
<path d="M460 130.909H360.752V121.22H468.232L460 130.909Z" fill="#FEE993" style="fill:#FEE993;fill:color(display-p3 0.9961 0.9137 0.5765);fill-opacity:1;"/>
<path d="M363.088 128.572H458.918L463.18 123.557H363.088V128.572ZM459.998 133.245H360.752C359.461 133.245 358.416 132.199 358.416 130.908V121.221C358.416 119.931 359.461 118.885 360.752 118.885H468.232C469.142 118.885 469.97 119.415 470.352 120.24C470.734 121.068 470.601 122.04 470.012 122.735L461.78 132.423C461.334 132.944 460.684 133.245 459.998 133.245Z" fill="#665E97" style="fill:#665E97;fill:color(display-p3 0.4000 0.3686 0.5922);fill-opacity:1;"/>
<path d="M433.472 131.107V237.192H443.535V131.107H433.472Z" fill="#FEF3C9" style="fill:#FEF3C9;fill:color(display-p3 0.9961 0.9529 0.7882);fill-opacity:1;"/>
<path d="M435.809 234.856H441.198V133.443H435.809V234.856ZM443.534 239.528H433.472C432.181 239.528 431.136 238.483 431.136 237.192V131.107C431.136 129.816 432.181 128.771 433.472 128.771H443.534C444.825 128.771 445.87 129.816 445.87 131.107V237.192C445.87 238.483 444.825 239.528 443.534 239.528Z" fill="#665E97" style="fill:#665E97;fill:color(display-p3 0.4000 0.3686 0.5922);fill-opacity:1;"/>
<path d="M429.698 244.304V237.192H447.308V244.304H429.698Z" fill="#FEF3C9" style="fill:#FEF3C9;fill:color(display-p3 0.9961 0.9529 0.7882);fill-opacity:1;"/>
<path d="M432.035 241.968H444.971V239.528H432.035V241.968ZM447.308 246.641H429.699C428.408 246.641 427.363 245.595 427.363 244.305V237.192C427.363 235.903 428.408 234.856 429.699 234.856H447.308C448.597 234.856 449.644 235.903 449.644 237.192V244.305C449.644 245.595 448.597 246.641 447.308 246.641Z" fill="#665E97" style="fill:#665E97;fill:color(display-p3 0.4000 0.3686 0.5922);fill-opacity:1;"/>
<path d="M430.728 146.357L433.472 156.082H443.534L446.278 146.357H430.728Z" fill="#FEF3C9" style="fill:#FEF3C9;fill:color(display-p3 0.9961 0.9529 0.7882);fill-opacity:1;"/>
<path d="M435.241 153.745H441.767L443.192 148.693H433.816L435.241 153.745ZM443.535 158.419H433.472C432.427 158.419 431.508 157.723 431.224 156.716L428.48 146.991C428.281 146.287 428.424 145.531 428.867 144.947C429.307 144.363 429.997 144.02 430.728 144.02H446.279C447.009 144.02 447.7 144.363 448.141 144.947C448.583 145.531 448.725 146.287 448.527 146.991L445.782 156.716C445.498 157.723 444.58 158.419 443.535 158.419Z" fill="#665E97" style="fill:#665E97;fill:color(display-p3 0.4000 0.3686 0.5922);fill-opacity:1;"/>
<path d="M433.472 131.107L427.984 121.023H449.022L443.534 131.107H433.472Z" fill="#FEF3C9" style="fill:#FEF3C9;fill:color(display-p3 0.9961 0.9529 0.7882);fill-opacity:1;"/>
<path d="M434.861 128.771H442.145L445.09 123.359H431.916L434.861 128.771ZM443.534 133.443H433.472C432.617 133.443 431.829 132.975 431.421 132.223L425.932 122.139C425.538 121.415 425.554 120.536 425.974 119.828C426.396 119.12 427.16 118.685 427.984 118.685H449.022C449.846 118.685 450.609 119.119 451.03 119.828C451.452 120.536 451.468 121.415 451.074 122.139L445.586 132.223C445.177 132.975 444.389 133.443 443.534 133.443Z" fill="#665E97" style="fill:#665E97;fill:color(display-p3 0.4000 0.3686 0.5922);fill-opacity:1;"/>
<path d="M438.504 102.843C435.725 102.843 433.472 105.095 433.472 107.873V119.821H443.535V107.873C443.535 105.095 441.281 102.843 438.504 102.843Z" fill="#FFF8DE" style="fill:#FFF8DE;fill:color(display-p3 1.0000 0.9725 0.8706);fill-opacity:1;"/>
<path d="M435.809 117.485H441.198V107.873C441.198 106.388 439.989 105.179 438.504 105.179C437.017 105.179 435.809 106.388 435.809 107.873V117.485ZM443.534 122.159H433.472C432.181 122.159 431.136 121.112 431.136 119.821V107.873C431.136 103.811 434.441 100.505 438.504 100.505C442.565 100.505 445.87 103.811 445.87 107.873V119.821C445.87 121.112 444.825 122.159 443.534 122.159Z" fill="#665E97" style="fill:#665E97;fill:color(display-p3 0.4000 0.3686 0.5922);fill-opacity:1;"/>
<path d="M153.109 130.909H252.357V121.22H144.877L153.109 130.909Z" fill="#FEE993" style="fill:#FEE993;fill:color(display-p3 0.9961 0.9137 0.5765);fill-opacity:1;"/>
<path d="M154.19 128.572H250.02V123.557H149.928L154.19 128.572ZM252.357 133.245H153.109C152.424 133.245 151.773 132.944 151.329 132.423L143.096 122.735C142.507 122.04 142.374 121.068 142.756 120.24C143.138 119.415 143.966 118.885 144.876 118.885H252.357C253.648 118.885 254.693 119.931 254.693 121.221V130.908C254.693 132.199 253.648 133.245 252.357 133.245Z" fill="#665E97" style="fill:#665E97;fill:color(display-p3 0.4000 0.3686 0.5922);fill-opacity:1;"/>
<path d="M179.636 131.107V237.192H169.574V131.107H179.636Z" fill="#FEF3C9" style="fill:#FEF3C9;fill:color(display-p3 0.9961 0.9529 0.7882);fill-opacity:1;"/>
<path d="M171.91 234.856H177.3V133.443H171.91V234.856ZM179.636 239.528H169.574C168.283 239.528 167.238 238.483 167.238 237.192V131.107C167.238 129.816 168.283 128.771 169.574 128.771H179.636C180.927 128.771 181.972 129.816 181.972 131.107V237.192C181.972 238.483 180.927 239.528 179.636 239.528Z" fill="#665E97" style="fill:#665E97;fill:color(display-p3 0.4000 0.3686 0.5922);fill-opacity:1;"/>
<path d="M183.409 244.304V237.192H165.801V244.304H183.409Z" fill="#FEF3C9" style="fill:#FEF3C9;fill:color(display-p3 0.9961 0.9529 0.7882);fill-opacity:1;"/>
<path d="M168.138 241.968H181.074V239.528H168.138V241.968ZM183.409 246.641H165.801C164.51 246.641 163.465 245.595 163.465 244.305V237.192C163.465 235.903 164.51 234.856 165.801 234.856H183.409C184.7 234.856 185.746 235.903 185.746 237.192V244.305C185.746 245.595 184.7 246.641 183.409 246.641Z" fill="#665E97" style="fill:#665E97;fill:color(display-p3 0.4000 0.3686 0.5922);fill-opacity:1;"/>
<path d="M182.38 146.357L179.636 156.082H169.574L166.83 146.357H182.38Z" fill="#FEF3C9" style="fill:#FEF3C9;fill:color(display-p3 0.9961 0.9529 0.7882);fill-opacity:1;"/>
<path d="M171.342 153.745H177.868L179.294 148.693H169.917L171.342 153.745ZM179.636 158.419H169.574C168.528 158.419 167.609 157.723 167.325 156.716L164.581 146.991C164.383 146.287 164.526 145.531 164.968 144.947C165.408 144.363 166.098 144.02 166.83 144.02H182.381C183.112 144.02 183.802 144.363 184.244 144.947C184.685 145.531 184.828 146.287 184.629 146.991L181.885 156.716C181.6 157.723 180.681 158.419 179.636 158.419Z" fill="#665E97" style="fill:#665E97;fill:color(display-p3 0.4000 0.3686 0.5922);fill-opacity:1;"/>
<path d="M179.636 131.107L185.124 121.023H164.086L169.574 131.107H179.636Z" fill="#FEF3C9" style="fill:#FEF3C9;fill:color(display-p3 0.9961 0.9529 0.7882);fill-opacity:1;"/>
<path d="M170.962 128.771H178.247L181.193 123.359H168.017L170.962 128.771ZM179.636 133.443H169.574C168.718 133.443 167.931 132.975 167.522 132.223L162.034 122.139C161.64 121.415 161.657 120.536 162.078 119.828C162.499 119.119 163.262 118.685 164.086 118.685H185.125C185.949 118.685 186.712 119.12 187.133 119.828C187.554 120.536 187.57 121.415 187.176 122.139L181.688 132.223C181.279 132.975 180.491 133.443 179.636 133.443Z" fill="#665E97" style="fill:#665E97;fill:color(display-p3 0.4000 0.3686 0.5922);fill-opacity:1;"/>
<path d="M174.605 102.843C177.384 102.843 179.636 105.095 179.636 107.873V119.821H169.574V107.873C169.574 105.095 171.827 102.843 174.605 102.843Z" fill="#FFF8DE" style="fill:#FFF8DE;fill:color(display-p3 1.0000 0.9725 0.8706);fill-opacity:1;"/>
<path d="M171.91 117.485H177.3V107.873C177.3 106.388 176.091 105.179 174.605 105.179C173.119 105.179 171.91 106.388 171.91 107.873V117.485ZM179.636 122.159H169.574C168.283 122.159 167.238 121.112 167.238 119.821V107.873C167.238 103.811 170.543 100.505 174.605 100.505C178.667 100.505 181.972 103.811 181.972 107.873V119.821C181.972 121.112 180.927 122.159 179.636 122.159Z" fill="#665E97" style="fill:#665E97;fill:color(display-p3 0.4000 0.3686 0.5922);fill-opacity:1;"/>
<path d="M252.357 131.107V237.192H262.419V131.107H252.357Z" fill="#FEF3C9" style="fill:#FEF3C9;fill:color(display-p3 0.9961 0.9529 0.7882);fill-opacity:1;"/>
<path d="M254.693 234.856H260.082V133.443H254.693V234.856ZM262.418 239.528H252.357C251.066 239.528 250.02 238.483 250.02 237.192V131.107C250.02 129.816 251.066 128.771 252.357 128.771H262.418C263.709 128.771 264.754 129.816 264.754 131.107V237.192C264.754 238.483 263.709 239.528 262.418 239.528Z" fill="#665E97" style="fill:#665E97;fill:color(display-p3 0.4000 0.3686 0.5922);fill-opacity:1;"/>
<path d="M248.584 244.304V237.192H266.192V244.304H248.584Z" fill="#FEF3C9" style="fill:#FEF3C9;fill:color(display-p3 0.9961 0.9529 0.7882);fill-opacity:1;"/>
<path d="M250.92 241.968H263.856V239.528H250.92V241.968ZM266.192 246.641H248.584C247.293 246.641 246.248 245.595 246.248 244.305V237.192C246.248 235.903 247.293 234.856 248.584 234.856H266.192C267.482 234.856 268.529 235.903 268.529 237.192V244.305C268.529 245.595 267.482 246.641 266.192 246.641Z" fill="#665E97" style="fill:#665E97;fill:color(display-p3 0.4000 0.3686 0.5922);fill-opacity:1;"/>
<path d="M249.613 146.357L252.357 156.082H262.418L265.162 146.357H249.613Z" fill="#FEF3C9" style="fill:#FEF3C9;fill:color(display-p3 0.9961 0.9529 0.7882);fill-opacity:1;"/>
<path d="M254.125 153.745H260.651L262.076 148.693H252.7L254.125 153.745ZM262.419 158.419H252.357C251.311 158.419 250.392 157.723 250.108 156.716L247.364 146.991C247.165 146.287 247.308 145.531 247.751 144.947C248.192 144.363 248.881 144.02 249.613 144.02H265.163C265.895 144.02 266.584 144.363 267.025 144.947C267.467 145.531 267.611 146.287 267.412 146.991L264.668 156.716C264.383 157.723 263.464 158.419 262.419 158.419Z" fill="#665E97" style="fill:#665E97;fill:color(display-p3 0.4000 0.3686 0.5922);fill-opacity:1;"/>
<path d="M252.357 131.107L246.868 121.023H267.907L262.419 131.107H252.357Z" fill="#FEF3C9" style="fill:#FEF3C9;fill:color(display-p3 0.9961 0.9529 0.7882);fill-opacity:1;"/>
<path d="M253.745 128.771H261.029L263.976 123.359H250.8L253.745 128.771ZM262.418 133.443H252.357C251.501 133.443 250.714 132.975 250.305 132.223L244.817 122.139C244.422 121.415 244.44 120.536 244.86 119.828C245.281 119.119 246.044 118.685 246.869 118.685H267.908C268.732 118.685 269.494 119.12 269.916 119.828C270.337 120.536 270.353 121.415 269.958 122.139L264.47 132.223C264.061 132.975 263.274 133.443 262.418 133.443Z" fill="#665E97" style="fill:#665E97;fill:color(display-p3 0.4000 0.3686 0.5922);fill-opacity:1;"/>
<path d="M257.388 102.843C254.609 102.843 252.357 105.095 252.357 107.873V119.821H262.419V107.873C262.419 105.095 260.167 102.843 257.388 102.843Z" fill="#FFF8DE" style="fill:#FFF8DE;fill:color(display-p3 1.0000 0.9725 0.8706);fill-opacity:1;"/>
<path d="M254.693 117.485H260.082V107.873C260.082 106.388 258.873 105.179 257.388 105.179C255.901 105.179 254.693 106.388 254.693 107.873V117.485ZM262.418 122.159H252.357C251.066 122.159 250.02 121.112 250.02 119.821V107.873C250.02 103.811 253.325 100.505 257.388 100.505C261.449 100.505 264.754 103.811 264.754 107.873V119.821C264.754 121.112 263.709 122.159 262.418 122.159Z" fill="#665E97" style="fill:#665E97;fill:color(display-p3 0.4000 0.3686 0.5922);fill-opacity:1;"/>
<path d="M350.689 131.107V237.192H360.752V131.107H350.689Z" fill="#FEF3C9" style="fill:#FEF3C9;fill:color(display-p3 0.9961 0.9529 0.7882);fill-opacity:1;"/>
<path d="M353.027 234.856H358.416V133.443H353.027V234.856ZM360.752 239.528H350.689C349.4 239.528 348.353 238.483 348.353 237.192V131.107C348.353 129.816 349.4 128.771 350.689 128.771H360.752C362.043 128.771 363.088 129.816 363.088 131.107V237.192C363.088 238.483 362.043 239.528 360.752 239.528Z" fill="#665E97" style="fill:#665E97;fill:color(display-p3 0.4000 0.3686 0.5922);fill-opacity:1;"/>
<path d="M346.916 244.304V237.192H364.525V244.304H346.916Z" fill="#FEF3C9" style="fill:#FEF3C9;fill:color(display-p3 0.9961 0.9529 0.7882);fill-opacity:1;"/>
<path d="M349.252 241.968H362.188V239.528H349.252V241.968ZM364.525 246.641H346.916C345.625 246.641 344.58 245.595 344.58 244.305V237.192C344.58 235.903 345.625 234.856 346.916 234.856H364.525C365.816 234.856 366.861 235.903 366.861 237.192V244.305C366.861 245.595 365.816 246.641 364.525 246.641Z" fill="#665E97" style="fill:#665E97;fill:color(display-p3 0.4000 0.3686 0.5922);fill-opacity:1;"/>
<path d="M347.945 146.357L350.689 156.082H360.752L363.496 146.357H347.945Z" fill="#FEF3C9" style="fill:#FEF3C9;fill:color(display-p3 0.9961 0.9529 0.7882);fill-opacity:1;"/>
<path d="M352.458 153.745H358.984L360.409 148.693H351.033L352.458 153.745ZM360.752 158.419H350.689C349.644 158.419 348.725 157.723 348.441 156.716L345.697 146.991C345.498 146.287 345.641 145.531 346.084 144.947C346.524 144.363 347.214 144.02 347.946 144.02H363.496C364.228 144.02 364.917 144.363 365.358 144.947C365.8 145.531 365.942 146.287 365.744 146.991L363 156.716C362.716 157.723 361.797 158.419 360.752 158.419Z" fill="#665E97" style="fill:#665E97;fill:color(display-p3 0.4000 0.3686 0.5922);fill-opacity:1;"/>
<path d="M350.689 131.107L345.201 121.023H366.24L360.752 131.107H350.689Z" fill="#FEF3C9" style="fill:#FEF3C9;fill:color(display-p3 0.9961 0.9529 0.7882);fill-opacity:1;"/>
<path d="M352.079 128.771H359.362L362.308 123.359H349.133L352.079 128.771ZM360.752 133.443H350.689C349.834 133.443 349.046 132.975 348.638 132.223L343.149 122.139C342.756 121.415 342.772 120.536 343.193 119.828C343.614 119.12 344.377 118.685 345.201 118.685H366.24C367.064 118.685 367.827 119.119 368.248 119.828C368.669 120.536 368.685 121.415 368.292 122.139L362.804 132.223C362.394 132.975 361.608 133.443 360.752 133.443Z" fill="#665E97" style="fill:#665E97;fill:color(display-p3 0.4000 0.3686 0.5922);fill-opacity:1;"/>
<path d="M355.721 102.843C352.943 102.843 350.689 105.095 350.689 107.873V119.821H360.752V107.873C360.752 105.095 358.499 102.843 355.721 102.843Z" fill="#FFF8DE" style="fill:#FFF8DE;fill:color(display-p3 1.0000 0.9725 0.8706);fill-opacity:1;"/>
<path d="M353.027 117.485H358.416V107.873C358.416 106.388 357.207 105.179 355.721 105.179C354.235 105.179 353.027 106.388 353.027 107.873V117.485ZM360.752 122.159H350.689C349.4 122.159 348.353 121.112 348.353 119.821V107.873C348.353 103.811 351.659 100.505 355.721 100.505C359.783 100.505 363.088 103.811 363.088 107.873V119.821C363.088 121.112 362.043 122.159 360.752 122.159Z" fill="#665E97" style="fill:#665E97;fill:color(display-p3 0.4000 0.3686 0.5922);fill-opacity:1;"/>
<path d="M319.589 206.777H293.52C291.247 206.777 289.403 208.621 289.403 210.895C289.403 213.168 291.247 215.011 293.52 215.011H319.589C321.863 215.011 323.705 213.168 323.705 210.895C323.705 208.621 321.863 206.777 319.589 206.777Z" fill="#C2AF6A" style="fill:#C2AF6A;fill:color(display-p3 0.7608 0.6863 0.4157);fill-opacity:1;"/>
<path d="M293.52 209.113C292.537 209.113 291.738 209.912 291.738 210.895C291.738 211.876 292.537 212.674 293.52 212.674H319.589C320.57 212.674 321.369 211.876 321.369 210.895C321.369 209.912 320.57 209.113 319.589 209.113H293.52ZM319.589 217.347H293.52C289.961 217.347 287.066 214.452 287.066 210.895C287.066 207.336 289.961 204.441 293.52 204.441H319.589C323.148 204.441 326.042 207.336 326.042 210.895C326.042 214.452 323.148 217.347 319.589 217.347Z" fill="#665E97" style="fill:#665E97;fill:color(display-p3 0.4000 0.3686 0.5922);fill-opacity:1;"/>
<path d="M310.098 230.103V215.011H303.009V230.103H298.893V244.304H314.214V230.103H310.098Z" fill="#C2AF6A" style="fill:#C2AF6A;fill:color(display-p3 0.7608 0.6863 0.4157);fill-opacity:1;"/>
<path d="M301.229 241.968H311.878V232.438H310.098C308.808 232.438 307.762 231.392 307.762 230.103V217.347H305.346V230.103C305.346 231.392 304.301 232.438 303.01 232.438H301.229V241.968ZM314.214 246.641H298.893C297.602 246.641 296.557 245.595 296.557 244.305V230.103C296.557 228.814 297.602 227.767 298.893 227.767H300.673V215.011C300.673 213.721 301.72 212.674 303.01 212.674H310.098C311.389 212.674 312.436 213.721 312.436 215.011V227.767H314.214C315.505 227.767 316.552 228.814 316.552 230.103V244.305C316.552 245.595 315.505 246.641 314.214 246.641Z" fill="#665E97" style="fill:#665E97;fill:color(display-p3 0.4000 0.3686 0.5922);fill-opacity:1;"/>
<path d="M174.605 244.304V253.429H438.504V244.304H174.605Z" fill="#FEF3C9" style="fill:#FEF3C9;fill:color(display-p3 0.9961 0.9529 0.7882);fill-opacity:1;"/>
<path d="M174.605 253.429V262.554H438.504V253.429H174.605Z" fill="#FEF3C9" style="fill:#FEF3C9;fill:color(display-p3 0.9961 0.9529 0.7882);fill-opacity:1;"/>
<path d="M174.605 262.553V271.677H438.504V262.553H174.605Z" fill="#FEF3C9" style="fill:#FEF3C9;fill:color(display-p3 0.9961 0.9529 0.7882);fill-opacity:1;"/>
<path d="M176.941 251.093H436.167V246.641H176.941V251.093ZM438.504 255.766H174.605C173.314 255.766 172.269 254.72 172.269 253.429V244.305C172.269 243.015 173.314 241.968 174.605 241.968H438.504C439.795 241.968 440.84 243.015 440.84 244.305V253.429C440.84 254.72 439.795 255.766 438.504 255.766Z" fill="#665E97" style="fill:#665E97;fill:color(display-p3 0.4000 0.3686 0.5922);fill-opacity:1;"/>
<path d="M176.941 260.216H436.167V255.766H176.941V260.216ZM438.504 264.89H174.605C173.314 264.89 172.269 263.843 172.269 262.554V253.429C172.269 252.14 173.314 251.093 174.605 251.093H438.504C439.795 251.093 440.84 252.14 440.84 253.429V262.554C440.84 263.843 439.795 264.89 438.504 264.89Z" fill="#665E97" style="fill:#665E97;fill:color(display-p3 0.4000 0.3686 0.5922);fill-opacity:1;"/>
<path d="M176.941 269.341H436.167V264.89H176.941V269.341ZM438.504 274.014H174.605C173.314 274.014 172.269 272.968 172.269 271.677V262.554C172.269 261.263 173.314 260.216 174.605 260.216H438.504C439.795 260.216 440.84 261.263 440.84 262.554V271.677C440.84 272.968 439.795 274.014 438.504 274.014Z" fill="#665E97" style="fill:#665E97;fill:color(display-p3 0.4000 0.3686 0.5922);fill-opacity:1;"/>
<path d="M302.525 2.33741H310.584C317.309 2.33741 322.516 8.22941 321.686 14.9041L317.356 49.7548H295.753L291.422 14.9041C290.593 8.22941 295.798 2.33741 302.525 2.33741Z" fill="#FEE993" style="fill:#FEE993;fill:color(display-p3 0.9961 0.9137 0.5765);fill-opacity:1;"/>
<path d="M297.816 47.4174H315.292L319.366 14.616C319.68 12.0987 318.897 9.56538 317.217 7.66537C315.538 5.76404 313.12 4.67335 310.584 4.67335H302.525C299.989 4.67335 297.57 5.76404 295.89 7.66537C294.212 9.56538 293.428 12.0987 293.741 14.616L297.816 47.4174ZM317.356 52.0907H295.752C294.573 52.0907 293.58 51.2133 293.433 50.0413L289.104 15.192C288.626 11.3467 289.824 7.47468 292.389 4.57202C294.954 1.66668 298.649 4.19617e-05 302.525 4.19617e-05H310.584C314.458 4.19617e-05 318.153 1.66668 320.718 4.57202C323.285 7.47468 324.482 11.3467 324.004 15.192L319.674 50.0413C319.529 51.2133 318.534 52.0907 317.356 52.0907Z" fill="#665E97" style="fill:#665E97;fill:color(display-p3 0.4000 0.3686 0.5922);fill-opacity:1;"/>
<path d="M306.555 18.5387C302.759 18.5387 299.68 21.6174 299.68 25.4134V49.7548H313.428V25.4134C313.428 21.6174 310.351 18.5387 306.555 18.5387Z" fill="#FFF8DE" style="fill:#FFF8DE;fill:color(display-p3 1.0000 0.9725 0.8706);fill-opacity:1;"/>
<path d="M302.017 47.4174H311.092V25.4134C311.092 22.9107 309.056 20.876 306.554 20.876C304.052 20.876 302.017 22.9107 302.017 25.4134V47.4174ZM313.428 52.0907H299.68C298.39 52.0907 297.344 51.044 297.344 49.7547V25.4134C297.344 20.3347 301.476 16.2027 306.554 16.2027C311.632 16.2027 315.764 20.3347 315.764 25.4134V49.7547C315.764 51.044 314.718 52.0907 313.428 52.0907Z" fill="#665E97" style="fill:#665E97;fill:color(display-p3 0.4000 0.3686 0.5922);fill-opacity:1;"/>
<path d="M306.555 5.28263C302.759 5.28263 299.68 8.35997 299.68 12.156C299.68 15.9533 302.759 19.0306 306.555 19.0306C310.351 19.0306 313.428 15.9533 313.428 12.156C313.428 8.35997 310.351 5.28263 306.555 5.28263Z" fill="#665E97" style="fill:#665E97;fill:color(display-p3 0.4000 0.3686 0.5922);fill-opacity:1;"/>
<path d="M369.898 63.5731H243.209L240.465 49.7545H372.642L369.898 63.5731Z" fill="#FEE993" style="fill:#FEE993;fill:color(display-p3 0.9961 0.9137 0.5765);fill-opacity:1;"/>
<path d="M245.128 61.2371H367.98L369.797 52.0904H243.311L245.128 61.2371ZM369.899 65.9091H243.209C242.095 65.9091 241.135 65.121 240.919 64.0277L238.173 50.209C238.037 49.5224 238.216 48.813 238.66 48.2704C239.103 47.7304 239.765 47.417 240.465 47.417H372.644C373.343 47.417 374.005 47.7304 374.449 48.2704C374.893 48.813 375.071 49.5224 374.935 50.209L372.191 64.0277C371.973 65.121 371.013 65.9091 369.899 65.9091Z" fill="#665E97" style="fill:#665E97;fill:color(display-p3 0.4000 0.3686 0.5922);fill-opacity:1;"/>
<path d="M392.766 203.348V225.072H401V203.348H392.766Z" fill="#C2AF6A" style="fill:#C2AF6A;fill:color(display-p3 0.7608 0.6863 0.4157);fill-opacity:1;"/>
<path d="M395.102 222.736H398.662V205.684H395.102V222.736ZM401 227.409H392.766C391.476 227.409 390.43 226.362 390.43 225.072V203.348C390.43 202.057 391.476 201.011 392.766 201.011H401C402.29 201.011 403.336 202.057 403.336 203.348V225.072C403.336 226.362 402.29 227.409 401 227.409Z" fill="#665E97" style="fill:#665E97;fill:color(display-p3 0.4000 0.3686 0.5922);fill-opacity:1;"/>
<path d="M396.883 194.429C393.852 194.429 391.395 196.887 391.395 199.917C391.395 202.948 393.852 205.405 396.883 205.405C399.915 205.405 402.372 202.948 402.372 199.917C402.372 196.887 399.915 194.429 396.883 194.429Z" fill="#C2AF6A" style="fill:#C2AF6A;fill:color(display-p3 0.7608 0.6863 0.4157);fill-opacity:1;"/>
<path d="M396.884 196.766C395.145 196.766 393.73 198.179 393.73 199.917C393.73 201.656 395.145 203.069 396.884 203.069C398.621 203.069 400.034 201.656 400.034 199.917C400.034 198.179 398.621 196.766 396.884 196.766ZM396.884 207.741C392.569 207.741 389.058 204.231 389.058 199.917C389.058 195.604 392.569 192.093 396.884 192.093C401.198 192.093 404.708 195.604 404.708 199.917C404.708 204.231 401.198 207.741 396.884 207.741Z" fill="#665E97" style="fill:#665E97;fill:color(display-p3 0.4000 0.3686 0.5922);fill-opacity:1;"/>
<path d="M401 246.641C399.709 246.641 398.662 245.595 398.662 244.305V225.072C398.662 223.783 399.709 222.736 401 222.736C402.29 222.736 403.336 223.783 403.336 225.072V244.305C403.336 245.595 402.29 246.641 401 246.641Z" fill="#665E97" style="fill:#665E97;fill:color(display-p3 0.4000 0.3686 0.5922);fill-opacity:1;"/>
<path d="M392.766 246.641C391.476 246.641 390.43 245.595 390.43 244.305V225.072C390.43 223.783 391.476 222.736 392.766 222.736C394.057 222.736 395.102 223.783 395.102 225.072V244.305C395.102 245.595 394.057 246.641 392.766 246.641Z" fill="#665E97" style="fill:#665E97;fill:color(display-p3 0.4000 0.3686 0.5922);fill-opacity:1;"/>
<path d="M400.998 226.038C400.661 226.038 400.32 225.964 400 225.812C392.833 222.419 390.482 218.405 389.77 215.639C389.002 212.647 389.836 210.048 390.872 208.612C391.628 207.565 393.088 207.327 394.134 208.085C395.181 208.84 395.416 210.3 394.661 211.347C394.341 211.791 393.904 212.948 394.297 214.476C394.706 216.069 396.096 218.367 400.249 220.691L403.969 215.353C403.984 212.533 401.697 209.604 400.41 209.267C399.161 208.941 398.413 207.666 398.738 206.417C399.065 205.168 400.34 204.419 401.589 204.747C405.25 205.702 409.185 211.121 408.58 216.417C408.536 216.803 408.398 217.171 408.176 217.488L402.916 225.036C402.468 225.681 401.742 226.038 400.998 226.038Z" fill="#665E97" style="fill:#665E97;fill:color(display-p3 0.4000 0.3686 0.5922);fill-opacity:1;"/>
<path d="M222.08 203.348V225.072H213.846V203.348H222.08Z" fill="#C2AF6A" style="fill:#C2AF6A;fill:color(display-p3 0.7608 0.6863 0.4157);fill-opacity:1;"/>
<path d="M216.183 222.736H219.742V205.684H216.183V222.736ZM222.08 227.409H213.847C212.556 227.409 211.51 226.362 211.51 225.072V203.348C211.51 202.057 212.556 201.011 213.847 201.011H222.08C223.37 201.011 224.416 202.057 224.416 203.348V225.072C224.416 226.362 223.37 227.409 222.08 227.409Z" fill="#665E97" style="fill:#665E97;fill:color(display-p3 0.4000 0.3686 0.5922);fill-opacity:1;"/>
<path d="M217.962 194.429C220.994 194.429 223.452 196.887 223.452 199.917C223.452 202.948 220.994 205.405 217.962 205.405C214.932 205.405 212.474 202.948 212.474 199.917C212.474 196.887 214.932 194.429 217.962 194.429Z" fill="#C2AF6A" style="fill:#C2AF6A;fill:color(display-p3 0.7608 0.6863 0.4157);fill-opacity:1;"/>
<path d="M217.962 196.766C216.225 196.766 214.81 198.179 214.81 199.917C214.81 201.656 216.225 203.069 217.962 203.069C219.701 203.069 221.114 201.656 221.114 199.917C221.114 198.179 219.701 196.766 217.962 196.766ZM217.962 207.741C213.648 207.741 210.138 204.231 210.138 199.917C210.138 195.604 213.648 192.093 217.962 192.093C222.277 192.093 225.788 195.604 225.788 199.917C225.788 204.231 222.277 207.741 217.962 207.741Z" fill="#665E97" style="fill:#665E97;fill:color(display-p3 0.4000 0.3686 0.5922);fill-opacity:1;"/>
<path d="M213.847 246.641C212.556 246.641 211.51 245.595 211.51 244.305V225.072C211.51 223.783 212.556 222.736 213.847 222.736C215.137 222.736 216.183 223.783 216.183 225.072V244.305C216.183 245.595 215.137 246.641 213.847 246.641Z" fill="#665E97" style="fill:#665E97;fill:color(display-p3 0.4000 0.3686 0.5922);fill-opacity:1;"/>
<path d="M222.08 246.641C220.789 246.641 219.742 245.595 219.742 244.305V225.072C219.742 223.783 220.789 222.736 222.08 222.736C223.37 222.736 224.416 223.783 224.416 225.072V244.305C224.416 245.595 223.37 246.641 222.08 246.641Z" fill="#665E97" style="fill:#665E97;fill:color(display-p3 0.4000 0.3686 0.5922);fill-opacity:1;"/>
<path d="M213.848 226.038C213.104 226.038 212.378 225.681 211.93 225.036L206.67 217.488C206.448 217.171 206.309 216.803 206.265 216.417C205.66 211.121 209.596 205.702 213.257 204.747C214.505 204.423 215.781 205.168 216.108 206.417C216.433 207.666 215.685 208.941 214.436 209.267C213.148 209.604 210.862 212.533 210.877 215.353L214.597 220.691C218.75 218.367 220.14 216.069 220.549 214.476C220.942 212.948 220.505 211.791 220.185 211.347C219.429 210.3 219.665 208.84 220.712 208.085C221.758 207.328 223.218 207.567 223.973 208.612C225.01 210.048 225.844 212.647 225.074 215.639C224.364 218.405 222.012 222.419 214.846 225.812C214.525 225.964 214.184 226.038 213.848 226.038Z" fill="#665E97" style="fill:#665E97;fill:color(display-p3 0.4000 0.3686 0.5922);fill-opacity:1;"/>
<path d="M438.466 105.179C437.176 105.179 436.129 104.132 436.129 102.843V90.1506C436.129 88.8599 437.176 87.8146 438.466 87.8146C439.757 87.8146 440.802 88.8599 440.802 90.1506V102.843C440.802 104.132 439.757 105.179 438.466 105.179Z" fill="#665E97" style="fill:#665E97;fill:color(display-p3 0.4000 0.3686 0.5922);fill-opacity:1;"/>
<path d="M399.52 88.0921H405.149C409.849 88.0921 413.485 92.2094 412.907 96.8721L409.881 121.22H394.788L391.763 96.8721C391.184 92.2094 394.82 88.0921 399.52 88.0921Z" fill="#FEE993" style="fill:#FEE993;fill:color(display-p3 0.9961 0.9137 0.5765);fill-opacity:1;"/>
<path d="M396.852 118.885H407.817L410.588 96.5842C410.781 95.0255 410.296 93.4575 409.256 92.2802C408.217 91.1042 406.72 90.4295 405.149 90.4295H399.52C397.949 90.4295 396.452 91.1042 395.413 92.2802C394.373 93.4575 393.888 95.0255 394.081 96.5842L396.852 118.885ZM409.881 123.557H394.788C393.609 123.557 392.616 122.68 392.469 121.508L389.444 97.1602C389.085 94.2722 389.985 91.3668 391.91 89.1882C393.837 87.0068 396.609 85.7562 399.52 85.7562H405.149C408.06 85.7562 410.832 87.0068 412.758 89.1882C414.684 91.3668 415.584 94.2722 415.225 97.1602L412.2 121.508C412.053 122.68 411.06 123.557 409.881 123.557Z" fill="#665E97" style="fill:#665E97;fill:color(display-p3 0.4000 0.3686 0.5922);fill-opacity:1;"/>
<path d="M402.334 99.4121C399.682 99.4121 397.532 101.563 397.532 104.215V121.22H407.137V104.215C407.137 101.563 404.986 99.4121 402.334 99.4121Z" fill="#FFF8DE" style="fill:#FFF8DE;fill:color(display-p3 1.0000 0.9725 0.8706);fill-opacity:1;"/>
<path d="M399.869 118.885H404.801V104.215C404.801 102.855 403.694 101.748 402.334 101.748C400.974 101.748 399.869 102.855 399.869 104.215V118.885ZM407.137 123.557H397.532C396.241 123.557 395.196 122.511 395.196 121.221V104.215C395.196 100.277 398.398 97.0762 402.334 97.0762C406.27 97.0762 409.473 100.277 409.473 104.215V121.221C409.473 122.511 408.428 123.557 407.137 123.557Z" fill="#665E97" style="fill:#665E97;fill:color(display-p3 0.4000 0.3686 0.5922);fill-opacity:1;"/>
<path d="M402.334 90.1508C399.682 90.1508 397.532 92.3001 397.532 94.9534C397.532 97.6054 399.682 99.7548 402.334 99.7548C404.986 99.7548 407.137 97.6054 407.137 94.9534C407.137 92.3001 404.986 90.1508 402.334 90.1508Z" fill="#665E97" style="fill:#665E97;fill:color(display-p3 0.4000 0.3686 0.5922);fill-opacity:1;"/>
<path d="M451.558 245.132C451.294 245.132 451.026 245.088 450.764 244.992C449.55 244.555 448.922 243.215 449.361 242C456.029 223.575 452.554 214.197 450.254 207.992C449.345 205.538 448.56 203.419 448.56 201.29C448.56 200 449.605 198.953 450.896 198.953C452.186 198.953 453.232 200 453.232 201.29C453.232 202.581 453.852 204.252 454.636 206.369C457.173 213.214 461.005 223.555 453.756 243.592C453.412 244.543 452.514 245.132 451.558 245.132Z" fill="#665E97" style="fill:#665E97;fill:color(display-p3 0.4000 0.3686 0.5922);fill-opacity:1;"/>
<path d="M464.202 246.641C464.006 246.641 463.805 246.617 463.606 246.564C462.358 246.235 461.613 244.957 461.942 243.708C466.337 227.047 464.396 217.002 462.977 209.667C462.38 206.583 461.865 203.917 461.865 201.29C461.865 200 462.91 198.953 464.201 198.953C465.492 198.953 466.538 200 466.538 201.29C466.538 203.471 467.014 205.932 467.565 208.78C469.068 216.556 471.128 227.207 466.46 244.902C466.184 245.949 465.238 246.641 464.202 246.641Z" fill="#665E97" style="fill:#665E97;fill:color(display-p3 0.4000 0.3686 0.5922);fill-opacity:1;"/>
<path d="M466.48 159.624C466.48 154.983 462.481 151.22 457.549 151.22C452.616 151.22 448.617 154.983 448.617 159.624C448.617 161.775 449.484 163.731 450.896 165.216V209.693H464.201V165.216C465.613 163.731 466.48 161.775 466.48 159.624Z" fill="#FEF3C9" style="fill:#FEF3C9;fill:color(display-p3 0.9961 0.9529 0.7882);fill-opacity:1;"/>
<path d="M453.232 207.357H461.865V165.216C461.865 164.618 462.096 164.04 462.508 163.607C463.562 162.498 464.142 161.082 464.142 159.623C464.142 156.278 461.185 153.556 457.548 153.556C453.912 153.556 450.954 156.278 450.954 159.623C450.954 161.082 451.534 162.496 452.589 163.607C453.002 164.04 453.232 164.618 453.232 165.216V207.357ZM464.201 212.029H450.896C449.605 212.029 448.56 210.983 448.56 209.693V166.087C447.084 164.226 446.281 161.966 446.281 159.623C446.281 153.702 451.336 148.883 457.548 148.883C463.761 148.883 468.816 153.702 468.816 159.623C468.816 161.966 468.013 164.228 466.538 166.087V209.693C466.538 210.983 465.492 212.029 464.201 212.029Z" fill="#665E97" style="fill:#665E97;fill:color(display-p3 0.4000 0.3686 0.5922);fill-opacity:1;"/>
<path d="M464.203 175.498C463.541 175.498 462.884 175.218 462.423 174.676C461.587 173.693 461.705 172.217 462.688 171.382L462.865 171.232C465.949 168.61 469.445 165.64 469.436 161.498C469.427 157.202 465.732 151.918 458.457 145.792C457.471 144.96 457.344 143.486 458.175 142.5C459.008 141.513 460.481 141.385 461.468 142.217C469.96 149.369 474.096 155.674 474.108 161.488C474.123 167.797 469.365 171.84 465.892 174.792L465.715 174.941C465.276 175.316 464.737 175.498 464.203 175.498Z" fill="#665E97" style="fill:#665E97;fill:color(display-p3 0.4000 0.3686 0.5922);fill-opacity:1;"/>
<path d="M471.772 147.321H448.985C447.695 147.321 446.649 146.274 446.649 144.984C446.649 143.694 447.695 142.648 448.985 142.648H471.772C473.063 142.648 474.108 143.694 474.108 144.984C474.108 146.274 473.063 147.321 471.772 147.321Z" fill="#665E97" style="fill:#665E97;fill:color(display-p3 0.4000 0.3686 0.5922);fill-opacity:1;"/>
<path d="M174.642 105.179C173.352 105.179 172.306 104.132 172.306 102.843V90.1506C172.306 88.8599 173.352 87.8146 174.642 87.8146C175.933 87.8146 176.979 88.8599 176.979 90.1506V102.843C176.979 104.132 175.933 105.179 174.642 105.179Z" fill="#665E97" style="fill:#665E97;fill:color(display-p3 0.4000 0.3686 0.5922);fill-opacity:1;"/>
<path d="M213.589 88.0921H207.958C203.26 88.0921 199.622 92.2094 200.202 96.8721L203.228 121.22H218.32L221.345 96.8721C221.925 92.2094 218.288 88.0921 213.589 88.0921Z" fill="#FEE993" style="fill:#FEE993;fill:color(display-p3 0.9961 0.9137 0.5765);fill-opacity:1;"/>
<path d="M205.292 118.885H216.256L219.026 96.5842C219.221 95.0255 218.736 93.4575 217.696 92.2802C216.657 91.1042 215.16 90.4295 213.589 90.4295H207.958C206.388 90.4295 204.892 91.1042 203.852 92.2802C202.812 93.4575 202.326 95.0255 202.521 96.5842L205.292 118.885ZM218.32 123.557H203.228C202.049 123.557 201.054 122.68 200.909 121.508L197.884 97.1602C197.525 94.2722 198.424 91.3668 200.349 89.1882C202.276 87.0068 205.049 85.7562 207.958 85.7562H213.589C216.498 85.7562 219.272 87.0068 221.198 89.1882C223.124 91.3668 224.022 94.2722 223.664 97.1602L220.638 121.508C220.493 122.68 219.498 123.557 218.32 123.557Z" fill="#665E97" style="fill:#665E97;fill:color(display-p3 0.4000 0.3686 0.5922);fill-opacity:1;"/>
<path d="M210.775 99.4121C213.427 99.4121 215.576 101.563 215.576 104.215V121.22H205.972V104.215C205.972 101.563 208.121 99.4121 210.775 99.4121Z" fill="#FFF8DE" style="fill:#FFF8DE;fill:color(display-p3 1.0000 0.9725 0.8706);fill-opacity:1;"/>
<path d="M208.308 118.885H213.24V104.215C213.24 102.855 212.135 101.748 210.775 101.748C209.415 101.748 208.308 102.855 208.308 104.215V118.885ZM215.576 123.557H205.972C204.681 123.557 203.635 122.511 203.635 121.221V104.215C203.635 100.277 206.837 97.0762 210.775 97.0762C214.711 97.0762 217.912 100.277 217.912 104.215V121.221C217.912 122.511 216.867 123.557 215.576 123.557Z" fill="#665E97" style="fill:#665E97;fill:color(display-p3 0.4000 0.3686 0.5922);fill-opacity:1;"/>
<path d="M210.775 90.1508C213.427 90.1508 215.576 92.3001 215.576 94.9534C215.576 97.6054 213.427 99.7548 210.775 99.7548C208.121 99.7548 205.972 97.6054 205.972 94.9534C205.972 92.3001 208.121 90.1508 210.775 90.1508Z" fill="#665E97" style="fill:#665E97;fill:color(display-p3 0.4000 0.3686 0.5922);fill-opacity:1;"/>
<path d="M161.551 245.132C160.594 245.132 159.698 244.543 159.353 243.592C152.104 223.555 155.936 213.214 158.472 206.369C159.256 204.252 159.875 202.581 159.875 201.29C159.875 200 160.921 198.953 162.212 198.953C163.503 198.953 164.548 200 164.548 201.29C164.548 203.419 163.763 205.538 162.853 207.992C160.554 214.197 157.08 223.575 163.747 242C164.186 243.215 163.559 244.555 162.345 244.992C162.083 245.088 161.814 245.132 161.551 245.132Z" fill="#665E97" style="fill:#665E97;fill:color(display-p3 0.4000 0.3686 0.5922);fill-opacity:1;"/>
<path d="M148.905 246.641C147.87 246.641 146.924 245.949 146.648 244.902C141.981 227.207 144.04 216.556 145.544 208.78C146.094 205.932 146.57 203.471 146.57 201.29C146.57 200 147.616 198.953 148.907 198.953C150.197 198.953 151.243 200 151.243 201.29C151.243 203.917 150.728 206.583 150.131 209.667C148.712 217.002 146.771 227.047 151.166 243.708C151.495 244.957 150.75 246.235 149.502 246.564C149.303 246.617 149.102 246.641 148.905 246.641Z" fill="#665E97" style="fill:#665E97;fill:color(display-p3 0.4000 0.3686 0.5922);fill-opacity:1;"/>
<path d="M146.629 159.624C146.629 154.983 150.627 151.22 155.56 151.22C160.492 151.22 164.491 154.983 164.491 159.624C164.491 161.775 163.624 163.731 162.212 165.216V209.693H148.907V165.216C147.495 163.731 146.629 161.775 146.629 159.624Z" fill="#FEF3C9" style="fill:#FEF3C9;fill:color(display-p3 0.9961 0.9529 0.7882);fill-opacity:1;"/>
<path d="M151.243 207.357H159.876V165.216C159.876 164.618 160.106 164.04 160.518 163.607C161.574 162.496 162.154 161.082 162.154 159.623C162.154 156.278 159.196 153.556 155.56 153.556C151.924 153.556 148.965 156.278 148.965 159.623C148.965 161.082 149.545 162.498 150.601 163.607C151.012 164.04 151.243 164.618 151.243 165.216V207.357ZM162.212 212.029H148.907C147.616 212.029 146.57 210.983 146.57 209.693V166.087C145.095 164.228 144.293 161.966 144.293 159.623C144.293 153.702 149.347 148.883 155.56 148.883C161.772 148.883 166.827 153.702 166.827 159.623C166.827 161.966 166.024 164.226 164.548 166.087V209.693C164.548 210.983 163.503 212.029 162.212 212.029Z" fill="#665E97" style="fill:#665E97;fill:color(display-p3 0.4000 0.3686 0.5922);fill-opacity:1;"/>
<path d="M148.906 175.498C148.37 175.498 147.833 175.316 147.393 174.941L147.217 174.792C143.744 171.84 138.985 167.797 139 161.488C139.013 155.674 143.148 149.369 151.641 142.217C152.629 141.389 154.103 141.513 154.933 142.5C155.764 143.486 155.638 144.96 154.651 145.792C147.375 151.918 143.682 157.202 143.673 161.498C143.664 165.64 147.159 168.61 150.243 171.232L150.42 171.382C151.404 172.217 151.522 173.693 150.686 174.676C150.224 175.218 149.567 175.498 148.906 175.498Z" fill="#665E97" style="fill:#665E97;fill:color(display-p3 0.4000 0.3686 0.5922);fill-opacity:1;"/>
<path d="M164.123 147.321H141.337C140.046 147.321 139 146.274 139 144.984C139 143.694 140.046 142.648 141.337 142.648H164.123C165.413 142.648 166.459 143.694 166.459 144.984C166.459 146.274 165.413 147.321 164.123 147.321Z" fill="#665E97" style="fill:#665E97;fill:color(display-p3 0.4000 0.3686 0.5922);fill-opacity:1;"/>
<path d="M333.296 21.2028C330.833 21.2028 328.837 23.2002 328.837 25.6628V31.4935C328.837 33.9562 330.833 35.9535 333.296 35.9535C335.758 35.9535 337.756 33.9562 337.756 31.4935V25.6628C337.756 23.2002 335.758 21.2028 333.296 21.2028Z" fill="#FEE993" style="fill:#FEE993;fill:color(display-p3 0.9961 0.9137 0.5765);fill-opacity:1;"/>
<path d="M333.296 23.5384C332.125 23.5384 331.173 24.4904 331.173 25.6624V31.4944C331.173 32.6651 332.125 33.6171 333.296 33.6171C334.467 33.6171 335.42 32.6651 335.42 31.4944V25.6624C335.42 24.4904 334.467 23.5384 333.296 23.5384ZM333.296 38.2904C329.549 38.2904 326.501 35.2411 326.501 31.4944V25.6624C326.501 21.9144 329.549 18.8664 333.296 18.8664C337.043 18.8664 340.092 21.9144 340.092 25.6624V31.4944C340.092 35.2411 337.043 38.2904 333.296 38.2904Z" fill="#665E97" style="fill:#665E97;fill:color(display-p3 0.4000 0.3686 0.5922);fill-opacity:1;"/>
<path d="M328.841 27.9984C328.689 27.9984 328.534 27.9851 328.378 27.9531C325.222 27.3211 323.633 23.5464 322.23 20.2157C321.769 19.1184 321.085 17.4931 320.678 16.9904C319.653 16.4744 319.137 15.2691 319.518 14.1504C319.934 12.9291 321.26 12.2771 322.482 12.6917C324.41 13.3477 325.349 15.5784 326.537 18.4024C327.172 19.9077 328.49 23.0397 329.324 23.3784C330.589 23.6317 331.396 24.8584 331.142 26.1251C330.92 27.2344 329.934 27.9984 328.841 27.9984Z" fill="#665E97" style="fill:#665E97;fill:color(display-p3 0.4000 0.3686 0.5922);fill-opacity:1;"/>
<path d="M339.813 52.0907C338.549 52.0907 337.511 51.084 337.479 49.8134C337.319 43.5547 334.057 35.872 334.024 35.796C333.516 34.6094 334.067 33.236 335.252 32.728C336.44 32.224 337.811 32.7707 338.32 33.9547C338.469 34.304 341.968 42.5494 342.149 49.6947C342.181 50.9854 341.163 52.0574 339.873 52.0907C339.852 52.0907 339.833 52.0907 339.813 52.0907Z" fill="#665E97" style="fill:#665E97;fill:color(display-p3 0.4000 0.3686 0.5922);fill-opacity:1;"/>
<path d="M327.122 52.0907C325.832 52.0907 324.785 51.044 324.785 49.7547V43.8413C324.785 43.636 324.812 43.4334 324.865 43.2347L327.475 33.54C327.809 32.292 329.091 31.5547 330.337 31.8907C331.584 32.2254 332.321 33.508 331.986 34.7534L329.458 44.1507V49.7547C329.458 51.044 328.412 52.0907 327.122 52.0907Z" fill="#665E97" style="fill:#665E97;fill:color(display-p3 0.4000 0.3686 0.5922);fill-opacity:1;"/>
<path d="M328.836 33.8304C327.808 33.8304 326.865 33.1478 326.582 32.1078C326.244 30.8624 326.977 29.5784 328.222 29.2398L328.761 29.0971C333.029 27.9838 334.872 27.1531 335.665 26.6651C335.288 25.8411 335.397 24.8358 336.034 24.1224C336.893 23.1624 338.353 23.0611 339.313 23.9211C340.468 24.9531 340.946 26.3024 340.628 27.6224C339.941 30.4624 335.858 32.0731 329.942 33.6184L329.452 33.7478C329.245 33.8038 329.038 33.8304 328.836 33.8304Z" fill="#665E97" style="fill:#665E97;fill:color(display-p3 0.4000 0.3686 0.5922);fill-opacity:1;"/>
<path d="M333.296 12.6282C330.454 12.6282 328.15 14.9308 328.15 17.7735C328.15 20.6148 330.454 22.9188 333.296 22.9188C336.137 22.9188 338.441 20.6148 338.441 17.7735C338.441 14.9308 336.137 12.6282 333.296 12.6282Z" fill="#FEE993" style="fill:#FEE993;fill:color(display-p3 0.9961 0.9137 0.5765);fill-opacity:1;"/>
<path d="M333.296 14.9628C331.748 14.9628 330.488 16.2241 330.488 17.7721C330.488 19.3214 331.748 20.5828 333.296 20.5828C334.845 20.5828 336.105 19.3214 336.105 17.7721C336.105 16.2241 334.845 14.9628 333.296 14.9628ZM333.296 25.2548C329.17 25.2548 325.814 21.8974 325.814 17.7721C325.814 13.6481 329.17 10.2908 333.296 10.2908C337.421 10.2908 340.778 13.6481 340.778 17.7721C340.778 21.8974 337.421 25.2548 333.296 25.2548Z" fill="#665E97" style="fill:#665E97;fill:color(display-p3 0.4000 0.3686 0.5922);fill-opacity:1;"/>
<path d="M362.881 21.2027L366.397 49.7548H359.365L362.881 21.2027Z" fill="#FFF8DE" style="fill:#FFF8DE;fill:color(display-p3 1.0000 0.9725 0.8706);fill-opacity:1;"/>
<path d="M362.008 47.4174H363.756L362.881 40.3187L362.008 47.4174ZM366.397 52.0907H359.366C358.697 52.0907 358.06 51.8027 357.616 51.3027C357.173 50.8013 356.965 50.1334 357.046 49.468L360.562 20.916C360.708 19.7454 361.702 18.8667 362.881 18.8667C364.061 18.8667 365.056 19.7454 365.201 20.916L368.717 49.468C368.798 50.1334 368.59 50.8013 368.148 51.3027C367.704 51.8027 367.066 52.0907 366.397 52.0907Z" fill="#665E97" style="fill:#665E97;fill:color(display-p3 0.4000 0.3686 0.5922);fill-opacity:1;"/>
<path d="M279.812 21.2028C282.275 21.2028 284.272 23.2002 284.272 25.6628V31.4935C284.272 33.9562 282.275 35.9535 279.812 35.9535C277.349 35.9535 275.353 33.9562 275.353 31.4935V25.6628C275.353 23.2002 277.349 21.2028 279.812 21.2028Z" fill="#FEE993" style="fill:#FEE993;fill:color(display-p3 0.9961 0.9137 0.5765);fill-opacity:1;"/>
<path d="M279.812 23.5384C278.641 23.5384 277.689 24.4904 277.689 25.6624V31.4944C277.689 32.6651 278.641 33.6171 279.812 33.6171C280.983 33.6171 281.935 32.6651 281.935 31.4944V25.6624C281.935 24.4904 280.983 23.5384 279.812 23.5384ZM279.812 38.2904C276.065 38.2904 273.016 35.2411 273.016 31.4944V25.6624C273.016 21.9144 276.065 18.8664 279.812 18.8664C283.56 18.8664 286.608 21.9144 286.608 25.6624V31.4944C286.608 35.2411 283.56 38.2904 279.812 38.2904Z" fill="#665E97" style="fill:#665E97;fill:color(display-p3 0.4000 0.3686 0.5922);fill-opacity:1;"/>
<path d="M284.269 27.9984C283.177 27.9984 282.203 27.2304 281.981 26.1197C281.729 24.8624 282.54 23.6357 283.795 23.3744C284.628 23.0171 285.94 19.9024 286.571 18.4024C287.76 15.5784 288.697 13.3477 290.625 12.6917C291.851 12.2771 293.175 12.9291 293.591 14.1504C293.972 15.2691 293.456 16.4744 292.429 16.9904C292.024 17.4931 291.339 19.1184 290.877 20.2157C289.475 23.5464 287.887 27.3211 284.729 27.9531C284.575 27.9837 284.421 27.9984 284.269 27.9984Z" fill="#665E97" style="fill:#665E97;fill:color(display-p3 0.4000 0.3686 0.5922);fill-opacity:1;"/>
<path d="M273.296 52.0907C273.276 52.0907 273.256 52.0907 273.236 52.0907C271.945 52.0574 270.926 50.9854 270.96 49.6947C271.14 42.5494 274.64 34.304 274.788 33.9547C275.296 32.7707 276.669 32.2214 277.854 32.728C279.041 33.236 279.592 34.608 279.084 35.7947C279.052 35.872 275.788 43.576 275.63 49.8134C275.598 51.084 274.558 52.0907 273.296 52.0907Z" fill="#665E97" style="fill:#665E97;fill:color(display-p3 0.4000 0.3686 0.5922);fill-opacity:1;"/>
<path d="M285.987 52.0907C284.696 52.0907 283.65 51.044 283.65 49.7547V44.1507L281.121 34.7534C280.787 33.508 281.524 32.2254 282.771 31.8907C284.019 31.56 285.3 32.292 285.633 33.54L288.242 43.2347C288.296 43.4334 288.323 43.636 288.323 43.8413V49.7547C288.323 51.044 287.277 52.0907 285.987 52.0907Z" fill="#665E97" style="fill:#665E97;fill:color(display-p3 0.4000 0.3686 0.5922);fill-opacity:1;"/>
<path d="M284.273 33.8304C284.069 33.8304 283.863 33.8038 283.657 33.7478L283.167 33.6184C277.249 32.0731 273.168 30.4624 272.48 27.6224C272.161 26.3024 272.641 24.9531 273.796 23.9211C274.757 23.0611 276.235 23.1451 277.093 24.1051C277.743 24.8304 277.856 25.8478 277.46 26.6731C278.26 27.1638 280.107 27.9904 284.347 29.0971L284.887 29.2398C286.131 29.5784 286.865 30.8624 286.525 32.1078C286.243 33.1478 285.3 33.8304 284.273 33.8304Z" fill="#665E97" style="fill:#665E97;fill:color(display-p3 0.4000 0.3686 0.5922);fill-opacity:1;"/>
<path d="M279.812 12.6282C282.653 12.6282 284.957 14.9308 284.957 17.7735C284.957 20.6148 282.653 22.9188 279.812 22.9188C276.97 22.9188 274.667 20.6148 274.667 17.7735C274.667 14.9308 276.97 12.6282 279.812 12.6282Z" fill="#FEE993" style="fill:#FEE993;fill:color(display-p3 0.9961 0.9137 0.5765);fill-opacity:1;"/>
<path d="M279.812 14.9628C278.264 14.9628 277.002 16.2241 277.002 17.7721C277.002 19.3214 278.264 20.5828 279.812 20.5828C281.361 20.5828 282.621 19.3214 282.621 17.7721C282.621 16.2241 281.361 14.9628 279.812 14.9628ZM279.812 25.2548C275.686 25.2548 272.33 21.8974 272.33 17.7721C272.33 13.6481 275.686 10.2908 279.812 10.2908C283.937 10.2908 287.293 13.6481 287.293 17.7721C287.293 21.8974 283.937 25.2548 279.812 25.2548Z" fill="#665E97" style="fill:#665E97;fill:color(display-p3 0.4000 0.3686 0.5922);fill-opacity:1;"/>
<path d="M250.226 21.2027L246.71 49.7548H253.742L250.226 21.2027Z" fill="#FFF8DE" style="fill:#FFF8DE;fill:color(display-p3 1.0000 0.9725 0.8706);fill-opacity:1;"/>
<path fill-rule="evenodd" clip-rule="evenodd" d="M0 305.663C11.8363 287.533 24.532 273.258 38.3965 256.638C54.3357 237.517 74.9892 222.181 100.28 219.131C163.673 211.499 203.61 275.542 256.196 271.826C308.163 268.141 326.54 194.437 378.871 181.664C433.462 168.341 473.632 220.672 518.6 215.16C551.175 211.166 565.388 162.899 592.173 145.737C609.436 134.675 650 134.125 650 134.125V305.663H0Z" fill="#FFF8EE" style="fill:#FFF8EE;fill:color(display-p3 1.0000 0.9719 0.9333);fill-opacity:1;"/>
<path d="M250.008 46.4174H251.756L250.881 39.3187L250.008 46.4174ZM254.397 51.0907H247.366C246.697 51.0907 246.06 50.8027 245.616 50.3027C245.173 49.8013 244.965 49.1334 245.046 48.468L248.562 19.916C248.708 18.7454 249.702 17.8667 250.881 17.8667C252.061 17.8667 253.056 18.7454 253.201 19.916L256.717 48.468C256.798 49.1334 256.59 49.8013 256.148 50.3027C255.704 50.8027 255.066 51.0907 254.397 51.0907Z" fill="#665E97" style="fill:#665E97;fill:color(display-p3 0.4000 0.3686 0.5922);fill-opacity:1;"/>
</svg>
