<svg width="421" height="61" viewBox="0 0 421 61" fill="none" xmlns="http://www.w3.org/2000/svg">
<g clip-path="url(#clip0_23_77)">
<path d="M128 30.5179C128 13.6829 114.018 0 96.8783 0C89.7455 0 81.9385 3.68937 73.7056 10.9965C69.8021 14.4351 66.4308 18.1245 63.8758 21.0975C55.0042 11.0681 43.0452 0 31.1217 0C16.7142 0 4.11644 10.0652 0.851677 23.4257C0.283892 25.7181 0 28.0822 0 30.5179C0 47.3529 13.7333 61.0358 30.9088 61.0358C38.0416 61.0358 46.0615 57.3464 54.2944 50.0393C58.1979 46.6007 61.5692 42.9113 64.1242 39.9383C73.0313 49.9677 84.9903 61.0358 96.9138 61.0358C111.321 61.0358 123.919 50.9706 127.184 37.6101C127.752 35.3535 128.035 32.9536 128.035 30.5179H128ZM66.2889 21.0617C69.1988 17.7305 72.0732 14.8291 74.8766 12.3576C82.7901 5.37287 90.2068 1.82678 96.8783 1.82678C113.06 1.82678 126.226 14.7217 126.226 30.5537C126.226 32.7745 125.977 34.9953 125.445 37.1444C125.374 37.3952 124.274 40.3682 121.222 43.2695C117.248 47.0305 111.818 48.9289 105.147 48.9289C112.315 45.7769 117.354 38.7205 117.354 30.5179C117.354 19.414 108.198 10.3876 96.9138 10.3876C92.5134 10.3876 87.155 13.1814 80.9093 18.6618C78.1059 21.1333 75.267 24.0346 72.2861 27.5449L71.1151 28.906L65.1178 22.4228L66.3244 21.0975L66.2889 21.0617ZM55.6784 30.8045C53.3008 33.6342 49.8941 37.5385 45.9551 41.0129C38.6094 47.4962 33.8542 48.8573 31.1217 48.8573C20.8306 48.8573 12.4558 40.6189 12.4558 30.5179C12.4558 20.4169 20.8306 12.2501 31.1217 12.1785C31.5121 12.1785 31.9379 12.2143 32.5057 12.3218C37.7932 14.3635 42.5484 17.6588 45.4228 20.3095C47.7294 22.4228 51.8813 26.7927 55.7139 30.8403L55.6784 30.8045ZM61.7111 39.9383C58.8012 43.2695 55.8913 46.1709 53.1234 48.6424C45.3163 55.5555 37.6512 59.1732 30.9088 59.1732C23.1017 59.1732 15.756 56.1644 10.2911 50.7557C4.82617 45.347 1.80981 38.1474 1.80981 30.4821C1.80981 28.2613 2.05822 26.0405 2.59052 23.8914C2.66149 23.6406 3.76157 20.6676 6.81342 17.7663C10.7879 14.0053 16.2174 12.1069 22.8888 12.1069C15.7205 15.259 10.6815 22.3153 10.6815 30.5179C10.6815 41.6218 19.837 50.6483 31.1217 50.6483C35.522 50.6483 40.8805 47.8544 47.1261 42.374C49.9296 39.9025 52.7685 37.0012 55.7494 33.4909L56.9204 32.1298L62.9177 38.5772L61.7466 39.9383H61.7111ZM72.3571 30.1955C74.7347 27.3658 78.1414 23.4615 82.0804 19.9871C89.4261 13.5038 94.1813 12.1427 96.9138 12.1427C107.205 12.1427 115.58 20.3811 115.58 30.4821C115.58 40.5831 107.205 48.7498 96.9138 48.8215C96.5234 48.8215 96.0976 48.7857 95.5298 48.6782C90.2068 46.6365 85.4871 43.3412 82.6127 40.6905C80.3061 38.5772 76.1541 34.2073 72.3216 30.1597L72.3571 30.1955Z" fill="black"/>
</g>
<path d="M149 59.2571V42.2158H153.332V59.2571H149Z" fill="black"/>
<path d="M168.7 48.6861C167.963 46.8179 166.364 45.713 164.594 45.713C161.884 45.713 160.058 48.0368 160.058 50.6909C160.058 53.3451 161.941 55.76 164.617 55.76C166.341 55.76 167.804 54.7918 168.7 52.878H173.237C172.182 56.9789 168.677 59.5761 164.663 59.5761C162.304 59.5761 160.081 58.7445 158.334 57.0245C156.497 55.2246 155.714 53.0603 155.714 50.4859C155.714 45.975 159.593 41.8969 164.447 41.8969C166.783 41.8969 168.666 42.5462 170.367 43.9929C171.978 45.3712 172.93 46.9432 173.237 48.6861H168.7Z" fill="black"/>
<path d="M175.482 59.2571V42.2158H181.221C183.036 42.1931 184.385 42.4437 185.281 42.8651C187.119 43.7195 188.264 45.6788 188.264 47.9798C188.264 51.1352 186.518 53.926 181.663 53.926H179.645V59.2685H175.494L175.482 59.2571ZM181.493 50.0986C183.24 50.0986 184.113 49.4948 184.113 48.0482C184.113 46.6015 183.263 46.0433 181.335 46.0433H179.633V50.0986H181.493Z" fill="black"/>
<path d="M207.046 59.2571V52.4337H201.5V59.2571H197.167V42.2158H201.5V48.6177H207.046V42.2158H211.378V59.2571H207.046Z" fill="black"/>
<path d="M223.094 42.2158H227.426V52.6502C227.426 54.4272 227.154 55.76 226.576 56.6827C225.453 58.5053 223.547 59.5874 220.984 59.5874C219.567 59.5874 218.342 59.314 217.355 58.7331C215.359 57.5598 214.395 55.965 214.395 52.673V42.2158H218.727V52.6046C218.727 54.7234 219.396 55.76 220.928 55.76C222.459 55.76 223.082 55.0196 223.082 52.6274V42.2158H223.094Z" fill="black"/>
<path d="M230.454 59.2571V42.2158H235.887C237.101 42.2158 237.997 42.2842 238.598 42.4209C240.526 42.8537 242.125 44.3574 242.125 46.6584C242.125 48.1051 241.433 49.4037 240.151 50.1099C242.011 50.7592 242.953 52.1148 242.953 54.0741C242.953 55.7144 242.261 57.2067 240.979 58.1066C239.652 59.052 238.779 59.2571 236.091 59.2571H230.454ZM236.318 48.686C237.395 48.686 237.974 48.2304 237.974 47.3305C237.974 46.4306 237.418 46.0433 236.352 46.0433H234.605V48.6974H236.329L236.318 48.686ZM236.828 55.441C238.042 55.441 238.802 54.9056 238.802 53.8007C238.802 52.8097 238.133 52.3312 236.851 52.3312H234.605V55.441H236.828Z" fill="black"/>
<path d="M251.935 47.1938C251.754 45.9749 251.243 45.5307 250.404 45.5307C249.599 45.5307 248.918 46.1116 248.918 46.8635C248.918 47.8773 249.837 48.3329 251.697 49.1417C255.44 50.7593 256.37 52.1148 256.37 54.3475C256.37 57.6396 254.124 59.5761 250.449 59.5761C246.775 59.5761 244.325 57.6396 244.325 53.983V53.6185H248.635C248.658 55.0196 249.349 55.9423 250.427 55.9423C251.323 55.9423 252.06 55.2246 252.06 54.3019C252.06 52.9464 250.177 52.3426 248.646 51.7275C245.868 50.5998 244.609 49.1189 244.609 46.909C244.609 44.0043 247.41 41.8855 250.529 41.8855C251.652 41.8855 252.638 42.1361 253.534 42.6031C255.349 43.5486 256.222 44.9042 256.245 47.1824H251.958L251.935 47.1938Z" fill="black"/>
<path d="M276.059 59.2571L269.549 48.8455L269.662 59.2571H265.511V42.2158H269.254L275.854 52.9919L275.673 42.2158H279.824V59.2571H276.059Z" fill="black"/>
<path d="M282.92 59.2571V42.2158H292.345V46.0433H287.071V48.6974H292.186V52.5249H287.071V55.4524H292.345V59.2799H282.92V59.2571Z" fill="black"/>
<path d="M297.063 59.2571V46.0319H293.717V42.2045H304.73V46.0319H301.407V59.2571H297.074H297.063Z" fill="black"/>
<path d="M318.737 59.2571L316.196 48.219H316.151L313.61 59.2571H309.686L305.308 42.2158H309.709L311.977 53.2995H312.022L314.518 42.2158H317.841L320.29 53.345H320.336L322.649 42.2158H327.027L322.536 59.2571H318.725H318.737Z" fill="black"/>
<path d="M327.764 51.1352C327.764 45.8611 331.552 41.8969 336.713 41.8969C341.873 41.8969 345.684 45.7471 345.684 50.6226C345.684 55.498 341.782 59.5875 336.928 59.5875C332.074 59.5875 327.776 56.1815 327.776 51.1352H327.764ZM341.34 50.7593C341.34 48.0823 339.435 45.713 336.713 45.713C333.991 45.713 332.108 47.9912 332.108 50.6909C332.108 53.3907 334.013 55.76 336.781 55.76C339.548 55.76 341.34 53.4818 341.34 50.7593Z" fill="black"/>
<path d="M356.141 59.2571L352.217 53.7551H352.171V59.2571H348.02V42.2158H353.566C355.335 42.2158 356.685 42.4436 357.581 42.8423C359.418 43.6739 360.7 45.6788 360.7 48.0937C360.7 50.7934 359.089 53.0033 356.481 53.459L361.086 59.2685H356.129L356.141 59.2571ZM353.77 50.782C355.494 50.782 356.549 49.9732 356.549 48.3443C356.549 46.8748 355.449 46.0433 353.816 46.0433H352.16V50.7934H353.77V50.782Z" fill="black"/>
<path d="M372.461 59.2571L367.822 51.887H367.777V59.2571H363.445V42.2158H367.777V49.8821H367.822L372.62 42.2158H377.156L371.542 50.7137L377.531 59.2571H372.461Z" fill="black"/>
<path d="M149 32.4144V1.58545H153.393V32.4144H149Z" fill="black"/>
<path d="M162.455 32.4144V5.70649H156.688V1.58545H172.615V5.70649H166.848V32.4144H162.455Z" fill="black"/>
<path d="M194.56 32.4144L191.232 23.3279H180.424L177.096 32.4144H172.461L183.873 1.58545H187.816L199.239 32.4144H194.56ZM185.905 7.41796H185.828L181.962 19.2068H189.727L185.905 7.41796Z" fill="black"/>
<path d="M202.93 32.4144V1.58545H207.323V28.2934H217.769V32.4144H202.93Z" fill="black"/>
<path d="M223.975 32.4144V21.2899L214.628 1.58545H219.549L226.172 16.0429L232.762 1.58545H237.639L228.369 21.2899V32.4144H223.975Z" fill="black"/>
<path d="M269.491 27.5841C267.096 31.2885 264.208 33 260.748 33C255.673 33 251.565 29.0028 251.565 23.7896C251.565 19.9951 253.597 16.7072 257.332 14.9958C255.091 12.6988 254.443 10.9986 254.443 8.87051C254.443 4.58058 257.574 1 262.044 1C266.273 1 269.524 4.50176 269.524 8.83673C269.524 12.1246 267.777 14.6242 264.482 16.2569L268.469 20.254L271.764 13.4645H276.52L271.6 23.6319L277.652 29.9599L274.73 33L269.491 27.5841ZM260.232 18.0359C257.672 18.9141 255.959 20.8733 255.959 23.7445C255.959 26.6158 257.947 28.8677 260.759 28.8677C263.076 28.8677 264.987 27.5728 266.569 24.4539L260.232 18.0359ZM265.152 8.70162C265.152 6.74244 263.812 5.12104 262.022 5.12104C260.232 5.12104 258.848 6.70866 258.848 8.87051C258.848 10.323 259.66 11.6179 261.407 13.2505C264.296 11.753 265.141 10.5369 265.141 8.71288L265.152 8.70162Z" fill="black"/>
<path d="M295.017 32.4144V5.70649H289.251V1.58545H305.188V5.70649H299.422V32.4144H295.028H295.017Z" fill="black"/>
<path d="M308.549 32.4144V1.58545H312.942V32.4144H308.549Z" fill="black"/>
<path d="M346.585 24.7917C343.532 30.1626 338.699 33 332.691 33C324.354 33 317.489 25.3322 317.489 17.1239C317.489 7.83462 324.64 1 332.735 1C338.424 1 343.751 3.66854 346.794 9.45602H341.511C339.237 6.74244 336.59 5.12104 333.053 5.12104C326.749 5.12104 321.872 10.582 321.872 16.7072C321.872 23.1703 326.628 28.879 332.801 28.879C335.931 28.879 338.732 27.6291 341.17 24.7917H346.574H346.585Z" fill="black"/>
<path d="M350.771 32.4144V1.58545H355.164V32.4144H350.771Z" fill="black"/>
<path d="M380.569 32.4144L365.697 8.57771H365.62V32.4144H361.227V1.58545H366.026L380.657 25.0394H380.734V1.58545H385.127V32.4144H380.58H380.569Z" fill="black"/>
<path d="M405.106 33C396.77 33 389.707 25.6699 389.707 17.3378C389.707 7.87963 396.781 1.01123 405.227 1.01123C414.168 1.01123 421 8.21742 421 16.7973C421 26.1316 413.97 33 405.106 33ZM416.606 17.0788C416.606 10.7058 411.894 5.12101 405.546 5.12101C397.418 5.12101 394.09 12.2822 394.09 16.8649C394.09 23.0689 398.483 28.8677 405.348 28.8677C412.213 28.8677 416.606 22.6974 416.606 17.0788Z" fill="black"/>
<defs>
<clipPath id="clip0_23_77">
<rect width="128" height="61" fill="white"/>
</clipPath>
</defs>
</svg>
