<svg width="129" height="61" viewBox="0 0 129 61" fill="none" xmlns="http://www.w3.org/2000/svg">
<path d="M105.622 50.6909C96.8442 50.6909 87.5669 44.927 83.019 40.7464C78.0401 36.1671 64.3736 21.2788 64.3055 21.2105C55.3458 11.152 43.2898 0 31.2565 0C16.7734 0 4.13901 10.0698 0.861328 23.4204C1.11084 22.5432 5.71548 10.3204 22.9999 10.3204C31.7782 10.3204 41.0555 16.0844 45.6035 20.265C50.5824 24.8443 64.2488 39.7326 64.3169 39.8009C73.2767 49.848 85.3326 61 97.3659 61C111.849 61 124.483 50.9302 127.772 37.5796C127.523 38.4568 122.918 50.6796 105.633 50.6796L105.622 50.6909Z" fill="#00A3DF"/>
<path d="M64.3062 39.8008C64.3062 39.8008 60.3366 35.4722 55.9248 30.8018C53.5431 33.6496 50.0953 37.5226 46.1485 40.9969C38.7878 47.4785 34.0017 48.8455 31.2571 48.8455C20.925 48.8455 12.4983 40.621 12.4983 30.5056C12.4983 20.3902 20.9137 12.2227 31.2571 12.1657C31.6314 12.1657 32.085 12.1999 32.6408 12.3024C29.5332 11.1063 26.2328 10.3203 23.0005 10.3203C5.7161 10.3203 1.11146 22.5317 0.861952 23.4202C0.30622 25.6985 0 28.0679 0 30.4942C0 47.3076 13.8139 60.9999 31.0416 60.9999C38.2208 60.9999 46.2619 57.2977 54.5525 50.0074C58.4653 46.5558 61.8677 42.8764 64.4196 39.9033C64.3855 39.8692 64.3515 39.835 64.3175 39.7894L64.3062 39.8008Z" fill="url(#paint0_linear_0_1)"/>
<path d="M64.3052 21.1991C64.3052 21.1991 68.2747 25.5277 72.6865 30.1981C75.0682 27.3503 78.516 23.4773 82.4629 20.003C89.8235 13.5214 94.6096 12.1544 97.3542 12.1544C107.686 12.1544 116.113 20.3789 116.113 30.4943C116.113 40.5528 107.698 48.7772 97.3542 48.8342C96.98 48.8342 96.5263 48.8 95.9706 48.6975C99.0781 49.8936 102.379 50.6796 105.611 50.6796C122.895 50.6796 127.5 38.4568 127.749 37.5796C128.305 35.3014 128.611 32.932 128.611 30.5057C128.611 13.6923 114.571 0 97.3542 0C90.1751 0 82.3495 3.70215 74.0702 10.9925C70.1574 14.4441 66.7549 18.1234 64.2031 21.0965C64.2371 21.1307 64.2712 21.1649 64.3052 21.2105V21.1991Z" fill="url(#paint1_linear_0_1)"/>
<defs>
<linearGradient id="paint0_linear_0_1" x1="47.4641" y1="57.013" x2="4.96875" y2="13.2059" gradientUnits="userSpaceOnUse">
<stop offset="0.22" stop-color="#FF0079"/>
<stop offset="0.89" stop-color="#612084"/>
</linearGradient>
<linearGradient id="paint1_linear_0_1" x1="81.1246" y1="4.0211" x2="123.609" y2="47.8282" gradientUnits="userSpaceOnUse">
<stop offset="0.21" stop-color="#FF3100"/>
<stop offset="0.68" stop-color="#FF9900"/>
</linearGradient>
</defs>
</svg>
