<svg width="350" height="70" viewBox="0 0 350 70" fill="none" xmlns="http://www.w3.org/2000/svg">
<g clip-path="url(#clip0_11_7606)">
<path fill-rule="evenodd" clip-rule="evenodd" d="M89.7889 37.977H115.262C113.325 31.4202 107.998 28.3788 102.671 28.3788C97.4405 28.3788 91.8226 31.4202 89.7889 37.977ZM103.155 70.0002C95.9877 70.0002 89.4979 66.96 84.7519 61.8286C80.2003 57.0774 77.7778 50.5207 77.7778 43.5836C77.7778 28.5696 88.5294 17.3564 102.671 17.3564C116.909 17.3564 127.273 28.3788 127.273 43.5836C127.273 46.6238 124.754 49.0953 121.558 49.0953H89.8855C91.8226 54.8915 96.8584 58.9779 103.155 58.9779C108.094 58.9779 112.065 57.6473 114.293 53.6557C115.939 50.9946 119.427 50.2351 122.041 51.7552C124.754 53.3713 125.529 56.7919 123.979 59.357C119.62 67.0548 112.065 70.0002 103.155 70.0002Z" fill="#0080FF" style="fill:#0080FF;fill:color(display-p3 0.0000 0.5020 1.0000);fill-opacity:1;"/>
<path fill-rule="evenodd" clip-rule="evenodd" d="M249.876 43.726C249.876 34.8404 243.601 28.4387 235.1 28.4387C226.499 28.4387 220.325 34.8404 220.325 43.726C220.325 52.5162 226.499 58.9168 235.1 58.9168C243.601 58.9168 249.876 52.5162 249.876 43.726ZM261.616 38.793V64.4585C261.616 67.5165 258.984 70.0002 255.745 70.0002C252.912 70.0002 250.585 68.1848 249.977 65.701C245.727 68.4719 240.565 70.0002 235.1 70.0002C227.612 70.0002 220.831 67.2294 215.872 62.0701C211.217 57.2932 208.586 50.7008 208.586 43.726C208.586 36.6559 211.217 30.0635 215.872 25.2866C220.831 20.1261 227.612 17.3564 235.1 17.3564C240.565 17.3564 245.727 18.8848 249.977 21.6557C256.858 25.8548 261.616 34.0161 261.616 38.793Z" fill="black" style="fill:black;fill-opacity:1;"/>
<mask id="mask0_11_7606" style="mask-type:luminance" maskUnits="userSpaceOnUse" x="266" y="3" width="34" height="66">
<path d="M266.094 3.34473H299.305V68.7876H266.094V3.34473Z" fill="white" style="fill:white;fill-opacity:1;"/>
</mask>
<g mask="url(#mask0_11_7606)">
<path fill-rule="evenodd" clip-rule="evenodd" d="M297.892 63.8279C295.056 66.9401 290.904 68.7878 286.55 68.7878C278.348 68.7878 271.665 62.3693 271.665 54.4936V26.4883C268.624 26.3913 266.094 23.8634 266.094 20.8482C266.094 17.8342 268.624 15.3063 271.665 15.2081V8.98604C271.665 5.8738 274.297 3.34473 277.638 3.34473C280.878 3.34473 283.512 5.8738 283.512 8.98604V15.2081H291.005C294.245 15.2081 296.879 17.7372 296.879 20.8482C296.879 23.9604 294.245 26.4883 291.005 26.4883H283.512V54.4936C283.512 56.1461 284.827 57.5076 286.55 57.5076C287.764 57.5076 288.575 56.8274 288.878 56.4383C291.005 54.1044 294.753 53.8122 297.182 55.8551C299.714 57.7998 300.019 61.3982 297.892 63.8279Z" fill="black" style="fill:black;fill-opacity:1;"/>
</g>
<path fill-rule="evenodd" clip-rule="evenodd" d="M312.515 37.977H337.99C336.053 31.4202 330.724 28.3788 325.397 28.3788C320.167 28.3788 314.549 31.4202 312.515 37.977ZM325.882 70.0002C318.714 70.0002 312.224 66.96 307.478 61.8286C302.926 57.0774 300.505 50.5207 300.505 43.5836C300.505 28.5696 311.257 17.3564 325.397 17.3564C339.636 17.3564 350 28.3788 350 43.5836C350 46.6238 347.482 49.0953 344.285 49.0953H312.612C314.549 54.8915 319.585 58.9779 325.882 58.9779C330.821 58.9779 334.792 57.6473 337.02 53.6557C338.667 50.9946 342.155 50.2351 344.77 51.7552C347.482 53.3713 348.257 56.7919 346.707 59.357C342.348 67.0548 334.792 70.0002 325.882 70.0002Z" fill="black" style="fill:black;fill-opacity:1;"/>
<mask id="mask1_11_7606" style="mask-type:luminance" maskUnits="userSpaceOnUse" x="0" y="0" width="69" height="69">
<path d="M0 0H68.6122V68.1123H0V0Z" fill="white" style="fill:white;fill-opacity:1;"/>
</mask>
<g mask="url(#mask1_11_7606)">
<path fill-rule="evenodd" clip-rule="evenodd" d="M34.3064 0H6.86248C4.7307 0 2.82587 0.964649 1.56684 2.47813C1.42802 2.64709 1.29524 2.82205 1.17211 3.003C0.432149 4.08987 0 5.40084 0 6.81126C0 10.4254 2.83915 13.3745 6.42067 13.601L6.4931 13.6765H34.176C45.4662 13.6765 54.7043 22.8472 54.7043 34.0563C54.7043 45.2654 45.4662 54.4374 34.176 54.4374H16.5834C15.0238 54.423 13.7624 53.178 13.7346 51.6333H13.731H13.725V54.4374L13.7225 40.8676H34.6528C38.4263 40.8676 41.5153 37.8011 41.5153 34.0551C41.5153 30.3092 38.4263 27.2439 34.6528 27.2439H6.86248C6.85403 27.2439 6.84679 27.2451 6.83834 27.2451H6.66813C3.0009 27.2451 0 30.2241 0 33.8658V54.4374V61.3014V61.4931C0 65.1336 3.0009 68.1126 6.66813 68.1126H6.86248H7.05441H34.3064C53.1749 68.1126 68.6127 52.7873 68.6127 34.0563C68.6127 15.3253 53.1749 0 34.3064 0Z" fill="#0080FF" style="fill:#0080FF;fill:color(display-p3 0.0000 0.5020 1.0000);fill-opacity:1;"/>
</g>
<path fill-rule="evenodd" clip-rule="evenodd" d="M14.1414 45.4329H14.1489H14.1533C14.1876 43.4958 15.7483 41.9353 17.6768 41.9233H14.1489H14.1414V45.4329Z" fill="#2196F3" style="fill:#2196F3;fill:color(display-p3 0.1294 0.5882 0.9529);fill-opacity:1;"/>
<mask id="mask2_11_7606" style="mask-type:luminance" maskUnits="userSpaceOnUse" x="131" y="0" width="71" height="70">
<path d="M131.862 0.00537109H201.155V69.9997H131.862V0.00537109Z" fill="white" style="fill:white;fill-opacity:1;"/>
</mask>
<g mask="url(#mask2_11_7606)">
<path fill-rule="evenodd" clip-rule="evenodd" d="M187.374 45.4329H187.365C187.329 43.4958 185.766 41.9353 183.838 41.9233H187.365H187.374V45.4329Z" fill="white" style="fill:white;fill-opacity:1;"/>
</g>
<mask id="mask3_11_7606" style="mask-type:luminance" maskUnits="userSpaceOnUse" x="131" y="0" width="71" height="70">
<path d="M131.862 0.00537109H201.155V69.9997H131.862V0.00537109Z" fill="white" style="fill:white;fill-opacity:1;"/>
</mask>
<g mask="url(#mask3_11_7606)">
<path fill-rule="evenodd" clip-rule="evenodd" d="M166.509 0.00537109H194.226C196.379 0.00537109 198.301 0.996676 199.573 2.55198C199.714 2.72561 199.848 2.9054 199.972 3.09134C200.719 4.20826 201.155 5.55544 201.155 7.00484C201.155 10.7188 198.289 13.7494 194.671 13.9821L194.599 14.0597H166.642C155.238 14.0597 145.909 23.4839 145.909 35.0027C145.909 46.5216 155.238 55.947 166.642 55.947H184.407C185.983 55.9322 187.258 54.6527 187.286 53.0654H187.295V55.947L187.297 42.0022H166.159C162.348 42.0022 159.23 38.851 159.23 35.0015C159.23 31.152 162.348 28.002 166.159 28.002H194.226C194.233 28.002 194.242 28.0033 194.249 28.0033H194.421C198.126 28.0033 201.155 31.0646 201.155 34.8069V55.947V63.0006V63.1976C201.155 66.9387 198.126 70.0001 194.421 70.0001H194.226H194.031H166.509C147.453 70.0001 131.862 54.2513 131.862 35.0027C131.862 15.7542 147.453 0.00537109 166.509 0.00537109Z" fill="black" style="fill:black;fill-opacity:1;"/>
</g>
</g>
<defs>
<clipPath id="clip0_11_7606">
<rect width="350" height="70" fill="white" style="fill:white;fill-opacity:1;"/>
</clipPath>
</defs>
</svg>
