<svg width="128" height="64" viewBox="0 0 128 64" fill="none" xmlns="http://www.w3.org/2000/svg">
<path fill-rule="evenodd" clip-rule="evenodd" d="M40.5894 32.8072L20.817 0L1.04297 32.7171L20.8154 44.4767L40.5902 32.8072H40.5894ZM12.9989 38.6955H28.6951L20.8162 43.3451L12.9989 38.6955ZM21.3021 37.7221V36.0502H26.9803L25.9063 37.7221H21.3021ZM27.6057 35.0768H21.3021V33.405H28.6797L27.6057 35.0768ZM29.3043 32.4316H21.3021V30.7598H30.3783L29.3043 32.4316ZM31.0045 29.7863H21.3029V28.1145H32.0785L31.0045 29.7863ZM32.7031 27.1411H21.3029V25.4693H33.7771L32.7031 27.1411ZM21.7555 18.232V20.9397H19.8768V18.232H21.7555ZM24.5881 21.9131V22.9035H17.045V21.9131H24.5881ZM27.1588 23.8769V24.4959H14.4744V23.8769H27.1588ZM28.1322 22.9035V24.495H34.4439L21.3029 2.69229V17.2586H22.7289V20.9397H25.5615V22.9035H28.1322ZM20.3295 17.2586H18.9042V20.9397H16.0716V22.9035H13.501V24.4959H7.14949L20.3295 2.68823V17.2586ZM20.3303 25.4693V27.1411H8.92272L7.85278 25.4693H20.3295H20.3303ZM20.3303 28.1145V29.7863H10.6156L9.54571 28.1145H20.3295H20.3303ZM20.3303 30.7598V32.4316H12.3086L11.2386 30.7598H20.3303ZM20.3303 33.405V35.0768H14.0007L12.9307 33.405H20.3303ZM20.3303 36.0502V37.7221H15.6928L14.6229 36.0502H20.3295H20.3303ZM30.3459 37.7221H27.0647L34.9842 25.3914L39.2493 32.4681L30.3459 37.7221ZM6.6271 25.3589L14.5369 37.7221H11.3627L2.38303 32.3813L6.6271 25.3589ZM20.8139 46.8944L0 34.6554L20.8139 63.9997L41.6279 34.6554L20.8139 46.8936V46.8944ZM21.3006 47.7372L38.2063 37.7971L21.3006 61.6318V47.738V47.7372ZM20.3272 47.7372V61.631L3.42154 37.7971L20.3272 47.7372ZM121.565 34.2217L118.5 44.9479H120.216L120.921 42.4196H125.12L125.824 44.9479H127.525L124.476 34.2217H121.565ZM124.706 40.8872H121.335L122.898 35.2483H123.143L124.706 40.8872ZM114.336 44.9479L111.348 34.2217H113.064L115.669 43.9059H115.868L118.458 34.2217H120.174L117.201 44.9479H114.336ZM107.006 34.2217L103.941 44.9479H105.658L106.362 42.4196H110.561L111.266 44.9479H112.967L109.917 34.2217H107.006ZM110.147 40.8872H106.776L108.339 35.2483H108.584L110.147 40.8872ZM96.0234 44.9479V34.2217H97.6783V43.4462H102.842V44.9479H96.0234ZM88.8201 44.733C89.4433 45.0191 90.1584 45.1621 90.9654 45.1621C91.7724 45.1621 92.4722 45.0293 93.0646 44.7637C93.6571 44.4879 94.1117 44.1099 94.4284 43.6298C94.7553 43.1496 94.9187 42.5878 94.9187 41.9442C94.9187 41.3007 94.7655 40.7746 94.459 40.3659C94.1526 39.9573 93.7337 39.6355 93.2026 39.4006C92.6713 39.1554 92.0584 38.9562 91.3638 38.803L90.7968 38.6651C90.3371 38.5629 89.954 38.4454 89.6476 38.3126C89.3411 38.1798 89.1062 38.0113 88.9427 37.807C88.7895 37.5925 88.7129 37.3217 88.7129 36.9949C88.7129 36.5147 88.8916 36.1419 89.2492 35.8763C89.6169 35.6004 90.1277 35.4625 90.7815 35.4625C91.231 35.4625 91.6243 35.5289 91.9614 35.6617C92.2985 35.7945 92.559 36.004 92.7429 36.29C92.937 36.576 93.034 36.9489 93.034 37.4086V37.9602H94.6736V37.4086C94.6736 36.6526 94.505 36.0244 94.1679 35.5238C93.8308 35.0233 93.366 34.6453 92.7735 34.3899C92.1912 34.1345 91.5272 34.0068 90.7815 34.0068C90.0358 34.0068 89.3871 34.1294 88.8355 34.3746C88.2838 34.6198 87.8497 34.9671 87.533 35.4166C87.2265 35.866 87.0733 36.4075 87.0733 37.0408C87.0733 37.664 87.2112 38.1747 87.487 38.5731C87.7628 38.9715 88.151 39.2933 88.6516 39.5385C89.1624 39.7734 89.7599 39.9726 90.4444 40.1361L91.0113 40.274C91.4812 40.3864 91.8848 40.509 92.2219 40.6418C92.559 40.7643 92.8195 40.9329 93.0033 41.1474C93.1872 41.3619 93.2792 41.6378 93.2792 41.9749C93.2792 42.4856 93.0851 42.9045 92.6969 43.2314C92.3087 43.548 91.7315 43.7064 90.9654 43.7064C90.2094 43.7064 89.6016 43.5174 89.1419 43.1394C88.6924 42.7615 88.4677 42.1945 88.4677 41.4386V41.0555H86.8281V41.4386C86.8281 42.2354 87.0018 42.9147 87.3491 43.4765C87.7066 44.0282 88.197 44.447 88.8201 44.733ZM84.0195 44.9479V34.2217H85.6744V44.9479H84.0195ZM77.8687 35.7233V44.9479H79.5236V35.7233H82.8181V34.2217H74.5742V35.7233H77.8687ZM65.6367 44.9479L68.7013 34.2217H71.6127L74.662 44.9479H72.9612L72.2563 42.4196H68.0578L67.3529 44.9479H65.6367ZM68.4715 40.8872H71.8426L70.2796 35.2483H70.0345L68.4715 40.8872ZM56.9531 34.2217V44.9479H58.608V40.7187H61.8719C62.1885 40.7187 62.4184 40.8004 62.5614 40.9639C62.7044 41.1273 62.7759 41.3469 62.7759 41.6228V44.9479H64.4461V41.3929C64.4461 40.9434 64.3287 40.6012 64.0937 40.3663C63.8588 40.1211 63.5472 39.9883 63.159 39.9679V39.7227C63.6187 39.5592 64.0069 39.2783 64.3236 38.8799C64.6505 38.4713 64.8139 37.9299 64.8139 37.2557V37.0871C64.8139 36.4946 64.6709 35.9838 64.3848 35.5548C64.109 35.1257 63.7157 34.7989 63.205 34.5741C62.7044 34.3392 62.1221 34.2217 61.4581 34.2217H56.9531ZM61.2743 39.217H58.608V35.7233H61.2743C61.877 35.7233 62.3367 35.8766 62.6533 36.183C62.9802 36.4793 63.1437 36.8879 63.1437 37.4089V37.5315C63.1437 38.0525 62.9802 38.4662 62.6533 38.7727C62.3264 39.0689 61.8667 39.217 61.2743 39.217ZM47.2031 44.9479V43.4769H48.6435V35.6927H47.2031V34.2217H52.6428C53.2864 34.2217 53.8483 34.334 54.3284 34.5588C54.8085 34.7733 55.1814 35.0849 55.447 35.4935C55.7228 35.8919 55.8607 36.3669 55.8607 36.9186V37.0718C55.8607 37.5621 55.7688 37.9656 55.5849 38.2823C55.401 38.599 55.1763 38.8442 54.9107 39.0178C54.6553 39.1915 54.4101 39.3141 54.1752 39.3856V39.6307C54.4101 39.692 54.6604 39.8146 54.926 39.9985C55.2018 40.1722 55.4317 40.4173 55.6155 40.734C55.8096 41.0507 55.9067 41.4644 55.9067 41.9752V42.1284C55.9067 42.7209 55.7688 43.2266 55.4929 43.6454C55.2171 44.0642 54.8341 44.386 54.3437 44.6108C53.8636 44.8355 53.3068 44.9479 52.6735 44.9479H47.2031ZM50.3137 43.4462H52.4743C53.0259 43.4462 53.4601 43.3134 53.7768 43.0478C54.0934 42.7822 54.2518 42.4145 54.2518 41.9445V41.8066C54.2518 41.3367 54.0934 40.969 53.7768 40.7034C53.4703 40.4378 53.0361 40.305 52.4743 40.305H50.3137V43.4462ZM50.3137 38.788H52.4743C52.9953 38.788 53.4141 38.6603 53.7308 38.4049C54.0475 38.1393 54.2058 37.7818 54.2058 37.3323V37.179C54.2058 36.7296 54.0475 36.3771 53.7308 36.1217C53.4243 35.8561 53.0055 35.7233 52.4743 35.7233H50.3137V38.788ZM64.2617 18.8984V29.6246H65.9166V24.997H70.4216V29.6246H72.0765V18.8984H70.4216V23.4954H65.9166V18.8984H64.2617ZM58.3648 29.6246V20.4001H55.0703V18.8984H63.3142V20.4001H60.0197V29.6246H58.3648ZM47.2461 18.8984V29.6246H54.0802V28.123H48.901V24.9817H53.5746V23.4801H48.901V20.4001H54.0036V18.8984H47.2461Z" fill="black"/>
</svg>
