<?xml version="1.0" standalone="no"?>
<!DOCTYPE svg PUBLIC "-//W3C//DTD SVG 20010904//EN"
 "http://www.w3.org/TR/2001/REC-SVG-20010904/DTD/svg10.dtd">
<svg version="1.0" xmlns="http://www.w3.org/2000/svg"
 width="500.000000pt" height="500.000000pt" viewBox="0 0 500.000000 500.000000"
 preserveAspectRatio="xMidYMid meet">

<g transform="translate(0.000000,500.000000) scale(0.100000,-0.100000)"
fill="#000000" stroke="none">
<path d="M2377 3056 c-92 -153 -167 -280 -167 -284 0 -4 75 -51 166 -105 l167
-98 163 97 c90 52 166 99 168 103 3 3 -67 126 -155 271 -88 146 -164 271 -168
279 -5 9 -61 -76 -174 -263z m153 36 l0 -158 -132 -62 c-72 -34 -132 -61 -134
-60 -3 4 257 438 262 438 2 0 4 -71 4 -158z m288 -276 c-1 -2 -60 24 -130 57
l-128 60 0 161 0 161 131 -218 c72 -120 129 -220 127 -221z m-288 -62 l0 -146
-37 22 c-194 112 -232 136 -230 143 2 7 246 126 260 127 4 0 7 -66 7 -146z
m171 85 c70 -34 126 -65 124 -70 -3 -4 -53 -35 -113 -70 -59 -34 -117 -69
-129 -77 l-23 -14 0 146 c0 80 3 146 6 146 3 0 64 -28 135 -61z"/>
<path d="M2210 2652 c79 -117 326 -461 332 -462 3 0 83 108 177 240 96 135
161 235 149 229 -12 -7 -90 -54 -174 -104 l-151 -93 -139 85 c-76 47 -155 94
-174 106 l-35 21 15 -22z m220 -150 l95 -58 3 -99 c1 -55 1 -97 -1 -95 -16 19
-227 320 -227 325 0 7 3 5 130 -73z m353 66 c-14 -23 -205 -293 -214 -302 -5
-6 -9 29 -9 85 l1 94 112 67 c62 37 113 68 115 68 2 0 0 -6 -5 -12z"/>
<path d="M620 2440 c0 -20 7 -20 510 -20 503 0 510 0 510 20 0 20 -7 20 -510
20 -503 0 -510 0 -510 -20z"/>
<path d="M3360 2440 c0 -20 7 -20 510 -20 503 0 510 0 510 20 0 20 -7 20 -510
20 -503 0 -510 0 -510 -20z"/>
<path d="M620 1965 l0 -205 65 0 65 0 2 174 3 175 100 -174 100 -175 121 0
122 0 98 175 c55 96 102 175 107 175 4 0 7 -79 7 -175 l0 -175 60 0 60 0 0
205 0 205 -114 0 -114 0 -107 -182 c-59 -101 -110 -186 -114 -191 -4 -4 -56
78 -117 183 l-109 190 -117 0 -118 0 0 -205z"/>
<path d="M1640 1965 l0 -205 65 0 65 0 0 205 0 205 -65 0 -65 0 0 -205z"/>
<path d="M1880 1965 l0 -205 335 0 335 0 0 45 0 45 -270 0 -270 0 0 160 0 160
-65 0 -65 0 0 -205z"/>
<path d="M2795 1973 c-88 -108 -161 -200 -163 -205 -2 -4 28 -8 66 -8 l71 0
38 50 38 49 211 1 212 0 38 -50 38 -50 74 0 75 0 -24 30 c-13 17 -87 109 -164
205 l-140 174 -105 0 -105 0 -160 -196z m325 70 l62 -78 -61 -3 c-33 -2 -89
-2 -124 0 l-65 3 62 77 c33 43 62 78 63 78 0 0 29 -35 63 -77z"/>
<path d="M3570 1965 l0 -205 60 0 60 0 2 175 3 174 220 -174 219 -175 123 0
123 0 0 205 0 205 -60 0 -60 0 0 -180 c0 -99 -3 -180 -6 -180 -3 0 -108 81
-232 180 l-226 180 -113 0 -113 0 0 -205z"/>
</g>
</svg>
