<svg width="668" height="187" viewBox="0 0 668 187" fill="none" xmlns="http://www.w3.org/2000/svg">
<path fill-rule="evenodd" clip-rule="evenodd" d="M12.4031 45.9244C4.35798 60.0035 0.000145936 76.0938 0.000144441 93.1897L0.000137906 167.943L0.000137701 170.289C0.00013729 174.982 1.67621 178.67 4.69315 181.686C8.04529 184.703 11.7327 186.379 16.0905 186.379L96.2069 186.379L98.8885 186.379C114.979 186.379 129.393 182.357 142.802 173.977C155.875 165.931 166.267 154.869 173.641 140.79C181.016 126.711 184.704 110.621 184.704 93.1898C184.704 75.7586 180.681 60.0035 172.636 45.9244C164.591 31.8454 153.529 20.4481 139.45 12.403C125.371 4.3578 109.615 -6.56441e-06 92.1843 -8.08829e-06C75.0884 -9.58287e-06 59.6685 4.35779 45.5894 12.403C31.5104 20.4481 20.4483 31.8454 12.4031 45.9244Z" fill="url(#paint0_linear_237_462)"/>
<path fill-rule="evenodd" clip-rule="evenodd" d="M49.5485 49.0846C49.6277 49.0846 49.7068 49.0852 49.7858 49.0862L50.4018 49.0862C53.3841 49.0862 56.1909 49.8464 58.6468 51.2498C61.1028 52.6532 63.091 54.5829 64.4944 57.0389C65.8978 59.4948 66.6579 62.1847 66.6579 65.167C66.6579 65.2867 66.6568 65.4059 66.6544 65.5247C66.6632 65.75 66.6676 65.9764 66.6676 66.2038L66.6676 122.934C66.6676 124.477 65.4163 125.729 63.8727 125.729H59.476C45.487 125.729 34.1467 114.388 34.1467 100.399L34.1467 66.5177C34.146 66.4574 34.1457 66.397 34.1457 66.3364L34.1457 65.8687L34.1457 51.893C34.1457 51.8062 34.1495 51.7208 34.1571 51.6369C34.2196 50.9093 34.561 50.2613 35.0738 49.8004C35.4988 49.4133 35.998 49.1723 36.5996 49.1053C36.7117 49.0917 36.8258 49.0846 36.9416 49.0846L49.5485 49.0846ZM94.2266 81.5683C93.8997 81.5884 93.5688 81.5984 93.2337 81.5984H92.7659H78.7903C78.0301 81.5984 77.3869 81.306 76.8022 80.7797C76.2759 80.2534 75.9835 79.6102 75.9835 78.7915V78.3822V65.3422C75.9835 62.36 76.7437 59.5532 78.1471 57.0972C79.5505 54.6412 81.4802 52.6531 83.9362 51.2497C86.3921 49.8463 89.082 49.0861 92.0642 49.0861C92.2496 49.0861 92.4339 49.0889 92.617 49.0945C92.8118 49.088 93.0074 49.0847 93.2038 49.0847L151.59 49.0847C153.133 49.0847 154.385 50.336 154.385 51.8796V56.2389C154.385 70.2279 143.044 81.5683 129.055 81.5683H94.2266ZM93.2349 125.233C93.5698 125.233 93.9005 125.223 94.2272 125.203H113.055C127.044 125.203 138.384 113.863 138.384 99.8738V95.5145C138.384 93.9709 137.133 92.7196 135.589 92.7196H93.2026C93.0068 92.7196 92.8117 92.7229 92.6175 92.7294C92.4345 92.7238 92.2505 92.721 92.0654 92.721C89.0831 92.721 86.3933 93.4811 83.9373 94.8846C81.4814 96.288 79.5517 98.2761 78.1483 100.732C76.7449 103.188 75.9847 105.995 75.9847 108.977V122.017V122.426C75.9847 123.245 76.277 123.888 76.8033 124.415C77.3881 124.941 78.0313 125.233 78.7915 125.233H92.7671H93.2349ZM66.6297 152.339C66.6297 155.321 65.8695 158.128 64.4661 160.584C63.0627 163.04 61.133 165.028 58.6771 166.432C56.2211 167.835 53.5313 168.595 50.549 168.595C47.5083 168.595 44.76 167.835 42.304 166.432C39.848 165.028 37.9184 163.04 36.515 160.584C35.1115 158.128 34.4098 155.38 34.4098 152.339C34.4098 149.298 35.0531 146.492 36.3395 144.036C37.626 141.58 39.4387 139.65 41.7193 138.247C44.0583 136.785 46.5727 136.083 49.3795 136.083H49.8473H63.8229C64.5831 136.083 65.2263 136.375 65.8111 136.902C66.3374 137.428 66.6297 138.071 66.6297 138.89V139.299V152.339Z" fill="white"/>
<path d="M259.18 41.5123H288.51V16.5713H258.382C225.659 16.5713 218.875 33.3316 218.277 58.0731H203.911V82.0164H218.277V167.813H246.211V82.0164H288.51V58.0731H246.211C246.41 46.3009 248.006 41.5123 259.18 41.5123Z" fill="#232324"/>
<path d="M344.571 169.808C364.125 169.808 375.498 164.62 382.083 154.843V167.813H410.017V58.0724H382.083V70.8422C375.698 61.2649 364.325 56.0771 344.571 56.0771C306.063 56.0771 287.107 75.8304 287.107 112.943C287.107 148.459 304.666 169.808 344.571 169.808ZM315.041 112.943C315.041 93.3889 327.412 83.0134 348.562 83.0134C370.311 83.0134 382.083 94.187 382.083 112.943C382.083 132.496 369.712 142.872 348.562 142.872C326.813 142.872 315.041 131.698 315.041 112.943Z" fill="#232324"/>
<path d="M509.557 107.954V167.813H537.49V107.954C537.49 75.6309 515.742 56.0771 485.414 56.0771C467.057 56.0771 455.884 61.0654 449.299 70.4432V58.0724H421.365V167.813H449.299V107.954C449.299 91.7926 461.67 83.0134 479.428 83.0134C497.784 83.0134 509.557 92.5907 509.557 107.954Z" fill="#232324"/>
<path d="M602.555 169.808C622.109 169.808 633.482 164.62 640.066 154.843V167.813H668V58.0724H640.066V70.8422C633.681 61.2649 622.308 56.0771 602.555 56.0771C564.046 56.0771 545.091 75.8304 545.091 112.943C545.091 148.459 562.649 169.808 602.555 169.808ZM573.025 112.943C573.025 93.3889 585.395 83.0134 606.545 83.0134C628.294 83.0134 640.066 94.187 640.066 112.943C640.066 132.496 627.695 142.872 606.545 142.872C584.797 142.872 573.025 131.698 573.025 112.943Z" fill="#232324"/>
<defs>
<linearGradient id="paint0_linear_237_462" x1="184.704" y1="0" x2="-32.8237" y2="53.8928" gradientUnits="userSpaceOnUse">
<stop stop-color="#0F5366"/>
<stop offset="1" stop-color="#03313F"/>
</linearGradient>
</defs>
</svg>
