<svg width="347" height="144" viewBox="0 0 347 144" fill="none" xmlns="http://www.w3.org/2000/svg">
<g clip-path="url(#clip0_0_1)">
<path d="M148.897 21.8966H140.381V14.9688H165.35V21.8966H156.763V43.4739H148.897V21.8966Z" fill="black" style="fill:black;fill-opacity:1;"/>
<path d="M167.66 14.9688H175.598V25.6492H185.701V14.9688H193.639V43.4739H185.701V32.6492H175.598V43.4739H167.66V14.9688Z" fill="black" style="fill:black;fill-opacity:1;"/>
<path d="M197.536 14.9688H220.485V21.6801H205.33V26.01H219.041V32.2161H205.33V36.7626H220.701V43.4739H197.536V14.9688Z" fill="black" style="fill:black;fill-opacity:1;"/>
<path d="M140.959 71.4743V71.4021C140.959 63.1031 147.309 56.5361 155.969 56.5361C161.815 56.5361 165.567 58.9897 168.093 62.4537L162.175 67.0722C160.516 65.0516 158.639 63.7526 155.969 63.7526C152 63.7526 149.186 67.1444 149.186 71.3299V71.4021C149.186 75.6598 152 79.0516 155.969 79.0516C158.928 79.0516 160.66 77.6805 162.392 75.5877L168.309 79.8454C165.639 83.5258 161.959 86.2681 155.753 86.2681C147.526 86.2681 140.959 79.9897 140.959 71.4743Z" fill="black" style="fill:black;fill-opacity:1;"/>
<path d="M170.546 57.1855H184.041C188.371 57.1855 191.402 58.3402 193.351 60.2165C195.01 61.8763 195.876 64.0412 195.876 66.8557V66.9278C195.876 71.3299 193.567 74.2165 190.031 75.7319L196.814 85.6907H187.721L181.948 77.0309H178.412V85.6907H170.474V57.1855H170.546ZM183.752 70.8247C186.422 70.8247 188.01 69.5258 188.01 67.433V67.3608C188.01 65.0515 186.35 63.9691 183.752 63.9691H178.556V70.8247H183.752Z" fill="black" style="fill:black;fill-opacity:1;"/>
<path d="M205.979 75.0103L195.082 57.1855H204.103L209.948 67.5773L215.866 57.1855H224.742L213.845 74.866V85.6907H205.979V75.0103Z" fill="black" style="fill:black;fill-opacity:1;"/>
<path d="M226.041 57.1855H238.309C245.454 57.1855 250.144 60.866 250.144 67.1443V67.2165C250.144 74 244.948 77.5361 237.948 77.5361H233.907V85.6907H225.969V57.1855H226.041ZM237.732 71.3299C240.474 71.3299 242.278 69.8144 242.278 67.5773V67.5051C242.278 65.0515 240.546 63.8247 237.732 63.8247H233.907V71.3299H237.732Z" fill="black" style="fill:black;fill-opacity:1;"/>
<path d="M259.309 64.1134H250.794V57.1855H275.763V64.1134H267.175V85.6907H259.309V64.1134Z" fill="black" style="fill:black;fill-opacity:1;"/>
<path d="M140.959 113.691V113.619C140.959 105.32 147.454 98.7529 156.258 98.7529C161.237 98.7529 164.846 100.268 167.804 102.866L163.186 108.495C161.165 106.763 159.144 105.825 156.33 105.825C152.217 105.825 149.041 109.217 149.041 113.619V113.691C149.041 118.31 152.289 121.629 156.763 121.629C158.711 121.629 160.155 121.196 161.309 120.475V117.011H155.753V111.237H168.815V124.011C165.784 126.536 161.67 128.485 156.402 128.485C147.598 128.413 140.959 122.351 140.959 113.691Z" fill="black" style="fill:black;fill-opacity:1;"/>
<path d="M181.948 99.1133H189.598L201.722 127.835H193.278L191.258 122.711H180.144L178.124 127.835H169.897L181.948 99.1133ZM188.876 116.577L185.701 108.495L182.526 116.577H188.876Z" fill="black" style="fill:black;fill-opacity:1;"/>
<path d="M206.701 106.258H198.186V99.3301H223.155V106.258H214.567V127.835H206.701V106.258Z" fill="black" style="fill:black;fill-opacity:1;"/>
<path d="M225.464 99.3301H248.412V106.041H233.258V110.371H246.969V116.65H233.258V121.124H248.629V127.835H225.464V99.3301Z" fill="black" style="fill:black;fill-opacity:1;"/>
<path d="M249.639 99.33H258.01L262.918 115.856L268.474 99.2578H275.258L280.742 115.856L285.722 99.33H293.948L284.351 128.052H277.495L271.794 111.67L266.021 128.052H259.165L249.639 99.33Z" fill="black" style="fill:black;fill-opacity:1;"/>
<path d="M302.103 99.1133H309.753L321.876 127.835H313.433L311.412 122.711H300.299L298.278 127.835H289.979L302.103 99.1133ZM309.031 116.577L305.856 108.495L302.608 116.577H309.031Z" fill="black" style="fill:black;fill-opacity:1;"/>
<path d="M327.289 117.155L316.392 99.3301H325.412L331.33 109.722L337.175 99.3301H346.052L335.227 117.083V127.835H327.289V117.155Z" fill="black" style="fill:black;fill-opacity:1;"/>
<path d="M291.278 56.6084C282.474 56.6084 275.907 63.2476 275.907 71.4744V71.5465C275.907 79.7733 282.402 86.2681 291.206 86.2681C300.01 86.2681 306.577 79.6289 306.577 71.4022V71.33C306.649 63.1754 300.082 56.6084 291.278 56.6084ZM290.196 79.0516L283.629 63.6084H287.237L293.804 79.0516H290.196ZM295.536 79.0516L288.969 63.6084H292.577L299.144 79.0516H295.536Z" fill="black" style="fill:black;fill-opacity:1;"/>
</g>
<path d="M0 0.208984L54.9741 128.847H85.119L30.1449 0.208984H0Z" fill="url(#paint0_linear_0_1)" style=""/>
<path d="M45.1502 0.208984L100.124 128.847H130.269L75.295 0.208984H45.1502Z" fill="url(#paint1_linear_0_1)" style=""/>
<defs>
<linearGradient id="paint0_linear_0_1" x1="-7.44277" y1="0.208984" x2="-7.44277" y2="128.714" gradientUnits="userSpaceOnUse">
<stop offset="0.0819277" stop-color="#4A9C50" style="stop-color:#4A9C50;stop-color:color(display-p3 0.2902 0.6118 0.3137);stop-opacity:1;"/>
<stop offset="0.519277" stop-color="#189091" style="stop-color:#189091;stop-color:color(display-p3 0.0941 0.5647 0.5686);stop-opacity:1;"/>
<stop offset="0.903614" stop-color="#114143" style="stop-color:#114143;stop-color:color(display-p3 0.0667 0.2549 0.2627);stop-opacity:1;"/>
</linearGradient>
<linearGradient id="paint1_linear_0_1" x1="37.7074" y1="0.208984" x2="37.7074" y2="128.714" gradientUnits="userSpaceOnUse">
<stop offset="0.0819277" stop-color="#4A9C50" style="stop-color:#4A9C50;stop-color:color(display-p3 0.2902 0.6118 0.3137);stop-opacity:1;"/>
<stop offset="0.519277" stop-color="#189091" style="stop-color:#189091;stop-color:color(display-p3 0.0941 0.5647 0.5686);stop-opacity:1;"/>
<stop offset="0.903614" stop-color="#114143" style="stop-color:#114143;stop-color:color(display-p3 0.0667 0.2549 0.2627);stop-opacity:1;"/>
</linearGradient>
<clipPath id="clip0_0_1">
<rect width="229.485" height="140" fill="white" style="fill:white;fill-opacity:1;" transform="translate(117 4)"/>
</clipPath>
</defs>
</svg>
