<svg width="52" height="40" viewBox="0 0 52 40" fill="none" xmlns="http://www.w3.org/2000/svg">
<path d="M15.3747 29.1054C17.1041 30.4132 19.0952 31.3227 21.2084 31.77C23.3216 32.2173 25.5059 32.1918 27.6083 31.6951C29.7108 31.1984 31.6805 30.2425 33.3796 28.8945C35.0787 27.5465 36.466 25.8389 37.4445 23.8913C38.423 21.9437 38.969 19.8031 39.0442 17.6196C39.1195 15.436 38.7221 13.2621 37.88 11.2503C37.0379 9.23844 35.7714 7.43721 34.1692 5.97274C32.567 4.50826 30.6678 3.41595 28.6046 2.77229L27.601 6.06704C29.1896 6.56266 30.652 7.40374 31.8857 8.53139C33.1194 9.65903 34.0946 11.046 34.743 12.5951C35.3915 14.1442 35.6974 15.8181 35.6395 17.4994C35.5816 19.1808 35.1612 20.829 34.4077 22.3287C33.6543 23.8284 32.586 25.1432 31.2777 26.1812C29.9694 27.2191 28.4527 27.9551 26.8339 28.3376C25.215 28.72 23.5331 28.7397 21.9059 28.3953C20.2787 28.0508 18.7456 27.3506 17.4139 26.3435L15.3747 29.1054Z" fill="#2B5CED"/>
<path d="M41.3751 31.5581C38.3012 35.1456 34.2033 37.6798 29.6465 38.8113C25.0896 39.9428 20.2981 39.616 15.9325 37.8758C11.5669 36.1356 7.8422 33.0678 5.27182 29.0953C2.70144 25.1228 1.41196 20.4411 1.58116 15.6958L4.98041 15.8199C4.8366 19.8535 5.93265 23.8329 8.11747 27.2095C10.3023 30.5861 13.4683 33.1938 17.1791 34.6729C20.8898 36.1521 24.9626 36.4299 28.8359 35.4681C32.7092 34.5063 36.1924 32.3523 38.8053 29.3029L41.3751 31.5581Z" fill="#4E9F29"/>
<path fill-rule="evenodd" clip-rule="evenodd" d="M5.21558 13.1109C5.21558 12.4138 4.65719 11.8487 3.96837 11.8487C3.27956 11.8487 2.72117 12.4138 2.72117 13.1109C2.72117 13.808 3.27956 14.3731 3.96837 14.3731C4.65719 14.3731 5.21558 13.808 5.21558 13.1109ZM7.93675 13.1109C7.93675 10.8928 6.16005 9.09478 3.96837 9.09478C1.7767 9.09478 -2.72502e-07 10.8928 -1.75549e-07 13.1109C-7.85958e-08 15.3289 1.7767 17.127 3.96837 17.127C6.16005 17.127 7.93675 15.3289 7.93675 13.1109Z" fill="#4E9F29"/>
<path fill-rule="evenodd" clip-rule="evenodd" d="M26.3953 4.01614C26.3953 3.31905 25.8369 2.75394 25.1481 2.75394C24.4593 2.75394 23.9009 3.31905 23.9009 4.01614C23.9009 4.71323 24.4593 5.27834 25.1481 5.27834C25.8369 5.27834 26.3953 4.71323 26.3953 4.01614ZM29.1164 4.01614C29.1164 1.79812 27.3397 5.50406e-05 25.1481 5.51376e-05C22.9564 5.52345e-05 21.1797 1.79812 21.1797 4.01614C21.1797 6.23416 22.9564 8.03223 25.1481 8.03223C27.3397 8.03223 29.1164 6.23416 29.1164 4.01614Z" fill="#2B5CED"/>
<path fill-rule="evenodd" clip-rule="evenodd" d="M24.6852 37.3992C24.815 38.087 24.966 38.775 25.1389 39.4624C26.7818 39.3941 28.4428 39.1427 30.0975 38.694C42.1946 35.4136 49.3735 22.8298 46.1321 10.5872C45.1725 6.96281 43.4071 3.77461 41.0833 1.16715C31.3523 6.84908 25.0424 17.0862 24.1826 28.3215L27.6027 28.2482C28.39 19.2564 33.055 11.0039 40.3088 5.76025C41.4247 7.46787 42.2925 9.38556 42.8465 11.4782C45.4882 21.4554 39.9876 31.6993 30.4669 34.9844L30.5149 37.2741L24.6852 37.3992Z" fill="#4E9F29"/>
<path fill-rule="evenodd" clip-rule="evenodd" d="M24.0882 28.6502C23.166 28.6363 22.229 28.508 21.2931 28.2542C15.2059 26.6035 11.5935 20.2714 13.2246 14.111C13.6312 12.575 14.3229 11.1983 15.2267 10.0203C21.461 13.8693 25.0275 21.1562 24.0882 28.6502ZM14.5426 5.77244C24.2364 10.1773 29.6532 21.1173 26.9425 31.8432C24.8389 32.2387 22.6173 32.1771 20.4128 31.5793C12.511 29.4365 7.82172 21.2168 9.939 13.2201C10.735 10.2135 12.3798 7.66656 14.5426 5.77244Z" fill="#2B5CED"/>
</svg>
