<svg width="414" height="477" viewBox="0 0 414 477" fill="none" xmlns="http://www.w3.org/2000/svg">
<g filter="url(#filter0_d_46_2502)">
<path d="M4 89.7655C11.0027 87.6749 14.132 82.8189 18.0067 79.2815C20.3973 77.0989 21.5067 72.7802 19.6013 70.5109C16.3507 66.6415 14.888 62.2789 13.1707 57.8269C12.6947 56.5909 9.95867 55.9762 11.756 54.1629C12.9947 52.9149 13.816 50.9015 16.6947 51.6509C25.5533 53.9589 34.1613 51.0296 42.704 49.2962C47.8067 48.2616 49.9133 43.4082 51.212 38.8562C51.9173 36.3855 52.032 33.9709 55.2507 32.7282C57.8493 41.7122 67.9707 45.3589 70.484 54.9322C71.2213 57.7375 76.916 57.3989 77.7227 53.5589C79.5453 44.8682 85.2733 38.3162 88.8027 30.6042C95.2587 37.1029 95.604 37.1522 104.257 32.6562C105.375 34.3002 106.161 36.4735 107.709 37.5122C110.421 39.3322 113.531 39.8776 113.859 35.1296C114.117 31.3749 113.911 27.5855 113.911 23.0442C116.957 24.9415 119.701 28.3149 123.196 25.0509C126.167 22.2775 124.736 18.7349 124.377 15.5149C124.203 13.9549 121.604 12.1549 124.079 10.9775C126.315 9.91221 129.081 8.50955 131.685 10.4562C136.971 14.4029 140.641 13.3002 145.561 8.65353C149.435 4.9962 155.877 4.00289 161.255 2.03089C163.335 1.26689 165.668 1.21755 167.807 0.576217C170.645 -0.274449 172.092 -0.739795 173.44 3.32154C176.621 12.9135 188.176 19.1362 198.087 17.8042C199.164 17.6589 200.313 17.4095 201.333 17.6375C204.396 18.3215 207.255 19.9442 210.533 19.6229C213.4 19.3416 216.265 19.0269 219.368 18.7029C220.012 21.0096 219.019 22.6749 217.507 24.0122C215.148 26.1002 214.196 29.5469 215.571 31.3642C218.733 35.5509 216.977 40.7229 219.299 44.7815C221.539 48.6962 220.369 50.4776 216.231 50.1522C211.777 49.8016 208.34 51.6535 205.131 54.2162C198.836 59.2442 193.072 64.6842 183.867 64.3149C179.151 64.1242 175.208 73.7042 177.963 79.2442C181.391 86.1375 179.8 93.1722 179.829 100.043C179.881 112.2 179.801 124.067 189.479 133.284C190.415 134.176 191.38 134.351 189.813 136.076C188.216 137.838 190.865 140.18 192.108 139.283C197.484 135.396 199.541 140.578 202.711 142.606C204.595 143.811 206.107 145.794 208.116 146.572C224.788 153.023 231.875 166.64 235.684 182.814C238.624 195.302 244.753 205.247 256.672 211.372C261.935 214.076 265.319 219.511 270.468 222.846C276.537 226.775 282.577 230.468 289.892 228.946C296.781 227.511 303.675 230.12 310.54 227.956C312.963 227.192 317.123 226.554 317.947 230.458C318.563 233.366 315.573 235.724 313.136 236.183C307.268 237.286 309.071 241.556 309.4 244.659C309.816 248.591 311.675 252.322 316.583 252.134C324.345 251.839 331.137 254.406 337.624 258.328C339.136 259.24 341.015 260.33 342.619 260.182C353.721 259.156 360.747 266.739 369.056 271.912C373.529 274.698 378.981 275.882 383.908 277.979C393.699 282.147 401.867 288.694 408.311 296.958C411.543 301.099 408.113 306.451 407.752 311.223C407.587 313.422 405.023 311.9 403.851 311.255C399.723 308.982 396.828 305.518 395.848 300.867C394.744 295.623 392.087 293.163 386.444 293.639C380.131 294.174 374.593 292.142 369.78 287.695C365.572 283.806 354.977 284.939 352.099 289.794C347.773 297.086 343.052 304.474 343.228 313.43C343.312 317.663 339.903 320.664 340.271 325.075C340.609 329.124 341.412 330.512 345.897 331.332C360.991 334.09 366.311 339.34 366.312 353.127C366.312 356.815 365.611 358.767 361.203 359.182C353.736 359.888 346.665 367.203 347.461 374.232C348.573 384.05 343.217 390.463 337.593 396.838C335.543 399.162 333.755 401.259 333.657 404.322C333.556 407.524 331.477 408.595 328.92 409.118C326.045 409.704 324.637 407.958 322.965 405.77C320.993 403.19 322.156 401.464 323.732 400.111C328.676 395.862 328.12 390.222 327.173 385.026C326.093 379.095 328.328 376.356 333.492 374.304C342.927 370.556 343.344 368.102 336.592 360.418C334.487 358.02 332.681 355.754 333.908 351.998C335.164 348.162 334.212 344.842 330.577 341.975C324.315 337.039 321.533 329.723 319.412 322.308C316.641 312.626 313.276 310.567 303.501 313.216C302.869 313.387 301.733 313.738 301.643 313.57C298.361 307.475 288.805 307.336 287.916 298.804C287.601 295.774 286.333 292.611 284.715 289.995C281.813 285.306 278.26 281.704 272.095 285.995C270.019 287.44 266.765 287.846 266.512 284.036C266.159 278.682 262.781 278.528 258.949 278.78C255.001 279.038 252.955 278.14 252.473 273.391C251.608 264.86 247.169 261.802 238.371 261.01C227.017 259.984 214.917 261.243 205.627 252.45C199.432 246.584 190.088 243.455 188.703 233.319C188.367 230.86 186.761 230.095 184.469 229.78C177.524 228.83 173.804 224.412 170.841 218.247C167.673 211.655 159.996 210.95 154.012 208.476C151.783 207.555 150.473 207.323 150.725 204.947C151.176 200.71 148.801 198.599 145.628 196.258C142.508 193.955 137.593 192.724 137.807 187.247C137.827 186.738 136.487 185.716 135.767 185.706C128.651 185.603 129.055 181.542 130.127 176.287C130.997 172.028 129.964 168.456 125.869 165.132C120.111 160.462 119.4 152.908 119.529 145.887C119.631 140.264 117.611 136.508 112.36 135.158C106.715 133.708 102.377 129.142 96.304 128.838C95.26 128.784 93.74 128.216 93.3147 127.42C88.892 119.131 79.8387 121.372 73.052 118.73C67.0333 116.384 60.6813 119.875 56.128 123.548C51.9947 126.884 47.6853 130.787 45.6107 136.358C43.352 142.428 38.2373 144.379 32.0907 144.039C31.0173 143.979 29.7293 144.154 29.1427 142.91C28.456 141.452 29.9093 141.082 30.58 140.274C31.7253 138.892 32.816 137.451 33.7853 135.942C36.072 132.383 35.148 130.235 31.044 128.878C28.3773 127.998 25.7667 127.82 23.056 127.782C12.564 127.628 6.55067 117.234 11.584 107.978C14.848 101.979 13.96 97.4389 8.752 93.4495C7.16133 92.2309 5.584 90.9935 4 89.7655Z" fill="#CA75AB"/>
<path d="M308.397 401.59C307.307 407.26 305.242 412.316 302.119 416.908C295.09 427.25 294.734 434.738 303.553 448.66C306.253 452.92 306.879 456.282 303.067 459.872C302.574 460.336 302.077 460.803 301.641 461.319C299.775 463.518 302.847 469.459 298.038 468.552C292.011 467.415 284.662 470.096 280.061 463.138C275.175 455.751 268.481 452.31 258.997 452.487C251.425 452.628 244.137 447.752 238.367 443.546C230.082 437.503 220.63 435.218 211.778 431.152C206.395 428.68 203.33 424.468 204.922 419.971C206.707 414.923 211.965 412.396 217.179 414.42C219.47 415.31 221.913 416.108 223.481 414.215C229.183 407.335 235.159 411.783 240.131 414.362C245.762 417.284 250.422 418.327 256.591 415.907C264.919 412.644 274.385 413.816 282.841 410.286C284.899 409.427 287.087 409.387 288.439 407.098C289.007 406.138 291.279 405.016 291.807 405.379C298.718 410.13 303.098 404.89 308.397 401.59Z" fill="#CA75AB"/>
<path d="M83.6458 357.807C76.9645 356.495 72.7725 358.438 72.1272 366.478C71.7458 371.237 66.0512 371.307 62.7525 373.069C60.8778 374.069 61.1072 369.407 59.5592 368.095C52.3018 361.941 56.2392 353.802 55.5138 346.514C55.2672 344.043 56.3232 342.039 57.5792 339.746C59.9912 335.342 63.8952 330.398 57.6778 325.354C56.4632 324.369 56.4365 320.878 57.0272 318.89C59.4392 310.767 55.1272 304.201 52.5245 297.246C52.0152 295.885 51.3605 294.169 49.4952 293.875C47.1392 293.503 45.5565 292.537 46.4645 289.853C47.1418 287.857 48.2445 286.179 50.7792 286.294C60.4978 286.739 67.7618 282.346 74.3432 275.469C80.4165 269.125 88.2912 271.374 91.3432 280.177C93.2618 285.711 95.2472 291.146 97.7832 296.43C99.2578 299.506 100.027 303.282 96.8712 305.687C93.3698 308.357 93.8618 311.774 94.5658 314.89C97.5885 328.274 94.3232 341.294 92.6405 354.385C91.9032 360.113 87.0125 356.918 83.6458 357.807Z" fill="#CA75AB"/>
</g>
<defs>
<filter id="filter0_d_46_2502" x="0" y="0" width="413.686" height="476.646" filterUnits="userSpaceOnUse" color-interpolation-filters="sRGB">
<feFlood flood-opacity="0" result="BackgroundImageFix"/>
<feColorMatrix in="SourceAlpha" type="matrix" values="0 0 0 0 0 0 0 0 0 0 0 0 0 0 0 0 0 0 127 0" result="hardAlpha"/>
<feOffset dy="4"/>
<feGaussianBlur stdDeviation="2"/>
<feComposite in2="hardAlpha" operator="out"/>
<feColorMatrix type="matrix" values="0 0 0 0 0 0 0 0 0 0 0 0 0 0 0 0 0 0 0.7 0"/>
<feBlend mode="normal" in2="BackgroundImageFix" result="effect1_dropShadow_46_2502"/>
<feBlend mode="normal" in="SourceGraphic" in2="effect1_dropShadow_46_2502" result="shape"/>
</filter>
</defs>
</svg>
