<svg width="1800" height="2183" viewBox="0 0 1800 2183" fill="none" xmlns="http://www.w3.org/2000/svg">
<g filter="url(#filter0_d_0_1)">
<circle cx="900" cy="900" r="150" fill="#EDDB55" fill-opacity="0.6" style="fill:#EDDB55;fill:color(display-p3 0.9294 0.8588 0.3333);fill-opacity:0.6;" shape-rendering="crispEdges"/>
</g>
<path d="M214.579 1174.32L796.863 862.163L793.984 1570.83L214.579 1174.32Z" fill="#9ECC51" style="fill:#9ECC51;fill:color(display-p3 0.6196 0.8000 0.3176);fill-opacity:1;"/>
<path d="M1373.34 1174.32L791.104 862.163L793.983 1570.83L1373.34 1174.32Z" fill="#CA75AA" style="fill:#CA75AA;fill:color(display-p3 0.7922 0.4588 0.6667);fill-opacity:1;"/>
<path d="M351.984 945.533V878.18H334.482V849.88H365.796V728.312H354.053V702.712H377.494V595.856C377.494 577.275 392.566 562.202 411.148 562.202V498.764L428.56 441.579L446.242 498.764V563.102H447.142C465.723 563.102 480.795 578.175 480.795 596.756V700.462H503.021V878.27" fill="#EEDA55" style="fill:#EEDA55;fill:color(display-p3 0.9333 0.8549 0.3333);fill-opacity:1;"/>
<path d="M792.229 862.568L793.038 162.36L1373.34 1174.32L792.229 862.568Z" fill="#E38B84" style="fill:#E38B84;fill:color(display-p3 0.8902 0.5451 0.5176);fill-opacity:1;"/>
<path d="M215.748 1173.96L796.863 862.163L796.053 162" fill="#EEDA55" style="fill:#EEDA55;fill:color(display-p3 0.9333 0.8549 0.3333);fill-opacity:1;"/>
<path d="M791.959 1696.67L792.769 2181.32L1393.36 1303.49L791.959 1696.67Z" fill="#548DCA" style="fill:#548DCA;fill:color(display-p3 0.3294 0.5529 0.7922);fill-opacity:1;"/>
<path d="M199.461 1310.69L796.593 1696.99L796.053 2181.32" fill="#70C9F2" style="fill:#70C9F2;fill:color(display-p3 0.4392 0.7882 0.9490);fill-opacity:1;"/>
<path d="M512.964 1575.51H462.438C461.538 1575.51 460.684 1574.97 460.324 1574.16C459.919 1573.35 460.054 1572.36 460.639 1571.64L510.624 1511.35V1443.64C510.624 1442.33 511.659 1441.3 512.964 1441.3C514.269 1441.3 515.304 1442.33 515.304 1443.64V1512.21C515.304 1512.75 515.124 1513.28 514.764 1513.69L467.432 1570.78H512.964C514.269 1570.78 515.304 1571.82 515.304 1573.12C515.304 1574.47 514.269 1575.51 512.964 1575.51Z" fill="black" style="fill:black;fill-opacity:1;"/>
<path d="M492.583 1734.37C493.393 1735.54 494.158 1736.71 494.967 1737.88L514.269 1725.02C515.349 1724.3 515.664 1722.81 514.944 1721.73C514.224 1720.65 512.784 1720.34 511.659 1721.06L492.358 1733.92C492.403 1734.15 492.493 1734.28 492.583 1734.37Z" fill="black" style="fill:black;fill-opacity:1;"/>
<path d="M468.467 1699.82H512.964C514.269 1699.82 515.304 1698.79 515.304 1697.48C515.304 1696.18 514.269 1695.14 512.964 1695.14H465.273C466.308 1696.67 467.388 1698.25 468.467 1699.82Z" fill="black" style="fill:black;fill-opacity:1;"/>
<path d="M454.025 1678.54H512.964C514.269 1678.54 515.304 1677.51 515.304 1676.2C515.304 1674.9 514.269 1673.86 512.964 1673.86H450.875C451.91 1675.44 452.945 1677.01 454.025 1678.54Z" fill="black" style="fill:black;fill-opacity:1;"/>
<path d="M429.099 1641.24C443.587 1624.05 462.303 1611.5 482.325 1605.88C493.573 1602.68 503.831 1601.42 512.784 1602.01C514.089 1602.1 515.214 1601.11 515.304 1599.8C515.394 1598.5 514.404 1597.37 513.099 1597.28C503.651 1596.65 492.853 1598 481.065 1601.33C460.504 1607.09 441.337 1619.83 426.4 1637.19C427.3 1638.54 428.2 1639.89 429.099 1641.24Z" fill="black" style="fill:black;fill-opacity:1;"/>
<path d="M462.438 1612.9C461.133 1612.9 460.099 1611.86 460.099 1610.56V1573.17C460.099 1571.86 461.133 1570.83 462.438 1570.83C463.743 1570.83 464.778 1571.86 464.778 1573.17V1610.56C464.778 1611.86 463.743 1612.9 462.438 1612.9Z" fill="black" style="fill:black;fill-opacity:1;"/>
<path d="M439.852 1657.44H512.964C514.269 1657.44 515.304 1656.4 515.304 1655.1C515.304 1653.79 514.269 1652.76 512.964 1652.76H436.748C437.783 1654.29 438.818 1655.86 439.852 1657.44Z" fill="black" style="fill:black;fill-opacity:1;"/>
<path d="M563.445 1575.51H512.964C511.659 1575.51 510.625 1574.47 510.625 1573.17C510.625 1571.86 511.659 1570.83 512.964 1570.83H558.451L511.119 1513.73C510.76 1513.33 510.58 1512.79 510.58 1512.25V1443.68C510.58 1442.38 511.614 1441.34 512.919 1441.34C514.224 1441.34 515.259 1442.38 515.259 1443.68V1511.4L565.245 1571.68C565.83 1572.4 565.965 1573.35 565.56 1574.2C565.2 1575.01 564.39 1575.51 563.445 1575.51Z" fill="black" style="fill:black;fill-opacity:1;"/>
<path d="M648.615 1965.86H661.707V1982.01H660.672C661.797 1983.54 662.922 1985.11 664.002 1986.73H664.047C665.352 1986.73 666.386 1985.7 666.386 1984.39V1963.56C666.386 1962.26 665.352 1961.22 664.047 1961.22H645.285C646.41 1962.71 647.535 1964.28 648.615 1965.86Z" fill="black" style="fill:black;fill-opacity:1;"/>
<path d="M634.217 1944.71H637.637V1949.89C639.211 1952.23 640.741 1954.56 642.361 1956.9V1942.37C642.361 1941.07 641.326 1940.03 640.021 1940.03H631.113C632.148 1941.61 633.182 1943.18 634.217 1944.71Z" fill="black" style="fill:black;fill-opacity:1;"/>
<path d="M657.388 1816.58L514.269 1721.15C513.189 1720.43 511.749 1720.7 510.984 1721.82C510.264 1722.9 510.534 1724.39 511.659 1725.11L648.299 1816.22H547.293C548.598 1817.79 549.902 1819.36 551.207 1820.94H656.083C657.118 1820.94 658.018 1820.26 658.333 1819.27C658.603 1818.19 658.243 1817.12 657.388 1816.58Z" fill="black" style="fill:black;fill-opacity:1;"/>
<path d="M666.881 1755.93C665.576 1755.93 664.542 1754.89 664.542 1753.59V1699.82H512.964C511.659 1699.82 510.625 1698.79 510.625 1697.48C510.625 1696.18 511.659 1695.14 512.964 1695.14H666.881C668.186 1695.14 669.221 1696.18 669.221 1697.48V1753.59C669.221 1754.89 668.186 1755.93 666.881 1755.93Z" fill="black" style="fill:black;fill-opacity:1;"/>
<path d="M648.435 1699.82C647.13 1699.82 646.095 1698.79 646.095 1697.48V1678.58H512.964C511.659 1678.58 510.625 1677.55 510.625 1676.25C510.625 1674.94 511.659 1673.91 512.964 1673.91H648.48C649.784 1673.91 650.819 1674.94 650.819 1676.25V1697.48C650.819 1698.74 649.739 1699.82 648.435 1699.82Z" fill="black" style="fill:black;fill-opacity:1;"/>
<path d="M642.631 1678.9C634.577 1678.9 627.288 1676.97 621.394 1673.23C615.635 1669.59 612.261 1663.92 608.932 1658.43L607.357 1655.86C592.15 1631.25 568.889 1613.03 543.514 1605.88C532.266 1602.68 522.007 1601.38 513.054 1602.01C511.794 1602.1 510.624 1601.11 510.534 1599.8C510.445 1598.5 511.434 1597.37 512.739 1597.28C522.187 1596.65 532.985 1598 544.773 1601.33C571.273 1608.8 595.524 1627.74 611.361 1653.39L612.936 1656C615.95 1660.99 619.055 1666.21 623.869 1669.23C631.967 1674.36 641.551 1674.58 648.12 1673.86C649.424 1673.73 650.594 1674.63 650.729 1675.93C650.864 1677.24 649.964 1678.4 648.659 1678.54C646.635 1678.76 644.61 1678.9 642.631 1678.9Z" fill="black" style="fill:black;fill-opacity:1;"/>
<path d="M563.445 1612.9C562.14 1612.9 561.105 1611.86 561.105 1610.56V1573.17C561.105 1571.86 562.14 1570.83 563.445 1570.83C564.75 1570.83 565.785 1571.86 565.785 1573.17V1610.56C565.83 1611.86 564.75 1612.9 563.445 1612.9Z" fill="black" style="fill:black;fill-opacity:1;"/>
<path d="M640.021 1947.14C638.716 1947.14 637.682 1946.11 637.682 1944.8V1818.51C637.682 1817.2 638.716 1816.17 640.021 1816.17C641.326 1816.17 642.361 1817.2 642.361 1818.51V1944.8C642.361 1946.11 641.326 1947.14 640.021 1947.14Z" fill="black" style="fill:black;fill-opacity:1;"/>
<path d="M622.069 1926.58V1818.51C622.069 1817.2 621.034 1816.17 619.73 1816.17C618.425 1816.17 617.39 1817.2 617.39 1818.51V1919.83C618.965 1922.08 620.54 1924.29 622.069 1926.58Z" fill="black" style="fill:black;fill-opacity:1;"/>
<path d="M564.93 1846C565.2 1846.58 565.515 1847.17 565.785 1847.75V1818.51C565.785 1817.2 564.75 1816.17 563.445 1816.17C562.14 1816.17 561.105 1817.2 561.105 1818.51V1833.63C564.03 1837.9 565.155 1842.09 564.93 1846Z" fill="black" style="fill:black;fill-opacity:1;"/>
<path d="M765.099 1815.63C763.794 1815.63 762.759 1814.6 762.759 1813.29V1783.82L702.605 1726.37L642.406 1786.48V1804.74C642.406 1806.05 641.371 1807.08 640.066 1807.08C638.761 1807.08 637.727 1806.05 637.727 1804.74V1785.49C637.727 1784.86 637.997 1784.27 638.401 1783.82L700.94 1721.42C701.84 1720.52 703.325 1720.52 704.225 1721.37L766.763 1781.12C767.213 1781.57 767.483 1782.2 767.483 1782.83V1813.29C767.438 1814.6 766.403 1815.63 765.099 1815.63Z" fill="black" style="fill:black;fill-opacity:1;"/>
<path d="M640.021 1787.87C639.166 1787.87 638.356 1787.38 637.952 1786.61C637.547 1785.85 637.592 1784.86 638.087 1784.14C639.076 1782.74 662.202 1750.53 698.286 1747.96C721.501 1746.3 744.582 1757.5 766.808 1781.21C767.438 1781.89 767.618 1782.88 767.258 1783.73C766.898 1784.59 766.088 1785.17 765.143 1785.17L640.066 1787.83C640.066 1787.87 640.021 1787.87 640.021 1787.87ZM702.695 1752.55C701.345 1752.55 699.995 1752.6 698.601 1752.69C671.875 1754.58 652.214 1774.51 644.97 1783.06L759.609 1780.63C740.938 1761.95 721.816 1752.55 702.695 1752.55Z" fill="black" style="fill:black;fill-opacity:1;"/>
<path d="M796.998 1852.61H640.021C638.716 1852.61 637.682 1853.65 637.682 1854.95C637.682 1856.26 638.716 1857.29 640.021 1857.29H796.953V1852.61H796.998Z" fill="black" style="fill:black;fill-opacity:1;"/>
<path d="M796.998 1883.12H640.021C638.716 1883.12 637.682 1884.15 637.682 1885.46C637.682 1886.76 638.716 1887.8 640.021 1887.8H796.953V1883.12H796.998Z" fill="black" style="fill:black;fill-opacity:1;"/>
<path d="M791.149 1857.34C789.844 1857.34 788.809 1856.3 788.809 1855V1818.91H653.114C651.809 1818.91 650.774 1817.88 650.774 1816.58C650.774 1815.27 651.809 1814.24 653.114 1814.24H791.149C792.454 1814.24 793.489 1815.27 793.489 1816.58V1855.04C793.489 1856.3 792.454 1857.34 791.149 1857.34Z" fill="black" style="fill:black;fill-opacity:1;"/>
<path d="M702.56 1725.47C701.255 1725.47 700.22 1724.43 700.22 1723.13V1678.63C700.22 1677.33 701.255 1676.29 702.56 1676.29C703.865 1676.29 704.899 1677.33 704.899 1678.63V1723.13C704.899 1724.39 703.865 1725.47 702.56 1725.47Z" fill="black" style="fill:black;fill-opacity:1;"/>
<path d="M777.921 1986.69H760.284C758.98 1986.69 757.945 1985.65 757.945 1984.35V1885.46C757.945 1884.15 758.98 1883.12 760.284 1883.12H777.921C779.226 1883.12 780.261 1884.15 780.261 1885.46V1984.35C780.261 1985.65 779.226 1986.69 777.921 1986.69ZM762.624 1981.97H775.537V1887.8H762.624V1981.97Z" fill="black" style="fill:black;fill-opacity:1;"/>
<path d="M730.23 1986.69H712.593C711.288 1986.69 710.253 1985.65 710.253 1984.35V1885.46C710.253 1884.15 711.288 1883.12 712.593 1883.12H730.23C731.535 1883.12 732.569 1884.15 732.569 1885.46V1984.35C732.569 1985.65 731.535 1986.69 730.23 1986.69ZM714.933 1981.97H727.845V1887.8H714.933V1981.97Z" fill="black" style="fill:black;fill-opacity:1;"/>
<path d="M682.538 1883.12H664.902C663.597 1883.12 662.562 1884.15 662.562 1885.46V1984.35C662.562 1984.39 662.607 1984.48 662.607 1984.53C663.057 1985.16 663.462 1985.79 663.867 1986.42C664.182 1986.6 664.542 1986.69 664.902 1986.69H682.538C683.843 1986.69 684.878 1985.65 684.878 1984.35V1885.46C684.878 1884.15 683.798 1883.12 682.538 1883.12ZM680.154 1981.97H667.241V1887.8H680.154V1981.97Z" fill="black" style="fill:black;fill-opacity:1;"/>
<path d="M660.717 1981.97C661.842 1983.49 662.967 1985.07 664.047 1986.69H780.306C780.306 1985.11 780.441 1983.54 780.621 1981.97H660.717Z" fill="black" style="fill:black;fill-opacity:1;"/>
<path d="M794.433 1914.52C793.129 1914.52 792.094 1913.49 792.094 1912.18V1898.55C792.094 1897.25 793.129 1896.21 794.433 1896.21C795.738 1896.21 796.773 1897.25 796.773 1898.55V1912.18C796.773 1913.49 795.738 1914.52 794.433 1914.52Z" fill="black" style="fill:black;fill-opacity:1;"/>
<path d="M747.462 1914.52C746.157 1914.52 745.122 1913.49 745.122 1912.18V1898.55C745.122 1897.25 746.157 1896.21 747.462 1896.21C748.766 1896.21 749.801 1897.25 749.801 1898.55V1912.18C749.801 1913.49 748.766 1914.52 747.462 1914.52Z" fill="black" style="fill:black;fill-opacity:1;"/>
<path d="M700.49 1914.52C699.186 1914.52 698.151 1913.49 698.151 1912.18V1898.55C698.151 1897.25 699.186 1896.21 700.49 1896.21C701.795 1896.21 702.83 1897.25 702.83 1898.55V1912.18C702.83 1913.49 701.795 1914.52 700.49 1914.52Z" fill="black" style="fill:black;fill-opacity:1;"/>
<path d="M609.022 1657.44H512.964C511.659 1657.44 510.625 1656.4 510.625 1655.1C510.625 1653.79 511.659 1652.76 512.964 1652.76H609.022C610.326 1652.76 611.361 1653.79 611.361 1655.1C611.361 1656.4 610.326 1657.44 609.022 1657.44Z" fill="black" style="fill:black;fill-opacity:1;"/>
<path d="M738.643 696.503C760.779 715.4 781.656 733.216 814.23 707.346C823.723 699.787 832.586 691.959 841.18 684.355C898.184 634.054 943.221 594.327 1085.67 711.935C1098.71 722.733 1111.94 732.406 1125.21 741.18C1124.31 739.065 1123.68 736.861 1123.37 734.566C1111.67 726.603 1100.02 717.919 1088.54 708.426C943.131 588.343 896.835 629.195 838.21 680.936C829.662 688.494 820.843 696.278 811.395 703.747C781.746 727.322 764.019 712.16 741.523 692.994C712.053 667.843 675.34 636.484 598.494 694.433C556.831 725.838 520.928 749.053 491.368 766.15V771.324C521.558 754.003 558.361 730.292 601.193 697.988C675.25 642.333 708.949 671.128 738.643 696.503Z" fill="black" style="fill:black;fill-opacity:1;"/>
<path d="M490.289 773.349V765.565L490.873 765.251C524.932 745.589 560.926 721.473 597.909 693.624C675.475 635.179 712.548 666.808 742.333 692.229C764.424 711.08 781.836 725.973 810.765 702.982C820.124 695.513 828.942 687.775 837.491 680.216C896.565 628.07 943.176 586.948 1089.35 707.661C1100.42 716.794 1112.12 725.568 1124.13 733.711L1124.54 733.981L1124.63 734.476C1124.94 736.681 1125.57 738.795 1126.43 740.775L1127.91 744.239L1124.76 742.125C1110.82 732.856 1097.45 723.003 1085.08 712.79C943.356 595.766 898.68 635.224 842.035 685.165C833.441 692.769 824.578 700.597 815.04 708.156C781.746 734.611 760.51 716.479 738.059 697.268C708.634 672.162 675.295 643.683 602.048 698.888C563.985 727.547 527.002 752.248 492.088 772.269L490.289 773.349ZM492.538 766.87V769.48C526.867 749.683 563.22 725.343 600.564 697.223C675.25 640.938 709.309 670.003 739.363 695.648C761.139 714.23 781.701 731.777 813.51 706.491C823.003 698.933 831.867 691.104 840.415 683.545C897.825 632.884 943.177 592.842 1086.39 711.125C1097.86 720.619 1110.19 729.797 1123.05 738.435C1122.78 737.401 1122.51 736.366 1122.33 735.331C1110.41 727.187 1098.8 718.504 1087.83 709.416C943.132 589.917 897.15 630.5 838.93 681.881C830.337 689.439 821.519 697.268 812.115 704.736C781.746 728.852 763.704 713.465 740.848 693.938C711.648 669.013 675.34 638.014 599.214 695.423C562.366 723.183 526.462 747.209 492.538 766.87Z" fill="black" style="fill:black;fill-opacity:1;"/>
<path d="M1159.14 813.932L491.414 811.547V816.046L1162.83 818.431C1161.57 816.991 1160.31 815.461 1159.14 813.932Z" fill="black" style="fill:black;fill-opacity:1;"/>
<path d="M1165.26 819.556L490.289 817.171V810.422H491.413L1159.68 812.807L1160.04 813.257C1161.21 814.787 1162.47 816.271 1163.68 817.711L1165.26 819.556ZM492.538 814.922L1160.4 817.306C1159.81 816.586 1159.18 815.821 1158.6 815.057L492.583 812.717V814.922H492.538Z" fill="black" style="fill:black;fill-opacity:1;"/>
<path d="M794.928 162.36C793.309 161.91 791.644 162.63 790.789 164.07L482.505 702.712C484.935 702.127 487.409 701.812 489.929 701.812C490.424 701.812 490.918 701.857 491.413 701.902L790.294 179.727V1565.93L222.677 1171.48L353.018 943.733C351.984 940.494 351.309 937.074 351.174 933.52C351.174 933.07 351.174 932.665 351.174 932.215L214.623 1170.76C213.679 1172.43 214.174 1174.5 215.703 1175.58L791.869 1575.91C792.499 1576.36 793.219 1576.59 793.984 1576.59C794.568 1576.59 795.153 1576.45 795.693 1576.18C796.908 1575.55 797.673 1574.29 797.673 1572.94V165.914C797.628 164.25 796.548 162.81 794.928 162.36Z" fill="black" style="fill:black;fill-opacity:1;"/>
<path d="M351.759 1101.16C351.669 1099.27 351.714 1097.43 351.759 1095.58L216.063 1169.37C214.263 1170.36 213.634 1172.56 214.578 1174.36C215.253 1175.58 216.513 1176.3 217.818 1176.3C218.403 1176.3 219.033 1176.16 219.572 1175.85L351.983 1103.86C351.938 1102.91 351.804 1102.06 351.759 1101.16Z" fill="black" style="fill:black;fill-opacity:1;"/>
<path d="M797.223 857.574C796.233 855.774 794.029 855.145 792.229 856.089L505.046 1012.21C505.136 1013.38 505.316 1014.51 505.361 1015.68C505.451 1017.25 505.451 1018.82 505.406 1020.4L795.738 862.568C797.493 861.578 798.168 859.374 797.223 857.574Z" fill="black" style="fill:black;fill-opacity:1;"/>
<path d="M790.294 1887.12V2167.33L211.249 1314.92L790.294 1701.67V1925.55C792.724 1924.56 795.153 1923.66 797.628 1922.89V1699.69C797.628 1698.47 796.998 1697.3 796.008 1696.63L199.686 1298.4C198.246 1297.41 196.267 1297.64 195.052 1298.85C193.837 1300.11 193.657 1302.05 194.602 1303.49L790.924 2181.32C791.599 2182.36 792.769 2182.94 793.938 2182.94C794.298 2182.94 794.658 2182.9 795.018 2182.76C796.548 2182.27 797.628 2180.87 797.628 2179.25V1889.69C795.153 1888.92 792.679 1888.07 790.294 1887.12Z" fill="black" style="fill:black;fill-opacity:1;"/>
<path d="M793.983 1576.59C793.398 1576.59 792.813 1576.45 792.274 1576.18C791.059 1575.55 790.294 1574.29 790.294 1572.94V165.914C790.294 164.25 791.419 162.81 793.038 162.36C794.658 161.91 796.323 162.63 797.178 164.07L1373.34 1170.72C1374.29 1172.38 1373.79 1174.45 1372.26 1175.53L796.098 1575.87C795.423 1576.36 794.703 1576.59 793.983 1576.59ZM797.628 179.727V1565.93L1365.24 1171.48L797.628 179.727Z" fill="black" style="fill:black;fill-opacity:1;"/>
<path d="M1370.15 1176.25C1369.56 1176.25 1368.98 1176.12 1368.39 1175.8L792.229 862.568C790.429 861.578 789.799 859.374 790.744 857.574C791.734 855.774 793.938 855.145 795.738 856.089L1371.9 1169.32C1373.7 1170.31 1374.33 1172.52 1373.39 1174.32C1372.71 1175.58 1371.45 1176.25 1370.15 1176.25Z" fill="black" style="fill:black;fill-opacity:1;"/>
<path d="M1392.91 1298.85C1391.65 1297.59 1389.72 1297.41 1388.28 1298.4L791.959 1696.67C790.924 1697.35 790.339 1698.52 790.339 1699.73V1925.59C792.768 1924.74 795.198 1924.02 797.672 1923.39V1701.71L1376.72 1314.96L797.672 2167.33V1892.57C795.198 1891.98 792.723 1891.31 790.339 1890.5V2179.25C790.339 2180.87 791.374 2182.27 792.948 2182.76C793.308 2182.85 793.668 2182.94 794.028 2182.94C795.243 2182.94 796.368 2182.36 797.043 2181.32L1393.36 1303.49C1394.35 1302.05 1394.17 1300.11 1392.91 1298.85Z" fill="black" style="fill:black;fill-opacity:1;"/>
<path d="M571.139 1414.39H563.086C562.726 1414.39 562.366 1414.26 562.051 1414.08L413.488 1310.82C410.428 1309.34 407.639 1307.4 405.164 1305.06L284.946 1221.51C284.451 1221.15 284.136 1220.61 284.136 1220.03V1195.15C284.136 1194.11 284.946 1193.3 285.981 1193.3H571.184C572.219 1193.3 573.029 1194.11 573.029 1195.15V1412.59C572.984 1413.58 572.174 1414.39 571.139 1414.39ZM563.671 1410.75H569.295V1196.95H287.826V1219.04L407.414 1302.09C407.504 1302.14 407.549 1302.23 407.639 1302.27C409.888 1304.43 412.453 1306.23 415.242 1307.54C415.332 1307.58 415.422 1307.63 415.512 1307.67L563.671 1410.75Z" fill="black" style="fill:black;fill-opacity:1;"/>
<path d="M583.962 1196.95H273.203C272.168 1196.95 271.358 1196.14 271.358 1195.1V1165.99C271.358 1164.96 272.168 1164.15 273.203 1164.15H583.962C584.997 1164.15 585.806 1164.96 585.806 1165.99V1195.1C585.806 1196.14 584.997 1196.95 583.962 1196.95ZM275.048 1193.3H582.162V1167.88H275.048V1193.3Z" fill="black" style="fill:black;fill-opacity:1;"/>
<path d="M505.451 1167.84H351.714C350.679 1167.84 349.869 1167.03 349.869 1165.99V878.045C349.869 877.01 350.679 876.201 351.714 876.201H505.451C506.486 876.201 507.296 877.01 507.296 878.045V1165.99C507.296 1167.03 506.486 1167.84 505.451 1167.84ZM353.513 1164.19H503.606V879.935H353.513V1164.19Z" fill="black" style="fill:black;fill-opacity:1;"/>
<path d="M522.998 879.935H334.122C333.087 879.935 332.277 879.125 332.277 878.09V850.105C332.277 849.07 333.087 848.26 334.122 848.26H522.998C524.033 848.26 524.842 849.07 524.842 850.105V878.09C524.842 879.08 524.033 879.935 522.998 879.935ZM335.967 876.245H521.153V851.95H335.967V876.245Z" fill="black" style="fill:black;fill-opacity:1;"/>
<path d="M491.414 851.95H365.751C364.717 851.95 363.907 851.14 363.907 850.105V728.222C363.907 727.188 364.717 726.378 365.751 726.378H491.414C492.448 726.378 493.258 727.188 493.258 728.222V850.105C493.258 851.14 492.403 851.95 491.414 851.95ZM367.596 848.261H489.569V730.022H367.596V848.261Z" fill="black" style="fill:black;fill-opacity:1;"/>
<path d="M465.453 851.95H391.711C390.677 851.95 389.867 851.14 389.867 850.105V728.222C389.867 727.188 390.677 726.378 391.711 726.378H465.453C466.488 726.378 467.298 727.188 467.298 728.222V850.105C467.298 851.14 466.443 851.95 465.453 851.95ZM393.556 848.261H463.608V730.022H393.556V848.261Z" fill="black" style="fill:black;fill-opacity:1;"/>
<path d="M503.067 730.067H354.099C353.064 730.067 352.254 729.257 352.254 728.222V702.262C352.254 701.227 353.064 700.417 354.099 700.417H503.067C504.101 700.417 504.911 701.227 504.911 702.262V728.222C504.911 729.212 504.101 730.067 503.067 730.067ZM355.898 726.378H501.222V704.107H355.898V726.378Z" fill="black" style="fill:black;fill-opacity:1;"/>
<path d="M478.996 704.107H378.169C377.134 704.107 376.324 703.297 376.324 702.262V601.435C376.324 600.401 377.134 599.591 378.169 599.591H478.996C480.03 599.591 480.84 600.401 480.84 601.435V702.262C480.84 703.252 479.985 704.107 478.996 704.107ZM380.014 700.417H477.196V603.235H380.014V700.417Z" fill="black" style="fill:black;fill-opacity:1;"/>
<path d="M446.241 704.107H410.878C409.843 704.107 409.033 703.297 409.033 702.262V601.435C409.033 600.401 409.843 599.591 410.878 599.591H446.241C447.276 599.591 448.086 600.401 448.086 601.435V702.262C448.086 703.252 447.276 704.107 446.241 704.107ZM412.723 700.417H444.442V603.235H412.723V700.417Z" fill="black" style="fill:black;fill-opacity:1;"/>
<path d="M478.996 603.235H378.169C377.134 603.235 376.324 602.425 376.324 601.39C376.324 581.819 390.002 565.262 409.078 561.528V500.609C409.078 499.574 409.888 498.764 410.923 498.764H446.287C447.321 498.764 448.131 499.574 448.131 500.609V561.528C467.208 565.307 480.885 581.819 480.885 601.39C480.84 602.425 479.985 603.235 478.996 603.235ZM380.059 599.591H477.151C476.296 582.134 463.473 567.691 446.017 564.902C445.117 564.767 444.487 564.002 444.487 563.102V502.408H412.768V563.057C412.768 563.957 412.093 564.722 411.238 564.857C393.736 567.646 380.868 582.089 380.059 599.591Z" fill="black" style="fill:black;fill-opacity:1;"/>
<path d="M472.337 1167.84H384.828C383.793 1167.84 382.983 1167.03 382.983 1165.99V878.045C382.983 877.01 383.793 876.201 384.828 876.201H472.382C473.417 876.201 474.227 877.01 474.227 878.045V1165.99C474.182 1167.03 473.372 1167.84 472.337 1167.84ZM386.628 1164.19H470.493V879.935H386.628V1164.19Z" fill="black" style="fill:black;fill-opacity:1;"/>
<path d="M490.918 1364.23C490.558 1364.23 490.199 1364.14 489.884 1363.91L413.487 1310.82C410.428 1309.34 407.639 1307.4 405.164 1305.06L365.211 1277.3C364.716 1276.94 364.401 1276.4 364.401 1275.82V1195.15C364.401 1194.11 365.211 1193.3 366.246 1193.3H490.918C491.953 1193.3 492.763 1194.11 492.763 1195.15V1362.43C492.763 1363.1 492.403 1363.73 491.773 1364.05C491.503 1364.18 491.188 1364.23 490.918 1364.23ZM368.091 1274.83L407.369 1302.14C407.459 1302.18 407.504 1302.27 407.594 1302.32C409.843 1304.48 412.408 1306.28 415.197 1307.58C415.287 1307.63 415.377 1307.67 415.467 1307.72L489.074 1358.87V1196.95H368.091V1274.83Z" fill="black" style="fill:black;fill-opacity:1;"/>
<path d="M446.241 502.408H410.878C410.293 502.408 409.753 502.138 409.393 501.643C409.033 501.193 408.943 500.564 409.123 500.024L426.805 442.839C427.03 442.074 427.75 441.534 428.56 441.534C429.37 441.534 430.089 442.074 430.314 442.839L447.996 500.024C448.176 500.564 448.086 501.193 447.726 501.643C447.411 502.138 446.826 502.408 446.241 502.408ZM413.397 498.764H443.767L428.56 449.633L413.397 498.764Z" fill="black" style="fill:black;fill-opacity:1;"/>
<path d="M428.56 445.224C427.525 445.224 426.715 444.414 426.715 443.379V377.196C426.715 376.161 427.525 375.351 428.56 375.351C429.595 375.351 430.405 376.161 430.405 377.196V443.424C430.405 444.414 429.595 445.224 428.56 445.224Z" fill="black" style="fill:black;fill-opacity:1;"/>
<path d="M428.56 1314.33C423.296 1314.33 418.257 1313.16 413.578 1310.87C410.428 1309.38 407.594 1307.36 405.029 1304.93C398.236 1298.54 394.366 1289.5 394.366 1280.14C394.366 1261.29 409.708 1245.94 428.56 1245.94C447.412 1245.94 462.754 1261.29 462.754 1280.14C462.754 1298.99 447.412 1314.33 428.56 1314.33ZM428.56 1249.63C411.733 1249.63 398.056 1263.31 398.056 1280.14C398.056 1288.51 401.52 1296.56 407.594 1302.27C409.843 1304.43 412.408 1306.23 415.197 1307.58C419.382 1309.65 423.881 1310.69 428.56 1310.69C445.387 1310.69 459.064 1297.01 459.064 1280.18C459.109 1263.31 445.387 1249.63 428.56 1249.63Z" fill="black" style="fill:black;fill-opacity:1;"/>
<path d="M428.56 1051.35C412.408 1051.35 399.27 1038.22 399.27 1022.06C399.27 1005.91 412.408 992.774 428.56 992.774C444.712 992.774 457.849 1005.91 457.849 1022.06C457.894 1038.22 444.712 1051.35 428.56 1051.35ZM428.56 996.419C414.432 996.419 402.914 1007.94 402.914 1022.06C402.914 1036.19 414.432 1047.71 428.56 1047.71C442.687 1047.71 454.205 1036.19 454.205 1022.06C454.205 1007.94 442.732 996.419 428.56 996.419Z" fill="black" style="fill:black;fill-opacity:1;"/>
<path d="M428.56 1051.35C412.408 1051.35 399.27 1038.22 399.27 1022.06C399.27 1005.91 412.408 992.774 428.56 992.774C444.712 992.774 457.849 1005.91 457.849 1022.06C457.894 1038.22 444.712 1051.35 428.56 1051.35ZM428.56 996.419C414.432 996.419 402.914 1007.94 402.914 1022.06C402.914 1036.19 414.432 1047.71 428.56 1047.71C442.687 1047.71 454.205 1036.19 454.205 1022.06C454.205 1007.94 442.732 996.419 428.56 996.419Z" fill="black" style="fill:black;fill-opacity:1;"/>
<path d="M351.714 1167.84H305.102C304.607 1167.84 304.113 1167.61 303.798 1167.25C303.438 1166.89 303.258 1166.4 303.303 1165.9C304.382 1139.9 325.619 1118.84 351.669 1117.99C352.164 1117.94 352.659 1118.17 353.019 1118.48C353.379 1118.84 353.559 1119.29 353.559 1119.79V1165.95C353.514 1167.03 352.704 1167.84 351.714 1167.84ZM307.082 1164.19H349.869V1121.81C327.238 1123.48 308.972 1141.61 307.082 1164.19Z" fill="black" style="fill:black;fill-opacity:1;"/>
<path d="M550.533 1167.84H503.966C502.931 1167.84 502.122 1167.03 502.122 1165.99V1119.88C502.122 1119.38 502.302 1118.89 502.661 1118.57C503.021 1118.21 503.471 1118.03 504.011 1118.08C530.017 1118.93 551.298 1139.99 552.377 1165.99C552.377 1166.49 552.198 1166.98 551.883 1167.34C551.523 1167.66 551.028 1167.84 550.533 1167.84ZM505.766 1164.19H548.553C546.664 1141.61 528.352 1123.48 505.766 1121.81V1164.19Z" fill="black" style="fill:black;fill-opacity:1;"/>
<path d="M428.56 813.212C415.287 813.212 404.534 802.414 404.534 789.186C404.534 775.959 415.332 765.161 428.56 765.161C441.832 765.161 452.585 775.959 452.585 789.186C452.585 802.414 441.832 813.212 428.56 813.212ZM428.56 768.805C417.312 768.805 408.179 777.938 408.179 789.186C408.179 800.434 417.312 809.568 428.56 809.568C439.808 809.568 448.941 800.434 448.941 789.186C448.941 777.938 439.808 768.805 428.56 768.805Z" fill="black" style="fill:black;fill-opacity:1;"/>
<path d="M648.3 1230.42C645.465 1230.42 642.676 1231.37 640.426 1233.03C636.692 1226.91 629.988 1223.09 622.789 1223.09C618.515 1223.09 614.331 1224.44 610.867 1226.91C605.378 1220.66 597.549 1217.1 589.18 1217.1C583.197 1217.1 577.618 1218.95 573.028 1222.05V1226.64C577.393 1222.95 583.062 1220.75 589.18 1220.75C597.009 1220.75 604.298 1224.35 609.112 1230.56C609.427 1230.96 609.877 1231.19 610.372 1231.28C610.867 1231.32 611.361 1231.19 611.766 1230.83C614.826 1228.22 618.74 1226.73 622.789 1226.73C629.403 1226.73 635.477 1230.65 638.267 1236.68C638.537 1237.22 639.031 1237.62 639.661 1237.71C640.246 1237.8 640.876 1237.62 641.281 1237.17C643.126 1235.19 645.645 1234.11 648.345 1234.11C653.699 1234.11 658.018 1238.47 658.018 1243.78C658.018 1249.14 653.654 1253.46 648.345 1253.46C645.645 1253.46 643.126 1252.38 641.281 1250.4C640.876 1249.95 640.246 1249.72 639.661 1249.86C639.076 1249.95 638.537 1250.35 638.267 1250.89C635.477 1256.92 629.448 1260.84 622.789 1260.84C619.505 1260.84 616.311 1259.89 613.521 1258.09C613.116 1257.82 612.576 1257.73 612.081 1257.87C611.586 1258 611.181 1258.27 610.912 1258.72C606.412 1266.46 598.044 1271.27 589.135 1271.27C582.972 1271.27 577.348 1269.07 572.983 1265.38V1269.97C577.618 1273.12 583.152 1274.92 589.135 1274.92C598.719 1274.92 607.762 1270.06 613.116 1262.14C616.086 1263.72 619.37 1264.53 622.744 1264.53C629.988 1264.53 636.647 1260.7 640.381 1254.58C642.676 1256.25 645.42 1257.19 648.255 1257.19C655.633 1257.19 661.617 1251.21 661.617 1243.83C661.662 1236.41 655.678 1230.42 648.3 1230.42Z" fill="black" style="fill:black;fill-opacity:1;"/>
<path d="M871.234 922.497C868.4 922.497 865.61 923.442 863.361 925.107C859.626 918.988 852.923 915.163 845.724 915.163C841.45 915.163 837.266 916.513 833.801 918.988C828.312 912.734 820.484 909.179 812.115 909.179C806.131 909.179 800.552 911.024 795.963 914.129V918.718C800.327 915.028 805.996 912.824 812.115 912.824C819.944 912.824 827.232 916.423 832.046 922.632C832.361 923.037 832.811 923.262 833.306 923.352C833.801 923.397 834.296 923.262 834.701 922.902C837.76 920.292 841.675 918.808 845.724 918.808C852.338 918.808 858.412 922.722 861.201 928.751C861.471 929.291 861.966 929.696 862.596 929.786C863.181 929.876 863.811 929.696 864.216 929.246C866.06 927.266 868.58 926.186 871.279 926.186C876.633 926.186 880.953 930.551 880.953 935.86C880.953 941.214 876.588 945.533 871.279 945.533C868.58 945.533 866.06 944.453 864.216 942.473C863.811 942.023 863.181 941.799 862.596 941.934C862.011 942.023 861.471 942.428 861.201 942.968C858.412 948.997 852.383 952.911 845.724 952.911C842.44 952.911 839.245 951.967 836.456 950.167C836.051 949.897 835.511 949.807 835.016 949.942C834.521 950.077 834.116 950.347 833.846 950.797C829.347 958.535 820.978 963.35 812.07 963.35C805.906 963.35 800.282 961.145 795.918 957.456V962.045C800.552 965.194 806.086 966.994 812.07 966.994C821.653 966.994 830.697 962.135 836.051 954.216C839.02 955.791 842.305 956.601 845.679 956.601C852.923 956.601 859.581 952.776 863.316 946.658C865.61 948.322 868.355 949.267 871.189 949.267C878.568 949.267 884.552 943.283 884.552 935.905C884.597 928.481 878.613 922.497 871.234 922.497Z" fill="black" style="fill:black;fill-opacity:1;"/>
<path d="M719.747 1445.75C722.581 1445.75 725.371 1444.81 727.62 1443.14C731.355 1449.26 738.058 1453.09 745.257 1453.09C749.531 1453.09 753.716 1451.74 757.18 1449.26C762.669 1455.52 770.498 1459.07 778.866 1459.07C784.85 1459.07 790.429 1457.23 795.018 1454.12V1449.53C790.654 1453.22 784.985 1455.43 778.866 1455.43C771.037 1455.43 763.749 1451.83 758.935 1445.62C758.62 1445.21 758.17 1444.99 757.675 1444.9C757.18 1444.85 756.685 1444.99 756.28 1445.35C753.221 1447.96 749.306 1449.44 745.257 1449.44C738.643 1449.44 732.569 1445.53 729.78 1439.5C729.51 1438.96 729.015 1438.55 728.385 1438.46C727.8 1438.37 727.17 1438.55 726.765 1439C724.921 1440.98 722.401 1442.06 719.702 1442.06C714.348 1442.06 710.029 1437.7 710.029 1432.39C710.029 1427.04 714.393 1422.72 719.702 1422.72C722.401 1422.72 724.921 1423.8 726.765 1425.78C727.17 1426.23 727.8 1426.45 728.385 1426.32C728.97 1426.23 729.51 1425.82 729.78 1425.28C732.569 1419.25 738.598 1415.34 745.257 1415.34C748.542 1415.34 751.736 1416.28 754.525 1418.08C754.93 1418.35 755.47 1418.44 755.965 1418.31C756.46 1418.17 756.865 1417.9 757.135 1417.45C761.634 1409.71 770.003 1404.9 778.911 1404.9C785.075 1404.9 790.699 1407.1 795.063 1410.79V1406.2C790.429 1403.06 784.895 1401.26 778.911 1401.26C769.328 1401.26 760.284 1406.11 754.93 1414.03C751.961 1412.46 748.677 1411.65 745.302 1411.65C738.058 1411.65 731.4 1415.47 727.665 1421.59C725.371 1419.93 722.626 1418.98 719.792 1418.98C712.413 1418.98 706.429 1424.97 706.429 1432.34C706.429 1439.77 712.413 1445.75 719.747 1445.75Z" fill="black" style="fill:black;fill-opacity:1;"/>
<path d="M685.373 1353.25C685.283 1353.25 685.193 1353.25 685.103 1353.2C684.293 1353.07 683.663 1352.44 683.573 1351.63C683.123 1347.99 681.729 1345.65 679.344 1344.39C672.955 1340.97 661.527 1346.59 661.437 1346.64C660.537 1347.09 659.413 1346.73 658.963 1345.83C658.513 1344.93 658.873 1343.8 659.773 1343.35C660.312 1343.08 672.955 1336.87 681.054 1341.15C683.393 1342.36 685.058 1344.34 686.138 1346.95C687.982 1344.7 690.952 1341.96 695.271 1340.65C701.3 1338.81 708.184 1340.25 715.697 1344.88C716.552 1345.42 716.822 1346.55 716.282 1347.4C715.742 1348.26 714.618 1348.52 713.763 1347.99C707.194 1343.94 701.345 1342.63 696.351 1344.12C689.917 1346.05 687.038 1352.08 687.038 1352.17C686.768 1352.84 686.093 1353.25 685.373 1353.25Z" fill="black" style="fill:black;fill-opacity:1;"/>
<path d="M717.857 1180.48C717.767 1180.48 717.677 1180.48 717.587 1180.48C716.777 1180.35 716.147 1179.72 716.057 1178.91C715.832 1177.11 715.157 1175.94 714.033 1175.35C711.288 1173.91 706.114 1175.85 704.494 1176.66C703.595 1177.11 702.47 1176.75 702.02 1175.85C701.57 1174.95 701.93 1173.82 702.83 1173.37C703.64 1172.97 710.838 1169.5 715.742 1172.11C716.642 1172.61 717.677 1173.37 718.487 1174.72C719.612 1173.55 721.186 1172.38 723.301 1171.75C726.99 1170.63 731.13 1171.48 735.629 1174.27C736.484 1174.81 736.754 1175.94 736.214 1176.79C735.674 1177.65 734.549 1177.92 733.694 1177.38C730.14 1175.17 726.99 1174.45 724.336 1175.26C721.051 1176.25 719.522 1179.4 719.522 1179.45C719.207 1180.08 718.577 1180.48 717.857 1180.48Z" fill="black" style="fill:black;fill-opacity:1;"/>
<path d="M1057.14 1057.25C1057.05 1057.25 1056.96 1057.25 1056.87 1057.25C1056.06 1057.11 1055.43 1056.48 1055.34 1055.67C1055.12 1053.87 1054.44 1052.7 1053.32 1052.12C1050.57 1050.68 1045.4 1052.61 1043.78 1053.42C1042.88 1053.87 1041.75 1053.51 1041.3 1052.61C1040.85 1051.71 1041.21 1050.59 1042.11 1050.14C1042.92 1049.73 1050.12 1046.27 1055.03 1048.88C1055.93 1049.37 1056.96 1050.14 1057.77 1051.49C1058.9 1050.32 1060.47 1049.15 1062.58 1048.52C1066.27 1047.39 1070.41 1048.25 1074.91 1051.04C1075.77 1051.58 1076.04 1052.7 1075.5 1053.56C1074.96 1054.41 1073.83 1054.68 1072.98 1054.14C1069.42 1051.94 1066.27 1051.22 1063.62 1052.03C1060.34 1053.02 1058.81 1056.17 1058.81 1056.21C1058.49 1056.8 1057.86 1057.25 1057.14 1057.25Z" fill="black" style="fill:black;fill-opacity:1;"/>
<path d="M842.935 1414.66H811.485C810.18 1414.66 809.146 1415.7 809.146 1417V1434.14H793.983V1438.87H811.485C812.79 1438.87 813.825 1437.83 813.825 1436.53V1419.39H840.55V1480.13H793.983V1484.85H842.935C844.239 1484.85 845.274 1483.82 845.274 1482.51V1417.09C845.274 1415.7 844.194 1414.66 842.935 1414.66Z" fill="black" style="fill:black;fill-opacity:1;"/>
<path d="M846.669 1080.37H813.015C811.71 1080.37 810.675 1081.41 810.675 1082.71V1100.17H793.983V1104.89H813.015C814.32 1104.89 815.355 1103.86 815.355 1102.55V1085.1H844.329V1125.77L822.778 1188.62C822.688 1188.85 822.643 1189.12 822.643 1189.39V1414.71H813.015C811.71 1414.71 810.675 1415.74 810.675 1417.05V1434.19H793.983V1438.91H813.015C814.32 1438.91 815.355 1437.88 815.355 1436.57V1419.43H824.983C826.288 1419.43 827.322 1418.4 827.322 1417.09V1189.79L848.873 1126.94C848.963 1126.72 849.008 1126.45 849.008 1126.18V1082.76C849.053 1081.41 847.974 1080.37 846.669 1080.37Z" fill="black" style="fill:black;fill-opacity:1;"/>
<path d="M824.983 1183.18C814.86 1183.31 804.466 1183.4 793.983 1183.45V1188.17C804.466 1188.13 814.905 1188.04 825.028 1187.9C826.333 1187.9 827.367 1186.82 827.367 1185.52C827.322 1184.21 826.288 1183.18 824.983 1183.18Z" fill="black" style="fill:black;fill-opacity:1;"/>
<path d="M846.669 1126.58C829.437 1126.81 811.755 1126.94 793.983 1126.94V1131.66C811.755 1131.62 829.482 1131.53 846.714 1131.3C848.019 1131.3 849.053 1130.22 849.053 1128.92C849.008 1127.61 847.974 1126.63 846.669 1126.58Z" fill="black" style="fill:black;fill-opacity:1;"/>
<path d="M828.447 1085.05C827.142 1085.05 826.107 1084.02 826.107 1082.71V1065.44C826.107 1064.49 826.692 1063.64 827.547 1063.28L924.235 1023.01V965.464C924.235 964.16 925.269 963.125 926.574 963.125C927.879 963.125 928.914 964.16 928.914 965.464V1024.58C928.914 1025.53 928.329 1026.38 927.474 1026.74L830.787 1067.01V1082.76C830.787 1084.02 829.752 1085.05 828.447 1085.05Z" fill="black" style="fill:black;fill-opacity:1;"/>
<path d="M1149.69 1102.51V1085.05H1173.94V1128.56L1155.18 1184.8C1155.09 1185.02 1155.04 1185.29 1155.04 1185.56V1319.01C1156.57 1318.16 1158.15 1317.48 1159.77 1316.81V1185.97L1178.53 1129.73C1178.62 1129.5 1178.66 1129.23 1178.66 1128.96V1082.71C1178.66 1081.41 1177.63 1080.37 1176.32 1080.37H1147.39C1146.09 1080.37 1145.05 1081.41 1145.05 1082.71V1100.17H1110.14V1082.71C1110.14 1081.41 1109.11 1080.37 1107.8 1080.37H1079.82C1078.51 1080.37 1077.48 1081.41 1077.48 1082.71V1100.17H1042.56V1082.71C1042.56 1081.41 1041.53 1080.37 1040.22 1080.37H1006.57C1005.27 1080.37 1004.23 1081.41 1004.23 1082.71V1126.13C1004.23 1126.4 1004.28 1126.63 1004.37 1126.9L1025.92 1189.75V1410.7C1027.45 1410.66 1029.02 1410.66 1030.64 1410.66V1189.34C1030.64 1189.07 1030.6 1188.85 1030.51 1188.58L1008.95 1125.73V1085.05H1037.93V1102.51C1037.93 1103.81 1038.96 1104.85 1040.27 1104.85H1079.86C1081.17 1104.85 1082.2 1103.81 1082.2 1102.51V1085.05H1105.46V1102.51C1105.46 1103.81 1106.5 1104.85 1107.8 1104.85H1147.44C1148.65 1104.89 1149.69 1103.81 1149.69 1102.51Z" fill="black" style="fill:black;fill-opacity:1;"/>
<path d="M1157.43 1187.9H1028.17C1026.86 1187.9 1025.83 1186.87 1025.83 1185.56C1025.83 1184.26 1026.86 1183.22 1028.17 1183.22H1157.43C1158.73 1183.22 1159.77 1184.26 1159.77 1185.56C1159.77 1186.87 1158.73 1187.9 1157.43 1187.9Z" fill="black" style="fill:black;fill-opacity:1;"/>
<path d="M1176.28 1131.3H1006.43C1005.13 1131.3 1004.1 1130.27 1004.1 1128.96C1004.1 1127.66 1005.13 1126.62 1006.43 1126.62H1176.28C1177.58 1126.62 1178.62 1127.66 1178.62 1128.96C1178.62 1130.27 1177.58 1131.3 1176.28 1131.3Z" fill="black" style="fill:black;fill-opacity:1;"/>
<path d="M1024.7 1085.05C1023.4 1085.05 1022.36 1084.02 1022.36 1082.71V1066.97L925.675 1026.7C924.82 1026.34 924.235 1025.48 924.235 1024.54V965.419C924.235 964.115 925.27 963.08 926.574 963.08C927.879 963.08 928.914 964.115 928.914 965.419V1022.96L1025.6 1063.23C1026.46 1063.59 1027.04 1064.45 1027.04 1065.39V1082.67C1027.04 1084.02 1026.01 1085.05 1024.7 1085.05Z" fill="black" style="fill:black;fill-opacity:1;"/>
<path d="M1095.16 1249.23C1093.85 1249.23 1092.82 1248.19 1092.82 1246.89V1225.83C1092.82 1224.53 1093.85 1223.49 1095.16 1223.49C1096.46 1223.49 1097.5 1224.53 1097.5 1225.83V1246.89C1097.5 1248.19 1096.46 1249.23 1095.16 1249.23Z" fill="black" style="fill:black;fill-opacity:1;"/>
<path d="M1095.16 1320C1093.85 1320 1092.82 1318.97 1092.82 1317.66V1296.6C1092.82 1295.3 1093.85 1294.26 1095.16 1294.26C1096.46 1294.26 1097.5 1295.3 1097.5 1296.6V1317.66C1097.5 1318.97 1096.46 1320 1095.16 1320Z" fill="black" style="fill:black;fill-opacity:1;"/>
<path d="M1014.62 1131.3H846.669C845.364 1131.3 844.329 1130.27 844.329 1128.96C844.329 1127.66 845.364 1126.62 846.669 1126.62H1014.62C1015.93 1126.62 1016.96 1127.66 1016.96 1128.96C1016.96 1130.27 1015.93 1131.3 1014.62 1131.3Z" fill="black" style="fill:black;fill-opacity:1;"/>
<path d="M1030.69 1187.9H817.469C816.164 1187.9 815.129 1186.87 815.129 1185.56C815.129 1184.26 816.164 1183.22 817.469 1183.22H1030.69C1031.99 1183.22 1033.02 1184.26 1033.02 1185.56C1033.02 1186.87 1031.99 1187.9 1030.69 1187.9Z" fill="black" style="fill:black;fill-opacity:1;"/>
<path d="M960.858 1324.72H895.755C894.45 1324.72 893.416 1323.69 893.416 1322.38V1260.61C893.416 1248.1 903.584 1237.98 916.046 1237.98H940.567C953.075 1237.98 963.198 1248.15 963.198 1260.61V1322.38C963.198 1323.64 962.163 1324.72 960.858 1324.72ZM898.095 1320H958.474V1260.57C958.474 1250.67 950.42 1242.61 940.522 1242.61H916.001C906.103 1242.61 898.05 1250.67 898.05 1260.57V1320H898.095Z" fill="black" style="fill:black;fill-opacity:1;"/>
<path d="M931.029 1480.13H900.884V1420.69C900.884 1410.79 908.938 1402.74 918.836 1402.74H943.356C953.255 1402.74 961.308 1410.79 961.308 1420.69V1457.14C962.838 1456.15 964.413 1455.2 966.032 1454.26V1420.69C966.032 1408.18 955.864 1398.06 943.402 1398.06H918.881C906.373 1398.06 896.25 1408.23 896.25 1420.69V1482.47C896.25 1483.77 897.285 1484.81 898.59 1484.81H925.765C927.429 1483.23 929.229 1481.7 931.029 1480.13Z" fill="black" style="fill:black;fill-opacity:1;"/>
<path d="M1279.13 1233.21C1280.66 1232.31 1282.24 1231.64 1283.85 1231.19V1158.75C1283.85 1158.12 1283.58 1157.49 1283.13 1157.04C1282.68 1156.59 1282.06 1156.32 1281.43 1156.41L1238.01 1158.3C1236.75 1158.34 1235.76 1159.38 1235.76 1160.64V1183.18H1203.68V1160.64C1203.68 1159.33 1202.64 1158.3 1201.34 1158.3H1165.8C1164.49 1158.3 1163.46 1159.33 1163.46 1160.64C1163.46 1161.94 1164.49 1162.98 1165.8 1162.98H1199V1185.52C1199 1186.82 1200.03 1187.86 1201.34 1187.86H1238.14C1239.45 1187.86 1240.48 1186.82 1240.48 1185.52V1162.89L1279.18 1161.22V1233.21H1279.13Z" fill="black" style="fill:black;fill-opacity:1;"/>
<path d="M1281.47 1222.95H1157.43C1156.12 1222.95 1155.09 1221.92 1155.09 1220.61C1155.09 1219.31 1156.12 1218.27 1157.43 1218.27H1281.47C1282.77 1218.27 1283.81 1219.31 1283.81 1220.61C1283.81 1221.92 1282.77 1222.95 1281.47 1222.95Z" fill="black" style="fill:black;fill-opacity:1;"/>
<path d="M1200.26 1275.82C1198.95 1275.82 1197.92 1274.78 1197.92 1273.48V1252.42C1197.92 1251.12 1198.95 1250.08 1200.26 1250.08C1201.56 1250.08 1202.6 1251.12 1202.6 1252.42V1273.48C1202.6 1274.74 1201.56 1275.82 1200.26 1275.82Z" fill="black" style="fill:black;fill-opacity:1;"/>
<path d="M931.073 1480.13H817.469C816.164 1480.13 815.129 1481.16 815.129 1482.47C815.129 1483.77 816.164 1484.81 817.469 1484.81H925.764C927.474 1483.19 929.274 1481.66 931.073 1480.13Z" fill="black" style="fill:black;fill-opacity:1;"/>
<path d="M793.219 1097.43H507.295C506.261 1097.43 505.451 1096.62 505.451 1095.58C505.451 1094.55 506.261 1093.74 507.295 1093.74H793.263C794.298 1093.74 795.108 1094.55 795.108 1095.58C795.063 1096.62 794.253 1097.43 793.219 1097.43Z" fill="black" style="fill:black;fill-opacity:1;"/>
<path d="M793.219 1069.26H507.295C506.261 1069.26 505.451 1068.45 505.451 1067.42C505.451 1066.38 506.261 1065.57 507.295 1065.57H793.263C794.298 1065.57 795.108 1066.38 795.108 1067.42C795.108 1068.45 794.253 1069.26 793.219 1069.26Z" fill="black" style="fill:black;fill-opacity:1;"/>
<path d="M793.219 1041.1H507.295C506.261 1041.1 505.451 1040.29 505.451 1039.25C505.451 1038.22 506.261 1037.41 507.295 1037.41H793.263C794.298 1037.41 795.108 1038.22 795.108 1039.25C795.063 1040.29 794.253 1041.1 793.219 1041.1Z" fill="black" style="fill:black;fill-opacity:1;"/>
<path d="M810.676 1560.89H797.268C796.233 1560.89 795.423 1561.7 795.423 1562.73C795.423 1563.77 796.233 1564.58 797.268 1564.58H808.201C808.966 1563.23 809.776 1562.01 810.676 1560.89Z" fill="black" style="fill:black;fill-opacity:1;"/>
<path d="M793.219 1009.24H516.429C514.719 1010.64 512.964 1011.85 511.12 1012.93H793.263C794.298 1012.93 795.108 1012.12 795.108 1011.09C795.063 1010.1 794.253 1009.24 793.219 1009.24Z" fill="black" style="fill:black;fill-opacity:1;"/>
<path d="M793.218 981.077H577.572C573.793 982.336 569.969 983.551 566.145 984.766H793.218C794.253 984.766 795.063 983.956 795.063 982.921C795.063 981.931 794.253 981.077 793.218 981.077Z" fill="black" style="fill:black;fill-opacity:1;"/>
<path d="M793.218 952.912H624.409C623.104 954.171 621.754 955.386 620.45 956.601H793.263C794.298 956.601 795.108 955.791 795.108 954.756C795.063 953.766 794.253 952.912 793.218 952.912Z" fill="black" style="fill:black;fill-opacity:1;"/>
<path d="M793.218 924.747H669.851C668.366 925.557 666.926 926.366 665.487 927.221C664.812 927.626 664.137 928.031 663.462 928.391H793.263C794.298 928.391 795.108 927.581 795.108 926.546C795.063 925.602 794.253 924.747 793.218 924.747Z" fill="black" style="fill:black;fill-opacity:1;"/>
<path d="M793.219 896.582H729.24C727.801 897.887 726.316 899.101 724.831 900.271H793.219C794.253 900.271 795.063 899.461 795.063 898.427C795.063 897.392 794.253 896.582 793.219 896.582Z" fill="black" style="fill:black;fill-opacity:1;"/>
<path d="M871.234 527.289C868.4 527.289 865.61 528.234 863.361 529.898C859.626 523.779 852.923 519.955 845.724 519.955C841.45 519.955 837.266 521.305 833.801 523.779C828.312 517.526 820.484 513.971 812.115 513.971C806.131 513.971 800.552 515.816 795.963 518.92V523.509C800.327 519.82 805.996 517.616 812.115 517.616C819.944 517.616 827.232 521.215 832.046 527.424C832.361 527.829 832.811 528.054 833.306 528.144C833.801 528.189 834.296 528.054 834.701 527.694C837.76 525.084 841.675 523.599 845.724 523.599C852.338 523.599 858.412 527.514 861.201 533.543C861.471 534.083 861.966 534.487 862.596 534.577C863.181 534.667 863.811 534.487 864.216 534.038C866.06 532.058 868.58 530.978 871.279 530.978C876.633 530.978 880.953 535.342 880.953 540.651C880.953 546.005 876.588 550.325 871.279 550.325C868.58 550.325 866.06 549.245 864.216 547.265C863.811 546.815 863.181 546.59 862.596 546.725C862.011 546.815 861.471 547.22 861.201 547.76C858.412 553.789 852.383 557.703 845.724 557.703C842.44 557.703 839.245 556.758 836.456 554.959C836.051 554.689 835.511 554.599 835.016 554.734C834.521 554.869 834.116 555.139 833.846 555.589C829.347 563.327 820.978 568.141 812.07 568.141C805.906 568.141 800.282 565.937 795.918 562.247V566.837C800.552 569.986 806.086 571.786 812.07 571.786C821.653 571.786 830.697 566.927 836.051 559.008C839.02 560.583 842.305 561.393 845.679 561.393C852.923 561.393 859.581 557.568 863.316 551.449C865.61 553.114 868.355 554.059 871.189 554.059C878.568 554.059 884.552 548.075 884.552 540.696C884.597 533.273 878.613 527.289 871.234 527.289Z" fill="black" style="fill:black;fill-opacity:1;"/>
<path d="M718.667 390.874C721.501 390.874 724.291 389.929 726.541 388.264C730.275 394.383 736.979 398.207 744.177 398.207C748.452 398.207 752.636 396.857 756.1 394.383C761.589 400.637 769.418 404.191 777.786 404.191C783.77 404.191 789.349 402.346 793.938 399.242V394.653C789.574 398.342 783.905 400.547 777.786 400.547C769.958 400.547 762.669 396.947 757.855 390.739C757.54 390.334 757.09 390.109 756.595 390.019C756.1 389.974 755.605 390.109 755.2 390.469C752.141 393.078 748.227 394.563 744.177 394.563C737.564 394.563 731.49 390.649 728.7 384.62C728.43 384.08 727.935 383.675 727.305 383.585C726.72 383.495 726.091 383.675 725.686 384.125C723.841 386.104 721.321 387.184 718.622 387.184C713.268 387.184 708.949 382.82 708.949 377.511C708.949 372.157 713.313 367.838 718.622 367.838C721.321 367.838 723.841 368.917 725.686 370.897C726.091 371.347 726.72 371.572 727.305 371.437C727.89 371.347 728.43 370.942 728.7 370.402C731.49 364.373 737.519 360.459 744.177 360.459C747.462 360.459 750.656 361.404 753.446 363.204C753.851 363.473 754.39 363.563 754.885 363.428C755.38 363.294 755.785 363.024 756.055 362.574C760.554 354.835 768.923 350.021 777.831 350.021C783.995 350.021 789.619 352.226 793.983 355.915V351.416C789.349 348.266 783.815 346.467 777.831 346.467C768.248 346.467 759.205 351.326 753.851 359.244C750.881 357.67 747.597 356.86 744.222 356.86C736.979 356.86 730.32 360.684 726.585 366.803C724.291 365.138 721.546 364.193 718.712 364.193C711.333 364.193 705.349 370.177 705.349 377.556C705.304 384.89 711.333 390.874 718.667 390.874Z" fill="black" style="fill:black;fill-opacity:1;"/>
<path d="M653.879 599.591C653.789 599.591 653.699 599.591 653.609 599.546C652.799 599.411 652.169 598.781 652.079 597.971C651.629 594.327 650.234 591.987 647.85 590.727C641.461 587.308 630.033 592.932 629.943 592.977C629.043 593.427 627.919 593.067 627.469 592.167C627.019 591.267 627.379 590.142 628.278 589.693C628.818 589.423 641.461 583.214 649.56 587.488C651.899 588.703 653.564 590.682 654.644 593.292C656.488 591.042 659.458 588.298 663.777 586.993C669.806 585.148 676.69 586.588 684.203 591.222C685.058 591.762 685.328 592.887 684.788 593.742C684.248 594.597 683.124 594.867 682.269 594.327C675.7 590.277 669.851 588.973 664.857 590.457C658.423 592.392 655.543 598.421 655.543 598.466C655.274 599.186 654.599 599.591 653.879 599.591Z" fill="black" style="fill:black;fill-opacity:1;"/>
<path d="M874.609 429.297C874.564 429.297 874.474 429.297 874.429 429.297C873.889 429.207 873.484 428.802 873.439 428.262C873.124 425.922 872.224 424.347 870.695 423.538C866.555 421.333 859.132 424.977 859.042 424.977C858.457 425.292 857.737 425.022 857.422 424.437C857.107 423.853 857.377 423.133 857.962 422.818C858.322 422.638 866.555 418.588 871.774 421.378C873.304 422.188 874.384 423.448 875.059 425.157C876.274 423.673 878.208 421.918 880.998 421.063C884.912 419.893 889.366 420.793 894.27 423.808C894.81 424.167 894.99 424.887 894.675 425.427C894.315 425.967 893.596 426.147 893.056 425.832C888.781 423.223 885.002 422.368 881.763 423.313C877.578 424.572 875.734 428.487 875.689 428.532C875.464 429.027 875.059 429.297 874.609 429.297Z" fill="black" style="fill:black;fill-opacity:1;"/>
<path d="M709.264 488.956C709.219 488.956 709.129 488.956 709.084 488.956C708.544 488.866 708.139 488.461 708.094 487.921C707.779 485.581 706.879 484.007 705.349 483.197C701.21 480.992 693.787 484.636 693.697 484.636C693.112 484.951 692.392 484.681 692.077 484.097C691.762 483.512 692.032 482.792 692.617 482.477C692.977 482.297 701.21 478.248 706.429 481.037C707.959 481.847 709.039 483.107 709.714 484.816C710.928 483.332 712.863 481.577 715.653 480.722C719.567 479.552 724.021 480.452 728.925 483.467C729.465 483.827 729.645 484.546 729.33 485.086C728.97 485.626 728.25 485.806 727.71 485.491C723.436 482.882 719.657 482.027 716.417 482.972C712.233 484.232 710.389 488.146 710.344 488.191C710.164 488.686 709.759 488.956 709.264 488.956Z" fill="black" style="fill:black;fill-opacity:1;"/>
<path d="M1166.7 814.652H799.607V818.341H1168.63C1167.87 817.126 1167.24 815.866 1166.7 814.652Z" fill="black" style="fill:black;fill-opacity:1;"/>
<path d="M861.201 2086.8H794.748V2090.49H858.457C859.356 2089.27 860.256 2088.06 861.201 2086.8Z" fill="black" style="fill:black;fill-opacity:1;"/>
<path d="M877.398 2058.63H794.703V2062.32H874.294C875.329 2061.06 876.363 2059.85 877.398 2058.63Z" fill="black" style="fill:black;fill-opacity:1;"/>
<path d="M898.589 2030.47H794.703V2034.16H896.52C897.239 2032.94 897.959 2031.73 898.589 2030.47Z" fill="black" style="fill:black;fill-opacity:1;"/>
<path d="M912.897 2002.3H794.703V2005.99H910.647C911.367 2004.73 912.177 2003.52 912.897 2002.3Z" fill="black" style="fill:black;fill-opacity:1;"/>
<path d="M861.201 2086.8H794.748V2090.49H858.457C859.356 2089.27 860.256 2088.06 861.201 2086.8Z" fill="black" style="fill:black;fill-opacity:1;"/>
<path d="M816.524 2143.17H794.748V2146.86H814.005C814.814 2145.6 815.669 2144.39 816.524 2143.17Z" fill="black" style="fill:black;fill-opacity:1;"/>
<path d="M838.75 2114.96H794.703V2118.65H835.646C836.725 2117.44 837.76 2116.22 838.75 2114.96Z" fill="black" style="fill:black;fill-opacity:1;"/>
<path d="M861.201 2086.8H794.748V2090.49H858.457C859.356 2089.27 860.256 2088.06 861.201 2086.8Z" fill="black" style="fill:black;fill-opacity:1;"/>
<path d="M688.207 2022.68V1984.35H682.358V2015.08C684.653 2017.19 686.633 2019.76 688.207 2022.68Z" fill="black" style="fill:black;fill-opacity:1;"/>
<path d="M733.199 2085.22V1984.3H727.35V2080.14C729.555 2081.35 731.579 2083.02 733.199 2085.22Z" fill="black" style="fill:black;fill-opacity:1;"/>
<path d="M772.747 2149.33C774.592 2151.36 776.437 2153.47 778.191 2155.68V1984.35H772.342V2148.93C772.477 2149.06 772.657 2149.15 772.747 2149.33Z" fill="black" style="fill:black;fill-opacity:1;"/>
<path d="M780.035 2157.88V1984.35H776.346V2153.38C777.606 2154.82 778.821 2156.31 780.035 2157.88Z" fill="black" style="fill:black;fill-opacity:1;"/>
<path d="M1235.76 1419.3C1232.92 1419.3 1230.13 1420.24 1227.88 1421.91C1226 1418.85 1223.39 1416.37 1220.33 1414.66C1219.43 1415.61 1218.48 1416.51 1217.45 1417.32C1221 1418.98 1223.97 1421.91 1225.68 1425.6C1225.95 1426.14 1226.44 1426.54 1227.07 1426.63C1227.66 1426.72 1228.29 1426.54 1228.69 1426.09C1230.54 1424.11 1233.06 1423.03 1235.76 1423.03C1241.11 1423.03 1245.43 1427.4 1245.43 1432.7C1245.43 1438.06 1241.07 1442.38 1235.76 1442.38C1233.06 1442.38 1230.54 1441.3 1228.69 1439.32C1228.29 1438.87 1227.66 1438.64 1227.07 1438.78C1226.49 1438.87 1225.95 1439.27 1225.68 1439.81C1222.89 1445.84 1216.86 1449.76 1210.2 1449.76C1206.15 1449.76 1202.24 1448.32 1199.18 1445.66C1198.82 1445.35 1198.33 1445.21 1197.79 1445.21C1197.29 1445.26 1196.84 1445.53 1196.53 1445.93C1191.71 1452.19 1184.42 1455.74 1176.59 1455.74C1170.43 1455.74 1164.81 1453.54 1160.44 1449.85V1454.44C1165.08 1457.59 1170.61 1459.38 1176.59 1459.38C1184.96 1459.38 1192.75 1455.83 1198.28 1449.58C1201.74 1452.05 1205.93 1453.4 1210.2 1453.4C1217.45 1453.4 1224.11 1449.58 1227.84 1443.46C1230.13 1445.12 1232.88 1446.07 1235.71 1446.07C1243.09 1446.07 1249.08 1440.08 1249.08 1432.7C1249.12 1425.28 1243.14 1419.3 1235.76 1419.3Z" fill="black" style="fill:black;fill-opacity:1;"/>
<path d="M1136.28 1679.17C1132.01 1677.01 1128.32 1673.68 1125.84 1669.41C1125.57 1668.96 1125.17 1668.64 1124.67 1668.55C1124.18 1668.42 1123.68 1668.51 1123.23 1668.78C1120.49 1670.58 1117.25 1671.52 1113.97 1671.52C1107.35 1671.52 1101.28 1667.61 1098.49 1661.58C1098.22 1661.04 1097.72 1660.63 1097.09 1660.54C1096.51 1660.45 1095.88 1660.63 1095.47 1661.08C1093.63 1663.06 1091.11 1664.14 1088.41 1664.14C1083.06 1664.14 1078.74 1659.78 1078.74 1654.47C1078.74 1649.12 1083.1 1644.8 1088.41 1644.8C1091.11 1644.8 1093.63 1645.88 1095.47 1647.86C1095.88 1648.31 1096.51 1648.53 1097.09 1648.4C1097.68 1648.31 1098.22 1647.9 1098.49 1647.36C1101.28 1641.33 1107.31 1637.42 1113.97 1637.42C1118.01 1637.42 1121.93 1638.86 1124.99 1641.51C1125.35 1641.83 1125.84 1641.96 1126.38 1641.96C1126.88 1641.92 1127.33 1641.65 1127.64 1641.24C1132.46 1634.99 1139.75 1631.43 1147.57 1631.43C1153.74 1631.43 1159.36 1633.64 1163.73 1637.33V1632.74C1159.09 1629.59 1153.56 1627.79 1147.57 1627.79C1139.21 1627.79 1131.42 1631.34 1125.89 1637.6C1122.42 1635.12 1118.24 1633.77 1113.97 1633.77C1106.72 1633.77 1100.06 1637.6 1096.33 1643.72C1094.03 1642.05 1091.29 1641.11 1088.45 1641.11C1081.08 1641.11 1075.09 1647.09 1075.09 1654.47C1075.09 1661.85 1081.08 1667.83 1088.45 1667.83C1091.29 1667.83 1094.08 1666.89 1096.33 1665.22C1100.06 1671.34 1106.77 1675.17 1113.97 1675.17C1117.34 1675.17 1120.62 1674.36 1123.59 1672.78C1126.34 1676.83 1130.03 1680.07 1134.3 1682.27C1134.89 1681.24 1135.52 1680.2 1136.28 1679.17Z" fill="black" style="fill:black;fill-opacity:1;"/>
<path d="M346.899 1421.64C344.065 1421.64 341.275 1422.58 339.026 1424.25C335.291 1418.13 328.588 1414.3 321.389 1414.3C318.015 1414.3 314.73 1415.11 311.761 1416.69C306.407 1408.77 297.408 1403.91 287.78 1403.91C281.796 1403.91 276.217 1405.75 271.628 1408.86V1413.45C275.992 1409.76 281.661 1407.55 287.78 1407.55C296.688 1407.55 305.012 1412.37 309.556 1420.11C309.826 1420.56 310.231 1420.87 310.726 1420.96C311.221 1421.1 311.716 1421.01 312.166 1420.74C314.91 1418.94 318.149 1417.99 321.434 1417.99C328.048 1417.99 334.122 1421.91 336.911 1427.94C337.181 1428.48 337.676 1428.88 338.306 1428.97C338.891 1429.06 339.521 1428.88 339.926 1428.43C341.77 1426.45 344.29 1425.37 346.989 1425.37C352.343 1425.37 356.663 1429.74 356.663 1435.04C356.663 1440.4 352.298 1444.72 346.989 1444.72C344.29 1444.72 341.77 1443.64 339.926 1441.66C339.521 1441.21 338.891 1440.98 338.306 1441.12C337.721 1441.21 337.181 1441.61 336.911 1442.15C334.122 1448.18 328.093 1452.1 321.434 1452.1C317.385 1452.1 313.47 1450.66 310.411 1448C310.051 1447.69 309.556 1447.55 309.016 1447.55C308.521 1447.6 308.071 1447.87 307.756 1448.27C306.092 1450.43 304.112 1452.23 301.907 1453.72C302.717 1454.62 303.437 1455.56 304.157 1456.64C306.092 1455.29 307.891 1453.76 309.466 1451.92C312.93 1454.39 317.115 1455.74 321.389 1455.74C328.633 1455.74 335.291 1451.92 339.026 1445.8C341.32 1447.46 344.065 1448.41 346.899 1448.41C354.278 1448.41 360.262 1442.42 360.262 1435.04C360.262 1427.62 354.278 1421.64 346.899 1421.64Z" fill="black" style="fill:black;fill-opacity:1;"/>
<path d="M710.883 1645.07C706.969 1647.59 702.38 1649.07 697.386 1649.07C688.477 1649.07 680.154 1644.26 675.61 1636.52C675.34 1636.07 674.935 1635.75 674.44 1635.66C673.945 1635.53 673.45 1635.62 673 1635.89C670.256 1637.69 667.016 1638.63 663.732 1638.63C657.118 1638.63 651.044 1634.72 648.255 1628.69C647.985 1628.15 647.49 1627.74 646.86 1627.65C646.275 1627.56 645.645 1627.74 645.24 1628.19C643.396 1630.17 640.876 1631.25 638.177 1631.25C632.823 1631.25 628.503 1626.89 628.503 1621.58C628.503 1616.23 632.868 1611.91 638.177 1611.91C640.876 1611.91 643.396 1612.99 645.24 1614.97C645.645 1615.42 646.275 1615.64 646.86 1615.51C647.445 1615.42 647.985 1615.01 648.255 1614.47C649.649 1611.41 651.944 1608.89 654.689 1607.14C653.564 1606.46 652.484 1605.7 651.539 1604.84C649.379 1606.42 647.49 1608.44 646.05 1610.78C643.756 1609.12 641.011 1608.17 638.177 1608.17C630.798 1608.17 624.814 1614.16 624.814 1621.54C624.814 1628.91 630.798 1634.9 638.177 1634.9C641.011 1634.9 643.801 1633.95 646.05 1632.29C649.784 1638.41 656.443 1642.23 663.687 1642.23C667.061 1642.23 670.346 1641.42 673.315 1639.85C678.669 1647.77 687.668 1652.62 697.296 1652.62C703.28 1652.62 708.859 1650.78 713.448 1647.68C712.593 1646.96 711.693 1646.01 710.883 1645.07Z" fill="black" style="fill:black;fill-opacity:1;"/>
<path d="M997.932 1629.27C997.842 1629.27 997.752 1629.27 997.662 1629.23C996.852 1629.09 996.222 1628.46 996.132 1627.65C995.682 1624.01 994.287 1621.67 991.903 1620.41C985.514 1616.99 974.086 1622.62 973.996 1622.66C973.096 1623.11 971.971 1622.75 971.521 1621.85C971.071 1620.95 971.431 1619.83 972.331 1619.38C972.871 1619.11 985.514 1612.9 993.612 1617.17C995.952 1618.39 997.617 1620.37 998.696 1622.98C1000.54 1620.73 1003.51 1617.98 1007.83 1616.68C1013.86 1614.83 1020.74 1616.27 1028.26 1620.91C1029.11 1621.45 1029.38 1622.57 1028.84 1623.43C1028.3 1624.28 1027.18 1624.55 1026.32 1624.01C1019.75 1619.96 1013.9 1618.66 1008.91 1620.14C1002.48 1622.08 999.596 1628.1 999.596 1628.19C999.281 1628.87 998.606 1629.27 997.932 1629.27Z" fill="black" style="fill:black;fill-opacity:1;"/>
<path d="M1143.43 1550.09C1143.34 1550.09 1143.25 1550.09 1143.17 1550.04C1142.36 1549.91 1141.73 1549.28 1141.64 1548.47C1141.19 1544.82 1139.79 1542.48 1137.41 1541.22C1131.02 1537.81 1119.59 1543.43 1119.5 1543.47C1118.6 1543.92 1117.47 1543.56 1117.02 1542.66C1116.57 1541.76 1116.93 1540.64 1117.83 1540.19C1118.37 1539.92 1131.02 1533.71 1139.12 1537.99C1141.46 1539.2 1143.12 1541.18 1144.2 1543.79C1146.04 1541.54 1149.01 1538.8 1153.33 1537.49C1159.36 1535.65 1166.25 1537.09 1173.76 1541.72C1174.61 1542.26 1174.88 1543.38 1174.34 1544.24C1173.8 1545.09 1172.68 1545.36 1171.82 1544.82C1165.26 1540.77 1159.41 1539.47 1154.41 1540.95C1147.98 1542.89 1145.1 1548.92 1145.1 1549.01C1144.78 1549.68 1144.15 1550.09 1143.43 1550.09Z" fill="black" style="fill:black;fill-opacity:1;"/>
<path d="M407.413 1525.66C407.323 1525.66 407.234 1525.66 407.144 1525.61C406.334 1525.48 405.704 1524.85 405.614 1524.04C405.164 1520.39 403.769 1518.05 401.385 1516.79C394.996 1513.38 383.568 1519 383.478 1519.04C382.578 1519.49 381.453 1519.13 381.003 1518.23C380.553 1517.33 380.913 1516.21 381.813 1515.76C382.353 1515.49 394.996 1509.28 403.094 1513.56C405.434 1514.77 407.099 1516.75 408.178 1519.36C410.023 1517.11 412.992 1514.37 417.312 1513.06C423.341 1511.22 430.224 1512.66 437.738 1517.29C438.593 1517.83 438.863 1518.95 438.323 1519.81C437.783 1520.66 436.658 1520.93 435.803 1520.39C429.235 1516.34 423.386 1515.04 418.391 1516.52C411.958 1518.46 409.078 1524.49 409.078 1524.53C408.763 1525.21 408.088 1525.66 407.413 1525.66Z" fill="black" style="fill:black;fill-opacity:1;"/>
<path d="M904.574 1847.89C904.169 1847.89 903.899 1847.89 903.809 1847.89C902.549 1847.89 901.559 1846.85 901.604 1845.59C901.649 1844.34 902.549 1843.39 903.899 1843.39C904.349 1843.39 947.316 1843.8 971.701 1826.52C982.455 1818.91 989.023 1792.1 987.674 1761.37C986.369 1731.72 977.146 1695.5 955.189 1682.72C915.822 1659.78 890.266 1685.78 890.041 1686.05C889.861 1686.23 889.681 1686.37 889.456 1686.5C868.94 1697.44 866.196 1725.2 864.351 1743.6C863.721 1749.72 863.271 1754.58 862.236 1757.77C858.412 1769.65 858.187 1788.82 861.606 1809.02C865.116 1829.62 854.813 1832.82 848.019 1834.89C847.254 1835.11 846.489 1835.34 845.769 1835.61C844.644 1836.01 843.97 1836.6 843.565 1837.5C842.53 1839.84 843.655 1843.53 844.195 1844.78C844.69 1845.91 844.15 1847.26 843.025 1847.75C841.9 1848.25 840.55 1847.71 840.055 1846.58C839.785 1845.95 837.446 1840.24 839.47 1835.74C840.37 1833.67 842.08 1832.19 844.33 1831.38C845.094 1831.11 845.904 1830.88 846.714 1830.61C853.553 1828.5 860.032 1826.52 857.197 1809.78C853.598 1788.59 853.868 1769.11 857.962 1756.38C858.817 1753.68 859.312 1748.77 859.897 1743.15C861.831 1723.89 864.756 1694.83 887.072 1682.68C890.086 1679.75 917.306 1655.5 957.484 1678.86C980.97 1692.53 990.823 1730.37 992.173 1761.19C993.388 1788.41 988.303 1820.31 974.311 1830.21C950.195 1847.17 910.783 1847.89 904.574 1847.89Z" fill="black" style="fill:black;fill-opacity:1;"/>
<path d="M888.737 1795.07C885.722 1795.07 882.393 1794.44 879.333 1792.59C873.529 1789 870.29 1781.84 869.75 1771.31C869.705 1770.05 870.65 1769.02 871.865 1768.97C873.214 1768.88 874.159 1769.87 874.204 1771.09C874.654 1780.04 877.174 1785.98 881.628 1788.73C886.217 1791.56 892.066 1790.48 895.036 1789.58C892.426 1782.47 887.702 1773.56 883.878 1772.8C880.368 1772.08 877.489 1769.29 876.004 1765.1C873.079 1757.19 875.554 1747.06 882.573 1738.02C893.506 1723.94 888.107 1701.58 888.017 1701.35C887.702 1700.14 888.467 1698.92 889.636 1698.61C890.806 1698.29 892.066 1699.06 892.381 1700.23C892.651 1701.22 898.365 1724.93 886.127 1740.72C878.973 1749.94 878.389 1758.54 880.233 1763.48C881.223 1766.14 882.888 1767.89 884.822 1768.3C893.101 1770.01 898.995 1786.84 900.075 1790.16C900.435 1791.24 899.895 1792.46 898.86 1792.91C898.545 1793.18 894.136 1795.07 888.737 1795.07Z" fill="black" style="fill:black;fill-opacity:1;"/>
<path d="M917.261 1794.98C908.623 1794.98 901.244 1792.01 900.794 1791.83C900.12 1791.56 899.625 1790.97 899.445 1790.3C895.17 1773.25 903.134 1767.71 909.523 1763.26C915.147 1759.39 918.836 1756.78 915.597 1747.56C907.273 1723.89 925.27 1697.26 926.035 1696.13C926.755 1695.1 928.149 1694.83 929.139 1695.55C930.174 1696.27 930.444 1697.66 929.724 1698.65C929.544 1698.92 912.267 1724.57 919.781 1746.03C924.145 1758.49 917.711 1762.94 912.042 1766.9C906.148 1771 900.569 1774.87 903.494 1788.01C906.913 1789.18 918.116 1792.46 926.98 1788.59C931.659 1786.57 935.078 1782.83 937.148 1777.48C937.598 1776.31 938.903 1775.77 940.072 1776.17C941.242 1776.62 941.827 1777.93 941.377 1779.1C938.857 1785.62 934.628 1790.26 928.779 1792.73C925.045 1794.39 921.041 1794.98 917.261 1794.98Z" fill="black" style="fill:black;fill-opacity:1;"/>
<path d="M910.827 1823.23C909.883 1823.23 908.938 1823.23 907.903 1823.19C895.755 1822.87 886.622 1819.32 880.863 1812.66C873.214 1803.84 874.339 1792.91 874.384 1792.46C874.474 1791.65 874.969 1790.97 875.734 1790.66C876.454 1790.34 877.309 1790.43 877.983 1790.93C879.018 1791.69 904.034 1809.74 937.958 1784.54C938.947 1783.82 940.387 1784 941.107 1784.99C941.872 1785.98 941.647 1787.42 940.657 1788.14C911.547 1809.69 887.747 1801.23 878.928 1796.69C879.243 1800.11 880.413 1805.33 884.282 1809.74C889.186 1815.36 897.195 1818.37 908.038 1818.64C928.374 1819.23 931.569 1814.19 935.978 1807.26C938.857 1802.76 942.097 1797.68 949.88 1793.04C969.362 1781.48 974.671 1768.43 973.456 1734.87C973.411 1733.61 974.401 1732.58 975.616 1732.53C976.785 1732.4 977.91 1733.47 977.955 1734.69C979.215 1769.87 973.186 1784.45 952.175 1796.91C945.291 1801.01 942.457 1805.42 939.757 1809.69C935.168 1816.93 931.164 1823.23 910.827 1823.23Z" fill="black" style="fill:black;fill-opacity:1;"/>
<path d="M881.133 1725.65C878.389 1725.65 875.059 1725.06 871.145 1723.44C870.56 1723.22 870.155 1722.77 869.93 1722.18C869.705 1721.6 869.705 1720.97 869.975 1720.43C870.335 1719.57 873.934 1712.1 880.188 1711.61C884.148 1711.25 887.972 1713.86 891.571 1719.21C892.156 1720.07 892.066 1721.19 891.346 1721.96C891.166 1722.18 887.882 1725.65 881.133 1725.65ZM875.284 1720.16C881.043 1722 884.687 1720.92 886.577 1719.93C884.912 1717.82 882.888 1715.84 880.593 1716.06C878.434 1716.24 876.499 1718.36 875.284 1720.16Z" fill="black" style="fill:black;fill-opacity:1;"/>
<path d="M935.123 1725.65C928.419 1725.65 925.135 1722.14 924.91 1721.96C924.235 1721.19 924.145 1720.07 924.685 1719.21C928.24 1713.86 932.109 1711.25 936.068 1711.61C942.367 1712.1 945.921 1719.62 946.281 1720.43C946.551 1720.97 946.551 1721.6 946.326 1722.18C946.101 1722.77 945.651 1723.22 945.111 1723.44C941.197 1725.06 937.868 1725.65 935.123 1725.65ZM929.724 1719.93C931.569 1720.92 935.213 1722 941.017 1720.16C939.802 1718.31 937.868 1716.24 935.753 1716.06C933.459 1715.88 931.389 1717.82 929.724 1719.93Z" fill="black" style="fill:black;fill-opacity:1;"/>
<path d="M793.219 1863.01C794.884 1861.3 796.683 1859.63 798.573 1857.97C822.419 1837.72 885.992 1852.57 937.058 1864.49C949.611 1867.42 961.488 1870.21 972.151 1872.32C973.321 1872.55 974.536 1871.78 974.806 1870.57C975.031 1869.35 974.266 1868.18 973.051 1867.91C962.433 1865.8 950.6 1863.01 938.093 1860.08C883.338 1847.3 821.249 1832.82 795.648 1854.5C794.794 1855.22 793.984 1855.99 793.174 1856.71V1863.01H793.219Z" fill="black" style="fill:black;fill-opacity:1;"/>
<path d="M966.077 1925.1C942.187 1925.01 914.562 1917.31 893.551 1906.6C889.141 1904.35 885.092 1902.24 881.313 1900.31C843.34 1880.73 833.126 1875.42 794.928 1882.31C794.119 1882.44 793.534 1883.03 793.264 1883.7V1886.09C793.489 1887.89 793.714 1891.58 793.264 1895.63V1909.03C798.573 1901.65 798.258 1890.95 797.808 1886.31C832.767 1880.28 842.125 1885.1 879.243 1904.26C883.022 1906.2 887.117 1908.31 891.526 1910.56C912.762 1921.41 940.657 1929.19 965.178 1929.46C965.358 1927.98 965.672 1926.54 966.077 1925.1Z" fill="black" style="fill:black;fill-opacity:1;"/>
<path d="M1034.06 1825.62C1043.19 1797.27 1053.68 1774.73 1053.86 1774.33C1054.4 1773.2 1053.9 1771.85 1052.78 1771.31C1051.65 1770.77 1050.3 1771.27 1049.76 1772.39C1049.54 1772.84 1036.53 1800.78 1026.77 1833.85C1028.75 1830.12 1031.23 1827.37 1034.06 1825.62Z" fill="black" style="fill:black;fill-opacity:1;"/>
<path d="M979.125 1873.36C978.135 1873.36 977.236 1872.68 976.966 1871.69C976.651 1870.48 977.371 1869.26 978.54 1868.95C978.63 1868.9 988.934 1866.02 992.803 1857.79C995.142 1852.84 994.782 1846.81 991.633 1839.84C984.434 1823.86 995.862 1815.18 1005 1808.25C1011.52 1803.3 1017.19 1798.98 1015.79 1793.27C1011.52 1775.27 1020.65 1766.86 1037.16 1753.59C1039.41 1751.79 1040.4 1749.76 1040.22 1747.42C1039.5 1737.79 1020.56 1724.79 1013.36 1720.61C1012.28 1719.98 1011.92 1718.63 1012.55 1717.55C1013.18 1716.47 1014.58 1716.11 1015.61 1716.74C1018.49 1718.4 1043.69 1733.39 1044.72 1747.11C1045.04 1751.02 1043.42 1754.4 1040 1757.14C1022.81 1770.91 1016.65 1777.52 1020.16 1792.28C1022.18 1800.87 1014.8 1806.45 1007.7 1811.9C998.607 1818.82 990.013 1825.35 995.727 1838.08C999.417 1846.27 999.777 1853.6 996.852 1859.81C992.038 1869.94 980.205 1873.22 979.665 1873.36C979.53 1873.31 979.305 1873.36 979.125 1873.36Z" fill="black" style="fill:black;fill-opacity:1;"/>
<path d="M988.438 1747.33C987.314 1747.33 986.369 1746.52 986.234 1745.4C986.054 1744.18 986.909 1743.01 988.123 1742.88C997.167 1741.62 1007.92 1730.37 1012.64 1717.32C1015.03 1710.66 1017.82 1698.16 1009.31 1688.8C993.433 1671.3 963.153 1686.55 962.838 1686.73C961.758 1687.31 960.364 1686.86 959.824 1685.74C959.239 1684.61 959.689 1683.26 960.813 1682.72C962.163 1682 994.467 1665.76 1012.69 1685.78C1020.02 1693.88 1021.6 1705.94 1016.92 1718.85C1011.61 1733.57 999.506 1745.85 988.798 1747.33C988.618 1747.33 988.528 1747.33 988.438 1747.33Z" fill="black" style="fill:black;fill-opacity:1;"/>
<path d="M862.416 1742.2C861.696 1742.2 860.977 1741.84 860.527 1741.21C859.762 1740.09 842.26 1713.23 856.117 1693.7C869.975 1674.13 891.526 1679.8 891.751 1679.89C892.966 1680.2 893.641 1681.46 893.326 1682.63C893.011 1683.85 891.796 1684.52 890.581 1684.21C889.816 1683.98 871.82 1679.35 859.807 1696.31C847.749 1713.36 864.126 1738.51 864.306 1738.74C864.981 1739.77 864.711 1741.17 863.676 1741.84C863.271 1742.07 862.866 1742.2 862.416 1742.2Z" fill="black" style="fill:black;fill-opacity:1;"/>
<path d="M984.884 1728.98C984.119 1728.98 983.354 1728.57 982.95 1727.85C982.32 1726.77 982.68 1725.42 983.759 1724.79C988.528 1722 1000.59 1713.14 998.877 1705.36C998.562 1704.01 997.842 1703.06 996.627 1702.34C991.408 1699.28 979.62 1701.8 975.481 1703.02C974.311 1703.38 973.051 1702.7 972.691 1701.49C972.331 1700.32 973.006 1699.06 974.221 1698.7C975.931 1698.2 991.093 1693.84 998.922 1698.43C1001.26 1699.78 1002.7 1701.8 1003.29 1704.37C1006.08 1716.96 986.864 1728.21 986.054 1728.66C985.649 1728.89 985.244 1728.98 984.884 1728.98Z" fill="black" style="fill:black;fill-opacity:1;"/>
<path d="M1080.85 1757.46C1050.89 1740.72 1023.67 1721.87 1023.22 1721.55C1022.18 1720.83 1020.79 1721.1 1020.07 1722.14C1019.35 1723.17 1019.62 1724.57 1020.65 1725.29C1022.45 1726.55 1048.86 1744.81 1078.24 1761.24C1079.01 1759.89 1079.91 1758.63 1080.85 1757.46Z" fill="black" style="fill:black;fill-opacity:1;"/>
<path d="M858.817 1889.19C857.692 1889.15 856.477 1890 856.387 1891.26C855.352 1904.49 852.023 1912.86 846.759 1915.42C841.495 1917.99 835.511 1914.03 835.466 1913.98C834.656 1913.44 833.531 1913.49 832.812 1914.12C822.508 1922.49 816.749 1917 816.569 1916.77C815.895 1916.05 814.86 1915.87 813.96 1916.28C808.516 1918.84 804.287 1919.2 801.407 1917.36C795.918 1913.8 796.098 1903.27 796.098 1903.14C796.143 1901.88 795.153 1900.84 793.894 1900.84C793.669 1900.84 793.444 1900.89 793.264 1900.98V1913.35C794.343 1916.32 796.098 1919.25 798.933 1921.14C802.982 1923.75 808.246 1923.7 814.635 1920.96C816.075 1921.95 818.684 1923.25 822.238 1923.25C825.523 1923.25 829.662 1922.13 834.431 1918.62C837.086 1920.01 842.935 1922.31 848.739 1919.56C855.667 1916.23 859.762 1906.87 860.931 1891.71C860.976 1890.36 860.077 1889.28 858.817 1889.19Z" fill="black" style="fill:black;fill-opacity:1;"/>
<path d="M967.427 1921.14L793.219 1919.52V1924.02L965.897 1925.64C966.302 1924.06 966.842 1922.58 967.427 1921.14Z" fill="black" style="fill:black;fill-opacity:1;"/>
<path d="M1176.05 839.667C1174.16 840.882 1172.41 842.142 1170.7 843.446C1165.21 847.541 1160.08 851.41 1149.6 851.41C1139.12 851.41 1133.94 847.541 1128.45 843.446C1122.65 839.082 1116.62 834.583 1104.65 834.583C1092.64 834.583 1086.66 839.082 1080.81 843.446C1075.32 847.541 1070.19 851.41 1059.66 851.41C1049.13 851.41 1044 847.541 1038.51 843.446C1032.71 839.082 1026.68 834.583 1014.71 834.583C1002.7 834.583 996.717 839.082 990.868 843.446C985.379 847.541 980.205 851.41 969.722 851.41C959.238 851.41 954.064 847.541 948.575 843.446C942.772 839.082 936.743 834.583 924.775 834.583C912.807 834.583 906.778 839.082 900.974 843.446C895.485 847.541 890.356 851.41 879.828 851.41C869.3 851.41 864.171 847.541 858.682 843.446C852.878 839.082 846.849 834.583 834.881 834.583C822.913 834.583 816.884 839.082 811.08 843.446C805.591 847.541 800.417 851.41 789.934 851.41C779.451 851.41 774.277 847.541 768.833 843.446C763.029 839.082 757 834.583 744.987 834.583C733.02 834.583 726.991 839.082 721.187 843.446C715.698 847.541 710.569 851.41 700.085 851.41C689.602 851.41 684.428 847.541 678.984 843.446C673.18 839.082 667.151 834.583 655.184 834.583C643.216 834.583 637.187 839.082 631.383 843.446C625.894 847.541 620.765 851.41 610.282 851.41C599.799 851.41 594.625 847.541 589.181 843.446C583.377 839.082 577.348 834.583 565.38 834.583C553.412 834.583 547.383 839.082 541.579 843.446C536.675 847.136 532.041 850.6 523.627 851.275V855.774C533.526 855.054 539.015 851.005 544.279 847.046C549.768 842.951 554.897 839.082 565.38 839.082C575.863 839.082 581.037 842.951 586.481 847.046C592.285 851.41 598.314 855.909 610.282 855.909C622.25 855.909 628.278 851.41 634.082 847.046C639.571 842.951 644.701 839.082 655.184 839.082C665.667 839.082 670.841 842.951 676.285 847.046C682.089 851.41 688.118 855.909 700.085 855.909C712.053 855.909 718.082 851.41 723.886 847.046C729.375 842.951 734.504 839.082 744.987 839.082C755.47 839.082 760.645 842.951 766.089 847.046C771.892 851.41 777.921 855.909 789.889 855.909C801.902 855.909 807.886 851.41 813.735 847.046C819.224 842.951 824.353 839.082 834.881 839.082C845.409 839.082 850.538 842.951 856.027 847.046C861.831 851.41 867.86 855.909 879.828 855.909C891.796 855.909 897.825 851.41 903.629 847.046C909.118 842.951 914.247 839.082 924.775 839.082C935.303 839.082 940.432 842.951 945.921 847.046C951.725 851.41 957.754 855.909 969.767 855.909C981.779 855.909 987.763 851.41 993.612 847.046C999.101 842.951 1004.28 839.082 1014.76 839.082C1025.24 839.082 1030.42 842.951 1035.9 847.046C1041.71 851.41 1047.74 855.909 1059.75 855.909C1071.72 855.909 1077.75 851.41 1083.55 847.046C1089.04 842.951 1094.21 839.082 1104.7 839.082C1115.18 839.082 1120.35 842.951 1125.84 847.046C1131.65 851.41 1137.68 855.909 1149.64 855.909C1161.61 855.909 1167.64 851.41 1173.44 847.046C1175.15 845.786 1176.82 844.526 1178.62 843.446C1177.72 842.187 1176.91 840.927 1176.05 839.667Z" fill="black" style="fill:black;fill-opacity:1;"/>
<path d="M744.988 879.845C733.02 879.845 726.991 884.344 721.187 888.708C715.698 892.802 710.569 896.672 700.086 896.672C689.603 896.672 684.429 892.802 678.985 888.708C673.181 884.344 667.152 879.845 655.184 879.845C643.216 879.845 637.187 884.344 631.383 888.708C625.894 892.802 620.765 896.672 610.282 896.672C599.799 896.672 594.625 892.802 589.181 888.708C583.377 884.344 577.348 879.845 565.38 879.845C553.412 879.845 547.384 884.344 541.58 888.708C536.091 892.802 530.961 896.672 520.478 896.672C514.539 896.672 510.31 895.412 506.756 893.567V898.561C510.4 900.136 514.764 901.171 520.478 901.171C532.446 901.171 538.475 896.672 544.279 892.307C549.768 888.213 554.897 884.344 565.38 884.344C575.863 884.344 581.037 888.213 586.481 892.307C592.285 896.672 598.314 901.171 610.282 901.171C622.25 901.171 628.279 896.672 634.083 892.307C639.572 888.213 644.701 884.344 655.184 884.344C665.667 884.344 670.841 888.213 676.285 892.307C682.089 896.672 688.118 901.171 700.086 901.171C712.054 901.171 718.083 896.672 723.887 892.307C729.376 888.213 734.505 884.344 744.988 884.344C745.618 884.344 746.202 884.389 746.787 884.434C748.092 882.949 749.442 881.554 750.972 880.34C749.127 880.025 747.192 879.845 744.988 879.845Z" fill="black" style="fill:black;fill-opacity:1;"/>
<path d="M1202.96 880.745C1200.49 880.205 1197.74 879.845 1194.5 879.845C1182.53 879.845 1176.5 884.344 1170.7 888.708C1165.21 892.802 1160.08 896.672 1149.6 896.672C1139.12 896.672 1133.94 892.802 1128.45 888.708C1122.65 884.344 1116.62 879.845 1104.65 879.845C1092.64 879.845 1086.66 884.344 1080.81 888.708C1075.32 892.802 1070.19 896.672 1059.66 896.672C1049.13 896.672 1044 892.802 1038.51 888.708C1032.71 884.344 1026.68 879.845 1014.71 879.845C1002.7 879.845 996.717 884.344 990.868 888.708C985.379 892.802 980.205 896.672 969.722 896.672C959.239 896.672 954.065 892.802 948.576 888.708C942.772 884.344 936.743 879.845 924.775 879.845C912.807 879.845 906.778 884.344 900.975 888.708C895.486 892.802 890.356 896.672 879.828 896.672C869.3 896.672 864.171 892.802 858.682 888.708C853.103 884.524 847.299 880.25 836.321 879.89C838.796 881.689 841.225 883.579 843.655 885.469C848.739 886.908 852.293 889.518 855.983 892.307C861.787 896.672 867.816 901.171 879.783 901.171C891.751 901.171 897.78 896.672 903.584 892.307C909.073 888.213 914.202 884.344 924.73 884.344C935.258 884.344 940.387 888.213 945.876 892.307C951.68 896.672 957.709 901.171 969.722 901.171C981.735 901.171 987.719 896.672 993.568 892.307C999.057 888.213 1004.23 884.344 1014.71 884.344C1025.2 884.344 1030.37 888.213 1035.86 892.307C1041.66 896.672 1047.69 901.171 1059.71 901.171C1071.67 901.171 1077.7 896.672 1083.51 892.307C1089 888.213 1094.17 884.344 1104.65 884.344C1115.14 884.344 1120.31 888.213 1125.8 892.307C1131.6 896.672 1137.63 901.171 1149.6 901.171C1161.57 901.171 1167.6 896.672 1173.4 892.307C1178.89 888.213 1184.02 884.344 1194.55 884.344C1199.68 884.344 1203.5 885.289 1206.78 886.728C1205.48 884.704 1204.22 882.724 1202.96 880.745Z" fill="black" style="fill:black;fill-opacity:1;"/>
<path d="M1240.48 941.934C1240.12 941.934 1239.81 941.979 1239.45 941.979C1228.96 941.979 1223.79 938.109 1218.3 934.015C1212.5 929.651 1206.47 925.152 1194.46 925.152C1182.49 925.152 1176.46 929.651 1170.66 934.015C1165.17 938.109 1160.04 941.979 1149.55 941.979C1139.07 941.979 1133.9 938.109 1128.41 934.015C1122.6 929.651 1116.58 925.152 1104.61 925.152C1092.59 925.152 1086.61 929.651 1080.76 934.015C1075.27 938.109 1070.14 941.979 1059.62 941.979C1049.09 941.979 1043.96 938.109 1038.47 934.015C1032.67 929.651 1026.64 925.152 1014.67 925.152C1002.66 925.152 996.672 929.651 990.823 934.015C985.334 938.109 980.16 941.979 969.677 941.979C959.194 941.979 954.02 938.109 948.531 934.015C942.727 929.651 936.698 925.152 924.73 925.152C920.096 925.152 916.361 925.826 913.167 926.906C915.642 927.896 918.161 928.886 920.636 929.876C921.895 929.741 923.245 929.651 924.73 929.651C935.213 929.651 940.387 933.52 945.876 937.614C951.68 941.979 957.709 946.478 969.722 946.478C981.735 946.478 987.718 941.979 993.567 937.614C999.056 933.52 1004.23 929.651 1014.71 929.651C1025.2 929.651 1030.37 933.52 1035.86 937.614C1041.66 941.979 1047.69 946.478 1059.71 946.478C1071.67 946.478 1077.7 941.979 1083.51 937.614C1089 933.52 1094.17 929.651 1104.65 929.651C1115.14 929.651 1120.31 933.52 1125.8 937.614C1131.6 941.979 1137.63 946.478 1149.6 946.478C1161.57 946.478 1167.6 941.979 1173.4 937.614C1178.89 933.52 1184.02 929.651 1194.55 929.651C1205.07 929.651 1210.2 933.52 1215.69 937.614C1221.5 941.979 1227.52 946.478 1239.54 946.478C1240.8 946.478 1241.97 946.388 1243.14 946.298C1242.19 944.858 1241.34 943.418 1240.48 941.934Z" fill="black" style="fill:black;fill-opacity:1;"/>
<path d="M655.139 925.107C643.171 925.107 637.142 929.606 631.338 933.97C625.849 938.064 620.72 941.934 610.237 941.934C599.754 941.934 594.58 938.064 589.136 933.97C583.332 929.606 577.303 925.107 565.335 925.107C553.367 925.107 547.339 929.606 541.535 933.97C536.046 938.064 530.916 941.934 520.433 941.934C514.18 941.934 509.815 940.539 506.126 938.559V943.598C509.86 945.308 514.404 946.433 520.433 946.433C532.401 946.433 538.43 941.934 544.234 937.569C549.723 933.475 554.852 929.606 565.335 929.606C575.818 929.606 580.992 933.475 586.436 937.569C592.24 941.934 598.269 946.433 610.237 946.433C622.205 946.433 628.234 941.934 634.038 937.569C639.527 933.475 644.656 929.606 655.139 929.606C657.434 929.606 659.458 929.831 661.348 930.146C663.013 928.976 664.677 927.806 666.387 926.726C663.238 925.781 659.593 925.107 655.139 925.107Z" fill="black" style="fill:black;fill-opacity:1;"/>
<path d="M1261.76 978.422C1261.36 978.737 1260.95 979.007 1260.59 979.322C1255.1 983.416 1249.93 987.285 1239.45 987.285C1228.96 987.285 1223.79 983.416 1218.3 979.322C1212.5 974.957 1206.47 970.458 1194.46 970.458C1182.49 970.458 1176.46 974.957 1170.65 979.322C1165.17 983.416 1160.04 987.285 1149.55 987.285C1139.07 987.285 1133.9 983.416 1128.41 979.322C1122.6 974.957 1116.57 970.458 1104.61 970.458C1092.59 970.458 1086.61 974.957 1080.76 979.322C1075.27 983.416 1070.14 987.285 1059.62 987.285C1049.09 987.285 1043.96 983.416 1038.47 979.322C1032.66 974.957 1026.64 970.458 1014.67 970.458C1010.93 970.458 1007.87 970.908 1005.13 971.673C1007.15 972.753 1009.09 973.923 1010.93 975.137C1012.1 975.002 1013.36 974.957 1014.67 974.957C1025.15 974.957 1030.33 978.827 1035.81 982.921C1041.62 987.285 1047.65 991.784 1059.66 991.784C1071.63 991.784 1077.66 987.285 1083.46 982.921C1088.95 978.827 1094.12 974.957 1104.61 974.957C1115.09 974.957 1120.26 978.827 1125.75 982.921C1131.56 987.285 1137.59 991.784 1149.55 991.784C1161.52 991.784 1167.55 987.285 1173.35 982.921C1178.84 978.827 1183.97 974.957 1194.5 974.957C1205.03 974.957 1210.16 978.827 1215.65 982.921C1221.45 987.285 1227.48 991.784 1239.49 991.784C1251.51 991.784 1257.49 987.285 1263.34 982.921C1263.56 982.741 1263.83 982.561 1264.06 982.381C1263.29 981.031 1262.53 979.727 1261.76 978.422Z" fill="black" style="fill:black;fill-opacity:1;"/>
<path d="M351.939 985.216C348.879 986.43 345.235 987.24 340.556 987.24C333.357 987.24 328.678 985.396 324.674 982.921C324.269 984.496 323.774 985.936 323.279 987.33C327.598 989.85 332.817 991.74 340.556 991.74C345.1 991.74 348.789 991.065 351.939 990.03V985.216Z" fill="black" style="fill:black;fill-opacity:1;"/>
<path d="M565.245 970.413C553.277 970.413 547.248 974.913 541.444 979.277C535.955 983.371 530.826 987.24 520.343 987.24C514.089 987.24 509.725 985.846 506.036 983.866V988.905C509.77 990.615 514.314 991.739 520.343 991.739C532.311 991.739 538.34 987.24 544.144 982.876C549.633 978.782 554.762 974.913 565.245 974.913C570.689 974.913 574.648 975.947 578.023 977.522C579.147 976.397 580.272 975.273 581.442 974.193C577.348 972.033 572.354 970.413 565.245 970.413Z" fill="black" style="fill:black;fill-opacity:1;"/>
<path d="M351.939 1030.52C348.879 1031.74 345.235 1032.55 340.556 1032.55C330.073 1032.55 324.899 1028.68 319.455 1024.58C315.36 1021.52 311.086 1018.42 304.742 1016.84C304.022 1018.24 303.258 1019.63 302.493 1021.03C308.567 1022.33 312.616 1025.17 316.71 1028.23C322.514 1032.59 328.543 1037.09 340.511 1037.09C345.055 1037.09 348.744 1036.42 351.894 1035.38V1030.52H351.939Z" fill="black" style="fill:black;fill-opacity:1;"/>
<path d="M1279.36 1016.04C1270.63 1017.11 1265.5 1020.85 1260.55 1024.58C1255.06 1028.68 1249.89 1032.55 1239.4 1032.55C1228.92 1032.55 1223.75 1028.68 1218.26 1024.58C1212.45 1020.22 1206.42 1015.72 1194.41 1015.72C1182.44 1015.72 1176.41 1020.22 1170.61 1024.58C1165.12 1028.68 1159.99 1032.55 1149.51 1032.55C1139.03 1032.55 1133.85 1028.68 1128.36 1024.58C1122.56 1020.22 1116.53 1015.72 1104.56 1015.72C1098.89 1015.72 1094.62 1016.76 1090.97 1018.28C1092.46 1019.32 1093.85 1020.4 1095.25 1021.57C1097.86 1020.76 1100.87 1020.26 1104.56 1020.26C1115.05 1020.26 1120.22 1024.13 1125.71 1028.23C1131.51 1032.59 1137.54 1037.09 1149.51 1037.09C1161.48 1037.09 1167.51 1032.59 1173.31 1028.23C1178.8 1024.13 1183.93 1020.26 1194.46 1020.26C1204.98 1020.26 1210.11 1024.13 1215.6 1028.23C1221.41 1032.59 1227.43 1037.09 1239.45 1037.09C1251.46 1037.09 1257.44 1032.59 1263.29 1028.23C1268.29 1024.49 1273.06 1020.98 1281.74 1020.35C1280.84 1018.91 1280.08 1017.52 1279.36 1016.04Z" fill="black" style="fill:black;fill-opacity:1;"/>
<path d="M351.939 1075.78C348.879 1077 345.235 1077.81 340.556 1077.81C330.073 1077.81 324.899 1073.94 319.455 1069.85C313.651 1065.48 307.622 1060.98 295.654 1060.98C287.151 1060.98 281.662 1063.28 277.117 1066.16C276.173 1068 275.228 1069.85 274.328 1071.69C273.833 1072.68 273.383 1073.71 272.888 1074.7C273.428 1074.3 274.013 1073.89 274.553 1073.49C280.042 1069.4 285.171 1065.53 295.654 1065.53C306.137 1065.53 311.311 1069.4 316.755 1073.49C322.559 1077.85 328.588 1082.35 340.556 1082.35C345.1 1082.35 348.789 1081.68 351.939 1080.64V1075.78Z" fill="black" style="fill:black;fill-opacity:1;"/>
<path d="M1316.02 1074.93C1313.14 1073.49 1310.72 1071.73 1308.29 1069.85C1302.48 1065.48 1296.45 1060.98 1284.44 1060.98C1272.43 1060.98 1266.44 1065.48 1260.59 1069.85C1255.11 1073.94 1249.93 1077.81 1239.45 1077.81C1228.96 1077.81 1223.79 1073.94 1218.3 1069.85C1212.5 1065.48 1206.47 1060.98 1194.46 1060.98C1184.69 1060.98 1178.89 1064 1173.94 1067.46C1175.29 1068.41 1176.64 1069.31 1177.99 1070.16C1182.13 1067.51 1186.9 1065.48 1194.46 1065.48C1204.94 1065.48 1210.11 1069.35 1215.6 1073.44C1221.41 1077.81 1227.44 1082.31 1239.45 1082.31C1251.46 1082.31 1257.44 1077.81 1263.29 1073.44C1268.78 1069.35 1273.96 1065.48 1284.44 1065.48C1294.92 1065.48 1300.1 1069.35 1305.59 1073.44C1309.14 1076.1 1312.78 1078.8 1317.78 1080.51C1317.06 1078.71 1316.47 1076.86 1316.02 1074.93Z" fill="black" style="fill:black;fill-opacity:1;"/>
<path d="M295.609 1106.24C283.641 1106.24 277.612 1110.74 271.808 1115.11C266.319 1119.2 261.19 1123.07 250.707 1123.07C249.042 1123.07 247.558 1122.94 246.163 1122.76C244.723 1124.06 243.193 1125.32 241.574 1126.49C244.228 1127.16 247.198 1127.57 250.707 1127.57C262.675 1127.57 268.704 1123.07 274.553 1118.71C280.042 1114.61 285.171 1110.74 295.654 1110.74C306.137 1110.74 311.311 1114.61 316.755 1118.71C316.98 1118.84 317.16 1119.02 317.385 1119.16C318.375 1118.08 319.5 1117.04 320.804 1116.1C320.354 1115.78 319.905 1115.42 319.455 1115.11C313.606 1110.79 307.577 1106.24 295.609 1106.24Z" fill="black" style="fill:black;fill-opacity:1;"/>
<path d="M1340.95 1121.05C1337.84 1122.31 1334.2 1123.16 1329.39 1123.16C1318.9 1123.16 1313.73 1119.29 1308.24 1115.2C1302.44 1110.83 1296.41 1106.33 1284.39 1106.33C1275.26 1106.33 1269.59 1108.94 1264.87 1112.14C1266.22 1113.04 1267.57 1113.98 1268.83 1114.97C1272.79 1112.59 1277.38 1110.83 1284.39 1110.83C1294.88 1110.83 1300.05 1114.7 1305.54 1118.8C1311.34 1123.16 1317.37 1127.66 1329.39 1127.66C1335.24 1127.66 1339.69 1126.58 1343.33 1124.96C1342.61 1123.61 1341.85 1122.31 1340.95 1121.05Z" fill="black" style="fill:black;fill-opacity:1;"/>
<defs>
<filter id="filter0_d_0_1" x="0" y="0" width="1800" height="1800" filterUnits="userSpaceOnUse" color-interpolation-filters="sRGB">
<feFlood flood-opacity="0" result="BackgroundImageFix"/>
<feColorMatrix in="SourceAlpha" type="matrix" values="0 0 0 0 0 0 0 0 0 0 0 0 0 0 0 0 0 0 127 0" result="hardAlpha"/>
<feMorphology radius="500" operator="dilate" in="SourceAlpha" result="effect1_dropShadow_0_1"/>
<feOffset/>
<feGaussianBlur stdDeviation="125"/>
<feComposite in2="hardAlpha" operator="out"/>
<feColorMatrix type="matrix" values="0 0 0 0 0.929412 0 0 0 0 0.858824 0 0 0 0 0.333333 0 0 0 0.22 0"/>
<feBlend mode="normal" in2="BackgroundImageFix" result="effect1_dropShadow_0_1"/>
<feBlend mode="normal" in="SourceGraphic" in2="effect1_dropShadow_0_1" result="shape"/>
</filter>
</defs>
</svg>
