<?xml version="1.0" encoding="utf-8"?>
<!-- Generator: Adobe Illustrator 23.0.2, SVG Export Plug-In . SVG Version: 6.00 Build 0)  -->
<svg version="1.1" id="Layer_1" xmlns="http://www.w3.org/2000/svg" xmlns:xlink="http://www.w3.org/1999/xlink" x="0px" y="0px"
	 viewBox="0 0 266.72 504.68" style="enable-background:new 0 0 266.72 504.68;" xml:space="preserve">
<style type="text/css">
	.st0{fill:#9ECC51;}
	.st1{fill:#CA75AA;}
	.st2{fill:#EEDA55;}
	.st3{fill:#E38B84;}
	.st4{fill:#548DCA;}
	.st5{fill:#70C9F2;}
	.st6{fill:#FFFFFF;}
	.st7{fill:#EF525B;}
</style>
<g>
	<polygon class="st0" points="4.58,225 134,155.62 133.36,313.13 	"/>
	<polygon class="st1" points="262.13,225 132.72,155.62 133.36,313.13 	"/>
	<path class="st2" d="M35.12,174.15v-14.97h-3.89v-6.29h6.96v-27.02h-2.61v-5.69h5.21V96.43c0-4.13,3.35-7.48,7.48-7.48h0v-14.1
		l3.87-12.71l3.93,12.71v14.3h0.2c4.13,0,7.48,3.35,7.48,7.48v23.05h4.94v39.52"/>
	<polygon class="st3" points="132.97,155.71 133.15,0.08 262.13,225 	"/>
	<polyline class="st2" points="4.84,224.92 134,155.62 133.82,0 	"/>
	<polygon class="st4" points="132.91,341.1 133.09,448.82 266.58,253.71 	"/>
	<polyline class="st5" points="1.22,255.31 133.94,341.17 133.82,448.82 	"/>
	<g>
		<g>
			<g>
				<g>
					<path d="M70.9,314.17H59.67c-0.2,0-0.39-0.12-0.47-0.3c-0.09-0.18-0.06-0.4,0.07-0.56l11.11-13.4v-15.05
						c0-0.29,0.23-0.52,0.52-0.52s0.52,0.23,0.52,0.52v15.24c0,0.12-0.04,0.24-0.12,0.33l-10.52,12.69H70.9
						c0.29,0,0.52,0.23,0.52,0.52C71.42,313.94,71.19,314.17,70.9,314.17z"/>
				</g>
				<g>
					<path d="M66.37,349.48c0.18,0.26,0.35,0.52,0.53,0.78l4.29-2.86c0.24-0.16,0.31-0.49,0.15-0.73c-0.16-0.24-0.48-0.31-0.73-0.15
						l-4.29,2.86C66.33,349.43,66.35,349.46,66.37,349.48z"/>
				</g>
				<g>
					<path d="M61.01,341.8h9.89c0.29,0,0.52-0.23,0.52-0.52c0-0.29-0.23-0.52-0.52-0.52h-10.6C60.53,341.1,60.77,341.45,61.01,341.8
						z"/>
				</g>
				<g>
					<path d="M57.8,337.07h13.1c0.29,0,0.52-0.23,0.52-0.52c0-0.29-0.23-0.52-0.52-0.52H57.1C57.33,336.38,57.56,336.73,57.8,337.07
						z"/>
				</g>
				<g>
					<path d="M52.26,328.78c3.22-3.82,7.38-6.61,11.83-7.86c2.5-0.71,4.78-0.99,6.77-0.86c0.29,0.02,0.54-0.2,0.56-0.49
						c0.02-0.29-0.2-0.54-0.49-0.56c-2.1-0.14-4.5,0.16-7.12,0.9c-4.57,1.28-8.83,4.11-12.15,7.97
						C51.86,328.18,52.06,328.48,52.26,328.78z"/>
				</g>
				<g>
					<path d="M59.67,322.48c-0.29,0-0.52-0.23-0.52-0.52v-8.31c0-0.29,0.23-0.52,0.52-0.52s0.52,0.23,0.52,0.52v8.31
						C60.19,322.25,59.96,322.48,59.67,322.48z"/>
				</g>
				<g>
					<path d="M54.65,332.38H70.9c0.29,0,0.52-0.23,0.52-0.52s-0.23-0.52-0.52-0.52H53.96C54.19,331.68,54.42,332.03,54.65,332.38z"
						/>
				</g>
				<g>
					<path d="M82.12,314.17H70.9c-0.29,0-0.52-0.23-0.52-0.52c0-0.29,0.23-0.52,0.52-0.52h10.11l-10.52-12.69
						c-0.08-0.09-0.12-0.21-0.12-0.33v-15.24c0-0.29,0.23-0.52,0.52-0.52s0.52,0.23,0.52,0.52v15.05l11.11,13.4
						c0.13,0.16,0.16,0.37,0.07,0.56C82.51,314.06,82.33,314.17,82.12,314.17z"/>
				</g>
				<g>
					<path d="M101.05,400.93h2.91v3.59h-0.23c0.25,0.34,0.5,0.69,0.74,1.05h0.01c0.29,0,0.52-0.23,0.52-0.52v-4.63
						c0-0.29-0.23-0.52-0.52-0.52h-4.17C100.56,400.23,100.81,400.58,101.05,400.93z"/>
				</g>
				<g>
					<path d="M97.85,396.23h0.76v1.15c0.35,0.52,0.69,1.04,1.05,1.56v-3.23c0-0.29-0.23-0.52-0.52-0.52h-1.98
						C97.39,395.54,97.62,395.89,97.85,396.23z"/>
				</g>
				<g>
					<path d="M103,367.75l-31.81-21.21c-0.24-0.16-0.56-0.1-0.73,0.15c-0.16,0.24-0.1,0.57,0.15,0.73l30.37,20.25H78.53
						c0.29,0.35,0.58,0.7,0.87,1.05h23.31c0.23,0,0.43-0.15,0.5-0.37C103.27,368.11,103.19,367.87,103,367.75z"/>
				</g>
				<g>
					<path d="M105.11,354.27c-0.29,0-0.52-0.23-0.52-0.52V341.8H70.9c-0.29,0-0.52-0.23-0.52-0.52c0-0.29,0.23-0.52,0.52-0.52h34.21
						c0.29,0,0.52,0.23,0.52,0.52v12.47C105.63,354.04,105.4,354.27,105.11,354.27z"/>
				</g>
				<g>
					<path d="M101.01,341.8c-0.29,0-0.52-0.23-0.52-0.52v-4.2H70.9c-0.29,0-0.52-0.23-0.52-0.52c0-0.29,0.23-0.52,0.52-0.52h30.12
						c0.29,0,0.52,0.23,0.52,0.52v4.72C101.54,341.56,101.3,341.8,101.01,341.8z"/>
				</g>
				<g>
					<path d="M99.72,337.15c-1.79,0-3.41-0.43-4.72-1.26c-1.28-0.81-2.03-2.07-2.77-3.29l-0.35-0.57
						c-3.38-5.47-8.55-9.52-14.19-11.11c-2.5-0.71-4.78-1-6.77-0.86c-0.28,0.02-0.54-0.2-0.56-0.49c-0.02-0.29,0.2-0.54,0.49-0.56
						c2.1-0.14,4.5,0.16,7.12,0.9c5.89,1.66,11.28,5.87,14.8,11.57l0.35,0.58c0.67,1.11,1.36,2.27,2.43,2.94
						c1.8,1.14,3.93,1.19,5.39,1.03c0.29-0.03,0.55,0.17,0.58,0.46c0.03,0.29-0.17,0.55-0.46,0.58
						C100.61,337.12,100.16,337.15,99.72,337.15z"/>
				</g>
				<g>
					<path d="M82.12,322.48c-0.29,0-0.52-0.23-0.52-0.52v-8.31c0-0.29,0.23-0.52,0.52-0.52s0.52,0.23,0.52,0.52v8.31
						C82.65,322.25,82.41,322.48,82.12,322.48z"/>
				</g>
				<g>
					<path d="M99.14,396.77c-0.29,0-0.52-0.23-0.52-0.52v-28.07c0-0.29,0.23-0.52,0.52-0.52c0.29,0,0.52,0.23,0.52,0.52v28.07
						C99.66,396.54,99.43,396.77,99.14,396.77z"/>
				</g>
				<g>
					<path d="M95.15,392.2v-24.02c0-0.29-0.23-0.52-0.52-0.52s-0.52,0.23-0.52,0.52v22.52C94.46,391.2,94.81,391.69,95.15,392.2z"/>
				</g>
				<g>
					<path d="M82.45,374.29c0.06,0.13,0.13,0.26,0.19,0.39v-6.5c0-0.29-0.23-0.52-0.52-0.52s-0.52,0.23-0.52,0.52v3.36
						C82.25,372.49,82.5,373.42,82.45,374.29z"/>
				</g>
				<g>
					<path d="M126.94,367.54c-0.29,0-0.52-0.23-0.52-0.52v-6.55l-13.37-12.77l-13.38,13.36v4.06c0,0.29-0.23,0.52-0.52,0.52
						c-0.29,0-0.52-0.23-0.52-0.52v-4.28c0-0.14,0.06-0.27,0.15-0.37l13.9-13.87c0.2-0.2,0.53-0.2,0.73-0.01l13.9,13.28
						c0.1,0.1,0.16,0.24,0.16,0.38v6.77C127.46,367.31,127.23,367.54,126.94,367.54z"/>
				</g>
				<g>
					<path d="M99.14,361.37c-0.19,0-0.37-0.11-0.46-0.28c-0.09-0.17-0.08-0.39,0.03-0.55c0.22-0.31,5.36-7.47,13.38-8.04
						c5.16-0.37,10.29,2.12,15.23,7.39c0.14,0.15,0.18,0.37,0.1,0.56c-0.08,0.19-0.26,0.32-0.47,0.32l-27.8,0.59
						C99.15,361.37,99.14,361.37,99.14,361.37z M113.07,353.52c-0.3,0-0.6,0.01-0.91,0.03c-5.94,0.42-10.31,4.85-11.92,6.75
						l25.48-0.54C121.57,355.61,117.32,353.52,113.07,353.52z"/>
				</g>
				<g>
					<path d="M134.03,375.76H99.14c-0.29,0-0.52,0.23-0.52,0.52c0,0.29,0.23,0.52,0.52,0.52h34.88V375.76z"/>
					<path d="M134.03,382.54H99.14c-0.29,0-0.52,0.23-0.52,0.52s0.23,0.52,0.52,0.52h34.88V382.54z"/>
				</g>
				<g>
					<path d="M132.73,376.81c-0.29,0-0.52-0.23-0.52-0.52v-8.02h-30.16c-0.29,0-0.52-0.23-0.52-0.52c0-0.29,0.23-0.52,0.52-0.52
						h30.68c0.29,0,0.52,0.23,0.52,0.52v8.55C133.25,376.58,133.02,376.81,132.73,376.81z"/>
				</g>
				<g>
					<path d="M113.04,347.5c-0.29,0-0.52-0.23-0.52-0.52v-9.89c0-0.29,0.23-0.52,0.52-0.52s0.52,0.23,0.52,0.52v9.89
						C113.56,347.26,113.33,347.5,113.04,347.5z"/>
				</g>
				<g>
					<path d="M129.79,405.56h-3.92c-0.29,0-0.52-0.23-0.52-0.52v-21.98c0-0.29,0.23-0.52,0.52-0.52h3.92c0.29,0,0.52,0.23,0.52,0.52
						v21.98C130.31,405.33,130.08,405.56,129.79,405.56z M126.39,404.51h2.87v-20.93h-2.87V404.51z"/>
				</g>
				<g>
					<path d="M119.19,405.56h-3.92c-0.29,0-0.52-0.23-0.52-0.52v-21.98c0-0.29,0.23-0.52,0.52-0.52h3.92c0.29,0,0.52,0.23,0.52,0.52
						v21.98C119.71,405.33,119.48,405.56,119.19,405.56z M115.79,404.51h2.87v-20.93h-2.87V404.51z"/>
				</g>
				<g>
					<path d="M108.59,382.54h-3.92c-0.29,0-0.52,0.23-0.52,0.52v21.98c0,0.01,0.01,0.03,0.01,0.04c0.1,0.14,0.19,0.28,0.28,0.42
						c0.07,0.04,0.15,0.06,0.23,0.06h3.92c0.29,0,0.52-0.23,0.52-0.52v-21.98C109.11,382.77,108.87,382.54,108.59,382.54z
						 M108.06,404.51h-2.87v-20.93h2.87V404.51z"/>
				</g>
				<g>
					<path d="M103.74,404.51c0.25,0.34,0.5,0.69,0.74,1.05h25.84c0-0.35,0.03-0.7,0.07-1.05H103.74z"/>
				</g>
				<g>
					<path d="M133.46,389.52c-0.29,0-0.52-0.23-0.52-0.52v-3.03c0-0.29,0.23-0.52,0.52-0.52s0.52,0.23,0.52,0.52V389
						C133.98,389.29,133.75,389.52,133.46,389.52z"/>
				</g>
				<g>
					<path d="M123.02,389.52c-0.29,0-0.52-0.23-0.52-0.52v-3.03c0-0.29,0.23-0.52,0.52-0.52s0.52,0.23,0.52,0.52V389
						C123.54,389.29,123.31,389.52,123.02,389.52z"/>
				</g>
				<g>
					<path d="M112.58,389.52c-0.29,0-0.52-0.23-0.52-0.52v-3.03c0-0.29,0.23-0.52,0.52-0.52s0.52,0.23,0.52,0.52V389
						C113.1,389.29,112.87,389.52,112.58,389.52z"/>
				</g>
				<g>
					<path d="M92.25,332.38H70.9c-0.29,0-0.52-0.23-0.52-0.52c0-0.29,0.23-0.52,0.52-0.52h21.35c0.29,0,0.52,0.23,0.52,0.52
						C92.77,332.15,92.54,332.38,92.25,332.38z"/>
				</g>
			</g>
		</g>
		<g>
			<g>
				<g>
					<path d="M121.06,118.8c4.92,4.2,9.56,8.16,16.8,2.41c2.11-1.68,4.08-3.42,5.99-5.11c12.67-11.18,22.68-20.01,54.34,6.13
						c2.9,2.4,5.84,4.55,8.79,6.5c-0.2-0.47-0.34-0.96-0.41-1.47c-2.6-1.77-5.19-3.7-7.74-5.81c-32.32-26.69-42.61-17.61-55.64-6.11
						c-1.9,1.68-3.86,3.41-5.96,5.07c-6.59,5.24-10.53,1.87-15.53-2.39c-6.55-5.59-14.71-12.56-31.79,0.32
						c-9.26,6.98-17.24,12.14-23.81,15.94v1.15c6.71-3.85,14.89-9.12,24.41-16.3C106.97,106.76,114.46,113.16,121.06,118.8z"/>
					<path d="M65.86,135.88v-1.73l0.13-0.07c7.57-4.37,15.57-9.73,23.79-15.92c17.24-12.99,25.48-5.96,32.1-0.31
						c4.91,4.19,8.78,7.5,15.21,2.39c2.08-1.66,4.04-3.38,5.94-5.06c13.13-11.59,23.49-20.73,55.98,6.1
						c2.46,2.03,5.06,3.98,7.73,5.79l0.09,0.06l0.02,0.11c0.07,0.49,0.21,0.96,0.4,1.4l0.33,0.77l-0.7-0.47
						c-3.1-2.06-6.07-4.25-8.82-6.52c-31.5-26.01-41.43-17.24-54.02-6.14c-1.91,1.69-3.88,3.43-6,5.11
						c-7.4,5.88-12.12,1.85-17.11-2.42l0,0c-6.54-5.58-13.95-11.91-30.23,0.36c-8.46,6.37-16.68,11.86-24.44,16.31L65.86,135.88z
						 M66.36,134.44v0.58c7.63-4.4,15.71-9.81,24.01-16.06c16.6-12.51,24.17-6.05,30.85-0.35l-0.16,0.19l0.16-0.19l0,0
						c4.84,4.13,9.41,8.03,16.48,2.41c2.11-1.68,4.08-3.42,5.98-5.1c12.76-11.26,22.84-20.16,54.67,6.13
						c2.55,2.11,5.29,4.15,8.15,6.07c-0.06-0.23-0.12-0.46-0.16-0.69c-2.65-1.81-5.23-3.74-7.67-5.76
						c-32.16-26.56-42.38-17.54-55.32-6.12c-1.91,1.68-3.87,3.42-5.96,5.08c-6.75,5.36-10.76,1.94-15.84-2.4
						c-6.49-5.54-14.56-12.43-31.48,0.33C81.88,124.73,73.9,130.07,66.36,134.44z"/>
				</g>
				<g>
					<path d="M214.52,144.9l-148.41-0.53v1l149.23,0.53C215.06,145.58,214.78,145.24,214.52,144.9z"/>
					<path d="M215.88,146.15l-150.02-0.53v-1.5l0.25,0l148.53,0.53l0.08,0.1c0.26,0.34,0.54,0.67,0.81,0.99L215.88,146.15z
						 M66.36,145.12l148.44,0.53c-0.13-0.16-0.27-0.33-0.4-0.5l-148.03-0.52V145.12z"/>
				</g>
			</g>
			<g>
				<g>
					<g>
						<g>
							<g>
								<path d="M133.57,0.08c-0.36-0.1-0.73,0.06-0.92,0.38L64.13,120.18c0.54-0.13,1.09-0.2,1.65-0.2c0.11,0,0.22,0.01,0.33,0.02
									L132.54,3.94v308.1L6.38,224.37l28.97-50.62c-0.23-0.72-0.38-1.48-0.41-2.27c0-0.1,0-0.19,0-0.29L4.59,224.21
									c-0.21,0.37-0.1,0.83,0.24,1.07l128.06,88.98c0.14,0.1,0.3,0.15,0.47,0.15c0.13,0,0.26-0.03,0.38-0.09
									c0.27-0.14,0.44-0.42,0.44-0.72V0.87C134.17,0.5,133.93,0.18,133.57,0.08z"/>
							</g>
							<g>
								<path d="M35.07,208.74c-0.02-0.42-0.01-0.83,0-1.24L4.91,223.9c-0.4,0.22-0.54,0.71-0.33,1.11
									c0.15,0.27,0.43,0.43,0.72,0.43c0.13,0,0.27-0.03,0.39-0.1l29.43-16C35.11,209.13,35.08,208.94,35.07,208.74z"/>
								<path d="M134.08,154.6c-0.22-0.4-0.71-0.54-1.11-0.33l-63.83,34.7c0.02,0.26,0.06,0.51,0.07,0.77
									c0.02,0.35,0.02,0.7,0.01,1.05l64.53-35.08C134.14,155.49,134.29,155,134.08,154.6z"/>
							</g>
							<g>
								<path d="M132.54,383.43v62.28L3.84,256.25l128.7,85.96v49.76c0.54-0.22,1.08-0.42,1.63-0.59v-49.61
									c0-0.27-0.14-0.53-0.36-0.68L1.27,252.58c-0.32-0.22-0.76-0.17-1.03,0.1c-0.27,0.28-0.31,0.71-0.1,1.03l132.54,195.11
									c0.15,0.23,0.41,0.36,0.67,0.36c0.08,0,0.16-0.01,0.24-0.04c0.34-0.11,0.58-0.42,0.58-0.78V384
									C133.62,383.83,133.07,383.64,132.54,383.43z"/>
							</g>
							<g>
								<path d="M133.36,314.41c-0.13,0-0.26-0.03-0.38-0.09c-0.27-0.14-0.44-0.42-0.44-0.72V0.87c0-0.37,0.25-0.69,0.61-0.79
									c0.36-0.1,0.73,0.06,0.92,0.38l128.06,223.74c0.21,0.37,0.1,0.83-0.24,1.07l-128.06,88.98
									C133.68,314.36,133.52,314.41,133.36,314.41z M134.17,3.94v308.1l126.16-87.67L134.17,3.94z"/>
							</g>
							<g>
								<path d="M261.42,225.43c-0.13,0-0.26-0.03-0.39-0.1l-128.06-69.62c-0.4-0.22-0.54-0.71-0.33-1.11
									c0.22-0.4,0.71-0.54,1.11-0.33l128.06,69.62c0.4,0.22,0.54,0.71,0.33,1.11C261.99,225.28,261.71,225.43,261.42,225.43z"/>
							</g>
							<g>
								<path d="M266.48,252.68c-0.28-0.28-0.71-0.32-1.03-0.1L132.91,341.1c-0.23,0.15-0.36,0.41-0.36,0.68v50.2
									c0.54-0.19,1.08-0.35,1.63-0.49v-49.27l128.7-85.96l-128.7,189.45v-61.07c-0.55-0.13-1.1-0.28-1.63-0.46v64.18
									c0,0.36,0.23,0.67,0.58,0.78c0.08,0.02,0.16,0.04,0.24,0.04c0.27,0,0.52-0.13,0.67-0.36l132.54-195.11
									C266.8,253.39,266.76,252.96,266.48,252.68z"/>
							</g>
						</g>
						<g>
							<g>
								<g>
									<path d="M83.83,278.36h-1.79c-0.08,0-0.16-0.03-0.23-0.07l-33.02-22.95c-0.68-0.33-1.3-0.76-1.85-1.28l-26.72-18.57
										c-0.11-0.08-0.18-0.2-0.18-0.33v-5.53c0-0.23,0.18-0.41,0.41-0.41h63.39c0.23,0,0.41,0.18,0.41,0.41v48.33
										C84.24,278.18,84.06,278.36,83.83,278.36z M82.17,277.55h1.25v-47.52H20.86v4.91l26.58,18.46
										c0.02,0.01,0.03,0.03,0.05,0.04c0.5,0.48,1.07,0.88,1.69,1.17c0.02,0.01,0.04,0.02,0.06,0.03L82.17,277.55z"/>
								</g>
								<g>
									<path d="M86.68,230.03H17.61c-0.23,0-0.41-0.18-0.41-0.41v-6.47c0-0.23,0.18-0.41,0.41-0.41h69.07
										c0.23,0,0.41,0.18,0.41,0.41v6.47C87.09,229.85,86.91,230.03,86.68,230.03z M18.02,229.22h68.26v-5.65H18.02V229.22z"/>
								</g>
								<g>
									<path d="M69.23,223.56H35.06c-0.23,0-0.41-0.18-0.41-0.41v-64c0-0.23,0.18-0.41,0.41-0.41h34.17
										c0.23,0,0.41,0.18,0.41,0.41v64C69.64,223.38,69.46,223.56,69.23,223.56z M35.46,222.75h33.36v-63.18H35.46V222.75z"/>
								</g>
								<g>
									<path d="M73.13,159.57H31.15c-0.23,0-0.41-0.18-0.41-0.41v-6.22c0-0.23,0.18-0.41,0.41-0.41h41.98
										c0.23,0,0.41,0.18,0.41,0.41v6.22C73.54,159.38,73.36,159.57,73.13,159.57z M31.56,158.75h41.16v-5.4H31.56V158.75z"/>
								</g>
								<g>
									<path d="M66.11,153.35H38.18c-0.23,0-0.41-0.18-0.41-0.41v-27.09c0-0.23,0.18-0.41,0.41-0.41h27.93
										c0.23,0,0.41,0.18,0.41,0.41v27.09C66.52,153.17,66.33,153.35,66.11,153.35z M38.59,152.53H65.7v-26.28H38.59V152.53z"/>
								</g>
								<g>
									<path d="M60.34,153.35H43.95c-0.23,0-0.41-0.18-0.41-0.41v-27.09c0-0.23,0.18-0.41,0.41-0.41h16.39
										c0.23,0,0.41,0.18,0.41,0.41v27.09C60.75,153.17,60.56,153.35,60.34,153.35z M44.36,152.53h15.57v-26.28H44.36V152.53z"/>
								</g>
								<g>
									<path d="M68.7,126.26H35.59c-0.23,0-0.41-0.18-0.41-0.41v-5.77c0-0.23,0.18-0.41,0.41-0.41H68.7
										c0.23,0,0.41,0.18,0.41,0.41v5.77C69.11,126.07,68.93,126.26,68.7,126.26z M35.99,125.44h32.3v-4.95h-32.3V125.44z"/>
								</g>
								<g>
									<path d="M63.35,120.49H40.94c-0.23,0-0.41-0.18-0.41-0.41V97.67c0-0.23,0.18-0.41,0.41-0.41h22.41
										c0.23,0,0.41,0.18,0.41,0.41v22.41C63.76,120.3,63.57,120.49,63.35,120.49z M41.35,119.67h21.6v-21.6h-21.6V119.67z"/>
								</g>
								<g>
									<path d="M56.07,120.49h-7.86c-0.23,0-0.41-0.18-0.41-0.41V97.67c0-0.23,0.18-0.41,0.41-0.41h7.86
										c0.23,0,0.41,0.18,0.41,0.41v22.41C56.48,120.3,56.3,120.49,56.07,120.49z M48.62,119.67h7.05v-21.6h-7.05V119.67z"/>
								</g>
								<g>
									<path d="M63.35,98.07H40.94c-0.23,0-0.41-0.18-0.41-0.41c0-4.35,3.04-8.03,7.28-8.86V75.26c0-0.23,0.18-0.41,0.41-0.41
										h7.86c0.23,0,0.41,0.18,0.41,0.41V88.8c4.24,0.84,7.28,4.51,7.28,8.86C63.76,97.89,63.57,98.07,63.35,98.07z M41.36,97.26
										h21.58c-0.19-3.88-3.04-7.09-6.92-7.71c-0.2-0.03-0.34-0.2-0.34-0.4V75.66h-7.05v13.48c0,0.2-0.15,0.37-0.34,0.4
										C44.4,90.16,41.54,93.37,41.36,97.26z"/>
								</g>
								<g>
									<path d="M61.87,223.56H42.42c-0.23,0-0.41-0.18-0.41-0.41v-64c0-0.23,0.18-0.41,0.41-0.41h19.46
										c0.23,0,0.41,0.18,0.41,0.41v64C62.28,223.38,62.1,223.56,61.87,223.56z M42.82,222.75h18.64v-63.18H42.82V222.75z"/>
								</g>
								<g>
									<path d="M66,267.21c-0.08,0-0.16-0.02-0.23-0.07l-16.98-11.8c-0.68-0.33-1.3-0.76-1.85-1.28l-8.88-6.17
										c-0.11-0.08-0.18-0.2-0.18-0.33v-17.93c0-0.23,0.18-0.41,0.41-0.41H66c0.23,0,0.41,0.18,0.41,0.41v37.18
										c0,0.15-0.08,0.29-0.22,0.36C66.13,267.2,66.06,267.21,66,267.21z M38.7,247.34l8.73,6.07c0.02,0.01,0.03,0.03,0.05,0.04
										c0.5,0.48,1.07,0.88,1.69,1.17c0.02,0.01,0.04,0.02,0.06,0.03l16.36,11.37v-35.99H38.7V247.34z"/>
								</g>
							</g>
							<g>
								<path d="M56.07,75.66h-7.86c-0.13,0-0.25-0.06-0.33-0.17c-0.08-0.1-0.1-0.24-0.06-0.36l3.93-12.71
									c0.05-0.17,0.21-0.29,0.39-0.29c0.18,0,0.34,0.12,0.39,0.29l3.93,12.71c0.04,0.12,0.02,0.26-0.06,0.36
									C56.33,75.6,56.2,75.66,56.07,75.66z M48.77,74.85h6.75l-3.38-10.92L48.77,74.85z"/>
							</g>
							<g>
								<path d="M52.14,62.95c-0.23,0-0.41-0.18-0.41-0.41V47.83c0-0.23,0.18-0.41,0.41-0.41c0.23,0,0.41,0.18,0.41,0.41v14.72
									C52.55,62.77,52.37,62.95,52.14,62.95z"/>
							</g>
							<g>
								<path d="M52.14,256.12c-1.17,0-2.29-0.26-3.33-0.77c-0.7-0.33-1.33-0.78-1.9-1.32c-1.51-1.42-2.37-3.43-2.37-5.51
									c0-4.19,3.41-7.6,7.6-7.6c4.19,0,7.6,3.41,7.6,7.6S56.33,256.12,52.14,256.12z M52.14,241.74c-3.74,0-6.78,3.04-6.78,6.78
									c0,1.86,0.77,3.65,2.12,4.92c0.5,0.48,1.07,0.88,1.69,1.18c0.93,0.46,1.93,0.69,2.97,0.69c3.74,0,6.78-3.04,6.78-6.78
									C58.93,244.78,55.88,241.74,52.14,241.74z"/>
							</g>
							<g>
								<path d="M52.14,197.67c-3.59,0-6.51-2.92-6.51-6.51c0-3.59,2.92-6.51,6.51-6.51c3.59,0,6.51,2.92,6.51,6.51
									C58.66,194.75,55.73,197.67,52.14,197.67z M52.14,185.46c-3.14,0-5.7,2.56-5.7,5.7s2.56,5.7,5.7,5.7s5.7-2.56,5.7-5.7
									S55.29,185.46,52.14,185.46z"/>
							</g>
							<g>
								<path d="M52.14,197.67c-3.59,0-6.51-2.92-6.51-6.51c0-3.59,2.92-6.51,6.51-6.51c3.59,0,6.51,2.92,6.51,6.51
									C58.66,194.75,55.73,197.67,52.14,197.67z M52.14,185.46c-3.14,0-5.7,2.56-5.7,5.7s2.56,5.7,5.7,5.7s5.7-2.56,5.7-5.7
									S55.29,185.46,52.14,185.46z"/>
							</g>
							<g>
								<path d="M35.06,223.56H24.7c-0.11,0-0.22-0.05-0.29-0.13c-0.08-0.08-0.12-0.19-0.11-0.3c0.24-5.78,4.96-10.46,10.75-10.65
									c0.11-0.01,0.22,0.04,0.3,0.11c0.08,0.08,0.12,0.18,0.12,0.29v10.26C35.46,223.38,35.28,223.56,35.06,223.56z M25.14,222.75
									h9.51v-9.42C29.62,213.7,25.56,217.73,25.14,222.75z"/>
							</g>
							<g>
								<path d="M79.25,223.56H68.9c-0.23,0-0.41-0.18-0.41-0.41V212.9c0-0.11,0.04-0.22,0.12-0.29c0.08-0.08,0.18-0.12,0.3-0.11
									c5.78,0.19,10.51,4.87,10.75,10.65c0,0.11-0.04,0.22-0.11,0.3C79.47,223.52,79.36,223.56,79.25,223.56z M69.3,222.75h9.51
									c-0.42-5.02-4.49-9.05-9.51-9.42V222.75z"/>
							</g>
							<g>
								<path d="M52.14,144.74c-2.95,0-5.34-2.4-5.34-5.34s2.4-5.34,5.34-5.34c2.95,0,5.34,2.4,5.34,5.34S55.09,144.74,52.14,144.74
									z M52.14,134.87c-2.5,0-4.53,2.03-4.53,4.53s2.03,4.53,4.53,4.53s4.53-2.03,4.53-4.53S54.64,134.87,52.14,134.87z"/>
							</g>
						</g>
						<g>
							<path d="M100.98,237.47c-0.63,0-1.25,0.21-1.75,0.58c-0.83-1.36-2.32-2.21-3.92-2.21c-0.95,0-1.88,0.3-2.65,0.85
								c-1.22-1.39-2.96-2.18-4.82-2.18c-1.33,0-2.57,0.41-3.59,1.1v1.02c0.97-0.82,2.23-1.31,3.59-1.31c1.74,0,3.36,0.8,4.43,2.18
								c0.07,0.09,0.17,0.14,0.28,0.16c0.11,0.01,0.22-0.02,0.31-0.1c0.68-0.58,1.55-0.91,2.45-0.91c1.47,0,2.82,0.87,3.44,2.21
								c0.06,0.12,0.17,0.21,0.31,0.23c0.13,0.02,0.27-0.02,0.36-0.12c0.41-0.44,0.97-0.68,1.57-0.68c1.19,0,2.15,0.97,2.15,2.15
								c0,1.19-0.97,2.15-2.15,2.15c-0.6,0-1.16-0.24-1.57-0.68c-0.09-0.1-0.23-0.15-0.36-0.12c-0.13,0.02-0.25,0.11-0.31,0.23
								c-0.62,1.34-1.96,2.21-3.44,2.21c-0.73,0-1.44-0.21-2.06-0.61c-0.09-0.06-0.21-0.08-0.32-0.05c-0.11,0.03-0.2,0.09-0.26,0.19
								c-1,1.72-2.86,2.79-4.84,2.79c-1.37,0-2.62-0.49-3.59-1.31v1.02c1.03,0.7,2.26,1.1,3.59,1.1c2.13,0,4.14-1.08,5.33-2.84
								c0.66,0.35,1.39,0.53,2.14,0.53c1.61,0,3.09-0.85,3.92-2.21c0.51,0.37,1.12,0.58,1.75,0.58c1.64,0,2.97-1.33,2.97-2.97
								C103.95,238.8,102.62,237.47,100.98,237.47z"/>
						</g>
						<g>
							<path d="M150.53,169.03c-0.63,0-1.25,0.21-1.75,0.58c-0.83-1.36-2.32-2.21-3.92-2.21c-0.95,0-1.88,0.3-2.65,0.85
								c-1.22-1.39-2.96-2.18-4.82-2.18c-1.33,0-2.57,0.41-3.59,1.1v1.02c0.97-0.82,2.23-1.31,3.59-1.31c1.74,0,3.36,0.8,4.43,2.18
								c0.07,0.09,0.17,0.14,0.28,0.16c0.11,0.01,0.22-0.02,0.31-0.1c0.68-0.58,1.55-0.91,2.45-0.91c1.47,0,2.82,0.87,3.44,2.21
								c0.06,0.12,0.17,0.21,0.31,0.23c0.13,0.02,0.27-0.02,0.36-0.12c0.41-0.44,0.97-0.68,1.57-0.68c1.19,0,2.15,0.97,2.15,2.15
								c0,1.19-0.97,2.15-2.15,2.15c-0.6,0-1.16-0.24-1.57-0.68c-0.09-0.1-0.23-0.15-0.36-0.12c-0.13,0.02-0.25,0.11-0.31,0.23
								c-0.62,1.34-1.96,2.21-3.44,2.21c-0.73,0-1.44-0.21-2.06-0.61c-0.09-0.06-0.21-0.08-0.32-0.05c-0.11,0.03-0.2,0.09-0.26,0.19
								c-1,1.72-2.86,2.79-4.84,2.79c-1.37,0-2.62-0.49-3.59-1.31v1.02c1.03,0.7,2.26,1.1,3.59,1.1c2.13,0,4.14-1.08,5.33-2.84
								c0.66,0.35,1.39,0.53,2.14,0.53c1.61,0,3.09-0.85,3.92-2.21c0.51,0.37,1.12,0.58,1.75,0.58c1.64,0,2.97-1.33,2.97-2.97
								C153.5,170.36,152.17,169.03,150.53,169.03z"/>
						</g>
						<g>
							<path d="M116.86,285.33c0.63,0,1.25-0.21,1.75-0.58c0.83,1.36,2.32,2.21,3.92,2.21c0.95,0,1.88-0.3,2.65-0.85
								c1.22,1.39,2.96,2.18,4.82,2.18c1.33,0,2.57-0.41,3.59-1.1v-1.02c-0.97,0.82-2.23,1.31-3.59,1.31c-1.74,0-3.36-0.8-4.43-2.18
								c-0.07-0.09-0.17-0.14-0.28-0.16c-0.11-0.01-0.22,0.02-0.31,0.1c-0.68,0.58-1.55,0.91-2.45,0.91c-1.47,0-2.82-0.87-3.44-2.21
								c-0.06-0.12-0.17-0.21-0.31-0.23c-0.13-0.02-0.27,0.02-0.36,0.12c-0.41,0.44-0.97,0.68-1.57,0.68
								c-1.19,0-2.15-0.97-2.15-2.15c0-1.19,0.97-2.15,2.15-2.15c0.6,0,1.16,0.24,1.57,0.68c0.09,0.1,0.23,0.15,0.36,0.12
								c0.13-0.02,0.25-0.11,0.31-0.23c0.62-1.34,1.96-2.21,3.44-2.21c0.73,0,1.44,0.21,2.06,0.61c0.09,0.06,0.21,0.08,0.32,0.05
								c0.11-0.03,0.2-0.09,0.26-0.19c1-1.72,2.86-2.79,4.84-2.79c1.37,0,2.62,0.49,3.59,1.31v-1.02c-1.03-0.7-2.26-1.1-3.59-1.1
								c-2.13,0-4.14,1.08-5.33,2.84c-0.66-0.35-1.39-0.53-2.14-0.53c-1.61,0-3.09,0.85-3.92,2.21c-0.51-0.37-1.12-0.58-1.75-0.58
								c-1.64,0-2.97,1.33-2.97,2.97C113.9,284,115.23,285.33,116.86,285.33z"/>
						</g>
						<g>
							<path d="M109.22,264.77c-0.02,0-0.04,0-0.06-0.01c-0.18-0.03-0.32-0.17-0.34-0.35c-0.1-0.81-0.41-1.33-0.94-1.61
								c-1.42-0.76-3.96,0.49-3.98,0.5c-0.2,0.1-0.45,0.02-0.55-0.18c-0.1-0.2-0.02-0.45,0.18-0.55c0.12-0.06,2.93-1.44,4.73-0.49
								c0.52,0.27,0.89,0.71,1.13,1.29c0.41-0.5,1.07-1.11,2.03-1.4c1.34-0.41,2.87-0.09,4.54,0.94c0.19,0.12,0.25,0.37,0.13,0.56
								c-0.12,0.19-0.37,0.25-0.56,0.13c-1.46-0.9-2.76-1.19-3.87-0.86c-1.43,0.43-2.07,1.77-2.07,1.79
								C109.53,264.68,109.38,264.77,109.22,264.77z"/>
						</g>
						<g>
							<path d="M116.44,226.37c-0.02,0-0.04,0-0.06,0c-0.18-0.03-0.32-0.17-0.34-0.35c-0.05-0.4-0.2-0.66-0.45-0.79
								c-0.61-0.32-1.76,0.11-2.12,0.29c-0.2,0.1-0.45,0.02-0.55-0.18c-0.1-0.2-0.02-0.45,0.18-0.55c0.18-0.09,1.78-0.86,2.87-0.28
								c0.2,0.11,0.43,0.28,0.61,0.58c0.25-0.26,0.6-0.52,1.07-0.66c0.82-0.25,1.74-0.06,2.74,0.56c0.19,0.12,0.25,0.37,0.13,0.56
								c-0.12,0.19-0.37,0.25-0.56,0.13c-0.79-0.49-1.49-0.65-2.08-0.47c-0.73,0.22-1.07,0.92-1.07,0.93
								C116.74,226.28,116.6,226.37,116.44,226.37z"/>
						</g>
						<g>
							<path d="M191.85,198.98c-0.02,0-0.04,0-0.06,0c-0.18-0.03-0.32-0.17-0.34-0.35c-0.05-0.4-0.2-0.66-0.45-0.79
								c-0.61-0.32-1.76,0.11-2.12,0.29c-0.2,0.1-0.45,0.02-0.55-0.18c-0.1-0.2-0.02-0.45,0.18-0.55c0.18-0.09,1.78-0.86,2.87-0.28
								c0.2,0.11,0.43,0.28,0.61,0.58c0.25-0.26,0.6-0.52,1.07-0.66c0.82-0.25,1.74-0.06,2.74,0.56c0.19,0.12,0.25,0.37,0.13,0.56
								c-0.12,0.19-0.37,0.25-0.56,0.13c-0.79-0.49-1.49-0.65-2.08-0.47c-0.73,0.22-1.07,0.92-1.07,0.93
								C192.15,198.88,192.01,198.98,191.85,198.98z"/>
						</g>
						<g>
							<g>
								<path d="M144.24,278.42h-6.99c-0.29,0-0.52,0.23-0.52,0.52v3.81h-3.37v1.05h3.89c0.29,0,0.52-0.23,0.52-0.52v-3.81h5.94
									v13.5h-10.35v1.05h10.88c0.29,0,0.52-0.23,0.52-0.52v-14.54C144.76,278.65,144.52,278.42,144.24,278.42z"/>
							</g>
							<g>
								<path d="M145.07,204.12h-7.48c-0.29,0-0.52,0.23-0.52,0.52v3.88h-3.71v1.05h4.23c0.29,0,0.52-0.23,0.52-0.52v-3.88h6.44
									v9.04l-4.79,13.97c-0.02,0.05-0.03,0.11-0.03,0.17v50.08h-2.14c-0.29,0-0.52,0.23-0.52,0.52v3.81h-3.71v1.05h4.23
									c0.29,0,0.52-0.23,0.52-0.52v-3.81h2.14c0.29,0,0.52-0.23,0.52-0.52v-50.52l4.79-13.97c0.02-0.05,0.03-0.11,0.03-0.17v-9.65
									C145.6,204.35,145.36,204.12,145.07,204.12z"/>
							</g>
							<g>
								<path d="M140.25,226.97L140.25,226.97c-2.25,0.03-4.56,0.05-6.89,0.06v1.05c2.33-0.01,4.65-0.03,6.9-0.06
									c0.29,0,0.52-0.24,0.52-0.53C140.77,227.2,140.54,226.97,140.25,226.97z"/>
							</g>
							<g>
								<path d="M145.07,214.39c-3.83,0.05-7.76,0.08-11.71,0.08v1.05c3.95-0.01,7.89-0.03,11.72-0.08c0.29,0,0.52-0.24,0.52-0.53
									C145.59,214.62,145.36,214.4,145.07,214.39z"/>
							</g>
							<g>
								<path d="M141.02,205.16c-0.29,0-0.52-0.23-0.52-0.52v-3.84c0-0.21,0.13-0.4,0.32-0.48l21.49-8.95v-12.79
									c0-0.29,0.23-0.52,0.52-0.52c0.29,0,0.52,0.23,0.52,0.52v13.14c0,0.21-0.13,0.4-0.32,0.48l-21.49,8.95v3.5
									C141.54,204.93,141.31,205.16,141.02,205.16z"/>
							</g>
							<g>
								<path d="M212.42,209.04v-3.88h5.39v9.67l-4.17,12.5c-0.02,0.05-0.03,0.11-0.03,0.17v29.66c0.34-0.19,0.69-0.34,1.05-0.49
									v-29.08l4.17-12.5c0.02-0.05,0.03-0.11,0.03-0.17v-10.28c0-0.29-0.23-0.52-0.52-0.52h-6.43c-0.29,0-0.52,0.23-0.52,0.52
									v3.88h-7.76v-3.88c0-0.29-0.23-0.52-0.52-0.52h-6.22c-0.29,0-0.52,0.23-0.52,0.52v3.88h-7.76v-3.88
									c0-0.29-0.23-0.52-0.52-0.52h-7.48c-0.29,0-0.52,0.23-0.52,0.52v9.65c0,0.06,0.01,0.11,0.03,0.17l4.79,13.97v49.11
									c0.34-0.01,0.69-0.01,1.05-0.01v-49.19c0-0.06-0.01-0.11-0.03-0.17l-4.79-13.97v-9.04h6.44v3.88c0,0.29,0.23,0.52,0.52,0.52
									h8.8c0.29,0,0.52-0.23,0.52-0.52v-3.88h5.17v3.88c0,0.29,0.23,0.52,0.52,0.52h8.81
									C212.19,209.57,212.42,209.33,212.42,209.04z"/>
							</g>
							<g>
								<path d="M214.14,228.02h-28.73c-0.29,0-0.52-0.23-0.52-0.52s0.23-0.52,0.52-0.52h28.73c0.29,0,0.52,0.23,0.52,0.52
									S214.43,228.02,214.14,228.02z"/>
							</g>
							<g>
								<path d="M218.33,215.44h-37.75c-0.29,0-0.52-0.23-0.52-0.52s0.23-0.52,0.52-0.52h37.75c0.29,0,0.52,0.23,0.52,0.52
									S218.62,215.44,218.33,215.44z"/>
							</g>
							<g>
								<path d="M184.64,205.16c-0.29,0-0.52-0.23-0.52-0.52v-3.5l-21.49-8.95c-0.19-0.08-0.32-0.27-0.32-0.48v-13.14
									c0-0.29,0.23-0.52,0.52-0.52c0.29,0,0.52,0.23,0.52,0.52v12.79l21.49,8.95c0.19,0.08,0.32,0.27,0.32,0.48v3.84
									C185.16,204.93,184.93,205.16,184.64,205.16z"/>
							</g>
							<g>
								<path d="M200.3,241.65c-0.29,0-0.52-0.23-0.52-0.52v-4.68c0-0.29,0.23-0.52,0.52-0.52s0.52,0.23,0.52,0.52v4.68
									C200.82,241.42,200.59,241.65,200.3,241.65z"/>
							</g>
							<g>
								<path d="M200.3,257.38c-0.29,0-0.52-0.23-0.52-0.52v-4.68c0-0.29,0.23-0.52,0.52-0.52s0.52,0.23,0.52,0.52v4.68
									C200.82,257.15,200.59,257.38,200.3,257.38z"/>
							</g>
							<g>
								<path d="M182.4,215.44h-37.33c-0.29,0-0.52-0.23-0.52-0.52s0.23-0.52,0.52-0.52h37.33c0.29,0,0.52,0.23,0.52,0.52
									S182.69,215.44,182.4,215.44z"/>
							</g>
							<g>
								<path d="M185.97,228.02h-47.39c-0.29,0-0.52-0.23-0.52-0.52s0.23-0.52,0.52-0.52h47.39c0.29,0,0.52,0.23,0.52,0.52
									S186.26,228.02,185.97,228.02z"/>
							</g>
							<g>
								<path d="M170.45,258.43h-14.47c-0.29,0-0.52-0.23-0.52-0.52v-13.73c0-2.78,2.26-5.03,5.03-5.03h5.45
									c2.78,0,5.03,2.26,5.03,5.03v13.73C170.97,258.19,170.74,258.43,170.45,258.43z M156.5,257.38h13.42v-13.21
									c0-2.2-1.79-3.99-3.99-3.99h-5.45c-2.2,0-3.99,1.79-3.99,3.99V257.38z"/>
							</g>
							<g>
								<path d="M163.82,292.97h-6.7v-13.21c0-2.2,1.79-3.99,3.99-3.99h5.45c2.2,0,3.99,1.79,3.99,3.99v8.1
									c0.34-0.22,0.69-0.43,1.05-0.64v-7.46c0-2.78-2.26-5.03-5.03-5.03h-5.45c-2.78,0-5.03,2.26-5.03,5.03v13.73
									c0,0.29,0.23,0.52,0.52,0.52h6.04C163.02,293.66,163.42,293.32,163.82,292.97z"/>
							</g>
							<g>
								<path d="M241.19,238.09c0.34-0.2,0.69-0.35,1.05-0.45v-16.1c0-0.14-0.06-0.28-0.16-0.38c-0.1-0.1-0.24-0.16-0.38-0.14
									l-9.65,0.42c-0.28,0.01-0.5,0.24-0.5,0.52v5.01h-7.13v-5.01c0-0.29-0.23-0.52-0.52-0.52h-7.9c-0.29,0-0.52,0.23-0.52,0.52
									s0.23,0.52,0.52,0.52h7.38v5.01c0,0.29,0.23,0.52,0.52,0.52h8.18c0.29,0,0.52-0.23,0.52-0.52v-5.03l8.6-0.37V238.09z"/>
							</g>
							<g>
								<path d="M241.71,235.81h-27.57c-0.29,0-0.52-0.23-0.52-0.52s0.23-0.52,0.52-0.52h27.57c0.29,0,0.52,0.23,0.52,0.52
									S242,235.81,241.71,235.81z"/>
							</g>
							<g>
								<path d="M223.66,247.56c-0.29,0-0.52-0.23-0.52-0.52v-4.68c0-0.29,0.23-0.52,0.52-0.52c0.29,0,0.52,0.23,0.52,0.52v4.68
									C224.18,247.32,223.95,247.56,223.66,247.56z"/>
							</g>
							<g>
								<path d="M163.83,292.97h-25.25c-0.29,0-0.52,0.23-0.52,0.52c0,0.29,0.23,0.52,0.52,0.52h24.07
									C163.03,293.65,163.43,293.31,163.83,292.97z"/>
							</g>
						</g>
						<g>
							<path d="M133.19,207.91H69.64c-0.23,0-0.41-0.18-0.41-0.41c0-0.23,0.18-0.41,0.41-0.41h63.56c0.23,0,0.41,0.18,0.41,0.41
								C133.6,207.73,133.42,207.91,133.19,207.91z"/>
						</g>
						<g>
							<path d="M133.19,201.65H69.64c-0.23,0-0.41-0.18-0.41-0.41s0.18-0.41,0.41-0.41h63.56c0.23,0,0.41,0.18,0.41,0.41
								S133.42,201.65,133.19,201.65z"/>
						</g>
						<g>
							<path d="M133.19,195.39H69.64c-0.23,0-0.41-0.18-0.41-0.41c0-0.23,0.18-0.41,0.41-0.41h63.56c0.23,0,0.41,0.18,0.41,0.41
								C133.6,195.21,133.42,195.39,133.19,195.39z"/>
						</g>
						<g>
							<path d="M137.07,310.92h-2.98c-0.23,0-0.41,0.18-0.41,0.41c0,0.23,0.18,0.41,0.41,0.41h2.43
								C136.69,311.44,136.87,311.17,137.07,310.92z"/>
						</g>
						<g>
							<path d="M133.19,188.31H71.67c-0.38,0.31-0.77,0.58-1.18,0.82h62.71c0.23,0,0.41-0.18,0.41-0.41
								C133.6,188.5,133.42,188.31,133.19,188.31z"/>
						</g>
						<g>
							<path d="M133.19,182.05H85.26c-0.84,0.28-1.69,0.55-2.54,0.82h50.47c0.23,0,0.41-0.18,0.41-0.41
								C133.6,182.24,133.42,182.05,133.19,182.05z"/>
						</g>
						<g>
							<path d="M133.19,175.79H95.67c-0.29,0.28-0.59,0.55-0.88,0.82h38.41c0.23,0,0.41-0.18,0.41-0.41
								C133.6,175.98,133.42,175.79,133.19,175.79z"/>
						</g>
						<g>
							<path d="M133.19,169.53h-27.42c-0.33,0.18-0.65,0.36-0.97,0.55c-0.15,0.09-0.3,0.18-0.45,0.26h28.85
								c0.23,0,0.41-0.18,0.41-0.41C133.6,169.72,133.42,169.53,133.19,169.53z"/>
						</g>
						<g>
							<path d="M133.19,163.27h-14.22c-0.32,0.29-0.65,0.56-0.98,0.82h15.2c0.23,0,0.41-0.18,0.41-0.41S133.42,163.27,133.19,163.27
								z"/>
						</g>
					</g>
				</g>
				<g>
					<path class="st6" d="M25.16,465.45l21.13,29.61v-29.61h1.8v31.79h-2.76l-20.64-28.91v28.91h-1.8v-31.79H25.16z"/>
					<path class="st6" d="M81.13,497.24h-1.8v-3.98c-0.35,0.46-0.72,0.91-1.12,1.33c-2.13,2.14-4.71,3.21-7.73,3.21
						c-3,0-5.56-1.07-7.7-3.2c-2.14-2.14-3.2-4.7-3.2-7.7c0-3.03,1.07-5.6,3.2-7.73c2.14-2.13,4.7-3.19,7.7-3.19
						c3.03,0,5.6,1.06,7.73,3.19c0.4,0.42,0.78,0.86,1.12,1.33v-2.76h1.8V497.24z M79.33,488.65v-3.53
						c-0.33-1.75-1.15-3.29-2.47-4.61c-1.77-1.77-3.9-2.65-6.38-2.65c-2.49,0-4.61,0.88-6.37,2.65c-1.76,1.77-2.64,3.9-2.64,6.38
						c0,2.49,0.88,4.61,2.64,6.36c1.76,1.75,3.88,2.63,6.37,2.63c2.49,0,4.62-0.88,6.38-2.65C78.18,491.92,79,490.39,79.33,488.65z"
						/>
					<path class="st6" d="M92.56,477.72h1.8v2.74c0.33-0.45,0.7-0.88,1.12-1.3c2.13-2.11,4.7-3.17,7.71-3.17
						c3.01,0,5.58,1.06,7.71,3.18c2.13,2.12,3.19,4.7,3.19,7.72c0,3-1.06,5.56-3.19,7.7c-2.13,2.14-4.7,3.2-7.71,3.2
						c-3.01,0-5.58-1.07-7.71-3.21c-0.42-0.42-0.79-0.85-1.12-1.3v11.4h-1.8V477.72z M94.36,485.03v3.73
						c0.33,1.71,1.15,3.21,2.45,4.5c1.77,1.77,3.9,2.65,6.38,2.65s4.61-0.88,6.37-2.64c1.76-1.76,2.64-3.89,2.64-6.37
						c0-2.49-0.88-4.62-2.64-6.38c-1.76-1.77-3.89-2.65-6.37-2.65s-4.62,0.88-6.38,2.65C95.51,481.81,94.69,483.32,94.36,485.03z"/>
					<path class="st6" d="M132.82,497.51c-2.44,0-4.38-0.72-5.82-2.16c-1.44-1.44-2.18-3.26-2.22-5.46V477.7h1.8v12.03
						c0,1.65,0.6,3.06,1.8,4.23c1.18,1.18,2.66,1.78,4.43,1.78c1.65,0,3.07-0.59,4.26-1.76c1.19-1.18,1.79-2.59,1.79-4.24V477.7h1.8
						v12.18c-0.04,2.2-0.79,4.02-2.22,5.46C136.98,496.79,135.11,497.51,132.82,497.51z"/>
					<path class="st6" d="M154.24,465.45v31.79h-1.8v-31.79H154.24z"/>
					<path class="st6" d="M167.55,494.47c0.35,0.34,0.53,0.76,0.53,1.26c0,0.49-0.18,0.91-0.53,1.26c-0.35,0.34-0.77,0.52-1.25,0.52
						c-0.49,0-0.92-0.17-1.27-0.52c-0.35-0.34-0.53-0.76-0.53-1.26c0-0.49,0.18-0.91,0.53-1.26c0.35-0.34,0.78-0.52,1.27-0.52
						C166.78,493.95,167.2,494.13,167.55,494.47z"/>
					<path class="st6" d="M195.09,465.45v1.8H181v13.2h14.09v1.8H181v13.2h14.09v1.8H179.2v-31.79H195.09z"/>
					<path class="st6" d="M215.52,467.25v29.99h-1.78v-29.99h-8.05v-1.8h17.87v1.8H215.52z"/>
					<path class="st6" d="M235.56,482.24v14.99h-1.8v-31.79h1.8v14.99h16.28v-14.99h1.8v31.79h-1.8v-14.99H235.56z"/>
				</g>
			</g>
			<g>
				<path d="M150.53,81.19c-0.63,0-1.25,0.21-1.75,0.58c-0.83-1.36-2.32-2.21-3.92-2.21c-0.95,0-1.88,0.3-2.65,0.85
					c-1.22-1.39-2.96-2.18-4.82-2.18c-1.33,0-2.57,0.41-3.59,1.1v1.02c0.97-0.82,2.23-1.31,3.59-1.31c1.74,0,3.36,0.8,4.43,2.18
					c0.07,0.09,0.17,0.14,0.28,0.16c0.11,0.01,0.22-0.02,0.31-0.1c0.68-0.58,1.55-0.91,2.45-0.91c1.47,0,2.82,0.87,3.44,2.21
					c0.06,0.12,0.17,0.21,0.31,0.23c0.13,0.02,0.27-0.02,0.36-0.12c0.41-0.44,0.97-0.68,1.57-0.68c1.19,0,2.15,0.97,2.15,2.15
					c0,1.19-0.97,2.15-2.15,2.15c-0.6,0-1.16-0.24-1.57-0.68c-0.09-0.1-0.23-0.15-0.36-0.12c-0.13,0.02-0.25,0.11-0.31,0.23
					c-0.62,1.34-1.96,2.21-3.44,2.21c-0.73,0-1.44-0.21-2.06-0.61c-0.09-0.06-0.21-0.08-0.32-0.05c-0.11,0.03-0.2,0.09-0.26,0.19
					c-1,1.72-2.86,2.79-4.84,2.79c-1.37,0-2.62-0.49-3.59-1.31v1.02c1.03,0.7,2.26,1.1,3.59,1.1c2.13,0,4.14-1.08,5.33-2.84
					c0.66,0.35,1.39,0.53,2.14,0.53c1.61,0,3.09-0.85,3.92-2.21c0.51,0.37,1.12,0.58,1.75,0.58c1.64,0,2.97-1.33,2.97-2.97
					C153.5,82.52,152.17,81.19,150.53,81.19z"/>
			</g>
			<g>
				<path d="M116.62,50.87c0.63,0,1.25-0.21,1.75-0.58c0.83,1.36,2.32,2.21,3.92,2.21c0.95,0,1.88-0.3,2.65-0.85
					c1.22,1.39,2.96,2.18,4.82,2.18c1.33,0,2.57-0.41,3.59-1.1v-1.02c-0.97,0.82-2.23,1.31-3.59,1.31c-1.74,0-3.36-0.8-4.43-2.18
					c-0.07-0.09-0.17-0.14-0.28-0.16c-0.11-0.01-0.22,0.02-0.31,0.1c-0.68,0.58-1.55,0.91-2.45,0.91c-1.47,0-2.82-0.87-3.44-2.21
					c-0.06-0.12-0.17-0.21-0.31-0.23c-0.13-0.02-0.27,0.02-0.36,0.12c-0.41,0.44-0.97,0.68-1.57,0.68c-1.19,0-2.15-0.97-2.15-2.15
					c0-1.19,0.97-2.15,2.15-2.15c0.6,0,1.16,0.24,1.57,0.68c0.09,0.1,0.23,0.15,0.36,0.12c0.13-0.02,0.25-0.11,0.31-0.23
					c0.62-1.34,1.96-2.21,3.44-2.21c0.73,0,1.44,0.21,2.06,0.61c0.09,0.06,0.21,0.08,0.32,0.05c0.11-0.03,0.2-0.09,0.26-0.19
					c1-1.72,2.86-2.79,4.84-2.79c1.37,0,2.62,0.49,3.59,1.31V42.1c-1.03-0.7-2.26-1.1-3.59-1.1c-2.13,0-4.14,1.08-5.33,2.84
					c-0.66-0.35-1.39-0.53-2.14-0.53c-1.61,0-3.09,0.85-3.92,2.21c-0.51-0.37-1.12-0.58-1.75-0.58c-1.64,0-2.97,1.33-2.97,2.97
					C113.65,49.54,114.99,50.87,116.62,50.87z"/>
			</g>
			<g>
				<path d="M102.22,97.26c-0.02,0-0.04,0-0.06-0.01c-0.18-0.03-0.32-0.17-0.34-0.35c-0.1-0.81-0.41-1.33-0.94-1.61
					c-1.42-0.76-3.96,0.49-3.98,0.5c-0.2,0.1-0.45,0.02-0.55-0.18c-0.1-0.2-0.02-0.45,0.18-0.55c0.12-0.06,2.93-1.44,4.73-0.49
					c0.52,0.27,0.89,0.71,1.13,1.29c0.41-0.5,1.07-1.11,2.03-1.4c1.34-0.41,2.87-0.09,4.54,0.94c0.19,0.12,0.25,0.37,0.13,0.56
					c-0.12,0.19-0.37,0.25-0.56,0.13c-1.46-0.9-2.76-1.19-3.87-0.86c-1.43,0.43-2.07,1.77-2.07,1.78
					C102.53,97.17,102.38,97.26,102.22,97.26z"/>
			</g>
			<g>
				<path d="M151.28,59.41c-0.01,0-0.03,0-0.04,0c-0.12-0.02-0.21-0.11-0.22-0.23c-0.07-0.52-0.27-0.87-0.61-1.05
					c-0.92-0.49-2.57,0.32-2.59,0.32c-0.13,0.07-0.29,0.01-0.36-0.12c-0.07-0.13-0.01-0.29,0.12-0.36c0.08-0.04,1.91-0.94,3.07-0.32
					c0.34,0.18,0.58,0.46,0.73,0.84c0.27-0.33,0.7-0.72,1.32-0.91c0.87-0.26,1.86-0.06,2.95,0.61c0.12,0.08,0.16,0.24,0.09,0.36
					c-0.08,0.12-0.24,0.16-0.36,0.09c-0.95-0.58-1.79-0.77-2.51-0.56c-0.93,0.28-1.34,1.15-1.35,1.16
					C151.47,59.35,151.38,59.41,151.28,59.41z"/>
			</g>
			<g>
				<path d="M114.53,72.67c-0.01,0-0.03,0-0.04,0c-0.12-0.02-0.21-0.11-0.22-0.23c-0.07-0.52-0.27-0.87-0.61-1.05
					c-0.92-0.49-2.57,0.32-2.59,0.32c-0.13,0.07-0.29,0.01-0.36-0.12c-0.07-0.13-0.01-0.29,0.12-0.36c0.08-0.04,1.91-0.94,3.07-0.32
					c0.34,0.18,0.58,0.46,0.73,0.84c0.27-0.33,0.7-0.72,1.32-0.91c0.87-0.26,1.86-0.06,2.95,0.61c0.12,0.08,0.16,0.24,0.09,0.36
					c-0.08,0.12-0.24,0.16-0.36,0.09c-0.95-0.58-1.79-0.77-2.51-0.56c-0.93,0.28-1.34,1.15-1.35,1.16
					C114.73,72.61,114.64,72.67,114.53,72.67z"/>
			</g>
			<g>
				<path d="M216.2,145.06h-81.59v0.82h82.02C216.46,145.61,216.32,145.33,216.2,145.06z"/>
			</g>
		</g>
		<path d="M148.3,427.81h-14.77v0.82h14.16C147.89,428.36,148.09,428.09,148.3,427.81z"/>
		<path d="M151.9,421.55h-18.38v0.82h17.69C151.44,422.09,151.67,421.82,151.9,421.55z"/>
		<path d="M156.61,415.29h-23.09v0.82h22.63C156.31,415.84,156.47,415.57,156.61,415.29z"/>
		<path d="M159.79,409.03h-26.27v0.82h25.77C159.45,409.57,159.63,409.3,159.79,409.03z"/>
		<path d="M148.3,427.81h-14.77v0.82h14.16C147.89,428.36,148.09,428.09,148.3,427.81z"/>
		<path d="M138.37,440.34h-4.84v0.82h4.28C137.99,440.88,138.18,440.61,138.37,440.34z"/>
		<path d="M143.31,434.07h-9.79v0.82h9.1C142.86,434.62,143.09,434.35,143.31,434.07z"/>
		<path d="M148.3,427.81h-14.77v0.82h14.16C147.89,428.36,148.09,428.09,148.3,427.81z"/>
		<g>
			<path d="M109.85,413.56v-8.52h-1.3v6.83C109.06,412.34,109.5,412.91,109.85,413.56z"/>
			<path d="M119.85,427.46v-22.43h-1.3v21.3C119.04,426.6,119.49,426.97,119.85,427.46z"/>
			<path d="M128.64,441.71c0.41,0.45,0.82,0.92,1.21,1.41v-38.08h-1.3v36.58C128.58,441.65,128.62,441.67,128.64,441.71z"/>
			<path d="M130.26,443.61v-38.57h-0.82v37.57C129.72,442.93,129.99,443.26,130.26,443.61z"/>
		</g>
		<g>
			<path d="M231.55,279.45c-0.63,0-1.25,0.21-1.75,0.58c-0.42-0.68-1-1.23-1.68-1.61c-0.2,0.21-0.41,0.41-0.64,0.59
				c0.79,0.37,1.45,1.02,1.83,1.84c0.06,0.12,0.17,0.21,0.31,0.23c0.13,0.02,0.27-0.02,0.36-0.12c0.41-0.44,0.97-0.68,1.57-0.68
				c1.19,0,2.15,0.97,2.15,2.15c0,1.19-0.97,2.15-2.15,2.15c-0.6,0-1.16-0.24-1.57-0.68c-0.09-0.1-0.23-0.15-0.36-0.12
				c-0.13,0.02-0.25,0.11-0.31,0.23c-0.62,1.34-1.96,2.21-3.44,2.21c-0.9,0-1.77-0.32-2.45-0.91c-0.08-0.07-0.19-0.1-0.31-0.1
				c-0.11,0.01-0.21,0.07-0.28,0.16c-1.07,1.39-2.69,2.18-4.43,2.18c-1.37,0-2.62-0.49-3.59-1.31v1.02c1.03,0.7,2.26,1.1,3.59,1.1
				c1.86,0,3.59-0.79,4.82-2.18c0.77,0.55,1.7,0.85,2.65,0.85c1.61,0,3.09-0.85,3.92-2.21c0.51,0.37,1.12,0.58,1.75,0.58
				c1.64,0,2.97-1.33,2.97-2.97C234.52,280.78,233.19,279.45,231.55,279.45z"/>
		</g>
		<g>
			<path d="M209.44,337.21c-0.95-0.48-1.77-1.22-2.32-2.17c-0.06-0.1-0.15-0.17-0.26-0.19c-0.11-0.03-0.22-0.01-0.32,0.05
				c-0.61,0.4-1.33,0.61-2.06,0.61c-1.47,0-2.82-0.87-3.44-2.21c-0.06-0.12-0.17-0.21-0.31-0.23c-0.13-0.02-0.27,0.02-0.36,0.12
				c-0.41,0.44-0.97,0.68-1.57,0.68c-1.19,0-2.15-0.97-2.15-2.15c0-1.19,0.97-2.15,2.15-2.15c0.6,0,1.16,0.24,1.57,0.68
				c0.09,0.1,0.23,0.15,0.36,0.12c0.13-0.02,0.25-0.11,0.31-0.23c0.62-1.34,1.96-2.21,3.44-2.21c0.9,0,1.77,0.32,2.45,0.91
				c0.08,0.07,0.19,0.1,0.31,0.1c0.11-0.01,0.21-0.07,0.28-0.16c1.07-1.39,2.69-2.18,4.43-2.18c1.37,0,2.62,0.49,3.59,1.31v-1.02
				c-1.03-0.7-2.26-1.1-3.59-1.1c-1.86,0-3.59,0.79-4.82,2.18c-0.77-0.55-1.7-0.85-2.65-0.85c-1.61,0-3.09,0.85-3.92,2.21
				c-0.51-0.37-1.12-0.58-1.75-0.58c-1.64,0-2.97,1.33-2.97,2.97c0,1.64,1.33,2.97,2.97,2.97c0.63,0,1.25-0.21,1.75-0.58
				c0.83,1.36,2.32,2.21,3.92,2.21c0.75,0,1.48-0.18,2.14-0.53c0.61,0.9,1.43,1.62,2.38,2.11
				C209.13,337.67,209.27,337.44,209.44,337.21z"/>
		</g>
		<g>
			<path d="M33.99,279.97c-0.63,0-1.25,0.21-1.75,0.58c-0.83-1.36-2.32-2.21-3.92-2.21c-0.75,0-1.48,0.18-2.14,0.53
				c-1.19-1.76-3.19-2.84-5.33-2.84c-1.33,0-2.57,0.41-3.59,1.1v1.02c0.97-0.82,2.23-1.31,3.59-1.31c1.98,0,3.83,1.07,4.84,2.79
				c0.06,0.1,0.15,0.17,0.26,0.19c0.11,0.03,0.22,0.01,0.32-0.05c0.61-0.4,1.33-0.61,2.06-0.61c1.47,0,2.82,0.87,3.44,2.21
				c0.06,0.12,0.17,0.21,0.31,0.23c0.13,0.02,0.27-0.02,0.36-0.12c0.41-0.44,0.97-0.68,1.57-0.68c1.19,0,2.15,0.97,2.15,2.15
				c0,1.19-0.97,2.15-2.15,2.15c-0.6,0-1.16-0.24-1.57-0.68c-0.09-0.1-0.23-0.15-0.36-0.12c-0.13,0.02-0.25,0.11-0.31,0.23
				c-0.62,1.34-1.96,2.21-3.44,2.21c-0.9,0-1.77-0.32-2.45-0.91c-0.08-0.07-0.19-0.1-0.31-0.1c-0.11,0.01-0.21,0.07-0.28,0.16
				c-0.37,0.48-0.81,0.88-1.3,1.21c0.18,0.2,0.34,0.41,0.5,0.65c0.43-0.3,0.83-0.64,1.18-1.05c0.77,0.55,1.7,0.85,2.65,0.85
				c1.61,0,3.09-0.85,3.92-2.21c0.51,0.37,1.12,0.58,1.75,0.58c1.64,0,2.97-1.33,2.97-2.97C36.96,281.3,35.63,279.97,33.99,279.97z"
				/>
		</g>
		<g>
			<path d="M114.89,329.63c-0.87,0.56-1.89,0.89-3,0.89c-1.98,0-3.83-1.07-4.84-2.79c-0.06-0.1-0.15-0.17-0.26-0.19
				c-0.11-0.03-0.22-0.01-0.32,0.05c-0.61,0.4-1.33,0.61-2.06,0.61c-1.47,0-2.82-0.87-3.44-2.21c-0.06-0.12-0.17-0.21-0.31-0.23
				c-0.13-0.02-0.27,0.02-0.36,0.12c-0.41,0.44-0.97,0.68-1.57,0.68c-1.19,0-2.15-0.97-2.15-2.15c0-1.19,0.97-2.15,2.15-2.15
				c0.6,0,1.16,0.24,1.57,0.68c0.09,0.1,0.23,0.15,0.36,0.12c0.13-0.02,0.25-0.11,0.31-0.23c0.31-0.68,0.82-1.24,1.43-1.63
				c-0.25-0.15-0.49-0.32-0.7-0.51c-0.48,0.35-0.9,0.8-1.22,1.32c-0.51-0.37-1.12-0.58-1.75-0.58c-1.64,0-2.97,1.33-2.97,2.97
				c0,1.64,1.33,2.97,2.97,2.97c0.63,0,1.25-0.21,1.75-0.58c0.83,1.36,2.31,2.21,3.92,2.21c0.75,0,1.48-0.18,2.14-0.53
				c1.19,1.76,3.19,2.84,5.33,2.84c1.33,0,2.57-0.41,3.59-1.1C115.27,330.05,115.07,329.84,114.89,329.63z"/>
		</g>
		<g>
			<path d="M178.69,326.12c-0.02,0-0.04,0-0.06-0.01c-0.18-0.03-0.32-0.17-0.34-0.35c-0.1-0.81-0.41-1.33-0.94-1.61
				c-1.42-0.76-3.96,0.49-3.98,0.5c-0.2,0.1-0.45,0.02-0.55-0.18c-0.1-0.2-0.02-0.45,0.18-0.55c0.12-0.06,2.93-1.44,4.73-0.49
				c0.52,0.27,0.89,0.71,1.13,1.29c0.41-0.5,1.07-1.11,2.03-1.4c1.34-0.41,2.87-0.09,4.54,0.94c0.19,0.12,0.25,0.37,0.13,0.56
				c-0.12,0.19-0.37,0.25-0.56,0.13c-1.46-0.9-2.76-1.19-3.87-0.86c-1.43,0.43-2.07,1.77-2.07,1.79
				C178.99,326.03,178.84,326.12,178.69,326.12z"/>
		</g>
		<g>
			<path d="M211.03,308.52c-0.02,0-0.04,0-0.06-0.01c-0.18-0.03-0.32-0.17-0.34-0.35c-0.1-0.81-0.41-1.33-0.94-1.61
				c-1.42-0.76-3.96,0.49-3.98,0.5c-0.2,0.1-0.45,0.02-0.55-0.18c-0.1-0.2-0.02-0.45,0.18-0.55c0.12-0.06,2.93-1.44,4.73-0.49
				c0.52,0.27,0.89,0.71,1.13,1.29c0.41-0.5,1.07-1.11,2.03-1.4c1.34-0.41,2.87-0.09,4.54,0.94c0.19,0.12,0.25,0.37,0.13,0.56
				c-0.12,0.19-0.37,0.25-0.56,0.13c-1.46-0.9-2.76-1.19-3.87-0.86c-1.43,0.43-2.07,1.77-2.07,1.79
				C211.33,308.43,211.19,308.52,211.03,308.52z"/>
		</g>
		<g>
			<path d="M47.44,303.09c-0.02,0-0.04,0-0.06-0.01c-0.18-0.03-0.32-0.17-0.34-0.35c-0.1-0.81-0.41-1.33-0.94-1.61
				c-1.42-0.76-3.96,0.49-3.98,0.5c-0.2,0.1-0.45,0.02-0.55-0.18c-0.1-0.2-0.02-0.45,0.18-0.55c0.12-0.06,2.93-1.44,4.73-0.49
				c0.52,0.27,0.89,0.71,1.13,1.29c0.41-0.5,1.07-1.11,2.03-1.4c1.34-0.41,2.87-0.09,4.54,0.94c0.19,0.12,0.25,0.37,0.13,0.56
				c-0.12,0.19-0.37,0.25-0.56,0.13c-1.46-0.9-2.76-1.19-3.87-0.86c-1.43,0.43-2.07,1.77-2.07,1.78
				C47.74,302.99,47.59,303.09,47.44,303.09z"/>
		</g>
		<g>
			<g>
				<path d="M157.94,374.71c-0.09,0-0.15,0-0.17,0c-0.28,0-0.5-0.23-0.49-0.51s0.21-0.49,0.51-0.49c0.1,0,9.65,0.09,15.07-3.75
					c2.39-1.69,3.85-7.65,3.55-14.48c-0.29-6.59-2.34-14.64-7.22-17.48c-8.75-5.1-14.43,0.68-14.48,0.74
					c-0.04,0.04-0.08,0.07-0.13,0.1c-4.56,2.43-5.17,8.6-5.58,12.69c-0.14,1.36-0.24,2.44-0.47,3.15c-0.85,2.64-0.9,6.9-0.14,11.39
					c0.78,4.58-1.51,5.29-3.02,5.75c-0.17,0.05-0.34,0.1-0.5,0.16c-0.25,0.09-0.4,0.22-0.49,0.42c-0.23,0.52,0.02,1.34,0.14,1.62
					c0.11,0.25-0.01,0.55-0.26,0.66c-0.25,0.11-0.55-0.01-0.66-0.26c-0.06-0.14-0.58-1.41-0.13-2.41c0.2-0.46,0.58-0.79,1.08-0.97
					c0.17-0.06,0.35-0.11,0.53-0.17c1.52-0.47,2.96-0.91,2.33-4.63c-0.8-4.71-0.74-9.04,0.17-11.87c0.19-0.6,0.3-1.69,0.43-2.94
					c0.43-4.28,1.08-10.74,6.04-13.44c0.67-0.65,6.72-6.04,15.65-0.85c5.22,3.04,7.41,11.45,7.71,18.3
					c0.27,6.05-0.86,13.14-3.97,15.34C168.08,374.55,159.32,374.71,157.94,374.71z"/>
			</g>
			<g>
				<path d="M154.42,362.97c-0.67,0-1.41-0.14-2.09-0.55c-1.29-0.8-2.01-2.39-2.13-4.73c-0.01-0.28,0.2-0.51,0.47-0.52
					c0.3-0.02,0.51,0.2,0.52,0.47c0.1,1.99,0.66,3.31,1.65,3.92c1.02,0.63,2.32,0.39,2.98,0.19c-0.58-1.58-1.63-3.56-2.48-3.73
					c-0.78-0.16-1.42-0.78-1.75-1.71c-0.65-1.76-0.1-4.01,1.46-6.02c2.43-3.13,1.23-8.1,1.21-8.15c-0.07-0.27,0.1-0.54,0.36-0.61
					c0.26-0.07,0.54,0.1,0.61,0.36c0.06,0.22,1.33,5.49-1.39,9c-1.59,2.05-1.72,3.96-1.31,5.06c0.22,0.59,0.59,0.98,1.02,1.07
					c1.84,0.38,3.15,4.12,3.39,4.86c0.08,0.24-0.04,0.51-0.27,0.61C156.6,362.55,155.62,362.97,154.42,362.97z"/>
			</g>
			<g>
				<path d="M160.76,362.95c-1.92,0-3.56-0.66-3.66-0.7c-0.15-0.06-0.26-0.19-0.3-0.34c-0.95-3.79,0.82-5.02,2.24-6.01
					c1.25-0.86,2.07-1.44,1.35-3.49c-1.85-5.26,2.15-11.18,2.32-11.43c0.16-0.23,0.47-0.29,0.69-0.13c0.23,0.16,0.29,0.47,0.13,0.69
					c-0.04,0.06-3.88,5.76-2.21,10.53c0.97,2.77-0.46,3.76-1.72,4.64c-1.31,0.91-2.55,1.77-1.9,4.69c0.76,0.26,3.25,0.99,5.22,0.13
					c1.04-0.45,1.8-1.28,2.26-2.47c0.1-0.26,0.39-0.38,0.65-0.29c0.26,0.1,0.39,0.39,0.29,0.65c-0.56,1.45-1.5,2.48-2.8,3.03
					C162.49,362.82,161.6,362.95,160.76,362.95z"/>
			</g>
			<g>
				<path d="M159.33,369.23c-0.21,0-0.42,0-0.65-0.01c-2.7-0.07-4.73-0.86-6.01-2.34c-1.7-1.96-1.45-4.39-1.44-4.49
					c0.02-0.18,0.13-0.33,0.3-0.4c0.16-0.07,0.35-0.05,0.5,0.06c0.23,0.17,5.79,4.18,13.33-1.42c0.22-0.16,0.54-0.12,0.7,0.1
					c0.17,0.22,0.12,0.54-0.1,0.7c-6.47,4.79-11.76,2.91-13.72,1.9c0.07,0.76,0.33,1.92,1.19,2.9c1.09,1.25,2.87,1.92,5.28,1.98
					c4.52,0.13,5.23-0.99,6.21-2.53c0.64-1,1.36-2.13,3.09-3.16c4.33-2.57,5.51-5.47,5.24-12.93c-0.01-0.28,0.21-0.51,0.48-0.52
					c0.26-0.03,0.51,0.21,0.52,0.48c0.28,7.82-1.06,11.06-5.73,13.83c-1.53,0.91-2.16,1.89-2.76,2.84
					C164.74,367.83,163.85,369.23,159.33,369.23z"/>
			</g>
			<g>
				<path d="M152.73,347.54c-0.61,0-1.35-0.13-2.22-0.49c-0.13-0.05-0.22-0.15-0.27-0.28c-0.05-0.13-0.05-0.27,0.01-0.39
					c0.08-0.19,0.88-1.85,2.27-1.96c0.88-0.08,1.73,0.5,2.53,1.69c0.13,0.19,0.11,0.44-0.05,0.61
					C154.96,346.77,154.23,347.54,152.73,347.54z M151.43,346.32c1.28,0.41,2.09,0.17,2.51-0.05c-0.37-0.47-0.82-0.91-1.33-0.86
					C152.13,345.45,151.7,345.92,151.43,346.32z"/>
			</g>
			<g>
				<path d="M164.73,347.54c-1.49,0-2.22-0.78-2.27-0.82c-0.15-0.17-0.17-0.42-0.05-0.61c0.79-1.19,1.65-1.77,2.53-1.69
					c1.4,0.11,2.19,1.78,2.27,1.96c0.06,0.12,0.06,0.26,0.01,0.39c-0.05,0.13-0.15,0.23-0.27,0.28
					C166.08,347.41,165.34,347.54,164.73,347.54z M163.53,346.27c0.41,0.22,1.22,0.46,2.51,0.05c-0.27-0.41-0.7-0.87-1.17-0.91
					C164.36,345.37,163.9,345.8,163.53,346.27z"/>
			</g>
			<g>
				<path d="M133.19,378.07c0.37-0.38,0.77-0.75,1.19-1.12c5.3-4.5,19.43-1.2,30.78,1.45c2.79,0.65,5.43,1.27,7.8,1.74
					c0.26,0.05,0.53-0.12,0.59-0.39c0.05-0.27-0.12-0.53-0.39-0.59c-2.36-0.47-4.99-1.09-7.77-1.74
					c-12.17-2.84-25.97-6.06-31.66-1.24c-0.19,0.16-0.37,0.33-0.55,0.49V378.07z"/>
				<path d="M171.61,391.87c-5.31-0.02-11.45-1.73-16.12-4.11c-0.98-0.5-1.88-0.97-2.72-1.4c-8.44-4.35-10.71-5.53-19.2-4
					c-0.18,0.03-0.31,0.16-0.37,0.31v0.53c0.05,0.4,0.1,1.22,0,2.12v2.98c1.18-1.64,1.11-4.02,1.01-5.05
					c7.77-1.34,9.85-0.27,18.1,3.99c0.84,0.43,1.75,0.9,2.73,1.4c4.72,2.41,10.92,4.14,16.37,4.2
					C171.45,392.51,171.52,392.19,171.61,391.87z"/>
				<path d="M186.72,369.76c2.03-6.3,4.36-11.31,4.4-11.4c0.12-0.25,0.01-0.55-0.24-0.67c-0.25-0.12-0.55-0.01-0.67,0.24
					c-0.05,0.1-2.94,6.31-5.11,13.66C185.54,370.76,186.09,370.15,186.72,369.76z"/>
			</g>
			<g>
				<path d="M174.51,380.37c-0.22,0-0.42-0.15-0.48-0.37c-0.07-0.27,0.09-0.54,0.35-0.61c0.02-0.01,2.31-0.65,3.17-2.48
					c0.52-1.1,0.44-2.44-0.26-3.99c-1.6-3.55,0.94-5.48,2.97-7.02c1.45-1.1,2.71-2.06,2.4-3.33c-0.95-4,1.08-5.87,4.75-8.82
					c0.5-0.4,0.72-0.85,0.68-1.37c-0.16-2.14-4.37-5.03-5.97-5.96c-0.24-0.14-0.32-0.44-0.18-0.68c0.14-0.24,0.45-0.32,0.68-0.18
					c0.64,0.37,6.24,3.7,6.47,6.75c0.07,0.87-0.29,1.62-1.05,2.23c-3.82,3.06-5.19,4.53-4.41,7.81c0.45,1.91-1.19,3.15-2.77,4.36
					c-2.02,1.54-3.93,2.99-2.66,5.82c0.82,1.82,0.9,3.45,0.25,4.83c-1.07,2.25-3.7,2.98-3.82,3.01
					C174.6,380.36,174.55,380.37,174.51,380.37z"/>
			</g>
			<g>
				<path d="M176.58,352.36c-0.25,0-0.46-0.18-0.49-0.43c-0.04-0.27,0.15-0.53,0.42-0.56c2.01-0.28,4.4-2.78,5.45-5.68
					c0.53-1.48,1.15-4.26-0.74-6.34c-3.53-3.89-10.26-0.5-10.33-0.46c-0.24,0.13-0.55,0.03-0.67-0.22
					c-0.13-0.25-0.03-0.55,0.22-0.67c0.3-0.16,7.48-3.77,11.53,0.68c1.63,1.8,1.98,4.48,0.94,7.35c-1.18,3.27-3.87,6-6.25,6.33
					C176.62,352.36,176.6,352.36,176.58,352.36z"/>
			</g>
			<g>
				<path d="M148.57,351.22c-0.16,0-0.32-0.08-0.42-0.22c-0.17-0.25-4.06-6.22-0.98-10.56c3.08-4.35,7.87-3.09,7.92-3.07
					c0.27,0.07,0.42,0.35,0.35,0.61c-0.07,0.27-0.34,0.42-0.61,0.35c-0.17-0.05-4.17-1.08-6.84,2.69c-2.68,3.79,0.96,9.38,1,9.43
					c0.15,0.23,0.09,0.54-0.14,0.69C148.76,351.19,148.67,351.22,148.57,351.22z"/>
			</g>
			<g>
				<path d="M175.79,348.28c-0.17,0-0.34-0.09-0.43-0.25c-0.14-0.24-0.06-0.54,0.18-0.68c1.06-0.62,3.74-2.59,3.36-4.32
					c-0.07-0.3-0.23-0.51-0.5-0.67c-1.16-0.68-3.78-0.12-4.7,0.15c-0.26,0.08-0.54-0.07-0.62-0.34c-0.08-0.26,0.07-0.54,0.34-0.62
					c0.38-0.11,3.75-1.08,5.49-0.06c0.52,0.3,0.84,0.75,0.97,1.32c0.62,2.8-3.65,5.3-3.83,5.4
					C175.96,348.26,175.87,348.28,175.79,348.28z"/>
			</g>
			<g>
				<path d="M197.12,354.61c-6.66-3.72-12.71-7.91-12.81-7.98c-0.23-0.16-0.54-0.1-0.7,0.13c-0.16,0.23-0.1,0.54,0.13,0.7
					c0.4,0.28,6.27,4.34,12.8,7.99C196.71,355.15,196.91,354.87,197.12,354.61z"/>
			</g>
			<g>
				<path d="M147.77,383.89c-0.25-0.01-0.52,0.18-0.54,0.46c-0.23,2.94-0.97,4.8-2.14,5.37c-1.17,0.57-2.5-0.31-2.51-0.32
					c-0.18-0.12-0.43-0.11-0.59,0.03c-2.29,1.86-3.57,0.64-3.61,0.59c-0.15-0.16-0.38-0.2-0.58-0.11c-1.21,0.57-2.15,0.65-2.79,0.24
					c-1.22-0.79-1.18-3.13-1.18-3.16c0.01-0.28-0.21-0.51-0.49-0.51c-0.05,0-0.1,0.01-0.14,0.03v2.75c0.24,0.66,0.63,1.31,1.26,1.73
					c0.9,0.58,2.07,0.57,3.49-0.04c0.32,0.22,0.9,0.51,1.69,0.51c0.73,0,1.65-0.25,2.71-1.03c0.59,0.31,1.89,0.82,3.18,0.21
					c1.54-0.74,2.45-2.82,2.71-6.19C148.25,384.15,148.05,383.91,147.77,383.89z"/>
			</g>
			<g>
				<path d="M171.91,390.99l-38.72-0.36v1l38.38,0.36C171.66,391.64,171.78,391.31,171.91,390.99z"/>
			</g>
		</g>
		<g>
			<g>
				<path d="M218.28,150.62c-0.42,0.27-0.81,0.55-1.19,0.84c-1.22,0.91-2.36,1.77-4.69,1.77c-2.33,0-3.48-0.86-4.7-1.77
					c-1.29-0.97-2.63-1.97-5.29-1.97c-2.67,0-4,1-5.3,1.97c-1.22,0.91-2.36,1.77-4.7,1.77s-3.48-0.86-4.7-1.77
					c-1.29-0.97-2.63-1.97-5.29-1.97c-2.67,0-4,1-5.3,1.97c-1.22,0.91-2.37,1.77-4.7,1.77s-3.48-0.86-4.7-1.77
					c-1.29-0.97-2.63-1.97-5.29-1.97s-4,1-5.29,1.97c-1.22,0.91-2.36,1.77-4.7,1.77s-3.48-0.86-4.7-1.77
					c-1.29-0.97-2.63-1.97-5.29-1.97s-4,1-5.29,1.97c-1.22,0.91-2.37,1.77-4.7,1.77c-2.33,0-3.48-0.86-4.69-1.77
					c-1.29-0.97-2.63-1.97-5.3-1.97c-2.66,0-4,1-5.29,1.97c-1.22,0.91-2.36,1.77-4.69,1.77c-2.33,0-3.48-0.86-4.69-1.77
					c-1.29-0.97-2.63-1.97-5.29-1.97c-2.66,0-4,1-5.29,1.97c-1.22,0.91-2.36,1.77-4.69,1.77s-3.48-0.86-4.69-1.77
					c-1.29-0.97-2.63-1.97-5.29-1.97c-2.66,0-4,1-5.29,1.97c-1.09,0.82-2.12,1.59-3.99,1.74v1c2.2-0.16,3.42-1.06,4.59-1.94
					c1.22-0.91,2.36-1.77,4.69-1.77c2.33,0,3.48,0.86,4.69,1.77c1.29,0.97,2.63,1.97,5.29,1.97s4-1,5.29-1.97
					c1.22-0.91,2.36-1.77,4.69-1.77c2.33,0,3.48,0.86,4.69,1.77c1.29,0.97,2.63,1.97,5.29,1.97c2.66,0,4-1,5.29-1.97
					c1.22-0.91,2.36-1.77,4.69-1.77c2.33,0,3.48,0.86,4.69,1.77c1.29,0.97,2.63,1.97,5.29,1.97c2.67,0,4-1,5.3-1.97
					c1.22-0.91,2.36-1.77,4.7-1.77s3.48,0.86,4.7,1.77c1.29,0.97,2.63,1.97,5.29,1.97s4-1,5.29-1.97c1.22-0.91,2.36-1.77,4.7-1.77
					s3.48,0.86,4.7,1.77c1.29,0.97,2.63,1.97,5.3,1.97s4-1,5.3-1.97c1.22-0.91,2.37-1.77,4.7-1.77c2.33,0,3.48,0.86,4.7,1.77
					c1.29,0.97,2.63,1.97,5.3,1.97c2.66,0,4-1,5.29-1.97c1.22-0.91,2.37-1.77,4.7-1.77s3.48,0.86,4.7,1.77
					c1.29,0.97,2.63,1.97,5.29,1.97s4-1,5.29-1.97c0.38-0.28,0.75-0.56,1.15-0.8C218.65,151.18,218.47,150.9,218.28,150.62z"/>
			</g>
			<g>
				<path d="M122.47,159.55c-2.66,0-4,1-5.29,1.97c-1.22,0.91-2.36,1.77-4.69,1.77c-2.33,0-3.48-0.86-4.69-1.77
					c-1.29-0.97-2.63-1.97-5.29-1.97c-2.66,0-4,1-5.29,1.97c-1.22,0.91-2.36,1.77-4.69,1.77s-3.48-0.86-4.69-1.77
					c-1.29-0.97-2.63-1.97-5.29-1.97c-2.66,0-4,1-5.29,1.97c-1.22,0.91-2.36,1.77-4.69,1.77c-1.32,0-2.26-0.28-3.05-0.69v1.11
					c0.81,0.35,1.78,0.58,3.05,0.58c2.66,0,4-1,5.29-1.97c1.22-0.91,2.36-1.77,4.69-1.77c2.33,0,3.48,0.86,4.69,1.77
					c1.29,0.97,2.63,1.97,5.29,1.97s4-1,5.29-1.97c1.22-0.91,2.36-1.77,4.69-1.77c2.33,0,3.48,0.86,4.69,1.77
					c1.29,0.97,2.63,1.97,5.29,1.97c2.66,0,4-1,5.29-1.97c1.22-0.91,2.36-1.77,4.69-1.77c0.14,0,0.27,0.01,0.4,0.02
					c0.29-0.33,0.59-0.64,0.93-0.91C123.39,159.59,122.96,159.55,122.47,159.55z"/>
				<path d="M224.26,159.75c-0.55-0.12-1.16-0.2-1.88-0.2c-2.66,0-4,1-5.29,1.97c-1.22,0.91-2.36,1.77-4.69,1.77
					c-2.33,0-3.48-0.86-4.7-1.77c-1.29-0.97-2.63-1.97-5.29-1.97c-2.67,0-4,1-5.3,1.97c-1.22,0.91-2.36,1.77-4.7,1.77
					s-3.48-0.86-4.7-1.77c-1.29-0.97-2.63-1.97-5.29-1.97c-2.67,0-4,1-5.3,1.97c-1.22,0.91-2.37,1.77-4.7,1.77s-3.48-0.86-4.7-1.77
					c-1.29-0.97-2.63-1.97-5.29-1.97s-4,1-5.29,1.97c-1.22,0.91-2.36,1.77-4.7,1.77s-3.48-0.86-4.7-1.77
					c-1.24-0.93-2.53-1.88-4.97-1.96c0.55,0.4,1.09,0.82,1.63,1.24c1.13,0.32,1.92,0.9,2.74,1.52c1.29,0.97,2.63,1.97,5.29,1.97
					s4-1,5.29-1.97c1.22-0.91,2.36-1.77,4.7-1.77s3.48,0.86,4.7,1.77c1.29,0.97,2.63,1.97,5.3,1.97s4-1,5.3-1.97
					c1.22-0.91,2.37-1.77,4.7-1.77c2.33,0,3.48,0.86,4.7,1.77c1.29,0.97,2.63,1.97,5.3,1.97c2.66,0,4-1,5.29-1.97
					c1.22-0.91,2.37-1.77,4.7-1.77s3.48,0.86,4.7,1.77c1.29,0.97,2.63,1.97,5.29,1.97s4-1,5.29-1.97c1.22-0.91,2.36-1.77,4.7-1.77
					c1.14,0,1.99,0.21,2.72,0.53C224.82,160.63,224.54,160.19,224.26,159.75z"/>
			</g>
			<g>
				<path d="M232.6,173.35c-0.08,0-0.15,0.01-0.23,0.01c-2.33,0-3.48-0.86-4.7-1.77c-1.29-0.97-2.63-1.97-5.3-1.97
					c-2.66,0-4,1-5.29,1.97c-1.22,0.91-2.36,1.77-4.69,1.77c-2.33,0-3.48-0.86-4.7-1.77c-1.29-0.97-2.63-1.97-5.29-1.97
					c-2.67,0-4,1-5.3,1.97c-1.22,0.91-2.36,1.77-4.7,1.77s-3.48-0.86-4.7-1.77c-1.29-0.97-2.63-1.97-5.29-1.97c-2.67,0-4,1-5.3,1.97
					c-1.22,0.91-2.37,1.77-4.7,1.77s-3.48-0.86-4.7-1.77c-1.29-0.97-2.63-1.97-5.29-1.97c-1.03,0-1.86,0.15-2.57,0.39
					c0.55,0.22,1.11,0.44,1.66,0.66c0.28-0.03,0.58-0.05,0.91-0.05c2.33,0,3.48,0.86,4.7,1.77c1.29,0.97,2.63,1.97,5.3,1.97
					s4-1,5.3-1.97c1.22-0.91,2.37-1.77,4.7-1.77c2.33,0,3.48,0.86,4.7,1.77c1.29,0.97,2.63,1.97,5.3,1.97c2.66,0,4-1,5.29-1.97
					c1.22-0.91,2.37-1.77,4.7-1.77s3.48,0.86,4.7,1.77c1.29,0.97,2.63,1.97,5.29,1.97s4-1,5.29-1.97c1.22-0.91,2.36-1.77,4.7-1.77
					s3.48,0.86,4.7,1.77c1.29,0.97,2.63,1.97,5.3,1.97c0.28,0,0.54-0.02,0.8-0.04C232.98,174,232.79,173.68,232.6,173.35z"/>
				<path d="M102.5,169.61c-2.66,0-4,1-5.29,1.97c-1.22,0.91-2.36,1.77-4.69,1.77s-3.48-0.86-4.69-1.77
					c-1.29-0.97-2.63-1.97-5.29-1.97c-2.66,0-4,1-5.29,1.97c-1.22,0.91-2.36,1.77-4.69,1.77c-1.39,0-2.36-0.31-3.18-0.75v1.12
					c0.83,0.38,1.84,0.63,3.18,0.63c2.66,0,4-1,5.29-1.97c1.22-0.91,2.36-1.77,4.69-1.77c2.33,0,3.48,0.86,4.69,1.77
					c1.29,0.97,2.63,1.97,5.29,1.97s4-1,5.29-1.97c1.22-0.91,2.36-1.77,4.69-1.77c0.51,0,0.96,0.05,1.38,0.12
					c0.37-0.26,0.74-0.52,1.12-0.76C104.3,169.76,103.49,169.61,102.5,169.61z"/>
			</g>
			<g>
				<path d="M237.33,181.46c-0.09,0.07-0.18,0.13-0.26,0.2c-1.22,0.91-2.37,1.77-4.7,1.77c-2.33,0-3.48-0.86-4.7-1.77
					c-1.29-0.97-2.63-1.97-5.3-1.97c-2.66,0-4,1-5.29,1.97c-1.22,0.91-2.36,1.77-4.69,1.77c-2.33,0-3.48-0.86-4.7-1.77
					c-1.29-0.97-2.63-1.97-5.29-1.97c-2.67,0-4,1-5.3,1.97c-1.22,0.91-2.36,1.77-4.7,1.77s-3.48-0.86-4.7-1.77
					c-1.29-0.97-2.63-1.97-5.29-1.97c-0.83,0-1.51,0.1-2.12,0.27c0.45,0.24,0.88,0.5,1.29,0.77c0.26-0.03,0.54-0.04,0.83-0.04
					c2.33,0,3.48,0.86,4.7,1.77c1.29,0.97,2.63,1.97,5.3,1.97c2.66,0,4-1,5.29-1.97c1.22-0.91,2.37-1.77,4.7-1.77
					s3.48,0.86,4.7,1.77c1.29,0.97,2.63,1.97,5.29,1.97s4-1,5.29-1.97c1.22-0.91,2.36-1.77,4.7-1.77s3.48,0.86,4.7,1.77
					c1.29,0.97,2.63,1.97,5.3,1.97c2.67,0,4-1,5.3-1.97c0.05-0.04,0.11-0.08,0.16-0.12C237.67,182.04,237.5,181.75,237.33,181.46z"
					/>
				<path d="M35.11,182.97c-0.68,0.27-1.49,0.45-2.53,0.45c-1.6,0-2.64-0.41-3.53-0.96c-0.09,0.35-0.2,0.67-0.31,0.98
					c0.96,0.56,2.12,0.98,3.84,0.98c1.01,0,1.83-0.15,2.53-0.38V182.97z"/>
				<path d="M82.52,179.68c-2.66,0-4,1-5.29,1.97c-1.22,0.91-2.36,1.77-4.69,1.77c-1.39,0-2.36-0.31-3.18-0.75v1.12
					c0.83,0.38,1.84,0.63,3.18,0.63c2.66,0,4-1,5.29-1.97c1.22-0.91,2.36-1.77,4.69-1.77c1.21,0,2.09,0.23,2.84,0.58
					c0.25-0.25,0.5-0.5,0.76-0.74C85.21,180.04,84.1,179.68,82.52,179.68z"/>
			</g>
			<g>
				<path d="M35.11,193.04c-0.68,0.27-1.49,0.45-2.53,0.45c-2.33,0-3.48-0.86-4.69-1.77c-0.91-0.68-1.86-1.37-3.27-1.72
					c-0.16,0.31-0.33,0.62-0.5,0.93c1.35,0.29,2.25,0.92,3.16,1.6c1.29,0.97,2.63,1.97,5.29,1.97c1.01,0,1.83-0.15,2.53-0.38V193.04
					z"/>
				<path d="M241.24,189.82c-1.94,0.24-3.08,1.07-4.18,1.9c-1.22,0.91-2.37,1.77-4.7,1.77c-2.33,0-3.48-0.86-4.7-1.77
					c-1.29-0.97-2.63-1.97-5.3-1.97c-2.66,0-4,1-5.29,1.97c-1.22,0.91-2.36,1.77-4.69,1.77c-2.33,0-3.48-0.86-4.7-1.77
					c-1.29-0.97-2.63-1.97-5.29-1.97c-1.26,0-2.21,0.23-3.02,0.57c0.33,0.23,0.64,0.47,0.95,0.73c0.58-0.18,1.25-0.29,2.07-0.29
					c2.33,0,3.48,0.86,4.7,1.77c1.29,0.97,2.63,1.97,5.29,1.97s4-1,5.29-1.97c1.22-0.91,2.36-1.77,4.7-1.77s3.48,0.86,4.7,1.77
					c1.29,0.97,2.63,1.97,5.3,1.97c2.67,0,4-1,5.3-1.97c1.11-0.83,2.17-1.61,4.1-1.75C241.57,190.46,241.4,190.15,241.24,189.82z"/>
			</g>
			<g>
				<path d="M35.11,203.1c-0.68,0.27-1.49,0.45-2.53,0.45c-2.33,0-3.48-0.86-4.69-1.77c-1.29-0.97-2.63-1.97-5.29-1.97
					c-1.89,0-3.11,0.51-4.12,1.15c-0.21,0.41-0.42,0.82-0.62,1.23c-0.11,0.22-0.21,0.45-0.32,0.67c0.12-0.09,0.25-0.18,0.37-0.27
					c1.22-0.91,2.36-1.77,4.69-1.77s3.48,0.86,4.69,1.77c1.29,0.97,2.63,1.97,5.29,1.97c1.01,0,1.83-0.15,2.53-0.38V203.1z"/>
				<path d="M249.39,202.91c-0.64-0.32-1.18-0.71-1.72-1.13c-1.29-0.97-2.63-1.97-5.3-1.97c-2.67,0-4,1-5.3,1.97
					c-1.22,0.91-2.37,1.77-4.7,1.77c-2.33,0-3.48-0.86-4.7-1.77c-1.29-0.97-2.63-1.97-5.3-1.97c-2.17,0-3.46,0.67-4.56,1.44
					c0.3,0.21,0.6,0.41,0.9,0.6c0.92-0.59,1.98-1.04,3.66-1.04c2.33,0,3.48,0.86,4.7,1.77c1.29,0.97,2.63,1.97,5.3,1.97
					c2.67,0,4-1,5.3-1.97c1.22-0.91,2.37-1.77,4.7-1.77c2.33,0,3.48,0.86,4.7,1.77c0.79,0.59,1.6,1.19,2.71,1.57
					C249.62,203.75,249.49,203.34,249.39,202.91z"/>
			</g>
			<g>
				<path d="M22.59,209.87c-2.66,0-4,1-5.29,1.97c-1.22,0.91-2.36,1.77-4.69,1.77c-0.37,0-0.7-0.03-1.01-0.07
					c-0.32,0.29-0.66,0.57-1.02,0.83c0.59,0.15,1.25,0.24,2.03,0.24c2.66,0,4-1,5.3-1.97c1.22-0.91,2.36-1.77,4.69-1.77
					s3.48,0.86,4.69,1.77c0.05,0.03,0.09,0.07,0.14,0.1c0.22-0.24,0.47-0.47,0.76-0.68c-0.1-0.07-0.2-0.15-0.3-0.22
					C26.59,210.88,25.25,209.87,22.59,209.87z"/>
				<path d="M254.93,213.16c-0.69,0.28-1.5,0.47-2.57,0.47c-2.33,0-3.48-0.86-4.7-1.77c-1.29-0.97-2.63-1.97-5.3-1.97
					c-2.03,0-3.29,0.58-4.34,1.29c0.3,0.2,0.6,0.41,0.88,0.63c0.88-0.53,1.9-0.92,3.46-0.92c2.33,0,3.48,0.86,4.7,1.77
					c1.29,0.97,2.63,1.97,5.3,1.97c1.3,0,2.29-0.24,3.1-0.6C255.3,213.73,255.13,213.44,254.93,213.16z"/>
			</g>
		</g>
	</g>
</g>
</svg>
