<svg width="800" height="1348" viewBox="0 0 800 1348" fill="none" xmlns="http://www.w3.org/2000/svg">
<path d="M13.719 674.878L401.909 466.775L399.989 939.22L13.719 674.878Z" fill="#9ECC51" style="fill:#9ECC51;fill:color(display-p3 0.6196 0.8000 0.3176);fill-opacity:1;"/>
<path d="M786.229 674.878L398.069 466.775L399.989 939.22L786.229 674.878Z" fill="#CA75AA" style="fill:#CA75AA;fill:color(display-p3 0.7922 0.4588 0.6667);fill-opacity:1;"/>
<path d="M105.322 522.355V477.453H93.6545V458.587H114.531V377.542H106.702V360.475H122.329V289.238C122.329 276.85 132.377 266.802 144.765 266.802V224.509L156.373 186.386L168.161 224.509V267.402H168.761C181.149 267.402 191.197 277.45 191.197 289.837V358.975H206.014V477.513" fill="#EEDA55" style="fill:#EEDA55;fill:color(display-p3 0.9333 0.8549 0.3333);fill-opacity:1;"/>
<path d="M398.819 467.045L399.359 0.239868L786.229 674.878L398.819 467.045Z" fill="#E38B84" style="fill:#E38B84;fill:color(display-p3 0.8902 0.5451 0.5176);fill-opacity:1;"/>
<path d="M14.4988 674.638L401.909 466.775L401.369 0" fill="#EEDA55" style="fill:#EEDA55;fill:color(display-p3 0.9333 0.8549 0.3333);fill-opacity:1;"/>
<path d="M398.639 1023.11L399.179 1346.22L799.576 760.992L398.639 1023.11Z" fill="#548DCA" style="fill:#548DCA;fill:color(display-p3 0.3294 0.5529 0.7922);fill-opacity:1;"/>
<path d="M3.64078 765.791L401.729 1023.32L401.369 1346.22" fill="#70C9F2" style="fill:#70C9F2;fill:color(display-p3 0.4392 0.7882 0.9490);fill-opacity:1;"/>
<path d="M212.643 942.339H178.959C178.359 942.339 177.789 941.979 177.549 941.439C177.279 940.899 177.369 940.239 177.759 939.759L211.083 899.567V854.425C211.083 853.555 211.773 852.865 212.643 852.865C213.513 852.865 214.203 853.555 214.203 854.425V900.137C214.203 900.497 214.083 900.857 213.843 901.126L182.288 939.19H212.643C213.513 939.19 214.203 939.88 214.203 940.749C214.203 941.649 213.513 942.339 212.643 942.339Z" fill="black" style="fill:black;fill-opacity:1;"/>
<path d="M199.055 1048.25C199.595 1049.03 200.105 1049.81 200.645 1050.59L213.513 1042.01C214.233 1041.53 214.443 1040.54 213.963 1039.82C213.483 1039.1 212.523 1038.89 211.773 1039.37L198.905 1047.95C198.935 1048.1 198.995 1048.19 199.055 1048.25Z" fill="black" style="fill:black;fill-opacity:1;"/>
<path d="M182.978 1025.21H212.643C213.513 1025.21 214.203 1024.52 214.203 1023.65C214.203 1022.78 213.513 1022.09 212.643 1022.09H180.849C181.539 1023.11 182.258 1024.16 182.978 1025.21Z" fill="black" style="fill:black;fill-opacity:1;"/>
<path d="M173.35 1011.03H212.643C213.513 1011.03 214.203 1010.34 214.203 1009.47C214.203 1008.6 213.513 1007.91 212.643 1007.91H171.25C171.94 1008.96 172.63 1010.01 173.35 1011.03Z" fill="black" style="fill:black;fill-opacity:1;"/>
<path d="M156.733 986.161C166.391 974.703 178.869 966.335 192.217 962.585C199.715 960.456 206.554 959.616 212.523 960.006C213.393 960.066 214.143 959.406 214.203 958.536C214.263 957.666 213.603 956.916 212.733 956.856C206.434 956.437 199.235 957.336 191.377 959.556C177.669 963.395 164.892 971.884 154.933 983.462C155.533 984.361 156.133 985.261 156.733 986.161Z" fill="black" style="fill:black;fill-opacity:1;"/>
<path d="M178.959 967.265C178.089 967.265 177.399 966.575 177.399 965.705V940.779C177.399 939.91 178.089 939.22 178.959 939.22C179.829 939.22 180.519 939.91 180.519 940.779V965.705C180.519 966.575 179.829 967.265 178.959 967.265Z" fill="black" style="fill:black;fill-opacity:1;"/>
<path d="M163.902 996.959H212.643C213.513 996.959 214.203 996.269 214.203 995.399C214.203 994.529 213.513 993.84 212.643 993.84H161.832C162.522 994.859 163.212 995.909 163.902 996.959Z" fill="black" style="fill:black;fill-opacity:1;"/>
<path d="M246.297 942.339H212.643C211.773 942.339 211.083 941.649 211.083 940.779C211.083 939.91 211.773 939.22 212.643 939.22H242.967L211.413 901.157C211.173 900.887 211.053 900.527 211.053 900.167V854.455C211.053 853.585 211.743 852.895 212.613 852.895C213.483 852.895 214.173 853.585 214.173 854.455V899.597L247.497 939.79C247.887 940.27 247.977 940.899 247.707 941.469C247.467 942.009 246.927 942.339 246.297 942.339Z" fill="black" style="fill:black;fill-opacity:1;"/>
<path d="M303.077 1202.57H311.805V1213.34H311.115C311.865 1214.36 312.615 1215.41 313.335 1216.49H313.365C314.235 1216.49 314.924 1215.8 314.924 1214.93V1201.04C314.924 1200.17 314.235 1199.48 313.365 1199.48H300.857C301.607 1200.47 302.357 1201.52 303.077 1202.57Z" fill="black" style="fill:black;fill-opacity:1;"/>
<path d="M293.478 1188.47H295.758V1191.92C296.808 1193.48 297.827 1195.04 298.907 1196.6V1186.91C298.907 1186.04 298.217 1185.35 297.348 1185.35H291.409C292.099 1186.4 292.788 1187.45 293.478 1188.47Z" fill="black" style="fill:black;fill-opacity:1;"/>
<path d="M308.925 1103.05L213.513 1039.43C212.793 1038.95 211.833 1039.13 211.323 1039.88C210.843 1040.6 211.023 1041.59 211.773 1042.07L302.867 1102.81H235.529C236.399 1103.86 237.268 1104.91 238.138 1105.96H308.056C308.746 1105.96 309.345 1105.51 309.555 1104.85C309.735 1104.13 309.495 1103.41 308.925 1103.05Z" fill="black" style="fill:black;fill-opacity:1;"/>
<path d="M315.254 1062.62C314.384 1062.62 313.695 1061.93 313.695 1061.06V1025.21H212.643C211.773 1025.21 211.083 1024.52 211.083 1023.65C211.083 1022.78 211.773 1022.09 212.643 1022.09H315.254C316.124 1022.09 316.814 1022.78 316.814 1023.65V1061.06C316.814 1061.93 316.124 1062.62 315.254 1062.62Z" fill="black" style="fill:black;fill-opacity:1;"/>
<path d="M302.957 1025.21C302.087 1025.21 301.397 1024.52 301.397 1023.65V1011.06H212.643C211.773 1011.06 211.083 1010.37 211.083 1009.5C211.083 1008.63 211.773 1007.94 212.643 1007.94H302.987C303.856 1007.94 304.546 1008.63 304.546 1009.5V1023.65C304.546 1024.49 303.826 1025.21 302.957 1025.21Z" fill="black" style="fill:black;fill-opacity:1;"/>
<path d="M299.087 1011.27C293.718 1011.27 288.859 1009.98 284.93 1007.49C281.091 1005.06 278.841 1001.28 276.621 997.619L275.572 995.909C265.433 979.502 249.926 967.355 233.009 962.585C225.511 960.456 218.672 959.586 212.703 960.006C211.863 960.066 211.083 959.406 211.023 958.536C210.963 957.666 211.623 956.916 212.493 956.856C218.792 956.437 225.991 957.336 233.849 959.556C251.516 964.535 267.683 977.163 278.241 994.26L279.291 995.999C281.3 999.329 283.37 1002.81 286.58 1004.82C291.979 1008.24 298.367 1008.39 302.747 1007.91C303.616 1007.82 304.396 1008.42 304.486 1009.29C304.576 1010.16 303.976 1010.94 303.107 1011.03C301.757 1011.18 300.407 1011.27 299.087 1011.27Z" fill="black" style="fill:black;fill-opacity:1;"/>
<path d="M246.297 967.265C245.427 967.265 244.737 966.575 244.737 965.705V940.779C244.737 939.91 245.427 939.22 246.297 939.22C247.167 939.22 247.857 939.91 247.857 940.779V965.705C247.887 966.575 247.167 967.265 246.297 967.265Z" fill="black" style="fill:black;fill-opacity:1;"/>
<path d="M297.348 1190.09C296.478 1190.09 295.788 1189.4 295.788 1188.53V1104.34C295.788 1103.47 296.478 1102.78 297.348 1102.78C298.217 1102.78 298.907 1103.47 298.907 1104.34V1188.53C298.907 1189.4 298.217 1190.09 297.348 1190.09Z" fill="black" style="fill:black;fill-opacity:1;"/>
<path d="M285.38 1176.39V1104.34C285.38 1103.47 284.69 1102.78 283.82 1102.78C282.95 1102.78 282.26 1103.47 282.26 1104.34V1171.89C283.31 1173.39 284.36 1174.86 285.38 1176.39Z" fill="black" style="fill:black;fill-opacity:1;"/>
<path d="M247.287 1122.67C247.467 1123.06 247.677 1123.45 247.857 1123.84V1104.34C247.857 1103.47 247.167 1102.78 246.297 1102.78C245.427 1102.78 244.737 1103.47 244.737 1104.34V1114.42C246.687 1117.27 247.437 1120.06 247.287 1122.67Z" fill="black" style="fill:black;fill-opacity:1;"/>
<path d="M380.732 1102.42C379.863 1102.42 379.173 1101.73 379.173 1100.86V1081.21L339.07 1042.91L298.937 1082.98V1095.16C298.937 1096.03 298.247 1096.72 297.378 1096.72C296.508 1096.72 295.818 1096.03 295.818 1095.16V1082.32C295.818 1081.9 295.998 1081.51 296.268 1081.21L337.96 1039.61C338.56 1039.01 339.55 1039.01 340.15 1039.58L381.842 1079.41C382.142 1079.71 382.322 1080.13 382.322 1080.55V1100.86C382.292 1101.73 381.602 1102.42 380.732 1102.42Z" fill="black" style="fill:black;fill-opacity:1;"/>
<path d="M297.348 1083.91C296.778 1083.91 296.238 1083.58 295.968 1083.07C295.698 1082.56 295.728 1081.9 296.058 1081.42C296.718 1080.49 312.135 1059.02 336.191 1057.31C351.668 1056.2 367.055 1063.67 381.872 1079.47C382.292 1079.92 382.412 1080.58 382.172 1081.15C381.932 1081.72 381.392 1082.11 380.762 1082.11L297.378 1083.88C297.378 1083.91 297.348 1083.91 297.348 1083.91ZM339.13 1060.37C338.23 1060.37 337.33 1060.4 336.4 1060.46C318.584 1061.72 305.476 1075 300.647 1080.7L377.073 1079.08C364.625 1066.64 351.878 1060.37 339.13 1060.37Z" fill="black" style="fill:black;fill-opacity:1;"/>
<path d="M401.999 1127.08H297.348C296.478 1127.08 295.788 1127.77 295.788 1128.64C295.788 1129.51 296.478 1130.2 297.348 1130.2H401.969V1127.08H401.999Z" fill="black" style="fill:black;fill-opacity:1;"/>
<path d="M401.999 1147.41H297.348C296.478 1147.41 295.788 1148.1 295.788 1148.97C295.788 1149.84 296.478 1150.53 297.348 1150.53H401.969V1147.41H401.999Z" fill="black" style="fill:black;fill-opacity:1;"/>
<path d="M398.099 1130.23C397.229 1130.23 396.54 1129.54 396.54 1128.67V1104.61H306.076C305.206 1104.61 304.516 1103.92 304.516 1103.05C304.516 1102.18 305.206 1101.49 306.076 1101.49H398.099C398.969 1101.49 399.659 1102.18 399.659 1103.05V1128.7C399.659 1129.54 398.969 1130.23 398.099 1130.23Z" fill="black" style="fill:black;fill-opacity:1;"/>
<path d="M339.04 1042.31C338.17 1042.31 337.48 1041.62 337.48 1040.75V1011.09C337.48 1010.22 338.17 1009.53 339.04 1009.53C339.91 1009.53 340.6 1010.22 340.6 1011.09V1040.75C340.6 1041.59 339.91 1042.31 339.04 1042.31Z" fill="black" style="fill:black;fill-opacity:1;"/>
<path d="M389.281 1216.46H377.523C376.653 1216.46 375.963 1215.77 375.963 1214.9V1148.97C375.963 1148.1 376.653 1147.41 377.523 1147.41H389.281C390.151 1147.41 390.841 1148.1 390.841 1148.97V1214.9C390.841 1215.77 390.151 1216.46 389.281 1216.46ZM379.083 1213.31H387.691V1150.53H379.083V1213.31Z" fill="black" style="fill:black;fill-opacity:1;"/>
<path d="M357.487 1216.46H345.729C344.859 1216.46 344.169 1215.77 344.169 1214.9V1148.97C344.169 1148.1 344.859 1147.41 345.729 1147.41H357.487C358.357 1147.41 359.046 1148.1 359.046 1148.97V1214.9C359.046 1215.77 358.357 1216.46 357.487 1216.46ZM347.289 1213.31H355.897V1150.53H347.289V1213.31Z" fill="black" style="fill:black;fill-opacity:1;"/>
<path d="M325.692 1147.41H313.935C313.065 1147.41 312.375 1148.1 312.375 1148.97V1214.9C312.375 1214.93 312.405 1214.99 312.405 1215.02C312.705 1215.44 312.975 1215.86 313.245 1216.28C313.455 1216.4 313.695 1216.46 313.935 1216.46H325.692C326.562 1216.46 327.252 1215.77 327.252 1214.9V1148.97C327.252 1148.1 326.532 1147.41 325.692 1147.41ZM324.103 1213.31H315.494V1150.53H324.103V1213.31Z" fill="black" style="fill:black;fill-opacity:1;"/>
<path d="M311.145 1213.31C311.895 1214.33 312.645 1215.38 313.365 1216.46H390.871C390.871 1215.41 390.961 1214.36 391.081 1213.31H311.145Z" fill="black" style="fill:black;fill-opacity:1;"/>
<path d="M400.289 1168.35C399.419 1168.35 398.729 1167.66 398.729 1166.79V1157.7C398.729 1156.83 399.419 1156.14 400.289 1156.14C401.159 1156.14 401.849 1156.83 401.849 1157.7V1166.79C401.849 1167.66 401.159 1168.35 400.289 1168.35Z" fill="black" style="fill:black;fill-opacity:1;"/>
<path d="M368.975 1168.35C368.105 1168.35 367.415 1167.66 367.415 1166.79V1157.7C367.415 1156.83 368.105 1156.14 368.975 1156.14C369.844 1156.14 370.534 1156.83 370.534 1157.7V1166.79C370.534 1167.66 369.844 1168.35 368.975 1168.35Z" fill="black" style="fill:black;fill-opacity:1;"/>
<path d="M337.66 1168.35C336.79 1168.35 336.101 1167.66 336.101 1166.79V1157.7C336.101 1156.83 336.79 1156.14 337.66 1156.14C338.53 1156.14 339.22 1156.83 339.22 1157.7V1166.79C339.22 1167.66 338.53 1168.35 337.66 1168.35Z" fill="black" style="fill:black;fill-opacity:1;"/>
<path d="M276.681 996.959H212.643C211.773 996.959 211.083 996.269 211.083 995.399C211.083 994.529 211.773 993.84 212.643 993.84H276.681C277.551 993.84 278.241 994.529 278.241 995.399C278.241 996.269 277.551 996.959 276.681 996.959Z" fill="black" style="fill:black;fill-opacity:1;"/>
<path d="M363.096 356.335C377.853 368.933 391.77 380.811 413.487 363.564C419.815 358.525 425.724 353.306 431.453 348.237C469.456 314.703 499.481 288.218 594.444 366.624C603.142 373.822 611.961 380.271 620.809 386.12C620.209 384.71 619.789 383.241 619.579 381.711C611.781 376.402 604.012 370.613 596.363 364.284C499.421 284.229 468.557 311.464 429.474 345.957C423.775 350.996 417.896 356.185 411.597 361.165C391.83 376.882 380.013 366.774 365.015 353.996C345.369 337.229 320.893 316.323 269.663 354.956C241.888 375.892 217.952 391.369 198.246 402.767V406.216C218.372 394.668 242.907 378.861 271.462 357.325C320.833 320.222 343.299 339.419 363.096 356.335Z" fill="black" style="fill:black;fill-opacity:1;"/>
<path d="M197.526 407.566V402.377L197.916 402.167C220.621 389.06 244.617 372.982 269.273 354.416C320.983 315.453 345.699 336.539 365.555 353.486C380.283 366.054 391.89 375.982 411.177 360.655C417.416 355.676 423.295 350.517 428.994 345.477C468.377 310.714 499.451 283.299 596.903 363.774C604.282 369.863 612.081 375.712 620.089 381.141L620.359 381.321L620.419 381.651C620.629 383.121 621.049 384.53 621.619 385.85L622.609 388.16L620.509 386.75C611.211 380.571 602.302 374.002 594.054 367.194C499.571 289.178 469.786 315.483 432.023 348.777C426.294 353.846 420.385 359.065 414.026 364.104C391.83 381.741 377.673 369.653 362.706 356.845C343.089 340.108 320.863 321.122 272.032 357.925C246.657 377.032 222.001 393.499 198.725 406.846L197.526 407.566ZM199.025 403.247V404.987C221.911 391.789 246.147 375.562 271.042 356.815C320.833 319.292 343.539 338.669 363.576 355.766C378.093 368.153 391.8 379.851 413.007 362.994C419.335 357.955 425.244 352.736 430.943 347.697C469.216 313.923 499.451 287.228 594.924 366.084C602.572 372.413 610.791 378.531 619.369 384.29C619.189 383.601 619.009 382.911 618.889 382.221C610.941 376.792 603.202 371.003 595.883 364.944C499.421 285.278 468.767 312.333 429.954 346.587C424.225 351.626 418.346 356.845 412.077 361.824C391.83 377.902 379.803 367.643 364.565 354.626C345.099 338.009 320.893 317.343 270.142 355.616C245.577 374.122 221.641 390.139 199.025 403.247Z" fill="black" style="fill:black;fill-opacity:1;"/>
<path d="M643.425 434.621L198.276 433.031V436.031L645.884 437.621C645.045 436.661 644.205 435.641 643.425 434.621Z" fill="black" style="fill:black;fill-opacity:1;"/>
<path d="M647.504 438.371L197.526 436.781V432.282H198.276L643.785 433.871L644.025 434.171C644.805 435.191 645.644 436.181 646.454 437.141L647.504 438.371ZM199.025 435.281L644.265 436.871C643.875 436.391 643.455 435.881 643.065 435.371L199.055 433.811V435.281H199.025Z" fill="black" style="fill:black;fill-opacity:1;"/>
<path d="M400.619 0.240029C399.539 -0.0599166 398.429 0.419996 397.859 1.37982L192.337 360.475C193.956 360.085 195.606 359.875 197.286 359.875C197.616 359.875 197.946 359.905 198.276 359.935L397.529 11.8179V935.95L19.118 672.988L106.012 521.156C105.322 518.996 104.872 516.716 104.782 514.347C104.782 514.047 104.782 513.777 104.782 513.477L13.749 672.508C13.1191 673.618 13.449 674.998 14.4688 675.718L398.579 942.609C398.999 942.909 399.479 943.059 399.989 943.059C400.379 943.059 400.769 942.969 401.129 942.789C401.939 942.369 402.449 941.529 402.449 940.629V2.6096C402.419 1.4998 401.699 0.539975 400.619 0.240029Z" fill="black" style="fill:black;fill-opacity:1;"/>
<path d="M105.172 626.107C105.112 624.847 105.142 623.617 105.172 622.387L14.7088 671.578C13.509 672.238 13.0891 673.708 13.719 674.908C14.1689 675.718 15.0088 676.197 15.8786 676.197C16.2685 676.197 16.6885 676.107 17.0484 675.897L105.322 627.906C105.292 627.276 105.202 626.706 105.172 626.107Z" fill="black" style="fill:black;fill-opacity:1;"/>
<path d="M402.149 463.716C401.489 462.516 400.019 462.096 398.819 462.726L207.364 566.807C207.424 567.587 207.544 568.337 207.574 569.117C207.634 570.167 207.634 571.217 207.604 572.266L401.159 467.045C402.329 466.386 402.778 464.916 402.149 463.716Z" fill="black" style="fill:black;fill-opacity:1;"/>
<path d="M397.529 1150.08V1336.89L11.4994 768.611L397.529 1026.44V1175.7C399.149 1175.04 400.769 1174.44 402.419 1173.93V1025.12C402.419 1024.31 401.999 1023.53 401.339 1023.08L3.79077 757.603C2.83095 756.943 1.51119 757.093 0.701334 757.903C-0.108519 758.743 -0.228497 760.032 0.401389 760.992L397.949 1346.22C398.399 1346.91 399.179 1347.3 399.959 1347.3C400.199 1347.3 400.439 1347.27 400.679 1347.18C401.699 1346.85 402.419 1345.92 402.419 1344.84V1151.79C400.769 1151.28 399.119 1150.71 397.529 1150.08Z" fill="black" style="fill:black;fill-opacity:1;"/>
<path d="M399.989 943.059C399.599 943.059 399.209 942.969 398.849 942.789C398.039 942.369 397.529 941.529 397.529 940.629V2.6096C397.529 1.4998 398.279 0.539975 399.359 0.240029C400.439 -0.0599166 401.549 0.419996 402.119 1.37982L786.229 672.478C786.859 673.588 786.529 674.968 785.509 675.688L401.399 942.579C400.949 942.909 400.469 943.059 399.989 943.059ZM402.419 11.8179V935.95L780.83 672.988L402.419 11.8179Z" fill="black" style="fill:black;fill-opacity:1;"/>
<path d="M784.099 676.168C783.709 676.168 783.319 676.078 782.93 675.868L398.819 467.045C397.619 466.386 397.199 464.916 397.829 463.716C398.489 462.516 399.959 462.096 401.159 462.726L785.269 671.548C786.469 672.208 786.889 673.678 786.259 674.878C785.809 675.718 784.969 676.168 784.099 676.168Z" fill="black" style="fill:black;fill-opacity:1;"/>
<path d="M799.277 757.903C798.437 757.063 797.147 756.943 796.187 757.603L398.639 1023.11C397.949 1023.56 397.559 1024.34 397.559 1025.15V1175.73C399.179 1175.16 400.799 1174.68 402.449 1174.26V1026.47L788.479 768.641L402.449 1336.89V1153.71C400.799 1153.32 399.149 1152.87 397.559 1152.33V1344.84C397.559 1345.92 398.249 1346.85 399.299 1347.18C399.539 1347.24 399.779 1347.3 400.019 1347.3C400.829 1347.3 401.579 1346.91 402.029 1346.22L799.576 760.992C800.236 760.032 800.116 758.743 799.277 757.903Z" fill="black" style="fill:black;fill-opacity:1;"/>
<path d="M251.426 834.929H246.057C245.817 834.929 245.577 834.839 245.367 834.719L146.325 765.881C144.285 764.891 142.426 763.602 140.776 762.042L60.6304 706.342C60.3005 706.102 60.0905 705.742 60.0905 705.352V688.765C60.0905 688.075 60.6304 687.535 61.3203 687.535H251.456C252.146 687.535 252.686 688.075 252.686 688.765V833.729C252.656 834.389 252.116 834.929 251.426 834.929ZM246.447 832.499H250.196V689.965H62.5501V704.692L142.276 760.062C142.336 760.092 142.366 760.152 142.426 760.182C143.925 761.622 145.635 762.822 147.495 763.692C147.555 763.722 147.615 763.752 147.675 763.782L246.447 832.499Z" fill="black" style="fill:black;fill-opacity:1;"/>
<path d="M259.974 689.965H52.8018C52.112 689.965 51.5721 689.425 51.5721 688.735V669.329C51.5721 668.639 52.112 668.099 52.8018 668.099H259.974C260.664 668.099 261.204 668.639 261.204 669.329V688.735C261.204 689.425 260.664 689.965 259.974 689.965ZM54.0316 687.535H258.775V670.588H54.0316V687.535Z" fill="black" style="fill:black;fill-opacity:1;"/>
<path d="M207.634 670.559H105.142C104.452 670.559 103.913 670.019 103.913 669.329V477.364C103.913 476.674 104.452 476.134 105.142 476.134H207.634C208.324 476.134 208.864 476.674 208.864 477.364V669.329C208.864 670.019 208.324 670.559 207.634 670.559ZM106.342 668.129H206.404V478.623H106.342V668.129Z" fill="black" style="fill:black;fill-opacity:1;"/>
<path d="M219.332 478.623H93.4145C92.7246 478.623 92.1847 478.083 92.1847 477.393V458.737C92.1847 458.047 92.7246 457.507 93.4145 457.507H219.332C220.022 457.507 220.561 458.047 220.561 458.737V477.393C220.561 478.053 220.022 478.623 219.332 478.623ZM94.6443 476.164H218.102V459.967H94.6443V476.164Z" fill="black" style="fill:black;fill-opacity:1;"/>
<path d="M198.275 459.967H114.501C113.811 459.967 113.271 459.427 113.271 458.737V377.482C113.271 376.792 113.811 376.252 114.501 376.252H198.275C198.965 376.252 199.505 376.792 199.505 377.482V458.737C199.505 459.427 198.935 459.967 198.275 459.967ZM115.73 457.507H197.046V378.681H115.73V457.507Z" fill="black" style="fill:black;fill-opacity:1;"/>
<path d="M180.969 459.967H131.808C131.118 459.967 130.578 459.427 130.578 458.737V377.482C130.578 376.792 131.118 376.252 131.808 376.252H180.969C181.658 376.252 182.198 376.792 182.198 377.482V458.737C182.198 459.427 181.629 459.967 180.969 459.967ZM133.037 457.507H179.739V378.681H133.037V457.507Z" fill="black" style="fill:black;fill-opacity:1;"/>
<path d="M206.044 378.711H106.732C106.042 378.711 105.502 378.171 105.502 377.482V360.175C105.502 359.485 106.042 358.945 106.732 358.945H206.044C206.734 358.945 207.274 359.485 207.274 360.175V377.482C207.274 378.141 206.734 378.711 206.044 378.711ZM107.932 376.252H204.814V361.404H107.932V376.252Z" fill="black" style="fill:black;fill-opacity:1;"/>
<path d="M189.997 361.405H122.779C122.089 361.405 121.549 360.865 121.549 360.175V292.957C121.549 292.267 122.089 291.727 122.779 291.727H189.997C190.687 291.727 191.227 292.267 191.227 292.957V360.175C191.227 360.835 190.657 361.405 189.997 361.405ZM124.009 358.945H188.797V294.157H124.009V358.945Z" fill="black" style="fill:black;fill-opacity:1;"/>
<path d="M168.161 361.405H144.585C143.895 361.405 143.355 360.865 143.355 360.175V292.957C143.355 292.267 143.895 291.727 144.585 291.727H168.161C168.851 291.727 169.391 292.267 169.391 292.957V360.175C169.391 360.835 168.851 361.405 168.161 361.405ZM145.815 358.945H166.961V294.157H145.815V358.945Z" fill="black" style="fill:black;fill-opacity:1;"/>
<path d="M189.997 294.157H122.779C122.089 294.157 121.549 293.617 121.549 292.927C121.549 279.879 130.668 268.841 143.385 266.352V225.739C143.385 225.049 143.925 224.509 144.615 224.509H168.191C168.881 224.509 169.421 225.049 169.421 225.739V266.352C182.138 268.871 191.257 279.879 191.257 292.927C191.227 293.617 190.657 294.157 189.997 294.157ZM124.039 291.727H188.767C188.197 280.089 179.649 270.461 168.011 268.601C167.411 268.511 166.991 268.001 166.991 267.402V226.939H145.845V267.372C145.845 267.971 145.395 268.481 144.825 268.571C133.157 270.431 124.579 280.059 124.039 291.727Z" fill="black" style="fill:black;fill-opacity:1;"/>
<path d="M185.558 670.559H127.218C126.528 670.559 125.989 670.019 125.989 669.329V477.364C125.989 476.674 126.528 476.134 127.218 476.134H185.588C186.278 476.134 186.818 476.674 186.818 477.364V669.329C186.788 670.019 186.248 670.559 185.558 670.559ZM128.418 668.129H184.328V478.623H128.418V668.129Z" fill="black" style="fill:black;fill-opacity:1;"/>
<path d="M197.946 801.485C197.706 801.485 197.466 801.425 197.256 801.275L146.325 765.881C144.285 764.891 142.426 763.602 140.776 762.042L114.141 743.535C113.811 743.295 113.601 742.935 113.601 742.545V688.765C113.601 688.075 114.141 687.535 114.831 687.535H197.946C198.635 687.535 199.175 688.075 199.175 688.765V800.285C199.175 800.735 198.935 801.155 198.515 801.365C198.335 801.455 198.126 801.485 197.946 801.485ZM116.06 741.886L142.246 760.092C142.306 760.122 142.336 760.182 142.396 760.212C143.895 761.652 145.605 762.852 147.465 763.722C147.525 763.752 147.585 763.782 147.645 763.812L196.716 797.915V689.965H116.06V741.886Z" fill="black" style="fill:black;fill-opacity:1;"/>
<path d="M168.161 226.939H144.585C144.195 226.939 143.835 226.759 143.595 226.429C143.355 226.129 143.295 225.709 143.415 225.349L155.203 187.226C155.353 186.716 155.833 186.356 156.373 186.356C156.913 186.356 157.393 186.716 157.543 187.226L169.331 225.349C169.451 225.709 169.391 226.129 169.151 226.429C168.941 226.759 168.551 226.939 168.161 226.939ZM146.265 224.509H166.511L156.373 191.755L146.265 224.509Z" fill="black" style="fill:black;fill-opacity:1;"/>
<path d="M156.373 188.816C155.683 188.816 155.143 188.276 155.143 187.586V143.464C155.143 142.774 155.683 142.234 156.373 142.234C157.063 142.234 157.603 142.774 157.603 143.464V187.616C157.603 188.276 157.063 188.816 156.373 188.816Z" fill="black" style="fill:black;fill-opacity:1;"/>
<path d="M156.373 768.221C152.864 768.221 149.504 767.441 146.385 765.911C144.285 764.921 142.396 763.571 140.686 761.952C136.157 757.693 133.577 751.664 133.577 745.425C133.577 732.857 143.805 722.629 156.373 722.629C168.941 722.629 179.169 732.857 179.169 745.425C179.169 757.993 168.941 768.221 156.373 768.221ZM156.373 725.088C145.155 725.088 136.037 734.207 136.037 745.425C136.037 751.004 138.346 756.373 142.396 760.182C143.895 761.622 145.605 762.822 147.465 763.721C150.254 765.101 153.254 765.791 156.373 765.791C167.591 765.791 176.709 756.673 176.709 745.455C176.739 734.207 167.591 725.088 156.373 725.088Z" fill="black" style="fill:black;fill-opacity:1;"/>
<path d="M156.373 592.903C145.605 592.903 136.847 584.144 136.847 573.376C136.847 562.608 145.605 553.85 156.373 553.85C167.141 553.85 175.9 562.608 175.9 573.376C175.93 584.144 167.141 592.903 156.373 592.903ZM156.373 556.279C146.955 556.279 139.276 563.958 139.276 573.376C139.276 582.794 146.955 590.473 156.373 590.473C165.791 590.473 173.47 582.794 173.47 573.376C173.47 563.958 165.821 556.279 156.373 556.279Z" fill="black" style="fill:black;fill-opacity:1;"/>
<path d="M156.373 592.903C145.605 592.903 136.847 584.144 136.847 573.376C136.847 562.608 145.605 553.85 156.373 553.85C167.141 553.85 175.9 562.608 175.9 573.376C175.93 584.144 167.141 592.903 156.373 592.903ZM156.373 556.279C146.955 556.279 139.276 563.958 139.276 573.376C139.276 582.794 146.955 590.473 156.373 590.473C165.791 590.473 173.47 582.794 173.47 573.376C173.47 563.958 165.821 556.279 156.373 556.279Z" fill="black" style="fill:black;fill-opacity:1;"/>
<path d="M105.142 670.558H74.068C73.7381 670.558 73.4081 670.408 73.1982 670.169C72.9582 669.929 72.8382 669.599 72.8682 669.269C73.5881 651.932 87.7455 637.894 105.112 637.325C105.442 637.295 105.772 637.444 106.012 637.654C106.252 637.894 106.372 638.194 106.372 638.524V669.299C106.342 670.019 105.802 670.558 105.142 670.558ZM75.3878 668.129H103.913V639.874C88.8253 640.984 76.6476 653.072 75.3878 668.129Z" fill="black" style="fill:black;fill-opacity:1;"/>
<path d="M237.688 670.558H206.644C205.954 670.558 205.414 670.018 205.414 669.329V638.584C205.414 638.254 205.534 637.924 205.774 637.714C206.014 637.474 206.314 637.354 206.674 637.384C224.011 637.954 238.198 651.992 238.918 669.329C238.918 669.659 238.798 669.988 238.588 670.228C238.348 670.438 238.018 670.558 237.688 670.558ZM207.844 668.129H236.369C235.109 653.072 222.901 640.984 207.844 639.874V668.129Z" fill="black" style="fill:black;fill-opacity:1;"/>
<path d="M156.373 434.141C147.525 434.141 140.356 426.943 140.356 418.124C140.356 409.306 147.555 402.107 156.373 402.107C165.222 402.107 172.39 409.306 172.39 418.124C172.39 426.943 165.222 434.141 156.373 434.141ZM156.373 404.537C148.874 404.537 142.786 410.626 142.786 418.124C142.786 425.623 148.874 431.712 156.373 431.712C163.872 431.712 169.961 425.623 169.961 418.124C169.961 410.626 163.872 404.537 156.373 404.537Z" fill="black" style="fill:black;fill-opacity:1;"/>
<path d="M302.867 712.281C300.977 712.281 299.117 712.911 297.618 714.021C295.128 709.941 290.659 707.392 285.86 707.392C283.01 707.392 280.221 708.292 277.911 709.941C274.252 705.772 269.033 703.403 263.454 703.403C259.464 703.403 255.745 704.632 252.686 706.702V709.761C255.595 707.302 259.374 705.832 263.454 705.832C268.673 705.832 273.532 708.232 276.741 712.371C276.951 712.641 277.251 712.791 277.581 712.851C277.911 712.881 278.241 712.791 278.511 712.551C280.551 710.811 283.16 709.821 285.86 709.821C290.269 709.821 294.318 712.431 296.178 716.45C296.358 716.81 296.688 717.08 297.108 717.14C297.498 717.2 297.917 717.08 298.187 716.78C299.417 715.46 301.097 714.741 302.897 714.741C306.466 714.741 309.345 717.65 309.345 721.189C309.345 724.759 306.436 727.638 302.897 727.638C301.097 727.638 299.417 726.918 298.187 725.599C297.917 725.299 297.498 725.149 297.108 725.239C296.718 725.299 296.358 725.569 296.178 725.929C294.318 729.948 290.299 732.557 285.86 732.557C283.67 732.557 281.54 731.927 279.681 730.728C279.411 730.548 279.051 730.488 278.721 730.578C278.391 730.668 278.121 730.848 277.941 731.148C274.942 736.307 269.363 739.516 263.424 739.516C259.314 739.516 255.565 738.046 252.656 735.587V738.646C255.745 740.746 259.434 741.946 263.424 741.946C269.813 741.946 275.841 738.706 279.411 733.427C281.39 734.477 283.58 735.017 285.83 735.017C290.659 735.017 295.098 732.467 297.588 728.388C299.117 729.498 300.947 730.128 302.837 730.128C307.756 730.128 311.745 726.138 311.745 721.219C311.775 716.27 307.786 712.281 302.867 712.281Z" fill="black" style="fill:black;fill-opacity:1;"/>
<path d="M451.49 506.998C449.6 506.998 447.74 507.628 446.241 508.738C443.751 504.659 439.282 502.109 434.483 502.109C431.633 502.109 428.844 503.009 426.534 504.659C422.875 500.489 417.656 498.12 412.077 498.12C408.087 498.12 404.368 499.35 401.309 501.419V504.479C404.218 502.019 407.997 500.549 412.077 500.549C417.296 500.549 422.155 502.949 425.364 507.088C425.574 507.358 425.874 507.508 426.204 507.568C426.534 507.598 426.864 507.508 427.134 507.268C429.174 505.528 431.783 504.539 434.483 504.539C438.892 504.539 442.941 507.148 444.801 511.167C444.981 511.527 445.311 511.797 445.731 511.857C446.121 511.917 446.541 511.797 446.81 511.497C448.04 510.178 449.72 509.458 451.52 509.458C455.089 509.458 457.968 512.367 457.968 515.907C457.968 519.476 455.059 522.355 451.52 522.355C449.72 522.355 448.04 521.636 446.81 520.316C446.541 520.016 446.121 519.866 445.731 519.956C445.341 520.016 444.981 520.286 444.801 520.646C442.941 524.665 438.922 527.275 434.483 527.275C432.293 527.275 430.163 526.645 428.304 525.445C428.034 525.265 427.674 525.205 427.344 525.295C427.014 525.385 426.744 525.565 426.564 525.865C423.565 531.024 417.986 534.233 412.047 534.233C407.938 534.233 404.188 532.764 401.279 530.304V533.363C404.368 535.463 408.057 536.663 412.047 536.663C418.436 536.663 424.465 533.423 428.034 528.144C430.014 529.194 432.203 529.734 434.453 529.734C439.282 529.734 443.721 527.185 446.211 523.105C447.74 524.215 449.57 524.845 451.46 524.845C456.379 524.845 460.368 520.856 460.368 515.937C460.398 510.988 456.409 506.998 451.49 506.998Z" fill="black" style="fill:black;fill-opacity:1;"/>
<path d="M350.498 855.835C352.388 855.835 354.247 855.205 355.747 854.095C358.237 858.174 362.706 860.724 367.505 860.724C370.354 860.724 373.144 859.824 375.453 858.174C379.113 862.344 384.332 864.713 389.911 864.713C393.9 864.713 397.619 863.484 400.679 861.414V858.354C397.769 860.814 393.99 862.284 389.911 862.284C384.692 862.284 379.833 859.884 376.623 855.745C376.413 855.475 376.113 855.325 375.783 855.265C375.453 855.235 375.123 855.325 374.854 855.565C372.814 857.305 370.204 858.294 367.505 858.294C363.096 858.294 359.046 855.685 357.187 851.666C357.007 851.306 356.677 851.036 356.257 850.976C355.867 850.916 355.447 851.036 355.177 851.336C353.947 852.655 352.268 853.375 350.468 853.375C346.899 853.375 344.019 850.466 344.019 846.926C344.019 843.357 346.929 840.478 350.468 840.478C352.268 840.478 353.947 841.198 355.177 842.517C355.447 842.817 355.867 842.967 356.257 842.877C356.647 842.817 357.007 842.547 357.187 842.187C359.046 838.168 363.066 835.559 367.505 835.559C369.694 835.559 371.824 836.188 373.684 837.388C373.954 837.568 374.314 837.628 374.644 837.538C374.973 837.448 375.243 837.268 375.423 836.968C378.423 831.809 384.002 828.6 389.941 828.6C394.05 828.6 397.799 830.07 400.709 832.529V829.47C397.619 827.37 393.93 826.17 389.941 826.17C383.552 826.17 377.523 829.41 373.954 834.689C371.974 833.639 369.784 833.099 367.535 833.099C362.706 833.099 358.267 835.649 355.777 839.728C354.247 838.618 352.418 837.988 350.528 837.988C345.609 837.988 341.62 841.977 341.62 846.897C341.62 851.846 345.609 855.835 350.498 855.835Z" fill="black" style="fill:black;fill-opacity:1;"/>
<path d="M327.582 794.166C327.522 794.166 327.462 794.166 327.402 794.136C326.862 794.046 326.442 793.626 326.382 793.086C326.082 790.657 325.153 789.097 323.563 788.257C319.304 785.978 311.685 789.727 311.625 789.757C311.025 790.057 310.275 789.817 309.975 789.217C309.675 788.617 309.915 787.867 310.515 787.567C310.875 787.387 319.304 783.248 324.703 786.098C326.262 786.908 327.372 788.227 328.092 789.967C329.322 788.467 331.301 786.638 334.181 785.768C338.2 784.538 342.789 785.498 347.798 788.587C348.368 788.947 348.548 789.697 348.188 790.267C347.828 790.837 347.079 791.017 346.509 790.657C342.129 787.957 338.23 787.087 334.901 788.077C330.612 789.367 328.692 793.386 328.692 793.446C328.512 793.896 328.062 794.166 327.582 794.166Z" fill="black" style="fill:black;fill-opacity:1;"/>
<path d="M349.238 678.987C349.178 678.987 349.118 678.987 349.058 678.987C348.518 678.897 348.098 678.477 348.038 677.937C347.888 676.737 347.438 675.958 346.689 675.568C344.859 674.608 341.41 675.898 340.33 676.438C339.73 676.737 338.98 676.498 338.68 675.898C338.38 675.298 338.62 674.548 339.22 674.248C339.76 673.978 344.559 671.668 347.828 673.408C348.428 673.738 349.118 674.248 349.658 675.148C350.408 674.368 351.458 673.588 352.868 673.168C355.327 672.418 358.087 672.988 361.086 674.848C361.656 675.208 361.836 675.958 361.476 676.528C361.116 677.097 360.366 677.277 359.796 676.917C357.427 675.448 355.327 674.968 353.557 675.508C351.368 676.168 350.348 678.267 350.348 678.297C350.138 678.717 349.718 678.987 349.238 678.987Z" fill="black" style="fill:black;fill-opacity:1;"/>
<path d="M575.427 596.832C575.367 596.832 575.307 596.832 575.247 596.832C574.707 596.742 574.287 596.322 574.227 595.782C574.077 594.582 573.627 593.802 572.878 593.412C571.048 592.453 567.599 593.742 566.519 594.282C565.919 594.582 565.169 594.342 564.869 593.742C564.569 593.142 564.809 592.393 565.409 592.093C565.949 591.823 570.748 589.513 574.017 591.253C574.617 591.583 575.307 592.093 575.847 592.992C576.597 592.213 577.647 591.433 579.056 591.013C581.516 590.263 584.275 590.833 587.275 592.693C587.845 593.053 588.025 593.802 587.665 594.372C587.305 594.942 586.555 595.122 585.985 594.762C583.616 593.292 581.516 592.813 579.746 593.352C577.557 594.012 576.537 596.112 576.537 596.142C576.327 596.532 575.907 596.832 575.427 596.832Z" fill="black" style="fill:black;fill-opacity:1;"/>
<path d="M432.623 835.109H411.657C410.787 835.109 410.097 835.798 410.097 836.668V848.096H399.989V851.246H411.657C412.527 851.246 413.217 850.556 413.217 849.686V838.258H431.033V878.751H399.989V881.9H432.623C433.493 881.9 434.183 881.21 434.183 880.34V836.728C434.183 835.798 433.463 835.109 432.623 835.109Z" fill="black" style="fill:black;fill-opacity:1;"/>
<path d="M435.113 612.249H412.677C411.807 612.249 411.117 612.939 411.117 613.809V625.447H399.989V628.596H412.677C413.546 628.596 414.236 627.906 414.236 627.036V615.398H433.553V642.514L419.185 684.416C419.125 684.566 419.095 684.746 419.095 684.926V835.139H412.677C411.807 835.139 411.117 835.829 411.117 836.698V848.126H399.989V851.276H412.677C413.546 851.276 414.236 850.586 414.236 849.716V838.288H420.655C421.525 838.288 422.215 837.598 422.215 836.728V685.196L436.582 643.293C436.642 643.143 436.672 642.963 436.672 642.784V613.839C436.702 612.939 435.982 612.249 435.113 612.249Z" fill="black" style="fill:black;fill-opacity:1;"/>
<path d="M420.655 680.787C413.906 680.877 406.978 680.937 399.989 680.967V684.116C406.978 684.086 413.936 684.026 420.685 683.936C421.555 683.936 422.245 683.216 422.245 682.346C422.215 681.477 421.525 680.787 420.655 680.787Z" fill="black" style="fill:black;fill-opacity:1;"/>
<path d="M435.113 643.053C423.625 643.203 411.837 643.293 399.989 643.293V646.443C411.837 646.413 423.655 646.353 435.143 646.203C436.012 646.203 436.702 645.483 436.702 644.613C436.672 643.743 435.982 643.083 435.113 643.053Z" fill="black" style="fill:black;fill-opacity:1;"/>
<path d="M422.965 615.368C422.095 615.368 421.405 614.679 421.405 613.809V602.291C421.405 601.661 421.795 601.091 422.365 600.851L486.823 574.006V535.643C486.823 534.773 487.513 534.083 488.383 534.083C489.253 534.083 489.943 534.773 489.943 535.643V575.056C489.943 575.686 489.553 576.255 488.983 576.495L424.524 603.341V613.839C424.524 614.679 423.835 615.368 422.965 615.368Z" fill="black" style="fill:black;fill-opacity:1;"/>
<path d="M637.126 627.006V615.368H653.293V644.373L640.785 681.866C640.725 682.016 640.695 682.196 640.695 682.376V771.34C641.715 770.77 642.765 770.32 643.845 769.871V682.646L656.353 645.153C656.413 645.003 656.442 644.823 656.442 644.643V613.809C656.442 612.939 655.753 612.249 654.883 612.249H635.596C634.726 612.249 634.037 612.939 634.037 613.809V625.447H610.761V613.809C610.761 612.939 610.071 612.249 609.201 612.249H590.544C589.675 612.249 588.985 612.939 588.985 613.809V625.447H565.709V613.809C565.709 612.939 565.019 612.249 564.149 612.249H541.713C540.843 612.249 540.154 612.939 540.154 613.809V642.753C540.154 642.933 540.184 643.083 540.244 643.263L554.611 685.166V832.469C555.631 832.439 556.681 832.439 557.76 832.439V684.896C557.76 684.716 557.73 684.566 557.67 684.386L543.303 642.484V615.368H562.62V627.006C562.62 627.876 563.309 628.566 564.179 628.566H590.574C591.444 628.566 592.134 627.876 592.134 627.006V615.368H607.641V627.006C607.641 627.876 608.331 628.566 609.201 628.566H635.626C636.436 628.596 637.126 627.876 637.126 627.006Z" fill="black" style="fill:black;fill-opacity:1;"/>
<path d="M642.285 683.936H556.111C555.241 683.936 554.551 683.246 554.551 682.376C554.551 681.506 555.241 680.816 556.111 680.816H642.285C643.155 680.816 643.845 681.506 643.845 682.376C643.845 683.246 643.155 683.936 642.285 683.936Z" fill="black" style="fill:black;fill-opacity:1;"/>
<path d="M654.853 646.203H541.623C540.753 646.203 540.064 645.513 540.064 644.643C540.064 643.773 540.753 643.083 541.623 643.083H654.853C655.723 643.083 656.412 643.773 656.412 644.643C656.412 645.513 655.723 646.203 654.853 646.203Z" fill="black" style="fill:black;fill-opacity:1;"/>
<path d="M553.801 615.368C552.931 615.368 552.241 614.679 552.241 613.809V603.311L487.783 576.466C487.213 576.226 486.823 575.656 486.823 575.026V535.613C486.823 534.743 487.513 534.053 488.383 534.053C489.253 534.053 489.943 534.743 489.943 535.613V573.976L554.401 600.821C554.971 601.061 555.361 601.631 555.361 602.261V613.779C555.361 614.679 554.671 615.368 553.801 615.368Z" fill="black" style="fill:black;fill-opacity:1;"/>
<path d="M600.773 724.819C599.903 724.819 599.213 724.129 599.213 723.259V709.221C599.213 708.352 599.903 707.662 600.773 707.662C601.642 707.662 602.332 708.352 602.332 709.221V723.259C602.332 724.129 601.642 724.819 600.773 724.819Z" fill="black" style="fill:black;fill-opacity:1;"/>
<path d="M600.773 772C599.903 772 599.213 771.31 599.213 770.44V756.403C599.213 755.533 599.903 754.843 600.773 754.843C601.642 754.843 602.332 755.533 602.332 756.403V770.44C602.332 771.31 601.642 772 600.773 772Z" fill="black" style="fill:black;fill-opacity:1;"/>
<path d="M547.082 646.203H435.113C434.243 646.203 433.553 645.513 433.553 644.643C433.553 643.773 434.243 643.083 435.113 643.083H547.082C547.952 643.083 548.642 643.773 548.642 644.643C548.642 645.513 547.952 646.203 547.082 646.203Z" fill="black" style="fill:black;fill-opacity:1;"/>
<path d="M557.79 683.936H415.646C414.776 683.936 414.086 683.246 414.086 682.376C414.086 681.506 414.776 680.816 415.646 680.816H557.79C558.66 680.816 559.35 681.506 559.35 682.376C559.35 683.246 558.66 683.936 557.79 683.936Z" fill="black" style="fill:black;fill-opacity:1;"/>
<path d="M511.239 775.149H467.837C466.967 775.149 466.277 774.459 466.277 773.59V732.407C466.277 724.069 473.056 717.32 481.364 717.32H497.711C506.05 717.32 512.798 724.099 512.798 732.407V773.59C512.798 774.43 512.109 775.149 511.239 775.149ZM469.396 772H509.649V732.377C509.649 725.778 504.28 720.409 497.681 720.409H481.334C474.735 720.409 469.366 725.778 469.366 732.377V772H469.396Z" fill="black" style="fill:black;fill-opacity:1;"/>
<path d="M491.352 878.751H471.256V839.128C471.256 832.529 476.625 827.16 483.224 827.16H499.571C506.17 827.16 511.539 832.529 511.539 839.128V863.424C512.559 862.764 513.608 862.134 514.688 861.504V839.128C514.688 830.79 507.909 824.041 499.601 824.041H483.254C474.915 824.041 468.167 830.82 468.167 839.128V880.311C468.167 881.18 468.856 881.87 469.726 881.87H487.843C488.953 880.82 490.153 879.801 491.352 878.751Z" fill="black" style="fill:black;fill-opacity:1;"/>
<path d="M723.42 714.141C724.44 713.541 725.49 713.091 726.57 712.791V664.5C726.57 664.08 726.39 663.66 726.09 663.36C725.79 663.06 725.37 662.88 724.95 662.94L696.005 664.2C695.165 664.23 694.506 664.92 694.506 665.759V680.787H673.119V665.759C673.119 664.89 672.43 664.2 671.56 664.2H647.864C646.994 664.2 646.304 664.89 646.304 665.759C646.304 666.629 646.994 667.319 647.864 667.319H670V682.346C670 683.216 670.69 683.906 671.56 683.906H696.095C696.965 683.906 697.655 683.216 697.655 682.346V667.259L723.45 666.149V714.141H723.42Z" fill="black" style="fill:black;fill-opacity:1;"/>
<path d="M724.98 707.302H642.285C641.415 707.302 640.725 706.612 640.725 705.742C640.725 704.872 641.415 704.182 642.285 704.182H724.98C725.85 704.182 726.54 704.872 726.54 705.742C726.54 706.612 725.85 707.302 724.98 707.302Z" fill="black" style="fill:black;fill-opacity:1;"/>
<path d="M670.84 742.545C669.97 742.545 669.28 741.856 669.28 740.986V726.948C669.28 726.078 669.97 725.389 670.84 725.389C671.71 725.389 672.4 726.078 672.4 726.948V740.986C672.4 741.826 671.71 742.545 670.84 742.545Z" fill="black" style="fill:black;fill-opacity:1;"/>
<path d="M491.382 878.751H415.646C414.776 878.751 414.086 879.441 414.086 880.31C414.086 881.18 414.776 881.87 415.646 881.87H487.843C488.983 880.79 490.183 879.771 491.382 878.751Z" fill="black" style="fill:black;fill-opacity:1;"/>
<path d="M399.479 623.617H208.864C208.174 623.617 207.634 623.077 207.634 622.387C207.634 621.697 208.174 621.157 208.864 621.157H399.509C400.199 621.157 400.739 621.697 400.739 622.387C400.709 623.077 400.169 623.617 399.479 623.617Z" fill="black" style="fill:black;fill-opacity:1;"/>
<path d="M399.479 604.84H208.864C208.174 604.84 207.634 604.301 207.634 603.611C207.634 602.921 208.174 602.381 208.864 602.381H399.509C400.199 602.381 400.739 602.921 400.739 603.611C400.739 604.301 400.169 604.84 399.479 604.84Z" fill="black" style="fill:black;fill-opacity:1;"/>
<path d="M399.479 586.064H208.864C208.174 586.064 207.634 585.524 207.634 584.834C207.634 584.144 208.174 583.604 208.864 583.604H399.509C400.199 583.604 400.739 584.144 400.739 584.834C400.709 585.524 400.169 586.064 399.479 586.064Z" fill="black" style="fill:black;fill-opacity:1;"/>
<path d="M411.117 932.591H402.179C401.489 932.591 400.949 933.131 400.949 933.821C400.949 934.51 401.489 935.05 402.179 935.05H409.467C409.977 934.15 410.517 933.341 411.117 932.591Z" fill="black" style="fill:black;fill-opacity:1;"/>
<path d="M399.479 564.828H214.952C213.813 565.757 212.643 566.567 211.413 567.287H399.509C400.199 567.287 400.739 566.747 400.739 566.057C400.709 565.398 400.169 564.828 399.479 564.828Z" fill="black" style="fill:black;fill-opacity:1;"/>
<path d="M399.479 546.051H255.715C253.196 546.891 250.646 547.701 248.096 548.511H399.479C400.169 548.511 400.709 547.971 400.709 547.281C400.709 546.621 400.169 546.051 399.479 546.051Z" fill="black" style="fill:black;fill-opacity:1;"/>
<path d="M399.479 527.274H286.939C286.07 528.114 285.17 528.924 284.3 529.734H399.509C400.199 529.734 400.739 529.194 400.739 528.504C400.709 527.844 400.169 527.274 399.479 527.274Z" fill="black" style="fill:black;fill-opacity:1;"/>
<path d="M399.479 508.498H317.234C316.244 509.038 315.284 509.578 314.325 510.148C313.875 510.418 313.425 510.688 312.975 510.927H399.509C400.199 510.927 400.739 510.388 400.739 509.698C400.709 509.068 400.169 508.498 399.479 508.498Z" fill="black" style="fill:black;fill-opacity:1;"/>
<path d="M399.479 489.721H356.827C355.867 490.591 354.877 491.401 353.887 492.181H399.479C400.169 492.181 400.709 491.641 400.709 490.951C400.709 490.261 400.169 489.721 399.479 489.721Z" fill="black" style="fill:black;fill-opacity:1;"/>
<path d="M451.49 243.526C449.6 243.526 447.74 244.156 446.241 245.266C443.751 241.186 439.282 238.637 434.483 238.637C431.633 238.637 428.844 239.537 426.534 241.186C422.875 237.017 417.656 234.647 412.077 234.647C408.087 234.647 404.368 235.877 401.309 237.947V241.006C404.218 238.547 407.997 237.077 412.077 237.077C417.296 237.077 422.155 239.477 425.364 243.616C425.574 243.886 425.874 244.036 426.204 244.096C426.534 244.126 426.864 244.036 427.134 243.796C429.174 242.056 431.783 241.066 434.483 241.066C438.892 241.066 442.941 243.676 444.801 247.695C444.981 248.055 445.311 248.325 445.731 248.385C446.121 248.445 446.541 248.325 446.81 248.025C448.04 246.705 449.72 245.985 451.52 245.985C455.089 245.985 457.968 248.895 457.968 252.434C457.968 256.004 455.059 258.883 451.52 258.883C449.72 258.883 448.04 258.163 446.81 256.843C446.541 256.543 446.121 256.394 445.731 256.483C445.341 256.543 444.981 256.813 444.801 257.173C442.941 261.193 438.922 263.802 434.483 263.802C432.293 263.802 430.163 263.172 428.304 261.972C428.034 261.793 427.674 261.733 427.344 261.823C427.014 261.913 426.744 262.092 426.564 262.392C423.565 267.551 417.986 270.761 412.047 270.761C407.938 270.761 404.188 269.291 401.279 266.832V269.891C404.368 271.991 408.057 273.19 412.047 273.19C418.436 273.19 424.465 269.951 428.034 264.672C430.014 265.722 432.203 266.262 434.453 266.262C439.282 266.262 443.721 263.712 446.211 259.633C447.74 260.743 449.57 261.373 451.46 261.373C456.379 261.373 460.368 257.383 460.368 252.464C460.398 247.515 456.409 243.526 451.49 243.526Z" fill="black" style="fill:black;fill-opacity:1;"/>
<path d="M349.778 152.582C351.668 152.582 353.527 151.952 355.027 150.843C357.517 154.922 361.986 157.471 366.785 157.471C369.634 157.471 372.424 156.572 374.734 154.922C378.393 159.091 383.612 161.461 389.191 161.461C393.18 161.461 396.9 160.231 399.959 158.161V155.102C397.05 157.561 393.27 159.031 389.191 159.031C383.972 159.031 379.113 156.632 375.903 152.492C375.693 152.222 375.393 152.072 375.064 152.012C374.734 151.982 374.404 152.072 374.134 152.312C372.094 154.052 369.485 155.042 366.785 155.042C362.376 155.042 358.327 152.432 356.467 148.413C356.287 148.053 355.957 147.783 355.537 147.723C355.147 147.663 354.727 147.783 354.457 148.083C353.227 149.403 351.548 150.123 349.748 150.123C346.179 150.123 343.299 147.213 343.299 143.674C343.299 140.105 346.209 137.225 349.748 137.225C351.548 137.225 353.227 137.945 354.457 139.265C354.727 139.565 355.147 139.715 355.537 139.625C355.927 139.565 356.287 139.295 356.467 138.935C358.327 134.915 362.346 132.306 366.785 132.306C368.975 132.306 371.104 132.936 372.964 134.136C373.234 134.316 373.594 134.376 373.924 134.286C374.254 134.196 374.524 134.016 374.704 133.716C377.703 128.557 383.282 125.347 389.221 125.347C393.33 125.347 397.08 126.817 399.989 129.277V126.277C396.9 124.177 393.21 122.978 389.221 122.978C382.832 122.978 376.803 126.217 373.234 131.496C371.254 130.446 369.065 129.906 366.815 129.906C361.986 129.906 357.547 132.456 355.057 136.535C353.527 135.425 351.698 134.796 349.808 134.796C344.889 134.796 340.9 138.785 340.9 143.704C340.87 148.593 344.889 152.582 349.778 152.582Z" fill="black" style="fill:black;fill-opacity:1;"/>
<path d="M306.586 291.727C306.526 291.727 306.466 291.727 306.406 291.697C305.866 291.607 305.446 291.187 305.386 290.647C305.086 288.218 304.156 286.658 302.567 285.818C298.307 283.539 290.689 287.288 290.629 287.318C290.029 287.618 289.279 287.378 288.979 286.778C288.679 286.178 288.919 285.428 289.519 285.128C289.879 284.948 298.307 280.809 303.706 283.659C305.266 284.469 306.376 285.788 307.096 287.528C308.326 286.028 310.305 284.199 313.185 283.329C317.204 282.099 321.793 283.059 326.802 286.148C327.372 286.508 327.552 287.258 327.192 287.828C326.832 288.398 326.082 288.578 325.512 288.218C321.133 285.518 317.234 284.649 313.905 285.638C309.615 286.928 307.696 290.947 307.696 290.977C307.516 291.457 307.066 291.727 306.586 291.727Z" fill="black" style="fill:black;fill-opacity:1;"/>
<path d="M453.739 178.198C453.709 178.198 453.649 178.198 453.619 178.198C453.259 178.138 452.989 177.868 452.959 177.508C452.749 175.948 452.15 174.898 451.13 174.358C448.37 172.889 443.421 175.318 443.361 175.318C442.971 175.528 442.491 175.348 442.281 174.958C442.071 174.568 442.251 174.088 442.641 173.878C442.881 173.758 448.37 171.059 451.85 172.919C452.869 173.459 453.589 174.298 454.039 175.438C454.849 174.448 456.139 173.279 457.998 172.709C460.608 171.929 463.577 172.529 466.847 174.538C467.207 174.778 467.327 175.258 467.117 175.618C466.877 175.978 466.397 176.098 466.037 175.888C463.188 174.148 460.668 173.578 458.508 174.208C455.719 175.048 454.489 177.658 454.459 177.688C454.309 178.018 454.039 178.198 453.739 178.198Z" fill="black" style="fill:black;fill-opacity:1;"/>
<path d="M343.509 217.971C343.479 217.971 343.419 217.971 343.389 217.971C343.029 217.911 342.759 217.641 342.729 217.281C342.519 215.721 341.919 214.671 340.9 214.131C338.14 212.662 333.191 215.091 333.131 215.091C332.741 215.301 332.261 215.121 332.051 214.731C331.841 214.341 332.021 213.861 332.411 213.651C332.651 213.531 338.14 210.832 341.62 212.692C342.639 213.231 343.359 214.071 343.809 215.211C344.619 214.221 345.909 213.051 347.768 212.482C350.378 211.702 353.347 212.302 356.617 214.311C356.977 214.551 357.097 215.031 356.887 215.391C356.647 215.751 356.167 215.871 355.807 215.661C352.957 213.921 350.438 213.351 348.278 213.981C345.489 214.821 344.259 217.431 344.229 217.461C344.109 217.791 343.839 217.971 343.509 217.971Z" fill="black" style="fill:black;fill-opacity:1;"/>
<path d="M648.464 435.101H403.738V437.561H649.754C649.244 436.751 648.824 435.911 648.464 435.101Z" fill="black" style="fill:black;fill-opacity:1;"/>
<path d="M444.801 1283.2H400.499V1285.66H442.971C443.571 1284.85 444.171 1284.04 444.801 1283.2Z" fill="black" style="fill:black;fill-opacity:1;"/>
<path d="M455.599 1264.42H400.469V1266.88H453.529C454.219 1266.04 454.909 1265.23 455.599 1264.42Z" fill="black" style="fill:black;fill-opacity:1;"/>
<path d="M469.726 1245.64H400.469V1248.1H468.347C468.826 1247.29 469.306 1246.48 469.726 1245.64Z" fill="black" style="fill:black;fill-opacity:1;"/>
<path d="M479.265 1226.87H400.469V1229.33H477.765C478.245 1228.49 478.785 1227.68 479.265 1226.87Z" fill="black" style="fill:black;fill-opacity:1;"/>
<path d="M444.801 1283.2H400.499V1285.66H442.971C443.571 1284.85 444.171 1284.04 444.801 1283.2Z" fill="black" style="fill:black;fill-opacity:1;"/>
<path d="M415.016 1320.78H400.499V1323.24H413.337C413.876 1322.4 414.446 1321.59 415.016 1320.78Z" fill="black" style="fill:black;fill-opacity:1;"/>
<path d="M429.834 1301.97H400.469V1304.43H427.764C428.484 1303.62 429.174 1302.81 429.834 1301.97Z" fill="black" style="fill:black;fill-opacity:1;"/>
<path d="M444.801 1283.2H400.499V1285.66H442.971C443.571 1284.85 444.171 1284.04 444.801 1283.2Z" fill="black" style="fill:black;fill-opacity:1;"/>
<path d="M329.472 1240.45V1214.9H325.572V1235.39C327.102 1236.8 328.422 1238.51 329.472 1240.45Z" fill="black" style="fill:black;fill-opacity:1;"/>
<path d="M359.466 1282.15V1214.87H355.567V1278.76C357.037 1279.57 358.386 1280.68 359.466 1282.15Z" fill="black" style="fill:black;fill-opacity:1;"/>
<path d="M385.832 1324.89C387.061 1326.24 388.291 1327.65 389.461 1329.12V1214.9H385.562V1324.62C385.652 1324.71 385.772 1324.77 385.832 1324.89Z" fill="black" style="fill:black;fill-opacity:1;"/>
<path d="M390.691 1330.59V1214.9H388.231V1327.59C389.071 1328.55 389.881 1329.54 390.691 1330.59Z" fill="black" style="fill:black;fill-opacity:1;"/>
<path d="M694.506 838.198C692.616 838.198 690.756 838.828 689.256 839.938C687.997 837.898 686.257 836.249 684.217 835.109C683.617 835.739 682.988 836.339 682.298 836.878C684.667 837.988 686.647 839.938 687.787 842.397C687.967 842.757 688.297 843.027 688.717 843.087C689.106 843.147 689.526 843.027 689.796 842.727C691.026 841.408 692.706 840.688 694.506 840.688C698.075 840.688 700.954 843.597 700.954 847.137C700.954 850.706 698.045 853.585 694.506 853.585C692.706 853.585 691.026 852.865 689.796 851.546C689.526 851.246 689.106 851.096 688.717 851.186C688.327 851.246 687.967 851.516 687.787 851.876C685.927 855.895 681.908 858.504 677.469 858.504C674.769 858.504 672.16 857.545 670.12 855.775C669.88 855.565 669.55 855.475 669.19 855.475C668.86 855.505 668.56 855.685 668.35 855.955C665.141 860.124 660.282 862.494 655.063 862.494C650.953 862.494 647.204 861.024 644.295 858.564V861.624C647.384 863.724 651.073 864.923 655.063 864.923C660.642 864.923 665.831 862.554 669.52 858.384C671.83 860.034 674.619 860.934 677.469 860.934C682.298 860.934 686.737 858.385 689.226 854.305C690.756 855.415 692.586 856.045 694.476 856.045C699.395 856.045 703.384 852.056 703.384 847.137C703.414 842.187 699.425 838.198 694.506 838.198Z" fill="black" style="fill:black;fill-opacity:1;"/>
<path d="M628.188 1011.45C625.338 1010.01 622.879 1007.79 621.229 1004.94C621.049 1004.64 620.779 1004.43 620.449 1004.37C620.119 1004.28 619.789 1004.34 619.489 1004.52C617.659 1005.72 615.5 1006.35 613.31 1006.35C608.901 1006.35 604.852 1003.74 602.992 999.719C602.812 999.359 602.482 999.089 602.062 999.029C601.672 998.969 601.252 999.089 600.982 999.389C599.753 1000.71 598.073 1001.43 596.273 1001.43C592.704 1001.43 589.825 998.519 589.825 994.98C589.825 991.411 592.734 988.531 596.273 988.531C598.073 988.531 599.753 989.251 600.982 990.571C601.252 990.871 601.672 991.021 602.062 990.931C602.452 990.871 602.812 990.601 602.992 990.241C604.852 986.221 608.871 983.612 613.31 983.612C616.01 983.612 618.619 984.572 620.659 986.341C620.899 986.551 621.229 986.641 621.589 986.641C621.919 986.611 622.219 986.431 622.429 986.161C625.638 981.992 630.497 979.623 635.716 979.623C639.825 979.623 643.575 981.092 646.484 983.552V980.493C643.395 978.393 639.705 977.193 635.716 977.193C630.137 977.193 624.948 979.563 621.259 983.732C618.949 982.082 616.16 981.182 613.31 981.182C608.481 981.182 604.042 983.732 601.552 987.811C600.023 986.701 598.193 986.071 596.303 986.071C591.384 986.071 587.395 990.061 587.395 994.98C587.395 999.899 591.384 1003.89 596.303 1003.89C598.193 1003.89 600.053 1003.26 601.552 1002.15C604.042 1006.23 608.511 1008.78 613.31 1008.78C615.56 1008.78 617.749 1008.24 619.729 1007.19C621.559 1009.89 624.018 1012.05 626.868 1013.52C627.258 1012.83 627.678 1012.14 628.188 1011.45Z" fill="black" style="fill:black;fill-opacity:1;"/>
<path d="M101.933 839.758C100.043 839.758 98.1837 840.388 96.6839 841.497C94.1944 837.418 89.7252 834.869 84.9261 834.869C82.6765 834.869 80.4869 835.408 78.5072 836.458C74.9379 831.179 68.939 827.94 62.5201 827.94C58.5309 827.94 54.8115 829.17 51.7521 831.239V834.299C54.6616 831.839 58.4409 830.369 62.5201 830.369C68.4591 830.369 74.0081 833.579 77.0375 838.738C77.2175 839.038 77.4874 839.248 77.8174 839.308C78.1473 839.398 78.4772 839.338 78.7772 839.158C80.6069 837.958 82.7665 837.328 84.9561 837.328C89.3653 837.328 93.4145 839.938 95.2742 843.957C95.4542 844.317 95.7841 844.587 96.204 844.647C96.594 844.707 97.0139 844.587 97.2838 844.287C98.5136 842.967 100.193 842.247 101.993 842.247C105.562 842.247 108.442 845.157 108.442 848.696C108.442 852.265 105.532 855.145 101.993 855.145C100.193 855.145 98.5136 854.425 97.2838 853.105C97.0139 852.805 96.594 852.655 96.204 852.745C95.8141 852.805 95.4542 853.075 95.2742 853.435C93.4145 857.454 89.3953 860.064 84.9561 860.064C82.2566 860.064 79.647 859.104 77.6074 857.334C77.3674 857.124 77.0375 857.035 76.6776 857.035C76.3476 857.065 76.0477 857.245 75.8377 857.515C74.7279 858.954 73.4082 860.154 71.9384 861.144C72.4783 861.744 72.9582 862.374 73.4382 863.093C74.7279 862.194 75.9277 861.174 76.9775 859.944C79.2871 861.594 82.0766 862.494 84.9261 862.494C89.7552 862.494 94.1944 859.944 96.6839 855.865C98.2137 856.975 100.043 857.604 101.933 857.604C106.852 857.604 110.841 853.615 110.841 848.696C110.841 843.747 106.852 839.758 101.933 839.758Z" fill="black" style="fill:black;fill-opacity:1;"/>
<path d="M344.589 988.711C341.979 990.39 338.92 991.38 335.591 991.38C329.652 991.38 324.103 988.171 321.073 983.012C320.893 982.712 320.623 982.502 320.293 982.442C319.963 982.352 319.633 982.412 319.334 982.592C317.504 983.792 315.344 984.421 313.155 984.421C308.745 984.421 304.696 981.812 302.837 977.793C302.657 977.433 302.327 977.163 301.907 977.103C301.517 977.043 301.097 977.163 300.827 977.463C299.597 978.782 297.917 979.502 296.118 979.502C292.548 979.502 289.669 976.593 289.669 973.053C289.669 969.484 292.578 966.605 296.118 966.605C297.917 966.605 299.597 967.325 300.827 968.644C301.097 968.944 301.517 969.094 301.907 969.004C302.297 968.944 302.657 968.674 302.837 968.314C303.766 966.275 305.296 964.595 307.126 963.425C306.376 962.975 305.656 962.465 305.026 961.896C303.586 962.945 302.327 964.295 301.367 965.855C299.837 964.745 298.007 964.115 296.118 964.115C291.199 964.115 287.209 968.104 287.209 973.023C287.209 977.943 291.199 981.932 296.118 981.932C298.007 981.932 299.867 981.302 301.367 980.192C303.856 984.271 308.296 986.821 313.125 986.821C315.374 986.821 317.564 986.281 319.544 985.231C323.113 990.51 329.112 993.75 335.531 993.75C339.52 993.75 343.239 992.52 346.299 990.45C345.729 989.97 345.129 989.341 344.589 988.711Z" fill="black" style="fill:black;fill-opacity:1;"/>
<path d="M535.954 978.183C535.894 978.183 535.834 978.183 535.774 978.153C535.234 978.063 534.814 977.643 534.755 977.103C534.455 974.673 533.525 973.114 531.935 972.274C527.676 969.994 520.057 973.744 519.997 973.774C519.397 974.074 518.647 973.834 518.348 973.234C518.048 972.634 518.288 971.884 518.887 971.584C519.247 971.404 527.676 967.265 533.075 970.114C534.635 970.924 535.744 972.244 536.464 973.984C537.694 972.484 539.674 970.654 542.553 969.784C546.572 968.555 551.162 969.514 556.171 972.604C556.741 972.964 556.921 973.714 556.561 974.284C556.201 974.853 555.451 975.033 554.881 974.673C550.502 971.974 546.602 971.104 543.273 972.094C538.984 973.384 537.064 977.403 537.064 977.463C536.854 977.913 536.404 978.183 535.954 978.183Z" fill="black" style="fill:black;fill-opacity:1;"/>
<path d="M632.957 925.392C632.897 925.392 632.837 925.392 632.777 925.362C632.237 925.272 631.817 924.852 631.757 924.312C631.457 921.883 630.527 920.323 628.937 919.483C624.678 917.204 617.06 920.953 617 920.983C616.4 921.283 615.65 921.043 615.35 920.443C615.05 919.843 615.29 919.093 615.89 918.793C616.25 918.613 624.678 914.474 630.077 917.324C631.637 918.133 632.747 919.453 633.467 921.193C634.696 919.693 636.676 917.864 639.556 916.994C643.575 915.764 648.164 916.724 653.173 919.813C653.743 920.173 653.923 920.923 653.563 921.493C653.203 922.063 652.453 922.243 651.883 921.883C647.504 919.183 643.605 918.313 640.275 919.303C635.986 920.593 634.067 924.612 634.067 924.672C633.857 925.122 633.437 925.392 632.957 925.392Z" fill="black" style="fill:black;fill-opacity:1;"/>
<path d="M142.276 909.105C142.216 909.105 142.156 909.105 142.096 909.075C141.556 908.985 141.136 908.566 141.076 908.026C140.776 905.596 139.846 904.036 138.256 903.196C133.997 900.917 126.379 904.666 126.319 904.696C125.719 904.996 124.969 904.756 124.669 904.156C124.369 903.556 124.609 902.807 125.209 902.507C125.569 902.327 133.997 898.187 139.396 901.037C140.956 901.847 142.066 903.167 142.786 904.906C144.015 903.406 145.995 901.577 148.874 900.707C152.894 899.477 157.483 900.437 162.492 903.526C163.062 903.886 163.242 904.636 162.882 905.206C162.522 905.776 161.772 905.956 161.202 905.596C156.823 902.897 152.924 902.027 149.594 903.017C145.305 904.306 143.385 908.326 143.385 908.356C143.176 908.805 142.726 909.105 142.276 909.105Z" fill="black" style="fill:black;fill-opacity:1;"/>
<path d="M473.716 1123.93C473.446 1123.93 473.266 1123.93 473.206 1123.93C472.366 1123.93 471.706 1123.24 471.736 1122.4C471.766 1121.56 472.366 1120.93 473.266 1120.93C473.566 1120.93 502.21 1121.2 518.468 1109.68C525.636 1104.61 530.015 1086.73 529.116 1066.25C528.246 1046.48 522.097 1022.33 507.46 1013.82C481.214 998.519 464.177 1015.86 464.027 1016.04C463.907 1016.16 463.787 1016.25 463.637 1016.34C449.96 1023.62 448.13 1042.13 446.9 1054.4C446.481 1058.48 446.181 1061.72 445.491 1063.85C442.941 1071.77 442.791 1084.54 445.071 1098.01C447.41 1111.75 440.542 1113.88 436.012 1115.26C435.503 1115.41 434.993 1115.56 434.513 1115.74C433.763 1116.01 433.313 1116.4 433.043 1117C432.353 1118.56 433.103 1121.02 433.463 1121.86C433.793 1122.61 433.433 1123.51 432.683 1123.84C431.933 1124.17 431.033 1123.81 430.703 1123.06C430.523 1122.64 428.964 1118.83 430.313 1115.83C430.913 1114.45 432.053 1113.46 433.553 1112.92C434.063 1112.74 434.603 1112.59 435.143 1112.41C439.702 1111 444.021 1109.68 442.131 1098.52C439.732 1084.39 439.912 1071.41 442.641 1062.92C443.211 1061.12 443.541 1057.85 443.931 1054.1C445.221 1041.26 447.17 1021.88 462.048 1013.79C464.057 1011.84 482.204 995.67 508.989 1011.24C524.646 1020.36 531.215 1045.58 532.115 1066.13C532.925 1084.27 529.536 1105.54 520.207 1112.14C504.13 1123.45 477.855 1123.93 473.716 1123.93Z" fill="black" style="fill:black;fill-opacity:1;"/>
<path d="M463.158 1088.71C461.148 1088.71 458.928 1088.29 456.889 1087.06C453.019 1084.66 450.86 1079.89 450.5 1072.88C450.47 1072.04 451.1 1071.35 451.91 1071.32C452.809 1071.26 453.439 1071.92 453.469 1072.73C453.769 1078.69 455.449 1082.65 458.418 1084.48C461.478 1086.37 465.377 1085.65 467.357 1085.05C465.617 1080.31 462.468 1074.38 459.918 1073.87C457.579 1073.39 455.659 1071.53 454.669 1068.74C452.719 1063.46 454.369 1056.71 459.048 1050.68C466.337 1041.29 462.738 1026.38 462.678 1026.23C462.468 1025.42 462.978 1024.61 463.757 1024.4C464.537 1024.19 465.377 1024.7 465.587 1025.48C465.767 1026.14 469.576 1041.95 461.418 1052.48C456.649 1058.63 456.259 1064.36 457.489 1067.66C458.148 1069.43 459.258 1070.6 460.548 1070.87C466.067 1072.01 469.996 1083.22 470.716 1085.44C470.956 1086.16 470.596 1086.97 469.906 1087.27C469.696 1087.45 466.757 1088.71 463.158 1088.71Z" fill="black" style="fill:black;fill-opacity:1;"/>
<path d="M482.174 1088.65C476.415 1088.65 471.496 1086.67 471.196 1086.55C470.746 1086.37 470.416 1085.98 470.296 1085.53C467.447 1074.17 472.756 1070.48 477.015 1067.51C480.764 1064.93 483.224 1063.19 481.064 1057.04C475.515 1041.26 487.513 1023.5 488.023 1022.75C488.503 1022.06 489.433 1021.89 490.093 1022.36C490.782 1022.84 490.962 1023.77 490.483 1024.43C490.363 1024.61 478.845 1041.71 483.854 1056.02C486.763 1064.33 482.474 1067.3 478.695 1069.94C474.765 1072.67 471.046 1075.25 472.996 1084C475.275 1084.78 482.744 1086.97 488.653 1084.39C491.772 1083.04 494.052 1080.55 495.432 1076.98C495.732 1076.21 496.601 1075.85 497.381 1076.12C498.161 1076.42 498.551 1077.28 498.251 1078.06C496.571 1082.41 493.752 1085.5 489.853 1087.15C487.363 1088.26 484.694 1088.65 482.174 1088.65Z" fill="black" style="fill:black;fill-opacity:1;"/>
<path d="M477.885 1107.49C477.255 1107.49 476.625 1107.49 475.935 1107.46C467.837 1107.25 461.748 1104.88 457.908 1100.44C452.809 1094.56 453.559 1087.27 453.589 1086.97C453.649 1086.43 453.979 1085.98 454.489 1085.77C454.969 1085.56 455.539 1085.62 455.989 1085.95C456.679 1086.46 473.356 1098.49 495.972 1081.69C496.631 1081.21 497.591 1081.33 498.071 1081.99C498.581 1082.65 498.431 1083.61 497.771 1084.09C478.365 1098.46 462.498 1092.82 456.619 1089.79C456.829 1092.07 457.608 1095.55 460.188 1098.49C463.457 1102.24 468.797 1104.25 476.025 1104.43C489.583 1104.82 491.712 1101.46 494.652 1096.84C496.571 1093.84 498.731 1090.45 503.92 1087.36C516.908 1079.65 520.447 1070.96 519.637 1048.58C519.607 1047.74 520.267 1047.05 521.077 1047.02C521.857 1046.93 522.607 1047.65 522.637 1048.46C523.477 1071.92 519.457 1081.63 505.45 1089.94C500.861 1092.67 498.971 1095.61 497.171 1098.46C494.112 1103.29 491.442 1107.49 477.885 1107.49Z" fill="black" style="fill:black;fill-opacity:1;"/>
<path d="M458.088 1042.43C456.259 1042.43 454.039 1042.04 451.43 1040.96C451.04 1040.81 450.77 1040.51 450.62 1040.12C450.47 1039.73 450.47 1039.31 450.65 1038.95C450.89 1038.38 453.289 1033.4 457.459 1033.07C460.098 1032.83 462.648 1034.57 465.047 1038.14C465.437 1038.71 465.377 1039.46 464.897 1039.97C464.777 1040.12 462.588 1042.43 458.088 1042.43ZM454.189 1038.77C458.028 1040 460.458 1039.28 461.718 1038.62C460.608 1037.21 459.258 1035.89 457.729 1036.04C456.289 1036.16 454.999 1037.57 454.189 1038.77Z" fill="black" style="fill:black;fill-opacity:1;"/>
<path d="M494.082 1042.43C489.613 1042.43 487.423 1040.09 487.273 1039.97C486.823 1039.46 486.763 1038.71 487.123 1038.14C489.493 1034.57 492.072 1032.83 494.712 1033.07C498.911 1033.4 501.281 1038.41 501.521 1038.95C501.701 1039.31 501.701 1039.73 501.551 1040.12C501.401 1040.51 501.101 1040.81 500.741 1040.96C498.131 1042.04 495.912 1042.43 494.082 1042.43ZM490.483 1038.62C491.712 1039.28 494.142 1040 498.011 1038.77C497.201 1037.54 495.912 1036.16 494.502 1036.04C492.972 1035.92 491.592 1037.21 490.483 1038.62Z" fill="black" style="fill:black;fill-opacity:1;"/>
<path d="M399.479 1134C400.589 1132.86 401.789 1131.75 403.048 1130.65C418.946 1117.15 461.328 1127.05 495.372 1134.99C503.74 1136.94 511.659 1138.8 518.767 1140.21C519.547 1140.36 520.357 1139.85 520.537 1139.04C520.687 1138.23 520.177 1137.45 519.367 1137.27C512.289 1135.86 504.4 1134 496.062 1132.05C459.558 1123.54 418.166 1113.88 401.099 1128.34C400.529 1128.82 399.989 1129.33 399.449 1129.81V1134H399.479Z" fill="black" style="fill:black;fill-opacity:1;"/>
<path d="M514.718 1175.4C498.791 1175.34 480.374 1170.21 466.367 1163.07C463.427 1161.57 460.728 1160.16 458.208 1158.87C432.893 1145.82 426.084 1142.28 400.619 1146.87C400.079 1146.96 399.689 1147.35 399.509 1147.8V1149.39C399.659 1150.59 399.809 1153.05 399.509 1155.75V1164.69C403.048 1159.77 402.838 1152.63 402.539 1149.54C425.844 1145.52 432.083 1148.73 456.829 1161.51C459.348 1162.8 462.078 1164.21 465.017 1165.71C479.175 1172.94 497.771 1178.13 514.118 1178.31C514.238 1177.32 514.448 1176.36 514.718 1175.4Z" fill="black" style="fill:black;fill-opacity:1;"/>
<path d="M560.04 1109.08C566.129 1090.18 573.118 1075.16 573.238 1074.89C573.597 1074.14 573.268 1073.24 572.518 1072.88C571.768 1072.52 570.868 1072.85 570.508 1073.6C570.358 1073.9 561.69 1092.52 555.181 1114.57C556.501 1112.08 558.15 1110.25 560.04 1109.08Z" fill="black" style="fill:black;fill-opacity:1;"/>
<path d="M523.417 1140.9C522.757 1140.9 522.157 1140.45 521.977 1139.79C521.767 1138.98 522.247 1138.17 523.027 1137.96C523.087 1137.93 529.955 1136.01 532.535 1130.53C534.095 1127.23 533.855 1123.21 531.755 1118.56C526.956 1107.91 534.575 1102.12 540.663 1097.5C545.013 1094.2 548.792 1091.32 547.862 1087.51C545.013 1075.52 551.102 1069.91 562.11 1061.06C563.609 1059.86 564.269 1058.51 564.149 1056.95C563.669 1050.53 551.042 1041.86 546.242 1039.07C545.523 1038.65 545.283 1037.75 545.703 1037.03C546.122 1036.31 547.052 1036.07 547.742 1036.49C549.662 1037.6 566.459 1047.59 567.149 1056.74C567.359 1059.35 566.279 1061.6 563.999 1063.43C552.541 1072.61 548.432 1077.01 550.772 1086.85C552.121 1092.58 547.202 1096.3 542.463 1099.93C536.404 1104.55 530.675 1108.9 534.485 1117.39C536.944 1122.85 537.184 1127.74 535.234 1131.87C532.025 1138.62 524.136 1140.81 523.777 1140.9C523.687 1140.87 523.537 1140.9 523.417 1140.9Z" fill="black" style="fill:black;fill-opacity:1;"/>
<path d="M529.625 1056.89C528.876 1056.89 528.246 1056.35 528.156 1055.6C528.036 1054.79 528.606 1054.01 529.415 1053.92C535.444 1053.08 542.613 1045.58 545.763 1036.88C547.352 1032.44 549.212 1024.1 543.543 1017.87C532.955 1006.2 512.769 1016.37 512.559 1016.49C511.839 1016.88 510.909 1016.58 510.549 1015.83C510.159 1015.08 510.459 1014.18 511.209 1013.82C512.109 1013.34 533.645 1002.51 545.793 1015.86C550.682 1021.25 551.731 1029.29 548.612 1037.9C545.073 1047.71 537.004 1055.9 529.865 1056.89C529.745 1056.89 529.685 1056.89 529.625 1056.89Z" fill="black" style="fill:black;fill-opacity:1;"/>
<path d="M445.611 1053.47C445.131 1053.47 444.651 1053.23 444.351 1052.81C443.841 1052.06 432.173 1034.15 441.411 1021.14C450.65 1008.09 465.017 1011.87 465.167 1011.93C465.977 1012.14 466.427 1012.98 466.217 1013.76C466.007 1014.57 465.197 1015.02 464.387 1014.81C463.877 1014.66 451.88 1011.57 443.871 1022.87C435.832 1034.24 446.75 1051.01 446.87 1051.16C447.32 1051.85 447.14 1052.78 446.451 1053.23C446.181 1053.38 445.911 1053.47 445.611 1053.47Z" fill="black" style="fill:black;fill-opacity:1;"/>
<path d="M527.256 1044.65C526.746 1044.65 526.236 1044.38 525.966 1043.9C525.546 1043.18 525.786 1042.28 526.506 1041.86C529.685 1040 537.724 1034.09 536.584 1028.9C536.374 1028 535.894 1027.37 535.084 1026.89C531.605 1024.85 523.747 1026.53 520.987 1027.34C520.207 1027.58 519.367 1027.13 519.127 1026.32C518.887 1025.54 519.337 1024.7 520.147 1024.46C521.287 1024.13 531.395 1021.22 536.614 1024.28C538.174 1025.18 539.134 1026.53 539.524 1028.24C541.383 1036.64 528.576 1044.14 528.036 1044.44C527.766 1044.59 527.496 1044.65 527.256 1044.65Z" fill="black" style="fill:black;fill-opacity:1;"/>
<path d="M591.234 1063.64C571.258 1052.48 553.111 1039.91 552.811 1039.7C552.121 1039.22 551.192 1039.4 550.712 1040.09C550.232 1040.78 550.412 1041.71 551.102 1042.19C552.301 1043.03 569.908 1055.21 589.495 1066.16C590.004 1065.26 590.604 1064.42 591.234 1063.64Z" fill="black" style="fill:black;fill-opacity:1;"/>
<path d="M443.211 1151.46C442.461 1151.43 441.651 1152 441.591 1152.84C440.902 1161.66 438.682 1167.24 435.173 1168.95C431.663 1170.66 427.674 1168.02 427.644 1167.99C427.104 1167.63 426.354 1167.66 425.874 1168.08C419.006 1173.66 415.166 1170 415.046 1169.85C414.596 1169.37 413.906 1169.25 413.307 1169.52C409.677 1171.23 406.858 1171.47 404.938 1170.24C401.279 1167.87 401.399 1160.85 401.399 1160.76C401.429 1159.92 400.769 1159.23 399.929 1159.23C399.779 1159.23 399.629 1159.26 399.509 1159.32V1167.57C400.229 1169.55 401.399 1171.5 403.288 1172.76C405.988 1174.5 409.497 1174.47 413.756 1172.64C414.716 1173.3 416.456 1174.17 418.826 1174.17C421.015 1174.17 423.775 1173.42 426.954 1171.08C428.724 1172.01 432.623 1173.54 436.492 1171.71C441.111 1169.49 443.841 1163.25 444.621 1153.14C444.651 1152.24 444.051 1151.52 443.211 1151.46Z" fill="black" style="fill:black;fill-opacity:1;"/>
<path d="M515.618 1172.76L399.479 1171.68V1174.68L514.598 1175.76C514.868 1174.71 515.228 1173.72 515.618 1172.76Z" fill="black" style="fill:black;fill-opacity:1;"/>
<path d="M654.703 451.778C653.443 452.588 652.273 453.428 651.133 454.298C647.474 457.027 644.055 459.607 637.066 459.607C630.077 459.607 626.628 457.027 622.969 454.298C619.099 451.388 615.08 448.389 607.101 448.389C599.093 448.389 595.104 451.388 591.204 454.298C587.545 457.027 584.126 459.607 577.107 459.607C570.088 459.607 566.669 457.027 563.009 454.298C559.14 451.388 555.121 448.389 547.142 448.389C539.134 448.389 535.144 451.388 531.245 454.298C527.586 457.027 524.136 459.607 517.148 459.607C510.159 459.607 506.71 457.027 503.05 454.298C499.181 451.388 495.162 448.389 487.183 448.389C479.205 448.389 475.185 451.388 471.316 454.298C467.657 457.027 464.237 459.607 457.219 459.607C450.2 459.607 446.78 457.027 443.121 454.298C439.252 451.388 435.233 448.389 427.254 448.389C419.275 448.389 415.256 451.388 411.387 454.298C407.728 457.027 404.278 459.607 397.289 459.607C390.301 459.607 386.851 457.027 383.222 454.298C379.353 451.388 375.333 448.389 367.325 448.389C359.346 448.389 355.327 451.388 351.458 454.298C347.798 457.027 344.379 459.607 337.39 459.607C330.402 459.607 326.952 457.027 323.323 454.298C319.454 451.388 315.434 448.389 307.456 448.389C299.477 448.389 295.458 451.388 291.589 454.298C287.929 457.027 284.51 459.607 277.521 459.607C270.532 459.607 267.083 457.027 263.454 454.298C259.584 451.388 255.565 448.389 247.587 448.389C239.608 448.389 235.589 451.388 231.719 454.298C228.45 456.757 225.361 459.067 219.752 459.517V462.516C226.35 462.036 230.01 459.337 233.519 456.697C237.178 453.968 240.598 451.388 247.587 451.388C254.575 451.388 258.025 453.968 261.654 456.697C265.523 459.607 269.543 462.606 277.521 462.606C285.5 462.606 289.519 459.607 293.388 456.697C297.048 453.968 300.467 451.388 307.456 451.388C314.444 451.388 317.894 453.968 321.523 456.697C325.392 459.607 329.412 462.606 337.39 462.606C345.369 462.606 349.388 459.607 353.257 456.697C356.917 453.968 360.336 451.388 367.325 451.388C374.314 451.388 377.763 453.968 381.392 456.697C385.262 459.607 389.281 462.606 397.259 462.606C405.268 462.606 409.257 459.607 413.157 456.697C416.816 453.968 420.235 451.388 427.254 451.388C434.273 451.388 437.692 453.968 441.351 456.697C445.221 459.607 449.24 462.606 457.219 462.606C465.197 462.606 469.216 459.607 473.086 456.697C476.745 453.968 480.164 451.388 487.183 451.388C494.202 451.388 497.621 453.968 501.281 456.697C505.15 459.607 509.169 462.606 517.178 462.606C525.186 462.606 529.176 459.607 533.075 456.697C536.734 453.968 540.184 451.388 547.172 451.388C554.161 451.388 557.61 453.968 561.27 456.697C565.139 459.607 569.158 462.606 577.167 462.606C585.145 462.606 589.165 459.607 593.034 456.697C596.693 453.968 600.143 451.388 607.131 451.388C614.12 451.388 617.57 453.968 621.229 456.697C625.098 459.607 629.117 462.606 637.096 462.606C645.075 462.606 649.094 459.607 652.963 456.697C654.103 455.857 655.213 455.017 656.413 454.298C655.813 453.458 655.273 452.618 654.703 451.778Z" fill="black" style="fill:black;fill-opacity:1;"/>
<path d="M367.325 478.563C359.346 478.563 355.327 481.563 351.458 484.472C347.798 487.202 344.379 489.781 337.39 489.781C330.402 489.781 326.952 487.202 323.323 484.472C319.454 481.563 315.434 478.563 307.456 478.563C299.477 478.563 295.458 481.563 291.589 484.472C287.929 487.202 284.51 489.781 277.521 489.781C270.532 489.781 267.083 487.202 263.454 484.472C259.584 481.563 255.565 478.563 247.587 478.563C239.608 478.563 235.589 481.563 231.719 484.472C228.06 487.202 224.641 489.781 217.652 489.781C213.693 489.781 210.873 488.941 208.504 487.711V491.041C210.933 492.091 213.843 492.781 217.652 492.781C225.631 492.781 229.65 489.781 233.519 486.872C237.178 484.142 240.598 481.563 247.587 481.563C254.575 481.563 258.025 484.142 261.654 486.872C265.523 489.781 269.543 492.781 277.521 492.781C285.5 492.781 289.519 489.781 293.388 486.872C297.048 484.142 300.467 481.563 307.456 481.563C314.444 481.563 317.894 484.142 321.523 486.872C325.392 489.781 329.412 492.781 337.39 492.781C345.369 492.781 349.388 489.781 353.257 486.872C356.917 484.142 360.336 481.563 367.325 481.563C367.745 481.563 368.135 481.593 368.525 481.623C369.394 480.633 370.294 479.703 371.314 478.893C370.084 478.683 368.795 478.563 367.325 478.563Z" fill="black" style="fill:black;fill-opacity:1;"/>
<path d="M672.639 479.163C670.99 478.803 669.16 478.563 667.001 478.563C659.022 478.563 655.003 481.563 651.133 484.472C647.474 487.202 644.055 489.781 637.066 489.781C630.077 489.781 626.628 487.202 622.968 484.472C619.099 481.563 615.08 478.563 607.101 478.563C599.093 478.563 595.104 481.563 591.204 484.472C587.545 487.202 584.126 489.781 577.107 489.781C570.088 489.781 566.669 487.202 563.009 484.472C559.14 481.563 555.121 478.563 547.142 478.563C539.134 478.563 535.144 481.563 531.245 484.472C527.586 487.202 524.136 489.781 517.148 489.781C510.159 489.781 506.71 487.202 503.05 484.472C499.181 481.563 495.162 478.563 487.183 478.563C479.205 478.563 475.185 481.563 471.316 484.472C467.657 487.202 464.237 489.781 457.219 489.781C450.2 489.781 446.78 487.202 443.121 484.472C439.402 481.683 435.532 478.833 428.214 478.593C429.864 479.793 431.483 481.053 433.103 482.312C436.492 483.272 438.862 485.012 441.321 486.872C445.191 489.781 449.21 492.781 457.189 492.781C465.167 492.781 469.186 489.781 473.056 486.872C476.715 484.142 480.134 481.563 487.153 481.563C494.172 481.563 497.591 484.142 501.251 486.872C505.12 489.781 509.139 492.781 517.148 492.781C525.156 492.781 529.146 489.781 533.045 486.872C536.704 484.142 540.154 481.563 547.142 481.563C554.131 481.563 557.58 484.142 561.24 486.872C565.109 489.781 569.128 492.781 577.137 492.781C585.115 492.781 589.135 489.781 593.004 486.872C596.663 484.142 600.113 481.563 607.101 481.563C614.09 481.563 617.539 484.142 621.199 486.872C625.068 489.781 629.087 492.781 637.066 492.781C645.044 492.781 649.064 489.781 652.933 486.872C656.592 484.142 660.012 481.563 667.031 481.563C670.45 481.563 672.999 482.192 675.189 483.152C674.319 481.803 673.479 480.483 672.639 479.163Z" fill="black" style="fill:black;fill-opacity:1;"/>
<path d="M697.655 519.956C697.415 519.956 697.205 519.986 696.965 519.986C689.976 519.986 686.527 517.406 682.868 514.677C678.998 511.767 674.979 508.768 666.971 508.768C658.992 508.768 654.973 511.767 651.103 514.677C647.444 517.406 644.025 519.986 637.036 519.986C630.047 519.986 626.598 517.406 622.939 514.677C619.069 511.767 615.05 508.768 607.071 508.768C599.063 508.768 595.074 511.767 591.174 514.677C587.515 517.406 584.096 519.986 577.077 519.986C570.058 519.986 566.639 517.406 562.979 514.677C559.11 511.767 555.091 508.768 547.112 508.768C539.104 508.768 535.114 511.767 531.215 514.677C527.556 517.406 524.106 519.986 517.118 519.986C510.129 519.986 506.68 517.406 503.02 514.677C499.151 511.767 495.132 508.768 487.153 508.768C484.064 508.768 481.574 509.218 479.445 509.937C481.094 510.597 482.774 511.257 484.424 511.917C485.263 511.827 486.163 511.767 487.153 511.767C494.142 511.767 497.591 514.347 501.251 517.076C505.12 519.986 509.139 522.985 517.148 522.985C525.156 522.985 529.146 519.986 533.045 517.076C536.704 514.347 540.154 511.767 547.142 511.767C554.131 511.767 557.58 514.347 561.24 517.076C565.109 519.986 569.128 522.985 577.137 522.985C585.115 522.985 589.135 519.986 593.004 517.076C596.663 514.347 600.113 511.767 607.101 511.767C614.09 511.767 617.539 514.347 621.199 517.076C625.068 519.986 629.087 522.985 637.066 522.985C645.044 522.985 649.064 519.986 652.933 517.076C656.592 514.347 660.012 511.767 667.031 511.767C674.049 511.767 677.469 514.347 681.128 517.076C684.997 519.986 689.017 522.985 697.025 522.985C697.865 522.985 698.645 522.925 699.425 522.865C698.795 521.905 698.225 520.946 697.655 519.956Z" fill="black" style="fill:black;fill-opacity:1;"/>
<path d="M307.426 508.738C299.447 508.738 295.428 511.737 291.559 514.647C287.899 517.376 284.48 519.956 277.491 519.956C270.502 519.956 267.053 517.376 263.424 514.647C259.554 511.737 255.535 508.738 247.557 508.738C239.578 508.738 235.559 511.737 231.689 514.647C228.03 517.376 224.611 519.956 217.622 519.956C213.453 519.956 210.543 519.026 208.084 517.706V521.066C210.573 522.205 213.603 522.955 217.622 522.955C225.601 522.955 229.62 519.956 233.489 517.046C237.148 514.317 240.568 511.737 247.557 511.737C254.545 511.737 257.995 514.317 261.624 517.046C265.493 519.956 269.513 522.955 277.491 522.955C285.47 522.955 289.489 519.956 293.358 517.046C297.018 514.317 300.437 511.737 307.426 511.737C308.955 511.737 310.305 511.887 311.565 512.097C312.675 511.317 313.785 510.537 314.924 509.818C312.825 509.188 310.395 508.738 307.426 508.738Z" fill="black" style="fill:black;fill-opacity:1;"/>
<path d="M711.842 544.281C711.572 544.491 711.303 544.671 711.063 544.881C707.403 547.611 703.954 550.19 696.965 550.19C689.976 550.19 686.527 547.611 682.868 544.881C678.998 541.972 674.979 538.972 666.971 538.972C658.992 538.972 654.973 541.972 651.103 544.881C647.444 547.611 644.025 550.19 637.036 550.19C630.047 550.19 626.598 547.611 622.939 544.881C619.069 541.972 615.05 538.972 607.071 538.972C599.063 538.972 595.074 541.972 591.174 544.881C587.515 547.611 584.096 550.19 577.077 550.19C570.058 550.19 566.639 547.611 562.979 544.881C559.11 541.972 555.091 538.972 547.112 538.972C544.623 538.972 542.583 539.272 540.753 539.782C542.103 540.502 543.393 541.282 544.623 542.092C545.403 542.002 546.242 541.972 547.112 541.972C554.101 541.972 557.55 544.551 561.21 547.281C565.079 550.19 569.098 553.19 577.107 553.19C585.085 553.19 589.105 550.19 592.974 547.281C596.633 544.551 600.083 541.972 607.071 541.972C614.06 541.972 617.51 544.551 621.169 547.281C625.038 550.19 629.057 553.19 637.036 553.19C645.015 553.19 649.034 550.19 652.903 547.281C656.562 544.551 659.982 541.972 667.001 541.972C674.019 541.972 677.439 544.551 681.098 547.281C684.967 550.19 688.987 553.19 696.995 553.19C705.004 553.19 708.993 550.19 712.892 547.281C713.042 547.161 713.222 547.041 713.372 546.921C712.862 546.021 712.352 545.151 711.842 544.281Z" fill="black" style="fill:black;fill-opacity:1;"/>
<path d="M105.292 548.81C103.253 549.62 100.823 550.16 97.7038 550.16C92.9047 550.16 89.7852 548.93 87.1157 547.281C86.8457 548.331 86.5158 549.29 86.1859 550.22C89.0653 551.9 92.5447 553.16 97.7038 553.16C100.733 553.16 103.193 552.71 105.292 552.02V548.81Z" fill="black" style="fill:black;fill-opacity:1;"/>
<path d="M247.497 538.942C239.518 538.942 235.499 541.942 231.63 544.851C227.97 547.581 224.551 550.16 217.562 550.16C213.393 550.16 210.483 549.23 208.024 547.911V551.27C210.513 552.41 213.543 553.16 217.562 553.16C225.541 553.16 229.56 550.16 233.429 547.251C237.089 544.521 240.508 541.942 247.497 541.942C251.126 541.942 253.765 542.632 256.015 543.681C256.765 542.932 257.515 542.182 258.295 541.462C255.565 540.022 252.236 538.942 247.497 538.942Z" fill="black" style="fill:black;fill-opacity:1;"/>
<path d="M105.292 579.015C103.253 579.825 100.823 580.365 97.7038 580.365C90.715 580.365 87.2657 577.785 83.6363 575.056C80.9068 573.016 78.0573 570.946 73.8281 569.897C73.3482 570.826 72.8383 571.756 72.3284 572.686C76.3776 573.556 79.0771 575.446 81.8067 577.485C85.6759 580.395 89.6952 583.394 97.6738 583.394C100.703 583.394 103.163 582.944 105.262 582.254V579.015H105.292Z" fill="black" style="fill:black;fill-opacity:1;"/>
<path d="M723.57 569.357C717.751 570.077 714.332 572.566 711.033 575.056C707.373 577.785 703.924 580.365 696.935 580.365C689.947 580.365 686.497 577.785 682.838 575.056C678.969 572.146 674.949 569.147 666.941 569.147C658.962 569.147 654.943 572.146 651.074 575.056C647.414 577.785 643.995 580.365 637.006 580.365C630.017 580.365 626.568 577.785 622.909 575.056C619.039 572.146 615.02 569.147 607.042 569.147C603.262 569.147 600.413 569.837 597.983 570.857C598.973 571.546 599.903 572.266 600.833 573.046C602.572 572.506 604.582 572.176 607.042 572.176C614.03 572.176 617.48 574.756 621.139 577.485C625.008 580.395 629.028 583.394 637.006 583.394C644.985 583.394 649.004 580.395 652.873 577.485C656.533 574.756 659.952 572.176 666.971 572.176C673.989 572.176 677.409 574.756 681.068 577.485C684.937 580.395 688.957 583.394 696.965 583.394C704.974 583.394 708.963 580.395 712.862 577.485C716.192 574.996 719.371 572.656 725.16 572.236C724.56 571.276 724.05 570.347 723.57 569.357Z" fill="black" style="fill:black;fill-opacity:1;"/>
<path d="M105.292 609.19C103.253 609.999 100.823 610.539 97.7037 610.539C90.715 610.539 87.2656 607.96 83.6363 605.23C79.767 602.321 75.7477 599.321 67.7692 599.321C62.1002 599.321 58.4409 600.851 55.4114 602.771C54.7815 604 54.1516 605.23 53.5517 606.46C53.2218 607.12 52.9219 607.81 52.5919 608.47C52.9519 608.2 53.3418 607.93 53.7017 607.66C57.3611 604.93 60.7804 602.351 67.7692 602.351C74.7579 602.351 78.2073 604.93 81.8366 607.66C85.7059 610.569 89.7252 613.569 97.7037 613.569C100.733 613.569 103.193 613.119 105.292 612.429V609.19Z" fill="black" style="fill:black;fill-opacity:1;"/>
<path d="M748.016 608.62C746.096 607.66 744.476 606.49 742.857 605.23C738.987 602.321 734.968 599.321 726.96 599.321C718.951 599.321 714.962 602.321 711.063 605.23C707.403 607.96 703.954 610.539 696.965 610.539C689.976 610.539 686.527 607.96 682.868 605.23C678.998 602.321 674.979 599.321 666.97 599.321C660.462 599.321 656.592 601.331 653.293 603.641C654.193 604.27 655.093 604.87 655.993 605.44C658.752 603.671 661.931 602.321 666.97 602.321C673.959 602.321 677.409 604.9 681.068 607.63C684.937 610.539 688.956 613.539 696.965 613.539C704.974 613.539 708.963 610.539 712.862 607.63C716.522 604.9 719.971 602.321 726.96 602.321C733.948 602.321 737.398 604.9 741.057 607.63C743.427 609.399 745.856 611.199 749.186 612.339C748.706 611.139 748.316 609.909 748.016 608.62Z" fill="black" style="fill:black;fill-opacity:1;"/>
<path d="M67.7392 629.496C59.7606 629.496 55.7413 632.495 51.872 635.405C48.2127 638.134 44.7933 640.714 37.8046 640.714C36.6948 640.714 35.705 640.624 34.7751 640.504C33.8153 641.374 32.7955 642.214 31.7157 642.993C33.4854 643.443 35.465 643.713 37.8046 643.713C45.7831 643.713 49.8024 640.714 53.7017 637.804C57.3611 635.075 60.7804 632.495 67.7692 632.495C74.7579 632.495 78.2073 635.075 81.8366 637.804C81.9866 637.894 82.1066 638.014 82.2565 638.104C82.9164 637.384 83.6663 636.695 84.5361 636.065C84.2362 635.855 83.9362 635.615 83.6363 635.405C79.737 632.525 75.7177 629.496 67.7392 629.496Z" fill="black" style="fill:black;fill-opacity:1;"/>
<path d="M764.633 639.364C762.563 640.204 760.134 640.774 756.924 640.774C749.936 640.774 746.486 638.194 742.827 635.465C738.958 632.555 734.938 629.556 726.93 629.556C720.841 629.556 717.061 631.295 713.912 633.425C714.812 634.025 715.712 634.655 716.552 635.315C719.191 633.725 722.251 632.555 726.93 632.555C733.918 632.555 737.368 635.135 741.027 637.864C744.896 640.774 748.916 643.773 756.924 643.773C760.824 643.773 763.793 643.053 766.223 641.974C765.743 641.074 765.233 640.204 764.633 639.364Z" fill="black" style="fill:black;fill-opacity:1;"/>
</svg>
