<?xml version="1.0" encoding="UTF-8"?>
<svg id="Primo_piano" data-name="Primo piano" xmlns="http://www.w3.org/2000/svg" xmlns:xlink="http://www.w3.org/1999/xlink" viewBox="0 0 228.77 215.43">
  <defs>
    <style>
      .cls-1 {
        clip-path: url(#clippath);
      }

      .cls-2 {
        fill: none;
      }

      .cls-2, .cls-3, .cls-4, .cls-5, .cls-6 {
        stroke-width: 0px;
      }

      .cls-3, .cls-4 {
        fill: #00539f;
      }

      .cls-3, .cls-5 {
        fill-rule: evenodd;
      }

      .cls-5 {
        fill: #e11b22;
      }

      .cls-6 {
        fill: #fff;
      }
    </style>
    <clipPath id="clippath">
      <path class="cls-2" d="M146.33,136.31h-21.25c-5.76,0-10.45,4.58-10.62,10.3-.17-5.72-4.87-10.3-10.63-10.3h-21.24c-5.87,0-10.63-4.76-10.63-10.62V33.08h84.85v92.61c0,5.87-4.61,10.62-10.48,10.62h0Z"/>
    </clipPath>
  </defs>
  <path class="cls-2" d="M146.33,136.31h-21.25c-5.76,0-10.45,4.58-10.62,10.3-.17-5.72-4.87-10.3-10.63-10.3h-21.24c-5.87,0-10.63-4.76-10.63-10.62V33.08h84.85v92.61c0,5.87-4.61,10.62-10.48,10.62h0Z"/>
  <g>
    <polygon class="cls-4" points="0 163.06 228.77 163.06 228.77 193.41 0 193.41 0 163.06 0 163.06"/>
    <g>
      <polygon class="cls-4" points="29.35 0 199.43 0 199.43 215.43 29.35 215.43 29.35 0 29.35 0"/>
      <g>
        <g>
          <polygon class="cls-6" points="1 164.06 227.77 164.06 227.77 192.41 1 192.41 1 164.06 1 164.06"/>
          <g>
            <path class="cls-3" d="M13.69,186.87c.69-.05,1.41-.13,2.11-.13s1.39.08,2.08.13c-1.69-2.94-3.45-5.9-4.93-8.84,2.29-.65,3.59-2.26,3.59-4.78,0-1.53-.58-2.68-1.5-3.43-.81-.65-1.67-.88-4-.88-1.57,0-2.57.13-3.4.13-.76,0-1.39-.08-1.9-.13.14,2.29.19,4.29.19,7.2v3.54c0,2.91-.05,4.91-.19,7.2.51-.05,1.13-.13,1.9-.13s1.39.08,1.9.13c-.14-2.29-.19-4.29-.19-7.2v-1.07h.21l4.14,8.27ZM12.99,173.82c0,2.44-1.11,3.72-3.15,3.72-.16,0-.32-.03-.51-.05,0-2.37.02-4.71.07-7.07,2.52,0,3.59.34,3.59,3.41Z"/>
            <path class="cls-3" d="M19.56,179.67c0,2.91-.05,4.91-.19,7.2.51-.05,1.13-.13,4.91-.13,2.13,0,3.22.1,4.05.13-.05-.31-.09-.57-.09-1.12s.05-.81.09-1.17c-1.78.23-3.56.34-5.3.34-.05-1.04-.07-2.16-.07-3.25s.02-2.24.02-3.33c1.76,0,3.49.08,5.25.23-.07-.55-.12-.78-.12-1.07,0-.34.02-.57.12-1.17-1.76.1-3.24.16-5.25.21,0-1.9,0-3.77.12-5.67.69,0,3.47.18,5.23.31-.05-.39-.09-.62-.09-1.17,0-.47.05-.78.09-1.09-.62.08-2.57.13-4.84.13-1.37,0-2.75-.1-4.12-.13.14,2.29.19,4.29.19,7.2v3.54Z"/>
            <path class="cls-3" d="M44.6,172.81c.14-.88.39-1.77.65-2.65-1.67-.99-3.24-1.56-5.58-1.56-5.44,0-9.58,3.3-9.58,9.91,0,5.3,3.82,8.71,9.14,8.71,2.04,0,4.17-.49,6.18-1.14-.05-.39-.07-1.77-.07-2.86,0-1.66.07-3.82.19-4.37-.3.05-.76.13-1.87.13-.95,0-1.41-.08-1.71-.13.02.49.16,1.66.16,4.47,0,.75,0,1.4-.07,1.82-.37.29-1.74.47-2.52.47-3.56,0-5.62-3.12-5.62-7.25,0-5.46,2.96-8.14,5.83-8.14,2.11,0,3.59,1.04,4.56,2.6h.32Z"/>
            <path class="cls-3" d="M48.88,179.67c0,2.91-.05,4.91-.19,7.2.51-.05,1.13-.13,1.9-.13s1.39.08,1.9.13c-.14-2.29-.18-4.29-.18-7.2v-3.54c0-2.91.05-4.91.18-7.2-.51.05-1.13.13-1.9.13s-1.39-.08-1.9-.13c.14,2.29.19,4.29.19,7.2v3.54Z"/>
            <path class="cls-3" d="M54.96,177.9c0,6.5,3.93,9.31,8.82,9.31,5.16,0,8.84-4.19,8.84-9.33,0-6.27-3.86-9.28-8.77-9.28-5.37,0-8.89,4.19-8.89,9.31ZM68.82,177.33c0,5.67-2.43,8.27-5.21,8.27-2.59,0-4.86-1.92-4.86-7.46,0-4.47,1.85-8.06,5.02-8.06,2.98,0,5.04,2.76,5.04,7.25Z"/>
            <path class="cls-3" d="M75.41,174.11c0,5.3-.35,12.01-.46,12.77.35-.08.72-.13,1.06-.13s.72.05,1.09.13c-.07-.96-.14-2.42-.14-6.58,0-1.95,0-4.11.05-6.06,3.56,4.21,6.94,8.42,10.11,12.64.28-.08.58-.13.9-.13s.62.05.95.13c0-6.92,0-10.37.37-17.94-.35.08-.69.13-1.04.13s-.69-.05-1.04-.13c.16,1.17.16,8.24.16,12.38-3.4-4.13-6.71-8.24-10.04-12.38-.35.08-.69.13-1.04.13s-.69-.05-1.04-.13c.02,1.25.12,2.83.12,5.17Z"/>
            <path class="cls-3" d="M92.72,179.67c0,2.91-.05,4.91-.19,7.2.51-.05,1.13-.13,4.91-.13,2.13,0,3.22.1,4.05.13-.05-.31-.09-.57-.09-1.12s.05-.81.09-1.17c-1.78.23-3.56.34-5.3.34-.05-1.04-.07-2.16-.07-3.25s.02-2.24.02-3.33c1.76,0,3.49.08,5.25.23-.07-.55-.12-.78-.12-1.07,0-.34.02-.57.12-1.17-1.76.1-3.24.16-5.25.21,0-1.9,0-3.77.12-5.67.69,0,3.47.18,5.23.31-.05-.39-.09-.62-.09-1.17,0-.47.05-.78.09-1.09-.62.08-2.57.13-4.84.13-1.37,0-2.75-.1-4.12-.13.14,2.29.19,4.29.19,7.2v3.54Z"/>
            <path class="cls-3" d="M122.32,183.65c-1,1.17-2.71,1.95-4.19,1.95-2.66,0-5.48-2.11-5.48-7.46s2.8-7.93,5.28-7.93c1.64,0,2.82.7,3.98,2.31h.32c.07-.88.23-1.79.53-2.65-1.06-.73-3.1-1.27-4.72-1.27-4.86,0-9.19,2.76-9.19,9.93,0,4.91,3.17,8.68,8.54,8.68,1.9,0,3.49-.42,4.72-1.14.07-.73.25-1.48.51-2.21l-.3-.21Z"/>
            <path class="cls-3" d="M131.32,168.8c-.3.05-.58.13-.88.13s-.58-.08-.88-.13c-1.99,5.93-5.46,15.18-6.6,18.07.44-.05.79-.13,1.16-.13s.72.08,1.09.13c.44-1.79.95-3.56,1.57-5.33.81-.03,1.6-.05,2.41-.05,1,0,1.97.03,2.96.05.58,1.77,1.11,3.56,1.6,5.33.65-.05,1.32-.13,1.97-.13s1.3.08,2.04.13c-1.76-4.24-4.47-12.14-6.43-18.07ZM127.39,180.01c.67-2.11,1.39-4.16,2.18-6.19.74,2.03,1.39,4.08,2.06,6.19h-4.23Z"/>
            <path class="cls-3" d="M141.76,175.07c1.74,3.93,3.4,7.88,5.04,11.8.14-.03.3-.05.44-.05s.3.03.44.05c1.67-4.03,3.38-8.03,5.11-12.06h.05c.37,4.03.76,8.45.93,12.06.65-.08,1.3-.13,1.92-.13s1.25.05,1.87.13c-.58-3.67-1.39-11.96-1.99-17.94-.32.08-.65.13-.97.13s-.67-.05-1-.13c-1.67,4.13-3.56,8.55-5.39,12.43-1.69-3.67-3.66-8.29-5.35-12.43-.3.08-.62.13-.93.13-.32,0-.62-.05-.95-.13-.65,5.98-1.41,11.96-2.38,17.94.37-.08.72-.13,1.09-.13.35,0,.72.05,1.09.13.23-3.93.44-7.88.93-11.8h.05Z"/>
            <path class="cls-3" d="M159.95,179.67c0,2.91-.05,4.91-.19,7.2.51-.05,1.13-.13,1.9-.13s1.39.08,1.9.13c-.16-2.6-.18-5.2-.18-7.8h1.18c3.45,0,5.95-1.59,5.95-5.56,0-1.53-.46-2.6-1.43-3.51-.72-.68-1.85-1.07-4.03-1.07-1.11,0-2.31.13-3.38.13-.76,0-1.39-.08-1.9-.13.14,2.29.19,4.29.19,7.2v3.54ZM166.84,173.93c0,3.35-1.92,3.82-3.47,3.82,0-2.42.02-4.86.05-7.31.25-.03.6-.03.97-.03,1.32,0,2.45.86,2.45,3.51Z"/>
            <path class="cls-3" d="M177.86,168.8c-.3.05-.58.13-.88.13s-.58-.08-.88-.13c-1.99,5.93-5.46,15.18-6.6,18.07.44-.05.79-.13,1.16-.13s.72.08,1.09.13c.44-1.79.95-3.56,1.57-5.33.81-.03,1.6-.05,2.41-.05,1,0,1.97.03,2.96.05.58,1.77,1.11,3.56,1.6,5.33.65-.05,1.32-.13,1.97-.13s1.3.08,2.04.13c-1.76-4.24-4.47-12.14-6.43-18.07ZM173.92,180.01c.67-2.11,1.39-4.16,2.18-6.19.74,2.03,1.39,4.08,2.06,6.19h-4.23Z"/>
            <path class="cls-3" d="M186.61,174.11c0,5.3-.35,12.01-.46,12.77.35-.08.72-.13,1.06-.13s.72.05,1.09.13c-.07-.96-.14-2.42-.14-6.58,0-1.95,0-4.11.05-6.06,3.56,4.21,6.94,8.42,10.11,12.64.28-.08.58-.13.9-.13s.62.05.95.13c0-6.92,0-10.37.37-17.94-.35.08-.69.13-1.04.13s-.69-.05-1.04-.13c.16,1.17.16,8.24.16,12.38-3.4-4.13-6.71-8.24-10.04-12.38-.35.08-.69.13-1.04.13s-.69-.05-1.04-.13c.02,1.25.12,2.83.12,5.17Z"/>
            <path class="cls-3" d="M204.21,179.67c0,2.91-.05,4.91-.19,7.2.51-.05,1.13-.13,1.9-.13s1.39.08,1.9.13c-.14-2.29-.18-4.29-.18-7.2v-3.54c0-2.91.05-4.91.18-7.2-.51.05-1.13.13-1.9.13s-1.39-.08-1.9-.13c.14,2.29.19,4.29.19,7.2v3.54Z"/>
            <path class="cls-3" d="M218.16,168.8c-.3.05-.58.13-.88.13s-.58-.08-.88-.13c-1.99,5.93-5.46,15.18-6.6,18.07.44-.05.79-.13,1.16-.13s.72.08,1.09.13c.44-1.79.95-3.56,1.57-5.33.81-.03,1.6-.05,2.41-.05.99,0,1.97.03,2.96.05.58,1.77,1.11,3.56,1.6,5.33.65-.05,1.32-.13,1.97-.13s1.3.08,2.04.13c-1.76-4.24-4.47-12.14-6.43-18.07ZM214.23,180.01c.67-2.11,1.39-4.16,2.18-6.19.74,2.03,1.39,4.08,2.06,6.19h-4.23Z"/>
          </g>
        </g>
        <g>
          <path class="cls-6" d="M146.33,136.31h-21.25c-5.76,0-10.45,4.58-10.62,10.3-.17-5.72-4.87-10.3-10.63-10.3h-21.24c-5.87,0-10.63-4.76-10.63-10.62V33.08h84.85v92.61c0,5.87-4.61,10.62-10.48,10.62h0Z"/>
          <g class="cls-1">
            <path class="cls-5" d="M71.96,33.08h10.63l74.36,92.61c0,5.87-4.76,10.62-10.62,10.62L71.95,43.68v-10.6Z"/>
          </g>
        </g>
      </g>
    </g>
  </g>
  <path class="cls-2" d="M146.33,136.31h-21.25c-5.76,0-10.45,4.58-10.62,10.3-.17-5.72-4.87-10.3-10.63-10.3h-21.24c-5.87,0-10.63-4.76-10.63-10.62V33.08h84.85v92.61c0,5.87-4.61,10.62-10.48,10.62h0Z"/>
</svg>