<?xml version="1.0" encoding="UTF-8"?>
<svg width="100px" height="20px" viewBox="0 0 100 20" version="1.1" xmlns="http://www.w3.org/2000/svg" xmlns:xlink="http://www.w3.org/1999/xlink">
    <title>logo@3x</title>
    <defs>
        <polygon id="path-1" points="0 0 9.48886968 0 9.48886968 18.6979506 0 18.6979506"></polygon>
        <polygon id="path-3" points="0 0 19.6034955 0 19.6034955 19.4606522 0 19.4606522"></polygon>
        <polygon id="path-5" points="0 0 19.7979798 0 19.7979798 19.9983808 0 19.9983808"></polygon>
    </defs>
    <g id="Mobile" stroke="none" stroke-width="1" fill="none" fill-rule="evenodd">
        <g id="DeGate-Official-Website-Mobile_en" transform="translate(-30.000000, -24.000000)">
            <g id="header-nav" transform="translate(-441.160000, -200.000000)">
                <g id="logo" transform="translate(471.160000, 224.000000)">
                    <path d="M25.6539779,10.8505029 L32.9318807,10.8505029 C32.3784385,8.97713763 30.8564725,8.10815883 29.3345065,8.10815883 C27.8401435,8.10815883 26.2350232,8.97713763 25.6539779,10.8505029 M29.472867,20 C27.4250619,20 25.5708235,19.1313597 24.2148211,17.665233 C22.91437,16.307771 22.2222222,14.4344057 22.2222222,12.4523758 C22.2222222,8.16266042 25.2941024,4.95891466 29.3345065,4.95891466 C33.4025136,4.95891466 36.3636364,8.10815883 36.3636364,12.4523758 C36.3636364,13.3210161 35.6438855,14.0271671 34.7309129,14.0271671 L25.681581,14.0271671 C26.2350232,15.6832031 27.6738348,16.8507558 29.472867,16.8507558 C30.8840756,16.8507558 32.0185631,16.4705988 32.6551596,15.3301276 C33.1254475,14.5698134 34.1219195,14.3528226 34.8689284,14.7871428 C35.6438855,15.248883 35.8654004,16.2261879 35.4227156,16.959082 C34.1771257,19.1584413 32.0185631,20 29.472867,20" id="Fill-1" fill="#0080FF"></path>
                    <path d="M71.3932097,12.4930716 C71.3932097,9.95434391 69.6003507,8.12526189 67.1715369,8.12526189 C64.7138816,8.12526189 62.9498641,9.95434391 62.9498641,12.4930716 C62.9498641,15.0045707 64.7138816,16.8333124 67.1715369,16.8333124 C69.6003507,16.8333124 71.3932097,15.0045707 71.3932097,12.4930716 M74.7474747,11.0836506 L74.7474747,18.4166562 C74.7474747,19.2903543 73.995433,20 73.0699817,20 C72.2606175,20 71.5958212,19.4812949 71.4220512,18.7716492 C70.2078246,19.5633211 68.732943,20 67.1715369,20 C65.031859,20 63.0944321,19.2083281 61.677594,17.7342391 C60.3476409,16.3694049 59.5959596,14.4858657 59.5959596,12.4930716 C59.5959596,10.473049 60.3476409,8.58950973 61.677594,7.22467555 C63.0944321,5.7502462 65.031859,4.95891466 67.1715369,4.95891466 C68.732943,4.95891466 70.2078246,5.39559353 71.4220512,6.18726543 C73.3879591,7.38702615 74.7474747,9.71881642 74.7474747,11.0836506" id="Fill-3" fill="#FFFFFF"></path>
                    <g id="编组" transform="translate(76.026804, 0.955649)">
                        <mask id="mask-2" fill="white">
                            <use xlink:href="#path-1"></use>
                        </mask>
                        <g id="Clip-6"></g>
                        <path d="M9.08513709,17.2808944 C8.27489177,18.1701051 7.08874459,18.6980199 5.84451659,18.6980199 C3.50108225,18.6980199 1.59163059,16.8641743 1.59163059,14.613955 L1.59163059,6.61244398 C0.722943723,6.58473192 0,5.86248635 0,5.00098767 C0,4.1398354 0.722943723,3.41758983 1.59163059,3.38953137 L1.59163059,1.6118027 C1.59163059,0.722591971 2.34379509,0 3.29834055,0 C4.22402597,0 4.97655123,0.722591971 4.97655123,1.6118027 L4.97655123,3.38953137 L7.11760462,3.38953137 C8.04329004,3.38953137 8.7958153,4.11212334 8.7958153,5.00098767 C8.7958153,5.89019841 8.04329004,6.61244398 7.11760462,6.61244398 L4.97655123,6.61244398 L4.97655123,14.613955 C4.97655123,15.0860992 5.3524531,15.4751072 5.84451659,15.4751072 C6.19155844,15.4751072 6.42316017,15.2807764 6.50974026,15.1695818 C7.11760462,14.5027603 8.18831169,14.4192778 8.88239538,15.002963 C9.60569986,15.5585898 9.69300144,16.5867073 9.08513709,17.2808944" id="Fill-5" fill="#FFFFFF" mask="url(#mask-2)"></path>
                    </g>
                    <path d="M89.2900802,10.8505029 L96.5685057,10.8505029 C96.01505,8.97713763 94.4927018,8.10815883 92.9706986,8.10815883 C91.4762992,8.10815883 89.8711397,8.97713763 89.2900802,10.8505029 M93.1090625,20 C91.0612074,20 89.2069238,19.1313597 87.8508883,17.665233 C86.5504055,16.307771 85.8585859,14.4344057 85.8585859,12.4523758 C85.8585859,8.16266042 88.930541,4.95891466 92.9706986,4.95891466 C97.038805,4.95891466 100,8.10815883 100,12.4523758 C100,13.3210161 99.2805766,14.0271671 98.3672367,14.0271671 L89.317684,14.0271671 C89.8711397,15.6832031 91.3099865,16.8507558 93.1090625,16.8507558 C94.5203055,16.8507558 95.6548207,16.4705988 96.2914328,15.3301276 C96.7620771,14.5698134 97.7585734,14.3528226 98.5056006,14.7871428 C99.2805766,15.248883 99.5020969,16.2261879 99.0590563,16.959082 C97.813781,19.1584413 95.6548207,20 93.1090625,20" id="Fill-7" fill="#FFFFFF"></path>
                    <g id="编组">
                        <mask id="mask-4" fill="white">
                            <use xlink:href="#path-3"></use>
                        </mask>
                        <g id="Clip-10"></g>
                        <path d="M9.80167876,-0.000102713344 L1.96057028,-0.000102713344 C1.35149187,-0.000102713344 0.807253068,0.275511427 0.447531223,0.707934606 C0.4078687,0.756209878 0.369930634,0.806197038 0.3347517,0.857896088 C0.123333204,1.16843277 -0.000137956604,1.54299409 -0.000137956604,1.94597278 C-0.000137956604,2.97858427 0.811046875,3.82117607 1.83433999,3.88588547 L1.85503348,3.90745528 L9.76443048,3.90745528 C12.9902008,3.90745528 15.6296555,6.52767269 15.6296555,9.73027476 C15.6296555,12.9328768 12.9902008,15.5534366 9.76443048,15.5534366 L4.73798161,15.5534366 C4.29238178,15.5493281 3.93197015,15.1935975 3.92403764,14.7522725 L3.92300297,14.7522725 L3.92127851,14.7522725 L3.92127851,15.5534366 L3.92058873,15.5534366 L3.92058873,11.6763503 L9.90066262,11.6763503 C10.9787935,11.6763503 11.8613709,10.8002054 11.8613709,9.72993238 C11.8613709,8.65965933 10.9787935,7.78385689 9.90066262,7.78385689 L1.96057028,7.78385689 C1.95815604,7.78385689 1.95608669,7.78419926 1.95367245,7.78419926 L1.90504274,7.78419926 C0.857262337,7.78419926 -0.000137956604,8.63535051 -0.000137956604,9.67583669 L-0.000137956604,15.5534366 L-0.000137956604,17.5145767 L-0.000137956604,17.5693572 C-0.000137956604,18.609501 0.857262337,19.4606522 1.90504274,19.4606522 L1.96057028,19.4606522 L2.01540803,19.4606522 L9.80167876,19.4606522 C15.192678,19.4606522 19.6034955,15.0819824 19.6034955,9.73027476 C19.6034955,4.37856715 15.192678,-0.000102713344 9.80167876,-0.000102713344" id="Fill-9" fill="#0080FF" mask="url(#mask-4)"></path>
                    </g>
                    <path d="M4.04040404,12.9808268 L4.04253146,12.9808268 L4.04380792,12.9808268 C4.05359407,12.4273698 4.49950218,11.9815175 5.05050505,11.9780878 L4.04253146,11.9780878 L4.04040404,11.9780878 L4.04040404,12.9808268 Z" id="Fill-11" fill="#2196F3"></path>
                    <g id="编组" transform="translate(37.674956, 0.001514)">
                        <mask id="mask-6" fill="white">
                            <use xlink:href="#path-5"></use>
                        </mask>
                        <g id="Clip-14"></g>
                        <path d="M15.8603971,12.9793132 L15.8578452,12.9793132 L15.8569946,12.9793132 C15.8467873,12.4258561 15.4010669,11.9800038 14.8502961,11.9765741 L15.8578452,11.9765741 L15.8603971,11.9765741 L15.8603971,12.9793132 Z" id="Fill-15" fill="#FFFFFF" mask="url(#mask-6)"></path>
                        <path d="M9.8989899,-0.000105551476 L17.8181818,-0.000105551476 C18.4332985,-0.000105551476 18.9825845,0.283124243 19.3458725,0.727495957 C19.3862766,0.777105151 19.4245907,0.828473536 19.4597701,0.881601112 C19.6732846,1.20071841 19.7979798,1.58562946 19.7979798,1.99974308 C19.7979798,3.06088725 18.9791014,3.9267612 17.9453152,3.99325863 L17.9247649,4.01542444 L9.93695576,4.01542444 C6.67885754,4.01542444 4.01323581,6.70804259 4.01323581,9.99913761 C4.01323581,13.2902326 6.67885754,15.9832026 9.93695576,15.9832026 L15.0128875,15.9832026 C15.4629049,15.9789806 15.8272379,15.6134206 15.835249,15.1599011 L15.8359457,15.1599011 L15.8380355,15.1599011 L15.8380355,15.9832026 L15.8383838,15.9832026 L15.8383838,11.9989862 L9.79902473,11.9989862 C8.7102055,11.9989862 7.81922675,11.0986322 7.81922675,9.99878578 C7.81922675,8.89893939 8.7102055,7.99893714 9.79902473,7.99893714 L17.8181818,7.99893714 C17.8202717,7.99893714 17.8227099,7.99928898 17.8247997,7.99928898 L17.8739115,7.99928898 C18.9324277,7.99928898 19.7979798,8.87395888 19.7979798,9.94319533 L19.7979798,15.9832026 L19.7979798,17.9985321 L19.7979798,18.0548263 C19.7979798,19.1237109 18.9324277,19.9983808 17.8739115,19.9983808 L17.8181818,19.9983808 L17.7624521,19.9983808 L9.8989899,19.9983808 C4.45454545,19.9983808 0,15.4987214 0,9.99913761 C0,4.49955387 4.45454545,-0.000105551476 9.8989899,-0.000105551476" id="Fill-13" fill="#FFFFFF" mask="url(#mask-6)"></path>
                    </g>
                </g>
            </g>
        </g>
    </g>
</svg>