<svg width="600" height="136" viewBox="0 0 600 136" fill="none" xmlns="http://www.w3.org/2000/svg">
<path fill-rule="evenodd" clip-rule="evenodd" d="M108 40L128 28V76L108 88V40Z" fill="#40C4FF"/>
<path fill-rule="evenodd" clip-rule="evenodd" d="M108 40L128 28L88 4L68 16L108 40Z" fill="#80D8FF"/>
<path fill-rule="evenodd" clip-rule="evenodd" d="M68 136V112L28 88V112L68 136Z" fill="#304FFE"/>
<path fill-rule="evenodd" clip-rule="evenodd" d="M68 136V112L108 88V112L68 136Z" fill="#40C4FF"/>
<path fill-rule="evenodd" clip-rule="evenodd" d="M94.68 32L68 48V16L94.68 32Z" fill="url(#paint0_linear_2104_83587)"/>
<path fill-rule="evenodd" clip-rule="evenodd" d="M54.68 72L28 88V56L54.68 72Z" fill="url(#paint1_linear_2104_83587)"/>
<path fill-rule="evenodd" clip-rule="evenodd" d="M108 88L81.3203 104V72L108 88Z" fill="url(#paint2_linear_2104_83587)"/>
<path fill-rule="evenodd" clip-rule="evenodd" d="M41.3203 32L68 48V16L41.3203 32Z" fill="url(#paint3_linear_2104_83587)"/>
<path fill-rule="evenodd" clip-rule="evenodd" d="M28 88L54.68 104V72L28 88Z" fill="url(#paint4_linear_2104_83587)"/>
<path fill-rule="evenodd" clip-rule="evenodd" d="M81.3203 72L108 88V56L81.3203 72Z" fill="url(#paint5_linear_2104_83587)"/>
<path fill-rule="evenodd" clip-rule="evenodd" d="M28 40L8 28L48 4L68 16L28 40Z" fill="#80D8FF"/>
<path fill-rule="evenodd" clip-rule="evenodd" d="M28 40L8 28V76L28 88V40Z" fill="#304FFE"/>
<path fill-rule="evenodd" clip-rule="evenodd" d="M229.845 48C243.395 48 252.815 57.2166 252.815 70.0316C252.815 82.8465 243.395 92 229.845 92C216.295 92 206.875 82.8465 206.875 70.0316C206.875 57.2166 216.295 48 229.845 48ZM174.765 91.0531V71.7991L160 48.9469H169.929L179.15 63.5925L188.37 48.9469H198.299L183.147 71.7991V91.0531H174.765ZM244.272 70.0316C244.272 78.5538 238.26 84.551 229.764 84.551C221.269 84.551 215.257 78.5538 215.257 70.0316C215.257 61.5094 221.269 55.4491 229.764 55.4491C238.26 55.4491 244.272 61.5094 244.272 70.0316ZM268.128 48.947H276.338V75.3975C276.338 78.617 277.412 80.574 278.359 81.6472C279.559 83.0991 281.769 84.551 285.053 84.551C288.337 84.551 290.548 83.0991 291.748 81.6472C292.695 80.574 293.768 78.617 293.768 75.3975V48.947H301.978V74.7031C301.978 78.6802 301.347 82.7203 298.821 85.9398C295.789 89.9169 290.484 92.0001 285.053 92.0001C279.622 92.0001 274.317 89.9169 271.286 85.9398C268.759 82.7203 268.128 78.6802 268.128 74.7031V48.947ZM328.092 65.2338V48.9469H319.71V91.0531H328.092V72.3041H346.791V91.0531H355.173V48.9469H346.791V65.2338H328.092ZM392.65 48C406.2 48 415.62 57.2166 415.62 70.0316C415.62 82.8465 406.2 92 392.65 92C379.1 92 369.68 82.8465 369.68 70.0316C369.68 57.2166 379.1 48 392.65 48ZM407.238 70.0316C407.238 78.5538 401.226 84.551 392.731 84.551C384.235 84.551 378.223 78.5538 378.223 70.0316C378.223 61.5094 384.235 55.4491 392.731 55.4491C401.226 55.4491 407.238 61.5094 407.238 70.0316ZM429.322 48.9469H440.541C446.537 48.9469 451.76 49.5782 456.531 53.0502C461.754 56.901 464.784 63.0244 464.784 70.0315C464.784 77.0387 461.818 83.099 456.144 87.0129C451.115 90.4849 446.408 91.0531 440.412 91.0531H429.322V48.9469ZM437.704 83.9828V56.0172H440.283C443.12 56.0172 447.375 56.2697 450.857 58.7948C454.274 61.3199 456.144 65.6126 456.144 70.0316C456.144 74.5136 454.21 78.8063 450.792 81.2052C447.053 83.8565 442.41 83.9828 440.283 83.9828H437.704ZM480.903 48.9469H489.285V83.9828H503.47V91.0531H480.903V48.9469ZM540.545 56.0173V48.947H516.366V91.0532H540.545V83.9829H524.748V72.4937H539.739V65.4233H524.748V56.0173H540.545ZM556.664 48.9469H569.108C575.04 48.9469 578.07 50.462 580.069 52.1033C583.358 54.8178 584.325 58.4161 584.325 61.5724C584.325 65.6757 582.648 69.274 579.296 71.4835C578.199 72.241 576.652 72.9354 574.589 73.3142L588 91.0531H577.555L566.078 74.1348H565.046V91.0531H556.664V48.9469ZM564.724 68.3271V55.6384H567.391C569.032 55.6384 576.007 55.7016 576.007 61.9512C576.007 68.1377 568.964 68.3271 567.254 68.3271H564.724Z" fill="#181E25"/>
<defs>
<linearGradient id="paint0_linear_2104_83587" x1="81.34" y1="48" x2="81.34" y2="16" gradientUnits="userSpaceOnUse">
<stop stop-color="#40C4FF"/>
<stop offset="1" stop-color="#2979FF"/>
</linearGradient>
<linearGradient id="paint1_linear_2104_83587" x1="34.67" y1="104" x2="63.0824" y2="92.1556" gradientUnits="userSpaceOnUse">
<stop stop-color="#40C4FF"/>
<stop offset="1" stop-color="#80D8FF"/>
</linearGradient>
<linearGradient id="paint2_linear_2104_83587" x1="67.9805" y1="72" x2="67.9805" y2="104" gradientUnits="userSpaceOnUse">
<stop stop-color="#2979FF"/>
<stop offset="1" stop-color="#304FFE"/>
</linearGradient>
<linearGradient id="paint3_linear_2104_83587" x1="81.3398" y1="48" x2="81.3398" y2="16" gradientUnits="userSpaceOnUse">
<stop stop-color="#2979FF"/>
<stop offset="1" stop-color="#304FFE"/>
</linearGradient>
<linearGradient id="paint4_linear_2104_83587" x1="68.02" y1="104" x2="68.02" y2="72" gradientUnits="userSpaceOnUse">
<stop stop-color="#2979FF"/>
<stop offset="1" stop-color="#40C4FF"/>
</linearGradient>
<linearGradient id="paint5_linear_2104_83587" x1="114.67" y1="72" x2="86.2578" y2="60.1558" gradientUnits="userSpaceOnUse">
<stop stop-color="#2979FF"/>
<stop offset="1" stop-color="#40C4FF"/>
</linearGradient>
</defs>
</svg>
