<svg width="431" height="135" viewBox="0 0 431 135" fill="none" xmlns="http://www.w3.org/2000/svg">
<path d="M96.0103 23H43.689C38.8447 23 34.202 24.8403 30.7706 28.0706C21.4913 36.8667 14.658 43.3723 5.37283 52.1516C1.94134 55.3762 0 59.7996 0 64.3919V107.005C0 109.087 1.79292 110.781 4.01329 110.781H53.7342C58.6025 110.781 63.2449 108.941 66.6766 105.688C76.9177 95.9801 84.386 88.923 94.6508 79.1928C98.0585 75.94 100 71.539 100 66.9468V26.8043C100 24.6996 98.2069 23 96.0103 23ZM89.3491 51.7914L69.6211 94.1174C66.6171 100.601 58.65 103.516 51.8106 100.668L13.0135 84.432C10.6922 83.453 9.65923 80.8924 10.6685 78.6919L30.3965 36.3658C33.4005 29.8883 41.3678 26.9675 48.207 29.8152L87.0042 46.0511C89.3254 47.0303 90.3585 49.5909 89.3491 51.7914Z" fill="black" style="fill:black;fill-opacity:1;"/>
<path d="M352.372 67.4877L391.191 46.6775L390.999 93.9219L352.372 67.4877Z" fill="#9ECC51" style="fill:#9ECC51;fill:color(display-p3 0.6196 0.8000 0.3176);fill-opacity:1;"/>
<path d="M429.623 67.4877L390.807 46.6775L390.999 93.9219L429.623 67.4877Z" fill="#CA75AA" style="fill:#CA75AA;fill:color(display-p3 0.7922 0.4588 0.6667);fill-opacity:1;"/>
<path d="M361.532 52.2356V47.7454H360.365V45.8587H362.453V37.7542H361.67V36.0475H363.233V28.9238C363.233 27.685 364.238 26.6802 365.477 26.6802V22.451L366.637 18.6387L367.816 22.451V26.7402H367.876C369.115 26.7402 370.12 27.745 370.12 28.9838V35.8975H371.601V47.7514" fill="#EEDA55" style="fill:#EEDA55;fill:color(display-p3 0.9333 0.8549 0.3333);fill-opacity:1;"/>
<path d="M390.882 46.7046L390.936 0.0240479L429.623 67.4878L390.882 46.7046Z" fill="#E38B84" style="fill:#E38B84;fill:color(display-p3 0.8902 0.5451 0.5176);fill-opacity:1;"/>
<path d="M352.45 67.4638L391.191 46.6775L391.137 0" fill="#EEDA55" style="fill:#EEDA55;fill:color(display-p3 0.9333 0.8549 0.3333);fill-opacity:1;"/>
<path d="M390.864 102.311L390.918 134.622L430.957 76.0992L390.864 102.311Z" fill="#548DCA" style="fill:#548DCA;fill:color(display-p3 0.3294 0.5529 0.7922);fill-opacity:1;"/>
<path d="M351.364 76.5791L391.173 102.332L391.137 134.622" fill="#70C9F2" style="fill:#70C9F2;fill:color(display-p3 0.4392 0.7882 0.9490);fill-opacity:1;"/>
<path d="M372.264 94.2338H368.896C368.836 94.2338 368.779 94.1978 368.755 94.1438C368.728 94.0898 368.737 94.0238 368.776 93.9758L372.108 89.9565V85.4423C372.108 85.3554 372.177 85.2864 372.264 85.2864C372.351 85.2864 372.42 85.3554 372.42 85.4423V90.0135C372.42 90.0495 372.408 90.0855 372.384 90.1125L369.229 93.9188H372.264C372.351 93.9188 372.42 93.9878 372.42 94.0748C372.42 94.1648 372.351 94.2338 372.264 94.2338Z" fill="black" style="fill:black;fill-opacity:1;"/>
<path d="M370.905 104.825C370.959 104.903 371.01 104.981 371.064 105.059L372.351 104.201C372.423 104.153 372.444 104.054 372.396 103.982C372.348 103.91 372.252 103.889 372.177 103.937L370.89 104.795C370.893 104.81 370.899 104.819 370.905 104.825Z" fill="black" style="fill:black;fill-opacity:1;"/>
<path d="M369.298 102.521H372.264C372.351 102.521 372.42 102.452 372.42 102.365C372.42 102.278 372.351 102.209 372.264 102.209H369.085C369.154 102.311 369.226 102.416 369.298 102.521Z" fill="black" style="fill:black;fill-opacity:1;"/>
<path d="M368.335 101.103H372.264C372.351 101.103 372.42 101.034 372.42 100.947C372.42 100.86 372.351 100.791 372.264 100.791H368.125C368.194 100.896 368.263 101.001 368.335 101.103Z" fill="black" style="fill:black;fill-opacity:1;"/>
<path d="M366.673 98.6159C367.639 97.4701 368.887 96.6333 370.222 96.2583C370.972 96.0454 371.655 95.9614 372.252 96.0004C372.339 96.0064 372.414 95.9404 372.42 95.8534C372.426 95.7664 372.36 95.6914 372.273 95.6854C371.643 95.6434 370.924 95.7334 370.138 95.9554C368.767 96.3393 367.489 97.1882 366.493 98.346C366.553 98.4359 366.613 98.5259 366.673 98.6159Z" fill="black" style="fill:black;fill-opacity:1;"/>
<path d="M368.896 96.7265C368.809 96.7265 368.74 96.6575 368.74 96.5705V94.078C368.74 93.991 368.809 93.922 368.896 93.922C368.983 93.922 369.052 93.991 369.052 94.078V96.5705C369.052 96.6575 368.983 96.7265 368.896 96.7265Z" fill="black" style="fill:black;fill-opacity:1;"/>
<path d="M367.39 99.6959H372.264C372.351 99.6959 372.42 99.6269 372.42 99.5399C372.42 99.4529 372.351 99.3839 372.264 99.3839H367.183C367.252 99.4859 367.321 99.5909 367.39 99.6959Z" fill="black" style="fill:black;fill-opacity:1;"/>
<path d="M375.63 94.2339H372.264C372.177 94.2339 372.108 94.1649 372.108 94.078C372.108 93.991 372.177 93.922 372.264 93.922H375.297L372.141 90.1157C372.117 90.0887 372.105 90.0527 372.105 90.0167V85.4455C372.105 85.3585 372.174 85.2896 372.261 85.2896C372.348 85.2896 372.417 85.3585 372.417 85.4455V89.9597L375.75 93.979C375.789 94.027 375.798 94.09 375.771 94.1469C375.747 94.2009 375.693 94.2339 375.63 94.2339Z" fill="black" style="fill:black;fill-opacity:1;"/>
<path d="M381.308 120.257H382.18V121.334H382.112C382.186 121.436 382.261 121.541 382.333 121.649H382.336C382.423 121.649 382.492 121.58 382.492 121.493V120.104C382.492 120.017 382.423 119.948 382.336 119.948H381.086C381.161 120.047 381.236 120.152 381.308 120.257Z" fill="black" style="fill:black;fill-opacity:1;"/>
<path d="M380.348 118.847H380.576V119.192C380.681 119.348 380.783 119.504 380.891 119.66V118.691C380.891 118.604 380.822 118.535 380.735 118.535H380.141C380.21 118.64 380.279 118.745 380.348 118.847Z" fill="black" style="fill:black;fill-opacity:1;"/>
<path d="M381.893 110.305L372.351 103.943C372.279 103.895 372.183 103.913 372.132 103.988C372.084 104.06 372.102 104.159 372.177 104.207L381.287 110.281H374.553C374.64 110.386 374.727 110.491 374.814 110.596H381.806C381.875 110.596 381.935 110.551 381.956 110.485C381.974 110.413 381.95 110.341 381.893 110.305Z" fill="black" style="fill:black;fill-opacity:1;"/>
<path d="M382.526 106.262C382.439 106.262 382.37 106.193 382.37 106.106V102.521H372.264C372.177 102.521 372.108 102.452 372.108 102.365C372.108 102.278 372.177 102.209 372.264 102.209H382.526C382.612 102.209 382.681 102.278 382.681 102.365V106.106C382.681 106.193 382.612 106.262 382.526 106.262Z" fill="black" style="fill:black;fill-opacity:1;"/>
<path d="M381.296 102.521C381.209 102.521 381.14 102.452 381.14 102.365V101.106H372.264C372.177 101.106 372.108 101.037 372.108 100.95C372.108 100.863 372.177 100.794 372.264 100.794H381.299C381.386 100.794 381.455 100.863 381.455 100.95V102.365C381.455 102.449 381.383 102.521 381.296 102.521Z" fill="black" style="fill:black;fill-opacity:1;"/>
<path d="M380.909 101.126C380.372 101.126 379.886 100.997 379.493 100.749C379.109 100.506 378.884 100.128 378.662 99.7617L378.557 99.5907C377.543 97.95 375.993 96.7352 374.301 96.2583C373.551 96.0454 372.867 95.9584 372.27 96.0004C372.186 96.0064 372.108 95.9404 372.102 95.8534C372.096 95.7664 372.162 95.6914 372.249 95.6854C372.879 95.6434 373.599 95.7334 374.385 95.9554C376.152 96.4533 377.768 97.7161 378.824 99.4258L378.929 99.5997C379.13 99.9327 379.337 100.281 379.658 100.482C380.198 100.824 380.837 100.838 381.275 100.791C381.362 100.782 381.44 100.841 381.449 100.928C381.458 101.015 381.398 101.093 381.311 101.102C381.176 101.117 381.041 101.126 380.909 101.126Z" fill="black" style="fill:black;fill-opacity:1;"/>
<path d="M375.63 96.7265C375.543 96.7265 375.474 96.6575 375.474 96.5705V94.078C375.474 93.991 375.543 93.922 375.63 93.922C375.717 93.922 375.786 93.991 375.786 94.078V96.5705C375.789 96.6575 375.717 96.7265 375.63 96.7265Z" fill="black" style="fill:black;fill-opacity:1;"/>
<path d="M380.735 119.009C380.648 119.009 380.579 118.94 380.579 118.853V110.434C380.579 110.347 380.648 110.278 380.735 110.278C380.822 110.278 380.891 110.347 380.891 110.434V118.853C380.891 118.94 380.822 119.009 380.735 119.009Z" fill="black" style="fill:black;fill-opacity:1;"/>
<path d="M379.538 117.639V110.434C379.538 110.347 379.469 110.278 379.382 110.278C379.295 110.278 379.226 110.347 379.226 110.434V117.189C379.331 117.339 379.436 117.486 379.538 117.639Z" fill="black" style="fill:black;fill-opacity:1;"/>
<path d="M375.729 112.267C375.747 112.306 375.768 112.345 375.786 112.384V110.434C375.786 110.347 375.717 110.278 375.63 110.278C375.543 110.278 375.474 110.347 375.474 110.434V111.442C375.669 111.727 375.744 112.006 375.729 112.267Z" fill="black" style="fill:black;fill-opacity:1;"/>
<path d="M389.073 110.242C388.986 110.242 388.917 110.173 388.917 110.086V108.121L384.907 104.291L380.894 108.298V109.516C380.894 109.603 380.825 109.672 380.738 109.672C380.651 109.672 380.582 109.603 380.582 109.516V108.232C380.582 108.19 380.6 108.151 380.627 108.121L384.796 103.961C384.856 103.901 384.955 103.901 385.015 103.958L389.184 107.941C389.214 107.971 389.232 108.013 389.232 108.055V110.086C389.229 110.173 389.16 110.242 389.073 110.242Z" fill="black" style="fill:black;fill-opacity:1;"/>
<path d="M380.735 108.391C380.678 108.391 380.624 108.358 380.597 108.307C380.57 108.256 380.573 108.19 380.606 108.142C380.672 108.049 382.214 105.902 384.619 105.731C386.167 105.62 387.706 106.367 389.187 107.947C389.229 107.992 389.241 108.058 389.217 108.115C389.193 108.172 389.139 108.211 389.076 108.211L380.738 108.388C380.738 108.391 380.735 108.391 380.735 108.391ZM384.913 106.037C384.823 106.037 384.733 106.04 384.64 106.046C382.858 106.172 381.548 107.5 381.065 108.07L388.707 107.908C387.463 106.664 386.188 106.037 384.913 106.037Z" fill="black" style="fill:black;fill-opacity:1;"/>
<path d="M391.2 112.708H380.735C380.648 112.708 380.579 112.777 380.579 112.863C380.579 112.95 380.648 113.019 380.735 113.019H391.197V112.708H391.2Z" fill="black" style="fill:black;fill-opacity:1;"/>
<path d="M391.2 114.741H380.735C380.648 114.741 380.579 114.81 380.579 114.897C380.579 114.984 380.648 115.053 380.735 115.053H391.197V114.741H391.2Z" fill="black" style="fill:black;fill-opacity:1;"/>
<path d="M390.81 113.022C390.723 113.022 390.654 112.953 390.654 112.866V110.461H381.608C381.521 110.461 381.452 110.392 381.452 110.305C381.452 110.218 381.521 110.149 381.608 110.149H390.81C390.897 110.149 390.966 110.218 390.966 110.305V112.869C390.966 112.953 390.897 113.022 390.81 113.022Z" fill="black" style="fill:black;fill-opacity:1;"/>
<path d="M384.904 104.231C384.817 104.231 384.748 104.162 384.748 104.075V101.109C384.748 101.022 384.817 100.953 384.904 100.953C384.991 100.953 385.06 101.022 385.06 101.109V104.075C385.06 104.159 384.991 104.231 384.904 104.231Z" fill="black" style="fill:black;fill-opacity:1;"/>
<path d="M389.928 121.646H388.752C388.665 121.646 388.596 121.577 388.596 121.49V114.897C388.596 114.81 388.665 114.741 388.752 114.741H389.928C390.015 114.741 390.084 114.81 390.084 114.897V121.49C390.084 121.577 390.015 121.646 389.928 121.646ZM388.908 121.331H389.769V115.053H388.908V121.331Z" fill="black" style="fill:black;fill-opacity:1;"/>
<path d="M386.749 121.646H385.573C385.486 121.646 385.417 121.577 385.417 121.49V114.897C385.417 114.81 385.486 114.741 385.573 114.741H386.749C386.836 114.741 386.905 114.81 386.905 114.897V121.49C386.905 121.577 386.836 121.646 386.749 121.646ZM385.729 121.331H386.59V115.053H385.729V121.331Z" fill="black" style="fill:black;fill-opacity:1;"/>
<path d="M383.569 114.741H382.394C382.307 114.741 382.238 114.81 382.238 114.897V121.49C382.238 121.493 382.241 121.499 382.241 121.502C382.271 121.544 382.298 121.586 382.325 121.628C382.346 121.64 382.37 121.646 382.394 121.646H383.569C383.656 121.646 383.725 121.577 383.725 121.49V114.897C383.725 114.81 383.653 114.741 383.569 114.741ZM383.41 121.331H382.549V115.053H383.41V121.331Z" fill="black" style="fill:black;fill-opacity:1;"/>
<path d="M382.115 121.331C382.189 121.433 382.264 121.538 382.336 121.646H390.087C390.087 121.541 390.096 121.436 390.108 121.331H382.115Z" fill="black" style="fill:black;fill-opacity:1;"/>
<path d="M391.029 116.835C390.942 116.835 390.873 116.766 390.873 116.679V115.77C390.873 115.683 390.942 115.614 391.029 115.614C391.116 115.614 391.185 115.683 391.185 115.77V116.679C391.185 116.766 391.116 116.835 391.029 116.835Z" fill="black" style="fill:black;fill-opacity:1;"/>
<path d="M387.898 116.835C387.811 116.835 387.742 116.766 387.742 116.679V115.77C387.742 115.683 387.811 115.614 387.898 115.614C387.985 115.614 388.054 115.683 388.054 115.77V116.679C388.054 116.766 387.985 116.835 387.898 116.835Z" fill="black" style="fill:black;fill-opacity:1;"/>
<path d="M384.766 116.835C384.679 116.835 384.61 116.766 384.61 116.679V115.77C384.61 115.683 384.679 115.614 384.766 115.614C384.853 115.614 384.922 115.683 384.922 115.77V116.679C384.922 116.766 384.853 116.835 384.766 116.835Z" fill="black" style="fill:black;fill-opacity:1;"/>
<path d="M378.668 99.6959H372.264C372.177 99.6959 372.108 99.6269 372.108 99.5399C372.108 99.4529 372.177 99.3839 372.264 99.3839H378.668C378.755 99.3839 378.824 99.4529 378.824 99.5399C378.824 99.6269 378.755 99.6959 378.668 99.6959Z" fill="black" style="fill:black;fill-opacity:1;"/>
<path d="M387.31 35.6336C388.785 36.8934 390.177 38.0811 392.349 36.3565C392.982 35.8525 393.573 35.3306 394.145 34.8237C397.946 31.4703 400.948 28.8218 410.445 36.6624C411.314 37.3823 412.196 38.0271 413.081 38.612C413.021 38.4711 412.979 38.3241 412.958 38.1711C412.178 37.6402 411.401 37.0613 410.636 36.4284C400.942 28.4229 397.856 31.1464 393.948 34.5958C393.378 35.0997 392.79 35.6186 392.16 36.1165C390.183 37.6882 389.001 36.6774 387.502 35.3996C385.537 33.7229 383.089 31.6323 377.966 35.4956C375.189 37.5892 372.795 39.1369 370.825 40.2767V40.6217C372.837 39.4669 375.291 37.8862 378.146 35.7326C383.083 32.0222 385.33 33.9419 387.31 35.6336Z" fill="black" style="fill:black;fill-opacity:1;"/>
<path d="M370.752 40.7567V40.2378L370.791 40.2168C373.062 38.9061 375.462 37.2983 377.927 35.4417C383.098 31.5454 385.57 33.654 387.555 35.3487C389.028 36.6055 390.189 37.5983 392.118 36.0656C392.741 35.5677 393.329 35.0518 393.899 34.5478C397.838 31.0715 400.945 28.33 410.69 36.3775C411.428 36.9864 412.208 37.5713 413.009 38.1142L413.036 38.1322L413.042 38.1652C413.063 38.3122 413.105 38.4531 413.162 38.5851L413.261 38.8161L413.051 38.6751C412.121 38.0572 411.23 37.4003 410.405 36.7194C400.957 28.9179 397.979 31.5484 394.202 34.8778C393.629 35.3847 393.038 35.9066 392.403 36.4105C390.183 38.1742 388.767 36.9654 387.27 35.6846C385.309 34.0109 383.086 32.1123 378.203 35.7926C375.666 37.7033 373.2 39.35 370.872 40.6847L370.752 40.7567ZM370.902 40.3248V40.4988C373.191 39.179 375.615 37.5563 378.104 35.6816C383.083 31.9293 385.354 33.867 387.357 35.5767C388.809 36.8154 390.18 37.9852 392.301 36.2995C392.933 35.7956 393.524 35.2737 394.094 34.7698C397.922 31.3924 400.945 28.7229 410.492 36.6085C411.257 37.2414 412.079 37.8532 412.937 38.4291C412.919 38.3602 412.901 38.2912 412.889 38.2222C412.094 37.6793 411.32 37.1004 410.588 36.4945C400.942 28.5279 397.877 31.2334 393.995 34.6588C393.422 35.1627 392.834 35.6846 392.208 36.1825C390.183 37.7903 388.98 36.7644 387.456 35.4627C385.51 33.801 383.089 31.7344 378.014 35.5617C375.558 37.4123 373.164 39.014 370.902 40.3248Z" fill="black" style="fill:black;fill-opacity:1;"/>
<path d="M415.343 43.4622L370.828 43.3032V43.6032L415.589 43.7621C415.505 43.6662 415.421 43.5642 415.343 43.4622Z" fill="black" style="fill:black;fill-opacity:1;"/>
<path d="M415.75 43.8372L370.752 43.6782V43.2283H370.827L415.378 43.3872L415.402 43.4172C415.48 43.5192 415.564 43.6182 415.645 43.7142L415.75 43.8372ZM370.902 43.5282L415.426 43.6872C415.387 43.6392 415.345 43.5882 415.306 43.5372L370.905 43.3812V43.5282H370.902Z" fill="black" style="fill:black;fill-opacity:1;"/>
<path d="M391.062 0.0240151C390.954 -0.00597945 390.843 0.0420119 390.786 0.137994L370.234 36.0475C370.396 36.0085 370.561 35.9875 370.729 35.9875C370.762 35.9875 370.795 35.9905 370.828 35.9935L390.753 1.18181V93.595L352.912 67.2988L361.601 52.1156C361.532 51.8996 361.487 51.6717 361.478 51.4347C361.478 51.4047 361.478 51.3777 361.478 51.3477L352.375 67.2508C352.312 67.3618 352.345 67.4998 352.447 67.5718L390.858 94.2609C390.9 94.2909 390.948 94.3059 390.999 94.3059C391.038 94.3059 391.077 94.2969 391.113 94.2789C391.194 94.2369 391.245 94.1529 391.245 94.063V0.260972C391.242 0.149992 391.17 0.0540097 391.062 0.0240151Z" fill="black" style="fill:black;fill-opacity:1;"/>
<path d="M361.517 62.6106C361.511 62.4846 361.514 62.3616 361.517 62.2386L352.471 67.1578C352.351 67.2237 352.309 67.3707 352.372 67.4907C352.417 67.5717 352.501 67.6197 352.588 67.6197C352.627 67.6197 352.669 67.6107 352.705 67.5897L361.532 62.7905C361.529 62.7276 361.52 62.6706 361.517 62.6106Z" fill="black" style="fill:black;fill-opacity:1;"/>
<path d="M391.215 46.3715C391.149 46.2515 391.002 46.2095 390.882 46.2725L371.736 56.6806C371.742 56.7586 371.754 56.8336 371.757 56.9116C371.763 57.0166 371.763 57.1216 371.76 57.2265L391.116 46.7045C391.233 46.6385 391.278 46.4915 391.215 46.3715Z" fill="black" style="fill:black;fill-opacity:1;"/>
<path d="M390.753 115.008V133.689L352.15 76.861L390.753 102.644V117.57C390.915 117.504 391.077 117.444 391.242 117.393V102.512C391.242 102.431 391.2 102.353 391.134 102.308L351.379 75.7602C351.283 75.6942 351.151 75.7092 351.07 75.7901C350.989 75.8741 350.977 76.0031 351.04 76.0991L390.795 134.621C390.84 134.69 390.918 134.729 390.996 134.729C391.02 134.729 391.044 134.726 391.068 134.717C391.17 134.684 391.242 134.591 391.242 134.484V115.179C391.077 115.128 390.912 115.071 390.753 115.008Z" fill="black" style="fill:black;fill-opacity:1;"/>
<path d="M390.999 94.3059C390.96 94.3059 390.921 94.2969 390.885 94.2789C390.804 94.2369 390.753 94.1529 390.753 94.063V0.260972C390.753 0.149992 390.828 0.0540097 390.936 0.0240151C391.044 -0.00597945 391.155 0.0420119 391.212 0.137994L429.623 67.2478C429.686 67.3588 429.653 67.4968 429.551 67.5688L391.14 94.2579C391.095 94.2909 391.047 94.3059 390.999 94.3059ZM391.242 1.18181V93.595L429.083 67.2988L391.242 1.18181Z" fill="black" style="fill:black;fill-opacity:1;"/>
<path d="M429.41 67.6167C429.371 67.6167 429.332 67.6077 429.293 67.5867L390.882 46.7045C390.762 46.6385 390.72 46.4915 390.783 46.3715C390.849 46.2515 390.996 46.2095 391.116 46.2725L429.527 67.1547C429.647 67.2207 429.689 67.3677 429.626 67.4877C429.581 67.5717 429.497 67.6167 429.41 67.6167Z" fill="black" style="fill:black;fill-opacity:1;"/>
<path d="M430.928 75.7904C430.844 75.7064 430.715 75.6944 430.619 75.7604L390.864 102.312C390.795 102.357 390.756 102.435 390.756 102.516V117.573C390.918 117.516 391.08 117.468 391.245 117.426V102.647L429.848 76.8642L391.245 133.689V115.371C391.08 115.332 390.915 115.287 390.756 115.233V134.484C390.756 134.592 390.825 134.685 390.93 134.718C390.954 134.724 390.978 134.73 391.002 134.73C391.083 134.73 391.158 134.691 391.203 134.622L430.958 76.0993C431.024 76.0033 431.012 75.8743 430.928 75.7904Z" fill="black" style="fill:black;fill-opacity:1;"/>
<path d="M376.143 83.4929H375.606C375.582 83.4929 375.558 83.4839 375.537 83.4719L365.633 76.5881C365.429 76.4891 365.243 76.3602 365.078 76.2042L357.063 70.6342C357.03 70.6102 357.009 70.5742 357.009 70.5352V68.8765C357.009 68.8075 357.063 68.7535 357.132 68.7535H376.146C376.215 68.7535 376.269 68.8075 376.269 68.8765V83.3729C376.266 83.4389 376.212 83.4929 376.143 83.4929ZM375.645 83.2499H376.02V68.9965H357.255V70.4692L365.228 76.0062C365.234 76.0092 365.237 76.0152 365.243 76.0182C365.393 76.1622 365.564 76.2822 365.75 76.3692C365.756 76.3722 365.762 76.3752 365.768 76.3782L375.645 83.2499Z" fill="black" style="fill:black;fill-opacity:1;"/>
<path d="M376.997 68.9965H356.28C356.211 68.9965 356.157 68.9425 356.157 68.8736V66.9329C356.157 66.8639 356.211 66.8099 356.28 66.8099H376.997C377.066 66.8099 377.12 66.8639 377.12 66.9329V68.8736C377.12 68.9425 377.066 68.9965 376.997 68.9965ZM356.403 68.7536H376.877V67.0589H356.403V68.7536Z" fill="black" style="fill:black;fill-opacity:1;"/>
<path d="M371.763 67.0559H361.514C361.445 67.0559 361.391 67.0019 361.391 66.9329V47.7364C361.391 47.6674 361.445 47.6134 361.514 47.6134H371.763C371.832 47.6134 371.886 47.6674 371.886 47.7364V66.9329C371.886 67.0019 371.832 67.0559 371.763 67.0559ZM361.634 66.8129H371.64V47.8624H361.634V66.8129Z" fill="black" style="fill:black;fill-opacity:1;"/>
<path d="M372.933 47.8624H360.341C360.272 47.8624 360.219 47.8084 360.219 47.7394V45.8737C360.219 45.8047 360.272 45.7507 360.341 45.7507H372.933C373.002 45.7507 373.056 45.8047 373.056 45.8737V47.7394C373.056 47.8054 373.002 47.8624 372.933 47.8624ZM360.464 47.6164H372.81V45.9967H360.464V47.6164Z" fill="black" style="fill:black;fill-opacity:1;"/>
<path d="M370.828 45.9967H362.45C362.381 45.9967 362.327 45.9427 362.327 45.8737V37.7482C362.327 37.6792 362.381 37.6252 362.45 37.6252H370.828C370.897 37.6252 370.951 37.6792 370.951 37.7482V45.8737C370.951 45.9427 370.894 45.9967 370.828 45.9967ZM362.573 45.7508H370.705V37.8682H362.573V45.7508Z" fill="black" style="fill:black;fill-opacity:1;"/>
<path d="M369.097 45.9967H364.181C364.112 45.9967 364.058 45.9427 364.058 45.8737V37.7482C364.058 37.6792 364.112 37.6252 364.181 37.6252H369.097C369.166 37.6252 369.22 37.6792 369.22 37.7482V45.8737C369.22 45.9427 369.163 45.9967 369.097 45.9967ZM364.304 45.7508H368.974V37.8682H364.304V45.7508Z" fill="black" style="fill:black;fill-opacity:1;"/>
<path d="M371.604 37.8712H361.673C361.604 37.8712 361.55 37.8172 361.55 37.7482V36.0175C361.55 35.9485 361.604 35.8945 361.673 35.8945H371.604C371.673 35.8945 371.727 35.9485 371.727 36.0175V37.7482C371.727 37.8142 371.673 37.8712 371.604 37.8712ZM361.793 37.6252H371.481V36.1405H361.793V37.6252Z" fill="black" style="fill:black;fill-opacity:1;"/>
<path d="M370 36.1405H363.278C363.209 36.1405 363.155 36.0865 363.155 36.0175V29.2957C363.155 29.2267 363.209 29.1727 363.278 29.1727H370C370.069 29.1727 370.123 29.2267 370.123 29.2957V36.0175C370.123 36.0835 370.066 36.1405 370 36.1405ZM363.401 35.8945H369.88V29.4157H363.401V35.8945Z" fill="black" style="fill:black;fill-opacity:1;"/>
<path d="M367.816 36.1405H365.458C365.389 36.1405 365.335 36.0865 365.335 36.0175V29.2957C365.335 29.2267 365.389 29.1727 365.458 29.1727H367.816C367.885 29.1727 367.939 29.2267 367.939 29.2957V36.0175C367.939 36.0835 367.885 36.1405 367.816 36.1405ZM365.581 35.8945H367.696V29.4157H365.581V35.8945Z" fill="black" style="fill:black;fill-opacity:1;"/>
<path d="M370 29.4157H363.278C363.209 29.4157 363.155 29.3617 363.155 29.2927C363.155 27.9879 364.067 26.8841 365.338 26.6352V22.5739C365.338 22.5049 365.392 22.4509 365.461 22.4509H367.819C367.888 22.4509 367.942 22.5049 367.942 22.5739V26.6352C369.214 26.8871 370.126 27.9879 370.126 29.2927C370.123 29.3617 370.066 29.4157 370 29.4157ZM363.404 29.1727H369.877C369.82 28.0089 368.965 27.0461 367.801 26.8601C367.741 26.8511 367.699 26.8001 367.699 26.7402V22.6939H365.584V26.7372C365.584 26.7971 365.539 26.8481 365.482 26.8571C364.316 27.0431 363.458 28.0059 363.404 29.1727Z" fill="black" style="fill:black;fill-opacity:1;"/>
<path d="M369.556 67.0559H363.722C363.653 67.0559 363.599 67.0019 363.599 66.9329V47.7364C363.599 47.6674 363.653 47.6134 363.722 47.6134H369.559C369.628 47.6134 369.682 47.6674 369.682 47.7364V66.9329C369.679 67.0019 369.625 67.0559 369.556 67.0559ZM363.842 66.8129H369.433V47.8624H363.842V66.8129Z" fill="black" style="fill:black;fill-opacity:1;"/>
<path d="M370.795 80.1485C370.771 80.1485 370.747 80.1425 370.726 80.1275L365.633 76.5881C365.429 76.4891 365.243 76.3602 365.078 76.2042L362.414 74.3535C362.381 74.3295 362.36 74.2935 362.36 74.2545V68.8765C362.36 68.8075 362.414 68.7535 362.483 68.7535H370.795C370.864 68.7535 370.918 68.8075 370.918 68.8765V80.0285C370.918 80.0735 370.894 80.1155 370.852 80.1365C370.834 80.1455 370.813 80.1485 370.795 80.1485ZM362.606 74.1886L365.225 76.0092C365.231 76.0122 365.234 76.0182 365.24 76.0212C365.39 76.1652 365.561 76.2852 365.746 76.3722C365.752 76.3752 365.758 76.3782 365.764 76.3812L370.672 79.7915V68.9965H362.606V74.1886Z" fill="black" style="fill:black;fill-opacity:1;"/>
<path d="M367.816 22.6939H365.458C365.419 22.6939 365.383 22.6759 365.359 22.6429C365.335 22.6129 365.329 22.5709 365.341 22.5349L366.52 18.7226C366.535 18.6716 366.583 18.6356 366.637 18.6356C366.691 18.6356 366.739 18.6716 366.754 18.7226L367.933 22.5349C367.945 22.5709 367.939 22.6129 367.915 22.6429C367.894 22.6759 367.855 22.6939 367.816 22.6939ZM365.626 22.4509H367.651L366.637 19.1755L365.626 22.4509Z" fill="black" style="fill:black;fill-opacity:1;"/>
<path d="M366.637 18.8815C366.568 18.8815 366.514 18.8276 366.514 18.7586V14.3464C366.514 14.2774 366.568 14.2234 366.637 14.2234C366.706 14.2234 366.76 14.2774 366.76 14.3464V18.7616C366.76 18.8276 366.706 18.8815 366.637 18.8815Z" fill="black" style="fill:black;fill-opacity:1;"/>
<path d="M366.637 76.8221C366.287 76.8221 365.951 76.7441 365.639 76.5912C365.429 76.4922 365.24 76.3572 365.069 76.1952C364.616 75.7693 364.358 75.1664 364.358 74.5425C364.358 73.2858 365.381 72.2629 366.637 72.2629C367.894 72.2629 368.917 73.2858 368.917 74.5425C368.917 75.7993 367.894 76.8221 366.637 76.8221ZM366.637 72.5089C365.516 72.5089 364.604 73.4207 364.604 74.5425C364.604 75.1004 364.835 75.6373 365.24 76.0183C365.39 76.1622 365.561 76.2822 365.747 76.3722C366.026 76.5102 366.326 76.5792 366.637 76.5792C367.759 76.5792 368.671 75.6673 368.671 74.5455C368.674 73.4207 367.759 72.5089 366.637 72.5089Z" fill="black" style="fill:black;fill-opacity:1;"/>
<path d="M366.637 59.2903C365.56 59.2903 364.685 58.4145 364.685 57.3377C364.685 56.2609 365.56 55.385 366.637 55.385C367.714 55.385 368.59 56.2609 368.59 57.3377C368.593 58.4145 367.714 59.2903 366.637 59.2903ZM366.637 55.628C365.695 55.628 364.928 56.3958 364.928 57.3377C364.928 58.2795 365.695 59.0473 366.637 59.0473C367.579 59.0473 368.347 58.2795 368.347 57.3377C368.347 56.3958 367.582 55.628 366.637 55.628Z" fill="black" style="fill:black;fill-opacity:1;"/>
<path d="M366.637 59.2903C365.56 59.2903 364.685 58.4145 364.685 57.3377C364.685 56.2609 365.56 55.385 366.637 55.385C367.714 55.385 368.59 56.2609 368.59 57.3377C368.593 58.4145 367.714 59.2903 366.637 59.2903ZM366.637 55.628C365.695 55.628 364.928 56.3958 364.928 57.3377C364.928 58.2795 365.695 59.0473 366.637 59.0473C367.579 59.0473 368.347 58.2795 368.347 57.3377C368.347 56.3958 367.582 55.628 366.637 55.628Z" fill="black" style="fill:black;fill-opacity:1;"/>
<path d="M361.514 67.0558H358.407C358.374 67.0558 358.341 67.0408 358.32 67.0168C358.296 66.9928 358.284 66.9599 358.287 66.9269C358.359 65.1932 359.775 63.7894 361.511 63.7324C361.544 63.7294 361.577 63.7444 361.601 63.7654C361.625 63.7894 361.637 63.8194 361.637 63.8524V66.9299C361.634 67.0018 361.58 67.0558 361.514 67.0558ZM358.539 66.8129H361.391V63.9874C359.883 64.0984 358.665 65.3072 358.539 66.8129Z" fill="black" style="fill:black;fill-opacity:1;"/>
<path d="M374.769 67.0559H371.664C371.595 67.0559 371.542 67.0019 371.542 66.9329V63.8585C371.542 63.8255 371.554 63.7925 371.577 63.7715C371.601 63.7475 371.631 63.7355 371.667 63.7385C373.401 63.7955 374.82 65.1992 374.892 66.9329C374.892 66.9659 374.88 66.9989 374.859 67.0229C374.835 67.0439 374.802 67.0559 374.769 67.0559ZM371.784 66.8129H374.637C374.511 65.3072 373.29 64.0984 371.784 63.9874V66.8129Z" fill="black" style="fill:black;fill-opacity:1;"/>
<path d="M366.637 43.4141C365.753 43.4141 365.036 42.6942 365.036 41.8124C365.036 40.9306 365.756 40.2107 366.637 40.2107C367.522 40.2107 368.239 40.9306 368.239 41.8124C368.239 42.6942 367.522 43.4141 366.637 43.4141ZM366.637 40.4536C365.887 40.4536 365.279 41.0625 365.279 41.8124C365.279 42.5623 365.887 43.1712 366.637 43.1712C367.387 43.1712 367.996 42.5623 367.996 41.8124C367.996 41.0625 367.387 40.4536 366.637 40.4536Z" fill="black" style="fill:black;fill-opacity:1;"/>
<path d="M381.287 71.2281C381.098 71.2281 380.912 71.291 380.762 71.402C380.513 70.9941 380.066 70.7391 379.586 70.7391C379.301 70.7391 379.022 70.8291 378.791 70.9941C378.425 70.5772 377.903 70.3402 377.345 70.3402C376.947 70.3402 376.575 70.4632 376.269 70.6702V70.9761C376.56 70.7301 376.938 70.5832 377.345 70.5832C377.867 70.5832 378.353 70.8231 378.674 71.237C378.695 71.264 378.725 71.279 378.758 71.285C378.791 71.288 378.824 71.279 378.851 71.255C379.055 71.0811 379.316 70.9821 379.586 70.9821C380.027 70.9821 380.432 71.243 380.618 71.645C380.636 71.681 380.669 71.708 380.711 71.714C380.75 71.72 380.792 71.708 380.819 71.678C380.942 71.546 381.11 71.474 381.29 71.474C381.647 71.474 381.935 71.765 381.935 72.1189C381.935 72.4758 381.644 72.7638 381.29 72.7638C381.11 72.7638 380.942 72.6918 380.819 72.5598C380.792 72.5298 380.75 72.5148 380.711 72.5238C380.672 72.5298 380.636 72.5568 380.618 72.5928C380.432 72.9947 380.03 73.2557 379.586 73.2557C379.367 73.2557 379.154 73.1927 378.968 73.0727C378.941 73.0547 378.905 73.0487 378.872 73.0577C378.839 73.0667 378.812 73.0847 378.794 73.1147C378.494 73.6306 377.936 73.9516 377.342 73.9516C376.932 73.9516 376.557 73.8046 376.266 73.5586V73.8646C376.575 74.0745 376.944 74.1945 377.342 74.1945C377.981 74.1945 378.584 73.8706 378.941 73.3427C379.139 73.4476 379.358 73.5016 379.583 73.5016C380.066 73.5016 380.51 73.2467 380.759 72.8388C380.912 72.9497 381.095 73.0127 381.284 73.0127C381.776 73.0127 382.175 72.6138 382.175 72.1219C382.178 71.627 381.779 71.2281 381.287 71.2281Z" fill="black" style="fill:black;fill-opacity:1;"/>
<path d="M396.149 50.6998C395.96 50.6998 395.774 50.7628 395.624 50.8738C395.375 50.4659 394.928 50.2109 394.448 50.2109C394.163 50.2109 393.884 50.3009 393.653 50.4659C393.288 50.049 392.766 49.812 392.208 49.812C391.809 49.812 391.437 49.935 391.131 50.1419V50.4479C391.422 50.2019 391.8 50.055 392.208 50.055C392.73 50.055 393.216 50.2949 393.536 50.7088C393.557 50.7358 393.587 50.7508 393.62 50.7568C393.653 50.7598 393.686 50.7508 393.713 50.7268C393.917 50.5529 394.178 50.4539 394.448 50.4539C394.889 50.4539 395.294 50.7148 395.48 51.1168C395.498 51.1528 395.531 51.1798 395.573 51.1858C395.612 51.1918 395.654 51.1798 395.681 51.1498C395.804 51.0178 395.972 50.9458 396.152 50.9458C396.509 50.9458 396.797 51.2368 396.797 51.5907C396.797 51.9476 396.506 52.2356 396.152 52.2356C395.972 52.2356 395.804 52.1636 395.681 52.0316C395.654 52.0016 395.612 51.9866 395.573 51.9956C395.534 52.0016 395.498 52.0286 395.48 52.0646C395.294 52.4665 394.892 52.7275 394.448 52.7275C394.229 52.7275 394.016 52.6645 393.83 52.5445C393.803 52.5265 393.767 52.5205 393.734 52.5295C393.701 52.5385 393.674 52.5565 393.656 52.5865C393.357 53.1024 392.799 53.4234 392.205 53.4234C391.794 53.4234 391.419 53.2764 391.128 53.0304V53.3364C391.437 53.5463 391.806 53.6663 392.205 53.6663C392.844 53.6663 393.447 53.3424 393.803 52.8145C394.001 52.9194 394.22 52.9734 394.445 52.9734C394.928 52.9734 395.372 52.7185 395.621 52.3106C395.774 52.4215 395.957 52.4845 396.146 52.4845C396.638 52.4845 397.037 52.0856 397.037 51.5937C397.04 51.0988 396.641 50.6998 396.149 50.6998Z" fill="black" style="fill:black;fill-opacity:1;"/>
<path d="M386.05 85.5834C386.239 85.5834 386.425 85.5204 386.575 85.4094C386.824 85.8174 387.27 86.0723 387.75 86.0723C388.035 86.0723 388.314 85.9823 388.545 85.8174C388.911 86.2343 389.433 86.4712 389.991 86.4712C390.39 86.4712 390.762 86.3483 391.068 86.1413V85.8354C390.777 86.0813 390.399 86.2283 389.991 86.2283C389.469 86.2283 388.983 85.9883 388.662 85.5744C388.641 85.5474 388.611 85.5324 388.578 85.5264C388.545 85.5234 388.512 85.5324 388.485 85.5564C388.281 85.7304 388.02 85.8294 387.75 85.8294C387.309 85.8294 386.905 85.5684 386.719 85.1665C386.701 85.1305 386.668 85.1035 386.626 85.0975C386.587 85.0915 386.545 85.1035 386.518 85.1335C386.395 85.2655 386.227 85.3375 386.047 85.3375C385.69 85.3375 385.402 85.0465 385.402 84.6926C385.402 84.3356 385.693 84.0477 386.047 84.0477C386.227 84.0477 386.395 84.1197 386.518 84.2517C386.545 84.2816 386.587 84.2966 386.626 84.2876C386.665 84.2816 386.701 84.2546 386.719 84.2187C386.905 83.8167 387.306 83.5558 387.75 83.5558C387.969 83.5558 388.182 83.6188 388.368 83.7387C388.395 83.7567 388.431 83.7627 388.464 83.7537C388.497 83.7447 388.524 83.7267 388.542 83.6967C388.842 83.1808 389.4 82.8599 389.994 82.8599C390.405 82.8599 390.78 83.0069 391.071 83.2528V82.9469C390.762 82.7369 390.393 82.6169 389.994 82.6169C389.355 82.6169 388.752 82.9409 388.395 83.4688C388.197 83.3638 387.978 83.3098 387.753 83.3098C387.27 83.3098 386.827 83.5648 386.578 83.9727C386.425 83.8617 386.242 83.7987 386.053 83.7987C385.561 83.7987 385.162 84.1977 385.162 84.6896C385.162 85.1845 385.561 85.5834 386.05 85.5834Z" fill="black" style="fill:black;fill-opacity:1;"/>
<path d="M383.758 79.4167C383.752 79.4167 383.746 79.4167 383.74 79.4137C383.686 79.4047 383.644 79.3627 383.638 79.3087C383.608 79.0657 383.515 78.9098 383.356 78.8258C382.93 78.5978 382.169 78.9727 382.163 78.9757C382.103 79.0057 382.028 78.9818 381.998 78.9218C381.968 78.8618 381.992 78.7868 382.052 78.7568C382.088 78.7388 382.93 78.3249 383.47 78.6098C383.626 78.6908 383.737 78.8228 383.809 78.9967C383.932 78.8468 384.13 78.6638 384.418 78.5768C384.82 78.4538 385.279 78.5498 385.78 78.8588C385.837 78.8948 385.855 78.9698 385.819 79.0267C385.783 79.0837 385.708 79.1017 385.651 79.0657C385.213 78.7958 384.823 78.7088 384.49 78.8078C384.061 78.9368 383.869 79.3387 383.869 79.3447C383.851 79.3897 383.806 79.4167 383.758 79.4167Z" fill="black" style="fill:black;fill-opacity:1;"/>
<path d="M385.924 67.8986C385.918 67.8986 385.912 67.8986 385.906 67.8986C385.852 67.8896 385.81 67.8476 385.804 67.7936C385.789 67.6737 385.744 67.5957 385.669 67.5567C385.486 67.4607 385.141 67.5897 385.033 67.6437C384.973 67.6737 384.898 67.6497 384.868 67.5897C384.838 67.5297 384.862 67.4547 384.922 67.4247C384.976 67.3977 385.456 67.1667 385.783 67.3407C385.843 67.3737 385.912 67.4247 385.966 67.5147C386.041 67.4367 386.146 67.3587 386.287 67.3167C386.533 67.2417 386.809 67.2987 387.108 67.4847C387.165 67.5207 387.183 67.5957 387.147 67.6527C387.111 67.7096 387.037 67.7276 386.98 67.6916C386.743 67.5447 386.533 67.4967 386.356 67.5507C386.137 67.6167 386.035 67.8266 386.035 67.8296C386.014 67.8716 385.972 67.8986 385.924 67.8986Z" fill="black" style="fill:black;fill-opacity:1;"/>
<path d="M408.543 59.6832C408.537 59.6832 408.531 59.6832 408.525 59.6832C408.471 59.6742 408.429 59.6322 408.423 59.5782C408.408 59.4582 408.363 59.3802 408.288 59.3412C408.105 59.2452 407.76 59.3742 407.652 59.4282C407.592 59.4582 407.517 59.4342 407.487 59.3742C407.457 59.3142 407.481 59.2392 407.541 59.2092C407.595 59.1822 408.075 58.9513 408.402 59.1253C408.462 59.1582 408.531 59.2092 408.585 59.2992C408.66 59.2212 408.765 59.1433 408.906 59.1013C409.152 59.0263 409.428 59.0833 409.728 59.2692C409.785 59.3052 409.803 59.3802 409.767 59.4372C409.731 59.4942 409.656 59.5122 409.599 59.4762C409.362 59.3292 409.152 59.2812 408.975 59.3352C408.756 59.4012 408.654 59.6112 408.654 59.6142C408.633 59.6532 408.591 59.6832 408.543 59.6832Z" fill="black" style="fill:black;fill-opacity:1;"/>
<path d="M394.262 83.511H392.166C392.079 83.511 392.01 83.58 392.01 83.667V84.8097H390.999V85.1247H392.166C392.253 85.1247 392.322 85.0557 392.322 84.9687V83.8259H394.103V87.8752H390.999V88.1901H394.262C394.349 88.1901 394.418 88.1211 394.418 88.0342V83.673C394.418 83.58 394.346 83.511 394.262 83.511Z" fill="black" style="fill:black;fill-opacity:1;"/>
<path d="M394.511 61.2249H392.268C392.181 61.2249 392.112 61.2938 392.112 61.3808V62.5446H390.999V62.8596H392.268C392.355 62.8596 392.424 62.7906 392.424 62.7036V61.5398H394.355V64.2513L392.918 68.4415C392.912 68.4565 392.909 68.4745 392.909 68.4925V83.5138H392.268C392.181 83.5138 392.112 83.5828 392.112 83.6698V84.8126H390.999V85.1275H392.268C392.355 85.1275 392.424 85.0585 392.424 84.9716V83.8288H393.065C393.152 83.8288 393.221 83.7598 393.221 83.6728V68.5195L394.658 64.3293C394.664 64.3143 394.667 64.2963 394.667 64.2783V61.3838C394.67 61.2938 394.598 61.2249 394.511 61.2249Z" fill="black" style="fill:black;fill-opacity:1;"/>
<path d="M393.065 68.0787C392.391 68.0877 391.698 68.0937 390.999 68.0967V68.4117C391.698 68.4087 392.394 68.4027 393.068 68.3937C393.155 68.3937 393.224 68.3217 393.224 68.2347C393.221 68.1477 393.152 68.0787 393.065 68.0787Z" fill="black" style="fill:black;fill-opacity:1;"/>
<path d="M394.511 64.3054C393.362 64.3204 392.184 64.3294 390.999 64.3294V64.6444C392.184 64.6414 393.365 64.6354 394.514 64.6204C394.601 64.6204 394.67 64.5484 394.67 64.4614C394.667 64.3744 394.598 64.3084 394.511 64.3054Z" fill="black" style="fill:black;fill-opacity:1;"/>
<path d="M393.296 61.5369C393.209 61.5369 393.14 61.4679 393.14 61.3809V60.2291C393.14 60.1661 393.179 60.1091 393.236 60.0851L399.682 57.4006V53.5643C399.682 53.4773 399.751 53.4083 399.838 53.4083C399.925 53.4083 399.994 53.4773 399.994 53.5643V57.5056C399.994 57.5686 399.955 57.6256 399.898 57.6496L393.452 60.3341V61.3839C393.452 61.4679 393.383 61.5369 393.296 61.5369Z" fill="black" style="fill:black;fill-opacity:1;"/>
<path d="M414.712 62.7006V61.5368H416.329V64.4373L415.078 68.1866C415.072 68.2016 415.069 68.2196 415.069 68.2376V77.134C415.171 77.077 415.276 77.032 415.384 76.987V68.2646L416.635 64.5153C416.641 64.5003 416.644 64.4823 416.644 64.4643V61.3808C416.644 61.2938 416.575 61.2249 416.488 61.2249H414.559C414.472 61.2249 414.403 61.2938 414.403 61.3808V62.5446H412.076V61.3808C412.076 61.2938 412.007 61.2249 411.92 61.2249H410.054C409.967 61.2249 409.898 61.2938 409.898 61.3808V62.5446H407.571V61.3808C407.571 61.2938 407.502 61.2249 407.415 61.2249H405.171C405.084 61.2249 405.015 61.2938 405.015 61.3808V64.2753C405.015 64.2933 405.018 64.3083 405.024 64.3263L406.461 68.5165V83.2469C406.563 83.2439 406.668 83.2439 406.776 83.2439V68.4895C406.776 68.4715 406.773 68.4565 406.767 68.4385L405.33 64.2483V61.5368H407.262V62.7006C407.262 62.7876 407.331 62.8566 407.418 62.8566H410.057C410.144 62.8566 410.213 62.7876 410.213 62.7006V61.5368H411.764V62.7006C411.764 62.7876 411.833 62.8566 411.92 62.8566H414.562C414.643 62.8596 414.712 62.7876 414.712 62.7006Z" fill="black" style="fill:black;fill-opacity:1;"/>
<path d="M415.228 68.3936H406.611C406.524 68.3936 406.455 68.3246 406.455 68.2376C406.455 68.1507 406.524 68.0817 406.611 68.0817H415.228C415.315 68.0817 415.384 68.1507 415.384 68.2376C415.384 68.3246 415.315 68.3936 415.228 68.3936Z" fill="black" style="fill:black;fill-opacity:1;"/>
<path d="M416.485 64.6203H405.162C405.075 64.6203 405.006 64.5513 405.006 64.4643C405.006 64.3773 405.075 64.3083 405.162 64.3083H416.485C416.572 64.3083 416.641 64.3773 416.641 64.4643C416.641 64.5513 416.572 64.6203 416.485 64.6203Z" fill="black" style="fill:black;fill-opacity:1;"/>
<path d="M406.38 61.5369C406.293 61.5369 406.224 61.4679 406.224 61.3809V60.3311L399.778 57.6466C399.721 57.6226 399.682 57.5656 399.682 57.5027V53.5614C399.682 53.4744 399.751 53.4054 399.838 53.4054C399.925 53.4054 399.994 53.4744 399.994 53.5614V57.3977L406.44 60.0822C406.497 60.1062 406.536 60.1632 406.536 60.2262V61.378C406.536 61.4679 406.467 61.5369 406.38 61.5369Z" fill="black" style="fill:black;fill-opacity:1;"/>
<path d="M411.077 72.4819C410.99 72.4819 410.921 72.4129 410.921 72.326V70.9222C410.921 70.8352 410.99 70.7662 411.077 70.7662C411.164 70.7662 411.233 70.8352 411.233 70.9222V72.326C411.233 72.4129 411.164 72.4819 411.077 72.4819Z" fill="black" style="fill:black;fill-opacity:1;"/>
<path d="M411.077 77.2001C410.99 77.2001 410.921 77.1311 410.921 77.0441V75.6403C410.921 75.5534 410.99 75.4844 411.077 75.4844C411.164 75.4844 411.233 75.5534 411.233 75.6403V77.0441C411.233 77.1311 411.164 77.2001 411.077 77.2001Z" fill="black" style="fill:black;fill-opacity:1;"/>
<path d="M405.708 64.6203H394.511C394.424 64.6203 394.355 64.5513 394.355 64.4643C394.355 64.3773 394.424 64.3083 394.511 64.3083H405.708C405.795 64.3083 405.864 64.3773 405.864 64.4643C405.864 64.5513 405.795 64.6203 405.708 64.6203Z" fill="black" style="fill:black;fill-opacity:1;"/>
<path d="M406.779 68.3936H392.565C392.478 68.3936 392.409 68.3246 392.409 68.2376C392.409 68.1507 392.478 68.0817 392.565 68.0817H406.779C406.866 68.0817 406.935 68.1507 406.935 68.2376C406.935 68.3246 406.866 68.3936 406.779 68.3936Z" fill="black" style="fill:black;fill-opacity:1;"/>
<path d="M402.124 77.515H397.784C397.697 77.515 397.628 77.446 397.628 77.359V73.2408C397.628 72.4069 398.306 71.7321 399.136 71.7321H400.771C401.605 71.7321 402.28 72.4099 402.28 73.2408V77.359C402.28 77.443 402.211 77.515 402.124 77.515ZM397.94 77.2001H401.965V73.2378C401.965 72.5779 401.428 72.041 400.768 72.041H399.133C398.474 72.041 397.937 72.5779 397.937 73.2378V77.2001H397.94Z" fill="black" style="fill:black;fill-opacity:1;"/>
<path d="M400.135 87.8751H398.126V83.9128C398.126 83.2529 398.662 82.716 399.322 82.716H400.957C401.617 82.716 402.154 83.2529 402.154 83.9128V86.3423C402.256 86.2763 402.361 86.2134 402.469 86.1504V83.9128C402.469 83.0789 401.791 82.4041 400.96 82.4041H399.325C398.492 82.4041 397.817 83.0819 397.817 83.9128V88.031C397.817 88.118 397.886 88.187 397.973 88.187H399.784C399.895 88.082 400.015 87.98 400.135 87.8751Z" fill="black" style="fill:black;fill-opacity:1;"/>
<path d="M423.342 71.4139C423.444 71.354 423.549 71.309 423.657 71.279V66.4498C423.657 66.4079 423.639 66.3659 423.609 66.3359C423.579 66.3059 423.537 66.2879 423.495 66.2939L420.6 66.4199C420.516 66.4229 420.45 66.4918 420.45 66.5758V68.0785H418.312V66.5758C418.312 66.4888 418.243 66.4199 418.156 66.4199H415.786C415.699 66.4199 415.63 66.4888 415.63 66.5758C415.63 66.6628 415.699 66.7318 415.786 66.7318H418V68.2345C418 68.3215 418.069 68.3905 418.156 68.3905H420.609C420.696 68.3905 420.765 68.3215 420.765 68.2345V66.7258L423.345 66.6148V71.4139H423.342Z" fill="black" style="fill:black;fill-opacity:1;"/>
<path d="M423.498 70.7302H415.228C415.141 70.7302 415.073 70.6612 415.073 70.5742C415.073 70.4872 415.141 70.4182 415.228 70.4182H423.498C423.585 70.4182 423.654 70.4872 423.654 70.5742C423.654 70.6612 423.585 70.7302 423.498 70.7302Z" fill="black" style="fill:black;fill-opacity:1;"/>
<path d="M418.084 74.2545C417.997 74.2545 417.928 74.1855 417.928 74.0985V72.6948C417.928 72.6078 417.997 72.5388 418.084 72.5388C418.171 72.5388 418.24 72.6078 418.24 72.6948V74.0985C418.24 74.1825 418.171 74.2545 418.084 74.2545Z" fill="black" style="fill:black;fill-opacity:1;"/>
<path d="M400.138 87.875H392.565C392.478 87.875 392.409 87.944 392.409 88.031C392.409 88.118 392.478 88.1869 392.565 88.1869H399.784C399.898 88.079 400.018 87.977 400.138 87.875Z" fill="black" style="fill:black;fill-opacity:1;"/>
<path d="M390.948 62.3617H371.886C371.817 62.3617 371.763 62.3077 371.763 62.2387C371.763 62.1697 371.817 62.1157 371.886 62.1157H390.951C391.02 62.1157 391.074 62.1697 391.074 62.2387C391.071 62.3077 391.017 62.3617 390.948 62.3617Z" fill="black" style="fill:black;fill-opacity:1;"/>
<path d="M390.948 60.484H371.886C371.817 60.484 371.763 60.43 371.763 60.361C371.763 60.292 371.817 60.238 371.886 60.238H390.951C391.02 60.238 391.074 60.292 391.074 60.361C391.074 60.43 391.017 60.484 390.948 60.484Z" fill="black" style="fill:black;fill-opacity:1;"/>
<path d="M390.948 58.6064H371.886C371.817 58.6064 371.763 58.5524 371.763 58.4834C371.763 58.4145 371.817 58.3605 371.886 58.3605H390.951C391.02 58.3605 391.074 58.4145 391.074 58.4834C391.071 58.5524 391.017 58.6064 390.948 58.6064Z" fill="black" style="fill:black;fill-opacity:1;"/>
<path d="M392.112 93.259H391.218C391.149 93.259 391.095 93.313 391.095 93.382C391.095 93.451 391.149 93.505 391.218 93.505H391.947C391.998 93.415 392.052 93.334 392.112 93.259Z" fill="black" style="fill:black;fill-opacity:1;"/>
<path d="M390.948 56.4828H372.495C372.381 56.5758 372.264 56.6568 372.141 56.7287H390.951C391.02 56.7287 391.074 56.6748 391.074 56.6058C391.071 56.5398 391.017 56.4828 390.948 56.4828Z" fill="black" style="fill:black;fill-opacity:1;"/>
<path d="M390.948 54.6051H376.571C376.319 54.6891 376.065 54.7701 375.81 54.8511H390.948C391.017 54.8511 391.071 54.7971 391.071 54.7281C391.071 54.6621 391.017 54.6051 390.948 54.6051Z" fill="black" style="fill:black;fill-opacity:1;"/>
<path d="M390.948 52.7274H379.694C379.607 52.8114 379.517 52.8924 379.43 52.9734H390.951C391.02 52.9734 391.074 52.9194 391.074 52.8504C391.071 52.7844 391.017 52.7274 390.948 52.7274Z" fill="black" style="fill:black;fill-opacity:1;"/>
<path d="M390.948 50.8499H382.723C382.624 50.9038 382.528 50.9578 382.432 51.0148C382.387 51.0418 382.342 51.0688 382.297 51.0928H390.951C391.02 51.0928 391.074 51.0388 391.074 50.9698C391.071 50.9068 391.017 50.8499 390.948 50.8499Z" fill="black" style="fill:black;fill-opacity:1;"/>
<path d="M390.948 48.9722H386.683C386.587 49.0592 386.488 49.1401 386.389 49.2181H390.948C391.017 49.2181 391.071 49.1641 391.071 49.0951C391.071 49.0262 391.017 48.9722 390.948 48.9722Z" fill="black" style="fill:black;fill-opacity:1;"/>
<path d="M396.149 24.3526C395.96 24.3526 395.774 24.4155 395.624 24.5265C395.375 24.1186 394.928 23.8636 394.448 23.8636C394.163 23.8636 393.884 23.9536 393.653 24.1186C393.288 23.7017 392.766 23.4647 392.208 23.4647C391.809 23.4647 391.437 23.5877 391.131 23.7947V24.1006C391.422 23.8546 391.8 23.7077 392.208 23.7077C392.73 23.7077 393.216 23.9476 393.536 24.3616C393.557 24.3886 393.587 24.4035 393.62 24.4095C393.653 24.4125 393.686 24.4036 393.713 24.3796C393.917 24.2056 394.178 24.1066 394.448 24.1066C394.889 24.1066 395.294 24.3676 395.48 24.7695C395.498 24.8055 395.531 24.8325 395.573 24.8385C395.612 24.8445 395.654 24.8325 395.681 24.8025C395.804 24.6705 395.972 24.5985 396.152 24.5985C396.509 24.5985 396.797 24.8895 396.797 25.2434C396.797 25.6003 396.506 25.8883 396.152 25.8883C395.972 25.8883 395.804 25.8163 395.681 25.6843C395.654 25.6543 395.612 25.6393 395.573 25.6483C395.534 25.6543 395.498 25.6813 395.48 25.7173C395.294 26.1192 394.892 26.3802 394.448 26.3802C394.229 26.3802 394.016 26.3172 393.83 26.1972C393.803 26.1792 393.767 26.1732 393.734 26.1822C393.701 26.1912 393.674 26.2092 393.656 26.2392C393.357 26.7551 392.799 27.0761 392.205 27.0761C391.794 27.0761 391.419 26.9291 391.128 26.6831V26.9891C391.437 27.199 391.806 27.319 392.205 27.319C392.844 27.319 393.447 26.9951 393.803 26.4672C394.001 26.5722 394.22 26.6261 394.445 26.6261C394.928 26.6261 395.372 26.3712 395.621 25.9633C395.774 26.0742 395.957 26.1372 396.146 26.1372C396.638 26.1372 397.037 25.7383 397.037 25.2464C397.04 24.7515 396.641 24.3526 396.149 24.3526Z" fill="black" style="fill:black;fill-opacity:1;"/>
<path d="M385.978 15.2582C386.167 15.2582 386.353 15.1952 386.503 15.0842C386.752 15.4922 387.199 15.7471 387.679 15.7471C387.964 15.7471 388.243 15.6571 388.473 15.4922C388.839 15.9091 389.361 16.146 389.919 16.146C390.318 16.146 390.69 16.0231 390.996 15.8161V15.5101C390.705 15.7561 390.327 15.9031 389.919 15.9031C389.397 15.9031 388.911 15.6631 388.59 15.2492C388.569 15.2222 388.539 15.2072 388.506 15.2012C388.473 15.1982 388.44 15.2072 388.414 15.2312C388.21 15.4052 387.949 15.5041 387.679 15.5041C387.238 15.5041 386.833 15.2432 386.647 14.8413C386.629 14.8053 386.596 14.7783 386.554 14.7723C386.515 14.7663 386.473 14.7783 386.446 14.8083C386.323 14.9403 386.155 15.0122 385.975 15.0122C385.618 15.0122 385.33 14.7213 385.33 14.3674C385.33 14.0104 385.621 13.7225 385.975 13.7225C386.155 13.7225 386.323 13.7945 386.446 13.9264C386.473 13.9564 386.515 13.9714 386.554 13.9624C386.593 13.9564 386.629 13.9294 386.647 13.8934C386.833 13.4915 387.235 13.2306 387.679 13.2306C387.898 13.2306 388.111 13.2935 388.297 13.4135C388.324 13.4315 388.36 13.4375 388.393 13.4285C388.425 13.4195 388.452 13.4015 388.47 13.3715C388.77 12.8556 389.328 12.5347 389.922 12.5347C390.333 12.5347 390.708 12.6817 390.999 12.9276V12.6277C390.69 12.4177 390.321 12.2977 389.922 12.2977C389.283 12.2977 388.68 12.6217 388.324 13.1496C388.126 13.0446 387.907 12.9906 387.682 12.9906C387.199 12.9906 386.755 13.2456 386.506 13.6535C386.353 13.5425 386.17 13.4795 385.981 13.4795C385.489 13.4795 385.09 13.8784 385.09 14.3704C385.087 14.8593 385.489 15.2582 385.978 15.2582Z" fill="black" style="fill:black;fill-opacity:1;"/>
<path d="M381.659 29.1728C381.653 29.1728 381.647 29.1728 381.641 29.1698C381.587 29.1608 381.545 29.1188 381.539 29.0648C381.509 28.8218 381.416 28.6659 381.257 28.5819C380.831 28.3539 380.069 28.7289 380.063 28.7319C380.003 28.7618 379.928 28.7379 379.898 28.6779C379.868 28.6179 379.892 28.5429 379.952 28.5129C379.988 28.4949 380.831 28.081 381.371 28.3659C381.527 28.4469 381.638 28.5789 381.71 28.7528C381.833 28.6029 382.031 28.4199 382.318 28.3329C382.72 28.2099 383.179 28.3059 383.68 28.6149C383.737 28.6509 383.755 28.7259 383.719 28.7828C383.683 28.8398 383.608 28.8578 383.551 28.8218C383.113 28.5519 382.723 28.4649 382.39 28.5639C381.962 28.6929 381.77 29.0948 381.77 29.0978C381.752 29.1458 381.707 29.1728 381.659 29.1728Z" fill="black" style="fill:black;fill-opacity:1;"/>
<path d="M396.374 17.8198C396.371 17.8198 396.365 17.8198 396.362 17.8198C396.326 17.8138 396.299 17.7868 396.296 17.7508C396.275 17.5948 396.215 17.4898 396.113 17.4358C395.837 17.2888 395.342 17.5318 395.336 17.5318C395.297 17.5528 395.249 17.5348 395.228 17.4958C395.207 17.4568 395.225 17.4088 395.264 17.3878C395.288 17.3758 395.837 17.1059 396.185 17.2918C396.287 17.3458 396.359 17.4298 396.404 17.5438C396.485 17.4448 396.614 17.3278 396.8 17.2709C397.061 17.1929 397.358 17.2529 397.685 17.4538C397.721 17.4778 397.733 17.5258 397.712 17.5618C397.688 17.5978 397.64 17.6098 397.604 17.5888C397.319 17.4148 397.067 17.3578 396.851 17.4208C396.572 17.5048 396.449 17.7658 396.446 17.7688C396.431 17.8018 396.404 17.8198 396.374 17.8198Z" fill="black" style="fill:black;fill-opacity:1;"/>
<path d="M385.351 21.797C385.348 21.797 385.342 21.797 385.339 21.797C385.303 21.791 385.276 21.7641 385.273 21.7281C385.252 21.5721 385.192 21.4671 385.09 21.4131C384.814 21.2661 384.319 21.5091 384.313 21.5091C384.274 21.5301 384.226 21.5121 384.205 21.4731C384.184 21.4341 384.202 21.3861 384.241 21.3651C384.265 21.3531 384.814 21.0832 385.162 21.2691C385.264 21.3231 385.336 21.4071 385.381 21.5211C385.462 21.4221 385.591 21.3051 385.777 21.2481C386.038 21.1702 386.335 21.2301 386.662 21.4311C386.698 21.4551 386.71 21.5031 386.689 21.5391C386.665 21.5751 386.617 21.5871 386.581 21.5661C386.296 21.3921 386.044 21.3351 385.828 21.3981C385.549 21.4821 385.426 21.7431 385.423 21.7461C385.411 21.779 385.384 21.797 385.351 21.797Z" fill="black" style="fill:black;fill-opacity:1;"/>
<path d="M415.846 43.5101H391.374V43.7561H415.975C415.924 43.6751 415.882 43.5911 415.846 43.5101Z" fill="black" style="fill:black;fill-opacity:1;"/>
<path d="M395.48 128.32H391.05V128.566H395.297C395.357 128.485 395.417 128.404 395.48 128.32Z" fill="black" style="fill:black;fill-opacity:1;"/>
<path d="M396.56 126.442H391.047V126.688H396.353C396.422 126.604 396.491 126.523 396.56 126.442Z" fill="black" style="fill:black;fill-opacity:1;"/>
<path d="M397.973 124.564H391.047V124.81H397.835C397.883 124.729 397.931 124.648 397.973 124.564Z" fill="black" style="fill:black;fill-opacity:1;"/>
<path d="M398.926 122.687H391.047V122.933H398.776C398.824 122.849 398.878 122.768 398.926 122.687Z" fill="black" style="fill:black;fill-opacity:1;"/>
<path d="M395.48 128.32H391.05V128.566H395.297C395.357 128.485 395.417 128.404 395.48 128.32Z" fill="black" style="fill:black;fill-opacity:1;"/>
<path d="M392.502 132.078H391.05V132.324H392.334C392.388 132.24 392.445 132.159 392.502 132.078Z" fill="black" style="fill:black;fill-opacity:1;"/>
<path d="M393.983 130.198H391.047V130.443H393.776C393.848 130.362 393.917 130.281 393.983 130.198Z" fill="black" style="fill:black;fill-opacity:1;"/>
<path d="M395.48 128.32H391.05V128.566H395.297C395.357 128.485 395.417 128.404 395.48 128.32Z" fill="black" style="fill:black;fill-opacity:1;"/>
<path d="M383.947 124.046V121.49H383.557V123.539C383.71 123.68 383.842 123.851 383.947 124.046Z" fill="black" style="fill:black;fill-opacity:1;"/>
<path d="M386.947 128.215V121.487H386.557V127.876C386.704 127.957 386.839 128.068 386.947 128.215Z" fill="black" style="fill:black;fill-opacity:1;"/>
<path d="M389.583 132.489C389.706 132.624 389.829 132.765 389.946 132.912V121.49H389.556V132.462C389.565 132.471 389.577 132.477 389.583 132.489Z" fill="black" style="fill:black;fill-opacity:1;"/>
<path d="M390.069 133.059V121.49H389.823V132.759C389.907 132.855 389.988 132.954 390.069 133.059Z" fill="black" style="fill:black;fill-opacity:1;"/>
<path d="M420.451 83.8199C420.262 83.8199 420.076 83.8829 419.926 83.9939C419.8 83.7899 419.626 83.625 419.422 83.511C419.362 83.574 419.299 83.634 419.23 83.688C419.467 83.7989 419.665 83.9939 419.779 84.2399C419.797 84.2758 419.83 84.3028 419.872 84.3088C419.911 84.3148 419.953 84.3028 419.98 84.2728C420.103 84.1409 420.271 84.0689 420.451 84.0689C420.807 84.0689 421.095 84.3598 421.095 84.7138C421.095 85.0707 420.804 85.3586 420.451 85.3586C420.271 85.3586 420.103 85.2867 419.98 85.1547C419.953 85.1247 419.911 85.1097 419.872 85.1187C419.833 85.1247 419.797 85.1517 419.779 85.1877C419.593 85.5896 419.191 85.8506 418.747 85.8506C418.477 85.8506 418.216 85.7546 418.012 85.5776C417.988 85.5566 417.955 85.5476 417.919 85.5476C417.886 85.5506 417.856 85.5686 417.835 85.5956C417.514 86.0125 417.028 86.2495 416.506 86.2495C416.095 86.2495 415.72 86.1025 415.429 85.8566V86.1625C415.738 86.3725 416.107 86.4924 416.506 86.4924C417.064 86.4924 417.583 86.2555 417.952 85.8386C418.183 86.0035 418.462 86.0935 418.747 86.0935C419.23 86.0935 419.674 85.8386 419.923 85.4306C420.076 85.5416 420.259 85.6046 420.448 85.6046C420.939 85.6046 421.338 85.2057 421.338 84.7138C421.341 84.2189 420.942 83.8199 420.451 83.8199Z" fill="black" style="fill:black;fill-opacity:1;"/>
<path d="M413.819 101.145C413.534 101.001 413.288 100.779 413.123 100.494C413.105 100.464 413.078 100.443 413.045 100.437C413.012 100.428 412.979 100.434 412.949 100.452C412.766 100.572 412.55 100.635 412.331 100.635C411.89 100.635 411.485 100.374 411.299 99.9719C411.281 99.936 411.248 99.909 411.206 99.903C411.167 99.897 411.125 99.909 411.098 99.939C410.975 100.071 410.807 100.143 410.627 100.143C410.27 100.143 409.982 99.852 409.982 99.498C409.982 99.1411 410.273 98.8532 410.627 98.8532C410.807 98.8532 410.975 98.9251 411.098 99.0571C411.125 99.0871 411.167 99.1021 411.206 99.0931C411.245 99.0871 411.281 99.0601 411.299 99.0241C411.485 98.6222 411.887 98.3612 412.331 98.3612C412.601 98.3612 412.862 98.4572 413.066 98.6342C413.09 98.6552 413.123 98.6642 413.159 98.6642C413.192 98.6612 413.222 98.6432 413.243 98.6162C413.564 98.1993 414.05 97.9623 414.572 97.9623C414.983 97.9623 415.357 98.1093 415.648 98.3552V98.0493C415.339 97.8393 414.971 97.7194 414.572 97.7194C414.014 97.7194 413.495 97.9563 413.126 98.3732C412.895 98.2083 412.616 98.1183 412.331 98.1183C411.848 98.1183 411.404 98.3732 411.155 98.7812C411.002 98.6702 410.819 98.6072 410.63 98.6072C410.138 98.6072 409.74 99.0061 409.74 99.498C409.74 99.9899 410.138 100.389 410.63 100.389C410.819 100.389 411.005 100.326 411.155 100.215C411.404 100.623 411.851 100.878 412.331 100.878C412.556 100.878 412.775 100.824 412.973 100.719C413.156 100.989 413.402 101.205 413.687 101.352C413.726 101.283 413.768 101.214 413.819 101.145Z" fill="black" style="fill:black;fill-opacity:1;"/>
<path d="M361.193 83.9757C361.004 83.9757 360.818 84.0387 360.668 84.1497C360.42 83.7418 359.973 83.4868 359.493 83.4868C359.268 83.4868 359.049 83.5408 358.851 83.6458C358.494 83.1179 357.894 82.7939 357.252 82.7939C356.853 82.7939 356.481 82.9169 356.175 83.1239V83.4298C356.466 83.1839 356.844 83.0369 357.252 83.0369C357.846 83.0369 358.401 83.3578 358.704 83.8738C358.722 83.9037 358.749 83.9247 358.782 83.9307C358.815 83.9397 358.848 83.9337 358.878 83.9157C359.061 83.7958 359.277 83.7328 359.496 83.7328C359.937 83.7328 360.342 83.9937 360.528 84.3957C360.546 84.4316 360.578 84.4586 360.62 84.4646C360.659 84.4706 360.701 84.4586 360.728 84.4287C360.851 84.2967 361.019 84.2247 361.199 84.2247C361.556 84.2247 361.844 84.5156 361.844 84.8696C361.844 85.2265 361.553 85.5145 361.199 85.5145C361.019 85.5145 360.851 85.4425 360.728 85.3105C360.701 85.2805 360.659 85.2655 360.62 85.2745C360.581 85.2805 360.546 85.3075 360.528 85.3435C360.342 85.7454 359.94 86.0064 359.496 86.0064C359.226 86.0064 358.965 85.9104 358.761 85.7334C358.737 85.7124 358.704 85.7034 358.668 85.7034C358.635 85.7064 358.605 85.7244 358.584 85.7514C358.473 85.8954 358.341 86.0154 358.194 86.1143C358.248 86.1743 358.296 86.2373 358.344 86.3093C358.473 86.2193 358.593 86.1173 358.698 85.9944C358.929 86.1593 359.208 86.2493 359.493 86.2493C359.976 86.2493 360.42 85.9944 360.668 85.5864C360.821 85.6974 361.004 85.7604 361.193 85.7604C361.685 85.7604 362.084 85.3615 362.084 84.8696C362.084 84.3747 361.685 83.9757 361.193 83.9757Z" fill="black" style="fill:black;fill-opacity:1;"/>
<path d="M385.459 98.871C385.198 99.0389 384.892 99.1379 384.559 99.1379C383.965 99.1379 383.41 98.817 383.107 98.3011C383.089 98.2711 383.062 98.2501 383.029 98.2441C382.996 98.2351 382.963 98.2411 382.933 98.2591C382.75 98.3791 382.534 98.442 382.315 98.442C381.875 98.442 381.47 98.1811 381.284 97.7792C381.266 97.7432 381.233 97.7162 381.191 97.7102C381.152 97.7042 381.11 97.7162 381.083 97.7462C380.96 97.8781 380.792 97.9501 380.612 97.9501C380.255 97.9501 379.967 97.6592 379.967 97.3053C379.967 96.9483 380.258 96.6604 380.612 96.6604C380.792 96.6604 380.96 96.7324 381.083 96.8643C381.11 96.8943 381.152 96.9093 381.191 96.9003C381.23 96.8943 381.266 96.8673 381.284 96.8313C381.377 96.6274 381.53 96.4594 381.713 96.3424C381.638 96.2974 381.566 96.2464 381.503 96.1895C381.359 96.2944 381.233 96.4294 381.137 96.5854C380.984 96.4744 380.801 96.4114 380.612 96.4114C380.12 96.4114 379.721 96.8103 379.721 97.3022C379.721 97.7942 380.12 98.1931 380.612 98.1931C380.801 98.1931 380.987 98.1301 381.137 98.0191C381.386 98.427 381.83 98.682 382.312 98.682C382.537 98.682 382.756 98.628 382.954 98.523C383.311 99.0509 383.911 99.3749 384.553 99.3749C384.952 99.3749 385.324 99.2519 385.63 99.0449C385.573 98.9969 385.513 98.934 385.459 98.871Z" fill="black" style="fill:black;fill-opacity:1;"/>
<path d="M404.595 97.8182C404.589 97.8182 404.583 97.8182 404.577 97.8152C404.523 97.8062 404.481 97.7642 404.475 97.7102C404.445 97.4672 404.352 97.3113 404.193 97.2273C403.768 96.9993 403.006 97.3742 403 97.3772C402.94 97.4072 402.865 97.3832 402.835 97.3233C402.805 97.2633 402.829 97.1883 402.889 97.1583C402.925 97.1403 403.768 96.7264 404.307 97.0113C404.463 97.0923 404.574 97.2243 404.646 97.3982C404.769 97.2483 404.967 97.0653 405.255 96.9783C405.657 96.8553 406.116 96.9513 406.617 97.2603C406.674 97.2963 406.692 97.3712 406.656 97.4282C406.62 97.4852 406.545 97.5032 406.488 97.4672C406.05 97.1973 405.66 97.1103 405.327 97.2093C404.898 97.3382 404.706 97.7402 404.706 97.7462C404.685 97.7912 404.64 97.8182 404.595 97.8182Z" fill="black" style="fill:black;fill-opacity:1;"/>
<path d="M414.296 92.5392C414.29 92.5392 414.284 92.5392 414.278 92.5362C414.224 92.5272 414.182 92.4852 414.176 92.4313C414.146 92.1883 414.053 92.0323 413.894 91.9483C413.468 91.7204 412.706 92.0953 412.7 92.0983C412.64 92.1283 412.565 92.1043 412.535 92.0443C412.505 91.9843 412.529 91.9093 412.589 91.8794C412.625 91.8614 413.468 91.4474 414.008 91.7324C414.164 91.8134 414.275 91.9453 414.347 92.1193C414.47 91.9693 414.667 91.7864 414.955 91.6994C415.357 91.5764 415.816 91.6724 416.317 91.9813C416.374 92.0173 416.392 92.0923 416.356 92.1493C416.32 92.2063 416.245 92.2243 416.188 92.1883C415.75 91.9183 415.36 91.8314 415.027 91.9303C414.599 92.0593 414.407 92.4612 414.407 92.4672C414.386 92.5122 414.344 92.5392 414.296 92.5392Z" fill="black" style="fill:black;fill-opacity:1;"/>
<path d="M365.227 90.9106C365.221 90.9106 365.215 90.9106 365.209 90.9076C365.155 90.8986 365.113 90.8566 365.107 90.8026C365.077 90.5596 364.984 90.4037 364.826 90.3197C364.4 90.0917 363.638 90.4666 363.632 90.4696C363.572 90.4996 363.497 90.4756 363.467 90.4157C363.437 90.3557 363.461 90.2807 363.521 90.2507C363.557 90.2327 364.4 89.8188 364.94 90.1037C365.095 90.1847 365.206 90.3167 365.278 90.4906C365.401 90.3407 365.599 90.1577 365.887 90.0707C366.289 89.9477 366.748 90.0437 367.249 90.3527C367.306 90.3887 367.324 90.4637 367.288 90.5206C367.252 90.5776 367.177 90.5956 367.12 90.5596C366.682 90.2897 366.292 90.2027 365.959 90.3017C365.53 90.4307 365.338 90.8326 365.338 90.8356C365.317 90.8806 365.272 90.9106 365.227 90.9106Z" fill="black" style="fill:black;fill-opacity:1;"/>
<path d="M398.372 112.392C398.345 112.392 398.327 112.392 398.321 112.392C398.237 112.392 398.171 112.323 398.174 112.24C398.177 112.156 398.237 112.093 398.327 112.093C398.357 112.093 401.221 112.12 402.847 110.968C403.564 110.461 404.002 108.673 403.912 106.625C403.825 104.648 403.21 102.233 401.746 101.381C399.122 99.8518 397.418 101.585 397.403 101.603C397.391 101.615 397.379 101.624 397.364 101.633C395.996 102.362 395.813 104.213 395.69 105.44C395.648 105.848 395.618 106.172 395.549 106.385C395.294 107.176 395.279 108.454 395.507 109.801C395.741 111.175 395.054 111.388 394.601 111.526C394.55 111.541 394.499 111.556 394.451 111.574C394.376 111.601 394.332 111.64 394.305 111.7C394.236 111.856 394.311 112.102 394.347 112.186C394.379 112.26 394.343 112.35 394.269 112.383C394.194 112.416 394.104 112.38 394.071 112.305C394.053 112.264 393.897 111.883 394.032 111.583C394.092 111.445 394.206 111.346 394.355 111.292C394.406 111.274 394.46 111.259 394.514 111.241C394.97 111.1 395.402 110.968 395.213 109.852C394.973 108.439 394.991 107.14 395.264 106.292C395.321 106.112 395.354 105.785 395.393 105.41C395.522 104.126 395.717 102.188 397.205 101.378C397.406 101.184 399.221 99.5668 401.899 101.124C403.465 102.035 404.122 104.558 404.212 106.613C404.293 108.427 403.954 110.554 403.021 111.214C401.413 112.344 398.786 112.392 398.372 112.392Z" fill="black" style="fill:black;fill-opacity:1;"/>
<path d="M397.316 108.871C397.115 108.871 396.893 108.829 396.689 108.706C396.302 108.466 396.086 107.989 396.05 107.288C396.047 107.204 396.11 107.135 396.191 107.132C396.281 107.126 396.344 107.192 396.347 107.273C396.377 107.869 396.545 108.265 396.842 108.448C397.148 108.637 397.538 108.565 397.736 108.505C397.562 108.031 397.247 107.438 396.992 107.387C396.758 107.339 396.566 107.153 396.467 106.874C396.272 106.346 396.437 105.671 396.905 105.068C397.634 104.129 397.274 102.638 397.268 102.623C397.247 102.542 397.298 102.461 397.376 102.44C397.454 102.419 397.538 102.47 397.559 102.548C397.577 102.614 397.958 104.195 397.142 105.248C396.665 105.863 396.626 106.436 396.749 106.766C396.815 106.943 396.926 107.06 397.055 107.087C397.607 107.201 398 108.322 398.072 108.544C398.096 108.616 398.06 108.697 397.991 108.727C397.97 108.745 397.676 108.871 397.316 108.871Z" fill="black" style="fill:black;fill-opacity:1;"/>
<path d="M399.217 108.865C398.642 108.865 398.15 108.667 398.12 108.655C398.075 108.637 398.042 108.598 398.03 108.553C397.745 107.416 398.276 107.048 398.702 106.751C399.076 106.493 399.322 106.319 399.106 105.704C398.552 104.126 399.751 102.35 399.802 102.275C399.85 102.206 399.943 102.188 400.009 102.236C400.078 102.284 400.096 102.377 400.048 102.443C400.036 102.461 398.885 104.171 399.385 105.602C399.676 106.433 399.247 106.73 398.87 106.994C398.477 107.267 398.105 107.524 398.3 108.4C398.528 108.478 399.274 108.697 399.865 108.439C400.177 108.304 400.405 108.055 400.543 107.698C400.573 107.62 400.66 107.584 400.738 107.611C400.816 107.641 400.855 107.728 400.825 107.806C400.657 108.241 400.375 108.55 399.985 108.715C399.736 108.826 399.469 108.865 399.217 108.865Z" fill="black" style="fill:black;fill-opacity:1;"/>
<path d="M398.788 110.749C398.725 110.749 398.662 110.749 398.593 110.746C397.784 110.725 397.175 110.488 396.791 110.044C396.281 109.456 396.356 108.727 396.359 108.697C396.365 108.643 396.398 108.598 396.449 108.577C396.497 108.556 396.554 108.562 396.599 108.595C396.668 108.646 398.335 109.849 400.597 108.169C400.663 108.121 400.759 108.133 400.807 108.199C400.858 108.265 400.843 108.361 400.777 108.409C398.836 109.846 397.25 109.282 396.662 108.979C396.683 109.207 396.761 109.555 397.019 109.849C397.346 110.224 397.88 110.425 398.602 110.443C399.958 110.482 400.171 110.146 400.465 109.684C400.657 109.384 400.873 109.045 401.392 108.736C402.691 107.965 403.045 107.095 402.964 104.858C402.961 104.774 403.027 104.705 403.108 104.702C403.186 104.693 403.261 104.765 403.264 104.846C403.348 107.191 402.946 108.163 401.545 108.994C401.086 109.267 400.897 109.561 400.717 109.846C400.411 110.329 400.144 110.749 398.788 110.749Z" fill="black" style="fill:black;fill-opacity:1;"/>
<path d="M396.809 104.243C396.626 104.243 396.404 104.204 396.143 104.096C396.104 104.081 396.077 104.051 396.062 104.012C396.047 103.973 396.047 103.931 396.065 103.895C396.089 103.838 396.329 103.34 396.746 103.307C397.01 103.283 397.265 103.457 397.505 103.814C397.544 103.871 397.538 103.946 397.49 103.997C397.478 104.012 397.259 104.243 396.809 104.243ZM396.419 103.877C396.803 104 397.046 103.928 397.172 103.862C397.061 103.721 396.926 103.589 396.773 103.604C396.629 103.616 396.5 103.757 396.419 103.877Z" fill="black" style="fill:black;fill-opacity:1;"/>
<path d="M400.408 104.243C399.961 104.243 399.742 104.009 399.727 103.997C399.682 103.946 399.676 103.871 399.712 103.814C399.949 103.457 400.207 103.283 400.471 103.307C400.891 103.34 401.128 103.841 401.152 103.895C401.17 103.931 401.17 103.973 401.155 104.012C401.14 104.051 401.11 104.081 401.074 104.096C400.813 104.204 400.591 104.243 400.408 104.243ZM400.048 103.862C400.171 103.928 400.414 104 400.801 103.877C400.72 103.754 400.591 103.616 400.45 103.604C400.297 103.592 400.159 103.721 400.048 103.862Z" fill="black" style="fill:black;fill-opacity:1;"/>
<path d="M390.948 113.4C391.059 113.286 391.179 113.175 391.305 113.064C392.894 111.715 397.133 112.704 400.537 113.499C401.374 113.694 402.166 113.88 402.877 114.021C402.955 114.036 403.036 113.985 403.054 113.904C403.069 113.823 403.018 113.745 402.937 113.727C402.229 113.586 401.44 113.4 400.606 113.205C396.956 112.354 392.816 111.388 391.11 112.833C391.053 112.881 390.999 112.932 390.945 112.98V113.4H390.948Z" fill="black" style="fill:black;fill-opacity:1;"/>
<path d="M402.472 117.54C400.879 117.534 399.037 117.021 397.637 116.307C397.343 116.157 397.073 116.016 396.821 115.887C394.289 114.582 393.608 114.228 391.062 114.687C391.008 114.696 390.969 114.735 390.951 114.78V114.939C390.966 115.059 390.981 115.305 390.951 115.575V116.469C391.305 115.977 391.284 115.263 391.254 114.954C393.584 114.552 394.208 114.873 396.683 116.151C396.935 116.28 397.208 116.421 397.502 116.571C398.917 117.294 400.777 117.813 402.412 117.831C402.424 117.732 402.445 117.636 402.472 117.54Z" fill="black" style="fill:black;fill-opacity:1;"/>
<path d="M407.004 110.908C407.613 109.018 408.312 107.516 408.324 107.489C408.36 107.414 408.327 107.324 408.252 107.288C408.177 107.252 408.087 107.285 408.051 107.36C408.036 107.39 407.169 109.252 406.518 111.457C406.65 111.208 406.815 111.025 407.004 110.908Z" fill="black" style="fill:black;fill-opacity:1;"/>
<path d="M403.342 114.09C403.276 114.09 403.216 114.045 403.198 113.979C403.177 113.898 403.225 113.817 403.303 113.796C403.309 113.793 403.996 113.601 404.254 113.052C404.41 112.722 404.386 112.321 404.176 111.856C403.696 110.791 404.458 110.212 405.066 109.75C405.501 109.42 405.879 109.132 405.786 108.751C405.501 107.551 406.11 106.99 407.211 106.106C407.361 105.986 407.427 105.851 407.415 105.695C407.367 105.053 406.104 104.186 405.624 103.907C405.552 103.865 405.528 103.775 405.57 103.703C405.612 103.631 405.705 103.607 405.774 103.649C405.966 103.76 407.646 104.759 407.715 105.674C407.736 105.935 407.628 106.16 407.4 106.343C406.254 107.26 405.843 107.701 406.077 108.685C406.212 109.258 405.72 109.63 405.246 109.993C404.641 110.455 404.068 110.89 404.449 111.739C404.695 112.285 404.719 112.773 404.524 113.187C404.203 113.862 403.414 114.081 403.378 114.09C403.369 114.087 403.354 114.09 403.342 114.09Z" fill="black" style="fill:black;fill-opacity:1;"/>
<path d="M403.962 105.689C403.887 105.689 403.824 105.635 403.815 105.56C403.803 105.479 403.86 105.401 403.941 105.392C404.544 105.308 405.261 104.558 405.576 103.688C405.735 103.244 405.921 102.41 405.354 101.787C404.295 100.62 402.277 101.637 402.256 101.649C402.184 101.688 402.091 101.658 402.055 101.583C402.016 101.508 402.046 101.418 402.121 101.382C402.211 101.334 404.364 100.251 405.579 101.586C406.068 102.125 406.173 102.929 405.861 103.79C405.507 104.771 404.7 105.59 403.986 105.689C403.974 105.689 403.968 105.689 403.962 105.689Z" fill="black" style="fill:black;fill-opacity:1;"/>
<path d="M395.561 105.347C395.513 105.347 395.465 105.323 395.435 105.281C395.384 105.206 394.217 103.415 395.141 102.113C396.065 100.809 397.502 101.187 397.517 101.193C397.598 101.214 397.643 101.298 397.622 101.376C397.601 101.457 397.52 101.501 397.439 101.48C397.388 101.465 396.188 101.157 395.387 102.287C394.583 103.424 395.675 105.101 395.687 105.116C395.732 105.185 395.714 105.278 395.645 105.323C395.618 105.338 395.591 105.347 395.561 105.347Z" fill="black" style="fill:black;fill-opacity:1;"/>
<path d="M403.726 104.465C403.675 104.465 403.624 104.438 403.597 104.39C403.555 104.318 403.579 104.228 403.651 104.186C403.969 104 404.772 103.409 404.658 102.89C404.637 102.8 404.589 102.737 404.508 102.689C404.16 102.485 403.375 102.653 403.099 102.734C403.021 102.758 402.937 102.713 402.913 102.632C402.889 102.554 402.934 102.47 403.015 102.446C403.129 102.413 404.139 102.122 404.661 102.428C404.817 102.518 404.913 102.653 404.952 102.824C405.138 103.664 403.858 104.414 403.804 104.444C403.777 104.459 403.75 104.465 403.726 104.465Z" fill="black" style="fill:black;fill-opacity:1;"/>
<path d="M410.123 106.364C408.126 105.248 406.311 103.991 406.281 103.97C406.212 103.922 406.119 103.94 406.071 104.009C406.023 104.078 406.041 104.171 406.11 104.219C406.23 104.303 407.991 105.521 409.949 106.615C410 106.525 410.06 106.441 410.123 106.364Z" fill="black" style="fill:black;fill-opacity:1;"/>
<path d="M395.321 115.146C395.246 115.143 395.165 115.2 395.159 115.284C395.09 116.166 394.868 116.724 394.517 116.895C394.166 117.066 393.767 116.802 393.764 116.799C393.71 116.763 393.635 116.766 393.587 116.808C392.901 117.366 392.517 117 392.505 116.985C392.46 116.937 392.391 116.925 392.331 116.952C391.968 117.123 391.686 117.147 391.494 117.024C391.128 116.787 391.14 116.085 391.14 116.076C391.143 115.992 391.077 115.923 390.993 115.923C390.978 115.923 390.963 115.926 390.951 115.932V116.757C391.023 116.955 391.14 117.15 391.329 117.276C391.599 117.45 391.95 117.447 392.376 117.264C392.472 117.33 392.646 117.417 392.883 117.417C393.102 117.417 393.377 117.342 393.695 117.108C393.872 117.201 394.262 117.354 394.649 117.171C395.111 116.949 395.384 116.325 395.462 115.314C395.465 115.224 395.405 115.152 395.321 115.146Z" fill="black" style="fill:black;fill-opacity:1;"/>
<path d="M402.562 117.276L390.948 117.168V117.468L402.46 117.576C402.487 117.471 402.523 117.372 402.562 117.276Z" fill="black" style="fill:black;fill-opacity:1;"/>
<path d="M416.47 45.1778C416.344 45.2588 416.227 45.3428 416.113 45.4298C415.747 45.7027 415.405 45.9607 414.707 45.9607C414.008 45.9607 413.663 45.7027 413.297 45.4298C412.91 45.1388 412.508 44.8389 411.71 44.8389C410.909 44.8389 410.51 45.1388 410.12 45.4298C409.754 45.7027 409.412 45.9607 408.711 45.9607C408.009 45.9607 407.667 45.7027 407.301 45.4298C406.914 45.1388 406.512 44.8389 405.714 44.8389C404.913 44.8389 404.514 45.1388 404.124 45.4298C403.759 45.7027 403.414 45.9607 402.715 45.9607C402.016 45.9607 401.671 45.7027 401.305 45.4298C400.918 45.1388 400.516 44.8389 399.718 44.8389C398.92 44.8389 398.518 45.1388 398.132 45.4298C397.766 45.7027 397.424 45.9607 396.722 45.9607C396.02 45.9607 395.678 45.7027 395.312 45.4298C394.925 45.1388 394.523 44.8389 393.725 44.8389C392.927 44.8389 392.526 45.1388 392.139 45.4298C391.773 45.7027 391.428 45.9607 390.729 45.9607C390.03 45.9607 389.685 45.7027 389.322 45.4298C388.935 45.1388 388.533 44.8389 387.732 44.8389C386.935 44.8389 386.533 45.1388 386.146 45.4298C385.78 45.7027 385.438 45.9607 384.739 45.9607C384.04 45.9607 383.695 45.7027 383.332 45.4298C382.945 45.1388 382.543 44.8389 381.746 44.8389C380.948 44.8389 380.546 45.1388 380.159 45.4298C379.793 45.7027 379.451 45.9607 378.752 45.9607C378.053 45.9607 377.708 45.7027 377.345 45.4298C376.958 45.1388 376.556 44.8389 375.759 44.8389C374.961 44.8389 374.559 45.1388 374.172 45.4298C373.845 45.6757 373.536 45.9067 372.975 45.9517V46.2516C373.635 46.2036 374.001 45.9337 374.352 45.6697C374.718 45.3968 375.06 45.1388 375.759 45.1388C376.457 45.1388 376.802 45.3968 377.165 45.6697C377.552 45.9607 377.954 46.2606 378.752 46.2606C379.55 46.2606 379.952 45.9607 380.339 45.6697C380.705 45.3968 381.047 45.1388 381.746 45.1388C382.444 45.1388 382.789 45.3968 383.152 45.6697C383.539 45.9607 383.941 46.2606 384.739 46.2606C385.537 46.2606 385.939 45.9607 386.326 45.6697C386.692 45.3968 387.034 45.1388 387.732 45.1388C388.431 45.1388 388.776 45.3968 389.139 45.6697C389.526 45.9607 389.928 46.2606 390.726 46.2606C391.527 46.2606 391.926 45.9607 392.316 45.6697C392.682 45.3968 393.023 45.1388 393.725 45.1388C394.427 45.1388 394.769 45.3968 395.135 45.6697C395.522 45.9607 395.924 46.2606 396.722 46.2606C397.52 46.2606 397.922 45.9607 398.309 45.6697C398.674 45.3968 399.016 45.1388 399.718 45.1388C400.42 45.1388 400.762 45.3968 401.128 45.6697C401.515 45.9607 401.917 46.2606 402.718 46.2606C403.519 46.2606 403.917 45.9607 404.307 45.6697C404.673 45.3968 405.018 45.1388 405.717 45.1388C406.416 45.1388 406.761 45.3968 407.127 45.6697C407.514 45.9607 407.916 46.2606 408.717 46.2606C409.514 46.2606 409.916 45.9607 410.303 45.6697C410.669 45.3968 411.014 45.1388 411.713 45.1388C412.412 45.1388 412.757 45.3968 413.123 45.6697C413.51 45.9607 413.912 46.2606 414.71 46.2606C415.507 46.2606 415.909 45.9607 416.296 45.6697C416.41 45.5857 416.521 45.5017 416.641 45.4298C416.581 45.3458 416.527 45.2618 416.47 45.1778Z" fill="black" style="fill:black;fill-opacity:1;"/>
<path d="M387.732 47.8563C386.935 47.8563 386.533 48.1563 386.146 48.4472C385.78 48.7202 385.438 48.9781 384.739 48.9781C384.04 48.9781 383.695 48.7202 383.332 48.4472C382.945 48.1563 382.543 47.8563 381.746 47.8563C380.948 47.8563 380.546 48.1563 380.159 48.4472C379.793 48.7202 379.451 48.9781 378.752 48.9781C378.053 48.9781 377.708 48.7202 377.345 48.4472C376.958 48.1563 376.556 47.8563 375.759 47.8563C374.961 47.8563 374.559 48.1563 374.172 48.4472C373.806 48.7202 373.464 48.9781 372.765 48.9781C372.369 48.9781 372.087 48.8941 371.85 48.7712V49.1041C372.093 49.2091 372.384 49.2781 372.765 49.2781C373.563 49.2781 373.965 48.9781 374.352 48.6872C374.718 48.4142 375.06 48.1563 375.759 48.1563C376.458 48.1563 376.802 48.4142 377.165 48.6872C377.552 48.9781 377.954 49.2781 378.752 49.2781C379.55 49.2781 379.952 48.9781 380.339 48.6872C380.705 48.4142 381.047 48.1563 381.746 48.1563C382.444 48.1563 382.789 48.4142 383.152 48.6872C383.539 48.9781 383.941 49.2781 384.739 49.2781C385.537 49.2781 385.939 48.9781 386.326 48.6872C386.692 48.4142 387.034 48.1563 387.732 48.1563C387.774 48.1563 387.813 48.1593 387.852 48.1623C387.939 48.0633 388.029 47.9703 388.131 47.8893C388.008 47.8683 387.879 47.8563 387.732 47.8563Z" fill="black" style="fill:black;fill-opacity:1;"/>
<path d="M418.264 47.9163C418.099 47.8803 417.916 47.8563 417.7 47.8563C416.902 47.8563 416.5 48.1563 416.113 48.4472C415.747 48.7202 415.405 48.9781 414.707 48.9781C414.008 48.9781 413.663 48.7202 413.297 48.4472C412.91 48.1563 412.508 47.8563 411.71 47.8563C410.909 47.8563 410.51 48.1563 410.12 48.4472C409.754 48.7202 409.412 48.9781 408.711 48.9781C408.009 48.9781 407.667 48.7202 407.301 48.4472C406.914 48.1563 406.512 47.8563 405.714 47.8563C404.913 47.8563 404.514 48.1563 404.124 48.4472C403.758 48.7202 403.414 48.9781 402.715 48.9781C402.016 48.9781 401.671 48.7202 401.305 48.4472C400.918 48.1563 400.516 47.8563 399.718 47.8563C398.92 47.8563 398.518 48.1563 398.132 48.4472C397.766 48.7202 397.424 48.9781 396.722 48.9781C396.02 48.9781 395.678 48.7202 395.312 48.4472C394.94 48.1683 394.553 47.8833 393.821 47.8593C393.986 47.9793 394.148 48.1053 394.31 48.2313C394.649 48.3272 394.886 48.5012 395.132 48.6872C395.519 48.9781 395.921 49.2781 396.719 49.2781C397.517 49.2781 397.919 48.9781 398.305 48.6872C398.671 48.4142 399.013 48.1563 399.715 48.1563C400.417 48.1563 400.759 48.4142 401.125 48.6872C401.512 48.9781 401.914 49.2781 402.715 49.2781C403.516 49.2781 403.914 48.9781 404.304 48.6872C404.67 48.4142 405.015 48.1563 405.714 48.1563C406.413 48.1563 406.758 48.4142 407.124 48.6872C407.511 48.9781 407.913 49.2781 408.714 49.2781C409.511 49.2781 409.913 48.9781 410.3 48.6872C410.666 48.4142 411.011 48.1563 411.71 48.1563C412.409 48.1563 412.754 48.4142 413.12 48.6872C413.507 48.9781 413.909 49.2781 414.707 49.2781C415.504 49.2781 415.906 48.9781 416.293 48.6872C416.659 48.4142 417.001 48.1563 417.703 48.1563C418.045 48.1563 418.3 48.2193 418.519 48.3152C418.432 48.1803 418.348 48.0483 418.264 47.9163Z" fill="black" style="fill:black;fill-opacity:1;"/>
<path d="M420.766 51.9955C420.742 51.9955 420.721 51.9985 420.697 51.9985C419.998 51.9985 419.653 51.7406 419.287 51.4676C418.9 51.1767 418.498 50.8767 417.697 50.8767C416.899 50.8767 416.497 51.1767 416.11 51.4676C415.745 51.7406 415.403 51.9985 414.704 51.9985C414.005 51.9985 413.66 51.7406 413.294 51.4676C412.907 51.1767 412.505 50.8767 411.707 50.8767C410.906 50.8767 410.507 51.1767 410.118 51.4676C409.752 51.7406 409.41 51.9985 408.708 51.9985C408.006 51.9985 407.664 51.7406 407.298 51.4676C406.911 51.1767 406.509 50.8767 405.711 50.8767C404.91 50.8767 404.512 51.1767 404.122 51.4676C403.756 51.7406 403.411 51.9985 402.712 51.9985C402.013 51.9985 401.668 51.7406 401.302 51.4676C400.915 51.1767 400.513 50.8767 399.715 50.8767C399.406 50.8767 399.158 50.9217 398.945 50.9937C399.11 51.0597 399.278 51.1257 399.442 51.1917C399.526 51.1827 399.616 51.1767 399.715 51.1767C400.414 51.1767 400.759 51.4346 401.125 51.7076C401.512 51.9985 401.914 52.2985 402.715 52.2985C403.516 52.2985 403.915 51.9985 404.305 51.7076C404.671 51.4346 405.015 51.1767 405.714 51.1767C406.413 51.1767 406.758 51.4346 407.124 51.7076C407.511 51.9985 407.913 52.2985 408.714 52.2985C409.512 52.2985 409.914 51.9985 410.301 51.7076C410.666 51.4346 411.011 51.1767 411.71 51.1767C412.409 51.1767 412.754 51.4346 413.12 51.7076C413.507 51.9985 413.909 52.2985 414.707 52.2985C415.505 52.2985 415.907 51.9985 416.293 51.7076C416.659 51.4346 417.001 51.1767 417.703 51.1767C418.405 51.1767 418.747 51.4346 419.113 51.7076C419.5 51.9985 419.902 52.2985 420.703 52.2985C420.787 52.2985 420.865 52.2925 420.943 52.2865C420.88 52.1905 420.823 52.0945 420.766 51.9955Z" fill="black" style="fill:black;fill-opacity:1;"/>
<path d="M381.743 50.8738C380.945 50.8738 380.543 51.1737 380.156 51.4647C379.79 51.7376 379.448 51.9956 378.749 51.9956C378.05 51.9956 377.705 51.7376 377.342 51.4647C376.955 51.1737 376.553 50.8738 375.756 50.8738C374.958 50.8738 374.556 51.1737 374.169 51.4647C373.803 51.7376 373.461 51.9956 372.762 51.9956C372.345 51.9956 372.054 51.9026 371.808 51.7706V52.1066C372.057 52.2205 372.36 52.2955 372.762 52.2955C373.56 52.2955 373.962 51.9956 374.349 51.7046C374.715 51.4317 375.057 51.1737 375.756 51.1737C376.455 51.1737 376.799 51.4317 377.162 51.7046C377.549 51.9956 377.951 52.2955 378.749 52.2955C379.547 52.2955 379.949 51.9956 380.336 51.7046C380.702 51.4317 381.044 51.1737 381.743 51.1737C381.896 51.1737 382.03 51.1887 382.156 51.2097C382.267 51.1317 382.378 51.0537 382.492 50.9818C382.282 50.9188 382.039 50.8738 381.743 50.8738Z" fill="black" style="fill:black;fill-opacity:1;"/>
<path d="M422.184 54.4281C422.157 54.4491 422.13 54.4671 422.106 54.4881C421.74 54.7611 421.395 55.019 420.697 55.019C419.998 55.019 419.653 54.7611 419.287 54.4881C418.9 54.1972 418.498 53.8972 417.697 53.8972C416.899 53.8972 416.497 54.1972 416.11 54.4881C415.745 54.7611 415.403 55.019 414.704 55.019C414.005 55.019 413.66 54.7611 413.294 54.4881C412.907 54.1972 412.505 53.8972 411.707 53.8972C410.906 53.8972 410.507 54.1972 410.118 54.4881C409.752 54.7611 409.41 55.019 408.708 55.019C408.006 55.019 407.664 54.7611 407.298 54.4881C406.911 54.1972 406.509 53.8972 405.711 53.8972C405.462 53.8972 405.258 53.9272 405.075 53.9782C405.21 54.0502 405.339 54.1282 405.462 54.2092C405.54 54.2002 405.624 54.1972 405.711 54.1972C406.41 54.1972 406.755 54.4551 407.121 54.7281C407.508 55.019 407.91 55.319 408.711 55.319C409.509 55.319 409.911 55.019 410.297 54.7281C410.663 54.4551 411.008 54.1972 411.707 54.1972C412.406 54.1972 412.751 54.4551 413.117 54.7281C413.504 55.019 413.906 55.319 414.704 55.319C415.502 55.319 415.903 55.019 416.29 54.7281C416.656 54.4551 416.998 54.1972 417.7 54.1972C418.402 54.1972 418.744 54.4551 419.11 54.7281C419.497 55.019 419.899 55.319 420.7 55.319C421.5 55.319 421.899 55.019 422.289 54.7281C422.304 54.7161 422.322 54.7041 422.337 54.6921C422.286 54.6021 422.235 54.5151 422.184 54.4281Z" fill="black" style="fill:black;fill-opacity:1;"/>
<path d="M361.529 54.881C361.325 54.962 361.082 55.016 360.77 55.016C360.291 55.016 359.979 54.893 359.712 54.728C359.685 54.833 359.652 54.929 359.619 55.022C359.907 55.1899 360.255 55.3159 360.77 55.3159C361.073 55.3159 361.319 55.2709 361.529 55.2019V54.881Z" fill="black" style="fill:black;fill-opacity:1;"/>
<path d="M375.75 53.8943C374.952 53.8943 374.55 54.1942 374.163 54.4852C373.797 54.7581 373.455 55.0161 372.756 55.0161C372.339 55.0161 372.048 54.9231 371.802 54.7911V55.1271C372.051 55.241 372.354 55.316 372.756 55.316C373.554 55.316 373.956 55.0161 374.343 54.7251C374.709 54.4522 375.051 54.1942 375.75 54.1942C376.112 54.1942 376.376 54.2632 376.601 54.3682C376.676 54.2932 376.751 54.2182 376.829 54.1462C376.556 54.0023 376.223 53.8943 375.75 53.8943Z" fill="black" style="fill:black;fill-opacity:1;"/>
<path d="M361.529 57.9015C361.325 57.9824 361.082 58.0364 360.77 58.0364C360.072 58.0364 359.727 57.7785 359.364 57.5055C359.091 57.3016 358.806 57.0946 358.383 56.9896C358.335 57.0826 358.284 57.1756 358.233 57.2686C358.638 57.3556 358.908 57.5445 359.181 57.7485C359.568 58.0394 359.97 58.3394 360.767 58.3394C361.07 58.3394 361.316 58.2944 361.526 58.2254V57.9015H361.529Z" fill="black" style="fill:black;fill-opacity:1;"/>
<path d="M423.357 56.9357C422.775 57.0077 422.433 57.2566 422.103 57.5056C421.737 57.7785 421.392 58.0365 420.694 58.0365C419.995 58.0365 419.65 57.7785 419.284 57.5056C418.897 57.2146 418.495 56.9147 417.694 56.9147C416.896 56.9147 416.494 57.2146 416.107 57.5056C415.741 57.7785 415.4 58.0365 414.701 58.0365C414.002 58.0365 413.657 57.7785 413.291 57.5056C412.904 57.2146 412.502 56.9147 411.704 56.9147C411.326 56.9147 411.041 56.9837 410.798 57.0856C410.897 57.1546 410.99 57.2266 411.083 57.3046C411.257 57.2506 411.458 57.2176 411.704 57.2176C412.403 57.2176 412.748 57.4756 413.114 57.7485C413.501 58.0395 413.903 58.3394 414.701 58.3394C415.498 58.3394 415.9 58.0395 416.287 57.7485C416.653 57.4756 416.995 57.2176 417.697 57.2176C418.399 57.2176 418.741 57.4756 419.107 57.7485C419.494 58.0395 419.896 58.3394 420.697 58.3394C421.497 58.3394 421.896 58.0395 422.286 57.7485C422.619 57.4996 422.937 57.2656 423.516 57.2236C423.456 57.1276 423.405 57.0347 423.357 56.9357Z" fill="black" style="fill:black;fill-opacity:1;"/>
<path d="M361.529 60.919C361.325 60.9999 361.082 61.0539 360.77 61.0539C360.072 61.0539 359.727 60.796 359.364 60.523C358.977 60.2321 358.575 59.9321 357.777 59.9321C357.21 59.9321 356.844 60.0851 356.541 60.2771C356.478 60.4 356.415 60.523 356.355 60.646C356.322 60.712 356.292 60.781 356.259 60.847C356.295 60.82 356.334 60.793 356.37 60.766C356.736 60.493 357.078 60.2351 357.777 60.2351C358.476 60.2351 358.821 60.493 359.184 60.766C359.571 61.0569 359.973 61.3569 360.77 61.3569C361.073 61.3569 361.319 61.3119 361.529 61.2429V60.919Z" fill="black" style="fill:black;fill-opacity:1;"/>
<path d="M425.802 60.862C425.61 60.766 425.448 60.649 425.286 60.523C424.899 60.2321 424.497 59.9321 423.696 59.9321C422.895 59.9321 422.496 60.2321 422.106 60.523C421.74 60.796 421.395 61.0539 420.697 61.0539C419.998 61.0539 419.653 60.796 419.287 60.523C418.9 60.2321 418.498 59.9321 417.697 59.9321C417.046 59.9321 416.659 60.1331 416.329 60.3641C416.419 60.427 416.509 60.487 416.599 60.544C416.875 60.3671 417.193 60.2321 417.697 60.2321C418.396 60.2321 418.741 60.49 419.107 60.763C419.494 61.0539 419.896 61.3539 420.697 61.3539C421.497 61.3539 421.896 61.0539 422.286 60.763C422.652 60.49 422.997 60.2321 423.696 60.2321C424.395 60.2321 424.74 60.49 425.106 60.763C425.343 60.9399 425.586 61.1199 425.919 61.2339C425.871 61.1139 425.832 60.9909 425.802 60.862Z" fill="black" style="fill:black;fill-opacity:1;"/>
<path d="M357.774 62.9495C356.976 62.9495 356.574 63.2494 356.187 63.5404C355.821 63.8133 355.479 64.0713 354.78 64.0713C354.669 64.0713 354.57 64.0623 354.477 64.0503C354.381 64.1372 354.279 64.2212 354.171 64.2992C354.348 64.3442 354.546 64.3712 354.78 64.3712C355.578 64.3712 355.98 64.0713 356.37 63.7803C356.736 63.5074 357.078 63.2494 357.777 63.2494C358.476 63.2494 358.821 63.5074 359.183 63.7803C359.198 63.7893 359.21 63.8013 359.225 63.8103C359.291 63.7383 359.366 63.6693 359.453 63.6063C359.423 63.5853 359.393 63.5614 359.363 63.5404C358.974 63.2524 358.572 62.9495 357.774 62.9495Z" fill="black" style="fill:black;fill-opacity:1;"/>
<path d="M427.463 63.9364C427.256 64.0204 427.013 64.0774 426.692 64.0774C425.993 64.0774 425.649 63.8194 425.283 63.5465C424.896 63.2555 424.494 62.9556 423.693 62.9556C423.084 62.9556 422.706 63.1295 422.391 63.3425C422.481 63.4025 422.571 63.4655 422.655 63.5315C422.919 63.3725 423.225 63.2555 423.693 63.2555C424.392 63.2555 424.737 63.5135 425.103 63.7864C425.49 64.0774 425.891 64.3773 426.692 64.3773C427.082 64.3773 427.379 64.3053 427.622 64.1973C427.574 64.1074 427.523 64.0204 427.463 63.9364Z" fill="black" style="fill:black;fill-opacity:1;"/>
<path d="M213.389 57L208 62.3885L210.752 65.1401L217.554 72.0573L210.752 78.8599L208 81.4968L213.389 87L216.14 84.2484L223.057 77.3312L229.86 84.2484L232.497 87L238 81.4968L235.248 78.8599L228.331 72.0573L235.248 65.1401L238 62.3885L232.497 57L229.86 59.7516L223.057 66.5541L216.14 59.7516L213.389 57Z" fill="#606060" style="fill:#606060;fill:color(display-p3 0.3765 0.3765 0.3765);fill-opacity:1;"/>
<path d="M214.389 54L209 59.3885L211.752 62.1401L218.554 69.0573L211.752 75.8599L209 78.4968L214.389 84L217.14 81.2484L224.057 74.3312L230.86 81.2484L233.497 84L239 78.4968L236.248 75.8599L229.331 69.0573L236.248 62.1401L239 59.3885L233.497 54L230.86 56.7516L224.057 63.5541L217.14 56.7516L214.389 54Z" fill="#9ECC51" style="fill:#9ECC51;fill:color(display-p3 0.6196 0.8000 0.3176);fill-opacity:1;"/>
<rect x="147" y="67" width="13" height="7" fill="#606060" style="fill:#606060;fill:color(display-p3 0.3765 0.3765 0.3765);fill-opacity:1;"/>
<rect x="273" y="67" width="13" height="7" fill="#606060" style="fill:#606060;fill:color(display-p3 0.3765 0.3765 0.3765);fill-opacity:1;"/>
<rect x="162" y="67" width="13" height="7" fill="#606060" style="fill:#606060;fill:color(display-p3 0.3765 0.3765 0.3765);fill-opacity:1;"/>
<rect x="288" y="67" width="13" height="7" fill="#606060" style="fill:#606060;fill:color(display-p3 0.3765 0.3765 0.3765);fill-opacity:1;"/>
<rect x="177" y="67" width="13" height="7" fill="#606060" style="fill:#606060;fill:color(display-p3 0.3765 0.3765 0.3765);fill-opacity:1;"/>
<rect x="303" y="67" width="13" height="7" fill="#606060" style="fill:#606060;fill:color(display-p3 0.3765 0.3765 0.3765);fill-opacity:1;"/>
<rect x="132" y="67" width="13" height="7" fill="#606060" style="fill:#606060;fill:color(display-p3 0.3765 0.3765 0.3765);fill-opacity:1;"/>
<rect x="258" y="67" width="13" height="7" fill="#606060" style="fill:#606060;fill:color(display-p3 0.3765 0.3765 0.3765);fill-opacity:1;"/>
</svg>
