<svg xmlns="http://www.w3.org/2000/svg" xmlns:xlink="http://www.w3.org/1999/xlink" viewBox="0 0 1020.95 258.78"><defs><style>.cls-1,.cls-4{fill:#222;}.cls-1{stroke:#222;stroke-miterlimit:10;stroke-width:3px;}.cls-2{fill:#444;}.cls-3{opacity:0.7;fill:url(#linear-gradient);}.cls-5{fill:#404041;}.cls-6{fill:url(#linear-gradient-2);}</style><linearGradient id="linear-gradient" x1="460.23" y1="319.21" x2="865.08" y2="-111.91" gradientUnits="userSpaceOnUse"><stop offset="0.12" stop-color="#ec4529"/><stop offset="0.91" stop-color="#f6ab29"/></linearGradient><linearGradient id="linear-gradient-2" x1="46.95" y1="52.29" x2="179.95" y2="52.29" gradientUnits="userSpaceOnUse"><stop offset="0" stop-color="#f9a51a"/><stop offset="0.16" stop-color="#f8991b"/><stop offset="0.46" stop-color="#f4791e"/><stop offset="0.85" stop-color="#ef4522"/><stop offset="1" stop-color="#ed3024"/></linearGradient></defs><title>logo-full</title><g id="Layer_2" data-name="Layer 2"><g id="Layer_1-2" data-name="Layer 1"><path class="cls-1" d="M288.91,149.25l27.37,77.29,27.23-77.29h28.84V255.82h-22V226.69l2.19-50.28-28.76,79.41H308.67L280,176.48l2.2,50.21v29.13h-22V149.25Z"/><path class="cls-1" d="M483.55,205q0,15.74-5.56,27.59a41.82,41.82,0,0,1-15.92,18.3,47,47,0,0,1-47.39.07,42.29,42.29,0,0,1-16.1-18.19q-5.71-11.81-5.78-27.19v-5.26q0-15.75,5.67-27.71a42.23,42.23,0,0,1,16-18.37,47,47,0,0,1,47.35,0,42.23,42.23,0,0,1,16,18.37q5.67,12,5.67,27.63Zm-22.25-4.83q0-16.76-6-25.47t-17.12-8.71q-11.06,0-17.06,8.6t-6.07,25.21V205q0,16.32,6,25.32t17.27,9q11.06,0,17-8.67t6-25.28Z"/><path class="cls-1" d="M590.66,255.82h-22L526,185.7v70.12H504V149.25h22l42.82,70.26V149.25h21.88Z"/><path class="cls-1" d="M678.45,209.63H636.29v28.55h49.48v17.64H614.33V149.25h71.29V167H636.29v25.39h42.16Z"/><path class="cls-1" d="M739.88,197.26l22.18-48h24l-35,67.92v38.65H728.76V217.17l-35-67.92h24.07Z"/><path class="cls-2" d="M841,229.39l24.15-80.14h24.45L852.48,255.82H829.57l-37-106.57H817Z"/><path class="cls-2" d="M923,255.82H901V149.25h22Z"/><path class="cls-2" d="M966.58,238.18h53.72v17.64H939.14V242.93L991.83,167H939.21V149.25h79.92v12.59Z"/><path class="cls-3" d="M378.07,133.16H353.86V105.09h24.21ZM424,109.42H399.79v23.74H424Zm45.93-6.24H445.72v30h24.21Zm45.92-7.85H491.64v37.83h24.21Zm45.82-3.12H537.46v41h24.21ZM286.32,119.13H262.11v14h24.21Zm45.82-8H307.93v22.08h24.21ZM607.6,95.33H583.39v37.83H607.6Zm45.93,13.16H629.32v24.67h24.21Zm45.93,9.68H675.25v15h24.21Zm45.92-9.68H721.17v24.67h24.21Zm45.93-13.16H767.1v37.83h24.21Zm45.93-11.52H813v49.35h24.21ZM883.17,69.9H859v63.26h24.21ZM929.09,56H904.88v77.19h24.21ZM975,43.79H950.81v89.37H975ZM1021,34.47H996.74v98.69H1021Z"/><polygon class="cls-4" points="226.91 37.09 225.16 39.48 112.94 192.13 0 37.09 47.42 37.09 47.87 37.71 112.96 127.05 179.09 37.09 226.91 37.09"/><polygon class="cls-5" points="2.95 66.59 2.95 257.59 16.95 257.59 16.95 230.59 23.07 230.59 23.07 257.59 34.58 257.59 34.58 238.59 40.7 238.59 40.7 257.59 54.2 257.59 54.2 220.59 60.32 220.59 60.32 257.59 72.83 257.59 72.83 231.59 78.95 231.59 78.95 257.59 91.95 257.59 91.95 192.59 2.95 66.59"/><polygon class="cls-5" points="134.95 192.59 134.95 257.59 148.95 257.59 148.95 219.59 155.07 219.59 155.07 257.59 168.58 257.59 168.58 226.59 174.7 226.59 174.7 257.59 187.2 257.59 187.2 218.59 193.32 218.59 193.32 257.59 205.83 257.59 205.83 199.59 211.95 199.59 211.95 257.59 223.95 257.59 223.95 66.59 134.95 192.59"/><path class="cls-6" d="M113,104.59l-66-85q66.5-39.18,133,0Z"/></g></g></svg>