<svg width="604" height="305" viewBox="0 0 604 305" fill="none" xmlns="http://www.w3.org/2000/svg">
<path d="M131.775 1.01512C109.242 3.81512 84.842 13.2818 65.3753 26.6151C44.5753 41.0151 22.9753 66.3485 13.242 87.8151C2.84196 111.015 -0.89137 131.015 0.175297 158.882C1.64196 198.482 14.842 229.415 42.3086 257.415C74.042 289.948 107.509 304.082 152.442 303.815C193.109 303.682 225.775 290.882 254.575 263.948C289.109 231.548 305.642 191.282 303.375 145.015C301.509 105.682 288.442 75.5485 261.242 47.2818C238.309 23.5485 214.975 10.2151 184.842 3.54845C170.975 0.481788 145.775 -0.718212 131.775 1.01512ZM181.775 41.5485C200.442 46.7485 219.775 58.3485 233.909 73.1485C254.175 94.4818 264.309 117.282 265.909 145.682C268.042 180.748 256.842 209.548 231.109 235.015C213.242 252.748 193.909 262.748 170.442 266.482C156.842 268.615 132.442 267.282 120.042 263.682C82.442 253.015 50.5753 220.615 40.1753 182.348C36.842 170.082 36.842 135.948 40.1753 123.682C51.242 82.4818 86.5753 48.8818 127.642 40.2151C139.375 37.8151 170.842 38.6151 181.775 41.5485Z" fill="#FCFCFC" style="fill:#FCFCFC;fill:color(display-p3 0.9883 0.9883 0.9883);fill-opacity:1;"/>
<path d="M460.575 1.01528C431.109 5.68195 407.642 18.082 387.109 39.8153C371.909 55.9486 362.975 71.9486 356.709 94.2153C353.909 104.082 353.909 107.149 353.509 197.015C353.109 283.682 353.242 289.949 355.375 294.349C361.642 306.482 379.909 307.549 387.375 296.082C389.642 292.749 389.775 285.415 390.442 200.349L391.109 108.349L394.842 97.682C399.109 85.682 401.775 81.0153 410.175 70.082C426.842 48.6153 456.709 35.4153 483.775 37.682C507.109 39.5486 522.842 46.7486 539.242 63.0153C550.309 74.082 556.309 83.1486 561.509 96.6153C564.309 104.215 564.442 105.549 565.109 197.949C565.775 289.815 565.775 291.549 568.575 295.149C577.642 307.415 591.242 307.415 600.309 295.149C603.109 291.549 603.109 289.949 603.509 210.615C603.909 125.682 603.242 107.815 598.442 90.3486C588.975 55.8153 559.642 22.882 526.442 9.54862C507.109 1.68195 479.242 -1.91805 460.575 1.01528Z" fill="#FCFCFC" style="fill:#FCFCFC;fill:color(display-p3 0.9883 0.9883 0.9883);fill-opacity:1;"/>
</svg>
