<svg id="Layer_1" data-name="Layer 1" xmlns="http://www.w3.org/2000/svg" viewBox="0 0 3069.8 714.58"><defs><style>.cls-1{fill:#2b8b83;}</style></defs><path class="cls-1" d="M3094.83,720.3l109.86,145.78H3039.18a50,50,0,0,1-39.93-19.91L2904.39,720.3l-64.16-85.15-64.16,85.15-94.85,125.87a50,50,0,0,1-39.94,19.91H2475.77L2585.63,720.3l103.75-137.69H2063.29V435h626.09L2585.63,297.28,2475.77,151.5h165.51a50,50,0,0,1,39.94,19.91l94.85,125.87,64.16,85.15,64.16-85.15,94.86-125.87a50,50,0,0,1,39.93-19.91h165.51L3094.83,297.28,2991.08,435l-39.75,52.75a35,35,0,0,0,0,42.13l39.75,52.76Z" transform="translate(-134.89 -151.5)"/><rect class="cls-1" x="1928.4" width="366.21" height="145.78"/><rect class="cls-1" x="1928.4" y="568.8" width="366.21" height="145.78"/><polygon class="cls-1" points="1882.29 0 1882.29 714.58 1740.84 714.58 1736.51 708.62 1736.51 0 1882.29 0"/><polygon class="cls-1" points="1736.51 475.04 1736.51 708.62 1634.93 568.8 1534.89 431.11 1481.26 357.29 1427.62 283.47 1386.19 226.44 1386.19 0 1391.38 0 1497.29 145.78 1597.33 283.47 1650.96 357.29 1704.6 431.11 1736.51 475.04"/><rect class="cls-1" x="1240.4" width="145.79" height="714.58"/><polygon class="cls-1" points="1194.3 203.4 1194.3 511.18 1055.61 431.11 927.74 357.29 1055.61 283.47 1194.3 203.4"/><path class="cls-1" d="M1010,824.59l-46.1-63.45L934.27,720.3l-45.94-63.23-54.1-74.46L807.65,546l-27-37.23h-1.83l.91-1.26-14.51-20a38.79,38.79,0,0,0-31.39-16H457.48a38.82,38.82,0,0,1-31.39-16l-8.26-11.37L411.12,435,357,360.51l-45.94-63.23L253.56,218.1H365.82a38.79,38.79,0,0,1,31.39,16L437.06,289l6.05,8.33,40.73,56.05,5.22,7.18,40.67,56,1.8,2.48a38.8,38.8,0,0,0,31.39,16H812.63A38.8,38.8,0,0,0,844,419l42.48-58.46,45.94-63.23,31.5-43.36,46.1-63.45h0c11.78-16.23.19-39-19.86-39H742a38.79,38.79,0,0,0-31.39,16L673.87,218.1,621.63,290l-5.29,7.29-40.59,55.87-.13.18L534.9,297.28l-5.17-7.11-.89-1.22L477.37,218.1,440.6,167.49a38.79,38.79,0,0,0-31.39-16H161.31c-20.05,0-31.64,22.74-19.86,39l20.08,27.63,57.53,79.18L265,360.51,319.09,435l26.59,36.59,26.13,36,.92,1.26L388.16,530a38.8,38.8,0,0,0,31.39,16H696.11a38.79,38.79,0,0,1,31.39,16l6.3,8.67,8.66,11.93,54.1,74.46L842.5,720.3l45.76,63H775.44a38.8,38.8,0,0,1-31.39-16l-34.14-47L667.5,661.93,664,657.07,621.49,598.6h0a38.79,38.79,0,0,0-31.39-16H337a38.79,38.79,0,0,0-31.39,16l-42.48,58.47L217.22,720.3l-45.76,63-31.84,43.82c-11.79,16.22-.2,39,19.86,39h247.9a38.8,38.8,0,0,0,31.39-16l48.53-66.79,42.43-58.4,3.33-4.59,42.69-58.75,42.68,58.75,3.33,4.59,42.43,58.4,48.53,66.79a38.8,38.8,0,0,0,31.39,16H988.9c21.35,0,33.69-24.22,21.14-41.49ZM897.94,218.1l-57.53,79.18L805,346.08a35,35,0,0,1-28.32,14.43H662.44l5.21-7.18,40.73-56.05,47-64.76a35,35,0,0,1,28.31-14.42ZM263.23,783.29l45.76-63,35.46-48.81a35,35,0,0,1,28.31-14.42H487.24l-3.39,4.67L441.3,720.3,406,768.86a35,35,0,0,1-28.32,14.43Z" transform="translate(-134.89 -151.5)"/></svg>