<?xml version="1.0" standalone="no"?>
<!DOCTYPE svg PUBLIC "-//W3C//DTD SVG 20010904//EN"
 "http://www.w3.org/TR/2001/REC-SVG-20010904/DTD/svg10.dtd">
<svg version="1.0" xmlns="http://www.w3.org/2000/svg"
 width="2000.000000pt" height="2000.000000pt" viewBox="0 0 2000.000000 2000.000000"
 preserveAspectRatio="xMidYMid meet">

<g transform="translate(0.000000,2000.000000) scale(0.100000,-0.100000)"
fill="#000000" stroke="none">
<path d="M3010 11240 c-169 -21 -352 -92 -498 -192 -156 -108 -318 -298 -391
-459 -78 -174 -106 -324 -98 -533 11 -297 110 -529 316 -739 238 -244 489
-350 826 -348 305 1 550 97 766 299 259 243 383 545 366 892 -14 295 -112 521
-316 733 -172 178 -347 278 -573 328 -104 23 -293 32 -398 19z m375 -304 c140
-39 285 -126 391 -237 152 -160 228 -331 240 -544 16 -263 -68 -479 -261 -670
-134 -133 -279 -208 -455 -236 -102 -16 -285 -6 -378 21 -282 80 -521 323
-599 610 -25 92 -25 348 0 440 83 309 348 561 656 626 88 18 324 12 406 -10z"/>
<path d="M5476 11240 c-221 -35 -397 -128 -551 -291 -114 -121 -181 -241 -228
-408 -21 -74 -21 -97 -24 -771 -3 -650 -2 -697 14 -730 47 -91 184 -99 240
-13 17 25 18 80 23 718 l5 690 28 80 c32 90 52 125 115 207 125 161 349 260
552 243 175 -14 293 -68 416 -190 83 -83 128 -151 167 -252 21 -57 22 -67 27
-760 5 -689 5 -702 26 -729 68 -92 170 -92 238 0 21 27 21 39 24 634 3 637 -2
771 -38 902 -71 259 -291 506 -540 606 -145 59 -354 86 -494 64z"/>
</g>
</svg>
