<svg width="5000" height="3821" viewBox="0 0 5000 3821" fill="none" xmlns="http://www.w3.org/2000/svg">
<path d="M1966.78 2984.54C2003.3 2986.04 2026.33 3002.33 2037.19 3037.91C2042.62 3055.88 2059.1 3069.93 2053.48 3092.21C2047.49 3116.37 2035.13 3125.73 2013.41 3113.75C1980.64 3095.77 1956.11 3068.43 1939.25 3034.91C1936.63 3029.48 1935.51 3022.93 1935.13 3016.75C1933.82 2995.21 1945.43 2983.79 1966.78 2984.54Z" fill="white"/>
<path d="M2110.78 3003.83C2147.48 3005.14 2171.45 3021.8 2181.75 3057.01C2187 3074.61 2202.54 3088.09 2198.42 3109.63C2193.55 3135.28 2179.88 3146.14 2157.97 3133.03C2123.14 3112.06 2092.06 3085.28 2081.38 3043.52C2075.02 3018.24 2087.75 3002.89 2110.78 3003.83Z" fill="white"/>
<path d="M2260.59 3034.91C2281.38 3036.97 2304.97 3046.33 2317.7 3073.3C2323.7 3085.84 2330.62 3097.64 2337.93 3109.44C2346.92 3123.86 2345.79 3140.9 2335.49 3154.57C2324.82 3168.8 2309.65 3163.37 2297.48 3156.82C2269.02 3141.46 2245.61 3119.93 2225.95 3094.27C2223.51 3091.09 2222.01 3086.97 2220.52 3083.04C2209.47 3053.45 2222.01 3035.1 2260.4 3034.72L2260.59 3034.91Z" fill="white"/>
<path d="M1609.12 3245.95C1610.05 3235.09 1610.8 3224.79 1611.74 3214.49C1582.71 3241.46 1571.48 3267.11 1571.29 3304.38C1570.91 3391.45 1576.72 3478.72 1566.05 3565.79C1556.87 3640.88 1529.72 3709.61 1497.7 3776.83C1485.52 3802.49 1432.9 3824.77 1402.76 3820.28C1394.14 3818.97 1393.21 3815.78 1397.14 3809.23C1397.89 3807.92 1398.64 3806.79 1399.57 3805.67C1437.02 3762.79 1444.51 3711.48 1434.22 3658.48C1413.99 3554.74 1432.72 3454 1458.75 3355.69C1497.88 3207.19 1501.82 3057.76 1485.34 2907.01C1479.91 2857.02 1456.69 2811.33 1440.21 2764.14C1428.79 2730.99 1415.86 2698.41 1400.13 2667.14C1397.33 2661.71 1392.83 2654.4 1399.2 2649.53C1404.63 2645.23 1409.5 2651.41 1413.99 2654.78C1417.55 2657.21 1423.35 2661.89 1425.04 2659.08C1435.34 2641.48 1446.2 2653.65 1456.69 2659.08C1463.24 2615.45 1415.68 2553.28 1376.35 2555.34C1389.09 2543.17 1400.88 2538.49 1417.55 2541.3C1466.8 2549.54 1495.45 2576.69 1507.81 2625.75C1521.85 2680.81 1533.09 2735.67 1531.59 2792.79C1529.34 2889.04 1546.95 2983.42 1559.12 3078.36C1564.17 3117.31 1569.6 3156.26 1569.98 3195.58C1569.98 3207.57 1569.98 3219.36 1569.98 3231.91C1581.03 3230.97 1580.65 3223.86 1582.52 3219.18C1602.37 3170.68 1626.53 3124.61 1656.12 3081.35C1719.22 2989.22 1771.66 2890.91 1825.02 2792.97C1846.56 2753.46 1869.41 2714.51 1896.93 2678.75C1931.01 2634.55 1975.21 2613.21 2031.38 2610.58C2107.97 2607.03 2180.26 2622.94 2251.23 2649.35C2287.37 2662.83 2319.76 2681.74 2343.92 2712.27C2348.79 2718.44 2357.78 2726.68 2351.6 2734.55C2346.35 2741.29 2336.99 2734.55 2329.87 2731.93C2310.96 2725.37 2292.98 2722.56 2274.82 2734.92C2259.09 2745.6 2262.65 2752.71 2276.13 2761.14C2293.17 2771.81 2309.65 2783.24 2321.45 2799.9C2324.07 2803.65 2330.25 2807.21 2324.82 2812.45C2311.34 2825.37 2319.01 2838.67 2322.95 2852.15C2325.19 2860.39 2327.25 2868.81 2328.56 2877.24C2330.06 2887.91 2327.07 2896.9 2317.7 2903.46C2307.78 2910.2 2298.23 2908.14 2289.8 2901.77C2275.94 2891.28 2260.03 2889.04 2243.55 2887.54C2161.72 2879.67 2082.88 2895.22 2004.61 2916.75C1939.81 2934.54 1875.4 2952.89 1814.16 2981.54C1749.37 3011.88 1694.88 3051.58 1671.47 3123.49C1659.11 3161.31 1633.83 3194.08 1626.16 3233.97C1624.66 3241.46 1618.48 3245.58 1608.93 3246.33L1609.12 3245.95Z" fill="white"/>
<path d="M1749.19 3293.89C1760.42 3295.02 1767.72 3294.45 1774.28 3296.7C1812.29 3309.81 1853.49 3290.33 1891.13 3308.31C1903.67 3314.3 1916.59 3319.17 1929.89 3322.73C1878.77 3260.75 1810.79 3264.31 1740.76 3273.48C1804.05 3248.39 1866.78 3220.49 1937.38 3236.03C1970.71 3243.33 1992.81 3266.93 2011.72 3293.7C2027.83 3316.55 2039.25 3342.2 2049.36 3368.05C2072.96 3428.72 2101.04 3487.14 2138.87 3540.51C2155.91 3564.67 2168.46 3591.07 2173.51 3620.47C2174.26 3625.15 2176.32 3631.33 2171.27 3634.14C2165.84 3637.32 2162.28 3631.71 2158.53 3628.71C2155.72 3626.46 2153.48 3623.65 2150.67 3621.6C2145.61 3617.66 2140.37 3612.79 2133.44 3616.73C2126.7 3620.66 2127.26 3627.59 2128.38 3633.95C2131.76 3654.37 2137.37 3674.03 2134.38 3695.38C2132.13 3711.29 2123.33 3722.9 2114.9 3735.07C2111.53 3739.94 2106.29 3742.94 2099.92 3740.88C2094.3 3739.01 2093.18 3733.76 2093.18 3728.71C2093.55 3709.42 2085.88 3692.57 2077.45 3675.9C2027.08 3577.03 1972.02 3481.53 1894.12 3400.82C1861.35 3366.92 1824.46 3339.96 1782.33 3319.36C1771.09 3313.93 1758.74 3309.62 1749.37 3293.89H1749.19Z" fill="white"/>
<path d="M111.232 3762.04C71.5329 3754.92 37.4518 3745.75 8.80117 3734.89C4.49421 3688.45 1.68533 3624.4 0 3542.76L11.4228 3541.45C21.5348 3581.9 37.8263 3617.48 60.1101 3648.19C82.3939 3678.9 108.797 3702.68 139.133 3719.53C169.469 3736.39 201.491 3744.81 235.197 3744.81C276.394 3744.81 310.288 3731.89 336.317 3706.24C362.533 3680.58 375.454 3648.75 375.454 3610.73C375.454 3582.08 368.151 3555.49 353.358 3531.15C338.564 3506.81 320.213 3484.9 298.303 3465.42C276.394 3446.13 247.369 3422.35 211.041 3394.64C172.278 3365.05 141.006 3339.4 117.411 3317.49C93.8167 3295.58 73.9673 3270.67 58.0503 3242.96C41.946 3215.06 34.0811 3184.72 34.0811 3151.95C34.0811 3114.87 44.1931 3081.73 64.4171 3052.7C84.641 3023.68 112.73 3000.64 148.496 2983.79C184.263 2966.94 225.085 2958.51 270.402 2958.51C295.682 2958.51 323.209 2960.95 353.17 2966C383.132 2971.06 411.033 2978.17 437.25 2987.54C435.564 3013.75 433.504 3039.97 430.883 3066.56C428.261 3093.15 425.452 3120.68 422.082 3149.33H410.659C399.61 3098.02 379.761 3057.76 350.549 3028.55C321.336 2999.33 286.319 2984.92 244.935 2984.92C207.108 2984.92 176.211 2996.34 152.616 3019C129.021 3041.84 117.224 3070.49 117.224 3104.95C117.224 3130.23 124.153 3153.82 138.01 3175.73C151.867 3197.64 168.72 3217.3 188.57 3234.53C208.419 3251.76 235.946 3273.48 271.338 3299.7C311.786 3330.03 344.744 3356.44 370.024 3378.72C395.304 3401 416.651 3427.6 433.879 3458.31C451.107 3489.02 459.721 3523.47 459.721 3561.3C459.721 3602.68 449.609 3639.2 429.385 3671.22C409.161 3703.24 380.697 3728.15 343.995 3745.75C307.292 3763.54 265.346 3772.34 218.157 3772.34C186.135 3772.34 150.369 3768.78 110.67 3761.67L111.232 3762.04Z" fill="white"/>
<path d="M612.524 3709.04C631.437 3695.93 647.916 3677.96 661.773 3654.74C675.63 3631.52 692.296 3596.31 711.771 3549.12C732.744 3497.63 761.207 3424.97 797.161 3330.97C832.927 3236.96 869.443 3139.78 906.52 3039.59L896.408 3009.26C914.198 3002.51 930.302 2992.78 945.096 2980.23C959.889 2967.68 970.188 2954.58 975.993 2941.09H983.671C1053.71 3152.7 1121.12 3342.76 1185.91 3511.3C1210.25 3571.97 1231.23 3617.29 1248.45 3647.25C1265.68 3677.21 1284.03 3698.93 1303.51 3712.41C1322.8 3725.9 1348.08 3736.38 1379.35 3744.06V3755.48C1348.08 3755.48 1322.8 3755.11 1303.51 3754.17L1198.64 3752.86L1098.84 3754.17C1079.36 3754.92 1051.65 3755.48 1015.32 3755.48V3744.06C1050.71 3735.63 1076.18 3725.33 1091.91 3713.16C1107.45 3700.99 1115.31 3682.08 1115.31 3656.8C1115.31 3642.57 1111.38 3620.09 1103.33 3589.76C1095.28 3559.42 1079.17 3509.24 1054.64 3439.39C1022.62 3438.64 975.057 3438.08 911.763 3438.08C858.582 3438.08 819.445 3438.45 794.165 3439.39C767.949 3504.37 750.721 3552.49 742.294 3584.14C733.867 3615.79 729.748 3639.19 729.748 3654.36C729.748 3679.64 737.8 3698.74 753.717 3711.85C769.634 3724.96 797.536 3735.63 837.234 3744.06V3755.48C808.584 3755.48 786.3 3755.11 770.196 3754.17L682.933 3752.86L598.292 3754.17C583.124 3754.92 561.964 3755.48 534.999 3755.48V3744.06C567.956 3733.95 593.798 3722.34 612.711 3709.23L612.524 3709.04ZM915.321 3406.24C973.559 3406.24 1016.07 3405.87 1043.03 3404.93C1006.7 3302.13 967.192 3196.7 924.123 3088.84C881.989 3196.7 842.29 3302.13 805.213 3404.93C828.059 3405.87 864.574 3406.24 915.134 3406.24H915.321Z" fill="white"/>
<path d="M2539.61 3752.49L2414.52 3753.8L2351.41 3755.11V3743.69C2391.86 3736.95 2420.88 3726.83 2438.67 3713.35C2456.46 3699.87 2468.26 3677.58 2474.06 3646.31C2479.87 3615.23 2482.87 3565.42 2482.87 3497.07V3234.16C2482.87 3165.81 2479.87 3116.18 2474.06 3084.91C2468.07 3053.82 2456.28 3031.35 2438.67 3017.87C2420.88 3004.39 2391.86 2994.28 2351.41 2987.54V2976.11L2414.52 2977.42L2539.61 2978.73C2641.66 2978.73 2774.43 2976.67 2937.91 2972.37C2936.22 3024.61 2934.53 3063.38 2932.85 3088.66C2931.91 3108.88 2930.79 3129.48 2929.1 3150.64H2920.3C2908.51 3108.5 2896.9 3077.98 2885.47 3058.88C2874.05 3039.97 2858.32 3026.86 2838.1 3019.74C2817.87 3012.63 2787.16 3007.76 2745.78 3005.14C2718.06 3003.45 2665.63 3002.7 2589.04 3002.7C2585.67 3090.34 2583.99 3162.81 2583.99 3220.11V3333.96C2647.09 3334.9 2694.84 3334.34 2726.86 3332.65C2752.14 3330.97 2772.37 3326.29 2787.54 3318.8C2802.7 3311.12 2815.06 3298.95 2824.8 3282.09C2834.54 3265.24 2843.15 3241.65 2850.64 3211.31H2862.07C2860.38 3264.49 2861.13 3352.13 2864.69 3474.22L2853.26 3475.53C2843.9 3436.77 2832.48 3409.8 2818.43 3394.64C2804.58 3379.47 2781.92 3370.29 2750.83 3366.92C2727.24 3363.55 2671.62 3362.61 2583.99 3364.3V3474.22C2583.99 3549.31 2586.98 3603.99 2592.79 3638.63C2598.59 3673.28 2609.64 3696.87 2625.74 3709.42C2641.66 3721.96 2666.94 3728.33 2701.58 3728.33C2736.23 3728.33 2769.37 3726.65 2796.34 3723.28C2824.99 3719.9 2849.14 3712.6 2868.99 3701.18C2888.84 3689.76 2907.38 3672.34 2924.61 3648.75C2941.84 3625.15 2961.5 3591.45 2983.41 3547.63L2992.21 3548.94C2980.41 3626.46 2965.62 3696.5 2948.02 3758.85C2743.16 3754.55 2607.02 3752.49 2539.61 3752.49Z" fill="white"/>
<path d="M3274.22 3756.42C3244.64 3749.68 3217.3 3740.5 3192.02 3728.7L3135.09 3761.66L3127.41 3757.92C3134.15 3692.94 3138.65 3630.58 3140.71 3570.85C3142.77 3511.11 3143.89 3429.65 3143.89 3326.85C3143.89 3190.34 3143.52 3102.32 3142.58 3062.62C3141.64 3028.17 3140.33 3003.26 3138.08 2988.1C3136.02 2972.93 3132.65 2961.5 3127.97 2954.01C3123.29 2946.34 3115.05 2939.6 3103.25 2933.79L3077.97 2919.93V2912.26L3229.65 2859.07L3237.33 2864.13C3233.03 2945.96 3230.97 3092.96 3230.97 3305.31C3255.31 3285.09 3282.27 3269.73 3311.86 3259.25C3341.26 3248.76 3371.6 3243.52 3402.87 3243.52C3448.37 3243.52 3489.01 3254.19 3524.77 3275.73C3560.54 3297.26 3588.44 3327.41 3608.29 3366.17C3628.14 3404.93 3638.07 3449.13 3638.07 3498.94C3638.07 3552.12 3626.64 3598.75 3603.99 3639.19C3581.33 3679.64 3548.93 3711.1 3507.36 3733.39C3465.6 3755.67 3417.29 3766.91 3362.61 3766.91C3333.02 3766.91 3303.62 3763.53 3274.03 3756.79L3274.22 3756.42ZM3269.73 3671.59C3297.07 3718.78 3337.7 3742.37 3391.63 3742.37C3440.51 3742.37 3478.71 3724.58 3506.05 3689.19C3533.39 3653.8 3547.06 3604.93 3547.06 3542.57C3547.06 3493.69 3538.44 3450.06 3521.22 3411.68C3503.99 3373.29 3480.21 3343.7 3449.87 3322.54C3419.53 3301.57 3384.52 3290.89 3345.01 3290.89C3302.87 3290.89 3264.86 3302.69 3231.15 3326.29C3230.22 3369.35 3229.47 3412.24 3228.72 3455.31C3228.72 3552.31 3242.39 3624.4 3269.73 3671.59Z" fill="white"/>
<path d="M4147.22 3736.2C4128.31 3715.97 4118.76 3686.01 4118.76 3646.5C4118.76 3544.63 4120.44 3432.84 4123.82 3311.49L4060.52 3300.07V3291.27C4093.48 3273.48 4119.7 3257.37 4139.55 3242.58C4159.39 3227.79 4182.24 3207.38 4208.46 3181.35H4216.13L4212.39 3255.88H4385.6V3295.01L4216.13 3297.45C4211.83 3382.65 4209.77 3485.08 4209.77 3604.74C4209.77 3643.5 4215.57 3670.84 4227.56 3686.95C4239.35 3703.05 4259.95 3710.92 4289.54 3710.92C4321.56 3710.92 4353.21 3703.8 4384.29 3689.38L4389.35 3698.18C4368.19 3720.09 4344.03 3736.94 4316.69 3748.74C4289.35 3760.54 4261.26 3766.53 4232.61 3766.53C4194.6 3766.53 4166.14 3756.42 4147.22 3736.2Z" fill="white"/>
<path d="M4592.15 3733.01C4551.33 3710.73 4518.93 3679.64 4495.52 3640.13C4471.93 3600.62 4460.13 3555.87 4460.13 3506.06C4460.13 3456.25 4471.93 3412.8 4495.52 3372.73C4519.12 3332.65 4551.33 3301.01 4592.15 3277.97C4632.97 3254.75 4679.23 3243.14 4730.53 3243.14C4781.84 3243.14 4826.79 3254.38 4867.8 3276.66C4908.62 3298.95 4941.01 3329.85 4964.42 3368.98C4988.02 3408.12 4999.81 3452.31 4999.81 3501.19C4999.81 3550.06 4988.02 3595.94 4964.42 3636.39C4940.83 3676.84 4908.62 3708.67 4867.8 3731.89C4826.97 3755.11 4781.28 3766.72 4730.53 3766.72C4679.79 3766.72 4632.97 3755.48 4592.15 3733.2V3733.01ZM4852.63 3680.58C4882.59 3638.45 4897.57 3582.83 4897.57 3513.73C4897.57 3465.61 4890.27 3422.73 4875.47 3384.71C4860.68 3346.7 4840.27 3317.3 4814.24 3296.14C4788.02 3275.17 4758.25 3264.49 4724.54 3264.49C4676.42 3264.49 4637.47 3285.65 4607.51 3327.79C4577.54 3369.92 4562.56 3425.53 4562.56 3494.63C4562.56 3542.76 4569.87 3585.64 4584.66 3623.65C4599.45 3661.67 4619.86 3691.07 4645.89 3712.23C4671.92 3733.39 4701.88 3743.87 4735.59 3743.87C4783.72 3743.87 4822.67 3722.9 4852.44 3680.58H4852.63Z" fill="white"/>
<path d="M3783.75 3722.9C3796.3 3714.85 3804.35 3700.99 3807.72 3681.14C3811.09 3661.29 3812.78 3624.4 3812.78 3570.47C3812.78 3513.17 3812.4 3468.04 3811.47 3435.27C3810.53 3400.82 3809.03 3376.47 3806.41 3362.62C3803.98 3348.76 3798.55 3337.9 3790.68 3330.41C3782.63 3322.73 3768.21 3314.49 3747.05 3305.13V3296.33L3900.04 3242.02L3907.72 3245.77C3903.41 3321.61 3901.35 3398.38 3901.35 3475.91V3570.66C3901.35 3624.59 3903.04 3661.67 3906.41 3681.89C3909.78 3702.12 3917.64 3715.97 3929.82 3723.65C3941.99 3731.14 3965.02 3738.44 3998.73 3745.19V3755.3C3984.31 3755.3 3969.7 3754.92 3954.53 3753.99L3858.47 3752.68L3759.78 3753.99C3747.99 3754.74 3732.82 3755.3 3714.28 3755.3V3745.19C3747.99 3738.44 3771.21 3731.14 3783.75 3723.09V3722.9ZM3802.67 3052.7C3791.62 3042.22 3786.19 3027.98 3786.19 3010.38C3786.19 2994.46 3791.62 2981.17 3802.67 2970.5C3813.53 2960.01 3827.01 2954.77 3843.11 2954.77C3859.97 2954.77 3873.64 2960.01 3884.12 2970.5C3894.61 2980.98 3899.85 2994.28 3899.85 3010.38C3899.85 3028.17 3894.61 3042.22 3884.12 3052.7C3873.64 3063.19 3860.34 3068.43 3844.24 3068.43C3827.38 3068.43 3813.53 3063.19 3802.48 3052.7H3802.67Z" fill="white"/>
<path d="M2346.43 1647.32L2376.01 1605.93C2346.43 1590.95 2316.84 1605.93 2316.84 1605.93L2346.43 1647.32Z" fill="white"/>
<path d="M2416.09 1550.13C2394.55 1541.7 2371.14 1537.02 2346.43 1537.02C2321.71 1537.02 2298.3 1541.7 2276.77 1550.13C2285.19 1558.55 2293.62 1567.36 2301.48 1576.16C2315.72 1571.85 2330.7 1569.6 2346.43 1569.6C2362.16 1569.6 2377.14 1571.85 2391.18 1576.16C2399.23 1567.36 2407.47 1558.55 2415.9 1550.13H2416.09Z" fill="white"/>
<path d="M2479.01 1494.14C2440.06 1472.61 2394.74 1460.25 2346.43 1460.25C2298.11 1460.25 2252.8 1472.61 2213.85 1494.14C2223.21 1501.44 2232.2 1509.12 2241.19 1516.99C2272.83 1501.44 2308.6 1492.83 2346.43 1492.83C2384.25 1492.83 2420.02 1501.44 2451.48 1516.8C2460.47 1508.93 2469.46 1501.26 2479.01 1493.95V1494.14Z" fill="white"/>
<path d="M2538.18 1451.63C2483.87 1415.3 2417.77 1393.95 2346.43 1393.95C2275.08 1393.95 2208.98 1415.3 2154.67 1451.63C2164.78 1458.18 2174.71 1464.92 2184.26 1471.85C2231.07 1443.2 2286.69 1426.54 2346.43 1426.54C2406.16 1426.54 2461.59 1443.2 2508.4 1471.85C2518.14 1464.92 2528.07 1458.18 2538.18 1451.63Z" fill="white"/>
<path d="M2615.7 1407.63C2604.66 1413.06 2593.98 1418.67 2583.31 1424.48C2517.95 1375.6 2435.75 1346.58 2346.43 1346.58C2257.1 1346.58 2174.71 1375.79 2109.36 1424.48C2098.68 1418.49 2088.01 1412.87 2076.96 1407.63C2149.43 1349.58 2242.68 1314.37 2344.37 1314L2477.32 1355.75L2596.23 1393.02C2602.78 1397.7 2609.34 1402.57 2615.7 1407.63Z" fill="white"/>
<path d="M2235.19 1279.73C2157.29 1298.27 2087.07 1335.72 2030.52 1386.84C2019.1 1382.16 2007.67 1377.66 1995.88 1373.54C2047 1324.48 2109.36 1286.09 2178.83 1262.12L2235.19 1279.91V1279.73Z" fill="white"/>
<path d="M2117.03 1242.65C2054.11 1271.11 1997.94 1311 1951.31 1359.31C1939.14 1355.75 1926.78 1352.57 1914.42 1349.76C1958.61 1301.07 2011.79 1259.69 2071.34 1228.42L2117.03 1242.84V1242.65Z" fill="white"/>
<path d="M2013.48 1210.07C1956.37 1245.08 1905.62 1288.9 1863.49 1339.27C1850.56 1337.21 1837.64 1335.34 1824.54 1333.84C1865.92 1281.22 1915.92 1234.97 1972.28 1196.96L2013.48 1209.88V1210.07Z" fill="white"/>
<path d="M1899.06 1174.11C1841.76 1218.12 1791.58 1270.36 1750.57 1328.98C1745.32 1328.98 1740.08 1328.79 1734.84 1328.79C1726.41 1328.79 1717.98 1328.79 1709.75 1329.16C1750.76 1266.24 1801.69 1209.88 1860.68 1161.94L1899.06 1173.93V1174.11Z" fill="white"/>
<path d="M2698.1 1709.67V1753.12C2698.1 1753.12 2697.35 1753.86 2696.79 1754.24C2685.36 1749.56 2673.94 1745.06 2662.14 1740.94C2673.57 1729.9 2685.55 1719.6 2698.1 1709.67Z" fill="white"/>
<path d="M2698.1 1618.66V1658.36C2668.89 1678.59 2641.92 1701.43 2617.58 1726.71C2605.4 1723.15 2593.23 1719.97 2580.69 1717.16C2614.77 1679.52 2654.28 1646.38 2698.1 1618.66Z" fill="white"/>
<path d="M2698.1 1529.16V1566.8C2633.49 1603.5 2576.38 1651.06 2529.94 1706.86C2517.02 1704.81 2504.1 1702.93 2490.99 1701.43C2546.42 1631.03 2617.01 1572.04 2698.1 1529.16Z" fill="white"/>
<path d="M2698.1 1425.04V1460.99C2583.87 1514.55 2486.87 1596.38 2416.83 1696.56C2411.59 1696.56 2406.54 1696.38 2401.11 1696.38C2392.68 1696.38 2384.25 1696.38 2376.01 1696.75C2452.79 1578.78 2564.77 1483.84 2697.72 1424.85H2698.1V1425.04Z" fill="white"/>
<path d="M2346.43 2393.17L2376.01 2351.78C2346.43 2336.8 2316.84 2351.78 2316.84 2351.78L2346.43 2393.17Z" fill="white"/>
<path d="M2416.09 2295.98C2394.55 2287.55 2371.14 2282.87 2346.43 2282.87C2321.71 2282.87 2298.3 2287.55 2276.77 2295.98C2285.19 2304.41 2293.62 2313.21 2301.48 2322.01C2315.72 2317.7 2330.7 2315.45 2346.43 2315.45C2362.16 2315.45 2377.14 2317.7 2391.18 2322.01C2399.23 2313.21 2407.47 2304.41 2415.9 2295.98H2416.09Z" fill="white"/>
<path d="M2213.85 2239.99C2223.21 2247.29 2232.2 2254.97 2241.19 2262.84C2272.83 2247.29 2308.6 2238.68 2346.43 2238.68C2384.25 2238.68 2420.02 2247.29 2451.48 2262.65C2460.47 2254.78 2469.46 2247.11 2479.01 2239.8C2440.06 2218.27 2394.74 2205.91 2346.43 2205.91C2298.11 2205.91 2252.8 2218.27 2213.85 2239.8V2239.99Z" fill="white"/>
<path d="M2538.18 2197.48C2483.87 2161.16 2417.77 2139.81 2346.43 2139.81C2275.08 2139.81 2208.98 2161.16 2154.67 2197.48C2164.78 2204.04 2174.71 2210.78 2184.26 2217.71C2231.07 2189.06 2286.69 2172.39 2346.43 2172.39C2406.16 2172.39 2461.59 2189.06 2508.4 2217.71C2518.14 2210.78 2528.07 2204.04 2538.18 2197.48Z" fill="white"/>
<path d="M2615.7 2153.48C2542.86 2095.05 2448.86 2059.85 2346.43 2059.85C2244 2059.85 2149.99 2095.05 2077.15 2153.48C2088.01 2158.91 2098.87 2164.34 2109.54 2170.33C2174.9 2121.46 2257.29 2092.43 2346.43 2092.43C2435.56 2092.43 2517.95 2121.64 2583.31 2170.33C2593.98 2164.34 2604.66 2158.72 2615.7 2153.48Z" fill="white"/>
<path d="M2696.97 2119.39C2607.46 2033.44 2483.5 1980.07 2346.43 1980.07C2209.35 1980.07 2085.39 2033.26 1995.88 2119.39C2007.49 2123.51 2019.1 2128.01 2030.52 2132.69C2112.91 2058.35 2224.33 2012.66 2346.43 2012.66C2468.52 2012.66 2579.75 2058.35 2662.33 2132.69C2673.75 2128.01 2685.18 2123.51 2696.97 2119.39Z" fill="white"/>
<path d="M2698.1 2022.39V2064.71C2603.91 1986.63 2480.88 1939.25 2346.43 1939.25C2190.25 1939.25 2049.43 2003.11 1951.31 2104.98C1939.14 2101.42 1926.78 2098.23 1914.42 2095.42C2019.1 1979.89 2173.96 1906.67 2346.43 1906.67C2479.01 1906.67 2601.1 1949.92 2698.1 2022.39Z" fill="white"/>
<path d="M2698.1 1928.58V1967.72C2598.29 1901.43 2476.95 1862.67 2346.43 1862.67C2150.93 1862.67 1976.59 1949.55 1863.49 2085.13C1850.56 2083.07 1837.64 2081.2 1824.54 2079.7C1943.44 1928.21 2133.14 1830.08 2346.43 1830.08C2475.82 1830.08 2596.6 1866.22 2698.1 1928.58Z" fill="white"/>
<path d="M2698.1 1820.53V1857.79C2594.17 1801.62 2474.14 1769.59 2346.43 1769.59C2097.93 1769.59 1878.65 1890.94 1750.57 2074.83C1745.32 2074.83 1740.08 2074.64 1734.84 2074.64C1726.41 2074.64 1717.98 2074.64 1709.75 2075.01C1841.95 1872.21 2077.9 1736.82 2346.43 1736.82C2473.39 1736.82 2593.23 1767.16 2698.1 1820.53Z" fill="white"/>
<path d="M2698.1 2455.53V2498.97C2698.1 2498.97 2697.35 2499.72 2696.79 2500.09C2685.36 2495.41 2673.94 2490.92 2662.14 2486.8C2673.57 2475.75 2685.55 2465.45 2698.1 2455.53Z" fill="white"/>
<path d="M2698.1 2364.52V2404.21C2668.89 2424.44 2641.92 2447.28 2617.58 2472.56C2605.4 2469.01 2593.23 2465.82 2580.69 2463.01C2614.77 2425.37 2654.28 2392.23 2698.1 2364.52Z" fill="white"/>
<path d="M2698.1 2275.01V2312.65C2633.49 2349.35 2576.38 2396.91 2529.94 2452.72C2517.02 2450.66 2504.1 2448.78 2490.99 2447.29C2546.42 2376.88 2617.01 2317.89 2698.1 2275.01Z" fill="white"/>
<path d="M2698.1 2170.52V2206.66C2583.87 2260.22 2486.87 2342.05 2416.83 2442.23C2411.59 2442.23 2406.54 2442.04 2401.11 2442.04C2392.68 2442.04 2384.25 2442.04 2376.01 2442.42C2452.98 2324.45 2564.96 2229.32 2698.1 2170.33V2170.52Z" fill="white"/>
<path d="M2698.1 2566.38V2603.65C2594.17 2547.47 2474.14 2515.45 2346.43 2515.45C2330.51 2515.45 2314.78 2516.01 2299.24 2516.95L2222.09 2492.79C2262.53 2486.24 2304.11 2482.87 2346.43 2482.87C2473.39 2482.87 2593.23 2513.2 2698.1 2566.57V2566.38Z" fill="white"/>
<path d="M1670.23 1269.05L1699.82 1227.67C1689.71 1222.42 1679.41 1220.93 1670.42 1220.93C1653.38 1221.11 1640.46 1227.67 1640.46 1227.67L1670.05 1269.05H1670.23Z" fill="white"/>
<path d="M1625.48 1197.89C1639.71 1193.59 1654.69 1191.34 1670.42 1191.34C1685.96 1191.34 1701.13 1193.59 1715.18 1197.89C1723.23 1189.09 1731.47 1180.29 1739.89 1171.87C1718.36 1163.44 1694.95 1158.76 1670.23 1158.76C1645.52 1158.76 1622.11 1163.44 1600.57 1171.87C1609 1180.29 1617.43 1189.09 1625.29 1197.89H1625.48Z" fill="white"/>
<path d="M1778.47 1136.1C1777.53 1137.04 1776.41 1137.79 1775.47 1138.72C1744.01 1123.37 1708.25 1114.57 1670.42 1114.57C1632.59 1114.57 1596.83 1123.18 1565.18 1138.72C1556.19 1130.86 1547.2 1123.18 1537.84 1115.88C1563.12 1102.02 1591.02 1091.91 1620.61 1086.48L1778.66 1136.1H1778.47Z" fill="white"/>
<path d="M1561.25 1067.94C1542.71 1074.87 1524.92 1083.48 1508.25 1093.59C1498.7 1086.66 1488.59 1079.92 1478.67 1073.37C1489.9 1065.88 1501.51 1058.95 1513.69 1052.96L1561.25 1067.94Z" fill="white"/>
<path d="M1451.7 1033.48C1445.52 1037.6 1439.34 1041.91 1433.35 1046.4C1422.68 1040.41 1412 1034.79 1400.96 1029.55C1404.51 1026.74 1408.26 1023.74 1412 1021.12L1451.7 1033.67V1033.48Z" fill="white"/>
<path d="M1359.2 1004.46C1357.7 1005.77 1356.01 1007.27 1354.52 1008.58C1350.58 1006.89 1346.65 1005.39 1342.72 1003.89L1359.2 1004.46Z" fill="white"/>
<path d="M1670.23 2014.91L1699.82 1973.52C1689.71 1968.28 1679.41 1966.78 1670.42 1966.78C1653.38 1966.97 1640.46 1973.52 1640.46 1973.52L1670.05 2014.91H1670.23Z" fill="white"/>
<path d="M1715.18 1943.75C1723.23 1934.95 1731.47 1926.14 1739.89 1917.72C1718.36 1909.29 1694.95 1904.61 1670.23 1904.61C1645.52 1904.61 1622.11 1909.29 1600.57 1917.72C1609 1926.14 1617.43 1934.95 1625.29 1943.75C1639.52 1939.44 1654.5 1937.19 1670.23 1937.19C1685.78 1937.19 1700.94 1939.44 1714.99 1943.75H1715.18Z" fill="white"/>
<path d="M1670.23 1827.83C1621.92 1827.83 1576.6 1840.19 1537.65 1861.73C1547.02 1869.03 1556.01 1876.71 1564.99 1884.57C1596.64 1869.03 1632.41 1860.41 1670.23 1860.41C1708.06 1860.41 1743.83 1869.03 1775.29 1884.38C1784.27 1876.52 1793.26 1868.84 1802.81 1861.54C1763.86 1840 1718.55 1827.64 1670.23 1827.64V1827.83Z" fill="white"/>
<path d="M1832.4 1839.44C1842.14 1832.51 1852.06 1825.77 1862.17 1819.22C1807.87 1782.89 1741.77 1761.54 1670.42 1761.54C1599.08 1761.54 1532.97 1782.89 1478.67 1819.22C1488.78 1825.77 1498.7 1832.51 1508.25 1839.44C1555.07 1810.79 1610.69 1794.13 1670.42 1794.13C1729.97 1794.13 1785.59 1810.79 1832.4 1839.44Z" fill="white"/>
<path d="M1907.3 1792.26C1917.98 1786.26 1928.65 1780.65 1939.7 1775.4C1866.86 1716.98 1772.85 1681.77 1670.42 1681.77C1567.99 1681.77 1473.99 1716.98 1401.14 1775.4C1412 1780.83 1422.86 1786.45 1433.54 1792.26C1498.89 1743.38 1581.29 1714.36 1670.42 1714.36C1759.74 1714.36 1841.95 1743.57 1907.3 1792.26Z" fill="white"/>
<path d="M1342.72 1749.56C1346.65 1751.06 1350.58 1752.74 1354.52 1754.24C1436.91 1679.9 1548.14 1634.21 1670.42 1634.21C1792.7 1634.21 1903.75 1679.9 1986.33 1754.24C1997.75 1749.56 2009.17 1745.07 2020.97 1740.95C1931.46 1654.99 1807.31 1601.62 1670.42 1601.62C1544.77 1601.62 1429.98 1646.38 1342.72 1720.35V1749.56Z" fill="white"/>
<path d="M2102.24 1717.16C2089.88 1719.97 2077.52 1723.16 2065.35 1726.71C1967.23 1624.84 1826.41 1560.99 1670.42 1560.99C1547.2 1560.99 1433.54 1600.88 1342.72 1667.73V1627.09C1435.6 1564.92 1548.52 1528.41 1670.42 1528.41C1842.89 1528.41 1997.56 1601.62 2102.43 1717.16H2102.24Z" fill="white"/>
<path d="M2192.12 1701.43C2179.02 1702.93 2166.1 1704.62 2153.17 1706.86C2040.07 1571.47 1865.73 1484.4 1670.23 1484.4C1549.83 1484.4 1437.47 1517.36 1342.53 1574.28V1536.08C1438.78 1482.53 1550.76 1451.63 1670.23 1451.63C1883.52 1451.63 2073.21 1549.75 2191.94 1701.25L2192.12 1701.43Z" fill="white"/>
<path d="M2091.75 2451.59L2016.85 2428C1923.41 2352.34 1802.25 2306.84 1670.42 2306.84C1658.44 2306.84 1646.45 2307.22 1634.65 2307.96L1559.94 2284.56C1595.7 2277.82 1632.59 2274.26 1670.42 2274.26C1837.08 2274.26 1987.26 2342.61 2091.75 2451.59Z" fill="white"/>
<path d="M2192.12 2447.29C2179.02 2448.79 2166.1 2450.47 2153.17 2452.72C2040.07 2317.33 1865.73 2230.25 1670.23 2230.25C1603.57 2230.25 1539.34 2240.37 1479.04 2259.09L1426.61 2242.61C1501.89 2213.59 1584.09 2197.67 1670.23 2197.67C1883.52 2197.67 2073.21 2295.8 2191.94 2447.29H2192.12Z" fill="white"/>
<path d="M1354.52 1373.54C1350.58 1374.86 1346.65 1376.35 1342.72 1377.85V1362.5C1346.65 1366.05 1350.77 1369.8 1354.52 1373.54Z" fill="white"/>
<path d="M1435.97 1349.57C1423.61 1352.38 1411.25 1355.57 1399.08 1359.12C1381.67 1340.96 1362.75 1324.11 1342.72 1308.38V1267.18C1376.99 1291.34 1408.26 1318.86 1435.97 1349.57Z" fill="white"/>
<path d="M1525.86 1333.85C1512.75 1335.34 1499.83 1337.03 1486.91 1339.28C1446.09 1290.4 1397.4 1247.89 1342.72 1213.63V1175.05C1413.88 1216.44 1476.05 1270.55 1525.86 1334.03V1333.85Z" fill="white"/>
<path d="M1640.83 1329.16C1632.41 1328.79 1624.17 1328.79 1615.55 1328.79C1610.31 1328.79 1605.26 1328.79 1600.01 1328.98C1535.03 1235.72 1446.65 1158.57 1342.72 1105.01V1068.12C1465.37 1127.49 1568.55 1218.31 1640.83 1329.16Z" fill="white"/>
<path d="M2307.1 1696.75C2298.67 1696.38 2290.44 1696.38 2281.82 1696.38C2276.58 1696.38 2271.52 1696.38 2266.28 1696.57C2138.19 1512.68 1918.91 1391.33 1670.42 1391.33C1552.45 1391.33 1441.03 1418.67 1342.72 1467.17V1430.66C1441.78 1384.59 1553.01 1358.75 1670.42 1358.75C1938.95 1358.75 2174.9 1494.14 2307.1 1696.94V1696.75Z" fill="white"/>
<path d="M1354.52 2119.21C1350.58 2120.52 1346.65 2122.02 1342.72 2123.52V2108.16C1346.65 2111.72 1350.77 2115.46 1354.52 2119.21Z" fill="white"/>
<path d="M1435.97 2095.43C1423.61 2098.23 1411.25 2101.42 1399.08 2104.98C1381.67 2086.81 1362.75 2069.96 1342.72 2054.23V2013.03C1376.99 2037.19 1408.26 2064.71 1435.97 2095.43Z" fill="white"/>
<path d="M1525.86 2079.7C1512.75 2081.2 1499.83 2082.88 1486.91 2085.13C1446.09 2036.25 1397.4 1993.75 1342.72 1959.48V1920.9C1413.88 1962.29 1476.05 2016.4 1525.86 2079.89V2079.7Z" fill="white"/>
<path d="M1640.83 2075.02C1632.41 2074.64 1624.17 2074.64 1615.55 2074.64C1610.31 2074.64 1605.26 2074.64 1600.01 2074.83C1535.03 1981.57 1446.65 1904.42 1342.72 1850.87V1813.98C1465.37 1873.34 1568.55 1964.16 1640.83 2074.83V2075.02Z" fill="white"/>
<path d="M2307.1 2442.6C2298.67 2442.23 2290.44 2442.23 2281.82 2442.23C2276.58 2442.23 2271.52 2442.23 2266.28 2442.42C2138.19 2258.53 1918.91 2137.18 1670.42 2137.18C1552.45 2137.18 1441.03 2164.52 1342.72 2213.02V2176.51C1441.78 2130.44 1553.01 2104.6 1670.42 2104.6C1938.95 2104.6 2174.9 2239.8 2307.1 2442.79V2442.6Z" fill="white"/>
<path d="M1811.43 409.911V466.464C1820.98 490.995 1831.28 519.083 1842.14 550.356V437.439C1830.71 428.45 1820.42 419.274 1811.43 409.724V409.911ZM1943.26 496.425L1867.98 629.192C1871.91 641.551 1875.66 654.472 1879.59 667.58L1970.04 508.035C1960.86 504.29 1951.87 500.545 1943.26 496.612V496.425ZM2108.98 552.603L1884.08 682.56C1886.71 691.923 1889.51 701.661 1892.14 711.398L2149.99 562.527C2135.95 559.344 2122.28 556.161 2108.98 552.79V552.603ZM3414.74 335.008C3411.93 333.697 3408.37 334.633 3406.69 337.63C3406.69 338.004 3405.37 340.251 3403.69 343.622C3403.69 343.809 3403.32 343.996 3403.32 344.184C3403.32 344.184 3403.32 344.558 3403.32 344.745C3399.76 351.861 3393.77 364.782 3385.71 382.946C3385.34 383.321 3385.15 383.508 3384.96 383.882C3351.63 433.881 3283.47 478.074 3190.59 513.84L2879.36 693.421L2944.72 578.07C2932.73 580.13 2920.37 582.002 2908.02 583.875L2856.71 674.508V590.804C2846.59 592.114 2836.3 593.238 2826 594.361V674.508L2782.93 598.481C2772.44 599.417 2761.77 600.167 2751.09 600.916L2803.53 693.421L2651.85 605.784C2633.12 606.346 2614.39 606.533 2595.29 606.721L2788.36 718.14H2515.15L2447.17 602.414C2435.37 601.665 2423.76 600.916 2412.15 599.979L2490.05 732.559L2348.86 972.624V594.174C2339.12 593.051 2329.39 592.114 2319.84 590.804V972.437L2178.64 732.371L2266.28 583.5C2255.98 582.002 2245.68 580.317 2235.57 578.632L2153.74 717.952H1894.38C1897 727.503 1899.63 737.053 1902.06 746.978H2153.74L2289.5 977.68L1904.31 755.404C1908.05 770.198 1911.8 785.178 1915.54 800.721L2272.08 1006.52H2008.05L1933.15 879.182C1938.95 906.709 1944.57 935.36 1949.81 964.572L1982.96 1020.94L1964.23 1052.77C1966.48 1067.94 1968.54 1083.48 1970.6 1099.02L2008.05 1035.36H2281.26L1991.57 1202.58L2029.02 1214.38L2295.68 1060.45L2179.58 1261.75L2207.85 1270.74L2319.09 1078.05V1305.76L2349.8 1315.5V1078.05L2484.62 1311.75L2462.34 1350.89L2477.69 1355.76L2490.62 1359.88L2509.72 1326.36L2788.36 1328.6L2648.47 1409.31L2686.11 1421.11L2801.28 1354.63L2698.47 1529.35V1586.46L2827.12 1367.74V1847.87L2698.47 1629.34V1686.46L2796.6 1853.12L2698.47 1796.56V1835.33L2779.18 1881.95H2698.47V1910.98H2788.36L2698.47 1962.85V1996.37L2802.78 1936.07L2698.47 2116.78V2174.64L2826.18 1953.3V2322.95C2836.48 2321.45 2846.78 2319.95 2856.89 2318.27V1953.3L2991.72 2187L2924.68 2305.35C2937.79 2302.54 2950.71 2299.35 2963.07 2296.17L3016.81 2201.42L3182.35 2202.73C3194.9 2193.55 3205.76 2183.82 3215.12 2174.08L3016.81 2172.39L2880.3 1935.88L3238.71 2142.81C3243.77 2134 3247.52 2125.02 3249.95 2115.84L2894.91 1910.79H3168.12L3241.52 2035.69C3235.34 2006.86 3229.73 1978.39 3224.67 1949.93L3193.21 1896.37L3211 1866.22C3208.75 1850.68 3206.51 1835.33 3204.63 1819.97L3168.12 1881.95H2904.08L3193.02 1715.11C3191.9 1702.75 3190.78 1690.39 3189.84 1678.22L2886.67 1853.3L3022.43 1622.6H3186.09C3185.53 1612.86 3184.97 1603.31 3184.6 1593.57H3022.43L2881.99 1354.82L3182.35 1528.22C3182.16 1516.99 3181.98 1505.56 3181.79 1494.52L2894.91 1328.98L3173.36 1326.73L3184.22 1345.83C3185.35 1320.93 3186.66 1296.21 3188.34 1272.05L3173.36 1297.89L2896.41 1300.14L3202.57 1123.37C3204.07 1111.2 3205.57 1099.21 3207.26 1087.23L2881.99 1275.05L3022.43 1036.29H3214.56C3216.06 1026.56 3217.55 1016.82 3219.24 1007.27H3022.43L2886.67 776.564L3225.23 972.063C3227.29 960.265 3229.54 948.468 3231.6 937.045L2903.9 747.914H3167.93L3243.77 876.748C3246.77 862.704 3249.76 848.846 3252.95 835.176L3193.02 733.495L3334.22 493.429V549.419C3356.88 484.066 3377.66 432.944 3392.64 398.114L3388.9 400.174L3409.31 365.344C3411.37 360.288 3413.24 355.045 3414.55 349.801C3416.05 346.618 3417.17 344.371 3417.36 343.996C3418.86 341 3417.73 337.442 3414.74 335.944V335.008ZM2796.22 775.815L2660.46 1006.52H2396.42L2796.22 775.815ZM2514.77 747.165H2778.81L2379.01 977.868L2514.77 747.165ZM2509.34 1297.33L2372.83 1060.82L2786.48 1299.58L2509.53 1297.33H2509.34ZM2387.25 1035.73H2660.46L2800.9 1274.49L2387.25 1035.73ZM2826.74 1261.19L2685.55 1021.12L2826.74 781.059V1261.19ZM2996.96 1607.81L2855.77 1847.87V1367.74L2996.96 1607.81ZM2996.96 1021.12L2855.77 1261.19V781.059L2996.96 1021.12ZM3167.56 718.14H2894.35L3308 479.385L3167.56 718.14ZM2698.1 2258.53L2740.42 2333.06C2751.09 2332.12 2761.58 2331.19 2772.07 2330.06L2698.29 2199.73V2258.53H2698.1Z" fill="white"/>
<path d="M2698.29 2642.22L3832.7 2167.15V949.777L2698.29 1424.85V2642.22Z" fill="white"/>
<path d="M3360.81 185.386C3317.18 148.496 3255.38 115.539 3177.11 87.6372C3019.25 31.085 2810.08 0 2587.8 0C2365.53 0 2156.17 31.085 1998.5 87.6372C1920.22 115.726 1858.43 148.496 1814.8 185.386C1766.11 226.583 1741.58 271.338 1741.58 318.715C1741.58 322.085 1741.58 325.456 1741.95 328.827C1745.14 372.458 1769.67 413.655 1814.8 451.856C1825.28 460.657 1836.71 469.271 1849.25 477.697C1888.95 504.288 1938.95 528.445 1998.5 549.792C2156.36 606.344 2365.53 637.429 2587.8 637.429C2810.08 637.429 3019.43 606.344 3177.11 549.792C3236.65 528.445 3286.65 504.288 3326.35 477.697C3338.9 469.271 3350.32 460.844 3360.81 451.856C3405.94 413.655 3430.47 372.271 3433.65 328.639C3433.84 325.269 3434.03 322.085 3434.03 318.715C3434.03 271.338 3409.31 226.583 3360.81 185.386ZM3160.44 503.352C3007.82 558.032 2804.46 587.993 2587.62 587.993C2370.77 587.993 2167.41 557.844 2014.79 503.352C1872.29 452.418 1790.45 385.004 1790.45 318.715C1790.45 252.425 1872.29 185.012 2014.79 134.077C2167.41 79.3978 2370.77 49.4364 2587.62 49.4364C2804.46 49.4364 3007.82 79.585 3160.44 134.077C3302.94 185.012 3384.78 252.425 3384.78 318.715C3384.78 385.004 3302.94 452.418 3160.44 503.352Z" fill="white"/>
<path d="M3433.84 351.673C3433.84 351.673 3409.49 398.863 3377.29 482.193C3352.19 547.359 3317.55 646.794 3285.72 771.508C3281.78 787.05 3277.85 802.967 3273.92 819.446C3272.23 826.749 3270.55 834.052 3268.86 841.543C3243.4 953.898 3224.86 1067.94 3213.25 1182.54L3161.75 1204.08C3173.17 1078.05 3193.21 952.4 3221.3 828.996C3222.98 821.319 3224.86 813.828 3226.54 806.338C3230.48 790.047 3234.22 774.13 3238.34 758.4C3267.55 643.423 3299.39 548.67 3326.16 477.699C3338.71 469.272 3350.13 460.845 3360.62 451.857C3405.75 413.656 3430.28 372.272 3433.46 328.641C3437.21 335.569 3437.58 344.183 3433.65 351.673H3433.84Z" fill="white"/>
<path d="M2011.42 1183.48L1960.3 1167.37C1946.25 1035.92 1924.16 917.196 1900.19 815.327C1896.26 798.848 1892.32 782.744 1888.39 767.201C1870.23 696.417 1851.69 634.996 1835.02 584.998C1785.96 437.813 1742.14 352.61 1741.58 351.674C1737.65 344.183 1738.02 335.569 1741.58 328.828C1744.76 372.459 1769.29 413.656 1814.42 451.857C1824.91 460.658 1836.33 469.272 1848.88 477.699C1858.99 504.477 1869.85 534.813 1881.09 568.145C1899.81 623.948 1920.79 693.608 1940.82 774.317C1942.7 781.995 1944.57 789.86 1946.63 797.912C1973.03 908.394 1997.19 1038.73 2011.42 1183.48Z" fill="white"/>
<path d="M1888.39 767.199C1892.32 782.742 1896.26 798.846 1900.19 815.325L1416.87 996.591L1340.66 972.622L1888.39 767.012V767.199Z" fill="white"/>
<path d="M3832.33 923.375L3758.92 954.085L3274.29 819.446C3278.23 803.155 3281.97 787.238 3286.09 771.508L3832.51 923.375H3832.33Z" fill="white"/>
<path d="M2696.97 1398.64L2673.57 1408.37V1442.83L1982.21 1225.8H1982.02L1981.83 1225.61H1981.65L1980.52 1225.23H1980.33H1980.15L1367.25 1032.73V2198.42L2673.57 2608.7V2660.2L1318 2234.56V981.235L1340.66 972.809L1416.87 996.778L1960.3 1167.37L2011.42 1183.47L2696.97 1398.64Z" fill="white"/>
<path d="M3832.33 923.375L3758.92 954.085L3213.62 1182.35L3162.13 1203.89L2697.16 1398.64L2673.75 1408.38V2660.2L2699.6 2668.25L2723 2658.52L3857.42 2183.44V930.304L3832.33 923.375ZM3808.17 2150.86L2722.82 2605.33V1441.33L3157.44 1259.32L3208.38 1237.97L3807.98 986.856V2150.86H3808.17Z" fill="white"/>
</svg>
