<?xml version="1.0" encoding="UTF-8"?><svg id="Layer_2" xmlns="http://www.w3.org/2000/svg" viewBox="0 0 237.87 237.87"><defs><style>.cls-1{fill:#fff;}.cls-2{fill:#2dfaa1;}</style></defs><g id="Layer_1-2"><g><circle class="cls-2" cx="118.94" cy="118.94" r="118.94"/><g><polygon points="85.32 60.1 24.38 118.94 85.32 177.77 190.94 177.77 190.94 60.1 85.32 60.1"/><path class="cls-1" d="M121.37,149.65l-3.29,8.66h-13.17V75.37h17.08v28.54c4.39-5.12,10.37-8.05,17.57-8.05,15.37,0,26.59,13.3,26.59,31.47s-10.86,32.45-25.62,32.45c-7.81,0-14.52-3.78-19.15-10.12Zm14.03-6.46c7.81,0,13.42-6.46,13.42-15.49s-5.61-15.49-13.42-15.49-13.42,6.46-13.42,15.49,5.61,15.49,13.42,15.49Z"/><circle class="cls-1" cx="54.85" cy="118.94" r="10.16"/></g></g></g></svg>