<svg id="Layer_1" data-name="Layer 1" xmlns="http://www.w3.org/2000/svg" xmlns:xlink="http://www.w3.org/1999/xlink" viewBox="0 0 300.32 333.04"><defs><style>.cls-1{fill:none;}.cls-2{clip-path:url(#clip-path);}.cls-3{fill:#ff7aad;}.cls-4{fill:#00ffc2;}.cls-5{fill:#1d1d1b;}.cls-6{opacity:0.65;}.cls-7{clip-path:url(#clip-path-3);}</style><clipPath id="clip-path"><rect class="cls-1" width="300.32" height="333.04"/></clipPath><clipPath id="clip-path-3"><rect class="cls-1" x="87.83" y="72.17" width="124.66" height="116.02"/></clipPath></defs><title>logo</title><g class="cls-2"><polygon class="cls-3" points="195.49 163.68 150.16 85.17 104.83 163.68 150.16 242.19 195.49 163.68"/><g class="cls-2"><path class="cls-4" d="M116.09,90.53c7.67-4.36,15.51-8.79,23.67-11.7a65.75,65.75,0,0,1,6.41-2c1-.25,2.07-.48,3.11-.69s2.34-.41,3.05-.49a45.44,45.44,0,0,1,5.71-.32q1.25,0,2.49.12l1.12.11.74.08c-.62-.07.2,0,.26,0a40.85,40.85,0,0,1,5.13,1.14c.8.23,1.6.49,2.38.77q.59.21,1.17.45l.46.18c-.55-.22.39.18.48.22a36.17,36.17,0,0,1,4.33,2.34c.68.43,1.34.9,2,1.38s-.41-.35.21.16l.38.3c.37.3.73.62,1.09.94.59.54,1.16,1.1,1.7,1.68.27.29.54.59.79.89.13.15.26.3.38.46l.23.27c-.19-.24-.19-.24,0,0A25.42,25.42,0,0,1,186,91.19c.07.14.13.29.2.43.33.72-.18-.51.09.23.13.34.26.68.38,1a23.48,23.48,0,0,1,.74,2.7c.11.49.2,1,.27,1.48-.07-.48.05.49.05.46,0,.2,0,.4,0,.6a28,28,0,0,1,0,3.3,25.11,25.11,0,0,1-1,5.82,29.64,29.64,0,0,1-2.09,5.45,37,37,0,0,1-2.79,4.7l-.45.61c-.44.6.34-.41-.13.17s-.72.88-1.1,1.31a41.86,41.86,0,0,1-5,4.7l-.68.54c-.31.24.55-.41.07-.06l-.36.27-1.52,1.1c-1.06.74-2.14,1.45-3.24,2.12-2.29,1.41-4.66,2.69-7.07,3.87-1.24.61-2.49,1.19-3.75,1.75l-.94.4c-.12.05-.77.33-.1.05l-.38.16-2.12.85a132.93,132.93,0,0,1-16.68,5.28q-4.15,1-8.37,1.79c-1.4.26-2.81.49-4.22.7l-1,.14-.22,0-.23,0c-.72.1-1.43.18-2.15.26a86,86,0,0,1-15,.49c-1.08-.06-2.15-.16-3.22-.29-.84-.1.43.07-.16,0l-.66-.1c-.52-.08-1-.18-1.56-.28-.92-.18-1.84-.4-2.75-.67q-.6-.18-1.2-.39c-.19-.07-.38-.13-.57-.21L97,141.9c-.55-.21,0-.21.12,0-.09-.16-.86-.39-1-.49s-.64-.34-1-.52-.58-.38-.87-.58c-.59-.41.32.28.08.07l-.45-.38c-.23-.22-.46-.44-.67-.68l-.3-.35c-.27-.3.36.55.19.24-.07-.13-.19-.26-.27-.39a9.88,9.88,0,0,1-.67-1.13c-.15-.29-.19-.86,0,0a5.69,5.69,0,0,0-.25-.69c-.11-.37-.18-.74-.27-1.11-.13-.54,0,.79,0,0,0-.22,0-.44,0-.65a7.32,7.32,0,0,0,.07-1.19c.12.11-.14.79,0,.25a2,2,0,0,0,0-.24c0-.24.11-.48.18-.71.11-.41.26-.81.4-1.2s-.27.53-.1.23a2.75,2.75,0,0,0,.14-.3c.12-.24.24-.48.37-.72.22-.41.47-.81.73-1.2.13-.2.27-.4.41-.59l.18-.24c.3-.43-.43.52,0,0A28.41,28.41,0,0,1,96.13,127c.42-.4.84-.79,1.28-1.16.22-.2.45-.39.68-.58s1.08-.84.45-.37a55.43,55.43,0,0,1,7-4.51q2-1.1,4.11-2.06c.71-.33,1.42-.64,2.14-1s-.52.21.22-.09l.44-.18q.68-.28,1.35-.54a101.41,101.41,0,0,1,9.89-3.29q5.51-1.51,11.13-2.48c2.1-.36,3.57-.57,5.38-.78s3.78-.4,5.67-.52a106.38,106.38,0,0,1,12.11-.14,90,90,0,0,1,10.8,1.12c2.66.45,5.3,1,7.91,1.72q2.12.57,4.2,1.29c.7.24,1.4.5,2.09.77l1.06.42c.13.06.61.27.08,0l.63.28a49.17,49.17,0,0,1,8.75,5l1,.75c-.09-.07-.37-.3,0,0l.59.48c.7.57,1.38,1.17,2,1.78a42.86,42.86,0,0,1,3.74,4c.18.21.35.42.52.64,0,0,.32.41.08.1.29.37.56.75.84,1.14.6.84,1.17,1.71,1.7,2.6a41.15,41.15,0,0,1,2.25,4.32c.05.1.21.48,0,0,.09.21.17.42.26.64s.28.72.41,1.08c.26.73.5,1.46.72,2.2a38.83,38.83,0,0,1,1.11,4.77c.07.38.12.77.18,1.16-.09-.6,0-.07,0,.09s.05.39.07.58c.1.87.16,1.74.21,2.61a48.08,48.08,0,0,1,0,4.95c0,.82-.11,1.64-.19,2.45,0,.42-.1.83-.14,1.24s.1-.66,0,.13c0,.25-.07.49-.11.74q-.4,2.64-1.07,5.22t-1.59,5.25c-.66,1.87-1.18,3.17-1.87,4.68A74.67,74.67,0,0,1,191.5,193a73.17,73.17,0,0,1-7.64,7.3l-.92.74-.37.29c-.61.48.44-.33-.18.14s-1.39,1-2.1,1.54c-1.29.91-2.6,1.79-3.95,2.62a90.9,90.9,0,0,1-8.78,4.79l-2.16,1c-.37.17-.73.33-1.1.48l-.43.19c.58-.25-.35.14-.45.18q-2.19.91-4.43,1.71-4.65,1.67-9.44,2.91c-3,.78-6.08,1.44-9.16,2l-2.2.35-1.09.16c-.74.1.6-.08-.14,0l-.65.09c-1.49.18-3,.33-4.48.44-2.76.22-5.54.31-8.31.26-1.33,0-2.65-.08-4-.18-.61,0-1.21-.1-1.81-.16l-.89-.09c-.25,0-1.39-.13-.48-.06a32.53,32.53,0,0,1-6.47-1.36c-1-.29-1.91-.63-2.84-1l.28.11a2.43,2.43,0,0,0-.37-.16l-.6-.28c-.42-.2-.84-.42-1.25-.65s-.66-.39-1-.6l-.49-.34-.23-.17c-.39-.26.52.44.2.15a18.66,18.66,0,0,1-2.08-2.09A17.22,17.22,0,0,1,100,211c-.24-.43-.45-.86-.66-1.29-.39-.81.08.23-.11-.25-.12-.3-.23-.6-.33-.91a17.88,17.88,0,0,1-.62-2.6c.08.48,0,0,0-.06l-.06-.78c0-.47,0-1,0-1.43s.05-.87.09-1.3c0-.13.1-.69,0-.17,0-.21.07-.43.11-.64a22.22,22.22,0,0,1,.68-2.67c.13-.42.28-.84.44-1.25,0,0,.33-.84.12-.33.07-.16.14-.33.22-.49.4-.9.86-1.77,1.35-2.63s.93-1.54,1.44-2.29a22.9,22.9,0,0,1,1.58-2.1,32.86,32.86,0,0,1,4.18-4.16,46.58,46.58,0,0,1,9.93-6c1-.46,1.45-.65,2.31-1s2-.78,3-1.14c2-.72,4.09-1.36,6.17-1.95a73.72,73.72,0,0,1,27.19-2.89,57.38,57.38,0,0,1,11.6,2.43q1.23.39,2.46.84l1.22.46.48.19.49.2.15.06.39.17.6.27,1.18.55c.82.4,1.63.82,2.42,1.26a47.61,47.61,0,0,1,4.52,2.91c.66.48-.23-.19.15.11l.49.39,1,.81c.68.61,1.34,1.24,2,1.9s1.1,1.21,1.62,1.85c.06.07.31.42,0,0l.43.6q.39.54.75,1.11c.43.69.83,1.41,1.19,2.14.09.18.17.36.26.55l.15.35c-.15-.37.15.38.14.36.09.23.17.46.25.7a39,39,0,0,1,1.24,4.63c.15.73.28,1.45.39,2.19,0,.18.05.36.08.54.08.45-.07-.68,0,0,0,.44.1.87.14,1.31a43,43,0,0,1-.11,8.86c0,.13-.11.85,0,.12l-.06.42c-.05.36-.11.71-.17,1.06-.13.78-.29,1.55-.47,2.32a43.54,43.54,0,0,1-1.23,4.33c-.24.68-.49,1.36-.75,2l-.16.4c-.26.66.16-.36,0,0s-.32.73-.48,1.09a44.8,44.8,0,0,1-2.13,4.06c-.78,1.33-1.63,2.63-2.54,3.88l-.67.89c.33-.44.09-.12,0,0l-.42.53c-.52.64-1.06,1.27-1.61,1.89q-1.53,1.71-3.21,3.27c-.56.53-1.14,1.05-1.73,1.55l-.9.75-.55.45-.19.15a57.25,57.25,0,0,1-8.52,5.4c-.75.39-1.5.76-2.26,1.12l-1.17.53-.58.25a1.8,1.8,0,0,1-.29.12c-1.71.69-3.43,1.33-5.19,1.88A55.85,55.85,0,0,1,135,251.74l-1.17-.12c-.53-.07-.05,0,0,0l-.66-.09c-.78-.13-1.55-.27-2.32-.45a34.66,34.66,0,0,1-3.71-1c-.54-.19-1.07-.4-1.61-.61s.59.27,0,0l-.29-.13-.84-.39a25.87,25.87,0,0,1-2.53-1.4c-.33-.21-.66-.43-1-.66s-1.17-1-.36-.24c-.41-.37-.85-.69-1.25-1.06a10.26,10.26,0,0,1-1-1,2.77,2.77,0,0,0-3.89,0,2.82,2.82,0,0,0,0,3.9,19.25,19.25,0,0,0,5.16,4.12A36.79,36.79,0,0,0,136,257.33a62.83,62.83,0,0,0,24.15-3.48,63.54,63.54,0,0,0,19.54-10.61,49.61,49.61,0,0,0,18.62-33.64,42.63,42.63,0,0,0-.13-9.31,40.14,40.14,0,0,0-2.34-10c-2.89-7.18-8.75-12.53-15.46-16.17a60.94,60.94,0,0,0-23.65-7c-9.84-.88-19.85.64-29.29,3.4-8.4,2.46-16.76,5.89-23.43,11.69-6,5.26-11,13.16-11.28,21.33a19.79,19.79,0,0,0,9.08,17.17,33.12,33.12,0,0,0,12.41,4.1c12,1.83,24.58.43,36.33-2.57C164,218.83,177,213,187.75,204.14a79.13,79.13,0,0,0,16-18,70.07,70.07,0,0,0,9.56-21.75,52.82,52.82,0,0,0,.81-21.82,42.6,42.6,0,0,0-9.4-19.65c-8.73-10.46-21.75-15.69-34.9-17.83A111.84,111.84,0,0,0,121,108.29a89.72,89.72,0,0,0-19.43,8c-4.78,2.73-9.4,6.1-12.64,10.62-2.46,3.41-3.81,8-2.27,12a13.74,13.74,0,0,0,7.71,7.81,38.58,38.58,0,0,0,12.91,2.7,86.8,86.8,0,0,0,15.54-.56A134.37,134.37,0,0,0,158,140a93.75,93.75,0,0,0,15.58-7.89A48.39,48.39,0,0,0,185,122.29c5.16-6.33,8.47-14.6,8.29-22.83a27.59,27.59,0,0,0-9.85-20.39,39.4,39.4,0,0,0-20.08-8.76c-8.7-1.2-17.48.43-25.67,3.42-8.55,3.13-16.51,7.57-24.39,12a2.75,2.75,0,1,0,2.78,4.75"/><path class="cls-5" d="M285.72,231l-5.32,18.51,4.65,1.33,12.13-42.16.05-.18-4.66-1.33-5.3,18.43-48.59-14-.17,0L237,217Zm-88.38,38.34-4.86,2.81,27.74,48,.09.15,4.86-2.81-13.4-23.16L239.84,278l13.31,23,.09.16,4.87-2.81-27.75-47.95-.09-.16-4.86,2.81,12,20.76-28.08,16.24-11.91-20.6Zm-70.26,8.36h-.18l.06,4.85,19.18-.24.63,50.55V333l5.62-.07-.64-50.73L171,282l-.06-4.84ZM47.84,304.76l-.08.16,34.5,17.91,2.23-4.3L55,303.21l9.89-19,27.32,14.18,2.23-4.3L67.09,279.87l9-17.39,29.17,15.14,2.23-4.3L73.36,255.59ZM8.63,217.83a19.34,19.34,0,0,0-1.27,7.22,28.28,28.28,0,0,0,1.2,7.85,23.65,23.65,0,0,0,4.35,8.7,17.12,17.12,0,0,0,5.62,4.48,13.39,13.39,0,0,0,5.67,1.34h.13a17.47,17.47,0,0,0,4.79-.62,13.25,13.25,0,0,0,5-2.6A12,12,0,0,0,37,240.43a13.56,13.56,0,0,0,1.25-4.59,37.12,37.12,0,0,0,.15-5l-.63-12.65a37.49,37.49,0,0,1,0-4.1,15.91,15.91,0,0,1,.76-4,9.36,9.36,0,0,1,1.93-3.35A7.39,7.39,0,0,1,44,204.68a8.69,8.69,0,0,1,5.24-.07,12.1,12.1,0,0,1,4.33,2.49,16.4,16.4,0,0,1,3.21,4,20.07,20.07,0,0,1,1.93,4.31,33.1,33.1,0,0,1,1.32,7,15.87,15.87,0,0,1-.68,6.14,11.55,11.55,0,0,1-3.23,4.9,15.42,15.42,0,0,1-6.37,3.26l-.17,0,1.6,5.38.17,0a19.92,19.92,0,0,0,8.06-3.83,15.44,15.44,0,0,0,4.46-6.11,19.68,19.68,0,0,0,1.28-7.87,35.49,35.49,0,0,0-1.52-9,34.78,34.78,0,0,0-3.26-7.79,21.66,21.66,0,0,0-3.93-5,13.21,13.21,0,0,0-4.19-2.68,16.52,16.52,0,0,0-4-1,12.78,12.78,0,0,0-3.46,0,19.64,19.64,0,0,0-2.45.53,13.78,13.78,0,0,0-5.3,2.77A12.06,12.06,0,0,0,34,206.27a18.9,18.9,0,0,0-1.37,5.22,40.28,40.28,0,0,0-.24,5.87L33,231.21a19.51,19.51,0,0,1,0,3.34,9.65,9.65,0,0,1-.78,3,6.87,6.87,0,0,1-1.77,2.38,7.81,7.81,0,0,1-3,1.55,10.36,10.36,0,0,1-5.21.37,9.47,9.47,0,0,1-4-1.93,12.91,12.91,0,0,1-3-3.64,23.1,23.1,0,0,1-2-4.8,18.81,18.81,0,0,1-.81-5.56,14.52,14.52,0,0,1,.93-5.14,12.21,12.21,0,0,1,2.79-4.25,12.67,12.67,0,0,1,4.82-2.91l.16-.06-1.6-5.37-.17,0A16.31,16.31,0,0,0,12.55,212a16.51,16.51,0,0,0-3.92,5.86m18.88-79.19a13.54,13.54,0,0,1,1.83,9L27.5,165.48,5.39,163.2l1.84-17.82a13.47,13.47,0,0,1,3.63-8.45c2-2,4.94-2.85,8.66-2.47s6.41,1.79,8,4.18m-.85-7.91a18.08,18.08,0,0,0-6.56-1.85,18.17,18.17,0,0,0-6.8.47,14.05,14.05,0,0,0-5.38,2.84,14.41,14.41,0,0,0-3.65,4.9,20.63,20.63,0,0,0-1.74,6.64L0,168.12l0,.18L55.11,174h.18l.57-5.58L32.32,166l2-19a20.57,20.57,0,0,0-.35-6.86,14.42,14.42,0,0,0-2.58-5.54,14,14,0,0,0-4.68-3.87M58.91,82.39l-10.1,18.66L29.65,78.41ZM85.25,80,26.12,72.7l-.12,0-2.92,5.38L61.17,124l.16.2,2.84-5.24-11.94-14L64.08,83l18.18,2.24h.12Zm52.5-31.29L141.52,47,129.9,21l-21.72,9.73,2,4.42,17.16-7.69a24.06,24.06,0,0,1,2.17,7.67,17.58,17.58,0,0,1-.76,7.3A16.78,16.78,0,0,1,125,48.72a20.85,20.85,0,0,1-6.77,4.68,20,20,0,0,1-9.38,1.93A18.54,18.54,0,0,1,100.73,53a23.43,23.43,0,0,1-6.53-5.57,33.18,33.18,0,0,1-4.69-7.55A32.61,32.61,0,0,1,87,31.27a23.77,23.77,0,0,1,.2-8.55,18.79,18.79,0,0,1,3.6-7.61A19.9,19.9,0,0,1,98.47,9.4a18.89,18.89,0,0,1,7-1.73,18.66,18.66,0,0,1,6.26.76A16.71,16.71,0,0,1,116.76,11a12.26,12.26,0,0,1,3.38,3.71l.08.14,5.14-2.31-.12-.17a22.35,22.35,0,0,0-5.92-6.15A20.86,20.86,0,0,0,104.5,2.67a28.79,28.79,0,0,0-8,2.31A26.3,26.3,0,0,0,87,11.84,23.94,23.94,0,0,0,82.09,21a27.45,27.45,0,0,0-.7,10.42,37.56,37.56,0,0,0,9,20,27.09,27.09,0,0,0,8.23,6.38,23.85,23.85,0,0,0,10.1,2.43h.56a26.73,26.73,0,0,0,10.89-2.53,27.68,27.68,0,0,0,5.11-3,20.05,20.05,0,0,0,4.07-4A18.81,18.81,0,0,0,133.11,40ZM231,20.89l.09-.16-4.95-2.66-11.38,21.1-28.55-15.4,11.3-20.95.09-.15L192.62,0l-26.3,48.75-.09.16,5,2.67L183.88,28l28.55,15.4L199.81,66.82l-.09.16,4.95,2.67ZM282.58,99.8l4.31-2.21L269.3,63.35,219.86,88.76l17.77,34.57,4.31-2.21-15.2-29.58,19.08-9.81,14.07,27.38,4.31-2.21L250.13,79.52l17.43-9Zm17.74,76.67-3.64-43.72v-.18l-4.83.4,1.59,19.11-50.38,4.19-.18,0,.47,5.6,50.56-4.21,1.59,19.19Z"/><g class="cls-6"><g class="cls-7"><polygon class="cls-3" points="131.35 117.74 168.97 117.74 150.16 85.17 131.35 117.74"/><polygon class="cls-3" points="104.83 163.68 118.42 187.19 181.87 187.19 195.49 163.68 104.83 163.68"/></g></g></g></g></svg>