<svg width="282" height="407" viewBox="0 0 282 407" fill="none" xmlns="http://www.w3.org/2000/svg">
<path d="M49.0802 260C48.1802 267.1 48.0802 274.5 44.6802 280.9C44.3802 281.5 45.1802 281.7 45.3802 281.1C48.8802 274.5 49.0802 267 49.9802 259.7C50.0802 259.2 49.1802 259.6 49.0802 260Z" fill="black"/>
<path d="M45.7802 257.7C44.9802 264.7 45.3802 272.2 41.9802 278.6C41.6802 279.2 42.4803 279.4 42.6803 278.8C46.0803 272.2 45.7802 264.6 46.5802 257.4C46.7802 256.8 45.8802 257.2 45.7802 257.7Z" fill="black"/>
<path d="M42.0802 282.2C41.1802 285 39.7802 287.3 38.3802 289.8C37.6802 291 39.2802 291.3 39.8802 290.3C41.3802 287.6 42.8802 285.2 43.7802 282.2C44.0802 280.8 42.3802 281.2 42.0802 282.2Z" fill="black"/>
<path d="M43.5802 253C42.6802 260 42.1802 267.1 40.0802 273.9C39.8802 274.6 40.7802 274.4 40.8802 273.9C43.0802 267 43.5802 259.9 44.4802 252.8C44.4802 252.1 43.5802 252.5 43.5802 253Z" fill="black"/>
<path d="M52.6802 262.1C52.5802 268.6 51.5802 275.3 48.2802 281C47.8802 280.7 46.9802 281.1 46.6802 281.8C45.0802 285.8 42.7802 289.2 40.6802 292.9C39.9802 294.1 41.5802 294.4 42.1802 293.4C44.3802 289.7 46.6802 286.2 48.2802 282.2C48.4802 282.2 48.5802 282.1 48.6802 281.9C52.3802 276 53.5802 268.8 53.6802 261.9C53.5802 261.2 52.6802 261.6 52.6802 262.1Z" fill="black"/>
<path d="M67.2802 270.7C67.5802 276 61.6802 281.9 58.9802 286.1C57.4802 288.6 55.2802 292.3 57.4802 295C57.7802 295.4 58.4802 294.6 58.1802 294.2C55.0802 290.5 61.8802 283.1 63.8802 280.2C65.7802 277.4 68.3802 273.9 68.1802 270.3C68.1802 269.7 67.2802 270.3 67.2802 270.7Z" fill="black"/>
<path d="M47.9802 298.9C49.3802 294.4 50.8802 289.9 52.5802 285.5C53.0802 284.2 51.2802 284.5 50.8802 285.5C49.1802 289.9 47.6802 294.4 46.2802 298.9C45.8802 300.3 47.6802 299.9 47.9802 298.9Z" fill="black"/>
<path d="M49.3802 281.7C47.4802 286.4 44.9802 290.9 43.3802 295.7C42.9802 297 44.7802 296.7 45.0802 295.7C46.6802 290.8 49.1802 286.4 51.0802 281.7C51.5802 280.4 49.7802 280.8 49.3802 281.7Z" fill="black"/>
<path d="M45.2802 301C46.1802 300.2 45.5802 298.7 44.5802 299.6C41.4802 302.4 38.2802 305.5 37.2802 309.8C36.9802 311.2 38.6802 310.8 38.9802 309.8C39.7802 306.1 42.5802 303.5 45.2802 301Z" fill="black"/>
<path d="M47.5802 304.6C47.6802 304.5 47.7802 304.4 47.8802 304.3C48.3802 304.5 49.2802 303.9 49.4802 303.2C50.1802 299.4 52.6802 296.5 53.6802 292.8C54.0802 291.5 52.2802 291.8 51.9802 292.8C50.9802 296.4 48.6802 299.4 47.8802 303.1C47.6802 302.9 47.3802 302.9 46.9802 303.3C43.8802 306.1 40.6802 309.2 39.6802 313.5C39.3802 314.9 41.0802 314.5 41.3802 313.5C42.1802 309.7 44.8802 307 47.5802 304.6Z" fill="black"/>
<path d="M37.4802 305.1C38.8802 301.4 42.2802 299.4 42.8802 295.3C43.0802 294 41.2802 294.8 41.0802 295.8C40.5802 299.5 37.0802 301.7 35.7802 305.1C35.3802 306.4 37.1802 306 37.4802 305.1Z" fill="black"/>
<path d="M37.1803 293.1C36.3803 295.5 34.8803 297.5 33.7803 299.8C33.1803 301 34.6803 301.3 35.2803 300.3C36.4803 297.9 37.9803 295.7 38.8803 293.2C39.3803 291.8 37.5803 292.1 37.1803 293.1Z" fill="black"/>
<path d="M71.0803 271.2C69.4803 280.6 61.0803 286.8 58.6803 295.9C58.4803 296.6 59.3803 296.4 59.4803 295.9C61.8803 286.7 70.2802 280.5 71.8802 270.9C71.9802 270.4 71.0803 270.8 71.0803 271.2Z" fill="black"/>
<path d="M40.9802 275.5C40.6802 274.3 38.9802 275.5 39.1802 276.4C40.6802 282.3 35.1802 289.3 32.0802 293.9C31.2802 295.1 32.8802 295.3 33.5802 294.4C36.9802 289.4 42.6802 282 40.9802 275.5Z" fill="black"/>
<path d="M47.6802 309.8C47.6802 310.9 49.1802 310.5 49.3802 309.6C49.4802 309.2 49.5802 308.8 49.6802 308.4C49.7802 308.3 49.9802 308.2 50.0802 308.1C50.6802 307.7 50.8802 306.5 50.3802 306.3C51.9802 302.7 54.5802 299.4 55.6802 295.6C56.0802 294.3 54.2802 294.6 53.9802 295.6C52.7802 299.9 49.6802 303.4 48.1802 307.5C45.0802 309.8 42.4802 312.5 40.9802 316.1C40.4802 317.4 42.2802 317 42.6802 316.1C43.8802 313.5 45.5802 311.5 47.6802 309.8Z" fill="black"/>
<path d="M37.9802 273.7C36.3802 275.2 35.9802 277.4 35.4802 279.5C34.5802 282.9 33.9802 286.5 32.1802 289.6C31.4802 290.8 33.0802 291.1 33.6802 290.1C35.0802 287.8 35.7802 285.2 36.4802 282.6C36.9802 280.6 37.1802 276.7 38.7802 275.1C39.5802 274.3 38.9802 272.8 37.9802 273.7Z" fill="black"/>
<path d="M50.1803 313.2C50.2803 313.9 51.5803 313.6 51.8803 312.7C53.5803 307.8 55.5803 303.1 57.3803 298.3C57.8803 297 56.0803 297.3 55.6803 298.3C54.0803 302.5 52.2803 306.7 50.7803 310.9C50.5803 310.9 50.3803 311 50.1803 311.2C47.1803 313.6 43.0803 316.6 42.7803 320.7C42.6803 322 44.4803 321.2 44.5803 320.2C44.8803 317.3 47.8803 315 50.1803 313.2Z" fill="black"/>
<path d="M75.6802 286.4C73.6802 293.4 68.6802 299 66.3802 305.9C66.1802 306.6 67.0802 306.4 67.1802 305.9C69.5802 299 74.4802 293.4 76.4802 286.4C76.7802 285.7 75.8802 285.9 75.6802 286.4Z" fill="black"/>
<path d="M75.1802 342.9C76.2802 339.4 78.6802 336.3 80.3802 333C81.0802 331.6 83.2802 328 81.5802 326.6C80.7802 326 79.4802 327.6 80.1802 328.2C81.8802 329.6 74.1802 340.7 73.4802 342.9C73.0802 344.2 74.7802 343.8 75.1802 342.9Z" fill="black"/>
<path d="M112.88 297.5C113.78 296.8 113.18 295.2 112.18 296.1C107.78 299.8 104.08 304.3 100.28 308.7C96.3802 313.2 92.4802 317.3 90.1802 322.9C90.1802 323 90.0802 323.1 90.0802 323.1C89.6802 323.4 89.4802 323.8 89.4802 324.2C89.6802 328.4 86.7802 331.9 84.9802 335.4C84.3802 336.6 85.8802 336.9 86.4802 335.9C88.5802 331.9 91.3802 328.2 91.2802 323.6C91.5802 323.5 91.7802 323.2 91.8802 323C93.9802 317.7 97.6802 313.9 101.38 309.7C105.08 305.5 108.58 301.1 112.88 297.5Z" fill="black"/>
<path d="M72.0802 277.2C71.0802 282.2 67.5802 287.1 64.8802 291.3C63.4802 293.4 60.9802 296.8 61.8802 299.5C62.0802 300 62.8802 299.3 62.6802 298.8C61.5802 295.7 66.1802 290.7 67.7802 288.2C69.8802 284.9 72.1802 280.8 72.9802 276.9C73.0802 276.3 72.1802 276.7 72.0802 277.2Z" fill="black"/>
<path d="M78.6802 342.9C80.1802 338.4 83.3802 334.2 85.5802 330.1C86.3802 328.5 89.7802 323.5 87.8802 321.7C87.1802 321 85.7802 322.6 86.4802 323.3C87.6802 324.5 82.2802 332.9 81.5802 334.1C79.9802 336.9 77.9802 339.8 76.9802 342.9C76.5802 344.2 78.3802 343.8 78.6802 342.9Z" fill="black"/>
<path d="M32.8802 285.8C32.9802 283.6 33.5802 281.3 34.1802 279.1C34.7802 277 35.3802 273.7 37.0802 272.2C37.5802 271.7 37.5802 271.1 37.2802 270.7C37.7802 270.8 38.5802 270.2 38.6802 269.6C39.6802 262.7 41.2802 255.6 40.7802 248.6C40.6802 247.4 38.9802 248.6 38.9802 249.5C39.3802 256.3 37.7802 263.3 36.7802 270.1C36.7802 270.3 36.7802 270.5 36.8802 270.6C36.6802 270.6 36.4802 270.6 36.1802 270.9C34.2802 272.7 33.4802 275.5 32.7802 277.8C31.9802 280.5 31.0802 283.4 30.9802 286.3C31.0802 287.6 32.8802 286.8 32.8802 285.8Z" fill="black"/>
<path d="M108.18 294C105.48 297.6 102.38 300.7 99.2802 303.9C96.1802 307 93.3802 310.4 90.0802 313.3C86.0802 316.8 82.5802 320.3 82.9802 326C83.0802 327.2 84.7802 326 84.7802 325.1C84.3802 318.5 91.2802 314.8 95.1802 310.4C99.7802 305.1 105.18 300.7 109.38 295C110.18 293.9 108.98 292.9 108.18 294Z" fill="black"/>
<path d="M53.9802 289.3C54.2802 289.7 54.9802 288.9 54.6802 288.5C51.4802 284.7 56.9802 276.6 58.7802 273.1C60.3802 269.9 62.5802 266.2 62.2802 262.4C62.2802 261.8 61.3802 262.4 61.3802 262.9C61.7802 268.5 56.8802 274.8 54.6802 279.7C53.3802 282.5 51.6802 286.6 53.9802 289.3Z" fill="black"/>
<path d="M51.4802 284.5C51.5802 285.1 52.3802 284.5 52.3802 284C51.5802 279 55.4802 274.9 56.9802 270.4C58.1802 266.6 59.0802 262.6 58.7802 258.6C58.7802 258 57.8802 258.6 57.8802 259.1C58.2802 264.5 56.5802 270.1 54.0802 274.9C52.4802 277.8 50.9802 281.1 51.4802 284.5Z" fill="black"/>
<path d="M55.8803 291.5C56.1803 291.9 56.8802 291.1 56.5802 290.7C53.4802 287 59.3802 279.5 61.2802 276.3C63.1802 273.1 65.7802 269.3 65.5802 265.4C65.5802 264.8 64.6803 265.4 64.6803 265.9C65.0803 271.2 59.6802 277.3 57.2802 281.7C55.7802 284.4 53.4803 288.6 55.8803 291.5Z" fill="black"/>
<path d="M52.8803 316.1C53.3803 316.2 54.0803 315.8 54.2803 315.3C56.1803 309.8 58.5803 304.6 60.6803 299.2C61.1803 297.9 59.3803 298.2 58.9803 299.2C57.0803 304.1 54.8803 309 53.0803 314C49.4803 317.2 46.3803 320.7 45.0803 325.5C44.7803 326.8 46.4803 326.5 46.7803 325.5C47.7803 321.6 50.0803 318.7 52.8803 316.1Z" fill="black"/>
<path d="M78.2802 294C74.5802 298.8 71.6802 304.2 69.6802 309.9C69.2802 309.7 68.6802 309.9 68.2802 310.4C65.1802 315.1 63.1802 320.2 60.0802 324.9C59.2802 326.1 60.8802 326.4 61.5802 325.4C64.6802 320.7 66.6802 315.6 69.7802 310.9C69.9802 310.7 69.9802 310.5 69.9802 310.3C70.1802 310.3 70.4802 310.1 70.4802 309.9C72.3802 304.4 75.2802 299.1 78.8802 294.4C79.2802 294 78.6802 293.5 78.2802 294Z" fill="black"/>
<path d="M72.3803 311.9C69.7803 318 65.2803 323 62.5803 329.1C61.9803 330.4 63.8803 330 64.2803 329.1C66.8803 323 71.3803 318 74.0803 311.9C74.5803 310.6 72.7803 310.9 72.3803 311.9Z" fill="black"/>
<path d="M74.1802 280.2C73.1802 285.2 69.6802 290.1 66.9802 294.3C65.5802 296.4 63.0802 299.8 63.9802 302.5C64.1802 303 64.9802 302.3 64.7802 301.8C63.6802 298.7 68.2802 293.7 69.8802 291.2C71.9802 287.9 74.2802 283.8 75.0802 279.9C75.1802 279.3 74.2802 279.7 74.1802 280.2Z" fill="black"/>
<path d="M91.8802 301C86.5802 305.7 80.9802 311.2 78.4802 318C77.9802 319.3 79.7802 319 80.1802 318C82.4802 311.8 87.7802 306.7 92.5802 302.4C93.4802 301.6 92.9802 300.1 91.8802 301Z" fill="black"/>
<path d="M78.0802 321.5C78.9802 320.8 78.3802 319.2 77.3802 320.1C72.3802 324.3 70.5802 330.4 67.1802 335.8C66.4802 337 67.9802 337.3 68.6802 336.3C71.7802 331.3 73.3802 325.4 78.0802 321.5Z" fill="black"/>
<path d="M78.1802 300.6C77.2802 303.8 75.1802 306.4 73.9802 309.5C73.6802 310.1 74.5802 310 74.7802 309.5C75.9802 306.4 78.1802 303.8 78.9802 300.6C79.1802 300 78.2802 300.1 78.1802 300.6Z" fill="black"/>
<path d="M99.9802 298.5C95.3802 301.7 92.8802 306.8 88.5802 310.3C85.8802 312.5 81.9802 315.5 81.9802 319.4C81.8802 319.5 81.7802 319.6 81.6802 319.7C77.7802 326.5 73.0802 332.6 70.0802 339.9C69.5802 341.2 71.3802 340.8 71.7802 339.9C74.6802 332.8 79.3802 326.8 83.1802 320.2C83.2802 320 83.3802 319.8 83.3802 319.7C83.5802 319.5 83.7802 319.2 83.7802 318.9C83.7802 314.9 89.0802 312 91.7802 309.6C95.1802 306.7 96.8802 302.5 100.68 299.9C101.68 299.1 101.08 297.7 99.9802 298.5Z" fill="black"/>
<path d="M94.3802 320.2C92.4802 326 90.5802 332 87.9802 337.5C87.3802 338.8 88.8802 339.1 89.4802 338C92.1802 332.3 94.1802 326.2 96.0802 320.2C96.4802 318.9 94.6802 319.2 94.3802 320.2Z" fill="black"/>
<path d="M54.6802 322.4C55.2802 322.1 55.4802 321.2 55.1802 320.8C55.1802 320.8 55.1802 320.8 55.1802 320.7C58.1802 315.8 60.0802 310.3 62.7802 305.3C63.4802 304.1 61.8802 303.8 61.2802 304.8C58.4802 309.8 56.6802 315.3 53.6802 320.2C53.4802 320.6 53.4802 320.9 53.5802 321.1C50.1802 322.9 47.9802 326 46.7802 329.7C46.3802 331 48.0802 330.7 48.4802 329.7C49.6802 326.4 51.4802 323.9 54.6802 322.4Z" fill="black"/>
<path d="M94.3802 364.3C96.3802 362.6 98.1802 360.7 100.08 358.8C101.88 356.9 102.88 353.5 105.48 352.7C106.38 352.4 106.88 350.5 105.68 350.9C103.88 351.5 102.98 352.4 101.88 353.9C99.4802 357.3 96.7802 360.1 93.7802 363C89.6802 367 84.1802 368.6 81.5802 374C80.9802 375.3 82.4802 375.5 83.0802 374.5C85.1802 369.7 90.3802 367.6 94.3802 364.3Z" fill="black"/>
<path d="M101.48 370.2C105.18 366.6 108.38 362.6 111.48 358.5C112.28 357.5 111.18 356.5 110.38 357.5C105.98 363.1 101.48 368.7 95.7803 373.1C91.9803 376 87.3802 377.8 86.3802 382.9C86.1802 384.2 87.9802 383.3 88.1802 382.4C88.8802 378.8 92.8802 376.9 95.6802 375C97.6802 373.7 99.5802 372 101.48 370.2Z" fill="black"/>
<path d="M92.1803 371.8C94.5803 369.8 96.8803 367.6 99.3803 365.8C103.48 362.8 105.18 359.2 107.78 355C108.48 353.8 106.88 353.5 106.28 354.5C104.28 357.8 102.88 361.1 99.7803 363.6C97.3803 365.5 94.9803 367.4 92.6803 369.4C89.3803 372.2 84.4803 375 83.6803 379.6C83.4803 380.9 85.2803 380 85.4803 379.1C86.0803 376.1 89.9803 373.7 92.1803 371.8Z" fill="black"/>
<path d="M102.88 351.7C103.68 350.7 102.58 349.7 101.78 350.7C95.2803 359.3 82.8802 362.3 77.8802 372.3C77.2802 373.5 78.7802 373.8 79.3802 372.8C84.0802 363.1 96.4802 360.2 102.88 351.7Z" fill="black"/>
<path d="M121.38 335.2C118.68 338.4 116.28 341.8 114.08 345.3C112.38 348 109.38 352.3 110.18 355.7C110.48 356.9 112.18 355.7 111.98 354.8C111.28 351.7 114.48 347.5 116.08 345C117.98 341.9 120.18 338.9 122.58 336.2C123.38 335.1 122.18 334.2 121.38 335.2Z" fill="black"/>
<path d="M116.68 335.5C114.28 338.3 112.28 341.5 110.58 344.7C109.18 347.2 107.38 350.6 108.08 353.5C108.38 354.7 110.08 353.5 109.88 352.6C109.18 349.7 111.48 346.2 112.88 343.7C114.28 341.2 115.98 338.7 117.88 336.5C118.68 335.5 117.48 334.5 116.68 335.5Z" fill="black"/>
<path d="M112.38 334.5C110.08 339.4 105.98 344.2 105.68 349.8C105.58 351.1 107.38 350.3 107.48 349.3C107.78 344.1 111.78 339.5 113.88 334.9C114.38 333.8 112.88 333.5 112.38 334.5Z" fill="black"/>
<path d="M108.78 334.1C106.68 338.5 102.98 342.6 102.68 347.7C102.58 349 104.38 348.2 104.48 347.2C104.68 342.5 108.38 338.6 110.28 334.5C110.78 333.4 109.28 333.1 108.78 334.1Z" fill="black"/>
<path d="M182.88 330.9C183.18 331.1 183.38 331.4 183.68 331.8C183.88 332 184.08 332 184.28 332C185.58 333.2 186.78 334.8 187.78 335.9C188.88 337.1 190.48 339.2 192.38 338.7C193.28 338.4 193.78 336.5 192.58 336.9C191.18 337.3 188.78 333.8 187.98 332.9C186.88 331.7 185.68 330.2 184.28 329.3C183.98 329.1 183.68 328.9 183.18 328.8C182.28 328.6 181.08 330.3 182.18 330.6C182.38 330.7 182.68 330.8 182.88 330.9Z" fill="black"/>
<path d="M124.18 336.4C121.48 339.6 119.08 343 116.88 346.5C115.18 349.2 112.18 353.5 112.98 356.9C113.28 358.1 114.98 356.9 114.78 356C114.08 352.9 117.28 348.7 118.88 346.2C120.78 343.1 122.98 340.1 125.38 337.4C126.18 336.4 125.08 335.4 124.18 336.4Z" fill="black"/>
<path d="M32.2802 237.7C31.5802 240.2 30.6802 242.5 29.9802 244.9C29.8802 240.7 31.6802 236.9 32.8802 232.9C33.2802 231.6 31.4802 231.9 31.1802 232.9C29.7802 237.7 27.5802 242.1 28.2802 247.3C28.3802 247.9 28.8802 247.9 29.3802 247.6C29.1802 249 29.0802 250.5 29.3802 252.1C29.5802 253.3 31.2802 252.1 31.1802 251.2C30.4802 246.4 32.6802 242.2 33.9802 237.7C34.3802 236.3 32.5802 236.7 32.2802 237.7Z" fill="black"/>
<path d="M34.9802 239.9C32.1802 245.2 30.6802 252.7 32.3802 258.6C32.7802 259.7 34.3802 258.6 34.1802 257.7C32.5802 252.3 33.7802 245.4 36.4802 240.4C37.1802 239.1 35.5802 238.9 34.9802 239.9Z" fill="black"/>
<path d="M9.88027 180.3C12.3803 178.2 15.3803 185.4 16.6803 187.1C18.7803 190.1 20.8803 192.2 24.7803 193.5L24.3803 192.7C21.3803 190.2 19.6803 185.1 17.5803 181.7C15.4803 177.5 10.3803 174.1 6.58027 170.2C2.78027 172.3 4.48027 182.1 4.88027 186.3C5.28027 188.4 5.28027 190.5 5.28027 193.1C5.68027 196.1 6.58027 197.8 7.38028 200.7H8.68028C8.28028 196.9 6.98028 193.9 7.38028 190.1C7.78028 188.3 8.28027 181.6 9.88027 180.3Z" fill="black"/>
<path d="M79.9802 216.6C84.1802 218.3 89.7802 219.6 94.3802 219.6C99.4802 219.6 103.28 217.5 107.98 217.5C107.98 217.5 109.18 215.5 107.98 215.6C103.28 215.8 99.4802 217.7 94.3802 217.7C89.6802 217.7 84.1802 216.4 79.9802 214.7C79.9802 214.3 79.4802 214.1 79.1802 213.9C76.7802 212.5 78.1802 215.2 78.1802 215.2C78.0802 215.5 79.9802 216.2 79.9802 216.6Z" fill="black"/>
<path d="M265.78 161.6C265.38 160.5 265.08 159.7 265.08 158.6C265.88 158.2 266.38 157.9 267.68 157.9C267.68 157.1 268.48 156.1 268.08 155.2C265.08 150.5 259.28 132.6 265.68 128.8C264.88 127.1 262.98 126.4 262.98 124.2C262.58 122.1 263.78 120.8 263.78 118.7C263.78 116.6 260.88 114.3 261.38 111.8C261.78 110.1 262.48 109.6 262.48 107.4C262.48 102.7 260.48 99.1 258.38 95.3C255.88 91.1 253.68 86.8 250.78 82.6C249.48 80.5 247.78 77.9 246.58 75.8C244.88 73.3 245.78 71.6 244.88 69.4C244.08 67.3 241.48 66 240.68 63.9C239.38 61.8 237.68 60.1 236.48 58C233.08 52.9 231.38 48.2 226.68 44L215.18 33.8C210.08 29.6 206.28 27.4 200.28 24.9C197.88 23.7 192.48 17.6 189.38 18.7C187.18 17.3 184.88 16.2 182.88 15.2C167.98 7.6 152.78 1.2 136.18 0.799999C136.58 1.6 135.78 2.9 136.18 3.8C134.88 3.8 133.18 4.2 132.38 3.8C129.88 3 131.08 1.7 128.98 0C125.18 1.7 120.88 5.1 116.68 6.4L115.38 3.4C113.28 4.2 110.68 6.4 108.58 7.6C105.58 9.3 102.18 9.3 99.2802 10.1H88.3802L92.0802 12.6C78.8802 18.1 68.2802 27.9 56.8802 36.4C53.8802 38.5 50.4802 40.2 47.9802 43.2C45.4802 46.6 44.5802 50 42.8802 53.8C39.0802 61 31.8802 65.3 27.5802 72.1C23.3802 78.9 19.0802 86.5 16.5802 94.2C20.3802 95.9 16.1802 100.6 14.8802 102.7C13.1802 105.2 11.4802 110.8 11.4802 114.2C13.9802 115 13.1802 124 13.1802 126.5C13.5802 126.1 13.9802 126.1 14.4802 126.1C15.7802 128.6 14.8802 132 14.4802 134.6C14.4802 138 15.7802 141 15.7802 143.9C15.7802 147.3 12.3802 149.8 11.9802 152.8C11.1802 154.9 11.1802 157 10.6802 159.2C11.2802 159.6 11.3802 160.1 11.3802 160.6C9.38023 160 7.38022 160.3 5.28022 161.9C1.48022 164.9 0.580231 169.6 0.180231 174.2C-0.419769 181.2 0.580231 188.3 1.68023 195.2C2.98023 203.8 3.88023 212.5 5.88023 221C6.68023 224.5 8.08023 227.7 9.38023 231.1C11.2802 235.7 12.1802 240.7 13.2802 245.6C14.2802 250.1 15.5802 254.2 17.6802 258.3C19.9802 262.8 26.3802 274.1 32.3802 268C32.3802 267.9 32.4802 267.9 32.4802 267.8C32.8802 267.6 33.1802 267.4 33.2802 267.5C34.1802 269.1 32.8802 271.1 32.3802 272.6C31.6802 274.6 31.3802 276.7 30.9802 278.7C30.7802 280 32.5802 279.1 32.7802 278.2C33.4802 274.7 35.0802 271.4 34.9802 267.7C34.9802 267.4 35.6802 266.6 36.1802 265.9C36.4802 265.7 36.5802 265.4 36.5802 265.1C36.6802 258.7 37.4802 252.2 38.6802 245.9C38.8802 244.6 37.0802 245.5 36.8802 246.4C36.1802 250 35.7802 253.6 35.2802 257.2C35.0802 259.1 34.8802 260.8 34.8802 262.7C34.8802 263.9 31.9802 266.5 31.0802 267.2C29.7802 268.1 28.4802 268.2 27.0802 267.5C23.8802 265.8 21.8802 261.4 20.1802 258.4C19.3802 257 18.5802 255.5 17.8802 254C16.2802 250.5 15.4802 246.9 14.6802 243.2C13.4802 238 11.9802 233 10.0802 228.1C10.6802 228.8 11.2802 229.5 11.7802 229.9C12.6802 230.7 13.9802 233.2 15.6802 233.2C16.4802 232.4 16.9802 229.8 16.1802 228.5C12.8802 226.8 8.78023 223.6 7.38023 219.5C6.38023 215.4 5.88023 211.2 5.18023 207.1C4.08023 200.2 2.98023 193.2 2.18023 186.2C1.38023 179.3 0.780222 157.1 12.7802 163.6C13.1802 163.9 13.6802 164.1 14.0802 164.4C15.7802 165.7 17.8802 166.5 19.5802 168.2C21.6802 169.9 20.8802 170.7 22.0802 172.4C23.2802 174.4 24.4802 174.9 25.3802 176.8C25.5802 177.5 25.7802 178.2 26.1802 178.7C26.7802 180.3 27.3802 181.7 27.6802 183C28.0802 185.1 28.9802 186.8 28.0802 188.9C27.6802 190.6 25.5802 191.4 25.9802 194C26.4802 193.8 26.8802 193.7 27.2802 193.6L24.6802 200.3C19.3802 199.7 13.0802 194.2 10.3802 201.2C6.98023 208.4 13.3802 220.7 18.4802 225.4C22.2802 228.8 23.1802 232.6 24.8802 237.3C22.9802 239.9 26.4802 242.5 27.7802 240.5C27.7802 240.6 27.7802 240.6 27.7802 240.7C27.8802 241.8 29.5802 240.7 29.5802 239.8C29.3802 235.5 31.6802 231.5 32.9802 227.5C33.3802 226.2 31.5802 226.5 31.2802 227.5C30.2802 230.5 28.9802 233.3 28.2802 236.4C28.1802 235.6 28.0802 234.8 27.9802 233.9C28.3802 233.9 29.0802 233.6 29.1802 233C30.5802 228.4 32.0802 223.8 31.7802 219C31.6802 217.8 29.9802 219 29.9802 219.9C30.2802 224.2 28.8802 228.4 27.5802 232.6C26.8802 229.8 25.6802 227 24.8802 224.6C23.1802 220.8 20.6802 215.7 21.4802 211.4C21.8802 207.6 24.8802 209.7 26.1802 206.7C26.5802 205.9 25.7802 204.2 26.1802 203.3V201.7L29.5802 194C30.0802 194.4 30.3802 195.1 30.4802 196L26.2802 206.6L27.8802 207.3L30.5802 201.2C30.3802 204 29.9802 206.8 30.0802 208.6C29.4802 208.8 28.7802 209.6 29.1802 210.2C29.9802 211.5 28.9802 213.8 28.5802 215.1C28.1802 216.7 27.6802 218.4 27.8802 220.1C27.9802 221.3 29.6802 220.1 29.6802 219.2C29.4802 217.2 30.3802 215.1 30.8802 213.1C31.1802 211.9 31.5802 210.3 31.0802 209.1C31.9802 207.6 32.3802 205.8 33.0802 204.4C34.3802 202.3 36.0802 200.6 36.8802 198.5C36.9802 198.1 37.0802 197.7 37.1802 197.2C39.6802 201.8 47.1802 215.7 47.0802 217.6C46.8802 219.9 48.7802 224.8 50.8802 224.8C52.9802 224.8 56.3802 225.5 56.3802 225.5V232.9H57.9802C61.4802 248.4 76.2802 260.1 93.8802 260.1C114.08 260.1 130.58 244.8 130.58 225.9C130.58 224.1 130.38 222.3 130.18 220.6C131.68 219.6 133.58 218.4 135.28 217.7C135.88 216.6 134.18 214.8 134.18 214.8L129.58 217.8C129.28 216.7 128.98 215.6 128.58 214.6C128.38 209 127.18 203.1 131.58 199.1C132.38 197.4 134.08 195.3 134.98 193.2C136.28 190.7 136.28 187.7 136.28 184.7C136.28 184.7 136.28 184.3 135.88 184.3C133.78 186.4 136.68 189.4 133.38 191.5C132.98 191.1 131.28 194.4 131.28 194.4C129.58 195.7 127.88 199.1 125.78 198.7C123.38 198.2 121.08 196.6 118.78 195.9C115.38 194.9 112.48 193.3 109.28 191.9C103.78 189.4 97.2802 188.4 91.3802 186.7C88.3802 186.3 88.8802 189.8 84.3802 187.9C81.8802 186.8 80.4802 184.7 77.8802 183.9C72.7802 182.6 64.2802 181.8 59.1802 181.4C59.5802 181.8 59.5802 183.1 59.9802 183.5C57.8802 183.1 56.1802 183.1 54.0802 182.2C55.3802 183.9 57.4802 186 57.0802 188.1C55.7802 187.7 54.5802 186.8 53.2802 186C53.6802 187.3 54.0802 188.5 54.0802 189.8C52.7802 190.2 51.5802 189.8 50.6802 189C51.9802 190.3 54.4802 195.4 54.8802 196.6C56.1802 195.8 56.1802 194.9 55.2802 193.6C59.4802 193.2 59.9802 187.2 65.4802 188.5C69.6802 188.9 73.5802 191.9 77.3802 193.6C76.5802 195.3 72.6802 196.1 70.9802 197.4C68.4802 199.1 66.7802 200.4 65.0802 202.9C64.0802 204.2 60.9802 209.4 60.5802 212.2C59.4802 214.5 58.6802 216.9 58.0802 219.4H56.5802V223.1L53.5802 222.4C53.5802 222.4 41.3802 198.7 37.8802 191.7C37.8802 190.3 37.7802 189 37.3802 188C36.8802 186.7 36.0802 185.6 35.0802 184.6C35.4802 184.4 35.7802 184 35.7802 183.6C35.8802 178.3 37.6802 172.9 39.0802 167.8C40.5802 162.2 42.0802 156.4 44.4802 151.1C46.1802 153.1 40.7802 157.1 44.2802 158.7C42.5802 163.4 40.8802 167.6 39.5802 172.3C38.2802 177 38.2802 180.4 38.2802 185.5C38.6802 185.5 39.5802 185.9 39.9802 185.9C38.2802 179.5 42.0802 170.2 45.4802 164.7C46.2802 163 48.4802 161.3 49.2802 160C50.0802 157.9 48.8802 158.3 48.8802 156.2C48.8802 154.5 50.9802 153.7 50.9802 152.4C50.9802 151.6 50.5802 149 50.1802 148.2C49.3802 145.2 47.6802 143.1 47.6802 139.7C47.6802 136.7 47.6802 135 46.8802 131.6C44.7802 125.7 44.3802 118 45.1802 111.2C45.5802 107.8 46.8802 92.5 50.6802 92.9C50.2802 91.6 50.6802 91.2 49.8802 90.4C51.9802 87.9 52.3802 84.5 54.5802 81.5C57.0802 78.1 57.5802 76.8 58.3802 72.6C59.6802 67.1 65.1802 64.1 67.2802 58.6C68.0802 57.3 69.3802 55.6 70.2802 54.4L72.3802 56.5L75.1802 52.9C73.6802 57 72.0802 61 74.5802 65.3C77.1802 69.7 82.8802 74.1 88.0802 74.4C88.9802 74.5 89.8802 72.6 88.6802 72.5C83.6802 72.2 78.8802 67.9 76.1802 64C73.1802 59.6 76.2802 54.4 77.8802 49.4L80.7802 45.7C80.4802 49.4 79.3802 53 78.3802 56.6C77.7802 58.7 77.4802 60.8 78.2802 62.9C80.0802 67.4 84.2802 70.8 89.2802 71.1C90.1802 71.2 91.0802 69.3 89.8802 69.2C85.1802 68.9 80.9802 65.3 79.6802 60.8C78.9802 58.1 80.5802 54.8 81.2802 52.2C81.7802 50.5 82.1802 48.7 82.3802 47C82.6802 47.8 82.9802 48.8 83.0802 49.9C83.8802 47.7 84.5802 45.8 85.0802 44.5L86.3802 44.9C84.8802 51.6 78.6802 57.5 84.1802 64.2C89.1802 70.2 98.4802 72.4 105.28 75.3C106.18 75.7 107.28 73.9 106.28 73.5C99.6802 70.6 92.4802 68.5 86.8802 63.8C79.9802 58.1 86.3802 51.3 88.0802 44.6L90.0802 43.5C89.7802 44.1 89.5802 44.7 89.2802 45.2C87.7802 49 86.5802 53.1 86.3802 57.1C85.9802 66 99.7802 67.5 105.58 70.6C106.38 71 107.58 69.3 106.58 68.8C101.18 65.9 90.1802 64.9 88.2802 58.1C87.5802 55.5 88.7802 51.9 89.4802 49.5C89.9802 47.9 90.8802 44 92.4802 42.2L93.9802 41.4C92.9802 44.3 92.1802 47.2 91.5802 50.1C90.8802 53.4 90.5802 57 92.3802 60C94.1802 63 98.6802 64.2 101.58 65.7C102.38 66.1 103.58 64.4 102.58 63.9C100.18 62.6 97.5802 61.7 95.3802 60.1C92.3802 57.9 92.6802 53.7 93.2802 50.4C93.7802 47.7 94.5802 45.1 95.3802 42.5C95.5802 41.9 95.7802 41.1 96.0802 40.2L98.9802 38.6C95.7802 43.7 94.3802 50.6 96.7802 56.2C98.2802 59.7 100.48 61.2 103.98 62.5C110.28 64.8 111.48 68.4 111.38 74.8C111.38 76.1 113.18 75.3 113.18 74.3C113.28 67.3 111.98 63.2 104.98 60.7C100.48 59.1 98.4802 56.5 97.5802 51.8C96.6802 46.9 98.3802 41.5 101.38 37.7C101.58 37.5 101.58 37.3 101.58 37.2L102.78 36.6C102.08 38.4 101.58 40.1 101.38 40.9C100.38 44.1 99.4802 47.4 100.08 50.8C100.48 53 101.58 55.8 103.18 57.3C105.58 59.6 108.88 60.4 111.08 63C111.68 63.7 113.08 62.1 112.48 61.4C109.58 58 105.08 57.3 102.88 53C101.28 50 101.58 47.1 102.28 44C102.58 42.8 103.58 38.8 104.98 35.5L107.58 34.1C105.78 39.5 102.48 51.6 107.28 54.3L108.38 33.7L110.48 32.6C109.18 37.7 107.98 42.9 108.38 48.2C108.58 51.1 109.68 53.8 111.68 55.8C115.78 59.8 123.48 65.6 116.68 71.2C115.78 71.9 116.38 73.4 117.38 72.6C125.38 66 118.48 59.7 112.98 54.2C107.38 48.7 110.18 38.9 112.28 31.6L115.68 29.8C112.88 36.6 112.08 46.9 112.28 47.3L117.08 29.1L117.38 28.9V35.2L117.68 35.1C117.28 36.3 116.98 37.5 116.58 38.7C115.68 41.7 114.18 45.4 114.48 48.6C114.88 52.1 116.58 54.8 119.08 57.2C120.68 58.7 122.48 59.5 123.68 61.5C125.08 63.9 122.98 67.2 121.78 69.2C121.08 70.4 122.68 70.7 123.28 69.7C124.48 67.6 126.28 64.6 125.78 62C125.08 58.4 121.98 57.1 119.58 54.8C115.08 50.5 116.48 45.2 117.88 40C118.38 38.2 118.98 36.4 119.48 34.6L123.38 33.4C122.98 34.6 122.48 35.7 122.18 36.7C121.08 39.8 119.98 42.9 119.58 46.2C118.88 51.5 122.18 55.6 126.58 58C131.78 60.8 138.18 62 142.38 66.3C144.68 68.6 145.38 72.4 147.48 75C149.48 77.5 152.38 78.6 155.48 79.1C156.38 79.3 157.48 77.4 156.48 77.3C152.38 76.6 149.58 74.9 147.38 71.3C145.88 68.9 145.28 66.3 143.18 64.2C139.48 60.5 133.68 59.2 129.08 57.1C126.38 55.8 123.98 54.1 122.38 51.6C120.18 48 121.48 43.5 122.68 39.9C123.38 37.9 124.48 35.5 125.28 33L129.48 31.7C129.28 32.1 129.18 32.4 129.08 32.7C126.88 37.2 122.98 44.6 124.88 49.8C129.18 61.4 154.68 59.5 153.38 73.5C153.28 74.8 155.08 74 155.18 73C156.28 61.7 139.68 58.9 132.28 54.7C130.28 53.5 128.38 52 127.18 50C125.08 46.7 126.98 42.4 128.08 39.1C128.98 36.3 130.28 33.7 131.58 31.1L134.88 30.1C133.48 32.6 132.28 35.2 131.28 37.8C129.88 41.4 128.08 46.3 130.48 49.8C132.78 53.1 137.48 54.8 140.98 56.2C145.28 58 150.08 59.1 154.18 61.4C154.98 61.8 156.18 60.1 155.18 59.6C148.38 55.9 140.48 54.9 134.08 50.3C127.88 45.9 132.68 36 136.78 29.5L140.38 28.4C138.28 33.4 135.18 38.2 134.68 43.5C134.28 48.3 139.18 52.4 143.18 53.9C144.08 54.2 145.18 52.4 144.18 52.1C142.08 51.3 140.48 50.2 138.98 48.6C135.88 45.5 136.48 41.9 137.88 38.2C139.18 35 140.78 31.9 141.98 28.7L144.28 30.1C140.98 36 136.88 45.1 140.98 47.4L141.88 44.2C142.08 47.7 144.48 49.9 147.78 51.9C148.68 52.4 149.98 50.8 149.18 50.3C144.48 47.6 142.58 44.7 144.68 39.2C145.58 36.8 146.68 34.5 147.68 32.1L150.68 33.9C149.28 37.3 147.68 40.6 147.28 44.2C147.08 45.9 148.08 47.5 148.88 48.9C150.48 51.6 151.88 54 152.48 57.2C152.68 58.4 154.38 57.2 154.28 56.3C153.48 51.9 150.58 49 149.28 45C148.38 42.5 150.48 38.6 151.48 36.2C151.68 35.7 151.88 35.2 152.08 34.7L153.38 35.5L154.78 36.1C153.38 39.8 151.48 43.9 152.58 47.6C152.98 49 154.78 50.1 155.78 51.2C159.18 54.7 158.58 58.9 156.18 62.9C155.48 64.1 157.08 64.4 157.68 63.4C160.68 58.6 161.08 53.9 157.18 49.6C154.98 47.1 153.78 46.3 154.58 42.5C154.98 40.6 155.68 38.7 156.38 36.8L159.18 38.1C158.58 40.4 158.48 42.9 158.98 45.3C159.68 49.3 163.08 52.1 164.08 56.1C165.08 59.7 162.88 64.4 159.18 65.3C158.28 65.5 157.78 67.4 158.98 67.1C163.08 66.1 166.38 61.4 166.08 57.2C165.78 52.8 162.98 50 161.28 46.2C160.28 43.9 160.08 41.2 160.68 38.7L163.58 40C163.28 41 163.08 42 163.18 43C163.48 45.8 165.08 47.8 166.68 50C170.08 54.5 169.88 59.6 166.58 64.2C165.78 65.3 166.98 66.2 167.68 65.2C171.88 59.3 171.98 53.2 167.38 47.5C163.98 43.3 164.78 39.4 167.98 35.4C168.28 35 168.58 34.6 168.98 34.3L170.88 35.8C167.58 41.2 166.68 47.6 172.98 49.3C173.88 49.5 174.98 47.8 173.98 47.5C169.08 46.2 169.58 41.1 172.08 36.7L172.78 37.3C171.28 41.6 171.78 45.8 176.68 47.1C176.78 47.1 176.88 47.1 176.98 47.1C176.58 50 176.98 52.8 178.28 55.8C178.68 56.8 180.28 55.4 179.88 54.5C178.38 50.8 178.08 47.6 179.48 43.7C179.68 43.2 179.88 42.6 180.08 42C181.98 40.8 183.78 40.8 185.48 41.4C181.68 44.5 178.78 49.9 182.68 53C183.48 53.6 184.88 52 184.08 51.4C180.68 48.8 183.98 44.4 187.08 42.3C187.68 42.7 188.28 43.1 188.88 43.6C188.28 44.2 187.78 44.9 187.38 45.6C186.18 47.6 184.78 51.6 187.08 53.4C187.88 54 189.18 52.4 188.48 51.8C186.78 50.4 188.08 46.3 189.98 44.6C192.78 47.1 195.68 50.1 199.08 50.5C202.48 52.6 206.28 54.7 208.88 58.6C211.38 62.4 215.28 67.5 216.48 72.6C217.78 77.3 217.78 82.4 218.58 87C219.48 92.9 221.58 96.3 223.68 101.4C225.78 106.1 224.58 111.2 226.68 116.3C228.78 121 233.88 123.9 235.98 129C236.88 131.6 235.88 134.5 235.28 137.4L232.38 132.4C235.28 137.4 227.98 153.6 227.98 153.6C227.98 153.6 221.88 168 230.48 174.8C234.98 178.3 236.18 183.1 236.38 186.9C235.18 184.7 233.58 183 231.78 182.5C229.28 181.8 225.18 182.3 222.48 181.6C221.78 181.4 224.58 179.1 223.78 179C220.58 178.3 214.58 179.7 211.58 180.1C206.18 180.4 199.98 182.4 194.98 183.4C193.88 183.6 195.08 181.9 193.88 182.2C193.18 182.4 189.58 185 188.88 185.2C181.28 186.9 173.58 190.6 166.38 193.5C159.18 196.5 156.48 200.8 157.28 208.4C156.88 210.2 157.38 211.7 156.88 213.4H153.58L149.68 212.4C145.98 212.4 145.48 214.7 146.88 215.9C147.88 216.8 151.88 216.4 155.28 217.5C156.38 224.1 155.88 243.5 155.88 247C158.38 250 158.88 247 158.88 247L160.88 226.4C162.88 243.4 178.48 256.7 197.38 256.7C217.18 256.7 233.28 242.1 234.08 223.8L244.38 223.4C245.48 226.5 246.88 229.9 246.68 231.9C246.28 235.7 245.88 240.4 244.18 243.8C240.78 250.2 237.78 258.7 232.68 263.3C230.98 263 229.48 262 227.98 261C225.88 259 223.08 257 219.18 254.9L221.98 258.2C221.58 258.2 221.18 258.2 220.78 258.2C222.38 259.5 223.08 261.3 223.98 262.8C222.18 261.3 219.98 259.8 217.28 258.4L228.18 271.6C227.38 272.4 226.38 272.6 225.28 272.6C223.28 270.6 219.98 268.3 214.68 265.5L220.18 271.8C218.88 271.6 217.68 271.6 216.88 272.2C217.18 272.8 217.58 273.3 217.98 273.9C216.08 272.6 213.88 271.2 210.98 269.8L221.98 281.6C221.78 283.4 220.38 284.8 218.98 286.2C218.18 287 214.78 287.9 213.88 289.2C213.18 290.3 213.08 295.6 213.18 300.7C211.38 295.1 207.68 289.6 202.58 288C201.68 287.7 200.58 289.5 201.58 289.8C207.48 291.7 211.58 299.9 212.48 306.1C211.78 305.6 211.08 305.3 210.28 305C207.78 298.3 202.48 290.8 195.98 287.4C195.18 287 193.98 288.7 194.98 289.2C200.28 292 204.78 297.8 207.48 303.5L206.58 302.8L205.88 302.6C205.88 302.6 205.88 302.6 205.88 302.5C201.28 296.9 195.88 291.7 189.88 287.5C189.08 286.9 187.68 288.6 188.48 289.1C193.48 292.6 197.98 296.8 202.08 301.3L197.48 299.8C193.88 296 189.88 292.4 185.58 289.4C184.78 288.8 183.38 290.5 184.18 291C186.88 292.9 189.48 295 191.88 297.3L186.58 295C185.68 293.3 184.08 292.5 183.18 290.4C180.68 283.6 184.48 275.5 182.38 268.8C181.08 265.4 177.28 263.7 175.98 260.3C174.28 256.1 173.88 253 168.38 253.8C165.38 254.6 172.58 262.4 173.48 263.7C176.88 266.7 178.58 268.4 176.88 273C174.38 280.6 164.58 278.7 159.88 285.5C158.18 287.6 157.68 291.7 154.68 293.4C151.28 295.1 148.58 294.3 145.18 292.6C140.28 290 137.58 287.7 135.88 285.7C132.98 282.4 130.78 281.6 126.28 281.6C118.88 281.6 119.08 273.1 121.18 266.7L120.48 266.2C116.28 268.3 116.58 284.3 124.68 284.5C128.38 284.6 129.88 284.3 136.28 289.7C139.48 292.5 142.18 295.8 146.08 297.1C144.98 301.1 142.98 304.9 141.58 308.8C140.58 311.6 138.88 315.8 139.28 319.2C138.58 319.2 137.78 319.3 136.98 319.3C136.38 319.3 135.68 319.4 135.08 319.4C133.58 316.6 141.48 300.8 141.98 298.2C142.18 296.9 140.38 297.8 140.18 298.7C139.58 301.6 132.38 314.4 133.08 319.6C132.38 319.7 131.68 319.7 131.08 319.8C127.98 316.4 131.18 310.4 132.98 307C135.38 302.6 138.78 299.3 140.08 294.3C140.38 293 138.68 293.3 138.38 294.3C136.78 300.4 124.38 312.4 128.58 320C127.28 320.1 125.98 320.2 124.58 320.2C122.38 317.8 128.38 308.1 129.38 306.4C131.98 301.9 135.78 297.6 137.98 292.8C138.58 291.5 136.98 291.2 136.48 292.3C135.28 295 121.88 313.5 122.58 320.2C122.28 320.2 121.98 320.2 121.58 320.2C121.58 319.9 121.38 319.7 120.98 319.7C115.38 319.9 123.78 308.1 124.98 306.3C127.78 302.1 131.98 298.1 134.08 293.6C134.68 292.3 133.08 292 132.58 293.1C131.58 295.3 129.58 297.3 128.18 299.2C125.68 302.6 123.18 306.1 120.88 309.7C119.78 311.5 116.38 317 117.28 319.8C116.58 319.7 115.88 319.5 115.28 319.3C115.28 319.2 115.28 319.1 115.18 319C112.88 313.8 119.68 307.2 122.58 303.6C125.48 300.2 128.98 296.6 130.58 292.3C131.08 291 129.28 291.3 128.88 292.3C126.78 298.2 120.78 303.1 117.18 308C114.98 310.9 112.38 314.9 113.08 318.7C112.68 318.6 112.18 318.5 111.68 318.4C111.28 318.4 110.98 318.3 110.68 318.1C110.78 316.7 111.98 315.1 112.48 314C113.58 311.7 114.48 309.2 115.68 306.9C118.48 301.6 123.88 297.5 127.38 292.7C128.18 291.7 126.98 290.7 126.28 291.7C121.78 297.9 115.78 302.7 112.68 309.9C111.98 311.5 111.28 313.1 110.58 314.7C110.18 315.6 109.08 316.9 108.68 317.9C108.28 318 107.88 318.2 107.38 318.4C108.38 317.7 109.18 313.2 109.18 313.2L107.78 313.5C107.78 316.5 105.68 316.9 103.58 318.6C103.18 319 102.78 319.3 102.38 319.7C102.88 314.2 107.28 310.2 111.18 306.6C115.48 302.5 118.68 297.1 122.88 292.8C123.78 291.9 122.68 290.9 121.78 291.8C116.58 297.1 112.28 303.1 107.08 308.4C103.48 312.1 100.58 316.2 100.58 321.4C99.5802 322.4 98.7802 323.5 98.1802 324.7C98.5802 323.1 98.8802 321.5 98.7802 319.9C98.7802 318.8 96.9802 319.9 96.9802 320.8C97.0802 324.1 95.1802 327.8 93.8802 330.8C92.5802 333.6 91.1802 336.3 89.7802 339.1C89.3802 339.9 89.8802 340.3 90.4802 340.2C90.0802 340.9 90.0802 341.7 90.8802 342.3L96.7802 342.7C97.1802 342.3 97.1802 342.3 97.1802 341.9C97.3802 341.9 97.6802 341.9 97.8802 341.8C97.7802 342.2 97.7802 342.6 97.7802 343C97.6802 344.3 99.4802 343.5 99.5802 342.5C99.6802 339.5 101.68 337.1 102.78 334.5C103.38 333.2 101.78 332.9 101.28 334C100.48 335.7 99.4802 337.3 98.7802 339C98.4802 338 98.1802 337 98.4802 336.3C98.8802 333.8 100.58 332.9 101.88 331.2C103.58 327.4 101.88 324.4 106.58 323.6C109.58 322.8 112.48 325 115.48 324.6C118.88 324.2 122.28 323.7 125.78 323.4C133.38 322.8 139.28 324 145.68 323.6C148.68 323.2 151.58 322.8 154.98 323.2C156.28 323.2 158.78 323.6 160.08 324C161.78 324.8 163.88 327.4 165.18 328.2C169.38 330.3 174.48 322.7 180.48 324.4C180.48 325.2 181.28 325.7 181.28 326.5C182.68 326.1 184.08 325.5 185.38 324.8C185.38 324.8 185.48 324.8 185.48 324.9C186.28 325.4 187.08 325.9 187.88 326.4C188.88 327 188.68 327.4 188.88 326.5C188.78 326.8 188.78 327.3 189.18 327.4C193.28 328.2 194.68 333.2 197.88 335.4C198.08 335.5 198.38 335.5 198.58 335.4C199.48 337 200.18 338.8 200.88 340.3C201.88 342.4 203.38 344.4 204.58 346.3C205.98 348.4 207.38 350.5 208.88 352.6C208.98 354.2 208.98 355.6 208.88 356.7C206.88 353.7 204.78 350.8 202.78 347.8C201.48 345.8 200.18 343.9 199.08 341.8C197.58 338.8 196.48 335.3 193.88 333C193.88 331.7 192.08 332.5 192.08 333.5V333.8C191.98 334.1 192.08 334.3 192.28 334.5C194.78 336.5 196.08 340.3 197.38 343.2C198.38 345.3 199.78 347.3 201.08 349.2C203.38 352.6 205.68 356 208.08 359.4C207.68 360 207.18 360.5 206.68 360.9C201.48 353.7 195.58 346.8 191.28 339C190.78 338.1 189.18 339.5 189.68 340.3C193.98 348 199.68 354.8 204.88 361.9C204.28 362.2 203.68 362.5 203.08 362.8C197.78 355.5 191.88 348.6 187.48 340.8V339C187.48 337.7 185.68 338.5 185.68 339.5V339.9C183.38 338.6 182.28 335.9 180.88 333.6C181.18 333.4 181.38 333.2 181.38 333.3C182.28 333.7 183.38 331.9 182.38 331.5C181.38 331.1 180.78 332.1 180.08 332.4C179.98 332.4 179.78 332.4 179.68 332.4C179.08 332.4 178.08 333.4 178.58 334C180.88 336.9 182.08 341.1 185.88 342.3C190.18 350.1 196.08 356.9 201.28 364.1C200.78 364.5 200.28 364.9 199.88 365.4C194.78 358.5 189.28 351.9 185.08 344.4C184.58 343.5 182.98 344.9 183.48 345.7C183.58 345.8 183.58 345.9 183.68 346H183.58C181.38 346.1 180.28 342.9 179.68 341.2C179.28 340.1 177.98 336.4 178.48 335.7C179.28 334.5 177.68 334.3 176.98 335.2C175.78 336.9 177.28 340.5 177.88 342.1C178.18 342.9 178.48 343.8 178.98 344.8C178.28 345.1 177.78 346.1 178.28 346.5C181.88 349.2 183.88 354.8 186.18 358.5C189.08 363.1 192.38 367.4 196.58 370.9C196.18 371.8 195.88 372.9 195.48 374.1C195.38 374.3 195.38 374.6 195.28 374.8C193.88 372.9 192.38 371 191.08 369.3C187.68 364.8 182.48 359.7 181.18 354.1C180.88 352.9 179.18 354.1 179.38 355C180.58 360.2 184.98 364.8 188.18 368.9C190.08 371.4 192.58 374.1 194.48 377.1C193.88 378.6 193.08 380 192.28 381.3C188.58 372.4 180.28 365.2 178.18 355.8C177.88 354.6 176.18 355.8 176.38 356.7C177.58 362 181.18 366.9 183.98 371.5C186.18 375.1 189.08 379.2 190.78 383.4C189.88 384.5 188.98 385.5 188.08 386.5C185.18 377 177.28 369 175.18 359.3C174.88 358.1 173.18 359.3 173.38 360.2C175.58 370.1 183.68 378.2 186.48 387.9C185.28 389 183.98 389.9 182.58 390.7C179.28 381.3 176.28 371.9 171.78 363C171.28 362 169.68 363.5 170.18 364.3C174.68 373.1 177.68 382.4 180.88 391.7C179.48 392.5 177.98 393.1 176.68 393.6C174.88 384.7 172.38 375.9 169.78 367.2C169.48 366 167.78 367.2 167.98 368.1C170.48 376.7 173.08 385.4 174.78 394.2C173.98 394.4 173.18 394.6 172.48 394.7C170.58 385 167.68 375.4 164.88 366C164.58 364.8 162.88 366 163.08 366.9C165.78 376.2 168.68 385.5 170.58 394.9C169.38 394.9 168.28 394.7 167.28 394.2C165.98 386.5 164.38 378.8 162.18 371.3C161.88 370.1 160.18 371.3 160.38 372.2C162.38 379.1 163.88 386 165.08 393C163.68 392 162.38 390.8 161.28 389.6C159.88 381.7 158.28 373.8 156.08 366C155.78 364.8 154.08 366 154.28 366.9C156.18 373.6 157.68 380.3 158.88 387.1C157.78 386.1 156.88 385.5 156.18 385.8C155.88 385.9 155.48 386.2 154.98 386.5C154.28 379.7 153.78 372.8 151.98 366.2C151.68 365 149.98 366.2 150.18 367.1C152.08 373.8 152.48 380.8 153.28 387.8C152.48 388.4 151.48 389.2 150.48 390C150.38 384.7 150.28 379.5 148.88 374.4C148.58 373.2 146.88 374.4 147.08 375.3C148.48 380.5 148.58 385.9 148.68 391.3C147.68 392.1 146.58 392.8 145.38 393.6C145.78 389.1 146.48 384.7 146.28 380.1C146.18 378.9 144.48 380.1 144.48 381C144.78 385.6 143.98 390.2 143.58 394.7C142.18 395.6 140.68 396.5 139.18 397.3C138.88 393.2 140.78 388.5 141.78 384.7C142.88 380.6 144.68 376.2 144.88 371.9C144.98 370.6 143.18 371.4 143.08 372.4C142.88 377.2 140.78 382.1 139.48 386.7C138.58 390.1 137.08 394.4 137.28 398.1C136.38 398.5 135.38 398.9 134.48 399.3C134.48 399.2 134.48 399.2 134.48 399.1C134.18 394.3 136.58 388.6 137.88 384.1C139.18 379.7 140.28 375.1 142.08 370.8C142.58 369.5 140.78 369.9 140.38 370.8C138.38 375.7 137.08 380.9 135.68 385.9C134.48 390.1 132.48 395.3 132.68 399.8C131.68 400.1 130.78 400.3 129.88 400.4C129.68 395.6 132.18 389.9 133.48 385.4C134.88 380.5 136.18 375.5 138.08 370.8C138.58 369.5 136.78 369.9 136.38 370.8C134.38 375.8 132.98 381.1 131.48 386.3C130.28 390.6 128.08 395.9 128.08 400.5C126.58 400.5 125.18 400.3 123.68 400.1C124.58 394.9 126.08 390 127.68 385C129.28 380.1 130.48 374.3 133.38 370C134.18 368.8 132.58 368.5 131.88 369.5C129.08 373.8 127.88 379.3 126.28 384.1C124.58 389.3 123.08 394.4 122.08 399.8C121.68 399.7 121.18 399.6 120.78 399.4C118.08 397.2 121.38 389.9 122.38 387.4C124.38 382.2 127.18 377.5 128.88 372.2C129.28 370.9 127.48 371.2 127.18 372.2C125.28 378.3 121.88 383.8 119.78 389.8C119.08 391.8 117.68 395.6 118.08 398.5C117.48 398.2 116.88 398 116.28 397.7C116.28 397.6 116.18 397.4 116.08 397.3C113.38 395.1 117.78 387.6 118.98 385.4C121.38 380.8 123.48 376.1 125.08 371.1C125.48 369.8 123.68 370.1 123.38 371.1C121.48 377.3 118.18 382.7 115.68 388.7C114.98 390.4 113.48 393.6 113.48 396.1C111.68 395 110.18 394 109.08 393C112.98 386 116.48 378.7 120.98 372C121.78 370.8 120.18 370.6 119.48 371.5C115.18 378 111.68 385.1 107.88 392C107.28 391.4 106.78 391 106.58 390.8C106.48 390.6 106.18 390.5 105.68 390.3C109.58 381.4 116.98 373.8 122.38 366C123.18 364.8 121.58 364.6 120.88 365.5C115.38 373.5 108.08 381 104.18 390C103.48 389.9 102.68 389.8 101.88 389.7C102.58 383.7 107.98 379 111.78 374.6C114.78 371.1 118.68 367.1 119.98 362.6C120.38 361.3 118.58 361.6 118.28 362.6C116.68 368 111.18 372.9 107.58 377.1C104.38 380.8 100.88 384.7 100.08 389.5C99.3802 389.4 98.6802 389.4 98.0802 389.3C98.0802 389.2 98.1802 389.1 98.1802 389C98.0802 383.4 103.28 378.5 106.68 374.6C109.98 370.8 113.98 367.5 116.98 363.5C117.78 362.5 116.58 361.5 115.88 362.5C114.38 364.5 112.48 366.4 110.68 368.1C108.08 370.5 105.98 373.3 103.58 375.9C100.48 379.2 96.4802 384.4 96.4802 389.2C95.3802 389.1 94.5802 389.1 94.5802 389.1C94.5802 389.1 114.78 405.7 143.38 406.5C171.98 407.3 198.38 393.8 212.78 378.9C227.18 364 238.48 341.1 238.48 341.1C238.48 339.4 239.78 337.7 240.58 336C241.88 333.5 242.28 331.3 243.08 328.8C243.48 326.3 246.68 326.7 247.58 324.1C248.38 321.6 249.88 317.7 250.38 315.2C251.18 310.1 253.58 305 253.58 299.5C253.58 297.8 253.98 290.6 254.58 283.9C255.18 283.7 255.78 282.9 255.48 282.3C255.28 281.8 255.08 281.4 254.88 280.9C255.38 275.4 256.08 270.9 256.88 271.1L259.08 267.6C260.18 267.7 261.18 267.7 261.48 267.7C265.28 268.1 265.68 263.5 266.58 260.9C267.88 256.7 269.98 253.3 271.28 249.4C274.28 240.9 273.98 234.1 274.68 225.2C275.98 209.5 279.18 196.4 280.98 180.8C283.18 159.5 270.48 160.5 265.78 161.6ZM124.08 207C124.18 207.2 124.28 207.5 124.38 207.8C123.28 206.2 122.08 204.7 120.68 203.2C121.98 204.2 123.18 205.3 124.08 207ZM111.18 199.9C106.38 197.5 101.28 196.6 95.6802 196C89.2802 195.2 95.5802 199.3 77.3802 199.4C76.9802 199.4 76.6802 199.4 76.2802 199.5C81.2802 196.8 87.0802 195.2 93.2802 195.2C99.8802 195.1 105.98 196.9 111.18 199.9ZM94.9802 203.6C94.9802 204.6 93.8802 205.4 92.4802 205.4C91.0802 205.4 89.9802 204.6 89.9802 203.6C89.9802 202.6 91.0802 201.8 92.4802 201.8C93.8802 201.8 94.9802 202.6 94.9802 203.6ZM82.9802 192.2C85.9802 190.9 90.1802 191.8 93.1802 191.8C93.1802 191.8 93.1802 191.8 93.2802 191.8C83.8802 191.8 75.3802 195.1 68.8802 200.5C72.0802 197.4 76.5802 194.4 82.9802 192.2ZM60.1802 222.6V223.7H60.0802C60.1802 223.4 60.1802 223 60.1802 222.6ZM60.1802 227.4C60.1802 227.4 61.2802 229.2 63.1802 228.5C65.0802 227.8 64.8802 222.4 64.8802 222.4L60.2802 222.1C61.0802 216 63.8802 210.4 67.9802 205.9C66.7802 208.5 66.0802 211.7 65.5802 215C68.5802 215 71.0802 209.9 74.8802 209.5C75.6802 209.5 77.8802 209.9 78.6802 209.9C78.6802 209.9 78.9802 203.5 86.0802 201.8C84.7802 207.5 89.0802 213.4 97.4802 212.5C104.98 211.7 105.98 203.6 104.58 200.5C110.08 202.8 113.58 204.6 112.18 212C118.98 213 120.58 209.3 118.38 205.6C122.28 209.7 124.98 214.7 126.08 220.3C125.08 221.3 123.78 221.9 123.08 220C121.88 216.5 119.08 220.6 119.28 221.3C119.28 221.3 122.18 227 122.68 228.2C123.18 229.3 125.68 226.4 126.38 225.4C126.48 225.2 126.58 225.1 126.58 224.9C126.58 225.2 126.58 225.6 126.58 225.9C126.58 242.9 111.68 256.7 93.2802 256.7C75.4802 256.7 60.8802 243.7 59.9802 227.4H60.1802ZM14.2802 161.2C14.4802 158.1 13.4802 155.4 14.6802 152.7C15.1802 151.6 16.0802 150.6 17.0802 149.7C15.8802 153.5 15.1802 157.7 14.9802 161.5C14.6802 161.3 14.4802 161.3 14.2802 161.2ZM18.3802 163.2C17.7802 162.8 17.1802 162.5 16.5802 162.2C16.7802 157.1 17.7802 151 19.8802 146.4C20.1802 145.8 19.9802 145.4 19.5802 145.3C19.6802 143.8 19.2802 142.2 20.5802 141.3C23.9802 145.1 20.9802 148.5 20.5802 152.3H20.7802C19.4802 155.8 18.6802 159.6 18.3802 163.2ZM20.0802 164.3C20.1802 160.6 21.0802 156.2 22.3802 152.3H23.9802C24.1802 153.3 24.3802 154.4 24.5802 155.4C23.8802 159 22.6802 162.5 22.0802 166C21.4802 165.4 20.7802 164.8 20.0802 164.3ZM25.1802 170.9C24.8802 170.8 24.5802 170.7 24.2802 170.6C24.4802 169.7 24.0802 168.8 23.4802 167.9C23.6802 165.2 24.3802 162.5 25.0802 159.8C25.0802 159.9 25.0802 160 25.0802 160C26.2802 159.5 27.1802 158.6 27.8802 157.5C27.1802 160.2 26.7802 163 26.3802 165C26.1802 166.2 25.5802 168.5 25.1802 170.9ZM28.2802 174.1C27.9802 173.3 27.4802 172.5 26.7802 171.8C27.0802 168.8 28.0802 165.4 28.3802 164C28.8802 161.5 29.5802 159 30.2802 156.5C30.5802 155.5 30.9802 153.9 31.5802 152.7C31.8802 152.5 32.0802 152.4 32.4802 152.3C33.6802 151.7 34.3802 151.6 34.8802 151.8C31.4802 154.9 30.7802 162.2 29.8802 166.2C29.4802 167.9 28.5802 171.1 28.2802 174.1ZM30.8802 181.1C30.6802 180.9 30.4802 180.7 30.3802 180.5C30.5802 180.4 30.8802 180.2 30.9802 179.9C30.8802 180.3 30.8802 180.7 30.8802 181.1ZM31.0802 178.9L30.9802 178.8C28.5802 176.5 31.1802 168 31.6802 165.4C32.1802 162.9 32.8802 160.4 33.5802 157.9C33.9802 156.5 34.4802 154.2 35.5802 153.1C35.7802 153.9 35.8802 155 36.2802 155.9C34.0802 163.1 31.8802 171.1 31.0802 178.9ZM42.2802 150.3C39.9802 155.5 38.3802 161.2 36.8802 166.7C35.3802 172 33.5802 177.8 33.2802 183.4C32.9802 183.1 32.7802 182.9 32.4802 182.6C32.7802 174.2 35.0802 165.4 37.4802 157.2C38.2802 156.2 39.7802 150.1 42.2802 150.3ZM143.78 34.5L144.88 30.6L145.48 30.9C144.88 32.1 144.28 33.3 143.78 34.5ZM176.28 44.6C173.08 43.6 172.38 40.8 173.08 37.8L177.48 41.2C176.98 42.4 176.58 43.5 176.28 44.6ZM92.2802 336.9C92.0802 337.4 91.5802 337.9 91.0802 338.5C92.0802 336.6 93.2802 334.5 94.3802 332.4C93.8802 333.9 93.1802 335.4 92.2802 336.9ZM144.48 318.4C143.18 318.5 141.78 318.7 140.38 318.8C139.38 315.1 141.98 309.8 143.08 306.7C144.18 303.6 145.78 300.5 146.78 297.3C147.08 297.4 147.38 297.4 147.68 297.4C147.18 303.7 141.68 312.2 144.48 318.4ZM146.58 318.2C144.38 314.8 146.28 309.2 147.18 305.8C147.88 303.1 149.08 300.2 149.38 297.3C149.98 297.2 150.58 297 151.28 296.8C150.98 303.6 147.08 311.1 148.88 317.8C148.08 317.9 147.38 318 146.58 318.2ZM153.58 307C153.18 310.4 153.18 313.7 153.98 316.9C153.78 316.9 153.68 316.9 153.48 316.9C152.48 317.1 151.68 317.3 150.78 317.4C148.38 310.7 152.68 302.9 152.98 296.2C153.48 296 154.08 295.9 154.68 295.7C154.98 299.5 153.98 303.3 153.58 307ZM155.88 316.8C153.88 309.5 157.08 302.5 156.48 295.3C156.98 295.2 157.48 295.1 157.98 295.1C158.18 302.2 156.58 310 158.48 316.9C157.58 316.9 156.78 316.8 155.88 316.8ZM160.48 316.9C158.08 310.2 159.68 302.3 159.68 295.2C160.48 295.4 161.28 295.8 161.78 296.6C163.88 299.2 162.08 302.4 162.58 305.3C162.78 309.1 162.28 313 163.58 316.6C162.78 316.8 161.68 316.9 160.48 316.9ZM196.98 369.1C192.68 365.3 189.28 360.6 186.18 355.6C184.78 353.3 183.48 350.4 181.88 348C182.08 348 182.18 348 182.38 348C182.88 348 183.38 347.4 183.48 346.9C187.68 354.1 193.08 360.5 197.98 367.3C197.68 367.8 197.28 368.4 196.98 369.1ZM261.78 212V212.1C261.58 211.7 261.38 211.3 261.28 210.9C261.48 211.2 261.68 211.6 261.78 212ZM198.38 187.5C205.18 188.3 213.08 190.6 218.58 194.4C219.88 195.3 220.98 196.6 222.18 198.1C215.58 191.9 206.38 188.1 196.18 188.1C191.38 188.1 186.78 189 182.58 190.6C187.48 188.1 192.78 186.9 198.38 187.5ZM229.58 223.6C227.68 224.7 224.78 223.8 224.78 223.8V226.5H229.28C226.98 241.4 213.08 253 196.28 253C177.88 253 162.98 239.2 162.98 222.2C162.98 205.2 177.88 191.4 196.28 191.4C214.68 191.4 229.58 205.2 229.58 222.2C229.58 222.7 229.58 223.2 229.58 223.6ZM242.28 217.6C242.08 218.5 242.18 219.7 242.58 221.1H232.88C232.68 215.7 231.18 210.7 228.58 206.2C228.98 206.6 229.38 207.1 229.88 207.4L232.98 215.1L239.28 211.3L250.18 187.6L251.68 196.5C248.88 204.3 243.18 214.9 242.28 217.6ZM225.88 265.6C227.28 266.6 228.68 267.5 228.38 269.2C227.68 268 226.88 266.8 225.88 265.6ZM196.68 306.4C196.18 307.4 195.78 308.4 195.38 308.9C195.08 308.9 194.78 308.9 194.58 309C191.98 306.1 189.98 302.7 187.78 299.5C190.68 301.8 193.88 303.9 196.68 306.4ZM204.88 329.5C203.38 328 201.78 326.5 200.28 325C198.48 323.2 196.68 321.3 194.88 319.5C194.58 319.2 194.08 318.8 193.68 318.3C194.08 318 194.38 317.6 194.78 317.3C194.98 317.6 195.28 317.8 195.48 318.1C197.18 320 198.98 321.9 200.78 323.7C202.28 325.2 203.78 326.7 205.28 328.1C204.98 328.1 204.88 328.2 204.88 328.4C204.78 328.6 204.78 329 204.88 329.5ZM186.68 301.5C188.68 304.3 190.48 307.3 192.68 310C192.18 310.4 191.78 310.9 191.38 311.5C189.08 309.2 187.38 305.8 185.88 303.2C185.58 302.7 185.38 302.2 185.08 301.7C185.58 301.7 186.18 301.6 186.68 301.5ZM165.88 316.6C164.58 314 164.48 311.1 164.48 308.2C165.28 308.9 166.48 309.5 168.08 310C168.08 310.3 168.18 310.6 168.18 310.9C168.58 313.2 169.38 315.4 169.78 317.7C168.48 317.6 167.18 316.9 165.88 316.6ZM171.58 317.7C171.48 316.1 170.88 314.5 170.58 312.9C170.28 311.8 169.48 309.3 169.58 307.6C169.98 306.9 170.48 306.2 170.88 305.5C171.98 309.4 173.88 313.3 174.98 316.8C173.98 317.3 172.78 317.6 171.58 317.7ZM176.88 316.2C176.08 313.5 175.08 310.8 174.18 308.1C173.68 306.5 172.88 304.5 172.48 302.6C172.68 301.9 172.98 301.2 173.18 300.6C174.98 305.5 178.48 309.8 180.98 314.4C179.48 315 178.18 315.6 176.88 316.2ZM182.68 313.5C179.88 308.1 175.48 303.3 174.18 297.4C174.48 296.7 174.88 296 175.28 295.4C176.68 301.8 181.78 307.1 184.48 313.1C183.88 313.1 183.18 313.3 182.68 313.5ZM177.18 295.3C178.28 296 179.38 296.9 180.38 297.8C183.58 302.2 185.28 308.3 188.88 312.2C188.08 312.3 187.18 312.4 186.38 312.6C184.08 306.6 178.98 301.5 177.18 295.3ZM205.68 345.3C204.38 343.3 203.08 341.4 201.98 339.3C200.38 336.2 199.28 332.6 196.58 330.3C196.18 330 195.78 330.2 195.38 330.5C193.78 328.4 192.28 326.3 189.68 325.8C189.18 325.1 188.18 324.4 187.08 323.7C188.88 322.5 190.58 321.1 192.28 319.7C193.88 321.6 195.68 323.3 197.38 325.1C199.98 327.8 202.78 330.4 205.38 333.1C205.58 334.5 205.88 336 206.18 337.7C204.88 335.3 203.38 333 201.58 331C201.38 330.8 201.18 330.8 200.88 330.9V330.8C200.88 330.2 200.58 329.7 199.88 329.7C198.98 329.6 198.18 331.3 199.18 331.6C199.28 332 199.68 332.1 200.08 331.9C199.98 332.2 199.98 332.5 200.18 332.7C203.08 336.1 205.08 340 207.18 343.9C207.48 345.5 207.68 347.2 207.88 348.7C207.18 347.5 206.38 346.4 205.68 345.3ZM199.18 331.2C199.18 331.3 199.18 331.3 199.18 331.4C199.18 331.4 199.18 331.3 199.18 331.2ZM209.38 329.3C207.48 327.4 205.58 325.5 203.68 323.6C201.88 321.8 200.08 319.9 198.28 318.1C197.78 317.6 196.78 316.7 196.18 315.9C196.68 315.4 197.08 315 197.48 314.5C199.98 318 203.48 321.1 206.48 324.1C208.38 326.1 210.88 328.3 212.98 330.8C211.68 330.3 210.48 329.7 209.38 329.3ZM216.68 332.5C214.78 329.6 212.18 327.1 209.98 324.8C206.38 321 201.88 317.4 198.88 313C199.48 312.4 200.08 311.3 200.68 310C201.58 310.9 202.78 312.3 203.98 313.6V313.7C207.88 320.4 215.28 325.9 218.28 333.2C217.78 332.9 217.28 332.7 216.68 332.5ZM220.68 334.1C218.68 326.9 212.28 321.6 207.88 315.6C207.38 313.9 206.88 312 206.88 312L208.48 312.5C209.88 313.5 211.18 314.9 212.28 316.5L213.98 319.2V319C215.38 321.3 216.58 323.6 217.48 325.3C219.08 328.2 220.58 331.5 222.28 334.6C221.78 334.5 221.28 334.3 220.68 334.1ZM226.38 335C226.18 335.3 225.68 335.4 224.98 335.3C222.18 330.9 220.18 325.7 217.68 321.4C216.78 319.8 215.58 317.8 214.28 315.9L214.68 311.8C217.08 315 218.88 318.9 220.28 321.4C222.48 325.3 224.38 329.9 226.88 333.9C226.68 334.4 226.48 334.8 226.38 335ZM227.88 331.7C225.08 327.2 222.98 321.9 220.48 317.6C219.28 315.5 217.78 312.8 215.98 310.4L220.08 310.6C220.18 310.4 220.18 310.3 220.18 310.1C221.78 312.3 222.98 315.4 223.98 317.3C225.88 320.9 227.58 324.7 229.08 328.6C228.68 329.7 228.28 330.8 227.88 331.7ZM230.18 325.9C228.88 322.5 227.28 319.2 225.68 316C224.58 313.9 223.08 310.3 221.28 308.1C222.18 307.5 222.68 306.8 223.08 306C224.28 308 225.28 310.2 226.28 312.1C228.08 315.7 229.68 319.4 231.18 323.2C230.78 324.1 230.48 325 230.18 325.9ZM232.18 320.4C230.78 317.1 229.38 313.9 227.88 310.7C226.78 308.4 225.48 305.7 223.88 303.4V303.3C224.38 302.1 224.78 300.7 225.28 299.4C226.98 301.7 228.18 304.5 229.38 306.9C230.88 310 232.28 313.1 233.58 316.2C233.08 317.7 232.58 319.1 232.18 320.4ZM234.58 313.5C233.48 310.9 232.28 308.2 230.98 305.7C229.58 302.9 228.18 299.6 226.08 297.2C226.58 295.8 227.18 294.4 227.78 293.1C230.98 298.6 233.08 304.8 235.58 310.6C235.28 311.6 234.98 312.5 234.58 313.5ZM236.58 307.8C234.18 302.1 231.98 296.1 228.78 290.8C229.18 290 229.58 289.3 229.98 288.5C232.88 293.9 234.98 299.8 237.38 305.4C237.08 306.2 236.88 307 236.58 307.8ZM238.38 302.5C236.08 297.1 234.08 291.5 231.18 286.4C231.68 285.6 232.18 284.9 232.68 284.1C234.48 287.7 237.68 295.1 239.38 299.2C239.08 300.2 238.68 301.3 238.38 302.5ZM240.38 295.9C238.68 291.5 236.08 285.3 233.88 282.1C234.08 281.9 234.18 281.6 234.38 281.4C234.98 281.9 235.68 282.3 236.48 282.6L234.88 280.6C235.08 280.2 235.38 279.9 235.58 279.5C237.48 283.8 238.98 288.3 241.28 292.3C241.18 293.1 240.88 294.3 240.38 295.9ZM241.98 289.6C239.98 285.7 238.58 281.5 236.78 277.6C236.88 277.4 236.98 277.3 237.08 277.1C237.18 277.1 237.18 277.2 237.28 277.2L237.18 277C237.48 276.4 237.78 275.8 238.08 275.3C239.78 279.1 241.18 283 242.98 286.8C242.58 287.8 242.28 288.7 241.98 289.6ZM243.88 284.1C242.18 280.4 240.88 276.4 239.08 272.8C239.38 271.9 239.68 270.9 239.88 270C241.48 273.8 242.88 277.8 244.88 281.4C244.58 282.3 244.28 283.2 243.88 284.1ZM245.88 278.8C243.98 274.9 242.58 270.8 240.78 266.9C241.08 266.1 241.38 265.3 241.78 264.6C243.48 268.5 244.88 272.6 246.88 276.3C246.58 277.1 246.28 278 245.88 278.8ZM248.48 272.4C248.28 272.9 248.08 273.3 247.88 273.8C245.98 270.1 244.68 266.1 242.98 262.2C243.18 261.8 243.48 261.3 243.68 260.9C245.18 264.6 246.58 268.3 248.58 271.7C248.58 272 248.48 272.2 248.48 272.4ZM249.68 269.5C247.88 266.1 246.48 262.4 244.98 258.8C245.28 258.3 245.58 257.9 245.78 257.4C247.58 260.8 248.58 264.8 250.08 268.3C249.98 268.7 249.88 269.1 249.68 269.5ZM251.18 265.8C249.78 262.4 248.68 258.6 246.88 255.4C247.18 254.8 247.48 254.2 247.78 253.6C249.48 256.8 250.58 260.5 251.88 263.9C251.78 264.4 251.48 265.1 251.18 265.8ZM253.08 261.2C251.78 257.8 250.68 254.2 248.88 251.2C249.18 250.4 249.48 249.5 249.68 248.6C251.48 251.9 252.48 255.9 253.98 259.3C253.68 259.8 253.48 260.5 253.08 261.2ZM255.98 258.9C253.98 254.6 252.78 249.5 250.18 245.4C250.28 244.4 250.48 243.3 250.58 242.3C253.28 246.3 254.68 251.5 256.48 256.1L255.98 258.9ZM257.08 252.4C255.38 247.8 253.78 242.9 250.78 239.2C250.88 238.2 250.88 237.3 250.98 236.3C253.68 240.4 255.48 245.3 257.58 249.8C257.38 250.8 257.28 251.7 257.08 252.4ZM258.18 246.3C256.18 241.7 254.18 236.9 251.18 233.1C251.28 231.9 251.38 230.7 251.48 229.4C254.38 233.9 256.18 239.4 258.58 244.2C258.38 245 258.28 245.7 258.18 246.3ZM259.08 240.8C256.88 235.9 254.88 230.5 251.68 226.2C251.68 225.7 251.78 225.3 251.78 224.8C251.78 224.4 251.98 223.7 252.18 222.6C255.18 227.2 257.08 232.9 259.48 237.8C259.38 238.8 259.28 239.8 259.08 240.8ZM260.18 234.2C257.98 229.3 255.98 224 252.78 219.7C252.98 218.6 253.18 217.4 253.38 216.1C256.28 220.7 258.18 226.3 260.58 231.1C260.48 232.2 260.28 233.2 260.18 234.2ZM261.08 227.5C258.88 222.7 256.98 217.4 253.88 213.2C253.98 212.3 254.18 211.4 254.28 210.4C257.18 214.9 259.08 220.3 261.28 225.1C261.28 225.9 261.18 226.7 261.08 227.5ZM261.78 221.3C259.68 216.6 257.68 211.6 254.78 207.5C254.88 207 254.88 206.4 254.98 205.9C255.58 206.1 256.28 206.4 256.98 206.8C258.98 210.2 260.48 214 262.08 217.7C261.98 218.7 261.88 219.9 261.78 221.3Z" fill="black"/>
<path d="M105.28 370.8C108.28 367.1 112.28 364.3 115.18 360.4C115.98 359.4 114.78 358.4 114.08 359.4C110.38 364.4 105.38 368.6 101.28 373.3C97.9802 377.1 91.6802 381.5 91.6802 387.1C91.6802 388.4 93.4802 387.6 93.4802 386.6C93.3802 381.1 101.98 374.8 105.28 370.8Z" fill="black"/>
<path d="M207.18 194.7C197.38 190.9 188.38 191.7 178.88 197.2C170.78 201.9 166.58 211 163.58 219.5C163.08 221.6 163.88 222.6 164.98 222C167.38 220.6 169.88 219.5 168.48 223.6C167.18 227.3 165.28 228.7 167.78 232.9C169.88 236.3 172.88 237.1 176.68 235.4C182.58 232.9 174.58 232 176.68 228.6C177.98 226.5 185.18 230.7 185.58 226.5C185.58 222.7 171.58 226.1 172.38 217.6C173.18 210 178.28 213.4 182.98 211.7C183.38 207.5 175.38 210.9 176.58 206.2C176.98 204.1 180.38 202 182.48 202C182.58 204 182.98 212.3 192.18 212.1C201.28 211.9 203.68 205.2 202.88 200.3C208.38 202.8 205.78 209.4 202.58 211.9C207.48 212.6 213.48 206.3 210.98 212.2C205.88 216 200.78 216.4 194.38 216.4C188.88 216.4 183.78 214.7 178.68 214.7C177.98 215.4 178.48 215.8 179.48 216.1C183.78 217.3 190.48 218.5 194.58 218.8C201.48 219.2 207.98 215.4 210.48 217.7C213.58 220.5 212.18 224.9 217.28 221.9C219.38 220.6 226.18 216.4 226.58 213.8C226.98 210.8 221.48 204.9 219.38 202.8C216.18 199 211.88 196.4 207.18 194.7ZM189.08 203.6C187.68 203.6 186.58 202.8 186.58 201.8C186.58 200.8 187.68 200 189.08 200C190.48 200 191.58 200.8 191.58 201.8C191.58 202.8 190.48 203.6 189.08 203.6Z" fill="black"/>
<path d="M103.88 335.4C102.58 338.3 100.48 341 100.28 344.4C100.18 345.7 101.98 344.9 102.08 343.9C102.18 340.9 104.18 338.5 105.28 335.9C105.88 334.6 104.38 334.3 103.88 335.4Z" fill="black"/>
<path d="M67.6803 341.1C65.3803 343.4 63.2802 346 60.9802 348.3C60.0802 349.2 61.1803 350.2 62.0803 349.3C64.3803 347 66.4803 344.4 68.7803 342.1C69.7803 341.1 68.6803 340.2 67.6803 341.1Z" fill="black"/>
<path d="M67.5802 338.2C68.4802 337.3 67.3802 336.3 66.4802 337.2C63.6802 340 60.5802 343.5 58.9802 347.2C58.3802 348.5 60.2802 348.1 60.6802 347.2C61.4802 345.4 62.7802 343.9 63.9802 342.4C65.0802 341 66.2802 339.6 67.5802 338.2Z" fill="black"/>
<path d="M70.9803 345.3C71.7803 344.5 71.2803 343 70.2803 343.9C69.1803 345 67.8803 346 66.7803 347.1C65.5803 348.1 64.1803 349.6 62.8803 350.3C61.9803 350.8 61.9803 352.6 63.1803 351.9C64.6803 351.1 65.9803 349.7 67.2803 348.6C68.4803 347.6 69.7803 346.5 70.9803 345.3Z" fill="black"/>
<path d="M61.5802 339.7C62.6802 338.5 63.7802 337.2 64.2802 335.6C64.3802 335.3 64.3802 335 64.2802 334.9C64.6802 335.1 65.5802 334.7 65.8802 334.1C69.0802 326.8 74.1802 320.6 77.3802 313.3C77.9802 312 76.0802 312.4 75.6802 313.3C72.4802 320.6 67.3802 326.8 64.1802 334.1C64.0802 334.4 64.0802 334.7 64.1802 334.8C63.7802 334.6 62.8802 335 62.6802 335.6C61.4802 339.2 56.2802 341.4 57.1802 345.8C57.3802 347 59.0802 345.8 58.9802 344.9C58.3802 342.9 60.2802 341.1 61.5802 339.7Z" fill="black"/>
<path d="M59.2802 336.6C60.3802 335.1 61.4802 333.6 62.6802 332.3C63.5802 331.3 62.4802 330.4 61.5802 331.3C59.7802 333.2 58.2802 335.4 56.8802 337.5C55.8802 339 53.9802 341.5 54.6802 343.5C54.9802 344.5 56.5802 343.1 56.2802 342.2C55.7802 340.9 58.5802 337.6 59.2802 336.6Z" fill="black"/>
<path d="M57.8803 323.3C60.8803 317.9 63.7803 312.4 65.9803 306.6C66.4803 305.3 64.6803 305.6 64.2803 306.6C62.0803 312.6 58.8803 318.2 55.8803 323.8C55.8803 323.9 55.7803 324 55.7803 324C52.9803 327 50.4803 330.6 49.7803 334.6C49.5803 335.9 51.3803 335 51.5803 334.1C52.1803 330.3 54.9803 326.9 57.5803 324.2C57.8803 323.9 57.9803 323.5 57.8803 323.3Z" fill="black"/>
<path d="M56.6802 333C57.6802 331.2 58.7802 329.3 60.0802 327.8C60.9802 326.8 59.8802 325.9 58.9802 326.8C57.1802 328.7 55.8802 331.2 54.6802 333.4C53.6802 335.1 51.8802 338 52.5802 340C52.8802 341 54.4802 339.6 54.1802 338.7C53.7802 337.4 56.0802 334.2 56.6802 333Z" fill="black"/>
<path d="M66.8802 355C68.7802 350.6 75.5802 347.7 79.4802 345.4C82.6802 343.5 86.0802 341.2 87.4802 337.6C87.9802 336.3 86.1802 336.7 85.7802 337.6C83.7802 342.5 76.6802 345.1 72.4802 347.8C69.6802 349.6 66.4802 351.8 65.0802 355C64.6802 356.2 66.4802 355.9 66.8802 355Z" fill="black"/>
<path d="M126.18 338.5C124.28 342 119.68 345.7 119.98 350.1C120.08 351.3 121.78 350.1 121.78 349.2C121.68 347.3 123.48 345.1 124.48 343.6C125.48 342.1 126.78 340.6 127.68 339C128.28 337.8 126.78 337.5 126.18 338.5Z" fill="black"/>
<path d="M172.48 355.6C173.18 356.3 174.58 354.7 173.88 354C168.98 349 172.88 343.4 171.58 337.6C171.28 336.4 169.58 337.6 169.78 338.5C170.48 341.5 169.48 344.6 169.38 347.6C169.18 350.7 170.28 353.3 172.48 355.6Z" fill="black"/>
<path d="M101.38 349.3C102.18 348.3 101.08 347.3 100.28 348.3C93.7803 356.9 81.3802 359.9 76.3802 369.9C75.7802 371.1 77.2802 371.4 77.8802 370.4C82.5802 360.7 94.9802 357.7 101.38 349.3Z" fill="black"/>
<path d="M129.48 337.9L123.08 349.8L124.38 350.3L126.28 346.7L127.18 346.9C126.38 348.6 125.68 350.4 125.38 352.3C125.18 353.6 126.98 352.7 127.18 351.8C127.48 350.2 127.98 348.7 128.68 347.2L129.88 347.4C129.18 348.8 128.68 350.3 128.18 351.7C127.78 353 129.48 352.7 129.88 351.7C130.38 350.3 130.78 348.9 131.48 347.7L132.58 347.9C132.58 347.9 129.58 353.4 130.18 354.7C130.38 355.2 131.68 355.2 131.68 355.2L134.48 348.2L135.48 348.4C134.88 349.8 134.38 351.2 133.98 352.6C133.58 353.9 135.38 353.6 135.68 352.6C136.08 351.3 136.48 350 136.98 348.7L138.28 349C135.88 353.7 134.38 358.3 138.78 359.4C139.68 359.6 140.78 357.8 139.78 357.6C136.88 356.9 137.98 353.3 139.78 349.3L141.58 349.6C141.58 349.6 139.38 356.5 140.28 356.4C141.28 356.4 142.58 351.8 143.78 350C144.08 349.5 145.68 350 145.78 350.1C144.48 354.7 144.18 359 147.28 360.1C148.18 360.4 149.28 358.7 148.28 358.3C146.38 357.6 146.38 355 147.08 351.8C147.78 349.8 148.58 348 148.58 348H151.48C149.18 352.4 147.98 356.8 151.58 358.7C152.38 359.1 153.58 357.4 152.58 356.9C150.08 355.6 151.18 351.9 153.28 348H155.68L153.08 354.7L154.28 355.1L158.18 347.7L159.68 347.9C156.98 352.6 154.38 357.4 160.88 359.1C161.78 359.3 162.88 357.5 161.88 357.3C157.88 356.3 158.38 353.5 159.88 350.3L162.48 351C161.78 353.1 161.48 355.1 163.68 357.1C164.38 357.8 165.78 356.1 165.08 355.5C163.78 354.3 163.68 352.9 163.98 351.4H164.08L169.98 355.3L170.48 354.5L167.18 347.3L168.98 338.4L165.08 342.2L164.58 339.9C164.68 339.1 164.58 338.3 164.18 337.7C163.68 336.8 162.08 338.2 162.58 339C162.78 339.3 162.88 339.7 162.88 340.1L162.48 340.5L157.88 340.8C158.58 339.7 159.18 338.8 159.48 338.2C160.18 337 158.58 336.7 157.98 337.7C157.58 338.5 156.88 339.5 155.98 340.9L154.88 341L154.18 338.5L152.28 342.3L150.28 343C151.18 341.1 151.98 339.5 152.38 338.7C153.08 337.5 151.48 337.2 150.88 338.2C150.28 339.2 149.28 341.2 148.18 343.7L145.98 344.5L147.98 339.1L147.08 338.7L144.08 344.4L142.38 344.2C143.68 341.6 144.78 339.3 144.58 338C144.38 336.8 142.68 338 142.78 338.9C142.98 340 142.08 341.8 140.98 344L139.08 343.7C139.88 341.9 140.58 340 141.08 338.1C141.48 336.8 139.68 337.1 139.38 338.1C139.18 339 138.88 339.8 138.58 340.6C137.88 342 136.88 343.8 136.18 344.9C135.98 345.2 133.68 344.6 133.38 344.6C132.88 344.6 134.68 342.4 134.58 341.3C134.48 340.6 133.88 340.7 133.88 340.7L131.78 344.5L130.38 344.3C131.08 343 131.88 341.8 132.48 340.6C133.18 339.4 131.58 339.1 130.98 340.1C130.28 341.4 129.48 342.7 128.68 344.1L128.08 343.7L130.48 338.7L129.48 337.9Z" fill="black"/>
<path d="M174.18 338C174.08 337.9 174.08 337.7 173.98 337.6C173.68 336.8 172.48 337.8 172.38 338.3C172.08 339.5 172.48 341.1 172.48 342.3C172.48 344.1 172.88 345.9 173.38 347.6C173.98 349.9 175.08 352.9 177.68 353.3C178.58 353.4 179.48 351.6 178.28 351.4C175.98 351.1 175.28 347.4 174.78 345.6C174.38 344 174.18 342.5 174.18 340.8C174.18 340.5 174.08 339.6 173.98 338.9C174.18 338.5 174.28 338.2 174.18 338Z" fill="black"/>
<path d="M76.6802 351.2C80.5802 348.4 83.8802 344.7 88.1802 342.4C89.0802 341.9 89.0802 340.1 87.8802 340.8C82.9802 343.5 79.4802 348.4 74.3802 350.8C71.0802 352.4 67.4802 353.7 65.9802 357.3C65.4802 358.6 67.2802 358.2 67.6802 357.3C69.0802 353.9 73.9802 353.2 76.6802 351.2Z" fill="black"/>
<path d="M89.7802 345.2C89.9802 344.9 90.2802 344.4 89.9802 344.1C89.6802 343.7 89.1802 343.7 88.7802 344.1C88.6802 344.2 88.5802 344.3 88.4802 344.4C88.3802 344.5 88.2802 344.7 88.1802 344.8C88.1802 344.7 88.1802 344.9 87.5802 345.5C87.2802 345.9 86.8802 346.3 86.4802 346.7C84.1802 349.2 81.6802 351.1 78.7802 352.9C75.1802 355 71.4802 356.5 68.5802 359.6C67.6802 360.6 68.7802 361.5 69.6802 360.6C73.1802 357 78.2802 355.3 82.3802 352.4C85.2802 350.3 87.7802 347.9 89.7802 345.2Z" fill="black"/>
<path d="M93.6802 347.1C93.7802 347.2 93.8802 347.2 94.0802 347.2C94.2802 347.2 94.3802 347.1 94.4802 347C95.0802 346.7 95.5802 345.8 95.0802 345.4C94.9802 345.3 94.9801 345.3 94.8801 345.3C92.1801 344 88.0802 349 86.5802 350.5C81.9802 355.1 75.4802 357.4 71.2802 362.4C70.4802 363.4 71.5801 364.4 72.3801 363.4C75.7801 359.3 80.9802 357.8 84.7802 354.3C86.0802 353.3 91.8802 346 93.6802 347.1Z" fill="black"/>
<path d="M84.7802 359.4C89.2802 357.2 92.7802 353.2 96.4802 349.9C97.3802 349.1 96.7802 347.6 95.7802 348.5C91.0802 352.8 86.6802 356.5 80.9802 359.5C78.1802 361.1 73.9802 363.2 73.4802 366.8C73.2802 368.1 75.0802 367.3 75.2802 366.3C75.6802 363.1 82.1802 360.7 84.7802 359.4Z" fill="black"/>
</svg>
