<svg id="Livello_1" data-name="Livello 1" xmlns="http://www.w3.org/2000/svg" xmlns:xlink="http://www.w3.org/1999/xlink" viewBox="0 0 945.59 231.06"><defs><style>.cls-1{fill:url(#Sfumatura_senza_nome_164);}.cls-2{fill:url(#Sfumatura_senza_nome_164-2);}.cls-3{fill:url(#Sfumatura_senza_nome_164-3);}.cls-4{fill:url(#Sfumatura_senza_nome_164-4);}.cls-5{fill:url(#Sfumatura_senza_nome_164-5);}.cls-6{fill:url(#Sfumatura_senza_nome_164-6);}.cls-7{fill:url(#Sfumatura_senza_nome_19);}.cls-8{fill:url(#Sfumatura_senza_nome_19-2);}.cls-9{fill:url(#Sfumatura_senza_nome_19-3);}.cls-10{fill:url(#Sfumatura_senza_nome_19-4);}.cls-11{fill:url(#Sfumatura_senza_nome_19-5);}.cls-12{fill:url(#Sfumatura_senza_nome_19-6);}.cls-13{fill:url(#Sfumatura_senza_nome_105);}</style><linearGradient id="Sfumatura_senza_nome_164" x1="750.35" y1="160.81" x2="750.35" y2="87.71" gradientUnits="userSpaceOnUse"><stop offset="0" stop-color="#d27713"/><stop offset="0.29" stop-color="#e3841a"/><stop offset="0.61" stop-color="#ed8c1f"/><stop offset="1" stop-color="#f08f20"/></linearGradient><linearGradient id="Sfumatura_senza_nome_164-2" x1="574.76" y1="142.93" x2="574.76" y2="71.74" xlink:href="#Sfumatura_senza_nome_164"/><linearGradient id="Sfumatura_senza_nome_164-3" x1="684.73" y1="161.45" x2="684.73" y2="88.4" xlink:href="#Sfumatura_senza_nome_164"/><linearGradient id="Sfumatura_senza_nome_164-4" x1="856.96" y1="142.64" x2="856.96" y2="87.69" xlink:href="#Sfumatura_senza_nome_164"/><linearGradient id="Sfumatura_senza_nome_164-5" x1="803.7" y1="142.7" x2="803.7" y2="76.65" xlink:href="#Sfumatura_senza_nome_164"/><linearGradient id="Sfumatura_senza_nome_164-6" x1="633.59" y1="141.79" x2="633.59" y2="87.72" xlink:href="#Sfumatura_senza_nome_164"/><linearGradient id="Sfumatura_senza_nome_19" x1="225.26" y1="143.3" x2="238.06" y2="70.72" gradientUnits="userSpaceOnUse"><stop offset="0" stop-color="#001e30"/><stop offset="0.18" stop-color="#022133"/><stop offset="1" stop-color="#082a3d"/></linearGradient><linearGradient id="Sfumatura_senza_nome_19-2" x1="289.04" y1="165.76" x2="302.69" y2="88.38" xlink:href="#Sfumatura_senza_nome_19"/><linearGradient id="Sfumatura_senza_nome_19-3" x1="356.48" y1="143.82" x2="366.18" y2="88.83" xlink:href="#Sfumatura_senza_nome_19"/><linearGradient id="Sfumatura_senza_nome_19-4" x1="413.72" y1="145.92" x2="424.28" y2="86.08" xlink:href="#Sfumatura_senza_nome_19"/><linearGradient id="Sfumatura_senza_nome_19-5" x1="451.72" y1="142.33" x2="464.88" y2="67.65" xlink:href="#Sfumatura_senza_nome_19"/><linearGradient id="Sfumatura_senza_nome_19-6" x1="499.99" y1="143.07" x2="509.56" y2="88.8" xlink:href="#Sfumatura_senza_nome_19"/><linearGradient id="Sfumatura_senza_nome_105" x1="104.97" y1="176.57" x2="127.14" y2="50.82" gradientUnits="userSpaceOnUse"><stop offset="0" stop-color="#0a1a28"/><stop offset="0.54" stop-color="#092536"/><stop offset="1" stop-color="#082a3d"/></linearGradient></defs><path class="cls-1" d="M739.94,138.35a5.83,5.83,0,0,0-.49,3.12c0,5.36,0,10.72,0,16.09a11.48,11.48,0,0,1-.11,1.94,1.44,1.44,0,0,1-1.52,1.28c-.49,0-1,0-1.46,0H723.67c-.57,0-1.14,0-1.7,0a1.09,1.09,0,0,1-1-.91,7.92,7.92,0,0,1-.17-1.68c0-2.11,0-4.23,0-6.34v-60c0-.73,0-1.46,0-2.19s.38-1.12,1.24-1.19c.32,0,.65,0,1,0h12.92a2.94,2.94,0,0,1,2.58.76c.07.7.1,1.51.22,2.3a.94.94,0,0,0,1.5.6c.87-.58,1.7-1.22,2.6-1.75a14.08,14.08,0,0,1,5.21-2c1.52-.22,3-.59,4.56-.67,2.94-.16,5.82.52,8.7.93a15.34,15.34,0,0,1,4.25,1.73,23,23,0,0,1,8.6,6.94,27.46,27.46,0,0,1,3.53,6.31A30,30,0,0,1,779.91,114a31.23,31.23,0,0,1-2,12.13,29.55,29.55,0,0,1-4.47,7.73,17.35,17.35,0,0,1-2.4,2.37c-.8.7-1.67,1.29-2.5,1.95a10.4,10.4,0,0,1-3.62,1.94,4.13,4.13,0,0,0-.92.3c-3.12,1.59-6.54,1.78-9.92,2.14a12,12,0,0,1-3.86-.33,21.52,21.52,0,0,1-8.52-3.33A6.72,6.72,0,0,0,739.94,138.35Zm-.74-23.44a13.31,13.31,0,0,0,2.67,8.82,7.86,7.86,0,0,0,4,3,13.74,13.74,0,0,0,7.16.42c3.8-.91,6-3.4,7.28-6.77a23.31,23.31,0,0,0,1-4.75,5.38,5.38,0,0,0-.09-1.69c-.18-1.12-.42-2.23-.64-3.34a9.43,9.43,0,0,0-2.35-4.46c-1.7-1.83-3.75-3.37-6.51-3.29-1.37,0-2.75,0-4.12.14a8,8,0,0,0-5.65,3.43A12.18,12.18,0,0,0,739.2,114.91Z"/><path class="cls-2" d="M596.3,119.2c3.73,3.37,7.34,6.62,10.92,9.89a4.78,4.78,0,0,1,.69,1.16,8.61,8.61,0,0,1-1.23,1.74c-2,1.69-3.73,3.62-6,5-1.53.92-3.06,1.8-4.6,2.7a3.08,3.08,0,0,1-.67.29c-2.56.77-5.11,1.55-7.68,2.27a11.56,11.56,0,0,1-2.4.39,83.1,83.1,0,0,1-10.7.21,22,22,0,0,1-5.52-.88c-1.69-.56-3.43-1-5.11-1.58a32.74,32.74,0,0,1-12.75-8.18,31.93,31.93,0,0,1-6.67-9.78c-1.83-4.43-3.18-9-3-13.92.07-1.7,0-3.42.11-5.11a39.84,39.84,0,0,1,2.06-8.74c1.48-4.68,4.32-8.52,7.53-12.07A35.93,35.93,0,0,1,557,78a28.77,28.77,0,0,1,7.33-3.72c2.11-.74,4.24-1.67,6.55-1.73a4.41,4.41,0,0,0,1.21-.14,25.56,25.56,0,0,1,8-.57c1.28,0,2.55.35,3.84.49,1.13.12,2.27.17,3.4.26a6.32,6.32,0,0,1,1.45.17,73.59,73.59,0,0,1,7.77,2.72,36.66,36.66,0,0,1,6.42,3.9,38.1,38.1,0,0,1,4.17,4.07,2.15,2.15,0,0,1,.37,2c-1.9,1.78-3.89,3.67-5.92,5.52-1.44,1.31-2.92,2.57-4.41,3.82a1.63,1.63,0,0,1-2.21.08,10.45,10.45,0,0,1-1.21-1.19,20.62,20.62,0,0,0-6.14-4.22c-2.45-1.22-5.07-1-7.58-1.55-2.5.58-5.22.11-7.53,1.58a11.25,11.25,0,0,0-5.72,3.5,13.94,13.94,0,0,0-4.18,6.71c-1.95,4-1.28,8.25-1,12.44a4.72,4.72,0,0,0,.44,1.38c.2.53.48,1,.63,1.57a14.22,14.22,0,0,0,4.84,7.41A19.37,19.37,0,0,0,582,126.8a18.77,18.77,0,0,0,8.62-3,16.16,16.16,0,0,0,3.78-3A14.7,14.7,0,0,1,596.3,119.2Z"/><path class="cls-3" d="M686,119.48c.63-1.47,1.24-2.86,1.81-4.26.73-1.8,1.42-3.61,2.15-5.41,1-2.55,2.06-5.09,3.08-7.64,1.09-2.71,2.14-5.43,3.24-8.13.73-1.79,1.51-3.56,2.26-5.32,2-.5,3.84-.21,5.69-.26s3.9-.07,5.85,0,3.7-.4,5.48.38a3.76,3.76,0,0,1-.45,2.44c-1,2.45-2.26,4.84-3.17,7.34-1.29,3.58-2.87,7-4.29,10.56-1.6,4-3.29,7.9-4.91,11.87-1.08,2.62-2.09,5.27-3.17,7.88s-2.36,5.49-3.51,8.24c-.59,1.42-1.07,2.88-1.66,4.3-2,4.85-4.15,9.67-7.84,13.58a21.69,21.69,0,0,1-8.13,5.12c-3.94,1.55-8,1.25-12,1.26a7,7,0,0,1-1.69-.25,39.53,39.53,0,0,1-7.57-2.58,18.51,18.51,0,0,1-2.28-1.61,6,6,0,0,1,.22-1.61c.95-2.15,1.95-4.27,3-6.38.77-1.59,1.61-3.15,2.41-4.71.35,0,.63-.12.81,0,1.38.66,2.73,1.4,4.12,2a5.92,5.92,0,0,0,1.85.51,14.2,14.2,0,0,0,2.44,0,7.39,7.39,0,0,0,5.9-3.71,2.12,2.12,0,0,0,0-2.1c-1.74-4.1-3.44-8.21-5.19-12.31-1.55-3.64-3.19-7.25-4.73-10.9s-2.88-7.21-4.38-10.79-3.26-7.39-4.76-11.13c-.84-2.1-1.67-4.2-2.67-6.23a.76.76,0,0,1,.6-1.09,12,12,0,0,1,1.7-.13h13.89c.41,0,.82,0,1.22,0a2.1,2.1,0,0,1,1.93,1.56c1.14,3,2.41,6,3.59,9,1.08,2.78,2.11,5.59,3.19,8.38.37,1,.84,1.92,1.22,2.9,1,2.48,1.93,5,2.91,7.45A2.82,2.82,0,0,0,686,119.48Z"/><path class="cls-4" d="M827.26,115c.24-3.24.36-6.06,1.38-8.79a29.5,29.5,0,0,1,6.7-10.61,26.65,26.65,0,0,1,3.09-2.34A30.38,30.38,0,0,1,846,89.53a24.54,24.54,0,0,1,6.63-1.32c.73-.06,1.45-.21,2.17-.32a11.78,11.78,0,0,1,4.35,0,10.12,10.12,0,0,0,2.17.3c4,0,7.52,1.78,11.17,3a3.77,3.77,0,0,1,.82.52c1.13.78,2.3,1.51,3.39,2.34a21.65,21.65,0,0,1,7.43,9.7c.37,1,1,1.9,1.25,2.9a28.09,28.09,0,0,1-.08,17,24.07,24.07,0,0,1-6.94,11c-2.78,2.42-5.76,4.78-9.57,5.58a3.51,3.51,0,0,0-1.12.45,7.24,7.24,0,0,1-3,.92c-1.93.28-3.86.53-5.78.85a20.87,20.87,0,0,1-6.06-.32c-1.13-.13-2.26-.26-3.37-.5a23.08,23.08,0,0,1-3-.87,40.62,40.62,0,0,1-4.06-1.58,26.13,26.13,0,0,1-9.58-7.65,16.58,16.58,0,0,1-3-5.24,20.48,20.48,0,0,0-1.19-2.63C827.28,120.79,827.65,117.66,827.26,115Zm18.57.14a27.31,27.31,0,0,0,.39,3.13c.75,3.25,2.16,6,5.17,7.88a11.19,11.19,0,0,0,3.45,1.06,10,10,0,0,0,8.89-2,9.74,9.74,0,0,0,3.27-4.72,33.22,33.22,0,0,0,.73-3.32,7.62,7.62,0,0,0,.13-3.85c-.55-1.93-.69-3.92-1.85-5.73-1.75-2.7-4-4.41-7.18-4.71a27.22,27.22,0,0,0-4.6.1,8,8,0,0,0-5.64,3.45A13.78,13.78,0,0,0,845.83,115.16Z"/><path class="cls-5" d="M790.17,104.62c-2.23-.76-4.76.33-7.13-.72a12.19,12.19,0,0,1-.16-1.44c0-3.17,0-6.33,0-9.5a8,8,0,0,1,0-1,1.61,1.61,0,0,1,1.55-1.59,17.88,17.88,0,0,1,1.94-.07c.65,0,1.3,0,2,0,1.95-.06,2.19-.28,2.21-2.32,0-2.85,0-5.69,0-8.53a3.69,3.69,0,0,1,.52-2.54,160.06,160.06,0,0,1,17.29-.06c.7.59.59,1.44.6,2.24,0,2.52,0,5,0,7.55,0,3.66,0,3.66,3.6,3.67,2.12,0,4.23,0,6.34,0,1.69,0,2.11.44,2.17,2.18,0,1.38,0,2.76,0,4.15,0,2,0,4.06,0,6.09,0,1.26-.33,1.58-1.61,1.6-2.19,0-4.38,0-6.58,0-.48,0-1,0-1.46,0-2.38,0-2.45.08-2.46,2.48,0,4.47,0,8.94,0,13.41a10.41,10.41,0,0,0,.85,4.75,5.31,5.31,0,0,0,5.35,3,10.83,10.83,0,0,0,2.83-.64,3.51,3.51,0,0,1,2.55-.24c.5,1.46,1,3.06,1.6,4.65.65,1.84,1.31,3.66,2,5.48a3.05,3.05,0,0,1,.14,2.47,27,27,0,0,1-11.08,2.87,29.78,29.78,0,0,1-10.09-1.32,16.18,16.18,0,0,1-7.45-4.38,15.54,15.54,0,0,1-3.48-5.2,25.88,25.88,0,0,1-1.4-5.9,66.25,66.25,0,0,1-.25-7c0-3.9,0-7.8,0-11.7A3.89,3.89,0,0,0,790.17,104.62Z"/><path class="cls-6" d="M633.58,89.06c0,.9,0,1.86.06,2.82a6.9,6.9,0,0,0,.14,1.2.81.81,0,0,0,1.19.42,6.34,6.34,0,0,0,.76-.61,18.15,18.15,0,0,1,11.17-4.71c.72-.05,1.43-.29,2.14-.41,1.31-.22,2,.3,2.16,1.63a8,8,0,0,1,0,1v11.93c0,.17,0,.33,0,.49-.07,1.2-.42,1.53-1.67,1.55s-2.59,0-3.89,0c-2.91,0-5.35,1.33-7.56,3a7.68,7.68,0,0,0-2.9,4.93,36.52,36.52,0,0,0-.62,6.77c.06,6.66,0,13.32,0,20,0,2.38-.32,2.72-2.63,2.74-4.46,0-8.93,0-13.39,0a6.38,6.38,0,0,1-1,0A1.62,1.62,0,0,1,616,140c0-.57,0-1.14,0-1.71V91.77c0-.57,0-1.14,0-1.71a1.42,1.42,0,0,1,1.48-1.57,11.81,11.81,0,0,1,1.46,0h11.69A4.59,4.59,0,0,1,633.58,89.06Z"/><path class="cls-7" d="M204,134.19l3-5.86c5.14,5,14.29,8.74,23.74,8.74,13.46,0,19.32-5.66,19.32-12.75,0-19.73-44.29-7.6-44.29-34.22,0-10.59,8.22-19.73,26.51-19.73,8.12,0,16.55,2.36,22.3,6.37L252,82.8a37.06,37.06,0,0,0-19.74-6c-13.15,0-19,5.86-19,13,0,19.73,44.29,7.81,44.29,34,0,10.58-8.42,19.63-26.82,19.63C220,143.54,209.36,139.74,204,134.19Z"/><path class="cls-8" d="M327.35,115.89c0,16.45-11.52,27.55-26.93,27.55-8.63,0-16-3.7-20.55-10.69v30.11h-7.3v-74h7V99.56c4.42-7.2,11.92-11.11,20.86-11.11C315.83,88.45,327.35,99.56,327.35,115.89Zm-7.3,0c0-12.53-8.74-21.06-20.14-21.06s-20.15,8.53-20.15,21.06S288.39,137,299.91,137,320.05,128.53,320.05,115.89Z"/><path class="cls-9" d="M382.74,109.42v33.5h-7v-8.43c-3.29,5.56-9.66,8.95-18.6,8.95-12.23,0-19.73-6.37-19.73-15.73,0-8.32,5.34-15.31,20.86-15.31h17.17v-3.29c0-9.25-5.25-14.28-15.32-14.28a27.53,27.53,0,0,0-18,6.37l-3.29-5.45c5.44-4.62,13.46-7.3,22-7.3C374.83,88.45,382.74,95.44,382.74,109.42Zm-7.29,17.27v-8.84h-17c-10.49,0-13.88,4.11-13.88,9.66,0,6.27,5,10.17,13.67,10.17C366.5,137.68,372.57,133.78,375.45,126.69Z"/><path class="cls-10" d="M440.7,136.86v6.06h-44v-4.83l34-43.06h-33.4V88.87h42.75V93.7l-34,43.16Z"/><path class="cls-11" d="M453.45,71.81a5.26,5.26,0,0,1,5.34-5.14,5.19,5.19,0,0,1,5.35,5,5.35,5.35,0,0,1-10.69.1Zm1.64,17.06h7.3v54h-7.3Z"/><path class="cls-12" d="M477.29,115.89c0-16,11.72-27.44,27.54-27.44s27.44,11.41,27.44,27.44-11.61,27.55-27.44,27.55S477.29,131.93,477.29,115.89Zm47.58,0c0-12.63-8.53-21.06-20-21.06s-20.14,8.43-20.14,21.06S493.32,137,504.83,137,524.87,128.53,524.87,115.89Z"/><path class="cls-13" d="M179.9,113.69a63.57,63.57,0,0,1-15.35,41.52c-.45.53-.91,1-1.39,1.56h0c-.5.55-1,1.08-1.52,1.6a63.86,63.86,0,0,1-18.18,13,64.07,64.07,0,0,1-27.4,6.17,64.13,64.13,0,0,1-9-.64,63.16,63.16,0,0,1-18.26-5.48,63.88,63.88,0,0,1-18.27-13c-.6-.6-1.17-1.21-1.73-1.85a.46.46,0,0,1-.07-.07c-.28-.29-.54-.59-.8-.89a0,0,0,0,1,0,0,9.18,9.18,0,0,1,7.22-14.83,8.42,8.42,0,0,1,1.33.1,9.25,9.25,0,0,0,1.76.44,9.27,9.27,0,0,1,3.38,2.14.13.13,0,0,1,.06.07l.7.8s0,0,0,0a46.61,46.61,0,0,0,6.41,5.83,45.46,45.46,0,0,0,27.3,9.08,45.92,45.92,0,0,0,9.14-.92,45.48,45.48,0,0,0,24.07-13.46h0c.63-.66,1.22-1.33,1.8-2s.92-1.13,1.36-1.71a45.44,45.44,0,0,0,7.34-14.63,9.49,9.49,0,0,0-7.25-3.64,9,9,0,0,0-5.46,1.82l0,0a37.6,37.6,0,0,0-3.58,2.45c-3.83,2.92-8.06,6.76-13.1,9.63a32.92,32.92,0,0,1-5.16,2.43,26.9,26.9,0,0,1-5.91,1.45l-.65.07c-.39,0-.78.07-1.18.09s-.93,0-1.4,0-.94,0-1.4,0-.79-.05-1.18-.09l-.65-.07-.9-.12-.18,0h0l-.13,0c-.51-.09-1-.19-1.51-.31l-.44-.11c-.47-.11-.93-.24-1.39-.38l-1.22-.41a29.53,29.53,0,0,1-3.22-1.35c-5.91-2.85-10.73-7.22-15-10.45a34.35,34.35,0,0,0-3.89-2.61l0,0a9.11,9.11,0,0,0-10.37-.12l-.36.26a13.09,13.09,0,0,1-1.87,1.13,15,15,0,0,1-1.75.73,13.63,13.63,0,0,1-3.69.7c-8.2.43-14.69-6.44-14.58-14.66a63.58,63.58,0,0,1,15.65-41c.29-.33.58-.66.88-1,.56-.63,1.15-1.25,1.74-1.85A63.88,63.88,0,0,1,88.76,56,63.16,63.16,0,0,1,107,50.49a64.13,64.13,0,0,1,9-.64A64.07,64.07,0,0,1,143.46,56a63.67,63.67,0,0,1,18.18,13c.61.61,1.2,1.24,1.78,1.89l.77.87a9.26,9.26,0,0,1-2.55,13.7,9.05,9.05,0,0,1-11-1.44h0c-.24-.29-.49-.57-.74-.85l-.08-.09a45.69,45.69,0,0,0-24.57-14,45.86,45.86,0,0,0-18.18,0,45.42,45.42,0,0,0-18.26,8.19,46,46,0,0,0-6.41,5.83.12.12,0,0,1,0,.05l-.64.74-.06.06c-.56.66-1.11,1.33-1.64,2a45.06,45.06,0,0,0-7.54,14.74,8.88,8.88,0,0,0,7.16,3.52,8.12,8.12,0,0,0,.86,0l.43-.06a8.91,8.91,0,0,0,3.51-1.26,0,0,0,0,1,0,0A34.67,34.67,0,0,0,88.76,100c4.14-3.12,8.76-7.28,14.37-10.13l.39-.2a31.13,31.13,0,0,1,3.5-1.48,27,27,0,0,1,6.6-1.48l.8-.06.65,0h2l.65,0,.8.06a26.85,26.85,0,0,1,6.7,1.54,33,33,0,0,1,5.3,2.51h0c5,2.86,9.15,6.66,12.94,9.54a35.83,35.83,0,0,0,3.9,2.64,8.86,8.86,0,0,0,4.12,1.54,5.7,5.7,0,0,0,.58.06h.47c2.95,0,7.1-2.86,7.42-3a11.54,11.54,0,0,1,1.69-.74,13.68,13.68,0,0,1,18.26,12.89Z"/></svg>