<svg width="600" height="303" viewBox="0 0 600 303" fill="none" xmlns="http://www.w3.org/2000/svg">
<path d="M102.224 85.0256H338.874V237.016H102.224V85.0256Z" fill="#A2A8B5" style="fill:#A2A8B5;fill:color(display-p3 0.6353 0.6588 0.7098);fill-opacity:1;"/>
<path d="M196.566 156.69H244.532V237.016H196.566V156.69Z" fill="#65798E" style="fill:#65798E;fill:color(display-p3 0.3961 0.4745 0.5569);fill-opacity:1;"/>
<path d="M284.284 177.086H312.371V237.016H284.284V177.086Z" fill="#65798E" style="fill:#65798E;fill:color(display-p3 0.3961 0.4745 0.5569);fill-opacity:1;"/>
<path d="M128.728 177.086H156.815V237.016H128.728V177.086Z" fill="#65798E" style="fill:#65798E;fill:color(display-p3 0.3961 0.4745 0.5569);fill-opacity:1;"/>
<path d="M85.3364 85.0256H356.558L220.947 2.3363L85.3364 85.0256Z" fill="#DEF4FD" style="fill:#DEF4FD;fill:color(display-p3 0.8706 0.9569 0.9922);fill-opacity:1;"/>
<path d="M93.6563 82.6896H348.24L220.947 5.07356L93.6563 82.6896ZM356.559 87.3616H85.3363C84.2896 87.3616 83.3709 86.6656 83.0869 85.6562C82.8043 84.6496 83.2269 83.5762 84.1203 83.0309L219.731 0.342896C220.478 -0.114433 221.416 -0.114433 222.163 0.342896L357.775 83.0309C358.668 83.5762 359.091 84.6496 358.808 85.6562C358.526 86.6656 357.604 87.3616 356.559 87.3616Z" fill="#2D2C5F" style="fill:#2D2C5F;fill:color(display-p3 0.1765 0.1725 0.3725);fill-opacity:1;"/>
<path d="M85.3364 85.0257V99.9097H356.558V85.0257H85.3364Z" fill="#B4DBEA" style="fill:#B4DBEA;fill:color(display-p3 0.7059 0.8588 0.9176);fill-opacity:1;"/>
<path d="M87.6738 97.5723H354.222V87.3616H87.6738V97.5723ZM356.559 102.246H85.3365C84.0472 102.246 83.0005 101.199 83.0005 99.9096V85.0256C83.0005 83.7363 84.0472 82.6896 85.3365 82.6896H356.559C357.849 82.6896 358.895 83.7363 358.895 85.0256V99.9096C358.895 101.199 357.849 102.246 356.559 102.246Z" fill="#2D2C5F" style="fill:#2D2C5F;fill:color(display-p3 0.1765 0.1725 0.3725);fill-opacity:1;"/>
<path d="M97.2297 109.662V228.896H108.811V109.662H97.2297Z" fill="#DEF4FD" style="fill:#DEF4FD;fill:color(display-p3 0.8706 0.9569 0.9922);fill-opacity:1;"/>
<path d="M99.5669 226.561H106.474V111.998H99.5669V226.561ZM108.811 231.232H97.2296C95.9389 231.232 94.8936 230.185 94.8936 228.896V109.66C94.8936 108.371 95.9389 107.324 97.2296 107.324H108.811C110.102 107.324 111.147 108.371 111.147 109.66V228.896C111.147 230.185 110.102 231.232 108.811 231.232Z" fill="#2D2C5F" style="fill:#2D2C5F;fill:color(display-p3 0.1765 0.1725 0.3725);fill-opacity:1;"/>
<path d="M114.603 99.8896C114.518 99.8896 114.436 99.9123 114.352 99.9149V99.9083H91.6231C91.5604 99.9069 91.5017 99.8896 91.4377 99.8896C91.3751 99.8896 91.3164 99.9069 91.2537 99.9083H91.1404V99.9202C87.9177 100.079 85.3484 102.719 85.3484 105.98C85.3484 109.343 88.0751 112.07 91.4377 112.07C94.2684 112.07 96.6257 110.131 97.3084 107.515H108.732C109.416 110.131 111.774 112.07 114.603 112.07C117.967 112.07 120.694 109.343 120.694 105.98C120.694 102.616 117.967 99.8896 114.603 99.8896Z" fill="#F5FCFE" style="fill:#F5FCFE;fill:color(display-p3 0.9608 0.9882 0.9961);fill-opacity:1;"/>
<path d="M91.3137 234.679H114.727V231.232H91.3137V234.679ZM117.064 239.352H88.9764C87.6857 239.352 86.6404 238.306 86.6404 237.015V228.896C86.6404 227.606 87.6857 226.56 88.9764 226.56H117.064C118.355 226.56 119.4 227.606 119.4 228.896V237.015C119.4 238.306 118.355 239.352 117.064 239.352Z" fill="#2D2C5F" style="fill:#2D2C5F;fill:color(display-p3 0.1765 0.1725 0.3725);fill-opacity:1;"/>
<path d="M97.3083 105.178H108.732C109.795 105.178 110.724 105.896 110.992 106.924C111.426 108.578 112.91 109.734 114.603 109.734C116.672 109.734 118.356 108.05 118.356 105.98C118.356 103.942 116.724 102.278 114.698 102.227C114.554 102.243 114.43 102.254 114.352 102.251C114.295 102.251 114.239 102.25 114.183 102.246H91.623C91.575 102.246 91.5123 102.243 91.4483 102.238C91.4377 102.238 91.4257 102.239 91.4137 102.239C91.3617 102.246 91.3083 102.25 91.255 102.254C89.2523 102.352 87.6843 103.988 87.6843 105.98C87.6843 108.05 89.3683 109.734 91.4377 109.734C93.131 109.734 94.6164 108.579 95.0484 106.924C95.3164 105.896 96.2456 105.178 97.3083 105.178ZM114.603 114.407C111.418 114.407 108.563 112.603 107.14 109.851H98.9003C97.479 112.603 94.6243 114.407 91.4377 114.407C86.791 114.407 83.011 110.627 83.011 105.98C83.011 101.58 86.3963 97.9496 90.7643 97.603C90.883 97.583 91.0043 97.5723 91.1283 97.5723C91.3963 97.547 91.5857 97.551 91.7643 97.5723H114.294C114.347 97.5616 114.472 97.5536 114.603 97.5536C119.25 97.5536 123.03 101.332 123.03 105.98C123.03 110.627 119.25 114.407 114.603 114.407Z" fill="#2D2C5F" style="fill:#2D2C5F;fill:color(display-p3 0.1765 0.1725 0.3725);fill-opacity:1;"/>
<path d="M144.4 109.662V228.896H155.982V109.662H144.4Z" fill="#DEF4FD" style="fill:#DEF4FD;fill:color(display-p3 0.8706 0.9569 0.9922);fill-opacity:1;"/>
<path d="M146.738 226.561H153.646V111.998H146.738V226.561ZM155.982 231.232H144.402C143.111 231.232 142.064 230.185 142.064 228.896V109.66C142.064 108.371 143.111 107.324 144.402 107.324H155.982C157.273 107.324 158.318 108.371 158.318 109.66V228.896C158.318 230.185 157.273 231.232 155.982 231.232Z" fill="#2D2C5F" style="fill:#2D2C5F;fill:color(display-p3 0.1765 0.1725 0.3725);fill-opacity:1;"/>
<path d="M161.774 99.8896C161.688 99.8896 161.608 99.9123 161.523 99.9149V99.9083H138.794C138.731 99.9069 138.672 99.8896 138.608 99.8896C138.546 99.8896 138.487 99.9069 138.424 99.9083H138.311V99.9202C135.088 100.079 132.519 102.719 132.519 105.98C132.519 109.343 135.246 112.07 138.608 112.07C141.439 112.07 143.796 110.131 144.479 107.515H155.903C156.587 110.131 158.944 112.07 161.774 112.07C165.138 112.07 167.864 109.343 167.864 105.98C167.864 102.616 165.138 99.8896 161.774 99.8896Z" fill="#F5FCFE" style="fill:#F5FCFE;fill:color(display-p3 0.9608 0.9882 0.9961);fill-opacity:1;"/>
<path d="M138.484 234.679H161.899V231.232H138.484V234.679ZM164.235 239.352H136.148C134.858 239.352 133.811 238.306 133.811 237.015V228.896C133.811 227.606 134.858 226.56 136.148 226.56H164.235C165.526 226.56 166.571 227.606 166.571 228.896V237.015C166.571 238.306 165.526 239.352 164.235 239.352Z" fill="#2D2C5F" style="fill:#2D2C5F;fill:color(display-p3 0.1765 0.1725 0.3725);fill-opacity:1;"/>
<path d="M144.479 105.178H155.903C156.967 105.178 157.895 105.896 158.163 106.924C158.595 108.579 160.08 109.734 161.774 109.734C163.844 109.734 165.528 108.05 165.528 105.98C165.528 103.942 163.895 102.278 161.868 102.227C161.723 102.243 161.603 102.254 161.523 102.251C161.467 102.251 161.41 102.25 161.354 102.246H138.794C138.746 102.246 138.683 102.243 138.619 102.238C138.608 102.238 138.596 102.239 138.586 102.239C138.532 102.246 138.479 102.25 138.426 102.254C136.423 102.352 134.855 103.988 134.855 105.98C134.855 108.05 136.539 109.734 138.608 109.734C140.302 109.734 141.786 108.578 142.219 106.924C142.487 105.896 143.416 105.178 144.479 105.178ZM161.774 114.407C158.588 114.407 155.732 112.603 154.311 109.851H146.071C144.648 112.603 141.794 114.407 138.608 114.407C133.962 114.407 130.182 110.627 130.182 105.98C130.182 101.58 133.567 97.9496 137.936 97.603C138.055 97.583 138.175 97.5723 138.299 97.5723C138.568 97.547 138.755 97.551 138.936 97.5723H161.464C161.518 97.5616 161.644 97.5536 161.774 97.5536C166.42 97.5536 170.2 101.332 170.2 105.98C170.2 110.627 166.42 114.407 161.774 114.407Z" fill="#2D2C5F" style="fill:#2D2C5F;fill:color(display-p3 0.1765 0.1725 0.3725);fill-opacity:1;"/>
<path d="M191.571 109.662V228.896H203.152V109.662H191.571Z" fill="#DEF4FD" style="fill:#DEF4FD;fill:color(display-p3 0.8706 0.9569 0.9922);fill-opacity:1;"/>
<path d="M193.907 226.561H200.816V111.998H193.907V226.561ZM203.152 231.232H191.571C190.28 231.232 189.235 230.185 189.235 228.896V109.66C189.235 108.371 190.28 107.324 191.571 107.324H203.152C204.443 107.324 205.488 108.371 205.488 109.66V228.896C205.488 230.185 204.443 231.232 203.152 231.232Z" fill="#2D2C5F" style="fill:#2D2C5F;fill:color(display-p3 0.1765 0.1725 0.3725);fill-opacity:1;"/>
<path d="M208.944 99.8896C208.859 99.8896 208.779 99.9123 208.694 99.9149V99.9083H185.964C185.902 99.9069 185.843 99.8896 185.779 99.8896C185.716 99.8896 185.658 99.9069 185.595 99.9083H185.482V99.9202C182.259 100.079 179.69 102.719 179.69 105.98C179.69 109.343 182.416 112.07 185.779 112.07C188.61 112.07 190.967 110.131 191.65 107.515H203.074C203.758 110.131 206.115 112.07 208.944 112.07C212.308 112.07 215.035 109.343 215.035 105.98C215.035 102.616 212.308 99.8896 208.944 99.8896Z" fill="#F5FCFE" style="fill:#F5FCFE;fill:color(display-p3 0.9608 0.9882 0.9961);fill-opacity:1;"/>
<path d="M185.655 234.679H209.07V231.232H185.655V234.679ZM211.406 239.352H183.319C182.028 239.352 180.983 238.306 180.983 237.015V228.896C180.983 227.606 182.028 226.56 183.319 226.56H211.406C212.696 226.56 213.742 227.606 213.742 228.896V237.015C213.742 238.306 212.696 239.352 211.406 239.352Z" fill="#2D2C5F" style="fill:#2D2C5F;fill:color(display-p3 0.1765 0.1725 0.3725);fill-opacity:1;"/>
<path d="M191.65 105.178H203.074C204.138 105.178 205.066 105.896 205.335 106.924C205.767 108.579 207.251 109.734 208.944 109.734C211.014 109.734 212.698 108.05 212.698 105.98C212.698 103.942 211.066 102.278 209.04 102.227C208.894 102.243 208.772 102.254 208.692 102.251C208.636 102.251 208.58 102.25 208.524 102.246H185.964C185.916 102.246 185.854 102.243 185.788 102.238C185.778 102.238 185.767 102.239 185.756 102.239C185.704 102.246 185.651 102.25 185.596 102.254C183.594 102.352 182.026 103.988 182.026 105.98C182.026 108.05 183.71 109.734 185.779 109.734C187.472 109.734 188.958 108.578 189.39 106.924C189.659 105.896 190.588 105.178 191.65 105.178ZM208.944 114.407C205.759 114.407 202.904 112.603 201.483 109.851H193.242C191.82 112.603 188.964 114.407 185.779 114.407C181.132 114.407 177.354 110.627 177.354 105.98C177.354 101.58 180.738 97.9496 185.107 97.603C185.226 97.583 185.346 97.5723 185.47 97.5723C185.74 97.547 185.928 97.551 186.107 97.5723H208.635C208.688 97.5616 208.815 97.5536 208.944 97.5536C213.591 97.5536 217.371 101.332 217.371 105.98C217.371 110.627 213.591 114.407 208.944 114.407Z" fill="#2D2C5F" style="fill:#2D2C5F;fill:color(display-p3 0.1765 0.1725 0.3725);fill-opacity:1;"/>
<path d="M238.742 109.662V228.896H250.323V109.662H238.742Z" fill="#DEF4FD" style="fill:#DEF4FD;fill:color(display-p3 0.8706 0.9569 0.9922);fill-opacity:1;"/>
<path d="M241.079 226.561H247.987V111.998H241.079V226.561ZM250.323 231.232H238.742C237.452 231.232 236.406 230.185 236.406 228.896V109.66C236.406 108.371 237.452 107.324 238.742 107.324H250.323C251.614 107.324 252.66 108.371 252.66 109.66V228.896C252.66 230.185 251.614 231.232 250.323 231.232Z" fill="#2D2C5F" style="fill:#2D2C5F;fill:color(display-p3 0.1765 0.1725 0.3725);fill-opacity:1;"/>
<path d="M256.115 99.8896C256.03 99.8896 255.95 99.9123 255.864 99.9149V99.9083H233.135C233.072 99.9069 233.014 99.8896 232.95 99.8896C232.887 99.8896 232.828 99.9069 232.766 99.9083H232.652V99.9202C229.43 100.079 226.86 102.719 226.86 105.98C226.86 109.343 229.587 112.07 232.95 112.07C235.78 112.07 238.138 110.131 238.82 107.515H250.244C250.928 110.131 253.286 112.07 256.115 112.07C259.479 112.07 262.206 109.343 262.206 105.98C262.206 102.616 259.479 99.8896 256.115 99.8896Z" fill="#F5FCFE" style="fill:#F5FCFE;fill:color(display-p3 0.9608 0.9882 0.9961);fill-opacity:1;"/>
<path d="M232.826 234.679H256.24V231.232H232.826V234.679ZM258.576 239.352H230.488C229.199 239.352 228.152 238.306 228.152 237.015V228.896C228.152 227.606 229.199 226.56 230.488 226.56H258.576C259.867 226.56 260.914 227.606 260.914 228.896V237.015C260.914 238.306 259.867 239.352 258.576 239.352Z" fill="#2D2C5F" style="fill:#2D2C5F;fill:color(display-p3 0.1765 0.1725 0.3725);fill-opacity:1;"/>
<path d="M238.822 105.178H250.244C251.307 105.178 252.236 105.896 252.504 106.924C252.936 108.579 254.422 109.734 256.115 109.734C258.186 109.734 259.87 108.05 259.87 105.98C259.87 103.942 258.238 102.278 256.211 102.227C256.066 102.243 255.944 102.25 255.864 102.251C255.808 102.251 255.752 102.25 255.696 102.246H233.135C233.087 102.246 233.026 102.243 232.96 102.238C232.948 102.238 232.938 102.239 232.926 102.239C232.872 102.247 232.82 102.25 232.766 102.254C230.764 102.352 229.196 103.988 229.196 105.98C229.196 108.05 230.88 109.734 232.95 109.734C234.643 109.734 236.127 108.578 236.56 106.923C236.83 105.895 237.758 105.178 238.822 105.178ZM256.115 114.407C252.93 114.407 250.074 112.603 248.654 109.851H240.412C238.99 112.603 236.135 114.407 232.95 114.407C228.303 114.407 224.523 110.627 224.523 105.98C224.523 101.58 227.907 97.9496 232.278 97.603C232.395 97.583 232.516 97.5723 232.64 97.5723C232.912 97.547 233.099 97.5536 233.278 97.5723H255.78C255.894 97.5603 256.003 97.5536 256.115 97.5536C260.763 97.5536 264.542 101.332 264.542 105.98C264.542 110.627 260.763 114.407 256.115 114.407Z" fill="#2D2C5F" style="fill:#2D2C5F;fill:color(display-p3 0.1765 0.1725 0.3725);fill-opacity:1;"/>
<path d="M285.912 109.662V228.896H297.494V109.662H285.912Z" fill="#DEF4FD" style="fill:#DEF4FD;fill:color(display-p3 0.8706 0.9569 0.9922);fill-opacity:1;"/>
<path d="M288.249 226.561H295.157V111.998H288.249V226.561ZM297.495 231.232H285.913C284.623 231.232 283.576 230.185 283.576 228.896V109.66C283.576 108.371 284.623 107.324 285.913 107.324H297.495C298.784 107.324 299.831 108.371 299.831 109.66V228.896C299.831 230.185 298.784 231.232 297.495 231.232Z" fill="#2D2C5F" style="fill:#2D2C5F;fill:color(display-p3 0.1765 0.1725 0.3725);fill-opacity:1;"/>
<path d="M303.286 99.8896C303.2 99.8896 303.12 99.9123 303.035 99.9149V99.9083H280.306C280.243 99.9069 280.184 99.8896 280.12 99.8896C280.058 99.8896 279.999 99.9069 279.936 99.9083H279.823V99.9202C276.602 100.079 274.031 102.719 274.031 105.98C274.031 109.343 276.758 112.07 280.12 112.07C282.951 112.07 285.308 110.131 285.991 107.515H297.415C298.099 110.131 300.456 112.07 303.286 112.07C306.65 112.07 309.376 109.343 309.376 105.98C309.376 102.616 306.65 99.8896 303.286 99.8896Z" fill="#F5FCFE" style="fill:#F5FCFE;fill:color(display-p3 0.9608 0.9882 0.9961);fill-opacity:1;"/>
<path d="M279.996 234.679H303.411V231.232H279.996V234.679ZM305.747 239.352H277.66C276.37 239.352 275.323 238.306 275.323 237.015V228.896C275.323 227.606 276.37 226.56 277.66 226.56H305.747C307.038 226.56 308.084 227.606 308.084 228.896V237.015C308.084 238.306 307.038 239.352 305.747 239.352Z" fill="#2D2C5F" style="fill:#2D2C5F;fill:color(display-p3 0.1765 0.1725 0.3725);fill-opacity:1;"/>
<path d="M285.992 105.178H297.415C298.479 105.178 299.408 105.896 299.675 106.924C300.107 108.579 301.592 109.734 303.287 109.734C305.355 109.734 307.039 108.05 307.039 105.98C307.039 103.942 305.407 102.278 303.38 102.227C303.235 102.243 303.111 102.25 303.034 102.251C302.978 102.251 302.922 102.25 302.866 102.246H280.304C280.256 102.246 280.195 102.243 280.13 102.238C280.119 102.238 280.108 102.239 280.098 102.239C280.044 102.246 279.991 102.25 279.936 102.254C277.935 102.352 276.367 103.988 276.367 105.98C276.367 108.05 278.051 109.734 280.12 109.734C281.814 109.734 283.299 108.578 283.732 106.923C284.002 105.895 284.928 105.178 285.992 105.178ZM303.287 114.407C300.1 114.407 297.244 112.603 295.824 109.851H287.583C286.162 112.603 283.306 114.407 280.12 114.407C275.474 114.407 271.694 110.627 271.694 105.98C271.694 101.58 275.079 97.9496 279.448 97.603C279.566 97.583 279.687 97.5723 279.811 97.5723C280.092 97.5456 280.284 97.5537 280.471 97.5763L302.976 97.5723C303.03 97.5616 303.158 97.5536 303.287 97.5536C307.932 97.5536 311.711 101.332 311.711 105.98C311.711 110.627 307.932 114.407 303.287 114.407Z" fill="#2D2C5F" style="fill:#2D2C5F;fill:color(display-p3 0.1765 0.1725 0.3725);fill-opacity:1;"/>
<path d="M333.084 109.662V228.896H344.664V109.662H333.084Z" fill="#DEF4FD" style="fill:#DEF4FD;fill:color(display-p3 0.8706 0.9569 0.9922);fill-opacity:1;"/>
<path d="M335.42 226.561H342.33V111.998H335.42V226.561ZM344.666 231.232H333.084C331.794 231.232 330.748 230.185 330.748 228.896V109.66C330.748 108.371 331.794 107.324 333.084 107.324H344.666C345.955 107.324 347.002 108.371 347.002 109.66V228.896C347.002 230.185 345.955 231.232 344.666 231.232Z" fill="#2D2C5F" style="fill:#2D2C5F;fill:color(display-p3 0.1765 0.1725 0.3725);fill-opacity:1;"/>
<path d="M350.456 99.8896C350.371 99.8896 350.291 99.9123 350.206 99.9149V99.9083H327.476C327.414 99.9069 327.355 99.8896 327.291 99.8896C327.228 99.8896 327.17 99.9069 327.107 99.9083H326.994V99.9202C323.772 100.079 321.202 102.719 321.202 105.98C321.202 109.343 323.928 112.07 327.291 112.07C330.122 112.07 332.479 110.131 333.163 107.515H344.586C345.27 110.131 347.627 112.07 350.456 112.07C353.82 112.07 356.547 109.343 356.547 105.98C356.547 102.616 353.82 99.8896 350.456 99.8896Z" fill="#F5FCFE" style="fill:#F5FCFE;fill:color(display-p3 0.9608 0.9882 0.9961);fill-opacity:1;"/>
<path d="M327.167 234.679H350.58V231.232H327.167V234.679ZM352.918 239.352H324.831C323.54 239.352 322.495 238.306 322.495 237.015V228.896C322.495 227.606 323.54 226.56 324.831 226.56H352.918C354.207 226.56 355.254 227.606 355.254 228.896V237.015C355.254 238.306 354.207 239.352 352.918 239.352Z" fill="#2D2C5F" style="fill:#2D2C5F;fill:color(display-p3 0.1765 0.1725 0.3725);fill-opacity:1;"/>
<path d="M333.162 105.178H344.586C345.65 105.178 346.579 105.896 346.847 106.924C347.279 108.579 348.763 109.734 350.458 109.734C352.526 109.734 354.21 108.05 354.21 105.98C354.21 103.942 352.578 102.278 350.552 102.227C350.406 102.243 350.286 102.25 350.204 102.251C350.148 102.251 350.092 102.25 350.036 102.246H327.476C327.427 102.246 327.367 102.243 327.302 102.238C327.291 102.238 327.28 102.239 327.27 102.239C327.216 102.246 327.163 102.25 327.108 102.254C325.106 102.352 323.538 103.988 323.538 105.98C323.538 108.05 325.222 109.734 327.292 109.734C328.984 109.734 330.47 108.579 330.902 106.924C331.17 105.896 332.099 105.178 333.162 105.178ZM350.458 114.407C347.271 114.407 344.416 112.603 342.995 109.851H334.754C333.332 112.603 330.476 114.407 327.292 114.407C322.646 114.407 318.866 110.627 318.866 105.98C318.866 101.58 322.25 97.9496 326.619 97.603C326.736 97.583 326.859 97.5723 326.982 97.5723C327.248 97.547 327.435 97.551 327.619 97.5723H350.147C350.2 97.5616 350.328 97.5536 350.458 97.5536C355.103 97.5536 358.883 101.332 358.883 105.98C358.883 110.627 355.103 114.407 350.458 114.407Z" fill="#2D2C5F" style="fill:#2D2C5F;fill:color(display-p3 0.1765 0.1725 0.3725);fill-opacity:1;"/>
<path d="M91.1178 248.619H350.58V239.352H91.1178V248.619ZM352.918 253.292H88.7818C87.4911 253.292 86.4458 252.246 86.4458 250.956V237.015C86.4458 235.725 87.4911 234.679 88.7818 234.679H352.918C354.207 234.679 355.254 235.725 355.254 237.015V250.956C355.254 252.246 354.207 253.292 352.918 253.292Z" fill="#2D2C5F" style="fill:#2D2C5F;fill:color(display-p3 0.1765 0.1725 0.3725);fill-opacity:1;"/>
<path fill-rule="evenodd" clip-rule="evenodd" d="M0 170.501C58.9111 137.271 111.698 154.295 160.72 196.916C177.298 211.327 193.516 229.657 215.579 235.476C269.453 249.68 309.886 176.574 373.318 185.438C431.919 193.635 474.678 236.322 522.804 265.811C543.114 278.248 600 302.162 600 302.162H0.289718L0 170.501Z" fill="#FFF8EE" style="fill:#FFF8EE;fill:color(display-p3 1.0000 0.9719 0.9333);fill-opacity:1;"/>
</svg>
