<?xml version="1.0" encoding="utf-8"?>
<!-- Generator: Adobe Illustrator 27.0.0, SVG Export Plug-In . SVG Version: 6.00 Build 0)  -->
<svg version="1.1" id="Layer_1" xmlns="http://www.w3.org/2000/svg" xmlns:xlink="http://www.w3.org/1999/xlink" x="0px" y="0px"
	 viewBox="0 0 2259 1200" style="enable-background:new 0 0 2259 1200;" xml:space="preserve">
<style type="text/css">
	.st0{fill:url(#SVGID_1_);}
	.st1{fill:url(#SVGID_00000114073918042757739350000013583821599870540184_);}
	.st2{fill:url(#SVGID_00000109026952439963617240000008835955864928471427_);}
	.st3{fill:url(#SVGID_00000083073403503534763030000006621314441831337142_);}
	.st4{fill:url(#SVGID_00000052080575889696103020000010042521063937843382_);}
</style>
<g>
	<g>
		<g>
			<linearGradient id="SVGID_1_" gradientUnits="userSpaceOnUse" x1="914.4122" y1="0" x2="914.4122" y2="752.8124">
				<stop  offset="3.178914e-07" style="stop-color:#3F00BF"/>
				<stop  offset="1" style="stop-color:#FF007F"/>
			</linearGradient>
			<path class="st0" d="M968.18,537.72V107.54V53.77c0-29.7-24.07-53.77-53.77-53.77H753.09v107.54
				c59.4,0,107.54,48.15,107.54,107.54v483.95c0,29.7,24.07,53.77,53.77,53.77h53.77h107.55V645.27
				C1016.34,645.27,968.18,597.12,968.18,537.72z"/>
			
				<linearGradient id="SVGID_00000170279009837636394530000011582312770124272054_" gradientUnits="userSpaceOnUse" x1="1344.5878" y1="0" x2="1344.5878" y2="752.8124">
				<stop  offset="3.178914e-07" style="stop-color:#3F00BF"/>
				<stop  offset="1" style="stop-color:#FF007F"/>
			</linearGradient>
			<path style="fill:url(#SVGID_00000170279009837636394530000011582312770124272054_);" d="M1344.59,0
				c-29.7,0-53.77,24.07-53.77,53.77v53.77v430.18c0,59.4-48.15,107.54-107.55,107.54v107.55h107.55h53.77
				c29.7,0,53.77-24.07,53.77-53.77V215.09c0-59.4,48.15-107.54,107.54-107.54V0H1344.59z"/>
			
				<linearGradient id="SVGID_00000168815999292650841130000005156771187295034806_" gradientUnits="userSpaceOnUse" x1="1129.5" y1="2.552668e-03" x2="1129.5" y2="752.8098">
				<stop  offset="3.178914e-07" style="stop-color:#3F00BF"/>
				<stop  offset="1" style="stop-color:#FF007F"/>
			</linearGradient>
			
				<ellipse style="fill:url(#SVGID_00000168815999292650841130000005156771187295034806_);" cx="1129.5" cy="483.95" rx="53.77" ry="53.77"/>
			
				<linearGradient id="SVGID_00000107560405229797479760000008734763650091542189_" gradientUnits="userSpaceOnUse" x1="1129.5" y1="-5.105336e-03" x2="1129.5" y2="752.82">
				<stop  offset="3.178914e-07" style="stop-color:#3F00BF"/>
				<stop  offset="1" style="stop-color:#FF007F"/>
			</linearGradient>
			<path style="fill:url(#SVGID_00000107560405229797479760000008734763650091542189_);" d="M1129.5,322.63
				c29.7,0,53.77-24.08,53.77-53.77c0-29.7-24.07-53.77-53.77-53.77s-53.77,24.07-53.77,53.77
				C1075.73,298.56,1099.8,322.63,1129.5,322.63z"/>
			
				<linearGradient id="SVGID_00000091698224989711855640000018227587336946872721_" gradientUnits="userSpaceOnUse" x1="1129.5" y1="0" x2="1129.5" y2="752.8073">
				<stop  offset="3.178914e-07" style="stop-color:#3F00BF"/>
				<stop  offset="1" style="stop-color:#FF007F"/>
			</linearGradient>
			
				<ellipse style="fill:url(#SVGID_00000091698224989711855640000018227587336946872721_);" cx="1129.5" cy="53.77" rx="53.77" ry="53.77"/>
		</g>
	</g>
	<g>
		<g>
			<path d="M111.73,1012.04v184.03H62.06v-184.03H0.28V967.9h173.25v44.14H111.73z"/>
			<path d="M345.79,1102.58h-86.96v93.49h-49.67V967.9h49.67v90.55h86.96V967.9h49.69v228.17h-49.69V1102.58z"/>
			<path d="M497.12,1196.07h-49.67V967.9h108.2c10.45,0,19.94,1.76,28.43,5.24c8.51,3.49,15.75,8.45,21.75,14.88
				c5.98,6.43,10.62,14.11,13.88,23.04c3.28,8.94,4.92,18.86,4.92,29.75c0,15.47-3.43,28.99-10.3,40.53
				c-6.87,11.56-17.28,19.94-31.22,25.18l44.78,89.56h-55.23l-39.88-83.68h-35.65V1196.07z M549.43,1070.55
				c7.41,0,13.24-1.92,17.49-5.72c4.24-3.81,6.36-9.43,6.36-16.83v-14.39c0-7.41-2.13-13.01-6.36-16.83
				c-4.26-3.81-10.09-5.72-17.49-5.72h-52.31v59.5H549.43z"/>
			<path d="M660.59,1196.07v-39.55H690v-149.06h-29.41V967.9h108.54v39.56h-29.43v149.06h29.43v39.55H660.59z"/>
			<path d="M812.26,1196.07V967.9h49.67v184.04h86.96v44.13H812.26z"/>
			<path d="M987.16,1196.07V967.9h49.67v184.04h86.96v44.13H987.16z"/>
			<path d="M1162.03,967.9h85.96c15.05,0,28.77,2.4,41.2,7.19c12.41,4.8,22.98,11.94,31.71,21.41c8.7,9.48,15.47,21.37,20.26,35.64
				c4.79,14.28,7.19,30.89,7.19,49.85c0,18.95-2.4,35.57-7.19,49.85c-4.79,14.27-11.56,26.14-20.26,35.63
				c-8.73,9.48-19.3,16.62-31.71,21.41c-12.43,4.8-26.16,7.19-41.2,7.19h-85.96V967.9z M1247.99,1151.95
				c14.83,0,26.5-4.14,34.99-12.43c8.49-8.28,12.75-21.57,12.75-39.87v-35.31c0-18.3-4.26-31.59-12.75-39.88
				c-8.49-8.28-20.15-12.42-34.99-12.42h-36.29v139.91H1247.99z"/>
			<path d="M1470.27,1196.07V967.9h49.67v184.04h86.96v44.13H1470.27z"/>
			<path d="M1791.29,1196.07l-16.34-54.27h-76.17l-16.34,54.27h-50.35l75.19-228.17h61.46l74.19,228.17H1791.29z M1737.34,1013.02
				h-1.64l-25.16,86.63h52.29L1737.34,1013.02z"/>
			<path d="M1876.26,967.9h110.81c18.96,0,33.71,5.35,44.29,16.03c10.58,10.67,15.85,24.84,15.85,42.49
				c0,8.73-1.15,16.13-3.43,22.23c-2.3,6.11-5.34,11.12-9.15,15.04c-3.83,3.93-8.3,6.82-13.41,8.66
				c-5.13,1.86-10.62,2.89-16.51,3.11v1.97c5.45,0,11.17,0.98,17.17,2.94c5.98,1.96,11.49,5.06,16.49,9.32
				c5.02,4.25,9.21,9.75,12.6,16.5c3.36,6.76,5.06,15.04,5.06,24.85c0,8.94-1.47,17.38-4.43,25.34
				c-2.94,7.95-7.02,14.87-12.26,20.75c-5.21,5.88-11.43,10.52-18.62,13.9c-7.19,3.38-15.05,5.07-23.54,5.07h-120.94V967.9z
				 M1925.94,1061.39h49.37c6.53,0,11.64-1.84,15.37-5.55c3.7-3.7,5.55-8.82,5.55-15.37v-9.8c0-6.54-1.85-11.66-5.55-15.37
				c-3.72-3.7-8.83-5.55-15.37-5.55h-49.37V1061.39z M1925.94,1154.23h57.21c6.55,0,11.73-1.8,15.54-5.39s5.72-8.66,5.72-15.21
				v-11.11c0-6.53-1.92-11.61-5.72-15.2c-3.81-3.6-8.98-5.39-15.54-5.39h-57.21V1154.23z"/>
			<path d="M2169.8,1200c-20.05,0-37.05-3.44-50.99-10.31c-13.96-6.87-25.84-15.77-35.63-26.69l32.69-33.05
				c15.47,17.28,34.54,25.91,57.21,25.91c12.19,0,21.24-2.48,27.13-7.44c5.87-4.97,8.81-11.56,8.81-19.77
				c0-6.26-1.75-11.49-5.21-15.71c-3.49-4.21-10.58-7.08-21.26-8.59l-22.56-2.92c-24.18-3.05-41.88-10.36-53.12-21.93
				c-11.22-11.56-16.83-26.94-16.83-46.14c0-10.26,1.96-19.64,5.9-28.16c3.92-8.5,9.53-15.81,16.83-21.92
				c7.3-6.11,16.22-10.86,26.79-14.25c10.58-3.37,22.62-5.07,36.14-5.07c17.2,0,32.35,2.73,45.44,8.18
				c13.07,5.46,24.28,13.43,33.67,23.9l-33.03,33.4c-5.45-6.26-12.05-11.38-19.77-15.37c-7.75-3.99-17.49-5.99-29.26-5.99
				c-11.11,0-19.39,1.94-24.84,5.82c-5.45,3.88-8.17,9.28-8.17,16.17c0,7.77,2.13,13.38,6.36,16.83c4.26,3.45,11.17,5.93,20.77,7.44
				l22.56,3.6c23.54,3.71,40.97,10.97,52.29,21.77c11.34,10.79,17,26.12,17,45.97c0,10.91-1.96,20.94-5.87,30.1
				c-3.94,9.16-9.66,17.01-17.17,23.56c-7.51,6.55-16.83,11.62-27.94,15.22C2196.62,1198.19,2183.98,1200,2169.8,1200z"/>
		</g>
	</g>
</g>
</svg>
