<svg width="800" height="436" viewBox="0 0 800 436" fill="none" xmlns="http://www.w3.org/2000/svg">
<path d="M421.416 332.382C419.276 332.382 417.542 330.646 417.542 328.508V3.87393C417.542 1.73569 419.276 -0.00012207 421.416 -0.00012207C423.557 -0.00012207 425.293 1.73569 425.293 3.87393V328.508C425.293 330.646 423.557 332.382 421.416 332.382Z" fill="#2D2C5F" style="fill:#2D2C5F;fill:color(display-p3 0.1765 0.1725 0.3725);fill-opacity:1;"/>
<path d="M421.416 3.87369L557.562 313.704H421.416C421.416 313.704 461.344 162.586 421.416 3.87369Z" fill="#FFFFFA" style="fill:#FFFFFA;fill:color(display-p3 1.0000 1.0000 0.9804);fill-opacity:1;"/>
<path d="M426.341 309.828H551.628L433.187 40.2878C456.095 168.339 432.101 284.956 426.341 309.828ZM557.563 317.578H421.416C420.216 317.578 419.081 317.021 418.347 316.067C417.615 315.115 417.365 313.876 417.67 312.714C418.066 311.212 456.869 160.677 417.659 4.81998C417.169 2.86526 418.254 0.861908 420.16 0.207397C422.069 -0.438263 424.156 0.470551 424.963 2.3147L561.109 312.145C561.638 313.343 561.523 314.725 560.807 315.822C560.092 316.917 558.872 317.578 557.563 317.578Z" fill="#2D2C5F" style="fill:#2D2C5F;fill:color(display-p3 0.1765 0.1725 0.3725);fill-opacity:1;"/>
<path d="M421.416 3.87323L239.898 278.988H418.172L421.416 3.87323Z" fill="#FFFFFA" style="fill:#FFFFFA;fill:color(display-p3 1.0000 1.0000 0.9804);fill-opacity:1;"/>
<path d="M247.095 275.114H414.342L417.387 17.0174L247.095 275.114ZM418.172 282.863H239.898C238.472 282.863 237.16 282.082 236.486 280.826C235.809 279.567 235.878 278.045 236.663 276.854L418.183 1.74011C419.13 0.305023 420.912 -0.325165 422.553 0.167938C424.198 0.672089 425.312 2.20227 425.292 3.92038L422.046 279.034C422.022 281.155 420.293 282.863 418.172 282.863Z" fill="#2D2C5F" style="fill:#2D2C5F;fill:color(display-p3 0.1765 0.1725 0.3725);fill-opacity:1;"/>
<path d="M283.671 293.031H333.558L348.232 324.333H446.049L461.7 368.352H283.671V293.031Z" fill="#F6836C" style="fill:#F6836C;fill:color(display-p3 0.9647 0.5137 0.4235);fill-opacity:1;"/>
<path d="M287.547 364.476H456.21L443.316 328.208H348.232C346.728 328.208 345.359 327.339 344.723 325.978L331.095 296.905H287.547V364.476ZM461.7 372.225H283.671C281.531 372.225 279.797 370.49 279.797 368.352V293.031C279.797 290.891 281.531 289.158 283.671 289.158H333.558C335.062 289.158 336.428 290.026 337.067 291.387L350.695 320.459H446.049C447.69 320.459 449.151 321.489 449.7 323.033L465.351 367.052C465.773 368.241 465.592 369.557 464.867 370.585C464.139 371.613 462.96 372.225 461.7 372.225Z" fill="#2D2C5F" style="fill:#2D2C5F;fill:color(display-p3 0.1765 0.1725 0.3725);fill-opacity:1;"/>
<path d="M299.285 318.763H328.378L323.635 308.643H299.285V318.763ZM334.474 326.514H295.408C293.27 326.514 291.534 324.778 291.534 322.638V304.769C291.534 302.63 293.27 300.895 295.408 300.895H326.098C327.601 300.895 328.968 301.764 329.607 303.124L337.983 320.995C338.545 322.195 338.454 323.6 337.744 324.716C337.032 325.835 335.798 326.514 334.474 326.514Z" fill="#2D2C5F" style="fill:#2D2C5F;fill:color(display-p3 0.1765 0.1725 0.3725);fill-opacity:1;"/>
<path d="M382.926 352.738H395.094V339.947H382.926V352.738ZM398.968 360.489H379.05C376.909 360.489 375.176 358.754 375.176 356.615V336.073C375.176 333.935 376.909 332.198 379.05 332.198H398.968C401.109 332.198 402.844 333.935 402.844 336.073V356.615C402.844 358.754 401.109 360.489 398.968 360.489Z" fill="#2D2C5F" style="fill:#2D2C5F;fill:color(display-p3 0.1765 0.1725 0.3725);fill-opacity:1;"/>
<path d="M350.516 352.738H362.686V339.947H350.516V352.738ZM366.563 360.489H346.642C344.501 360.489 342.768 358.754 342.768 356.615V336.073C342.768 333.935 344.501 332.198 346.642 332.198H366.563C368.703 332.198 370.437 333.935 370.437 336.073V356.615C370.437 358.754 368.703 360.489 366.563 360.489Z" fill="#2D2C5F" style="fill:#2D2C5F;fill:color(display-p3 0.1765 0.1725 0.3725);fill-opacity:1;"/>
<path d="M415.331 352.738H427.504V339.947H415.331V352.738ZM431.378 360.489H411.457C409.316 360.489 407.583 358.754 407.583 356.615V336.073C407.583 333.935 409.316 332.198 411.457 332.198H431.378C433.518 332.198 435.252 333.935 435.252 336.073V356.615C435.252 358.754 433.518 360.489 431.378 360.489Z" fill="#2D2C5F" style="fill:#2D2C5F;fill:color(display-p3 0.1765 0.1725 0.3725);fill-opacity:1;"/>
<path d="M294.431 338.779V370.691H332.335V338.779H294.431Z" fill="#A88B88" style="fill:#A88B88;fill:color(display-p3 0.6588 0.5451 0.5333);fill-opacity:1;"/>
<path d="M298.307 366.817H328.461V342.655H298.307V366.817ZM332.338 374.567H294.431C292.29 374.567 290.557 372.831 290.557 370.691V338.779C290.557 336.641 292.29 334.905 294.431 334.905H332.338C334.476 334.905 336.212 336.641 336.212 338.779V370.691C336.212 372.831 334.476 374.567 332.338 374.567Z" fill="#2D2C5F" style="fill:#2D2C5F;fill:color(display-p3 0.1765 0.1725 0.3725);fill-opacity:1;"/>
<path d="M538.338 399.428L577.128 355.635L184.874 365.417L200.446 399.428H538.338Z" fill="#FFFFFA" style="fill:#FFFFFA;fill:color(display-p3 1.0000 1.0000 0.9804);fill-opacity:1;"/>
<path d="M202.933 395.554H536.594L568.322 359.732L190.842 369.143L202.933 395.554ZM538.338 403.304H200.445C198.931 403.304 197.553 402.419 196.923 401.04L181.352 367.029C180.81 365.846 180.898 364.468 181.588 363.363C182.278 362.262 183.477 361.577 184.777 361.543L577.03 351.761C578.615 351.719 579.989 352.6 580.639 354.001C581.289 355.398 581.048 357.05 580.026 358.202L541.239 401.997C540.505 402.829 539.448 403.304 538.338 403.304Z" fill="#2D2C5F" style="fill:#2D2C5F;fill:color(display-p3 0.1765 0.1725 0.3725);fill-opacity:1;"/>
<path d="M190.842 369.144L195.906 380.204L558.191 371.169L568.322 359.733L190.842 369.144ZM193.447 388.017C191.934 388.017 190.557 387.137 189.924 385.754L181.352 367.03C180.81 365.847 180.898 364.469 181.588 363.363C182.278 362.262 183.477 361.577 184.777 361.544L577.03 351.762C578.615 351.719 579.989 352.601 580.639 354.001C581.289 355.399 581.048 357.05 580.026 358.203L562.874 377.568C562.16 378.375 561.145 378.849 560.07 378.875L193.544 388.017C193.511 388.017 193.478 388.017 193.447 388.017Z" fill="#2D2C5F" style="fill:#2D2C5F;fill:color(display-p3 0.1765 0.1725 0.3725);fill-opacity:1;"/>
<path fill-rule="evenodd" clip-rule="evenodd" d="M0 434.555C5.79467 425.772 12.01 418.857 18.7976 410.806C26.6009 401.543 36.7122 394.114 49.0936 392.636C80.1286 388.939 99.6805 419.963 125.425 418.163C150.866 416.378 159.863 380.673 185.482 374.485C212.208 368.031 231.874 393.382 253.889 390.712C269.837 388.777 276.795 365.395 289.908 357.081C298.359 351.722 318.218 351.456 318.218 351.456V434.555H0Z" fill="#FFF8EE" style="fill:#FFF8EE;fill:color(display-p3 1.0000 0.9719 0.9333);fill-opacity:1;"/>
<path fill-rule="evenodd" clip-rule="evenodd" d="M800 435.126C775.598 415.945 760.155 381.981 728.316 373.41C684.876 361.722 670.059 399.513 635.324 407.573C614.732 412.348 604.403 394.807 586.39 395.011C569.611 395.205 561.37 411.984 546.708 417.144C532.769 422.049 524.779 411.794 512.142 413.516C501.306 414.997 490.642 427.564 481.782 433.499L800 435.126Z" fill="#FFF8EE" style="fill:#FFF8EE;fill:color(display-p3 1.0000 0.9719 0.9333);fill-opacity:1;"/>
<path fill-rule="evenodd" clip-rule="evenodd" d="M318.218 351.126C349.462 330 377.458 340.823 403.458 367.919C412.25 377.081 420.852 388.735 432.553 392.434C461.126 401.464 482.57 354.987 516.212 360.622C547.292 365.834 569.97 392.972 595.494 411.719C606.266 419.625 636.436 434.829 636.436 434.829H318.372L318.218 351.126Z" fill="#FFF8EE" style="fill:#FFF8EE;fill:color(display-p3 1.0000 0.9719 0.9333);fill-opacity:1;"/>
</svg>
