<svg width="1009" height="2266" viewBox="0 0 1009 2266" fill="none" xmlns="http://www.w3.org/2000/svg">
<path d="M993.686 1625.96C991.924 1629.14 988.534 1631.29 984.64 1631.29H955.853C951.959 1631.29 948.569 1629.14 946.808 1625.96H935.472C933.711 1629.14 930.321 1631.29 926.427 1631.29H897.64C893.746 1631.29 890.355 1629.14 888.594 1625.96H877.246C875.484 1629.14 872.094 1631.29 868.2 1631.29H839.413C835.532 1631.29 832.136 1629.14 830.37 1625.96H819.032C817.271 1629.14 813.881 1631.29 809.987 1631.29H781.2C777.306 1631.29 773.916 1629.14 772.154 1625.96H760.816C759.051 1629.14 755.654 1631.29 751.773 1631.29H722.987C719.092 1631.29 715.702 1629.14 713.941 1625.96H702.592C700.831 1629.14 697.441 1631.29 693.547 1631.29H664.76C660.866 1631.29 657.475 1629.14 655.714 1625.96H644.379C642.618 1629.14 639.227 1631.29 635.333 1631.29H606.547C602.652 1631.29 599.262 1629.14 597.501 1625.96H586.152C584.391 1629.14 581.001 1631.29 577.107 1631.29H548.32C544.426 1631.29 541.036 1629.14 539.274 1625.96H527.939C526.178 1629.14 522.787 1631.29 518.893 1631.29H490.107C486.212 1631.29 482.822 1629.14 481.061 1625.96H469.712C467.951 1629.14 464.561 1631.29 460.667 1631.29H431.88C427.999 1631.29 424.602 1629.14 422.837 1625.96H411.499C409.738 1629.14 406.347 1631.29 402.453 1631.29H373.667C369.772 1631.29 366.382 1629.14 364.621 1625.96H353.272C351.511 1629.14 348.121 1631.29 344.227 1631.29H315.453C311.559 1631.29 308.169 1629.14 306.407 1625.96H295.059C293.298 1629.14 289.907 1631.29 286.013 1631.29H257.227C253.332 1631.29 249.942 1629.14 248.181 1625.96H236.846C235.084 1629.14 231.694 1631.29 227.8 1631.29H199.013C195.119 1631.29 191.729 1629.14 189.967 1625.96H178.619C176.858 1629.14 173.467 1631.29 169.573 1631.29H140.787C136.892 1631.29 133.502 1629.14 131.741 1625.96H120.406C118.644 1629.14 115.254 1631.29 111.36 1631.29H82.5733C78.6791 1631.29 75.2889 1629.14 73.5275 1625.96H62.1791C60.4177 1629.14 57.0275 1631.29 53.1333 1631.29H24.3466C20.4656 1631.29 17.069 1629.14 15.3032 1625.96H5V2178.91C49.1258 2181.41 84.4677 2216.75 86.9655 2260.87H111.906C114.378 2239.89 132.21 2223.63 153.853 2223.63C175.494 2223.63 193.34 2239.89 195.814 2260.87H228.773C231.246 2239.89 249.092 2223.63 270.733 2223.63C292.374 2223.63 310.22 2239.89 312.694 2260.87H345.653C348.126 2239.89 365.972 2223.63 387.613 2223.63C409.254 2223.63 427.1 2239.89 429.574 2260.87H462.533C465.006 2239.89 482.852 2223.63 504.493 2223.63C526.134 2223.63 543.98 2239.89 546.454 2260.87H579.413C581.886 2239.89 599.732 2223.63 621.373 2223.63C643.014 2223.63 660.86 2239.89 663.334 2260.87H696.293C698.766 2239.89 716.612 2223.63 738.253 2223.63C759.894 2223.63 777.74 2239.89 780.214 2260.87H813.173C815.646 2239.89 833.492 2223.63 855.133 2223.63C876.774 2223.63 894.62 2239.89 897.094 2260.87H922.021C924.519 2216.75 959.861 2181.41 1003.99 2178.91V1625.96H993.686Z" fill="#CA75AB" stroke="#EDDB55" style="fill:#CA75AB;fill:color(display-p3 0.7922 0.4588 0.6706);fill-opacity:1;stroke:#EDDB55;stroke:color(display-p3 0.9294 0.8588 0.3333);stroke-opacity:1;" stroke-width="10"/>
<path d="M993.686 1615.96H1003.99V86.9521C959.861 84.4551 924.519 49.115 922.021 5H897.094C894.62 25.9785 876.774 42.2401 855.133 42.2401C833.492 42.2401 815.646 25.9785 813.173 5H780.214C777.74 25.9784 759.894 42.2401 738.253 42.2401C716.612 42.2401 698.766 25.9785 696.293 5H663.334C660.86 25.9784 643.014 42.2401 621.373 42.2401C599.732 42.2401 581.886 25.9785 579.413 5H546.454C543.98 25.9785 526.134 42.2401 504.493 42.2401C482.852 42.2401 465.006 25.9784 462.533 5H429.574C427.1 25.9785 409.254 42.2401 387.613 42.2401C365.972 42.2401 348.126 25.9785 345.653 5H312.694C310.22 25.9784 292.374 42.2401 270.733 42.2401C249.092 42.2401 231.246 25.9785 228.773 5H195.814C193.34 25.9785 175.494 42.2401 153.853 42.2401C132.21 42.2401 114.378 25.9767 111.906 5H86.9655C84.4677 49.115 49.1258 84.4551 5 86.9521V1615.96H15.3033C17.069 1612.78 20.4656 1610.63 24.3466 1610.63H53.1333C57.0275 1610.63 60.4177 1612.78 62.1791 1615.96H73.5275C75.2889 1612.78 78.6791 1610.63 82.5733 1610.63H111.36C115.254 1610.63 118.644 1612.78 120.406 1615.96H131.741C133.502 1612.78 136.892 1610.63 140.787 1610.63H169.573C173.467 1610.63 176.858 1612.78 178.619 1615.96H189.967C191.729 1612.78 195.119 1610.63 199.013 1610.63H227.8C231.694 1610.63 235.084 1612.78 236.846 1615.96H248.181C249.942 1612.78 253.332 1610.63 257.227 1610.63H286.013C289.907 1610.63 293.298 1612.78 295.059 1615.96H306.407C308.169 1612.78 311.559 1610.63 315.453 1610.63H344.227C348.121 1610.63 351.511 1612.78 353.272 1615.96H364.621C366.382 1612.78 369.772 1610.63 373.667 1610.63H402.453C406.347 1610.63 409.738 1612.78 411.499 1615.96H422.837C424.602 1612.78 427.999 1610.63 431.88 1610.63H460.667C464.561 1610.63 467.951 1612.78 469.712 1615.96H481.061C482.822 1612.78 486.212 1610.63 490.107 1610.63H518.893C522.787 1610.63 526.178 1612.78 527.939 1615.96H539.274C541.036 1612.78 544.426 1610.63 548.32 1610.63H577.107C581.001 1610.63 584.391 1612.78 586.152 1615.96H597.501C599.262 1612.78 602.652 1610.63 606.547 1610.63H635.333C639.227 1610.63 642.618 1612.78 644.379 1615.96H655.714C657.475 1612.78 660.866 1610.63 664.76 1610.63H693.547C697.441 1610.63 700.831 1612.78 702.592 1615.96H713.941C715.702 1612.78 719.092 1610.63 722.987 1610.63H751.773C755.654 1610.63 759.051 1612.78 760.816 1615.96H772.154C773.916 1612.78 777.306 1610.63 781.2 1610.63H809.987C813.881 1610.63 817.271 1612.78 819.032 1615.96H830.37C832.136 1612.78 835.532 1610.63 839.413 1610.63H868.2C872.094 1610.63 875.484 1612.78 877.246 1615.96H888.594C890.355 1612.78 893.746 1610.63 897.64 1610.63H926.427C930.321 1610.63 933.711 1612.78 935.472 1615.96H946.808C948.569 1612.78 951.959 1610.63 955.853 1610.63H984.64C988.534 1610.63 991.924 1612.78 993.686 1615.96Z" fill="#CA75AB" stroke="#EDDB55" style="fill:#CA75AB;fill:color(display-p3 0.7922 0.4588 0.6706);fill-opacity:1;stroke:#EDDB55;stroke:color(display-p3 0.9294 0.8588 0.3333);stroke-opacity:1;" stroke-width="10"/>
</svg>
