<svg width="369" height="578" viewBox="0 0 369 578" fill="none" xmlns="http://www.w3.org/2000/svg">
<path d="M296.597 237.159C297.916 238.302 299.344 239.486 301.115 239.803C308.044 241.047 315.69 235.802 321.127 232.194C324.488 237.614 332.893 247.9 331.428 254.238C330.531 258.125 324.409 261.229 321.133 263.119C319.431 264.11 317.947 264.654 315.988 264.881C315.223 264.653 313.975 264.467 313.305 264.086C309.786 262.072 298.285 241.531 295.727 237.376L296.597 237.159Z" fill="#AA233F"/>
<path d="M277.778 207.968C274.434 203.268 263.607 190.557 264.48 185.163C265.069 181.498 266.881 179.552 269.858 177.465C272.823 175.383 277.16 173.005 280.888 173.649C284.624 174.292 286.331 176.236 288.329 179.223L321.127 232.194C315.69 235.802 308.044 241.047 301.115 239.803C299.344 239.486 297.916 238.302 296.597 237.159L285.257 219.937L277.778 207.968Z" fill="#E93F52"/>
<path d="M130.071 108.868L139.715 111.173L133.203 142.586C129.703 142.11 126.203 141.532 122.666 141.583C126.309 131.691 127.785 119.269 130.071 108.868Z" fill="#8F71C0"/>
<path d="M121.139 31.3404L135.946 34.9741L159.749 40.0726L191.279 47.046L216.778 52.6133C219.451 53.2457 222.694 53.6366 225.078 54.9879C228.401 56.7128 230.956 58.5828 232.285 62.3004C233.455 65.5926 233.09 67.7186 231.724 70.8483L231.432 71.6034L231.244 72.048C226.315 75.1946 222.658 76.4912 216.8 75.8632L213.648 90.8205L211.717 100.123L210.097 108.094C209.155 112.789 208.384 115.493 204.253 118.209C199.457 121.368 194.645 120.133 189.459 118.985L188.924 118.815C182.966 116.741 176.032 115.875 169.851 114.555L130.594 106.204L121.799 104.006C119.154 102.359 117.377 100.243 115.363 97.9107C114.311 94.7759 114.454 93.8361 115.078 90.7131L117.769 79.8485L119.275 72.7949L123.201 54.9531C116.972 53.4174 113.19 52.8555 109.579 47.0187C109.127 42.6981 109.404 40.3144 111.22 36.4228C111.509 35.9263 111.607 35.7048 111.956 35.2914C114.452 32.3792 117.525 31.7412 121.139 31.3404Z" fill="#EF9811"/>
<path d="M136.919 64.3117L137.19 64.445L135.355 73.6859C138.434 76.4727 141.545 79.04 144.968 81.3999C147.64 83.242 150.371 84.5291 152.698 86.8597C159.464 89.3069 166.05 90.7685 173.135 91.9974L173.654 92.4646L173.132 92.4618C169.14 92.3892 165.129 91.2918 161.218 90.5826C152.275 88.9688 141.088 86.7916 132.062 87.3655L131.167 87.413C125.85 87.792 121.138 90.8706 117.758 94.8571L115.364 97.9106C114.311 94.7758 114.454 93.836 115.078 90.7131L117.769 79.8484L132.915 83.0787L136.919 64.3117Z" fill="#F3B12E"/>
<path d="M135.355 73.6859C138.434 76.4727 141.545 79.0401 144.968 81.3999C147.64 83.242 150.371 84.5292 152.698 86.8597L133.528 82.7969L135.355 73.6859Z" fill="#F8EB95"/>
<path d="M123.201 54.9531L138.169 58.3546L136.919 64.3118L132.915 83.0788L117.769 79.8485L119.275 72.7949L123.201 54.9531Z" fill="#AA233F"/>
<path d="M197.474 96.8467L211.717 100.123L210.097 108.094C209.155 112.789 208.384 115.493 204.253 118.209C199.457 121.368 194.645 120.133 189.459 118.985L188.924 118.815C182.966 116.741 176.032 115.875 169.851 114.555L130.594 106.204L121.799 104.006L123.97 101.71C125.746 100.003 128.954 97.5014 131.438 97.1299C134.7 96.6441 139.5 97.8435 142.747 98.4244L168.445 103.817C173.818 104.973 179.239 106.382 184.778 106.417C188.62 106.441 192.838 105.197 195.535 102.283C197.282 100.389 197.487 99.2773 197.474 96.8467Z" fill="#EE6019"/>
<path d="M202.132 72.4038C206.356 73.3007 213.13 73.8034 216.8 75.8632L213.648 90.8204L211.717 100.123L197.474 96.8466L196.88 96.4782C189.514 97.4595 181.139 92.5587 173.654 92.4646L173.135 91.9974C166.05 90.7685 159.464 89.3069 152.698 86.8597C150.371 84.5292 147.64 83.242 144.968 81.3999C141.545 79.04 138.434 76.4727 135.355 73.6859L137.19 64.445L136.919 64.3117L138.169 58.3545L202.132 72.4038Z" fill="#F8EB95"/>
<path d="M202.132 72.4039C206.356 73.3007 213.13 73.8035 216.8 75.8632L213.648 90.8205L211.717 100.123L197.474 96.8467L196.88 96.4783L202.132 72.4039Z" fill="#4B2B84"/>
<path d="M137.19 64.445L138.599 60.8926C142.678 63.4736 146.266 65.9641 150.726 67.9454C160.761 72.402 170.23 73.8546 172.963 86.1085C173.377 87.9437 174.001 90.3305 173.135 91.9975C166.05 90.7685 159.464 89.307 152.698 86.8597C150.371 84.5292 147.64 83.242 144.968 81.3999C141.545 79.0401 138.434 76.4727 135.355 73.6859L137.19 64.445Z" fill="#FBF7D4"/>
<path d="M121.139 31.3404L135.946 34.9741L159.749 40.0726L191.279 47.046L216.778 52.6133C219.451 53.2457 222.694 53.6365 225.078 54.9879C228.401 56.7128 230.956 58.5828 232.285 62.3004C233.455 65.5926 233.09 67.7185 231.724 70.8483L231.432 71.6033L231.245 72.048C226.316 75.1946 222.658 76.4912 216.8 75.8632C213.13 73.8034 206.356 73.3007 202.132 72.4039L138.169 58.3546L123.201 54.9531C116.972 53.4173 113.19 52.8555 109.579 47.0187C109.127 42.6981 109.404 40.3143 111.22 36.4228C111.509 35.9263 111.607 35.7048 111.956 35.2914C114.452 32.3792 117.525 31.7412 121.139 31.3404Z" fill="#EE6019"/>
<path d="M188.618 50.0784C190.538 49.518 193.452 50.668 195.388 51.148C200.592 52.4357 215.063 57.4404 219.786 55.3107C220.545 54.9659 220.911 54.7577 221.781 54.7295L222.538 54.7135C222.874 58.1528 222.105 61.0752 219.852 63.7069C217.858 66.0371 215.55 67.7311 212.373 67.787C207.793 67.8657 202.145 65.6666 197.694 64.5679C187.524 62.0528 176.551 60.0827 166.811 56.2337C174.314 54.9654 181.623 53.0912 188.618 50.0784Z" fill="#EC7D16"/>
<path d="M121.139 31.3405L135.946 34.9742L159.749 40.0727L191.279 47.0461L216.778 52.6134C219.451 53.2458 222.694 53.6366 225.078 54.988L222.538 54.7135L221.781 54.7295C220.911 54.7577 220.544 54.9658 219.786 55.3107C215.063 57.4404 200.592 52.4357 195.388 51.148C193.451 50.668 190.538 49.518 188.617 50.0784C181.623 53.0912 174.313 54.9653 166.811 56.2337C160.607 56.3614 154.815 54.8632 148.792 53.5905L125.874 48.6769C120.653 48.5253 114.608 48.5068 109.579 47.0188C109.127 42.6982 109.404 40.3144 111.22 36.4229C111.509 35.9264 111.607 35.7049 111.956 35.2915C114.452 32.3793 117.525 31.7413 121.139 31.3405Z" fill="#F3B12E"/>
<path d="M121.139 31.3405L135.946 34.9741C128.835 35.7477 121.181 35.6168 115.048 39.8133L112.42 37.1251C111.904 36.5885 112.058 36.7663 111.22 36.4228C111.509 35.9264 111.607 35.7049 111.956 35.2914C114.452 32.3793 117.525 31.7412 121.139 31.3405Z" fill="#F4C718"/>
<path d="M184.746 48.4353L188.617 50.0782C181.623 53.0911 174.314 54.9652 166.811 56.2335C160.607 56.3613 154.815 54.8631 148.792 53.5904L125.875 48.6768C133.104 46.5836 139.999 44.7259 147.601 44.8701C155.137 45.0123 163.035 46.8918 170.576 47.6319C175.279 48.0899 180.024 48.8578 184.746 48.4353Z" fill="#EF9811"/>
<mask id="mask0_35_171" style="mask-type:luminance" maskUnits="userSpaceOnUse" x="-92" y="106" width="400" height="434">
<path d="M130.594 106.204L169.851 114.555C176.032 115.875 182.966 116.741 188.925 118.815L185.285 136.139L181.311 155.353C199.627 163.554 215.918 172.873 231.965 184.97C238.049 189.861 246.46 195.614 250.888 202.061C255.351 206.166 260.569 211.106 263.976 216.121L277.779 207.968L285.257 219.937L296.598 237.159L295.727 237.376L283.232 245.555C289.227 255.648 293.39 266.819 297.338 277.823C313.765 330.729 309.445 383.914 283.532 433.207C277.316 445.022 270.011 455.683 261.655 466.073C255.583 472.912 249.524 479.726 242.722 485.858C211.984 513.598 177.205 529.573 136.705 536.974C99.4432 542.354 62.7877 538.694 28.1603 523.268C12.1463 516.132 -2.12141 506.896 -16.2841 496.651C-42.5724 476.065 -61.0971 449.58 -74.7882 419.406L-84.4104 393.177L-87.2233 382.947C-88.7762 376.39 -91.8677 366.758 -91.0696 360.006C-92.3176 348.752 -92.0742 337.81 -91.5269 326.531L-85.4285 289.543C-85.8854 287.526 -82.2721 278.961 -81.4851 276.561C-74.6288 255.696 -63.5948 235.657 -50.2849 218.2L-37.4366 202.934C-33.6273 198.827 -25.0123 192.724 -23.366 187.8L-21.5348 173.842C-17.4072 169.616 -11.0197 166.31 -6.01526 163.176L-4.8791 164.135L-5.73456 165.85L-2.05992 172.017C-1.63693 171.229 0.137016 170.341 0.923812 169.809L1.91405 172.041C6.96862 167.885 12.886 164.81 18.6324 161.726C34.9849 153.221 53.1149 147.338 71.2209 144.148C88.1459 141.261 105.193 140.306 122.315 141.852L122.666 141.583C126.203 141.532 129.702 142.11 133.203 142.586L139.715 111.173L130.071 108.868L130.594 106.204Z" fill="white"/>
</mask>
<g mask="url(#mask0_35_171)">
<path d="M130.594 106.204L169.851 114.555C176.032 115.875 182.966 116.741 188.925 118.815L185.285 136.139L181.311 155.353C199.627 163.554 215.918 172.873 231.965 184.97C238.049 189.861 246.46 195.614 250.888 202.061C255.351 206.166 260.569 211.106 263.976 216.121L277.779 207.968L285.257 219.937L296.598 237.159L295.727 237.376L283.232 245.555C289.227 255.648 293.39 266.819 297.338 277.823C313.765 330.729 309.445 383.914 283.532 433.207C277.316 445.022 270.011 455.683 261.655 466.073C255.583 472.912 249.524 479.726 242.722 485.858C211.984 513.598 177.205 529.573 136.705 536.974C99.4432 542.354 62.7877 538.694 28.1603 523.268C12.1463 516.132 -2.12141 506.896 -16.2841 496.651C-42.5724 476.065 -61.0971 449.58 -74.7882 419.406L-84.4104 393.177L-87.2233 382.947C-88.7762 376.39 -91.8677 366.758 -91.0696 360.006C-92.3176 348.752 -92.0742 337.81 -91.5269 326.531L-85.4285 289.543C-85.8854 287.526 -82.2721 278.961 -81.4851 276.561C-74.6288 255.696 -63.5948 235.657 -50.2849 218.2L-37.4366 202.934C-33.6273 198.827 -25.0123 192.724 -23.366 187.8L-21.5348 173.842C-17.4072 169.616 -11.0197 166.31 -6.01526 163.176L-4.8791 164.135L-5.73456 165.85L-2.05992 172.017C-1.63693 171.229 0.137016 170.341 0.923812 169.809L1.91405 172.041C6.96862 167.885 12.886 164.81 18.6324 161.726C34.9849 153.221 53.1149 147.338 71.2209 144.148C88.1459 141.261 105.193 140.306 122.315 141.852L122.666 141.583C126.203 141.532 129.702 142.11 133.203 142.586L139.715 111.173L130.071 108.868L130.594 106.204Z" fill="url(#paint0_linear_35_171)"/>
</g>
<path d="M71.221 144.148C88.146 141.261 105.193 140.306 122.315 141.852L121.281 145.951C118.71 146.946 116.026 146.537 113.325 146.582L98.8434 147.397C88.3065 148.485 77.8026 149.987 67.4993 152.418C46.2754 157.412 25.817 165.405 7.29369 176.939C-3.91121 183.917 -14.7987 191.874 -26.6364 197.736C-22.9585 193.119 -19.5359 188.578 -14.9969 184.729C-12.6155 182.697 -9.56683 181.153 -7.41913 178.909C-5.45518 176.848 1.05869 174.208 1.91417 172.041C6.96873 167.885 12.8861 164.81 18.6325 161.727C34.985 153.221 53.115 147.338 71.221 144.148Z" fill="#8F71C0"/>
<path d="M130.594 106.204L169.851 114.555C176.032 115.875 182.966 116.741 188.925 118.815L185.285 136.139L180.975 155.102L163.478 148.878L133.203 142.586L139.715 111.173L130.071 108.868L130.594 106.204Z" fill="#625CB4"/>
<path d="M130.594 106.204L169.851 114.555C176.032 115.875 182.966 116.741 188.925 118.815L185.285 136.139L180.975 155.102L163.478 148.878L169.991 118.515L139.715 111.173L130.071 108.868L130.594 106.204Z" fill="#4B2B84"/>
<path d="M-91.0694 360.006C-89.241 361.471 -87.967 370.325 -87.1144 372.942C-85.6708 377.397 -83.7309 381.651 -81.7918 385.909C-71.8364 407.763 -59.707 429.762 -45.249 448.952C-14.223 490.109 31.4206 516.284 82.3898 523.367C128.762 529.813 178.044 516.904 215.345 488.539C256.15 457.506 283.565 413.532 290.493 362.389C296.224 320.108 290.342 272.227 270.753 233.965C265.171 223.073 257.48 212.474 250.103 202.758L250.889 202.061C255.351 206.166 260.569 211.106 263.976 216.121L277.779 207.968L285.257 219.937L296.598 237.159L295.727 237.376L283.232 245.555C289.227 255.648 293.39 266.819 297.338 277.823C313.765 330.729 309.445 383.914 283.532 433.207C277.316 445.022 270.012 455.683 261.655 466.073C255.583 472.912 249.525 479.726 242.722 485.858C211.985 513.598 177.206 529.573 136.705 536.974C99.4434 542.354 62.7879 538.694 28.1605 523.268C12.1465 516.132 -2.12122 506.896 -16.2839 496.651C-42.5722 476.065 -61.0969 449.58 -74.788 419.406L-84.4102 393.177L-87.2231 382.947C-88.776 376.39 -91.8675 366.758 -91.0694 360.006Z" fill="#4B2B84"/>
<path d="M277.779 207.968L285.257 219.937L296.598 237.159L295.727 237.376L283.232 245.555C281.838 244.493 281.264 242.051 280.64 240.442L278.3 235.833L268.024 221.275L263.976 216.121L277.779 207.968Z" fill="#263E7F"/>
<path d="M285.751 225.217L289.762 233.577L280.64 240.442L278.3 235.833C282.172 232.514 284.145 230.088 285.751 225.217Z" fill="#3565A1"/>
<path d="M268.024 221.275C270.666 219.255 274.278 216.282 277.794 216.798C280.957 217.258 283.473 221.514 285.2 223.879L285.751 225.217C284.145 230.088 282.172 232.514 278.3 235.833L268.024 221.275Z" fill="#65C0EB"/>
<path d="M131.534 164.705C174.724 171.19 214.073 193.666 240.964 228.255C269.874 265.437 282.828 312.099 276.973 358.835C272.664 393.279 256.488 428.38 233.243 454.011C225.239 462.84 216.198 470.447 206.786 477.713C170.44 505.79 124.169 514.442 79.4282 508.706C68.6353 506.515 58.2182 504.206 47.8119 500.508C14.5568 488.693 -12.1967 467.919 -33.7165 440.263C-60.1665 406.272 -72.8103 360.056 -67.3726 317.497C-61.5345 271.819 -38.5173 229.635 -1.91675 201.388C36.5942 171.665 83.2596 158.395 131.534 164.705Z" fill="#4B2B84"/>
<mask id="mask1_35_171" style="mask-type:luminance" maskUnits="userSpaceOnUse" x="-61" y="170" width="334" height="336">
<path d="M58.5107 497.472C55.0896 496.762 51.6354 495.507 48.3377 494.326C7.55644 479.701 -26.8263 448.272 -45.2993 409.084C-63.3934 370.686 -66.1154 322.524 -51.6784 282.492C-36.5683 240.582 -6.01525 205.312 34.5634 186.369C75.4002 167.318 122.018 164.995 164.452 180.648C206.609 196.19 239.266 227.893 257.767 268.705C275.511 307.841 276.828 353.655 261.709 393.905C248.111 434.96 217.188 468.943 178.729 488.241C142.832 506.251 98.5015 510.892 60.1508 498.159L58.5107 497.472Z" fill="white"/>
</mask>
<g mask="url(#mask1_35_171)">
<path d="M58.5107 497.472C55.0896 496.762 51.6354 495.507 48.3377 494.326C7.55644 479.701 -26.8263 448.272 -45.2993 409.084C-63.3934 370.686 -66.1154 322.524 -51.6784 282.492C-36.5683 240.582 -6.01525 205.312 34.5634 186.369C75.4002 167.318 122.018 164.995 164.452 180.648C206.609 196.19 239.266 227.893 257.767 268.705C275.511 307.841 276.828 353.655 261.709 393.905C248.111 434.96 217.188 468.943 178.729 488.241C142.832 506.251 98.5015 510.892 60.1508 498.159L58.5107 497.472Z" fill="url(#paint1_linear_35_171)"/>
</g>
<path d="M76.673 482.65L65.4413 479.849C26.7462 468.054 -7.27308 440.07 -26.1756 404.265C-44.3187 369.902 -45.2018 331.173 -33.6851 294.548C-22.4005 258.667 4.87179 226.176 38.3393 208.895C75.4847 189.713 115.244 186.236 155.11 199.118C190.712 210.622 220.273 237.67 237.099 270.792C255.397 306.785 257.759 347.261 245.361 385.528C240.754 397.119 235.648 408.773 228.669 419.167C213.04 442.463 189.595 462.145 163.857 473.29C147.062 480.559 127.631 485.352 109.25 485.576C98.2796 485.709 87.483 484.271 76.673 482.65Z" fill="#41B8AA"/>
<mask id="mask2_35_171" style="mask-type:luminance" maskUnits="userSpaceOnUse" x="-36" y="197" width="283" height="284">
<path d="M-14.9772 412.16C-23.6137 399.841 -29.1883 384.181 -32.2892 369.518C-40.1781 332.1 -31.7046 293.808 -10.9062 261.982C9.90769 230.122 42.6809 208.328 79.8832 200.598C113.862 193.535 152.031 200.01 181.187 219.201C210.281 236.318 233.303 267.84 241.769 300.405C251.619 338.247 245.886 377.368 225.888 410.92C207.434 441.866 176 467.331 140.875 476.14C105.25 485.07 65.6014 479.399 34.0732 460.386C15.2512 449.033 -4.26999 431.549 -14.9772 412.16Z" fill="white"/>
</mask>
<g mask="url(#mask2_35_171)">
<path d="M-14.9772 412.16C-23.6137 399.841 -29.1883 384.181 -32.2892 369.518C-40.1781 332.1 -31.7046 293.808 -10.9062 261.982C9.90769 230.122 42.6809 208.328 79.8832 200.598C113.862 193.535 152.031 200.01 181.187 219.201C210.281 236.318 233.303 267.84 241.769 300.405C251.619 338.247 245.886 377.368 225.888 410.92C207.434 441.866 176 467.331 140.875 476.14C105.25 485.07 65.6014 479.399 34.0732 460.386C15.2512 449.033 -4.26999 431.549 -14.9772 412.16Z" fill="url(#paint2_linear_35_171)"/>
</g>
<path d="M82.1056 342.829C84.5611 348.002 91.3105 353.071 96.6718 354.94L104.89 357.104C102.679 356.827 100.455 356.478 98.2262 356.473C96.3294 358.754 96.9571 362.969 96.0028 365.74C94.1608 365.054 92.3519 364.01 90.7332 362.903C83.6056 358.04 80.5681 350.97 79.0953 342.802L82.1056 342.829Z" fill="#234D92"/>
<path d="M96.0992 366.127L106.017 368.238C105.223 374.854 103.445 381.495 102.07 388.025C101.03 392.925 100.336 398.235 98.2771 402.826C96.5327 404.145 95.6602 405.296 93.3146 404.863C91.3535 404.497 90.3328 403.29 89.2901 401.713C88.3356 397.658 90.0039 393.01 90.9168 388.995L96.0992 366.127Z" fill="#EE6019"/>
<path d="M79.0951 342.802L79.0382 336.103L-20.6395 314.196C-22.0373 312.455 -22.4824 311.44 -22.5665 309.204C-21.836 307.326 -21.7495 306.798 -19.93 305.738C-18.8496 305.105 -18.0256 304.968 -16.7848 305.128C-6.34172 306.489 4.45584 309.638 14.7951 311.89L80.2546 326.435L82.362 327.413C82.2371 332.323 82.761 338.014 82.1054 342.829L79.0951 342.802Z" fill="#3565A1"/>
<path d="M108.358 308.634L124.287 234.53C125.372 229.5 127.096 214.47 130.898 211.736C132.718 210.429 133.896 210.707 136.035 210.803C137.937 212.119 139.183 212.803 139.587 215.29C139.949 217.628 138.835 220.751 138.324 223.096L134.404 241.194L119.063 310.607L118.626 310.442L117.908 310.186C114.614 308.986 111.859 308.714 108.358 308.634Z" fill="#3565A1"/>
<path d="M108.321 214.369C111.082 214.84 113.386 215.561 115.29 217.75C116.75 219.434 117.84 222.075 117.569 224.337C117.299 226.632 115.502 229.116 113.373 230.026C108.798 231.986 101.955 231.814 96.919 232.794C85.7774 234.955 75.1259 238.228 64.6961 242.672C44.3912 251.319 27.1329 265.882 13.7447 283.264C9.57361 288.67 5.89447 295.99 0.499454 300.179C0.0746678 300.391 0.068651 300.419 -0.479903 300.538C-2.80738 301.059 -4.44176 300.27 -6.44145 299.175C-7.65013 297.624 -8.1108 296.453 -8.29501 294.487L-8.36235 293.645L-8.43319 292.914C-8.82749 287.026 5.84309 268.594 10.1508 263.354C35.1076 233.007 69.7792 218.128 108.321 214.369Z" fill="white"/>
<path d="M108.359 308.634C111.859 308.714 114.615 308.986 117.908 310.186L118.626 310.442L119.063 310.607C127.581 315.906 134.281 319.956 136.871 330.549L138.107 339.069L165.528 344.899L210.054 354.695C216.545 356.12 223.973 357.024 230.25 359.147C231.456 359.558 232.279 360.124 232.989 361.189C233.936 362.605 234.24 363.98 233.632 365.658C232.756 368.104 231.431 368.972 229.339 370.19C224.006 369.771 200.789 363.554 198.852 364.152L135.629 350.519C130.549 358.85 125.126 364.922 115.235 367.422C112.16 368.2 109.175 368.264 106.017 368.238L96.0992 366.127L96.0026 365.74C96.957 362.969 96.3293 358.754 98.2261 356.473C100.455 356.478 102.679 356.827 104.89 357.104L96.6717 354.94C91.3104 353.071 84.5609 348.002 82.1055 342.829C82.761 338.014 82.2371 332.324 82.362 327.413L80.2546 326.435C82.0024 325.421 83.2412 323.025 84.4691 321.433C88.4043 316.391 92.3382 313.146 98.1872 310.554L108.359 308.634Z" fill="#234D92"/>
<path d="M98.1872 310.554L98.6524 311.006C102.003 314.115 107.242 313.488 111.514 314.54C120.882 316.847 126.435 326.593 126.794 335.753C127.024 341.696 125.588 346.9 121.383 351.254C117.227 355.577 111.416 357.03 105.59 357.104L104.89 357.104L96.6716 354.94C91.3103 353.071 84.5608 348.002 82.1054 342.829C82.7609 338.014 82.237 332.324 82.3619 327.413L80.2545 326.435C82.0023 325.421 83.2411 323.025 84.469 321.433C88.4043 316.391 92.3381 313.146 98.1872 310.554Z" fill="#3565A1"/>
<path d="M181.187 219.201C210.281 236.318 233.303 267.84 241.769 300.405C251.619 338.247 245.886 377.368 225.888 410.92C207.434 441.866 176 467.331 140.875 476.14C105.25 485.07 65.6013 479.399 34.0731 460.386C15.2511 449.033 -4.27013 431.549 -14.9774 412.16C-11.4332 414.135 -8.90571 417.526 -6.09205 420.378C6.37318 433.048 24.7283 441.052 41.8549 444.652C45.2272 445.359 49.0306 446.485 52.4726 446.496C58.2249 446.516 64.3369 447.66 70.1696 447.954C84.7882 448.678 99.8167 446.241 113.679 441.645C151.496 429.115 181.328 399.206 198.852 364.152C200.788 363.554 224.006 369.771 229.338 370.19C231.431 368.972 232.756 368.104 233.631 365.658C234.24 363.98 233.935 362.605 232.989 361.189C232.279 360.124 231.456 359.558 230.25 359.147C223.973 357.024 216.545 356.12 210.054 354.695L165.528 344.899C178.13 345.887 191.939 350.249 204.362 352.984C208.786 332.14 211.392 311.18 208.506 289.873C206.334 273.857 200.953 258.137 194.185 243.517C190.298 235.135 185.099 227.524 181.187 219.201Z" fill="#EC7D16"/>
<path d="M17.9063 115.6C20.9356 116.257 23.204 116.818 25.8168 118.573L29.2795 123.052C30.9096 125.992 33.427 130.278 32.6084 133.766C31.2068 139.719 16.7271 147.053 11.5358 150.59L18.6323 161.726C12.8859 164.81 6.96855 167.885 1.91398 172.041L0.92374 169.809C0.136944 170.341 -1.637 171.229 -2.05999 172.018L-5.73463 165.85L-4.87918 164.136L-6.01533 163.176C-11.0198 166.31 -17.4073 169.616 -21.5349 173.842C-25.0563 176.177 -34.6509 184.017 -38.7661 183.452C-42.9725 182.872 -46.4322 179.755 -49.0058 176.614L-50.973 173.654C-52.8689 170.537 -53.0818 168.495 -52.2462 165.023L-51.6856 163.717L-51.4201 163.142C-48.8196 157.446 -40.2674 152.687 -35.0945 149.252L-9.2078 131.712C-0.692026 126.007 8.16368 118.894 17.9063 115.6Z" fill="#E93F52"/>
<path d="M11.536 150.59L18.6325 161.726C12.8861 164.81 6.96876 167.885 1.91419 172.041L0.92395 169.809C0.137154 170.341 -1.63679 171.229 -2.05978 172.017L-5.73442 165.85L-4.87897 164.135L-6.01512 163.176L11.536 150.59Z" fill="#263E7F"/>
<path d="M-4.87913 164.135L2.7437 159.807L6.63086 166.811L0.923786 169.809C0.13699 170.34 -1.63695 171.229 -2.05995 172.017L-5.73458 165.85L-4.87913 164.135Z" fill="white"/>
<path d="M17.9063 115.6C20.9357 116.257 23.2041 116.818 25.8168 118.573L29.2796 123.052C21.8395 129.429 13.058 134.183 5.04822 139.814L-31.6435 165.366C-37.3339 169.173 -42.9967 173.345 -49.0057 176.614L-50.973 173.654C-52.8688 170.537 -53.0817 168.495 -52.2461 165.023L-51.6855 163.717L-51.4201 163.141C-48.8196 157.446 -40.2674 152.687 -35.0944 149.252L-9.20776 131.712C-0.691978 126.007 8.16373 118.894 17.9063 115.6Z" fill="#EC7D16"/>
<path d="M17.9062 115.6C20.9356 116.257 23.204 116.818 25.8167 118.573C22.2281 120.103 18.3763 121.122 14.8944 122.86C6.34777 127.123 -1.7561 132.77 -9.79746 137.904L-52.2462 165.023L-51.6856 163.717L-51.4202 163.141C-48.8197 157.446 -40.2675 152.687 -35.0945 149.252L-9.20785 131.712C-0.692069 126.007 8.16364 118.894 17.9062 115.6Z" fill="#F3B12E"/>
<defs>
<linearGradient id="paint0_linear_35_171" x1="181.938" y1="506.879" x2="43.9585" y2="159.974" gradientUnits="userSpaceOnUse">
<stop stop-color="#5A48A7"/>
<stop offset="1" stop-color="#7F5CB4"/>
</linearGradient>
<linearGradient id="paint1_linear_35_171" x1="209.834" y1="467.383" x2="0.997559" y2="206.743" gradientUnits="userSpaceOnUse">
<stop stop-color="#6ED0E5"/>
<stop offset="1" stop-color="#D1F0F7"/>
</linearGradient>
<linearGradient id="paint2_linear_35_171" x1="119.116" y1="442.033" x2="87.4686" y2="200.076" gradientUnits="userSpaceOnUse">
<stop stop-color="#F8A50D"/>
<stop offset="1" stop-color="#FAF554"/>
</linearGradient>
</defs>
</svg>
