<svg width="229" height="46" viewBox="0 0 229 46" fill="none" xmlns="http://www.w3.org/2000/svg">
<path d="M11.9443 45L0.68025 11.144H10.0883L17.0003 34.12L15.5923 33.928L23.2723 16.008H28.5843L36.5843 33.992L34.9843 34.12L41.8963 11.144H51.3043L39.8483 45H33.2563L25.1923 25.736L26.2803 25.928L18.4722 45H11.9443ZM72.0143 45.64C68.3449 45.64 65.1236 44.8933 62.3503 43.4C59.6196 41.9067 57.4863 39.8587 55.9503 37.256C54.4569 34.6533 53.7103 31.688 53.7103 28.36C53.7103 25.7147 54.1369 23.304 54.9903 21.128C55.8436 18.9093 57.0383 17.0107 58.5743 15.432C60.1103 13.8533 61.9236 12.6373 64.0143 11.784C66.1476 10.888 68.4729 10.44 70.9903 10.44C73.2943 10.44 75.4063 10.8667 77.3263 11.72C79.2889 12.5307 80.9743 13.704 82.3823 15.24C83.8329 16.7333 84.9423 18.504 85.7103 20.552C86.4783 22.6 86.8409 24.84 86.7983 27.272L86.7343 30.088H59.5343L58.0623 24.456H79.2463L78.1583 25.608V24.264C78.0729 23.0693 77.6889 22.024 77.0063 21.128C76.3663 20.232 75.5343 19.528 74.5103 19.016C73.4863 18.4613 72.3556 18.184 71.1183 18.184C69.1983 18.184 67.5769 18.568 66.2543 19.336C64.9743 20.0613 63.9929 21.128 63.3103 22.536C62.6703 23.9013 62.3503 25.608 62.3503 27.656C62.3503 29.6613 62.7769 31.432 63.6303 32.968C64.4836 34.4613 65.6996 35.6133 67.2783 36.424C68.8996 37.2347 70.7983 37.64 72.9743 37.64C74.4676 37.64 75.8329 37.4053 77.0703 36.936C78.3076 36.4667 79.6516 35.656 81.1023 34.504L85.3903 40.584C84.1956 41.6507 82.8516 42.568 81.3583 43.336C79.8649 44.104 78.3289 44.68 76.7503 45.064C75.1716 45.448 73.5929 45.64 72.0143 45.64ZM123.081 45V0.199997H132.681V45H123.081ZM94.7928 45V0.199997H104.393V45H94.7928ZM98.6968 27.08V18.248H127.945V27.08H98.6968ZM162.787 45.384C159.161 45.384 155.918 44.6373 153.059 43.144C150.243 41.608 148.025 39.5173 146.403 36.872C144.782 34.184 143.971 31.1547 143.971 27.784V0.135998H153.571V27.208C153.571 29 153.977 30.6213 154.787 32.072C155.641 33.48 156.771 34.6107 158.179 35.464C159.587 36.3173 161.123 36.744 162.787 36.744C164.537 36.744 166.115 36.3173 167.523 35.464C168.974 34.6107 170.105 33.48 170.915 32.072C171.769 30.6213 172.195 29 172.195 27.208V0.135998H181.475V27.784C181.475 31.1547 180.665 34.184 179.043 36.872C177.465 39.5173 175.267 41.608 172.451 43.144C169.635 44.6373 166.414 45.384 162.787 45.384ZM192.73 45V0.199997H212.186C215.216 0.199997 217.754 0.647998 219.802 1.544C221.85 2.39733 223.408 3.656 224.474 5.32C225.584 6.94133 226.138 8.94667 226.138 11.336C226.138 13.8107 225.477 15.9013 224.154 17.608C222.874 19.3147 221.061 20.5093 218.714 21.192L218.65 19.848C220.613 20.3173 222.32 21.1067 223.77 22.216C225.264 23.2827 226.416 24.6053 227.226 26.184C228.08 27.7627 228.506 29.5547 228.506 31.56C228.506 33.7787 228.122 35.7413 227.354 37.448C226.629 39.112 225.562 40.52 224.154 41.672C222.789 42.7813 221.146 43.6133 219.226 44.168C217.306 44.7227 215.173 45 212.826 45H192.73ZM201.946 36.68H212.442C214.49 36.68 216.09 36.2107 217.242 35.272C218.394 34.2907 218.97 32.9253 218.97 31.176C218.97 30.0667 218.693 29.128 218.138 28.36C217.584 27.592 216.794 27.016 215.77 26.632C214.746 26.248 213.53 26.056 212.122 26.056H201.946V36.68ZM201.946 18.312H211.034C212.229 18.312 213.232 18.12 214.042 17.736C214.896 17.3093 215.557 16.7333 216.026 16.008C216.496 15.24 216.73 14.3653 216.73 13.384C216.73 11.848 216.197 10.6533 215.13 9.8C214.106 8.94666 212.57 8.52 210.522 8.52H201.946V18.312Z" fill="black" style="fill:black;fill-opacity:1;"/>
</svg>
